%TF.GenerationSoftware,KiCad,Pcbnew,9.0.5*%
%TF.CreationDate,2025-10-16T15:08:48-05:00*%
%TF.ProjectId,STAR_GATE_DRIVER,53544152-5f47-4415-9445-5f4452495645,rev?*%
%TF.SameCoordinates,Original*%
%TF.FileFunction,Soldermask,Top*%
%TF.FilePolarity,Negative*%
%FSLAX46Y46*%
G04 Gerber Fmt 4.6, Leading zero omitted, Abs format (unit mm)*
G04 Created by KiCad (PCBNEW 9.0.5) date 2025-10-16 15:08:48*
%MOMM*%
%LPD*%
G01*
G04 APERTURE LIST*
G04 Aperture macros list*
%AMRoundRect*
0 Rectangle with rounded corners*
0 $1 Rounding radius*
0 $2 $3 $4 $5 $6 $7 $8 $9 X,Y pos of 4 corners*
0 Add a 4 corners polygon primitive as box body*
4,1,4,$2,$3,$4,$5,$6,$7,$8,$9,$2,$3,0*
0 Add four circle primitives for the rounded corners*
1,1,$1+$1,$2,$3*
1,1,$1+$1,$4,$5*
1,1,$1+$1,$6,$7*
1,1,$1+$1,$8,$9*
0 Add four rect primitives between the rounded corners*
20,1,$1+$1,$2,$3,$4,$5,0*
20,1,$1+$1,$4,$5,$6,$7,0*
20,1,$1+$1,$6,$7,$8,$9,0*
20,1,$1+$1,$8,$9,$2,$3,0*%
G04 Aperture macros list end*
%ADD10RoundRect,0.237500X-0.250000X-0.237500X0.250000X-0.237500X0.250000X0.237500X-0.250000X0.237500X0*%
%ADD11RoundRect,0.237500X0.250000X0.237500X-0.250000X0.237500X-0.250000X-0.237500X0.250000X-0.237500X0*%
%ADD12C,1.854000*%
%ADD13RoundRect,0.237500X-0.300000X-0.237500X0.300000X-0.237500X0.300000X0.237500X-0.300000X0.237500X0*%
%ADD14RoundRect,0.237500X0.237500X-0.250000X0.237500X0.250000X-0.237500X0.250000X-0.237500X-0.250000X0*%
%ADD15R,1.475000X0.450000*%
%ADD16RoundRect,0.237500X-0.237500X0.300000X-0.237500X-0.300000X0.237500X-0.300000X0.237500X0.300000X0*%
G04 APERTURE END LIST*
D10*
%TO.C,R4*%
X144910000Y-102200000D03*
X143085000Y-102200000D03*
%TD*%
D11*
%TO.C,R5*%
X136317500Y-102770000D03*
X138142500Y-102770000D03*
%TD*%
D12*
%TO.C,J7*%
X139150000Y-94070000D03*
X139150000Y-96610000D03*
X136610000Y-94070000D03*
X136610000Y-96610000D03*
X134070000Y-94070000D03*
X134070000Y-96610000D03*
X131530000Y-94070000D03*
X131530000Y-96610000D03*
%TD*%
D13*
%TO.C,C2*%
X143090000Y-111300000D03*
X144815000Y-111300000D03*
%TD*%
D10*
%TO.C,R6*%
X143077500Y-104440000D03*
X144902500Y-104440000D03*
%TD*%
D14*
%TO.C,R1*%
X123170000Y-101902500D03*
X123170000Y-100077500D03*
%TD*%
D15*
%TO.C,U1*%
X132604000Y-104670000D03*
X132604000Y-105320000D03*
X132604000Y-105970000D03*
X132604000Y-106620000D03*
X132604000Y-107270000D03*
X132604000Y-107920000D03*
X132604000Y-108570000D03*
X132604000Y-109220000D03*
X138480000Y-109220000D03*
X138480000Y-108570000D03*
X138480000Y-107920000D03*
X138480000Y-107270000D03*
X138480000Y-106620000D03*
X138480000Y-105970000D03*
X138480000Y-105320000D03*
X138480000Y-104670000D03*
%TD*%
D10*
%TO.C,R3*%
X143105000Y-106780000D03*
X144930000Y-106780000D03*
%TD*%
D11*
%TO.C,R2*%
X144895000Y-109350000D03*
X143070000Y-109350000D03*
%TD*%
D12*
%TO.C,J5*%
X133080000Y-120080000D03*
X133080000Y-117540000D03*
X135620000Y-120080000D03*
X135620000Y-117540000D03*
X138160000Y-120080000D03*
X138160000Y-117540000D03*
%TD*%
D16*
%TO.C,C3*%
X126477500Y-103647500D03*
X126477500Y-105372500D03*
%TD*%
%TO.C,C1*%
X123050000Y-104395000D03*
X123050000Y-106120000D03*
%TD*%
M02*
