#VRML V2.0 utf8
# META "generator" "CAD Exchanger 3.8.1 (cadexchanger.com)"
DEF __1 Transform {
  children [
    DEF __2 Group {
      children [
        DEF B3B-XH-A(LF)(SN) Group {
          children [
            DEF B3B-XH-A(LF)(SN)_1 Shape {
              appearance DEF __5 Appearance {
                material DEF __6 Material {
                  diffuseColor 1 1 1
                  shininess 0
                }
              }
              geometry DEF __7 IndexedFaceSet {
                solid FALSE
                coord Coordinate {
                  point [
                    -0.00178078494908 0.0123561621395 0.0115407185472,
                    -0.00178078494908 0.0123561621395 0.0109407185472,
                    0.000219215050918 0.0123561621395 0.0115407185472,
                    0.000219215050918 0.0123561621395 0.0109407185472,
                    0.00598921505092 0.0061561621395 0.0129707185472,
                    0.00598921505092 0.0061561621395 0.0136107185472,
                    0.00534921505092 0.0061561621395 0.0136107185472,
                    0.00534921505092 0.0061561621395 0.0129707185472,
                    0.00348921505092 0.0061561621395 0.0129707185472,
                    0.00348921505092 0.0061561621395 0.0136107185472,
                    0.00284921505092 0.0061561621395 0.0136107185472,
                    0.00284921505092 0.0061561621395 0.0129707185472,
                    0.000989215050918 0.0061561621395 0.0129707185472,
                    0.000989215050918 0.0061561621395 0.0136107185472,
                    0.000349215050918 0.0061561621395 0.0136107185472,
                    0.000349215050918 0.0061561621395 0.0129707185472,
                    -0.000980784949082 0.0061561621395 0.0158907185472,
                    -0.000980784949082 0.0061561621395 0.0117407185472,
                    0.00731921505092 0.0061561621395 0.0158907185472,
                    0.00731921505092 0.0061561621395 0.0117407185472,
                    0.00811921505092 0.0097561621395 0.0117407185472,
                    0.00811921505092 0.0118561621395 0.0117407185472,
                    0.00578271892212 0.0118561621395 0.0117407185472,
                    0.00571135867009 0.0117501278557 0.0117407185472,
                    0.00611921505092 0.0114561621395 0.0117407185472,
                    0.00611921505092 0.0094561621395 0.0117407185472,
                    0.00536921505092 0.0087061621395 0.0117407185472,
                    0.00463921505092 0.0087061621395 0.0117407185472,
                    0.00463921505092 0.0118561621395 0.0117407185472,
                    0.00169921505092 0.0118561621395 0.0117407185472,
                    0.00169921505092 0.0087061621395 0.0117407185472,
                    0.000969215050918 0.0087061621395 0.0117407185472,
                    0.000219215050918 0.0094561621395 0.0117407185472,
                    0.000219215050918 0.0114561621395 0.0117407185472,
                    0.00062707143175 0.0117501278557 0.0117407185472,
                    0.00055571117972 0.0118561621395 0.0117407185472,
                    -0.00178078494908 0.0118561621395 0.0117407185472,
                    -0.00178078494908 0.0097561621395 0.0117407185472,
                    -0.000980784949082 0.0097561621395 0.0117407185472,
                    0.00731921505092 0.0097561621395 0.0117407185472,
                    -0.000980784949082 0.0118561621395 0.0158907185472,
                    0.00731921505092 0.0118561621395 0.0158907185472,
                    0.00611921505092 0.0123561621395 0.0109407185472,
                    0.00611921505092 0.0123561621395 0.0115407185472,
                    0.00811921505092 0.0123561621395 0.0115407185472,
                    0.00811921505092 0.0123561621395 0.0109407185472,
                    0.00169921505092 0.0123561621395 0.0115407185472,
                    0.00169921505092 0.0123561621395 0.0109407185472,
                    0.00463921505092 0.0123561621395 0.0115407185472,
                    0.00463921505092 0.0123561621395 0.0109407185472,
                    0.00496921505092 0.0053561621395 0.0109407185472,
                    0.00386921505092 0.0053561621395 0.0109407185472,
                    0.00496921505092 0.0053561621395 0.0166907185472,
                    0.00386921505092 0.0053561621395 0.0166907185472,
                    0.00636921505092 0.0053561621395 0.0166907185472,
                    0.00811921505092 0.0053561621395 0.0166907185472,
                    0.00636921505092 0.0053561621395 0.0109407185472,
                    0.00811921505092 0.0053561621395 0.0109407185472,
                    0.00246921505092 0.0053561621395 0.0109407185472,
                    0.00136921505092 0.0053561621395 0.0109407185472,
                    0.00246921505092 0.0053561621395 0.0166907185472,
                    0.00136921505092 0.0053561621395 0.0166907185472,
                    -0.00178078494908 0.0053561621395 0.0166907185472,
                    -0.00178078494908 0.0053561621395 0.0109407185472,
                    -3.0784949082e-05 0.0053561621395 0.0109407185472,
                    -3.0784949082e-05 0.0053561621395 0.0166907185472,
                    0.00062707143175 0.0117501278557 0.0109407185472,
                    0.000219215050918 0.0114561621395 0.0109407185472,
                    0.000219215050918 0.0094561621395 0.0109407185472,
                    0.000969215050918 0.0087061621395 0.0109407185472,
                    0.00169921505092 0.0087061621395 0.0109407185472,
                    0.00463921505092 0.0087061621395 0.0109407185472,
                    0.00536921505092 0.0087061621395 0.0109407185472,
                    0.00611921505092 0.0094561621395 0.0109407185472,
                    0.00611921505092 0.0114561621395 0.0109407185472,
                    0.00571135867009 0.0117501278557 0.0109407185472,
                    0.00636921505092 0.0058561621395 0.0109407185472,
                    0.00496921505092 0.0058561621395 0.0109407185472,
                    0.00386921505092 0.0058561621395 0.0109407185472,
                    0.00246921505092 0.0058561621395 0.0109407185472,
                    0.00136921505092 0.0058561621395 0.0109407185472,
                    -3.0784949082e-05 0.0058561621395 0.0109407185472,
                    -3.0784949082e-05 0.0058561621395 0.0166907185472,
                    0.00136921505092 0.0058561621395 0.0166907185472,
                    0.00246921505092 0.0058561621395 0.0166907185472,
                    0.00386921505092 0.0058561621395 0.0166907185472,
                    0.00496921505092 0.0058561621395 0.0166907185472,
                    0.00636921505092 0.0058561621395 0.0166907185472,
                    0.00811921505092 0.0123561621395 0.0166907185472,
                    -0.00178078494908 0.0123561621395 0.0166907185472,
                    0.000349215050918 0.0055561621395 0.0136107185472,
                    0.000989215050918 0.0055561621395 0.0136107185472,
                    0.000989215050918 0.0055561621395 0.0129707185472,
                    0.000349215050918 0.0055561621395 0.0129707185472,
                    0.00284921505092 0.0055561621395 0.0136107185472,
                    0.00348921505092 0.0055561621395 0.0136107185472,
                    0.00348921505092 0.0055561621395 0.0129707185472,
                    0.00284921505092 0.0055561621395 0.0129707185472,
                    0.00598921505092 0.0055561621395 0.0129707185472,
                    0.00598921505092 0.0055561621395 0.0136107185472,
                    0.00534921505092 0.0055561621395 0.0136107185472,
                    0.00534921505092 0.0055561621395 0.0129707185472,
                    0.00751921505092 0.0123561621395 0.0160907185472,
                    -0.00118078494908 0.0123561621395 0.0160907185472,
                    -0.00118078494908 0.0123561621395 0.0127407185472,
                    -0.00178078494908 0.0123561621395 0.0127407185472,
                    0.00811921505092 0.0123561621395 0.0127407185472,
                    0.00751921505092 0.0123561621395 0.0127407185472,
                    0.00811921505092 0.0093561621395 0.0121407185472,
                    0.00811921505092 0.0093561621395 0.0127407185472,
                    0.00731921505092 0.0118561621395 0.0127407185472,
                    0.00731921505092 0.0093561621395 0.0127407185472,
                    0.00731921505092 0.0093561621395 0.0121407185472,
                    0.00496921505092 0.0055561621395 0.0121407185472,
                    0.00496921505092 0.0055561621395 0.0141907185472,
                    0.00636921505092 0.0055561621395 0.0121407185472,
                    0.00636921505092 0.0055561621395 0.0141907185472,
                    0.00246921505092 0.0055561621395 0.0121407185472,
                    0.00246921505092 0.0055561621395 0.0141907185472,
                    0.00386921505092 0.0055561621395 0.0121407185472,
                    0.00386921505092 0.0055561621395 0.0141907185472,
                    -3.0784949082e-05 0.0055561621395 0.0121407185472,
                    -3.0784949082e-05 0.0055561621395 0.0141907185472,
                    0.00136921505092 0.0055561621395 0.0121407185472,
                    0.00136921505092 0.0055561621395 0.0141907185472,
                    -0.00178078494908 0.0093561621395 0.0127407185472,
                    -0.00178078494908 0.0093561621395 0.0121407185472,
                    -0.000980784949082 0.0093561621395 0.0121407185472,
                    -0.000980784949082 0.0093561621395 0.0127407185472,
                    -0.000980784949082 0.0118561621395 0.0127407185472,
                    0.00610782086568 0.00932592600625 0.0117407185472,
                    0.00607398451651 0.00919964703201 0.0117407185472,
                    0.00601873410376 0.0090811621395 0.0117407185472,
                    0.00594374838326 0.00897407143224 0.0117407185472,
                    0.00585130575818 0.00888162880716 0.0117407185472,
                    0.00574421505092 0.00880664308666 0.0117407185472,
                    0.00562573015841 0.00875139267391 0.0117407185472,
                    0.00549945118417 0.00871755632474 0.0117407185472,
                    0.000838978917668 0.00871755632474 0.0117407185472,
                    0.000712699943424 0.00875139267391 0.0117407185472,
                    0.000594215050918 0.00880664308666 0.0117407185472,
                    0.000487124343653 0.00888162880716 0.0117407185472,
                    0.000394681718579 0.00897407143224 0.0117407185472,
                    0.00031969599808 0.0090811621395 0.0117407185472,
                    0.000264445585329 0.00919964703201 0.0117407185472,
                    0.000230609236159 0.00932592600625 0.0117407185472,
                    0.000230609236159 0.00932592600625 0.0109407185472,
                    0.000264445585329 0.00919964703201 0.0109407185472,
                    0.00031969599808 0.0090811621395 0.0109407185472,
                    0.000394681718579 0.00897407143224 0.0109407185472,
                    0.000487124343653 0.00888162880716 0.0109407185472,
                    0.000594215050918 0.00880664308666 0.0109407185472,
                    0.000712699943424 0.00875139267391 0.0109407185472,
                    0.000838978917668 0.00871755632474 0.0109407185472,
                    0.00549945118417 0.00871755632474 0.0109407185472,
                    0.00562573015841 0.00875139267391 0.0109407185472,
                    0.00574421505092 0.00880664308666 0.0109407185472,
                    0.00585130575818 0.00888162880716 0.0109407185472,
                    0.00594374838326 0.00897407143224 0.0109407185472,
                    0.00601873410376 0.0090811621395 0.0109407185472,
                    0.00607398451651 0.00919964703201 0.0109407185472,
                    0.00610782086568 0.00932592600625 0.0109407185472,
                    0.00811921505092 0.0093622390383 0.0120712592762,
                    0.00811921505092 0.00938028509119 0.0120039104899,
                    0.00811921505092 0.00940975197799 0.0119407185472,
                    0.00811921505092 0.00944974436225 0.0118836035033,
                    0.00811921505092 0.00949904709563 0.01183430077,
                    0.00811921505092 0.0095561621395 0.0117943083857,
                    0.00811921505092 0.00961935408217 0.0117648414989,
                    0.00811921505092 0.00968670286843 0.011746795446,
                    0.00731921505092 0.00968670286843 0.011746795446,
                    0.00731921505092 0.00961935408217 0.0117648414989,
                    0.00731921505092 0.0095561621395 0.0117943083857,
                    0.00731921505092 0.00949904709563 0.01183430077,
                    0.00731921505092 0.00944974436225 0.0118836035033,
                    0.00731921505092 0.00940975197799 0.0119407185472,
                    0.00731921505092 0.00938028509119 0.0120039104899,
                    0.00731921505092 0.0093622390383 0.0120712592762,
                    -0.00178078494908 0.0093622390383 0.0120712592762,
                    -0.00178078494908 0.00938028509119 0.0120039104899,
                    -0.00178078494908 0.00940975197799 0.0119407185472,
                    -0.00178078494908 0.00944974436225 0.0118836035033,
                    -0.00178078494908 0.00949904709563 0.01183430077,
                    -0.00178078494908 0.0095561621395 0.0117943083857,
                    -0.00178078494908 0.00961935408217 0.0117648414989,
                    -0.00178078494908 0.00968670286843 0.011746795446,
                    -0.000980784949082 0.0093622390383 0.0120712592762,
                    -0.000980784949082 0.00938028509119 0.0120039104899,
                    -0.000980784949082 0.00940975197799 0.0119407185472,
                    -0.000980784949082 0.00944974436225 0.0118836035033,
                    -0.000980784949082 0.00949904709563 0.01183430077,
                    -0.000980784949082 0.0095561621395 0.0117943083857,
                    -0.000980784949082 0.00961935408217 0.0117648414989,
                    -0.000980784949082 0.00968670286843 0.011746795446

                  ]
                }
                normal Normal {
                  vector [
                    -0 1 -0,
                    -0 1 -0,
                    -0 1 -0,
                    -0 1 -0,
                    -0 1 -0,
                    -0 1 -0,
                    -0 1 -0,
                    -0 1 -0,
                    -0 1 -0,
                    -0 1 -0,
                    -0 1 -0,
                    -0 1 -0,
                    -0 1 -0,
                    -0 1 -0,
                    -0 1 -0,
                    -0 1 -0,
                    -0 1 -0,
                    -0 1 -0,
                    -0 1 -0,
                    -0 1 -0,
                    0 0 1,
                    0 0 1,
                    0 0 1,
                    0 0 1,
                    0 0 1,
                    0 0 1,
                    0 0 1,
                    0 0 1,
                    0 0 1,
                    0 0 1,
                    0 0 1,
                    0 0 1,
                    0 0 1,
                    0 0 1,
                    0 0 1,
                    0 0 1,
                    0 0 1,
                    0 0 1,
                    0 0 1,
                    0 0 1,
                    0 0 1,
                    0 0 1,
                    0 0 1,
                    0 0 1,
                    0 0 1,
                    0 0 1,
                    0 0 1,
                    0 0 1,
                    0 0 1,
                    0 0 1,
                    0 0 1,
                    0 0 1,
                    0 0 1,
                    0 0 1,
                    0 0 1,
                    0 0 1,
                    0 0 1,
                    0 0 1,
                    0 0 -1,
                    0 0 -1,
                    0 0 -1,
                    0 0 -1,
                    -0 1 -0,
                    -0 1 -0,
                    -0 1 -0,
                    -0 1 -0,
                    -0 1 -0,
                    -0 1 -0,
                    -0 1 -0,
                    -0 1 -0,
                    0 -1 0,
                    0 -1 0,
                    0 -1 0,
                    0 -1 0,
                    0 -1 0,
                    0 -1 0,
                    0 -1 0,
                    0 -1 0,
                    0 -1 0,
                    0 -1 0,
                    0 -1 0,
                    0 -1 0,
                    0 -1 0,
                    0 -1 0,
                    0 -1 0,
                    0 -1 0,
                    -0 -0 -1,
                    -0 -0 -1,
                    -0 -0 -1,
                    -0 -0 -1,
                    -0 -0 -1,
                    -0 -0 -1,
                    -0 -0 -1,
                    -0 -0 -1,
                    -0 -0 -1,
                    -0 -0 -1,
                    -0 -0 -1,
                    -0 -0 -1,
                    -0 -0 -1,
                    -0 -0 -1,
                    -0 -0 -1,
                    -0 -0 -1,
                    -0 -0 -1,
                    -0 -0 -1,
                    -0 -0 -1,
                    -0 -0 -1,
                    -0 -0 -1,
                    -0 -0 -1,
                    -0 -0 -1,
                    -0 -0 -1,
                    -0 -0 -1,
                    -0 -0 -1,
                    -0 -0 -1,
                    -0 -0 -1,
                    -0 -0 -1,
                    -0 -0 -1,
                    -0 -0 -1,
                    -0 -0 -1,
                    -0 -0 -1,
                    -0 -0 -1,
                    -0 -0 -1,
                    -0 -0 -1,
                    -0 -0 -1,
                    -0 -0 -1,
                    -0 -0 -1,
                    -0 -0 -1,
                    -0 -0 -1,
                    -0 -0 -1,
                    -0 -0 -1,
                    -0 -0 -1,
                    -0 -0 -1,
                    -0 -0 -1,
                    -0 -0 1,
                    -0 -0 1,
                    -0 -0 1,
                    -0 -0 1,
                    -0 -0 1,
                    -0 -0 1,
                    -0 -0 1,
                    -0 -0 1,
                    -0 -0 1,
                    -0 -0 1,
                    -0 -0 1,
                    -0 -0 1,
                    -0 -0 1,
                    -0 -0 1,
                    -0 -0 1,
                    -0 -0 1,
                    -0 -0 -1,
                    -0 -0 -1,
                    -0 -0 -1,
                    -0 -0 -1,
                    -1 0 0,
                    -1 0 0,
                    -1 0 0,
                    -1 0 0,
                    0 0 1,
                    0 0 1,
                    0 0 1,
                    0 0 1,
                    1 -0 -0,
                    1 -0 -0,
                    1 -0 -0,
                    1 -0 -0,
                    -0 -0 -1,
                    -0 -0 -1,
                    -0 -0 -1,
                    -0 -0 -1,
                    -1 0 0,
                    -1 0 0,
                    -1 0 0,
                    -1 0 0,
                    0 0 1,
                    0 0 1,
                    0 0 1,
                    0 0 1,
                    1 -0 -0,
                    1 -0 -0,
                    1 -0 -0,
                    1 -0 -0,
                    -1 0 0,
                    -1 0 0,
                    -1 0 0,
                    -1 0 0,
                    -0 -0 -1,
                    -0 -0 -1,
                    -0 -0 -1,
                    -0 -0 -1,
                    1 -0 -0,
                    1 -0 -0,
                    1 -0 -0,
                    1 -0 -0,
                    0 0 1,
                    0 0 1,
                    0 0 1,
                    0 0 1,
                    -0 1 -0,
                    -0 1 -0,
                    -0 1 -0,
                    -0 1 -0,
                    -0 1 -0,
                    -0 1 -0,
                    -0 1 -0,
                    -0 1 -0,
                    1 -0 -0,
                    1 -0 -0,
                    1 -0 -0,
                    1 -0 -0,
                    1 -0 -0,
                    1 -0 -0,
                    1 -0 -0,
                    1 -0 -0,
                    1 -0 -0,
                    1 -0 -0,
                    1 -0 -0,
                    1 -0 -0,
                    1 -0 -0,
                    1 -0 -0,
                    1 -0 -0,
                    1 -0 -0,
                    1 -0 -0,
                    1 -0 -0,
                    -1 0 0,
                    -1 0 0,
                    -1 0 0,
                    -1 0 0,
                    -1 0 0,
                    -1 0 0,
                    -1 0 0,
                    -1 0 0,
                    -1 0 0,
                    -1 0 0,
                    -1 0 0,
                    -1 0 0,
                    -1 0 0,
                    -1 0 0,
                    -1 0 0,
                    0 -1 0,
                    0 -1 0,
                    0 -1 0,
                    0 -1 0,
                    0 -1 0,
                    0 -1 0,
                    0 -1 0,
                    0 -1 0,
                    1 0 0,
                    1 0 0,
                    1 0 0,
                    1 0 0,
                    1 0 0,
                    1 0 0,
                    -1 0 0,
                    -1 0 0,
                    -1 0 0,
                    -1 0 0,
                    -1 0 0,
                    -1 0 0,
                    0 -1 0,
                    0 -1 0,
                    0 -1 0,
                    0 -1 0,
                    0 -1 0,
                    0 -1 0,
                    0 -1 0,
                    0 -1 0,
                    -1 0 0,
                    -1 0 0,
                    -1 0 0,
                    -1 0 0,
                    -1 0 0,
                    -1 0 0,
                    1 0 0,
                    1 0 0,
                    1 0 0,
                    1 0 0,
                    1 0 0,
                    1 0 0,
                    0 -1 0,
                    0 -1 0,
                    0 -1 0,
                    0 -1 0,
                    0 -1 0,
                    0 -1 0,
                    0 -1 0,
                    0 -1 0,
                    -1 0 0,
                    -1 0 0,
                    -1 0 0,
                    -1 0 0,
                    -1 0 0,
                    -1 0 0,
                    1 0 0,
                    1 0 0,
                    1 0 0,
                    1 0 0,
                    1 0 0,
                    1 0 0,
                    0 -0.99287683 0.11914522,
                    0 -0.99287683 0.11914522,
                    0 -0.99287683 0.11914522,
                    0 -0.99287683 0.11914522,
                    0 -0.99287683 0.11914522,
                    0 -0.99287683 0.11914522,
                    0 -0.99287683 0.11914522,
                    0 -0.99287683 0.11914522,
                    0 -0.99287683 0.11914522,
                    0 -0.99287683 0.11914522,
                    0 -0.99287683 0.11914522,
                    0 -0.99287683 0.11914522,
                    0 -0.97014248 -0.24253562,
                    0 -0.97014248 -0.24253562,
                    0 -0.97014248 -0.24253562,
                    0 -0.97014248 -0.24253562,
                    0 -0.97014248 -0.24253562,
                    0 -0.97014248 -0.24253562,
                    0 -0.97014248 -0.24253562,
                    0 -0.97014248 -0.24253562,
                    0 -0.97014248 -0.24253562,
                    0 -0.97014248 -0.24253562,
                    0 -0.97014248 -0.24253562,
                    0 -0.97014248 -0.24253562,
                    -0.8296203 0.55832803 -0,
                    -0.8296203 0.55832803 -0,
                    -0.8296203 0.55832803 -0,
                    -0.8296203 0.55832803 -0,
                    -0.8296203 0.55832803 -0,
                    -0.58470958 -0.8112427 -0,
                    -0.58470958 -0.8112427 -0,
                    -0.58470958 -0.8112427 -0,
                    -0.58470958 -0.8112427 -0,
                    -1 3.1540426e-16 -0,
                    -1 3.1540426e-16 -0,
                    -1 3.1540426e-16 -0,
                    -1 3.1540426e-16 -0,
                    -2.9302761e-16 1 -0,
                    -2.9302761e-16 1 -0,
                    -2.9302761e-16 1 -0,
                    -2.9302761e-16 1 -0,
                    1 -5.9408339e-16 -0,
                    1 -5.9408339e-16 -0,
                    1 -5.9408339e-16 -0,
                    1 -5.9408339e-16 -0,
                    1 -5.9408339e-16 -0,
                    0 -1.4456029e-16 -1,
                    0 -1.4456029e-16 -1,
                    0 -1.4456029e-16 -1,
                    0 -1.4456029e-16 -1,
                    0 -1.4456029e-16 -1,
                    -0 1 -0,
                    -0 1 -0,
                    -0 1 -0,
                    -0 1 -0,
                    -0 -0 1,
                    -0 -0 1,
                    -0 0.17364818 0.98480773,
                    -0 0.34202015 0.93969262,
                    -0 0.5 0.86602539,
                    -0 0.64278764 0.76604444,
                    -0 0.76604444 0.64278764,
                    -0 0.86602539 0.5,
                    -0 0.93969262 0.34202015,
                    -0 0.98480773 0.17364818,
                    -0 1 -0,
                    -0 1 -0,
                    -0 0.98480773 0.17364818,
                    -0 0.93969262 0.34202015,
                    -0 0.86602539 0.5,
                    -0 0.76604444 0.64278764,
                    -0 0.64278764 0.76604444,
                    -0 0.5 0.86602539,
                    -0 0.34202015 0.93969262,
                    -0 0.17364818 0.98480773,
                    -1 1.2390882e-16 -0,
                    -1 1.2390882e-16 -0,
                    -1 1.2390882e-16 -0,
                    -1 1.2390882e-16 -0,
                    -1 1.2390882e-16 -0,
                    -1 1.2390882e-16 -0,
                    -1 1.2390882e-16 -0,
                    -1 1.2390882e-16 -0,
                    -1 1.2390882e-16 -0,
                    -1 1.2390882e-16 -0,
                    -1 1.2390882e-16 -0,
                    -1 1.2390882e-16 -0,
                    -1 1.2390882e-16 -0,
                    -1 1.2390882e-16 -0,
                    -1 1.2390882e-16 -0,
                    -1 1.2390882e-16 -0,
                    -1 1.2390882e-16 -0,
                    -1 1.2390882e-16 -0,
                    -0 -0 1,
                    -0 -0 1,
                    -0 0.17364818 0.98480773,
                    -0 0.34202015 0.93969262,
                    1.110223e-16 0.5 0.86602539,
                    1.110223e-16 0.64278764 0.76604444,
                    1.110223e-16 0.76604444 0.64278764,
                    1.110223e-16 0.86602539 0.5,
                    1.110223e-16 0.93969262 0.34202015,
                    1.110223e-16 0.98480773 0.17364818,
                    1.110223e-16 1 -0,
                    1.110223e-16 1 -0,
                    1.110223e-16 0.98480773 0.17364818,
                    1.110223e-16 0.93969262 0.34202015,
                    1.110223e-16 0.86602539 0.5,
                    1.110223e-16 0.76604444 0.64278764,
                    1.110223e-16 0.64278764 0.76604444,
                    1.110223e-16 0.5 0.86602539,
                    -0 0.34202015 0.93969262,
                    -0 0.17364818 0.98480773,
                    1.2390882e-16 1 0,
                    1.2390882e-16 1 0,
                    1.2390882e-16 1 0,
                    1.2390882e-16 1 0,
                    0 0 -1,
                    0 0 -1,
                    0 0 -1,
                    0 0 -1,
                    0 0 -1,
                    1 -1.2390882e-16 -0,
                    1 -1.2390882e-16 -0,
                    1 -1.2390882e-16 -0,
                    1 -1.2390882e-16 -0,
                    1 -1.2390882e-16 -0,
                    1 -1.2390882e-16 -0,
                    1 -1.2390882e-16 -0,
                    1 -1.2390882e-16 -0,
                    1 -1.2390882e-16 -0,
                    1 -1.2390882e-16 -0,
                    1 -1.2390882e-16 -0,
                    1 -1.2390882e-16 -0,
                    1 -1.2390882e-16 -0,
                    1 -1.2390882e-16 -0,
                    1 -1.2390882e-16 -0,
                    0.8296203 0.55832803 -0,
                    0.8296203 0.55832803 -0,
                    0.8296203 0.55832803 -0,
                    0.8296203 0.55832803 -0,
                    0.8296203 0.55832803 -0,
                    0.58470958 -0.8112427 -0,
                    0.58470958 -0.8112427 -0,
                    0.58470958 -0.8112427 -0,
                    0.58470958 -0.8112427 -0,
                    1 -0 -0,
                    1 -0 -0,
                    1 -0 -0,
                    1 -0 -0,
                    -0 1 -0,
                    -0 1 -0,
                    -0 1 -0,
                    -0 1 -0,
                    -1 -0 -0,
                    -1 -0 -0,
                    -1 -0 -0,
                    -1 -0 -0,
                    -1 -0 -0,
                    0 0.37139067 0.92847669,
                    0 0.37139067 0.92847669,
                    0 0.37139067 0.92847669,
                    0 0.37139067 0.92847669,
                    0 0.37139067 0.92847669,
                    0 0.37139067 0.92847669,
                    0 0.37139067 0.92847669,
                    0 0.37139067 0.92847669,
                    0 0.37139067 0.92847669,
                    0 0.37139067 0.92847669,
                    0 0.37139067 0.92847669,
                    0 0.37139067 0.92847669,
                    -0.92847669 0.37139067 0,
                    -0.92847669 0.37139067 0,
                    -0.92847669 0.37139067 0,
                    -0.92847669 0.37139067 0,
                    0 0.37139067 -0.92847669,
                    0 0.37139067 -0.92847669,
                    0 0.37139067 -0.92847669,
                    0 0.37139067 -0.92847669,
                    0.92847669 0.37139067 0,
                    0.92847669 0.37139067 0,
                    0.92847669 0.37139067 0,
                    0.92847669 0.37139067 0,
                    1 -0 -0,
                    1 -0 -0,
                    0.98480773 0.17364818 -0,
                    0.93969262 0.34202015 -0,
                    0.86602539 0.5 -0,
                    0.76604444 0.64278764 -0,
                    0.64278764 0.76604444 -0,
                    0.5 0.86602539 -0,
                    0.34202015 0.93969262 -0,
                    0.17364818 0.98480773 -0,
                    2.220446e-16 1 -0,
                    2.220446e-16 1 -0,
                    0.17364818 0.98480773 -0,
                    0.34202015 0.93969262 -0,
                    0.5 0.86602539 -0,
                    0.64278764 0.76604444 -0,
                    0.76604444 0.64278764 -0,
                    0.86602539 0.5 -0,
                    0.93969262 0.34202015 -0,
                    0.98480773 0.17364818 -0,
                    -1 -0 -0,
                    -1 -0 -0,
                    -0.98480773 0.17364818 -0,
                    -0.93969262 0.34202015 -0,
                    -0.86602539 0.5 -0,
                    -0.76604444 0.64278764 -0,
                    -0.64278764 0.76604444 -0,
                    -0.5 0.86602539 -0,
                    -0.34202015 0.93969262 -0,
                    -0.17364818 0.98480773 -0,
                    -0 1 -0,
                    -0 1 -0,
                    -0.17364818 0.98480773 -0,
                    -0.34202015 0.93969262 -0,
                    -0.5 0.86602539 -0,
                    -0.64278764 0.76604444 -0,
                    -0.76604444 0.64278764 -0,
                    -0.86602539 0.5 -0,
                    -0.93969262 0.34202015 -0,
                    -0.98480773 0.17364818 -0

                  ]
                }
                coordIndex [
                  2 3 1 -1 
                  0 2 1 -1 
                  7 8 6 -1 
                  7 4 19 -1 
                  5 18 19 -1 
                  18 6 9 -1 
                  9 6 8 -1 
                  17 8 19 -1 
                  13 10 12 -1 
                  19 8 7 -1 
                  9 10 18 -1 
                  10 11 12 -1 
                  18 10 16 -1 
                  17 11 8 -1 
                  17 12 11 -1 
                  16 10 13 -1 
                  14 15 17 -1 
                  16 14 17 -1 
                  17 15 12 -1 
                  19 4 5 -1 
                  18 5 6 -1 
                  16 13 14 -1 
                  24 21 22 -1 
                  39 20 21 -1 
                  24 22 23 -1 
                  130 39 25 -1 
                  131 39 130 -1 
                  132 39 131 -1 
                  19 39 133 -1 
                  39 132 133 -1 
                  19 133 134 -1 
                  19 134 135 -1 
                  19 136 137 -1 
                  30 27 29 -1 
                  19 137 26 -1 
                  29 27 28 -1 
                  31 17 30 -1 
                  138 17 31 -1 
                  139 17 138 -1 
                  140 17 139 -1 
                  141 17 140 -1 
                  17 141 142 -1 
                  17 142 38 -1 
                  143 144 38 -1 
                  144 145 38 -1 
                  35 36 33 -1 
                  35 33 34 -1 
                  38 145 32 -1 
                  142 143 38 -1 
                  38 33 36 -1 
                  38 32 33 -1 
                  38 36 37 -1 
                  19 26 27 -1 
                  17 27 30 -1 
                  19 135 136 -1 
                  19 27 17 -1 
                  39 21 24 -1 
                  39 24 25 -1 
                  40 41 16 -1 
                  18 16 41 -1 
                  44 45 42 -1 
                  43 44 42 -1 
                  48 49 47 -1 
                  46 48 47 -1 
                  52 51 50 -1 
                  53 51 52 -1 
                  54 56 55 -1 
                  57 55 56 -1 
                  60 59 58 -1 
                  61 59 60 -1 
                  64 62 63 -1 
                  65 62 64 -1 
                  81 64 63 -1 
                  58 59 80 -1 
                  79 58 80 -1 
                  50 51 78 -1 
                  77 50 78 -1 
                  57 56 76 -1 
                  158 57 76 -1 
                  74 42 45 -1 
                  161 45 57 -1 
                  74 75 42 -1 
                  73 74 45 -1 
                  161 73 45 -1 
                  154 76 77 -1 
                  160 161 57 -1 
                  71 77 78 -1 
                  159 160 57 -1 
                  158 159 57 -1 
                  71 78 79 -1 
                  157 158 76 -1 
                  70 79 80 -1 
                  156 157 76 -1 
                  155 156 76 -1 
                  154 155 76 -1 
                  47 49 71 -1 
                  72 154 77 -1 
                  149 81 63 -1 
                  71 72 77 -1 
                  153 80 81 -1 
                  70 71 79 -1 
                  70 47 71 -1 
                  69 70 80 -1 
                  153 69 80 -1 
                  152 153 81 -1 
                  151 152 81 -1 
                  150 151 81 -1 
                  149 150 81 -1 
                  146 63 1 -1 
                  148 149 63 -1 
                  147 148 63 -1 
                  146 147 63 -1 
                  68 146 1 -1 
                  67 68 1 -1 
                  3 67 1 -1 
                  3 66 67 -1 
                  87 55 88 -1 
                  85 88 89 -1 
                  87 54 55 -1 
                  86 87 88 -1 
                  53 52 86 -1 
                  85 86 88 -1 
                  85 53 86 -1 
                  84 85 89 -1 
                  61 60 84 -1 
                  83 84 89 -1 
                  83 61 84 -1 
                  82 89 62 -1 
                  82 83 89 -1 
                  65 82 62 -1 
                  14 13 91 -1 
                  90 14 91 -1 
                  91 12 92 -1 
                  13 12 91 -1 
                  92 15 93 -1 
                  12 15 92 -1 
                  15 14 90 -1 
                  93 15 90 -1 
                  10 9 95 -1 
                  94 10 95 -1 
                  95 8 96 -1 
                  9 8 95 -1 
                  96 11 97 -1 
                  8 11 96 -1 
                  11 10 94 -1 
                  97 11 94 -1 
                  99 4 98 -1 
                  5 4 99 -1 
                  6 5 99 -1 
                  100 6 99 -1 
                  7 6 100 -1 
                  101 7 100 -1 
                  98 7 101 -1 
                  4 7 98 -1 
                  106 102 88 -1 
                  106 107 102 -1 
                  88 102 89 -1 
                  103 105 89 -1 
                  103 89 102 -1 
                  103 104 105 -1 
                  109 88 55 -1 
                  109 55 57 -1 
                  109 106 88 -1 
                  108 109 57 -1 
                  162 108 57 -1 
                  163 162 57 -1 
                  164 163 57 -1 
                  165 164 57 -1 
                  166 165 57 -1 
                  167 166 57 -1 
                  169 57 45 -1 
                  168 167 57 -1 
                  169 168 57 -1 
                  20 169 45 -1 
                  21 20 45 -1 
                  44 21 45 -1 
                  111 18 41 -1 
                  111 41 110 -1 
                  19 18 111 -1 
                  177 19 112 -1 
                  176 19 177 -1 
                  175 19 176 -1 
                  174 19 175 -1 
                  173 19 174 -1 
                  172 19 173 -1 
                  171 19 172 -1 
                  19 111 112 -1 
                  170 19 171 -1 
                  39 19 170 -1 
                  99 98 116 -1 
                  98 113 115 -1 
                  98 115 116 -1 
                  101 114 113 -1 
                  101 113 98 -1 
                  100 116 114 -1 
                  100 114 101 -1 
                  99 116 100 -1 
                  113 50 77 -1 
                  114 50 113 -1 
                  86 52 114 -1 
                  52 50 114 -1 
                  116 56 54 -1 
                  116 54 87 -1 
                  115 56 116 -1 
                  76 56 115 -1 
                  94 120 118 -1 
                  95 120 94 -1 
                  94 118 97 -1 
                  97 118 117 -1 
                  96 119 120 -1 
                  96 117 119 -1 
                  96 120 95 -1 
                  97 117 96 -1 
                  120 51 53 -1 
                  120 53 85 -1 
                  119 51 120 -1 
                  78 51 119 -1 
                  117 58 79 -1 
                  118 58 117 -1 
                  84 60 118 -1 
                  60 58 118 -1 
                  90 124 122 -1 
                  91 124 90 -1 
                  90 122 93 -1 
                  93 122 121 -1 
                  92 123 124 -1 
                  92 121 123 -1 
                  92 124 91 -1 
                  93 121 92 -1 
                  124 59 61 -1 
                  124 61 83 -1 
                  123 59 124 -1 
                  80 59 123 -1 
                  121 64 81 -1 
                  122 64 121 -1 
                  82 65 122 -1 
                  65 64 122 -1 
                  124 82 122 -1 
                  83 82 124 -1 
                  116 86 114 -1 
                  87 86 116 -1 
                  120 84 118 -1 
                  85 84 120 -1 
                  121 81 80 -1 
                  121 80 123 -1 
                  117 79 78 -1 
                  117 78 119 -1 
                  113 77 76 -1 
                  113 76 115 -1 
                  22 75 23 -1 
                  43 42 75 -1 
                  22 43 75 -1 
                  75 74 24 -1 
                  23 75 24 -1 
                  25 24 74 -1 
                  73 25 74 -1 
                  72 71 27 -1 
                  26 72 27 -1 
                  28 71 49 -1 
                  28 27 71 -1 
                  48 28 49 -1 
                  110 109 111 -1 
                  110 106 109 -1 
                  110 107 106 -1 
                  109 108 112 -1 
                  111 109 112 -1 
                  169 20 39 -1 
                  170 171 169 -1 
                  172 173 167 -1 
                  174 175 165 -1 
                  176 177 163 -1 
                  177 112 162 -1 
                  175 164 165 -1 
                  176 163 164 -1 
                  177 162 163 -1 
                  112 108 162 -1 
                  174 165 166 -1 
                  175 176 164 -1 
                  173 166 167 -1 
                  173 174 166 -1 
                  172 167 168 -1 
                  171 172 168 -1 
                  171 168 169 -1 
                  170 169 39 -1 
                  185 37 1 -1 
                  63 184 185 -1 
                  63 183 184 -1 
                  63 182 183 -1 
                  63 181 182 -1 
                  63 180 181 -1 
                  63 179 180 -1 
                  63 178 179 -1 
                  89 125 62 -1 
                  89 105 125 -1 
                  63 125 126 -1 
                  63 126 178 -1 
                  63 62 125 -1 
                  36 1 37 -1 
                  63 185 1 -1 
                  36 0 1 -1 
                  193 38 37 -1 
                  185 184 193 -1 
                  183 182 191 -1 
                  181 180 189 -1 
                  179 178 187 -1 
                  178 126 186 -1 
                  180 188 189 -1 
                  179 187 188 -1 
                  178 186 187 -1 
                  126 127 186 -1 
                  181 189 190 -1 
                  180 179 188 -1 
                  182 190 191 -1 
                  182 181 190 -1 
                  183 191 192 -1 
                  184 183 192 -1 
                  184 192 193 -1 
                  185 193 37 -1 
                  128 126 125 -1 
                  127 126 128 -1 
                  129 125 105 -1 
                  129 105 104 -1 
                  125 129 128 -1 
                  16 128 40 -1 
                  187 186 17 -1 
                  188 187 17 -1 
                  189 188 17 -1 
                  190 189 17 -1 
                  191 190 17 -1 
                  192 191 17 -1 
                  193 192 17 -1 
                  129 40 128 -1 
                  17 127 128 -1 
                  17 186 127 -1 
                  38 193 17 -1 
                  16 17 128 -1 
                  2 66 3 -1 
                  35 34 66 -1 
                  2 35 66 -1 
                  34 33 67 -1 
                  66 34 67 -1 
                  67 33 68 -1 
                  32 68 33 -1 
                  31 70 69 -1 
                  31 30 70 -1 
                  29 70 30 -1 
                  29 47 70 -1 
                  29 46 47 -1 
                  43 21 44 -1 
                  22 21 43 -1 
                  46 28 48 -1 
                  29 28 46 -1 
                  36 35 2 -1 
                  36 2 0 -1 
                  41 107 110 -1 
                  102 107 41 -1 
                  40 102 41 -1 
                  103 102 40 -1 
                  40 104 103 -1 
                  40 129 104 -1 
                  146 68 32 -1 
                  145 144 146 -1 
                  143 142 148 -1 
                  141 140 150 -1 
                  139 138 152 -1 
                  138 31 153 -1 
                  140 151 150 -1 
                  139 152 151 -1 
                  138 153 152 -1 
                  31 69 153 -1 
                  141 150 149 -1 
                  140 139 151 -1 
                  142 149 148 -1 
                  142 141 149 -1 
                  143 148 147 -1 
                  144 143 147 -1 
                  144 147 146 -1 
                  145 146 32 -1 
                  130 25 73 -1 
                  161 160 130 -1 
                  159 158 132 -1 
                  157 156 134 -1 
                  155 154 136 -1 
                  154 72 137 -1 
                  156 135 134 -1 
                  155 136 135 -1 
                  154 137 136 -1 
                  72 26 137 -1 
                  157 134 133 -1 
                  156 155 135 -1 
                  158 133 132 -1 
                  158 157 133 -1 
                  159 132 131 -1 
                  160 159 131 -1 
                  160 131 130 -1 
                  161 130 73 -1 
                ]
                normalIndex [
                  2 1 0 -1 
                  3 2 0 -1 
                  5 8 6 -1 
                  5 4 17 -1 
                  7 18 17 -1 
                  18 6 11 -1 
                  11 6 8 -1 
                  16 8 17 -1 
                  15 10 12 -1 
                  17 8 5 -1 
                  11 10 18 -1 
                  10 9 12 -1 
                  18 10 19 -1 
                  16 9 8 -1 
                  16 12 9 -1 
                  19 10 15 -1 
                  14 13 16 -1 
                  19 14 16 -1 
                  16 13 12 -1 
                  17 4 7 -1 
                  18 7 6 -1 
                  19 15 14 -1 
                  24 21 22 -1 
                  57 20 21 -1 
                  24 22 23 -1 
                  26 57 25 -1 
                  27 57 26 -1 
                  28 57 27 -1 
                  56 57 29 -1 
                  57 28 29 -1 
                  56 29 30 -1 
                  56 30 31 -1 
                  56 32 33 -1 
                  38 35 37 -1 
                  56 33 34 -1 
                  37 35 36 -1 
                  39 55 38 -1 
                  40 55 39 -1 
                  41 55 40 -1 
                  42 55 41 -1 
                  43 55 42 -1 
                  55 43 44 -1 
                  55 44 54 -1 
                  45 46 54 -1 
                  46 47 54 -1 
                  51 52 49 -1 
                  51 49 50 -1 
                  54 47 48 -1 
                  44 45 54 -1 
                  54 49 52 -1 
                  54 48 49 -1 
                  54 52 53 -1 
                  56 34 35 -1 
                  55 35 38 -1 
                  56 31 32 -1 
                  56 35 55 -1 
                  57 21 24 -1 
                  57 24 25 -1 
                  59 60 58 -1 
                  61 58 60 -1 
                  64 63 62 -1 
                  65 64 62 -1 
                  68 67 66 -1 
                  69 68 66 -1 
                  72 70 71 -1 
                  73 70 72 -1 
                  75 76 74 -1 
                  77 74 76 -1 
                  80 78 79 -1 
                  81 78 80 -1 
                  84 82 83 -1 
                  85 82 84 -1 
                  89 88 87 -1 
                  92 91 90 -1 
                  93 92 90 -1 
                  96 95 94 -1 
                  97 96 94 -1 
                  100 99 98 -1 
                  109 100 98 -1 
                  104 102 101 -1 
                  106 101 100 -1 
                  104 103 102 -1 
                  105 104 101 -1 
                  106 105 101 -1 
                  113 98 97 -1 
                  107 106 100 -1 
                  115 97 94 -1 
                  108 107 100 -1 
                  109 108 100 -1 
                  115 94 93 -1 
                  110 109 98 -1 
                  118 93 90 -1 
                  111 110 98 -1 
                  112 111 98 -1 
                  113 112 98 -1 
                  117 116 115 -1 
                  114 113 97 -1 
                  124 89 87 -1 
                  115 114 97 -1 
                  120 90 89 -1 
                  118 115 93 -1 
                  118 117 115 -1 
                  119 118 90 -1 
                  120 119 90 -1 
                  121 120 89 -1 
                  122 121 89 -1 
                  123 122 89 -1 
                  124 123 89 -1 
                  127 87 86 -1 
                  125 124 87 -1 
                  126 125 87 -1 
                  127 126 87 -1 
                  128 127 86 -1 
                  129 128 86 -1 
                  131 129 86 -1 
                  131 130 129 -1 
                  137 135 134 -1 
                  141 134 133 -1 
                  137 136 135 -1 
                  138 137 134 -1 
                  140 139 138 -1 
                  141 138 134 -1 
                  141 140 138 -1 
                  142 141 133 -1 
                  144 143 142 -1 
                  145 142 133 -1 
                  145 144 142 -1 
                  146 133 132 -1 
                  146 145 133 -1 
                  147 146 132 -1 
                  150 149 148 -1 
                  151 150 148 -1 
                  154 152 153 -1 
                  155 152 154 -1 
                  158 156 157 -1 
                  159 156 158 -1 
                  162 161 160 -1 
                  163 162 160 -1 
                  166 165 164 -1 
                  167 166 164 -1 
                  170 168 169 -1 
                  171 168 170 -1 
                  174 172 173 -1 
                  175 172 174 -1 
                  178 177 176 -1 
                  179 178 176 -1 
                  182 180 181 -1 
                  183 180 182 -1 
                  186 185 184 -1 
                  187 186 184 -1 
                  190 189 188 -1 
                  191 190 188 -1 
                  194 192 193 -1 
                  195 192 194 -1 
                  198 196 199 -1 
                  198 197 196 -1 
                  199 196 200 -1 
                  203 201 200 -1 
                  203 200 196 -1 
                  203 202 201 -1 
                  209 207 206 -1 
                  209 206 205 -1 
                  209 208 207 -1 
                  210 209 205 -1 
                  211 210 205 -1 
                  212 211 205 -1 
                  213 212 205 -1 
                  214 213 205 -1 
                  215 214 205 -1 
                  216 215 205 -1 
                  218 205 204 -1 
                  217 216 205 -1 
                  218 217 205 -1 
                  219 218 204 -1 
                  220 219 204 -1 
                  221 220 204 -1 
                  225 222 223 -1 
                  225 223 224 -1 
                  236 222 225 -1 
                  227 236 226 -1 
                  228 236 227 -1 
                  229 236 228 -1 
                  230 236 229 -1 
                  231 236 230 -1 
                  232 236 231 -1 
                  233 236 232 -1 
                  236 225 226 -1 
                  234 236 233 -1 
                  235 236 234 -1 
                  244 241 240 -1 
                  241 238 239 -1 
                  241 239 240 -1 
                  242 237 238 -1 
                  242 238 241 -1 
                  243 240 237 -1 
                  243 237 242 -1 
                  244 240 243 -1 
                  247 245 246 -1 
                  248 245 247 -1 
                  249 250 248 -1 
                  250 245 248 -1 
                  254 251 252 -1 
                  254 252 253 -1 
                  255 251 254 -1 
                  256 251 255 -1 
                  261 260 257 -1 
                  262 260 261 -1 
                  261 257 264 -1 
                  264 257 258 -1 
                  263 259 260 -1 
                  263 258 259 -1 
                  263 260 262 -1 
                  264 258 263 -1 
                  268 265 266 -1 
                  268 266 267 -1 
                  269 265 268 -1 
                  270 265 269 -1 
                  273 271 272 -1 
                  274 271 273 -1 
                  275 276 274 -1 
                  276 271 274 -1 
                  281 280 277 -1 
                  282 280 281 -1 
                  281 277 284 -1 
                  284 277 278 -1 
                  283 279 280 -1 
                  283 278 279 -1 
                  283 280 282 -1 
                  284 278 283 -1 
                  288 285 286 -1 
                  288 286 287 -1 
                  289 285 288 -1 
                  290 285 289 -1 
                  293 291 292 -1 
                  294 291 293 -1 
                  295 296 294 -1 
                  296 291 294 -1 
                  299 297 298 -1 
                  300 297 299 -1 
                  303 301 302 -1 
                  304 301 303 -1 
                  307 305 306 -1 
                  308 305 307 -1 
                  311 312 309 -1 
                  311 309 310 -1 
                  315 316 313 -1 
                  315 313 314 -1 
                  319 320 317 -1 
                  319 317 318 -1 
                  325 322 321 -1 
                  324 323 322 -1 
                  325 324 322 -1 
                  328 327 326 -1 
                  329 328 326 -1 
                  332 331 330 -1 
                  333 332 330 -1 
                  336 335 334 -1 
                  337 336 334 -1 
                  341 339 338 -1 
                  341 340 339 -1 
                  342 341 338 -1 
                  347 344 343 -1 
                  347 345 344 -1 
                  347 346 345 -1 
                  350 349 348 -1 
                  351 350 348 -1 
                  354 353 352 -1 
                  371 370 354 -1 
                  369 368 356 -1 
                  367 366 358 -1 
                  365 364 360 -1 
                  364 363 361 -1 
                  366 359 358 -1 
                  365 360 359 -1 
                  364 361 360 -1 
                  363 362 361 -1 
                  367 358 357 -1 
                  366 365 359 -1 
                  368 357 356 -1 
                  368 367 357 -1 
                  369 356 355 -1 
                  370 369 355 -1 
                  370 355 354 -1 
                  371 354 352 -1 
                  373 372 387 -1 
                  386 374 373 -1 
                  386 375 374 -1 
                  386 376 375 -1 
                  386 377 376 -1 
                  386 378 377 -1 
                  386 379 378 -1 
                  386 380 379 -1 
                  384 382 385 -1 
                  384 383 382 -1 
                  386 382 381 -1 
                  386 381 380 -1 
                  386 385 382 -1 
                  389 387 372 -1 
                  386 373 387 -1 
                  389 388 387 -1 
                  392 391 390 -1 
                  409 408 392 -1 
                  407 406 394 -1 
                  405 404 396 -1 
                  403 402 398 -1 
                  402 401 399 -1 
                  404 397 396 -1 
                  403 398 397 -1 
                  402 399 398 -1 
                  401 400 399 -1 
                  405 396 395 -1 
                  404 403 397 -1 
                  406 395 394 -1 
                  406 405 395 -1 
                  407 394 393 -1 
                  408 407 393 -1 
                  408 393 392 -1 
                  409 392 390 -1 
                  412 410 411 -1 
                  413 410 412 -1 
                  416 418 414 -1 
                  416 414 415 -1 
                  418 416 417 -1 
                  431 419 432 -1 
                  422 421 430 -1 
                  423 422 430 -1 
                  424 423 430 -1 
                  425 424 430 -1 
                  426 425 430 -1 
                  427 426 430 -1 
                  428 427 430 -1 
                  433 432 419 -1 
                  430 420 419 -1 
                  430 421 420 -1 
                  429 428 430 -1 
                  431 430 419 -1 
                  438 435 434 -1 
                  437 436 435 -1 
                  438 437 435 -1 
                  441 440 439 -1 
                  442 441 439 -1 
                  444 443 445 -1 
                  446 445 443 -1 
                  449 447 450 -1 
                  449 448 447 -1 
                  455 452 451 -1 
                  455 453 452 -1 
                  455 454 453 -1 
                  458 456 457 -1 
                  459 456 458 -1 
                  462 460 461 -1 
                  463 460 462 -1 
                  467 464 465 -1 
                  467 465 466 -1 
                  470 468 469 -1 
                  471 468 470 -1 
                  474 472 473 -1 
                  475 472 474 -1 
                  479 477 476 -1 
                  479 478 477 -1 
                  482 481 480 -1 
                  499 498 482 -1 
                  497 496 484 -1 
                  495 494 486 -1 
                  493 492 488 -1 
                  492 491 489 -1 
                  494 487 486 -1 
                  493 488 487 -1 
                  492 489 488 -1 
                  491 490 489 -1 
                  495 486 485 -1 
                  494 493 487 -1 
                  496 485 484 -1 
                  496 495 485 -1 
                  497 484 483 -1 
                  498 497 483 -1 
                  498 483 482 -1 
                  499 482 480 -1 
                  502 501 500 -1 
                  519 518 502 -1 
                  517 516 504 -1 
                  515 514 506 -1 
                  513 512 508 -1 
                  512 511 509 -1 
                  514 507 506 -1 
                  513 508 507 -1 
                  512 509 508 -1 
                  511 510 509 -1 
                  515 506 505 -1 
                  514 513 507 -1 
                  516 505 504 -1 
                  516 515 505 -1 
                  517 504 503 -1 
                  518 517 503 -1 
                  518 503 502 -1 
                  519 502 500 -1 
                ]
              }
            }
            DEF B3B-XH-A(LF)(SN)_2 Shape {
              appearance DEF __9 Appearance {
                material DEF __10 Material {
                  ambientIntensity 0.22488284111
                  diffuseColor 0.996078431606 0.870588243008 0.760784327984
                  shininess 0
                }
              }
              geometry DEF __11 IndexedFaceSet {
                solid FALSE
                coord Coordinate {
                  point [
                    0.00348921505092 0.0117561621395 0.0129707185472,
                    0.00348921505092 0.0023561621395 0.0129707185472,
                    0.00348921505092 0.0117561621395 0.0136107185472,
                    0.00348921505092 0.0023561621395 0.0136107185472,
                    0.00284921505092 0.0117561621395 0.0129707185472,
                    0.00284921505092 0.0023561621395 0.0129707185472,
                    0.00284921505092 0.0117561621395 0.0136107185472,
                    0.00284921505092 0.0023561621395 0.0136107185472,
                    0.00294921505092 0.0121561621395 0.0130707185472,
                    0.00294921505092 0.0121561621395 0.0135107185472,
                    0.00338921505092 0.0121561621395 0.0135107185472,
                    0.00338921505092 0.0121561621395 0.0130707185472,
                    0.00294921505092 0.0019561621395 0.0135107185472,
                    0.00294921505092 0.0019561621395 0.0130707185472,
                    0.00338921505092 0.0019561621395 0.0130707185472,
                    0.00338921505092 0.0019561621395 0.0135107185472

                  ]
                }
                normal Normal {
                  vector [
                    1 0 -0,
                    1 0 -0,
                    1 0 -0,
                    1 0 -0,
                    -0 0 -1,
                    -0 0 -1,
                    -0 0 -1,
                    -0 0 -1,
                    -1 0 0,
                    -1 0 0,
                    -1 0 0,
                    -1 0 0,
                    0 0 1,
                    0 0 1,
                    0 0 1,
                    0 0 1,
                    -0 1 -0,
                    -0 1 -0,
                    -0 1 -0,
                    -0 1 -0,
                    0 -1 0,
                    0 -1 0,
                    0 -1 0,
                    0 -1 0,
                    -0 -0.24253562 0.97014248,
                    -0 -0.24253562 0.97014248,
                    -0 -0.24253562 0.97014248,
                    -0 -0.24253562 0.97014248,
                    -0.97014248 -0.24253562 -0,
                    -0.97014248 -0.24253562 -0,
                    -0.97014248 -0.24253562 -0,
                    -0.97014248 -0.24253562 -0,
                    0.97014248 -0.24253562 -0,
                    0.97014248 -0.24253562 -0,
                    0.97014248 -0.24253562 -0,
                    0.97014248 -0.24253562 -0,
                    0 -0.24253562 -0.97014248,
                    0 -0.24253562 -0.97014248,
                    0 -0.24253562 -0.97014248,
                    0 -0.24253562 -0.97014248,
                    0 0.24253562 -0.97014248,
                    0 0.24253562 -0.97014248,
                    0 0.24253562 -0.97014248,
                    0 0.24253562 -0.97014248,
                    0.97014248 0.24253562 0,
                    0.97014248 0.24253562 0,
                    0.97014248 0.24253562 0,
                    0.97014248 0.24253562 0,
                    -0.97014248 0.24253562 0,
                    -0.97014248 0.24253562 0,
                    -0.97014248 0.24253562 0,
                    -0.97014248 0.24253562 0,
                    0 0.24253562 0.97014248,
                    0 0.24253562 0.97014248,
                    0 0.24253562 0.97014248,
                    0 0.24253562 0.97014248

                  ]
                }
                coordIndex [
                  2 1 0 -1 
                  3 1 2 -1 
                  0 5 4 -1 
                  1 5 0 -1 
                  4 7 6 -1 
                  5 7 4 -1 
                  6 3 2 -1 
                  7 3 6 -1 
                  10 11 8 -1 
                  9 10 8 -1 
                  14 12 13 -1 
                  15 12 14 -1 
                  7 15 3 -1 
                  7 12 15 -1 
                  5 12 7 -1 
                  5 13 12 -1 
                  1 3 14 -1 
                  15 14 3 -1 
                  1 14 13 -1 
                  5 1 13 -1 
                  11 4 8 -1 
                  0 4 11 -1 
                  10 0 11 -1 
                  2 0 10 -1 
                  6 8 4 -1 
                  9 8 6 -1 
                  9 2 10 -1 
                  6 2 9 -1 
                ]
                normalIndex [
                  2 0 1 -1 
                  3 0 2 -1 
                  6 4 5 -1 
                  7 4 6 -1 
                  10 8 9 -1 
                  11 8 10 -1 
                  14 12 13 -1 
                  15 12 14 -1 
                  18 17 16 -1 
                  19 18 16 -1 
                  22 20 21 -1 
                  23 20 22 -1 
                  26 24 27 -1 
                  26 25 24 -1 
                  30 28 31 -1 
                  30 29 28 -1 
                  33 32 34 -1 
                  35 34 32 -1 
                  38 37 36 -1 
                  39 38 36 -1 
                  42 40 41 -1 
                  43 40 42 -1 
                  46 44 45 -1 
                  47 44 46 -1 
                  50 48 49 -1 
                  51 48 50 -1 
                  54 52 53 -1 
                  55 52 54 -1 
                ]
              }
            }
            DEF B3B-XH-A(LF)(SN)_3 Shape {
              appearance DEF __13 Appearance {
                material DEF __14 Material {
                  ambientIntensity 0.22488284111
                  diffuseColor 0.996078431606 0.870588243008 0.760784327984
                  shininess 0
                }
              }
              geometry DEF __15 IndexedFaceSet {
                solid FALSE
                coord Coordinate {
                  point [
                    0.00544921505092 0.0121561621395 0.0130707185472,
                    0.00544921505092 0.0121561621395 0.0135107185472,
                    0.00588921505092 0.0121561621395 0.0135107185472,
                    0.00588921505092 0.0121561621395 0.0130707185472,
                    0.00534921505092 0.0117561621395 0.0129707185472,
                    0.00534921505092 0.00409774061426 0.0129707185472,
                    0.00598921505092 0.0117561621395 0.0129707185472,
                    0.00598921505092 0.00409774061426 0.0129707185472,
                    0.00598921505092 0.0032878801967 0.0132907185472,
                    0.00534921505092 0.0032878801967 0.0132907185472,
                    0.00598921505092 0.00247801977913 0.0129707185472,
                    0.00534921505092 0.00247801977913 0.0129707185472,
                    0.00598921505092 0.0023561621395 0.0129707185472,
                    0.00534921505092 0.0023561621395 0.0129707185472,
                    0.00544921505092 0.0019561621395 0.0135107185472,
                    0.00544921505092 0.0019561621395 0.0130707185472,
                    0.00588921505092 0.0019561621395 0.0130707185472,
                    0.00588921505092 0.0019561621395 0.0135107185472,
                    0.00598921505092 0.0023561621395 0.0136107185472,
                    0.00598921505092 0.0032878801967 0.0139788681343,
                    0.00534921505092 0.0032878801967 0.0139788681343,
                    0.00534921505092 0.0023561621395 0.0136107185472,
                    0.00598921505092 0.00421959825389 0.0136107185472,
                    0.00534921505092 0.00421959825389 0.0136107185472,
                    0.00598921505092 0.0117561621395 0.0136107185472,
                    0.00534921505092 0.0117561621395 0.0136107185472

                  ]
                }
                normal Normal {
                  vector [
                    -0 1 -0,
                    -0 1 -0,
                    -0 1 -0,
                    -0 1 -0,
                    -0 -0 -1,
                    -0 -0 -1,
                    -0 -0 -1,
                    -0 -0 -1,
                    -0 -0.36748272 -0.93003035,
                    -0 -0.36748272 -0.93003035,
                    -0 -0.36748272 -0.93003035,
                    -0 -0.36748272 -0.93003035,
                    -0 0.36748272 -0.93003035,
                    -0 0.36748272 -0.93003035,
                    -0 0.36748272 -0.93003035,
                    -0 0.36748272 -0.93003035,
                    -0 -0 -1,
                    -0 -0 -1,
                    -0 -0 -1,
                    -0 -0 -1,
                    -0 -1 0,
                    -0 -1 0,
                    -0 -1 0,
                    -0 -1 0,
                    -0 -0.36748272 0.93003035,
                    -0 -0.36748272 0.93003035,
                    -0 -0.36748272 0.93003035,
                    -0 -0.36748272 0.93003035,
                    -0 0.36748272 0.93003035,
                    -0 0.36748272 0.93003035,
                    -0 0.36748272 0.93003035,
                    -0 0.36748272 0.93003035,
                    0 -0 1,
                    0 -0 1,
                    0 -0 1,
                    0 -0 1,
                    -1 -0 0,
                    -1 -0 0,
                    -1 -0 0,
                    -1 -0 0,
                    -1 -0 0,
                    -1 -0 0,
                    -1 -0 0,
                    -1 -0 0,
                    -1 -0 0,
                    1 0 -0,
                    1 0 -0,
                    1 0 -0,
                    1 0 -0,
                    1 0 -0,
                    1 0 -0,
                    1 0 -0,
                    1 0 -0,
                    1 0 -0,
                    -0 0.24253562 -0.97014248,
                    -0 0.24253562 -0.97014248,
                    -0 0.24253562 -0.97014248,
                    -0 0.24253562 -0.97014248,
                    -0.97014248 0.24253562 -0,
                    -0.97014248 0.24253562 -0,
                    -0.97014248 0.24253562 -0,
                    -0.97014248 0.24253562 -0,
                    0.97014248 0.24253562 -0,
                    0.97014248 0.24253562 -0,
                    0.97014248 0.24253562 -0,
                    0.97014248 0.24253562 -0,
                    -0 0.24253562 0.97014248,
                    -0 0.24253562 0.97014248,
                    -0 0.24253562 0.97014248,
                    -0 0.24253562 0.97014248,
                    -0 -0.24253562 0.97014248,
                    -0 -0.24253562 0.97014248,
                    -0 -0.24253562 0.97014248,
                    -0 -0.24253562 0.97014248,
                    -0.97014248 -0.24253562 0,
                    -0.97014248 -0.24253562 0,
                    -0.97014248 -0.24253562 0,
                    -0.97014248 -0.24253562 0,
                    0.97014248 -0.24253562 0,
                    0.97014248 -0.24253562 0,
                    0.97014248 -0.24253562 0,
                    0.97014248 -0.24253562 0,
                    -0 -0.24253562 -0.97014248,
                    -0 -0.24253562 -0.97014248,
                    -0 -0.24253562 -0.97014248,
                    -0 -0.24253562 -0.97014248

                  ]
                }
                coordIndex [
                  2 3 0 -1 
                  1 2 0 -1 
                  6 7 5 -1 
                  4 6 5 -1 
                  9 5 7 -1 
                  8 9 7 -1 
                  11 9 8 -1 
                  10 11 8 -1 
                  13 10 12 -1 
                  13 11 10 -1 
                  16 17 14 -1 
                  15 16 14 -1 
                  20 21 18 -1 
                  19 20 18 -1 
                  23 20 19 -1 
                  22 23 19 -1 
                  25 23 22 -1 
                  24 25 22 -1 
                  9 23 5 -1 
                  9 21 20 -1 
                  11 13 21 -1 
                  9 20 23 -1 
                  9 11 21 -1 
                  4 5 23 -1 
                  25 4 23 -1 
                  22 7 6 -1 
                  22 6 24 -1 
                  8 7 22 -1 
                  8 19 18 -1 
                  10 18 12 -1 
                  8 22 19 -1 
                  8 18 10 -1 
                  4 0 3 -1 
                  6 4 3 -1 
                  25 0 4 -1 
                  25 1 0 -1 
                  2 6 3 -1 
                  24 6 2 -1 
                  24 2 1 -1 
                  25 24 1 -1 
                  21 14 17 -1 
                  18 21 17 -1 
                  15 14 13 -1 
                  21 13 14 -1 
                  16 18 17 -1 
                  12 18 16 -1 
                  12 16 15 -1 
                  13 12 15 -1 
                ]
                normalIndex [
                  2 1 0 -1 
                  3 2 0 -1 
                  6 5 4 -1 
                  7 6 4 -1 
                  10 9 8 -1 
                  11 10 8 -1 
                  14 13 12 -1 
                  15 14 12 -1 
                  18 16 19 -1 
                  18 17 16 -1 
                  22 21 20 -1 
                  23 22 20 -1 
                  26 25 24 -1 
                  27 26 24 -1 
                  30 29 28 -1 
                  31 30 28 -1 
                  34 33 32 -1 
                  35 34 32 -1 
                  41 36 42 -1 
                  41 38 37 -1 
                  40 39 38 -1 
                  41 37 36 -1 
                  41 40 38 -1 
                  43 42 36 -1 
                  44 43 36 -1 
                  48 45 46 -1 
                  48 46 47 -1 
                  53 45 48 -1 
                  53 49 50 -1 
                  52 50 51 -1 
                  53 48 49 -1 
                  53 50 52 -1 
                  56 55 54 -1 
                  57 56 54 -1 
                  60 58 61 -1 
                  60 59 58 -1 
                  64 62 63 -1 
                  65 62 64 -1 
                  68 67 66 -1 
                  69 68 66 -1 
                  72 71 70 -1 
                  73 72 70 -1 
                  75 74 76 -1 
                  77 76 74 -1 
                  80 78 79 -1 
                  81 78 80 -1 
                  84 83 82 -1 
                  85 84 82 -1 
                ]
              }
            }
            DEF B3B-XH-A(LF)(SN)_4 Shape {
              appearance DEF __17 Appearance {
                material DEF __18 Material {
                  ambientIntensity 0.22488284111
                  diffuseColor 0.996078431606 0.870588243008 0.760784327984
                  shininess 0
                }
              }
              geometry DEF __19 IndexedFaceSet {
                solid FALSE
                coord Coordinate {
                  point [
                    0.000449215050918 0.0121561621395 0.0130707185472,
                    0.000449215050918 0.0121561621395 0.0135107185472,
                    0.000889215050918 0.0121561621395 0.0135107185472,
                    0.000889215050918 0.0121561621395 0.0130707185472,
                    0.000349215050918 0.0117561621395 0.0129707185472,
                    0.000349215050918 0.00409774061426 0.0129707185472,
                    0.000989215050918 0.0117561621395 0.0129707185472,
                    0.000989215050918 0.00409774061426 0.0129707185472,
                    0.000989215050918 0.0032878801967 0.0132907185472,
                    0.000349215050918 0.0032878801967 0.0132907185472,
                    0.000989215050918 0.00247801977913 0.0129707185472,
                    0.000349215050918 0.00247801977913 0.0129707185472,
                    0.000989215050918 0.0023561621395 0.0129707185472,
                    0.000349215050918 0.0023561621395 0.0129707185472,
                    0.000449215050918 0.0019561621395 0.0135107185472,
                    0.000449215050918 0.0019561621395 0.0130707185472,
                    0.000889215050918 0.0019561621395 0.0130707185472,
                    0.000889215050918 0.0019561621395 0.0135107185472,
                    0.000989215050918 0.0023561621395 0.0136107185472,
                    0.000989215050918 0.0032878801967 0.0139788681343,
                    0.000349215050918 0.0032878801967 0.0139788681343,
                    0.000349215050918 0.0023561621395 0.0136107185472,
                    0.000989215050918 0.00421959825389 0.0136107185472,
                    0.000349215050918 0.00421959825389 0.0136107185472,
                    0.000989215050918 0.0117561621395 0.0136107185472,
                    0.000349215050918 0.0117561621395 0.0136107185472

                  ]
                }
                normal Normal {
                  vector [
                    -0 1 -0,
                    -0 1 -0,
                    -0 1 -0,
                    -0 1 -0,
                    -0 -0 -1,
                    -0 -0 -1,
                    -0 -0 -1,
                    -0 -0 -1,
                    -0 -0.36748272 -0.93003035,
                    -0 -0.36748272 -0.93003035,
                    -0 -0.36748272 -0.93003035,
                    -0 -0.36748272 -0.93003035,
                    -0 0.36748272 -0.93003035,
                    -0 0.36748272 -0.93003035,
                    -0 0.36748272 -0.93003035,
                    -0 0.36748272 -0.93003035,
                    -0 -0 -1,
                    -0 -0 -1,
                    -0 -0 -1,
                    -0 -0 -1,
                    -0 -1 0,
                    -0 -1 0,
                    -0 -1 0,
                    -0 -1 0,
                    -0 -0.36748272 0.93003035,
                    -0 -0.36748272 0.93003035,
                    -0 -0.36748272 0.93003035,
                    -0 -0.36748272 0.93003035,
                    -0 0.36748272 0.93003035,
                    -0 0.36748272 0.93003035,
                    -0 0.36748272 0.93003035,
                    -0 0.36748272 0.93003035,
                    0 -0 1,
                    0 -0 1,
                    0 -0 1,
                    0 -0 1,
                    -1 -0 0,
                    -1 -0 0,
                    -1 -0 0,
                    -1 -0 0,
                    -1 -0 0,
                    -1 -0 0,
                    -1 -0 0,
                    -1 -0 0,
                    -1 -0 0,
                    1 0 -0,
                    1 0 -0,
                    1 0 -0,
                    1 0 -0,
                    1 0 -0,
                    1 0 -0,
                    1 0 -0,
                    1 0 -0,
                    1 0 -0,
                    -0 0.24253562 -0.97014248,
                    -0 0.24253562 -0.97014248,
                    -0 0.24253562 -0.97014248,
                    -0 0.24253562 -0.97014248,
                    -0.97014248 0.24253562 -0,
                    -0.97014248 0.24253562 -0,
                    -0.97014248 0.24253562 -0,
                    -0.97014248 0.24253562 -0,
                    0.97014248 0.24253562 -0,
                    0.97014248 0.24253562 -0,
                    0.97014248 0.24253562 -0,
                    0.97014248 0.24253562 -0,
                    -0 0.24253562 0.97014248,
                    -0 0.24253562 0.97014248,
                    -0 0.24253562 0.97014248,
                    -0 0.24253562 0.97014248,
                    -0 -0.24253562 0.97014248,
                    -0 -0.24253562 0.97014248,
                    -0 -0.24253562 0.97014248,
                    -0 -0.24253562 0.97014248,
                    -0.97014248 -0.24253562 0,
                    -0.97014248 -0.24253562 0,
                    -0.97014248 -0.24253562 0,
                    -0.97014248 -0.24253562 0,
                    0.97014248 -0.24253562 0,
                    0.97014248 -0.24253562 0,
                    0.97014248 -0.24253562 0,
                    0.97014248 -0.24253562 0,
                    -0 -0.24253562 -0.97014248,
                    -0 -0.24253562 -0.97014248,
                    -0 -0.24253562 -0.97014248,
                    -0 -0.24253562 -0.97014248

                  ]
                }
                coordIndex [
                  2 3 0 -1 
                  1 2 0 -1 
                  6 7 5 -1 
                  4 6 5 -1 
                  9 5 7 -1 
                  8 9 7 -1 
                  11 9 8 -1 
                  10 11 8 -1 
                  13 10 12 -1 
                  13 11 10 -1 
                  16 17 14 -1 
                  15 16 14 -1 
                  20 21 18 -1 
                  19 20 18 -1 
                  23 20 19 -1 
                  22 23 19 -1 
                  25 23 22 -1 
                  24 25 22 -1 
                  9 23 5 -1 
                  9 21 20 -1 
                  11 13 21 -1 
                  9 20 23 -1 
                  9 11 21 -1 
                  4 5 23 -1 
                  25 4 23 -1 
                  22 7 6 -1 
                  22 6 24 -1 
                  8 7 22 -1 
                  8 19 18 -1 
                  10 18 12 -1 
                  8 22 19 -1 
                  8 18 10 -1 
                  4 0 3 -1 
                  6 4 3 -1 
                  25 0 4 -1 
                  25 1 0 -1 
                  2 6 3 -1 
                  24 6 2 -1 
                  24 2 1 -1 
                  25 24 1 -1 
                  21 14 17 -1 
                  18 21 17 -1 
                  15 14 13 -1 
                  21 13 14 -1 
                  16 18 17 -1 
                  12 18 16 -1 
                  12 16 15 -1 
                  13 12 15 -1 
                ]
                normalIndex [
                  2 1 0 -1 
                  3 2 0 -1 
                  6 5 4 -1 
                  7 6 4 -1 
                  10 9 8 -1 
                  11 10 8 -1 
                  14 13 12 -1 
                  15 14 12 -1 
                  18 16 19 -1 
                  18 17 16 -1 
                  22 21 20 -1 
                  23 22 20 -1 
                  26 25 24 -1 
                  27 26 24 -1 
                  30 29 28 -1 
                  31 30 28 -1 
                  34 33 32 -1 
                  35 34 32 -1 
                  41 36 42 -1 
                  41 38 37 -1 
                  40 39 38 -1 
                  41 37 36 -1 
                  41 40 38 -1 
                  43 42 36 -1 
                  44 43 36 -1 
                  48 45 46 -1 
                  48 46 47 -1 
                  53 45 48 -1 
                  53 49 50 -1 
                  52 50 51 -1 
                  53 48 49 -1 
                  53 50 52 -1 
                  56 55 54 -1 
                  57 56 54 -1 
                  60 58 61 -1 
                  60 59 58 -1 
                  64 62 63 -1 
                  65 62 64 -1 
                  68 67 66 -1 
                  69 68 66 -1 
                  72 71 70 -1 
                  73 72 70 -1 
                  75 74 76 -1 
                  77 76 74 -1 
                  80 78 79 -1 
                  81 78 80 -1 
                  84 83 82 -1 
                  85 84 82 -1 
                ]
              }
            }
          ]
        }
      ]
    }
  ]
}
