M48
; DRILL file {KiCad 9.0.5} date 2025-10-16T15:08:52-0500
; FORMAT={-:-/ absolute / metric / decimal}
; #@! TF.CreationDate,2025-10-16T15:08:52-05:00
; #@! TF.GenerationSoftware,Kicad,Pcbnew,9.0.5
; #@! TF.FileFunction,Plated,1,2,PTH
FMAT,2
METRIC
; #@! TA.AperFunction,Plated,PTH,ViaDrill
T1C0.300
; #@! TA.AperFunction,Plated,PTH,ComponentDrill
T2C1.100
%
G90
G05
T1
X124.32Y-97.96
X124.65Y-106.17
X130.91Y-120.04
X133.77Y-106.63
X134.48Y-107.81
X138.44Y-110.51
X140.72Y-117.55
X141.55Y-93.96
X142.13Y-96.57
X144.83Y-112.92
T2
X131.53Y-94.07
X131.53Y-96.61
X133.08Y-117.54
X133.08Y-120.08
X134.07Y-94.07
X134.07Y-96.61
X135.62Y-117.54
X135.62Y-120.08
X136.61Y-94.07
X136.61Y-96.61
X138.16Y-117.54
X138.16Y-120.08
X139.15Y-94.07
X139.15Y-96.61
M30
