%TF.GenerationSoftware,KiCad,Pcbnew,9.0.5*%
%TF.CreationDate,2025-10-16T15:08:48-05:00*%
%TF.ProjectId,STAR_GATE_DRIVER,53544152-5f47-4415-9445-5f4452495645,rev?*%
%TF.SameCoordinates,Original*%
%TF.FileFunction,Copper,L1,Top*%
%TF.FilePolarity,Positive*%
%FSLAX46Y46*%
G04 Gerber Fmt 4.6, Leading zero omitted, Abs format (unit mm)*
G04 Created by KiCad (PCBNEW 9.0.5) date 2025-10-16 15:08:48*
%MOMM*%
%LPD*%
G01*
G04 APERTURE LIST*
G04 Aperture macros list*
%AMRoundRect*
0 Rectangle with rounded corners*
0 $1 Rounding radius*
0 $2 $3 $4 $5 $6 $7 $8 $9 X,Y pos of 4 corners*
0 Add a 4 corners polygon primitive as box body*
4,1,4,$2,$3,$4,$5,$6,$7,$8,$9,$2,$3,0*
0 Add four circle primitives for the rounded corners*
1,1,$1+$1,$2,$3*
1,1,$1+$1,$4,$5*
1,1,$1+$1,$6,$7*
1,1,$1+$1,$8,$9*
0 Add four rect primitives between the rounded corners*
20,1,$1+$1,$2,$3,$4,$5,0*
20,1,$1+$1,$4,$5,$6,$7,0*
20,1,$1+$1,$6,$7,$8,$9,0*
20,1,$1+$1,$8,$9,$2,$3,0*%
G04 Aperture macros list end*
%TA.AperFunction,SMDPad,CuDef*%
%ADD10RoundRect,0.237500X-0.250000X-0.237500X0.250000X-0.237500X0.250000X0.237500X-0.250000X0.237500X0*%
%TD*%
%TA.AperFunction,SMDPad,CuDef*%
%ADD11RoundRect,0.237500X0.250000X0.237500X-0.250000X0.237500X-0.250000X-0.237500X0.250000X-0.237500X0*%
%TD*%
%TA.AperFunction,ComponentPad*%
%ADD12C,1.650000*%
%TD*%
%TA.AperFunction,SMDPad,CuDef*%
%ADD13RoundRect,0.237500X-0.300000X-0.237500X0.300000X-0.237500X0.300000X0.237500X-0.300000X0.237500X0*%
%TD*%
%TA.AperFunction,SMDPad,CuDef*%
%ADD14RoundRect,0.237500X0.237500X-0.250000X0.237500X0.250000X-0.237500X0.250000X-0.237500X-0.250000X0*%
%TD*%
%TA.AperFunction,SMDPad,CuDef*%
%ADD15R,1.475000X0.450000*%
%TD*%
%TA.AperFunction,SMDPad,CuDef*%
%ADD16RoundRect,0.237500X-0.237500X0.300000X-0.237500X-0.300000X0.237500X-0.300000X0.237500X0.300000X0*%
%TD*%
%TA.AperFunction,ViaPad*%
%ADD17C,0.600000*%
%TD*%
%TA.AperFunction,Conductor*%
%ADD18C,0.200000*%
%TD*%
G04 APERTURE END LIST*
D10*
%TO.P,R4,2*%
%TO.N,/AFE_PCHG*%
X144910000Y-102200000D03*
%TO.P,R4,1*%
%TO.N,Net-(U1-PCHG)*%
X143085000Y-102200000D03*
%TD*%
D11*
%TO.P,R5,2*%
%TO.N,/AFE_CHG*%
X136317500Y-102770000D03*
%TO.P,R5,1*%
%TO.N,Net-(U1-CHG)*%
X138142500Y-102770000D03*
%TD*%
D12*
%TO.P,J7,1*%
%TO.N,GND*%
X139150000Y-94070000D03*
%TO.P,J7,2*%
%TO.N,/AFE_DSG_EN*%
X139150000Y-96610000D03*
%TO.P,J7,3*%
%TO.N,/AFE_CHG_EN*%
X136610000Y-94070000D03*
%TO.P,J7,4*%
%TO.N,/AFE_PACK+*%
X136610000Y-96610000D03*
%TO.P,J7,5*%
%TO.N,/AFE_BATT+*%
X134070000Y-94070000D03*
%TO.P,J7,6*%
%TO.N,/AFE_DSG*%
X134070000Y-96610000D03*
%TO.P,J7,7*%
%TO.N,/AFE_PCHG*%
X131530000Y-94070000D03*
%TO.P,J7,8*%
%TO.N,/AFE_CHG*%
X131530000Y-96610000D03*
%TD*%
D13*
%TO.P,C2,1*%
%TO.N,Net-(U1-PACK)*%
X143090000Y-111300000D03*
%TO.P,C2,2*%
%TO.N,GND*%
X144815000Y-111300000D03*
%TD*%
D10*
%TO.P,R6,1*%
%TO.N,Net-(U1-DSG)*%
X143077500Y-104440000D03*
%TO.P,R6,2*%
%TO.N,/AFE_DSG*%
X144902500Y-104440000D03*
%TD*%
D14*
%TO.P,R1,1*%
%TO.N,Net-(U1-BAT)*%
X123170000Y-101902500D03*
%TO.P,R1,2*%
%TO.N,/AFE_BATT+*%
X123170000Y-100077500D03*
%TD*%
D15*
%TO.P,U1,1,VDDCP*%
%TO.N,Net-(U1-VDDCP)*%
X132604000Y-104670000D03*
%TO.P,U1,2,BAT*%
%TO.N,Net-(U1-BAT)*%
X132604000Y-105320000D03*
%TO.P,U1,3,NC*%
%TO.N,unconnected-(U1-NC-Pad3)*%
X132604000Y-105970000D03*
%TO.P,U1,4,CHG_EN*%
%TO.N,/AFE_CHG_EN*%
X132604000Y-106620000D03*
%TO.P,U1,5,CP_EN*%
%TO.N,/FUEL_GUAGE_CP_EN*%
X132604000Y-107270000D03*
%TO.P,U1,6,DSG_EN*%
%TO.N,/AFE_DSG_EN*%
X132604000Y-107920000D03*
%TO.P,U1,7,PMON_EN*%
%TO.N,/FUEL_GUAGE_PMON_EN*%
X132604000Y-108570000D03*
%TO.P,U1,8,PCHG_EN*%
%TO.N,/FUEL_GUAGE_PCHG_EN*%
X132604000Y-109220000D03*
%TO.P,U1,9,VSS*%
%TO.N,GND*%
X138480000Y-109220000D03*
%TO.P,U1,10,PACKDIV*%
%TO.N,/FUEL_GUAGE_PACKDIV*%
X138480000Y-108570000D03*
%TO.P,U1,11,PACK*%
%TO.N,Net-(U1-PACK)*%
X138480000Y-107920000D03*
%TO.P,U1,12,DSG*%
%TO.N,Net-(U1-DSG)*%
X138480000Y-107270000D03*
%TO.P,U1,13,NC*%
%TO.N,unconnected-(U1-NC-Pad13)*%
X138480000Y-106620000D03*
%TO.P,U1,14,PCHG*%
%TO.N,Net-(U1-PCHG)*%
X138480000Y-105970000D03*
%TO.P,U1,15,NC*%
%TO.N,unconnected-(U1-NC-Pad15)*%
X138480000Y-105320000D03*
%TO.P,U1,16,CHG*%
%TO.N,Net-(U1-CHG)*%
X138480000Y-104670000D03*
%TD*%
D10*
%TO.P,R3,1*%
%TO.N,Net-(U1-PACK)*%
X143105000Y-106780000D03*
%TO.P,R3,2*%
%TO.N,Net-(U1-DSG)*%
X144930000Y-106780000D03*
%TD*%
D11*
%TO.P,R2,1*%
%TO.N,/AFE_PACK+*%
X144895000Y-109350000D03*
%TO.P,R2,2*%
%TO.N,Net-(U1-PACK)*%
X143070000Y-109350000D03*
%TD*%
D12*
%TO.P,J5,1*%
%TO.N,GND*%
X133080000Y-120080000D03*
%TO.P,J5,2*%
%TO.N,/FUEL_GUAGE_PCHG_EN*%
X133080000Y-117540000D03*
%TO.P,J5,3*%
%TO.N,/FUEL_GUAGE_PMON_EN*%
X135620000Y-120080000D03*
%TO.P,J5,4*%
%TO.N,/FUEL_GUAGE_PACKDIV*%
X135620000Y-117540000D03*
%TO.P,J5,5*%
%TO.N,/FUEL_GUAGE_CP_EN*%
X138160000Y-120080000D03*
%TO.P,J5,6*%
%TO.N,GND*%
X138160000Y-117540000D03*
%TD*%
D16*
%TO.P,C3,1*%
%TO.N,Net-(U1-VDDCP)*%
X126477500Y-103647500D03*
%TO.P,C3,2*%
%TO.N,Net-(U1-BAT)*%
X126477500Y-105372500D03*
%TD*%
%TO.P,C1,1*%
%TO.N,Net-(U1-BAT)*%
X123050000Y-104395000D03*
%TO.P,C1,2*%
%TO.N,GND*%
X123050000Y-106120000D03*
%TD*%
D17*
%TO.N,/AFE_PACK+*%
X142130000Y-96570000D03*
%TO.N,GND*%
X144830000Y-112920000D03*
X124650000Y-106170000D03*
%TO.N,/AFE_BATT+*%
X124320000Y-97960000D03*
%TO.N,GND*%
X141550000Y-93960000D03*
%TO.N,/AFE_CHG_EN*%
X133770000Y-106630000D03*
%TO.N,GND*%
X140720000Y-117550000D03*
X130910000Y-120040000D03*
X138440000Y-110510000D03*
%TO.N,/AFE_DSG_EN*%
X134480000Y-107810000D03*
%TD*%
D18*
%TO.N,/AFE_PACK+*%
X142370000Y-96570000D02*
X142130000Y-96570000D01*
X146140000Y-109350000D02*
X146880000Y-108610000D01*
X146880000Y-108610000D02*
X146880000Y-101080000D01*
X144895000Y-109350000D02*
X146140000Y-109350000D01*
X142420000Y-96620000D02*
X142370000Y-96570000D01*
X146880000Y-101080000D02*
X142420000Y-96620000D01*
%TO.N,/AFE_DSG*%
X144902500Y-104440000D02*
X145698500Y-103644000D01*
X145698500Y-103644000D02*
X145698500Y-101566095D01*
X145698500Y-101566095D02*
X139616405Y-95484000D01*
X139616405Y-95484000D02*
X135196000Y-95484000D01*
X135196000Y-95484000D02*
X134070000Y-96610000D01*
%TO.N,/AFE_PCHG*%
X144910000Y-102200000D02*
X140446000Y-97736000D01*
X140446000Y-97736000D02*
X133603595Y-97736000D01*
X133603595Y-97736000D02*
X132656000Y-96788405D01*
X132656000Y-96788405D02*
X132656000Y-95196000D01*
X132656000Y-95196000D02*
X131530000Y-94070000D01*
%TO.N,Net-(U1-DSG)*%
X144930000Y-106780000D02*
X144360000Y-106780000D01*
X144360000Y-106780000D02*
X143077500Y-105497500D01*
X143077500Y-105497500D02*
X143077500Y-104440000D01*
X138480000Y-107270000D02*
X139450000Y-107270000D01*
X139450000Y-107270000D02*
X142280000Y-104440000D01*
X142280000Y-104440000D02*
X143077500Y-104440000D01*
%TO.N,GND*%
X144815000Y-112905000D02*
X144830000Y-112920000D01*
X144815000Y-111300000D02*
X144815000Y-112905000D01*
%TO.N,Net-(U1-PACK)*%
X143070000Y-109350000D02*
X141450000Y-109350000D01*
X141450000Y-109350000D02*
X140020000Y-107920000D01*
X140020000Y-107920000D02*
X138480000Y-107920000D01*
X143105000Y-106780000D02*
X143105000Y-109315000D01*
X143105000Y-109315000D02*
X143070000Y-109350000D01*
X143090000Y-111300000D02*
X143090000Y-109370000D01*
X143090000Y-109370000D02*
X143070000Y-109350000D01*
%TO.N,GND*%
X124600000Y-106120000D02*
X124650000Y-106170000D01*
X123050000Y-106120000D02*
X124600000Y-106120000D01*
%TO.N,Net-(U1-BAT)*%
X126477500Y-105372500D02*
X126102500Y-105372500D01*
X126102500Y-105372500D02*
X125125000Y-104395000D01*
X125125000Y-104395000D02*
X123050000Y-104395000D01*
X123050000Y-104395000D02*
X123050000Y-102022500D01*
X123050000Y-102022500D02*
X123170000Y-101902500D01*
%TO.N,/AFE_BATT+*%
X124250000Y-97960000D02*
X124320000Y-97960000D01*
X124180000Y-98030000D02*
X124250000Y-97960000D01*
X123170000Y-100077500D02*
X123170000Y-99040000D01*
X123170000Y-99040000D02*
X124180000Y-98030000D01*
%TO.N,GND*%
X141440000Y-94070000D02*
X141550000Y-93960000D01*
X139150000Y-94070000D02*
X141440000Y-94070000D01*
%TO.N,Net-(U1-CHG)*%
X138480000Y-104670000D02*
X138480000Y-103690000D01*
X138110000Y-102802500D02*
X138142500Y-102770000D01*
X138480000Y-103690000D02*
X138110000Y-103320000D01*
X138110000Y-103320000D02*
X138110000Y-102802500D01*
%TO.N,/AFE_CHG*%
X136317500Y-102770000D02*
X136317500Y-101397500D01*
X136317500Y-101397500D02*
X131530000Y-96610000D01*
%TO.N,/AFE_CHG_EN*%
X133760000Y-106620000D02*
X133770000Y-106630000D01*
X132604000Y-106620000D02*
X133760000Y-106620000D01*
%TO.N,/FUEL_GUAGE_CP_EN*%
X138160000Y-120080000D02*
X136633000Y-121607000D01*
X131666500Y-107270000D02*
X132604000Y-107270000D01*
X136633000Y-121607000D02*
X131059957Y-121607000D01*
X131059957Y-121607000D02*
X129908000Y-120455043D01*
X129908000Y-120455043D02*
X129908000Y-109028500D01*
X129908000Y-109028500D02*
X131666500Y-107270000D01*
%TO.N,/FUEL_GUAGE_PACKDIV*%
X135620000Y-117540000D02*
X135620000Y-110492500D01*
X135620000Y-110492500D02*
X137542500Y-108570000D01*
X137542500Y-108570000D02*
X138480000Y-108570000D01*
%TO.N,/FUEL_GUAGE_PMON_EN*%
X135620000Y-120080000D02*
X134494000Y-121206000D01*
X134494000Y-121206000D02*
X131226057Y-121206000D01*
X131226057Y-121206000D02*
X130309000Y-120288943D01*
X130309000Y-120288943D02*
X130309000Y-109927500D01*
X130309000Y-109927500D02*
X131666500Y-108570000D01*
X131666500Y-108570000D02*
X132604000Y-108570000D01*
%TO.N,/FUEL_GUAGE_PCHG_EN*%
X133080000Y-117540000D02*
X133080000Y-109696000D01*
X133080000Y-109696000D02*
X132604000Y-109220000D01*
%TO.N,GND*%
X133080000Y-120080000D02*
X134206000Y-118954000D01*
X134206000Y-118954000D02*
X136746000Y-118954000D01*
X136746000Y-118954000D02*
X138160000Y-117540000D01*
X140710000Y-117540000D02*
X140720000Y-117550000D01*
X138160000Y-117540000D02*
X140710000Y-117540000D01*
X130950000Y-120080000D02*
X130910000Y-120040000D01*
X133080000Y-120080000D02*
X130950000Y-120080000D01*
X138480000Y-110470000D02*
X138440000Y-110510000D01*
X138480000Y-109220000D02*
X138480000Y-110470000D01*
%TO.N,/AFE_DSG_EN*%
X134480000Y-107810000D02*
X132714000Y-107810000D01*
X132714000Y-107810000D02*
X132604000Y-107920000D01*
%TO.N,Net-(U1-BAT)*%
X126477500Y-105372500D02*
X132551500Y-105372500D01*
X132551500Y-105372500D02*
X132604000Y-105320000D01*
%TO.N,Net-(U1-VDDCP)*%
X126477500Y-103647500D02*
X131581500Y-103647500D01*
X131581500Y-103647500D02*
X132604000Y-104670000D01*
%TO.N,Net-(U1-PCHG)*%
X143085000Y-102200000D02*
X142360000Y-102200000D01*
X141430000Y-104420000D02*
X139880000Y-105970000D01*
X142360000Y-102200000D02*
X141430000Y-103130000D01*
X141430000Y-103130000D02*
X141430000Y-104420000D01*
X139880000Y-105970000D02*
X138480000Y-105970000D01*
%TD*%
%TA.AperFunction,Conductor*%
%TO.N,GND*%
G36*
X131442125Y-109746121D02*
G01*
X131498057Y-109787990D01*
X131508954Y-109802546D01*
X131508955Y-109802547D01*
X131624164Y-109888793D01*
X131624171Y-109888797D01*
X131669118Y-109905561D01*
X131759017Y-109939091D01*
X131818627Y-109945500D01*
X132355500Y-109945499D01*
X132422539Y-109965183D01*
X132468294Y-110017987D01*
X132479500Y-110069499D01*
X132479500Y-116282337D01*
X132459815Y-116349376D01*
X132411798Y-116392820D01*
X132385299Y-116406322D01*
X132385290Y-116406327D01*
X132385286Y-116406330D01*
X132216495Y-116528965D01*
X132216493Y-116528967D01*
X132216492Y-116528967D01*
X132068966Y-116676493D01*
X131946330Y-116845285D01*
X131851612Y-117031179D01*
X131787137Y-117229610D01*
X131754500Y-117435675D01*
X131754500Y-117644324D01*
X131787137Y-117850389D01*
X131851612Y-118048820D01*
X131920485Y-118183990D01*
X131946330Y-118234714D01*
X132068965Y-118403505D01*
X132216495Y-118551035D01*
X132329022Y-118632791D01*
X132385287Y-118673671D01*
X132436561Y-118699796D01*
X132487358Y-118747770D01*
X132504153Y-118815591D01*
X132481616Y-118881726D01*
X132436563Y-118920765D01*
X132385555Y-118946755D01*
X132336180Y-118982627D01*
X132909766Y-119556212D01*
X132867708Y-119567482D01*
X132742292Y-119639890D01*
X132639890Y-119742292D01*
X132567482Y-119867708D01*
X132556212Y-119909765D01*
X131982627Y-119336180D01*
X131946757Y-119385552D01*
X131852075Y-119571372D01*
X131787626Y-119769727D01*
X131755000Y-119975720D01*
X131755000Y-120184279D01*
X131787626Y-120390273D01*
X131787626Y-120390276D01*
X131804817Y-120443182D01*
X131805620Y-120471301D01*
X131809624Y-120499147D01*
X131806604Y-120505758D01*
X131806812Y-120513023D01*
X131792285Y-120537112D01*
X131780599Y-120562703D01*
X131774485Y-120566632D01*
X131770732Y-120572856D01*
X131745485Y-120585268D01*
X131721821Y-120600477D01*
X131711550Y-120601953D01*
X131708031Y-120603684D01*
X131686886Y-120605500D01*
X131526154Y-120605500D01*
X131459115Y-120585815D01*
X131438473Y-120569181D01*
X130945819Y-120076527D01*
X130912334Y-120015204D01*
X130909500Y-119988846D01*
X130909500Y-110227596D01*
X130929185Y-110160557D01*
X130945815Y-110139919D01*
X131311113Y-109774620D01*
X131372434Y-109741137D01*
X131442125Y-109746121D01*
G37*
%TD.AperFunction*%
%TA.AperFunction,Conductor*%
G36*
X134421445Y-118138935D02*
G01*
X134460485Y-118183990D01*
X134486328Y-118234712D01*
X134522006Y-118283818D01*
X134608965Y-118403505D01*
X134756495Y-118551035D01*
X134925286Y-118673670D01*
X134972271Y-118697610D01*
X134976010Y-118699515D01*
X135026806Y-118747490D01*
X135043601Y-118815310D01*
X135021064Y-118881445D01*
X134976010Y-118920485D01*
X134925285Y-118946330D01*
X134756493Y-119068966D01*
X134608966Y-119216493D01*
X134486328Y-119385288D01*
X134460202Y-119436563D01*
X134412227Y-119487358D01*
X134344406Y-119504153D01*
X134278272Y-119481615D01*
X134239233Y-119436561D01*
X134213247Y-119385561D01*
X134213236Y-119385543D01*
X134177372Y-119336180D01*
X134177371Y-119336179D01*
X133603787Y-119909764D01*
X133592518Y-119867708D01*
X133520110Y-119742292D01*
X133417708Y-119639890D01*
X133292292Y-119567482D01*
X133250233Y-119556212D01*
X133823819Y-118982627D01*
X133774451Y-118946759D01*
X133723437Y-118920766D01*
X133672641Y-118872791D01*
X133655846Y-118804970D01*
X133678384Y-118738835D01*
X133723438Y-118699796D01*
X133774712Y-118673671D01*
X133774711Y-118673671D01*
X133774714Y-118673670D01*
X133943505Y-118551035D01*
X134091035Y-118403505D01*
X134213670Y-118234714D01*
X134239515Y-118183990D01*
X134287489Y-118133194D01*
X134355310Y-118116398D01*
X134421445Y-118138935D01*
G37*
%TD.AperFunction*%
%TA.AperFunction,Conductor*%
G36*
X137647482Y-117752292D02*
G01*
X137719890Y-117877708D01*
X137822292Y-117980110D01*
X137947708Y-118052518D01*
X137989765Y-118063787D01*
X137416179Y-118637371D01*
X137416180Y-118637372D01*
X137465543Y-118673236D01*
X137465561Y-118673247D01*
X137516561Y-118699233D01*
X137567358Y-118747207D01*
X137584153Y-118815028D01*
X137561616Y-118881163D01*
X137516563Y-118920202D01*
X137465288Y-118946328D01*
X137296493Y-119068966D01*
X137148966Y-119216493D01*
X137026330Y-119385285D01*
X137000485Y-119436010D01*
X136952510Y-119486806D01*
X136884690Y-119503601D01*
X136818555Y-119481064D01*
X136779515Y-119436010D01*
X136753810Y-119385561D01*
X136753670Y-119385286D01*
X136631035Y-119216495D01*
X136483505Y-119068965D01*
X136364672Y-118982627D01*
X136314712Y-118946328D01*
X136263990Y-118920485D01*
X136213194Y-118872511D01*
X136196398Y-118804690D01*
X136218935Y-118738555D01*
X136263990Y-118699515D01*
X136314712Y-118673671D01*
X136314711Y-118673671D01*
X136314714Y-118673670D01*
X136483505Y-118551035D01*
X136631035Y-118403505D01*
X136753670Y-118234714D01*
X136779796Y-118183437D01*
X136827769Y-118132642D01*
X136895590Y-118115846D01*
X136961725Y-118138383D01*
X137000766Y-118183437D01*
X137026759Y-118234451D01*
X137062627Y-118283818D01*
X137062627Y-118283819D01*
X137636212Y-117710234D01*
X137647482Y-117752292D01*
G37*
%TD.AperFunction*%
%TA.AperFunction,Conductor*%
G36*
X149092539Y-88470185D02*
G01*
X149138294Y-88522989D01*
X149149500Y-88574500D01*
X149149500Y-125955500D01*
X149129815Y-126022539D01*
X149077011Y-126068294D01*
X149025500Y-126079500D01*
X119764500Y-126079500D01*
X119697461Y-126059815D01*
X119651706Y-126007011D01*
X119640500Y-125955500D01*
X119640500Y-106469154D01*
X122075001Y-106469154D01*
X122085319Y-106570152D01*
X122139546Y-106733800D01*
X122139551Y-106733811D01*
X122230052Y-106880534D01*
X122230055Y-106880538D01*
X122351961Y-107002444D01*
X122351965Y-107002447D01*
X122498688Y-107092948D01*
X122498699Y-107092953D01*
X122662347Y-107147180D01*
X122763352Y-107157499D01*
X122800000Y-107157499D01*
X123300000Y-107157499D01*
X123336640Y-107157499D01*
X123336654Y-107157498D01*
X123437652Y-107147180D01*
X123601300Y-107092953D01*
X123601311Y-107092948D01*
X123748034Y-107002447D01*
X123748038Y-107002444D01*
X123869944Y-106880538D01*
X123869947Y-106880534D01*
X123960448Y-106733811D01*
X123960453Y-106733800D01*
X124014680Y-106570152D01*
X124024999Y-106469154D01*
X124025000Y-106469141D01*
X124025000Y-106370000D01*
X123300000Y-106370000D01*
X123300000Y-107157499D01*
X122800000Y-107157499D01*
X122800000Y-106370000D01*
X122075001Y-106370000D01*
X122075001Y-106469154D01*
X119640500Y-106469154D01*
X119640500Y-104045815D01*
X122074500Y-104045815D01*
X122074500Y-104744169D01*
X122074501Y-104744187D01*
X122084825Y-104845252D01*
X122117173Y-104942869D01*
X122139092Y-105009016D01*
X122223813Y-105146371D01*
X122229661Y-105155851D01*
X122243982Y-105170172D01*
X122277467Y-105231495D01*
X122272483Y-105301187D01*
X122243985Y-105345532D01*
X122230052Y-105359465D01*
X122139551Y-105506188D01*
X122139546Y-105506199D01*
X122085319Y-105669847D01*
X122075000Y-105770845D01*
X122075000Y-105870000D01*
X124024999Y-105870000D01*
X124024999Y-105770860D01*
X124024998Y-105770845D01*
X124014680Y-105669847D01*
X123960453Y-105506199D01*
X123960448Y-105506188D01*
X123869947Y-105359465D01*
X123869944Y-105359461D01*
X123856017Y-105345534D01*
X123822532Y-105284211D01*
X123827516Y-105214519D01*
X123841391Y-105187786D01*
X123847882Y-105178307D01*
X123870340Y-105155850D01*
X123934470Y-105051878D01*
X123936145Y-105049433D01*
X123961009Y-105029132D01*
X123984862Y-105007678D01*
X123988222Y-105006914D01*
X123990267Y-105005245D01*
X124000904Y-105004032D01*
X124038452Y-104995500D01*
X124824903Y-104995500D01*
X124891942Y-105015185D01*
X124912584Y-105031819D01*
X125465681Y-105584917D01*
X125499166Y-105646240D01*
X125502000Y-105672596D01*
X125502000Y-105721667D01*
X125502001Y-105721687D01*
X125512325Y-105822752D01*
X125544750Y-105920602D01*
X125562814Y-105975116D01*
X125566592Y-105986515D01*
X125566593Y-105986518D01*
X125579975Y-106008213D01*
X125657160Y-106133350D01*
X125779150Y-106255340D01*
X125925984Y-106345908D01*
X126089747Y-106400174D01*
X126190823Y-106410500D01*
X126764176Y-106410499D01*
X126764184Y-106410498D01*
X126764187Y-106410498D01*
X126819530Y-106404844D01*
X126865253Y-106400174D01*
X127029016Y-106345908D01*
X127175850Y-106255340D01*
X127297840Y-106133350D01*
X127346561Y-106054361D01*
X127360414Y-106031903D01*
X127412362Y-105985178D01*
X127465952Y-105973000D01*
X131242001Y-105973000D01*
X131249207Y-105975116D01*
X131256614Y-105973864D01*
X131282272Y-105984825D01*
X131309040Y-105992685D01*
X131313958Y-105998361D01*
X131320866Y-106001312D01*
X131336527Y-106024407D01*
X131354795Y-106045489D01*
X131356840Y-106054361D01*
X131360080Y-106059139D01*
X131364592Y-106087995D01*
X131365963Y-106093940D01*
X131366001Y-106095479D01*
X131366001Y-106242872D01*
X131370724Y-106286817D01*
X131370851Y-106291937D01*
X131370179Y-106294453D01*
X131370179Y-106308251D01*
X131366000Y-106347123D01*
X131366000Y-106678504D01*
X131346315Y-106745543D01*
X131304001Y-106785890D01*
X131297790Y-106789475D01*
X131297781Y-106789482D01*
X129427481Y-108659782D01*
X129427479Y-108659785D01*
X129415939Y-108679773D01*
X129395890Y-108714500D01*
X129348423Y-108796715D01*
X129307499Y-108949443D01*
X129307499Y-108949445D01*
X129307499Y-109117546D01*
X129307500Y-109117559D01*
X129307500Y-120368373D01*
X129307499Y-120368391D01*
X129307499Y-120534097D01*
X129307498Y-120534097D01*
X129348423Y-120686828D01*
X129370738Y-120725479D01*
X129370740Y-120725481D01*
X129427479Y-120823757D01*
X129427481Y-120823760D01*
X129546349Y-120942628D01*
X129546355Y-120942633D01*
X130575096Y-121971374D01*
X130575106Y-121971385D01*
X130579436Y-121975715D01*
X130579437Y-121975716D01*
X130691241Y-122087520D01*
X130778052Y-122137639D01*
X130778054Y-122137641D01*
X130828170Y-122166576D01*
X130828172Y-122166577D01*
X130980899Y-122207500D01*
X130980900Y-122207500D01*
X136546331Y-122207500D01*
X136546347Y-122207501D01*
X136553943Y-122207501D01*
X136712054Y-122207501D01*
X136712057Y-122207501D01*
X136864785Y-122166577D01*
X136914904Y-122137639D01*
X137001716Y-122087520D01*
X137113520Y-121975716D01*
X137113520Y-121975714D01*
X137123728Y-121965507D01*
X137123730Y-121965504D01*
X137695317Y-121393916D01*
X137756638Y-121360433D01*
X137821314Y-121363668D01*
X137849610Y-121372862D01*
X138055676Y-121405500D01*
X138055681Y-121405500D01*
X138264324Y-121405500D01*
X138470389Y-121372862D01*
X138508641Y-121360433D01*
X138668816Y-121308389D01*
X138854714Y-121213670D01*
X139023505Y-121091035D01*
X139171035Y-120943505D01*
X139293670Y-120774714D01*
X139388389Y-120588816D01*
X139452862Y-120390389D01*
X139482608Y-120202580D01*
X139485500Y-120184324D01*
X139485500Y-119975675D01*
X139452862Y-119769610D01*
X139388387Y-119571179D01*
X139293810Y-119385561D01*
X139293670Y-119385286D01*
X139171035Y-119216495D01*
X139023505Y-119068965D01*
X138854714Y-118946330D01*
X138854710Y-118946328D01*
X138803437Y-118920203D01*
X138752641Y-118872228D01*
X138735846Y-118804407D01*
X138758384Y-118738272D01*
X138803438Y-118699233D01*
X138854448Y-118673242D01*
X138854449Y-118673242D01*
X138903818Y-118637372D01*
X138903818Y-118637371D01*
X138330234Y-118063787D01*
X138372292Y-118052518D01*
X138497708Y-117980110D01*
X138600110Y-117877708D01*
X138672518Y-117752292D01*
X138683787Y-117710234D01*
X139257371Y-118283818D01*
X139257372Y-118283818D01*
X139293240Y-118234451D01*
X139387924Y-118048627D01*
X139452373Y-117850272D01*
X139485000Y-117644279D01*
X139485000Y-117435720D01*
X139452373Y-117229727D01*
X139387924Y-117031372D01*
X139293244Y-116845556D01*
X139293236Y-116845543D01*
X139257372Y-116796180D01*
X139257371Y-116796179D01*
X138683787Y-117369764D01*
X138672518Y-117327708D01*
X138600110Y-117202292D01*
X138497708Y-117099890D01*
X138372292Y-117027482D01*
X138330233Y-117016212D01*
X138903819Y-116442627D01*
X138854451Y-116406759D01*
X138668627Y-116312075D01*
X138470272Y-116247626D01*
X138264279Y-116215000D01*
X138055721Y-116215000D01*
X137849727Y-116247626D01*
X137651372Y-116312075D01*
X137465552Y-116406757D01*
X137416180Y-116442627D01*
X137989766Y-117016212D01*
X137947708Y-117027482D01*
X137822292Y-117099890D01*
X137719890Y-117202292D01*
X137647482Y-117327708D01*
X137636212Y-117369765D01*
X137062627Y-116796180D01*
X137026755Y-116845555D01*
X137000765Y-116896563D01*
X136952790Y-116947358D01*
X136884969Y-116964153D01*
X136818834Y-116941615D01*
X136779796Y-116896561D01*
X136753671Y-116845287D01*
X136712791Y-116789022D01*
X136631035Y-116676495D01*
X136483505Y-116528965D01*
X136314714Y-116406330D01*
X136314705Y-116406325D01*
X136314700Y-116406322D01*
X136288202Y-116392820D01*
X136237407Y-116344844D01*
X136220500Y-116282337D01*
X136220500Y-110792596D01*
X136240185Y-110725557D01*
X136256814Y-110704920D01*
X137187473Y-109774261D01*
X137248791Y-109740779D01*
X137318482Y-109745763D01*
X137374416Y-109787634D01*
X137374416Y-109787635D01*
X137385311Y-109802189D01*
X137385312Y-109802190D01*
X137500406Y-109888350D01*
X137500413Y-109888354D01*
X137635120Y-109938596D01*
X137635127Y-109938598D01*
X137694655Y-109944999D01*
X137694672Y-109945000D01*
X138255000Y-109945000D01*
X138255000Y-109419499D01*
X138257550Y-109410813D01*
X138256262Y-109401852D01*
X138267240Y-109377811D01*
X138274685Y-109352460D01*
X138281525Y-109346532D01*
X138285287Y-109338296D01*
X138307521Y-109324006D01*
X138327489Y-109306705D01*
X138338003Y-109304417D01*
X138344065Y-109300522D01*
X138378996Y-109295499D01*
X138581001Y-109295499D01*
X138648039Y-109315184D01*
X138693794Y-109367988D01*
X138705000Y-109419499D01*
X138705000Y-109945000D01*
X139265328Y-109945000D01*
X139265344Y-109944999D01*
X139324872Y-109938598D01*
X139324879Y-109938596D01*
X139459586Y-109888354D01*
X139459593Y-109888350D01*
X139574687Y-109802190D01*
X139574690Y-109802187D01*
X139660850Y-109687093D01*
X139660854Y-109687086D01*
X139711096Y-109552379D01*
X139711098Y-109552372D01*
X139717499Y-109492844D01*
X139717500Y-109492827D01*
X139717500Y-109445000D01*
X139556935Y-109445000D01*
X139489896Y-109425315D01*
X139444141Y-109372511D01*
X139434197Y-109303353D01*
X139463222Y-109239797D01*
X139482624Y-109221734D01*
X139540932Y-109178083D01*
X139575046Y-109152546D01*
X139661296Y-109037331D01*
X139711591Y-108902483D01*
X139718000Y-108842873D01*
X139717999Y-108766595D01*
X139737683Y-108699558D01*
X139790486Y-108653802D01*
X139859644Y-108643858D01*
X139923201Y-108672882D01*
X139929680Y-108678915D01*
X140965139Y-109714374D01*
X140965149Y-109714385D01*
X140969479Y-109718715D01*
X140969480Y-109718716D01*
X141081284Y-109830520D01*
X141081286Y-109830521D01*
X141081290Y-109830524D01*
X141218209Y-109909573D01*
X141218216Y-109909577D01*
X141305345Y-109932923D01*
X141370942Y-109950500D01*
X141370943Y-109950500D01*
X142107599Y-109950500D01*
X142174638Y-109970185D01*
X142213138Y-110009404D01*
X142237159Y-110048349D01*
X142359150Y-110170340D01*
X142423787Y-110210208D01*
X142470512Y-110262156D01*
X142481735Y-110331118D01*
X142453892Y-110395200D01*
X142423789Y-110421285D01*
X142329150Y-110479659D01*
X142207161Y-110601648D01*
X142116593Y-110748481D01*
X142116591Y-110748486D01*
X142089219Y-110831088D01*
X142062326Y-110912247D01*
X142062326Y-110912248D01*
X142062325Y-110912248D01*
X142052000Y-111013315D01*
X142052000Y-111586669D01*
X142052001Y-111586687D01*
X142062325Y-111687752D01*
X142098609Y-111797249D01*
X142116592Y-111851516D01*
X142207160Y-111998350D01*
X142329150Y-112120340D01*
X142475984Y-112210908D01*
X142639747Y-112265174D01*
X142740823Y-112275500D01*
X143439176Y-112275499D01*
X143439184Y-112275498D01*
X143439187Y-112275498D01*
X143494530Y-112269844D01*
X143540253Y-112265174D01*
X143704016Y-112210908D01*
X143850850Y-112120340D01*
X143865171Y-112106018D01*
X143926489Y-112072533D01*
X143996181Y-112077514D01*
X144040534Y-112106017D01*
X144054461Y-112119944D01*
X144054465Y-112119947D01*
X144201188Y-112210448D01*
X144201199Y-112210453D01*
X144364847Y-112264680D01*
X144465851Y-112274999D01*
X145065000Y-112274999D01*
X145164140Y-112274999D01*
X145164154Y-112274998D01*
X145265152Y-112264680D01*
X145428800Y-112210453D01*
X145428811Y-112210448D01*
X145575534Y-112119947D01*
X145575538Y-112119944D01*
X145697444Y-111998038D01*
X145697447Y-111998034D01*
X145787948Y-111851311D01*
X145787953Y-111851300D01*
X145842180Y-111687652D01*
X145852499Y-111586654D01*
X145852500Y-111586641D01*
X145852500Y-111550000D01*
X145065000Y-111550000D01*
X145065000Y-112274999D01*
X144465851Y-112274999D01*
X144565000Y-112274998D01*
X144565000Y-111424000D01*
X144584685Y-111356961D01*
X144637489Y-111311206D01*
X144689000Y-111300000D01*
X144815000Y-111300000D01*
X144815000Y-111174000D01*
X144834685Y-111106961D01*
X144887489Y-111061206D01*
X144939000Y-111050000D01*
X145852499Y-111050000D01*
X145852499Y-111013360D01*
X145852498Y-111013345D01*
X145842180Y-110912347D01*
X145787953Y-110748699D01*
X145787948Y-110748688D01*
X145697447Y-110601965D01*
X145697444Y-110601961D01*
X145575537Y-110480054D01*
X145510734Y-110440083D01*
X145464010Y-110388135D01*
X145452789Y-110319172D01*
X145480632Y-110255090D01*
X145510732Y-110229008D01*
X145605850Y-110170340D01*
X145727840Y-110048350D01*
X145751862Y-110009404D01*
X145759448Y-110002580D01*
X145763688Y-109993297D01*
X145784988Y-109979608D01*
X145803810Y-109962679D01*
X145815445Y-109960034D01*
X145822466Y-109955523D01*
X145857401Y-109950500D01*
X146053331Y-109950500D01*
X146053347Y-109950501D01*
X146060943Y-109950501D01*
X146219054Y-109950501D01*
X146219057Y-109950501D01*
X146371785Y-109909577D01*
X146432406Y-109874577D01*
X146508716Y-109830520D01*
X146620520Y-109718716D01*
X146620520Y-109718714D01*
X146630724Y-109708511D01*
X146630728Y-109708506D01*
X147238506Y-109100728D01*
X147238511Y-109100724D01*
X147248714Y-109090520D01*
X147248716Y-109090520D01*
X147360520Y-108978716D01*
X147378891Y-108946894D01*
X147413173Y-108887518D01*
X147439575Y-108841788D01*
X147439574Y-108841788D01*
X147439577Y-108841785D01*
X147480501Y-108689057D01*
X147480501Y-108530943D01*
X147480501Y-108523348D01*
X147480500Y-108523330D01*
X147480500Y-101000945D01*
X147480500Y-101000943D01*
X147439577Y-100848216D01*
X147439573Y-100848209D01*
X147360524Y-100711290D01*
X147360521Y-100711286D01*
X147360520Y-100711284D01*
X147248716Y-100599480D01*
X147248715Y-100599479D01*
X147244385Y-100595149D01*
X147244374Y-100595139D01*
X142907593Y-96258358D01*
X142900521Y-96251286D01*
X142900520Y-96251284D01*
X142864332Y-96215096D01*
X142846690Y-96197454D01*
X142846687Y-96197449D01*
X142831270Y-96178664D01*
X142825464Y-96169975D01*
X142751789Y-96059711D01*
X142751787Y-96059708D01*
X142640292Y-95948213D01*
X142640288Y-95948210D01*
X142509185Y-95860609D01*
X142509172Y-95860602D01*
X142363501Y-95800264D01*
X142363489Y-95800261D01*
X142208845Y-95769500D01*
X142208842Y-95769500D01*
X142051158Y-95769500D01*
X142051155Y-95769500D01*
X141896510Y-95800261D01*
X141896498Y-95800264D01*
X141750827Y-95860602D01*
X141750814Y-95860609D01*
X141619711Y-95948210D01*
X141619707Y-95948213D01*
X141508213Y-96059707D01*
X141508210Y-96059711D01*
X141420609Y-96190814D01*
X141420602Y-96190827D01*
X141418939Y-96194843D01*
X141375093Y-96249242D01*
X141308797Y-96271301D01*
X141241099Y-96254016D01*
X141216701Y-96235061D01*
X140103995Y-95122355D01*
X140103993Y-95122352D01*
X139985122Y-95003481D01*
X139985114Y-95003475D01*
X139863921Y-94933505D01*
X139863921Y-94933504D01*
X139863917Y-94933503D01*
X139848190Y-94924423D01*
X139695462Y-94883499D01*
X139661308Y-94883499D01*
X139594269Y-94863814D01*
X139573627Y-94847180D01*
X139320234Y-94593787D01*
X139362292Y-94582518D01*
X139487708Y-94510110D01*
X139590110Y-94407708D01*
X139662518Y-94282292D01*
X139673787Y-94240234D01*
X140247371Y-94813818D01*
X140247372Y-94813818D01*
X140283240Y-94764451D01*
X140377924Y-94578627D01*
X140442373Y-94380272D01*
X140475000Y-94174279D01*
X140475000Y-93965720D01*
X140442373Y-93759727D01*
X140377924Y-93561372D01*
X140283244Y-93375556D01*
X140283236Y-93375543D01*
X140247372Y-93326180D01*
X140247371Y-93326179D01*
X139673787Y-93899764D01*
X139662518Y-93857708D01*
X139590110Y-93732292D01*
X139487708Y-93629890D01*
X139362292Y-93557482D01*
X139320233Y-93546212D01*
X139893819Y-92972627D01*
X139844451Y-92936759D01*
X139658627Y-92842075D01*
X139460272Y-92777626D01*
X139254279Y-92745000D01*
X139045721Y-92745000D01*
X138839727Y-92777626D01*
X138641372Y-92842075D01*
X138455552Y-92936757D01*
X138406180Y-92972627D01*
X138979766Y-93546212D01*
X138937708Y-93557482D01*
X138812292Y-93629890D01*
X138709890Y-93732292D01*
X138637482Y-93857708D01*
X138626212Y-93899766D01*
X138052627Y-93326180D01*
X138016755Y-93375555D01*
X137990765Y-93426563D01*
X137942790Y-93477358D01*
X137874969Y-93494153D01*
X137808834Y-93471615D01*
X137769796Y-93426561D01*
X137743671Y-93375287D01*
X137702791Y-93319022D01*
X137621035Y-93206495D01*
X137473505Y-93058965D01*
X137304714Y-92936330D01*
X137118820Y-92841612D01*
X136920389Y-92777137D01*
X136714324Y-92744500D01*
X136714319Y-92744500D01*
X136505681Y-92744500D01*
X136505676Y-92744500D01*
X136299610Y-92777137D01*
X136101179Y-92841612D01*
X135915285Y-92936330D01*
X135746493Y-93058966D01*
X135598966Y-93206493D01*
X135476330Y-93375285D01*
X135450485Y-93426010D01*
X135402510Y-93476806D01*
X135334690Y-93493601D01*
X135268555Y-93471064D01*
X135229515Y-93426010D01*
X135227610Y-93422271D01*
X135203670Y-93375286D01*
X135081035Y-93206495D01*
X134933505Y-93058965D01*
X134764714Y-92936330D01*
X134578820Y-92841612D01*
X134380389Y-92777137D01*
X134174324Y-92744500D01*
X134174319Y-92744500D01*
X133965681Y-92744500D01*
X133965676Y-92744500D01*
X133759610Y-92777137D01*
X133561179Y-92841612D01*
X133375285Y-92936330D01*
X133206493Y-93058966D01*
X133058966Y-93206493D01*
X132936330Y-93375285D01*
X132910485Y-93426010D01*
X132862510Y-93476806D01*
X132794690Y-93493601D01*
X132728555Y-93471064D01*
X132689515Y-93426010D01*
X132687610Y-93422271D01*
X132663670Y-93375286D01*
X132541035Y-93206495D01*
X132393505Y-93058965D01*
X132224714Y-92936330D01*
X132038820Y-92841612D01*
X131840389Y-92777137D01*
X131634324Y-92744500D01*
X131634319Y-92744500D01*
X131425681Y-92744500D01*
X131425676Y-92744500D01*
X131219610Y-92777137D01*
X131021179Y-92841612D01*
X130835285Y-92936330D01*
X130666493Y-93058966D01*
X130518966Y-93206493D01*
X130396330Y-93375285D01*
X130301612Y-93561179D01*
X130237137Y-93759610D01*
X130204500Y-93965675D01*
X130204500Y-94174324D01*
X130237137Y-94380389D01*
X130301612Y-94578820D01*
X130396196Y-94764451D01*
X130396330Y-94764714D01*
X130518965Y-94933505D01*
X130666495Y-95081035D01*
X130835286Y-95203670D01*
X130882271Y-95227610D01*
X130886010Y-95229515D01*
X130936806Y-95277490D01*
X130953601Y-95345310D01*
X130931064Y-95411445D01*
X130886010Y-95450485D01*
X130835285Y-95476330D01*
X130666493Y-95598966D01*
X130518966Y-95746493D01*
X130396330Y-95915285D01*
X130301612Y-96101179D01*
X130237137Y-96299610D01*
X130204500Y-96505675D01*
X130204500Y-96714324D01*
X130237137Y-96920389D01*
X130301612Y-97118820D01*
X130368761Y-97250606D01*
X130396330Y-97304714D01*
X130518965Y-97473505D01*
X130666495Y-97621035D01*
X130835286Y-97743670D01*
X130923116Y-97788421D01*
X131021179Y-97838387D01*
X131021181Y-97838387D01*
X131021184Y-97838389D01*
X131081402Y-97857955D01*
X131219610Y-97902862D01*
X131425676Y-97935500D01*
X131425681Y-97935500D01*
X131634324Y-97935500D01*
X131734222Y-97919677D01*
X131840389Y-97902862D01*
X131868682Y-97893668D01*
X131938522Y-97891672D01*
X131994683Y-97923918D01*
X135680681Y-101609916D01*
X135695384Y-101636843D01*
X135711977Y-101662662D01*
X135712868Y-101668862D01*
X135714166Y-101671239D01*
X135717000Y-101697597D01*
X135717000Y-101812388D01*
X135697315Y-101879427D01*
X135658098Y-101917926D01*
X135606650Y-101949659D01*
X135484661Y-102071648D01*
X135394093Y-102218481D01*
X135394092Y-102218484D01*
X135339826Y-102382247D01*
X135339826Y-102382248D01*
X135339825Y-102382248D01*
X135329500Y-102483315D01*
X135329500Y-103056669D01*
X135329501Y-103056687D01*
X135339825Y-103157752D01*
X135360141Y-103219059D01*
X135394091Y-103321514D01*
X135394092Y-103321515D01*
X135394093Y-103321518D01*
X135405801Y-103340500D01*
X135484660Y-103468350D01*
X135606650Y-103590340D01*
X135753484Y-103680908D01*
X135917247Y-103735174D01*
X136018323Y-103745500D01*
X136616676Y-103745499D01*
X136616684Y-103745498D01*
X136616687Y-103745498D01*
X136681972Y-103738829D01*
X136717753Y-103735174D01*
X136881516Y-103680908D01*
X137028350Y-103590340D01*
X137142319Y-103476371D01*
X137203642Y-103442886D01*
X137273334Y-103447870D01*
X137317681Y-103476371D01*
X137431650Y-103590340D01*
X137578484Y-103680908D01*
X137615180Y-103693067D01*
X137626275Y-103699911D01*
X137635601Y-103701940D01*
X137663855Y-103723091D01*
X137685515Y-103744751D01*
X137719000Y-103806074D01*
X137714016Y-103875766D01*
X137672144Y-103931699D01*
X137641168Y-103948614D01*
X137500169Y-104001203D01*
X137500164Y-104001206D01*
X137384955Y-104087452D01*
X137384952Y-104087455D01*
X137298706Y-104202664D01*
X137298702Y-104202671D01*
X137248410Y-104337513D01*
X137248409Y-104337517D01*
X137242000Y-104397127D01*
X137242000Y-104397134D01*
X137242000Y-104397135D01*
X137242000Y-104942869D01*
X137242001Y-104942878D01*
X137246179Y-104981745D01*
X137246179Y-105008250D01*
X137242000Y-105047122D01*
X137242000Y-105592869D01*
X137242001Y-105592878D01*
X137246179Y-105631745D01*
X137246179Y-105658250D01*
X137242000Y-105697122D01*
X137242000Y-106242869D01*
X137242001Y-106242878D01*
X137246179Y-106281745D01*
X137246179Y-106308250D01*
X137242000Y-106347122D01*
X137242000Y-106892869D01*
X137242001Y-106892878D01*
X137246179Y-106931745D01*
X137246179Y-106958250D01*
X137242000Y-106997122D01*
X137242000Y-107542869D01*
X137242001Y-107542878D01*
X137246179Y-107581745D01*
X137246179Y-107608251D01*
X137242000Y-107647123D01*
X137242000Y-107978504D01*
X137222315Y-108045543D01*
X137180001Y-108085890D01*
X137173790Y-108089475D01*
X137173781Y-108089482D01*
X135139481Y-110123782D01*
X135139480Y-110123784D01*
X135089584Y-110210208D01*
X135089361Y-110210594D01*
X135089359Y-110210596D01*
X135060425Y-110260709D01*
X135060424Y-110260710D01*
X135044759Y-110319172D01*
X135019499Y-110413443D01*
X135019499Y-110413445D01*
X135019499Y-110581546D01*
X135019500Y-110581559D01*
X135019500Y-116282337D01*
X134999815Y-116349376D01*
X134951798Y-116392820D01*
X134925299Y-116406322D01*
X134925290Y-116406327D01*
X134925286Y-116406330D01*
X134756495Y-116528965D01*
X134756493Y-116528967D01*
X134756492Y-116528967D01*
X134608966Y-116676493D01*
X134486330Y-116845285D01*
X134460485Y-116896010D01*
X134412510Y-116946806D01*
X134344690Y-116963601D01*
X134278555Y-116941064D01*
X134239515Y-116896010D01*
X134237610Y-116892271D01*
X134213670Y-116845286D01*
X134091035Y-116676495D01*
X133943505Y-116528965D01*
X133774714Y-116406330D01*
X133774705Y-116406325D01*
X133774700Y-116406322D01*
X133748202Y-116392820D01*
X133697407Y-116344844D01*
X133680500Y-116282337D01*
X133680500Y-109868592D01*
X133700185Y-109801553D01*
X133705233Y-109794281D01*
X133785296Y-109687331D01*
X133835591Y-109552483D01*
X133842000Y-109492873D01*
X133841999Y-108947128D01*
X133841998Y-108947111D01*
X133837820Y-108908253D01*
X133837820Y-108881747D01*
X133842000Y-108842873D01*
X133841999Y-108578441D01*
X133861683Y-108511404D01*
X133914487Y-108465649D01*
X133983646Y-108455705D01*
X134034890Y-108475341D01*
X134100814Y-108519390D01*
X134100827Y-108519397D01*
X134243379Y-108578443D01*
X134246503Y-108579737D01*
X134401153Y-108610499D01*
X134401156Y-108610500D01*
X134401158Y-108610500D01*
X134558844Y-108610500D01*
X134558845Y-108610499D01*
X134713497Y-108579737D01*
X134834392Y-108529661D01*
X134859172Y-108519397D01*
X134859172Y-108519396D01*
X134859179Y-108519394D01*
X134990289Y-108431789D01*
X135101789Y-108320289D01*
X135189394Y-108189179D01*
X135249737Y-108043497D01*
X135280500Y-107888842D01*
X135280500Y-107731158D01*
X135280500Y-107731155D01*
X135280499Y-107731153D01*
X135272494Y-107690908D01*
X135249737Y-107576503D01*
X135249735Y-107576498D01*
X135189397Y-107430827D01*
X135189390Y-107430814D01*
X135101789Y-107299711D01*
X135101786Y-107299707D01*
X134990292Y-107188213D01*
X134990288Y-107188210D01*
X134859185Y-107100609D01*
X134859172Y-107100602D01*
X134713501Y-107040264D01*
X134713489Y-107040261D01*
X134633239Y-107024298D01*
X134571328Y-106991913D01*
X134536753Y-106931197D01*
X134538682Y-106869498D01*
X134538549Y-106869472D01*
X134538708Y-106868668D01*
X134538771Y-106866681D01*
X134539735Y-106863501D01*
X134539737Y-106863497D01*
X134570500Y-106708842D01*
X134570500Y-106551158D01*
X134570500Y-106551155D01*
X134570499Y-106551153D01*
X134558994Y-106493315D01*
X134539737Y-106396503D01*
X134519285Y-106347127D01*
X134479397Y-106250827D01*
X134479390Y-106250814D01*
X134391789Y-106119711D01*
X134391786Y-106119707D01*
X134280292Y-106008213D01*
X134280288Y-106008210D01*
X134149185Y-105920609D01*
X134149172Y-105920602D01*
X134003501Y-105860264D01*
X134003492Y-105860262D01*
X133941806Y-105847991D01*
X133916843Y-105834932D01*
X133890564Y-105824789D01*
X133886299Y-105818954D01*
X133879896Y-105815605D01*
X133865954Y-105791122D01*
X133849332Y-105768382D01*
X133847708Y-105759079D01*
X133845322Y-105754889D01*
X133842222Y-105733812D01*
X133841999Y-105730100D01*
X133841999Y-105697128D01*
X133837506Y-105655339D01*
X133837332Y-105652435D01*
X133837820Y-105650308D01*
X133837820Y-105631745D01*
X133842000Y-105592873D01*
X133841999Y-105047128D01*
X133841999Y-105047127D01*
X133841998Y-105047111D01*
X133837820Y-105008253D01*
X133837820Y-104981745D01*
X133842000Y-104942873D01*
X133841999Y-104397128D01*
X133835591Y-104337517D01*
X133819050Y-104293169D01*
X133785297Y-104202671D01*
X133785293Y-104202664D01*
X133699047Y-104087455D01*
X133699044Y-104087452D01*
X133583835Y-104001206D01*
X133583828Y-104001202D01*
X133448982Y-103950908D01*
X133448983Y-103950908D01*
X133389383Y-103944501D01*
X133389381Y-103944500D01*
X133389373Y-103944500D01*
X133389365Y-103944500D01*
X132779097Y-103944500D01*
X132712058Y-103924815D01*
X132691416Y-103908181D01*
X132069090Y-103285855D01*
X132069088Y-103285852D01*
X131950217Y-103166981D01*
X131950209Y-103166975D01*
X131853097Y-103110908D01*
X131853095Y-103110907D01*
X131813290Y-103087925D01*
X131813289Y-103087924D01*
X131800763Y-103084567D01*
X131660557Y-103046999D01*
X131502443Y-103046999D01*
X131494847Y-103046999D01*
X131494831Y-103047000D01*
X127465952Y-103047000D01*
X127398913Y-103027315D01*
X127360414Y-102988097D01*
X127297842Y-102886653D01*
X127297839Y-102886649D01*
X127175851Y-102764661D01*
X127175850Y-102764660D01*
X127084629Y-102708395D01*
X127029018Y-102674093D01*
X127029013Y-102674091D01*
X127027569Y-102673612D01*
X126865253Y-102619826D01*
X126865251Y-102619825D01*
X126764178Y-102609500D01*
X126190830Y-102609500D01*
X126190812Y-102609501D01*
X126089747Y-102619825D01*
X125925984Y-102674092D01*
X125925981Y-102674093D01*
X125779148Y-102764661D01*
X125657161Y-102886648D01*
X125566593Y-103033481D01*
X125566591Y-103033486D01*
X125548552Y-103087924D01*
X125512326Y-103197247D01*
X125512326Y-103197248D01*
X125512325Y-103197248D01*
X125502000Y-103298315D01*
X125502000Y-103712733D01*
X125482315Y-103779772D01*
X125429511Y-103825527D01*
X125360353Y-103835471D01*
X125345906Y-103832508D01*
X125204057Y-103794499D01*
X125045943Y-103794499D01*
X125038347Y-103794499D01*
X125038331Y-103794500D01*
X124038452Y-103794500D01*
X123971413Y-103774815D01*
X123932914Y-103735597D01*
X123870342Y-103634153D01*
X123870339Y-103634149D01*
X123748349Y-103512159D01*
X123709402Y-103488136D01*
X123662678Y-103436187D01*
X123650500Y-103382598D01*
X123650500Y-102938019D01*
X123670185Y-102870980D01*
X123716098Y-102830881D01*
X123715369Y-102829699D01*
X123721514Y-102825908D01*
X123721516Y-102825908D01*
X123868350Y-102735340D01*
X123990340Y-102613350D01*
X124080908Y-102466516D01*
X124135174Y-102302753D01*
X124145500Y-102201677D01*
X124145499Y-101603324D01*
X124135174Y-101502247D01*
X124080908Y-101338484D01*
X123990340Y-101191650D01*
X123876371Y-101077681D01*
X123842886Y-101016358D01*
X123847870Y-100946666D01*
X123876371Y-100902319D01*
X123930481Y-100848209D01*
X123990340Y-100788350D01*
X124080908Y-100641516D01*
X124135174Y-100477753D01*
X124145500Y-100376677D01*
X124145499Y-99778324D01*
X124135174Y-99677247D01*
X124080908Y-99513484D01*
X123990340Y-99366650D01*
X123929143Y-99305453D01*
X123895658Y-99244130D01*
X123900642Y-99174438D01*
X123929139Y-99130096D01*
X124262419Y-98796816D01*
X124323740Y-98763334D01*
X124350098Y-98760500D01*
X124398844Y-98760500D01*
X124398845Y-98760499D01*
X124553497Y-98729737D01*
X124699179Y-98669394D01*
X124830289Y-98581789D01*
X124941789Y-98470289D01*
X125029394Y-98339179D01*
X125089737Y-98193497D01*
X125120500Y-98038842D01*
X125120500Y-97881158D01*
X125120500Y-97881155D01*
X125120499Y-97881153D01*
X125103256Y-97794466D01*
X125089737Y-97726503D01*
X125046051Y-97621035D01*
X125029397Y-97580827D01*
X125029390Y-97580814D01*
X124941789Y-97449711D01*
X124941786Y-97449707D01*
X124830292Y-97338213D01*
X124830288Y-97338210D01*
X124699185Y-97250609D01*
X124699172Y-97250602D01*
X124553501Y-97190264D01*
X124553489Y-97190261D01*
X124398845Y-97159500D01*
X124398842Y-97159500D01*
X124241158Y-97159500D01*
X124241155Y-97159500D01*
X124086510Y-97190261D01*
X124086498Y-97190264D01*
X123940827Y-97250602D01*
X123940814Y-97250609D01*
X123809711Y-97338210D01*
X123809707Y-97338213D01*
X123698213Y-97449707D01*
X123698210Y-97449711D01*
X123610609Y-97580814D01*
X123610602Y-97580827D01*
X123550263Y-97726500D01*
X123550261Y-97726508D01*
X123536743Y-97794466D01*
X123504357Y-97856377D01*
X123502807Y-97857955D01*
X122801286Y-98559478D01*
X122689481Y-98671282D01*
X122689480Y-98671284D01*
X122655733Y-98729737D01*
X122639361Y-98758094D01*
X122639359Y-98758096D01*
X122610425Y-98808209D01*
X122610424Y-98808210D01*
X122610423Y-98808215D01*
X122569499Y-98960943D01*
X122569499Y-98960945D01*
X122569499Y-99115099D01*
X122549814Y-99182138D01*
X122510596Y-99220637D01*
X122471653Y-99244657D01*
X122471649Y-99244660D01*
X122349661Y-99366648D01*
X122259093Y-99513481D01*
X122259092Y-99513484D01*
X122204826Y-99677247D01*
X122204826Y-99677248D01*
X122204825Y-99677248D01*
X122194500Y-99778315D01*
X122194500Y-100376669D01*
X122194501Y-100376687D01*
X122204825Y-100477752D01*
X122259092Y-100641515D01*
X122259093Y-100641518D01*
X122349661Y-100788351D01*
X122463629Y-100902319D01*
X122497114Y-100963642D01*
X122492130Y-101033334D01*
X122463629Y-101077681D01*
X122349661Y-101191648D01*
X122259093Y-101338481D01*
X122259091Y-101338486D01*
X122245447Y-101379661D01*
X122204826Y-101502247D01*
X122204826Y-101502248D01*
X122204825Y-101502248D01*
X122194500Y-101603315D01*
X122194500Y-102201669D01*
X122194501Y-102201687D01*
X122204825Y-102302752D01*
X122259092Y-102466515D01*
X122259093Y-102466518D01*
X122269459Y-102483324D01*
X122347285Y-102609500D01*
X122349661Y-102613351D01*
X122413181Y-102676871D01*
X122446666Y-102738194D01*
X122449500Y-102764552D01*
X122449500Y-103382598D01*
X122429815Y-103449637D01*
X122390598Y-103488136D01*
X122351650Y-103512159D01*
X122229661Y-103634148D01*
X122139093Y-103780981D01*
X122139091Y-103780986D01*
X122121037Y-103835471D01*
X122084826Y-103944747D01*
X122084826Y-103944748D01*
X122084825Y-103944748D01*
X122074500Y-104045815D01*
X119640500Y-104045815D01*
X119640500Y-88574500D01*
X119660185Y-88507461D01*
X119712989Y-88461706D01*
X119764500Y-88450500D01*
X149025500Y-88450500D01*
X149092539Y-88470185D01*
G37*
%TD.AperFunction*%
%TD*%
M02*
