%TF.GenerationSoftware,KiCad,Pcbnew,10.0.1*%
%TF.CreationDate,2026-04-24T17:16:23-05:00*%
%TF.ProjectId,STAR_MCU,53544152-5f4d-4435-952e-6b696361645f,rev?*%
%TF.SameCoordinates,Original*%
%TF.FileFunction,Copper,L6,Bot*%
%TF.FilePolarity,Positive*%
%FSLAX46Y46*%
G04 Gerber Fmt 4.6, Leading zero omitted, Abs format (unit mm)*
G04 Created by KiCad (PCBNEW 10.0.1) date 2026-04-24 17:16:23*
%MOMM*%
%LPD*%
G01*
G04 APERTURE LIST*
G04 Aperture macros list*
%AMRoundRect*
0 Rectangle with rounded corners*
0 $1 Rounding radius*
0 $2 $3 $4 $5 $6 $7 $8 $9 X,Y pos of 4 corners*
0 Add a 4 corners polygon primitive as box body*
4,1,4,$2,$3,$4,$5,$6,$7,$8,$9,$2,$3,0*
0 Add four circle primitives for the rounded corners*
1,1,$1+$1,$2,$3*
1,1,$1+$1,$4,$5*
1,1,$1+$1,$6,$7*
1,1,$1+$1,$8,$9*
0 Add four rect primitives between the rounded corners*
20,1,$1+$1,$2,$3,$4,$5,0*
20,1,$1+$1,$4,$5,$6,$7,0*
20,1,$1+$1,$6,$7,$8,$9,0*
20,1,$1+$1,$8,$9,$2,$3,0*%
G04 Aperture macros list end*
%TA.AperFunction,EtchedComponent*%
%ADD10C,0.000000*%
%TD*%
%TA.AperFunction,ComponentPad*%
%ADD11R,1.700000X1.700000*%
%TD*%
%TA.AperFunction,ComponentPad*%
%ADD12C,1.700000*%
%TD*%
%TA.AperFunction,ComponentPad*%
%ADD13C,6.400000*%
%TD*%
%TA.AperFunction,ComponentPad*%
%ADD14C,1.100000*%
%TD*%
%TA.AperFunction,ComponentPad*%
%ADD15R,1.508000X1.508000*%
%TD*%
%TA.AperFunction,ComponentPad*%
%ADD16C,1.508000*%
%TD*%
%TA.AperFunction,ComponentPad*%
%ADD17O,1.400000X4.100000*%
%TD*%
%TA.AperFunction,ComponentPad*%
%ADD18O,1.400000X3.100000*%
%TD*%
%TA.AperFunction,ComponentPad*%
%ADD19O,3.100000X1.400000*%
%TD*%
%TA.AperFunction,ComponentPad*%
%ADD20R,1.650000X1.650000*%
%TD*%
%TA.AperFunction,ComponentPad*%
%ADD21C,1.650000*%
%TD*%
%TA.AperFunction,ComponentPad*%
%ADD22R,2.100000X2.100000*%
%TD*%
%TA.AperFunction,ComponentPad*%
%ADD23C,2.100000*%
%TD*%
%TA.AperFunction,ComponentPad*%
%ADD24C,1.030000*%
%TD*%
%TA.AperFunction,ComponentPad*%
%ADD25R,1.300000X1.300000*%
%TD*%
%TA.AperFunction,ComponentPad*%
%ADD26C,1.300000*%
%TD*%
%TA.AperFunction,SMDPad,CuDef*%
%ADD27RoundRect,0.250000X0.337500X0.475000X-0.337500X0.475000X-0.337500X-0.475000X0.337500X-0.475000X0*%
%TD*%
%TA.AperFunction,SMDPad,CuDef*%
%ADD28RoundRect,0.250000X-0.337500X-0.475000X0.337500X-0.475000X0.337500X0.475000X-0.337500X0.475000X0*%
%TD*%
%TA.AperFunction,SMDPad,CuDef*%
%ADD29RoundRect,0.237500X0.250000X0.237500X-0.250000X0.237500X-0.250000X-0.237500X0.250000X-0.237500X0*%
%TD*%
%TA.AperFunction,SMDPad,CuDef*%
%ADD30RoundRect,0.237500X-0.250000X-0.237500X0.250000X-0.237500X0.250000X0.237500X-0.250000X0.237500X0*%
%TD*%
%TA.AperFunction,SMDPad,CuDef*%
%ADD31RoundRect,0.237500X-0.300000X-0.237500X0.300000X-0.237500X0.300000X0.237500X-0.300000X0.237500X0*%
%TD*%
%TA.AperFunction,SMDPad,CuDef*%
%ADD32RoundRect,0.237500X-0.237500X0.300000X-0.237500X-0.300000X0.237500X-0.300000X0.237500X0.300000X0*%
%TD*%
%TA.AperFunction,SMDPad,CuDef*%
%ADD33RoundRect,0.237500X-0.237500X0.250000X-0.237500X-0.250000X0.237500X-0.250000X0.237500X0.250000X0*%
%TD*%
%TA.AperFunction,ComponentPad*%
%ADD34R,1.950000X1.950000*%
%TD*%
%TA.AperFunction,ComponentPad*%
%ADD35C,1.950000*%
%TD*%
%TA.AperFunction,SMDPad,CuDef*%
%ADD36RoundRect,0.237500X0.300000X0.237500X-0.300000X0.237500X-0.300000X-0.237500X0.300000X-0.237500X0*%
%TD*%
%TA.AperFunction,SMDPad,CuDef*%
%ADD37RoundRect,0.237500X0.237500X-0.250000X0.237500X0.250000X-0.237500X0.250000X-0.237500X-0.250000X0*%
%TD*%
%TA.AperFunction,SMDPad,CuDef*%
%ADD38RoundRect,0.237500X0.237500X-0.300000X0.237500X0.300000X-0.237500X0.300000X-0.237500X-0.300000X0*%
%TD*%
%TA.AperFunction,SMDPad,CuDef*%
%ADD39R,5.080000X1.270000*%
%TD*%
%TA.AperFunction,SMDPad,CuDef*%
%ADD40C,0.500000*%
%TD*%
%TA.AperFunction,ViaPad*%
%ADD41C,0.600000*%
%TD*%
%TA.AperFunction,Conductor*%
%ADD42C,0.250000*%
%TD*%
%TA.AperFunction,Conductor*%
%ADD43C,0.300000*%
%TD*%
%TA.AperFunction,Conductor*%
%ADD44C,0.500000*%
%TD*%
%TA.AperFunction,Conductor*%
%ADD45C,0.400000*%
%TD*%
G04 APERTURE END LIST*
D10*
%TA.AperFunction,EtchedComponent*%
%TO.C,NT1*%
G36*
X302002000Y-200235000D02*
G01*
X301502000Y-200235000D01*
X301502000Y-198235000D01*
X302002000Y-198235000D01*
X302002000Y-200235000D01*
G37*
%TD.AperFunction*%
%TD*%
D11*
%TO.P,J9,1,Pin_1*%
%TO.N,/AVCC0*%
X270216250Y-200660000D03*
D12*
%TO.P,J9,2,Pin_2*%
%TO.N,/SONAR_TRIG_0*%
X270216250Y-198120000D03*
%TO.P,J9,3,Pin_3*%
%TO.N,/SONAR_ECHO_0*%
X270216250Y-195580000D03*
%TO.P,J9,4,Pin_4*%
%TO.N,GND*%
X270216250Y-193040000D03*
%TD*%
D13*
%TO.P,H4,1,1*%
%TO.N,GND*%
X355950000Y-245760000D03*
%TD*%
D11*
%TO.P,J11,1,Pin_1*%
%TO.N,/AVCC0*%
X261326250Y-200660000D03*
D12*
%TO.P,J11,2,Pin_2*%
%TO.N,/SONAR_TRIG_2*%
X261326250Y-198120000D03*
%TO.P,J11,3,Pin_3*%
%TO.N,/SONAR_ECHO_2*%
X261326250Y-195580000D03*
%TO.P,J11,4,Pin_4*%
%TO.N,GND*%
X261326250Y-193040000D03*
%TD*%
D13*
%TO.P,H3,1,1*%
%TO.N,GND*%
X355950000Y-131365000D03*
%TD*%
D14*
%TO.P,U10,1,GND*%
%TO.N,GND*%
X302895000Y-236830000D03*
%TO.P,U10,2,DQ*%
%TO.N,/TEMP_1WIRE*%
X301625000Y-236830000D03*
%TO.P,U10,3,VDD*%
%TO.N,/AVCC0*%
X300355000Y-236830000D03*
%TD*%
D15*
%TO.P,J5,1,1*%
%TO.N,unconnected-(J5-Pad1)*%
X258151250Y-177960000D03*
D16*
%TO.P,J5,2,2*%
%TO.N,GND*%
X258151250Y-180460000D03*
%TO.P,J5,3,3*%
%TO.N,/LiDAR_RX_PI5_TX*%
X258151250Y-182960000D03*
%TO.P,J5,4,4*%
%TO.N,/LiDAR_TX_PI5_RX*%
X258151250Y-185460000D03*
%TO.P,J5,5,5*%
%TO.N,/PI_5V0*%
X258151250Y-187960000D03*
%TD*%
D11*
%TO.P,J18,1,Pin_1*%
%TO.N,/AVCC0*%
X288250000Y-222095000D03*
D12*
%TO.P,J18,2,Pin_2*%
%TO.N,/EMLE*%
X288250000Y-224635000D03*
%TO.P,J18,3,Pin_3*%
%TO.N,GND*%
X288250000Y-227175000D03*
%TD*%
D11*
%TO.P,J2,1,Pin_1*%
%TO.N,/AVCC0*%
X288250000Y-197330000D03*
D12*
%TO.P,J2,2,Pin_2*%
%TO.N,GND*%
X288250000Y-194790000D03*
%TO.P,J2,3,Pin_3*%
%TO.N,/PI_SCL*%
X288250000Y-192250000D03*
%TO.P,J2,4,Pin_4*%
%TO.N,/PI_SDA*%
X288250000Y-189710000D03*
%TD*%
D17*
%TO.P,J7,A*%
%TO.N,/PACK+*%
X347600000Y-210000000D03*
D18*
%TO.P,J7,B*%
%TO.N,GND*%
X353500000Y-210000000D03*
D19*
%TO.P,J7,C*%
X350400000Y-205300000D03*
%TD*%
D11*
%TO.P,J15,1,Pin_1*%
%TO.N,GND*%
X258818750Y-141605000D03*
D12*
%TO.P,J15,2,Pin_2*%
%TO.N,/AVCC0*%
X258818750Y-144145000D03*
%TO.P,J15,3,Pin_3*%
%TO.N,/MOTOR0_nSLEEP*%
X258818750Y-146685000D03*
%TO.P,J15,4,Pin_4*%
%TO.N,/MOTOR0_DRVOFF*%
X258818750Y-149225000D03*
%TO.P,J15,5,Pin_5*%
%TO.N,/MOTOR0_IN1*%
X258818750Y-151765000D03*
%TO.P,J15,6,Pin_6*%
%TO.N,/MOTOR0_IN2*%
X258818750Y-154305000D03*
%TO.P,J15,7,Pin_7*%
%TO.N,Net-(J15-Pin_7)*%
X258818750Y-156845000D03*
%TO.P,J15,8,Pin_8*%
%TO.N,Net-(J15-Pin_8)*%
X258818750Y-159385000D03*
%TO.P,J15,9,Pin_9*%
%TO.N,Net-(J15-Pin_9)*%
X258818750Y-161925000D03*
%TO.P,J15,10,Pin_10*%
%TO.N,Net-(J15-Pin_10)*%
X258818750Y-164465000D03*
%TO.P,J15,11,Pin_11*%
%TO.N,/PWM_EXT_TRIG0*%
X258818750Y-167005000D03*
%TO.P,J15,12,Pin_12*%
%TO.N,/MOTOR0_ISENSE*%
X258818750Y-169545000D03*
%TD*%
D13*
%TO.P,H2,1,1*%
%TO.N,GND*%
X254555000Y-131365000D03*
%TD*%
D11*
%TO.P,J10,1,Pin_1*%
%TO.N,/AVCC0*%
X265771250Y-200660000D03*
D12*
%TO.P,J10,2,Pin_2*%
%TO.N,/SONAR_TRIG_1*%
X265771250Y-198120000D03*
%TO.P,J10,3,Pin_3*%
%TO.N,/SONAR_ECHO_1*%
X265771250Y-195580000D03*
%TO.P,J10,4,Pin_4*%
%TO.N,GND*%
X265771250Y-193040000D03*
%TD*%
D20*
%TO.P,P3,1,1*%
%TO.N,/ENC2_TCLKA*%
X355600000Y-169900000D03*
D21*
%TO.P,P3,2,2*%
%TO.N,/ENC2_TCLKB*%
X355600000Y-164820000D03*
%TD*%
D11*
%TO.P,J19,1,Pin_1*%
%TO.N,Net-(J19-Pin_1)*%
X292060000Y-222095000D03*
D12*
%TO.P,J19,2,Pin_2*%
%TO.N,/UPSEL*%
X292060000Y-224635000D03*
%TO.P,J19,3,Pin_3*%
%TO.N,GND*%
X292060000Y-227175000D03*
%TD*%
D22*
%TO.P,J20,1,1.1*%
%TO.N,/SWITCH_OUT*%
X344405000Y-183110000D03*
D23*
%TO.P,J20,2,1.2*%
X353105000Y-183110000D03*
%TO.P,J20,3,2.1*%
%TO.N,/FUSE+*%
X344405000Y-178030000D03*
%TO.P,J20,4,2.2*%
X353105000Y-178030000D03*
%TD*%
D20*
%TO.P,P1,1,1*%
%TO.N,/ENC0_MTCLKA*%
X264160000Y-246380000D03*
D21*
%TO.P,P1,2,2*%
%TO.N,/ENC0_MTCLKB*%
X269240000Y-246380000D03*
%TD*%
D11*
%TO.P,J24,1,Pin_1*%
%TO.N,GND*%
X303935000Y-168942500D03*
D12*
%TO.P,J24,2,Pin_2*%
%TO.N,/AVCC0*%
X301395000Y-168942500D03*
%TO.P,J24,3,Pin_3*%
%TO.N,/MOTOR2_nSLEEP*%
X298855000Y-168942500D03*
%TO.P,J24,4,Pin_4*%
%TO.N,/MOTOR2_DRVOFF*%
X296315000Y-168942500D03*
%TO.P,J24,5,Pin_5*%
%TO.N,/MOTOR2_IN1*%
X293775000Y-168942500D03*
%TO.P,J24,6,Pin_6*%
%TO.N,/MOTOR2_IN2*%
X291235000Y-168942500D03*
%TO.P,J24,7,Pin_7*%
%TO.N,Net-(J24-Pin_7)*%
X288695000Y-168942500D03*
%TO.P,J24,8,Pin_8*%
%TO.N,Net-(J24-Pin_8)*%
X286155000Y-168942500D03*
%TO.P,J24,9,Pin_9*%
%TO.N,Net-(J24-Pin_9)*%
X283615000Y-168942500D03*
%TO.P,J24,10,Pin_10*%
%TO.N,Net-(J24-Pin_10)*%
X281075000Y-168942500D03*
%TO.P,J24,11,Pin_11*%
%TO.N,/PWM_EXT_TRIG2*%
X278535000Y-168942500D03*
%TO.P,J24,12,Pin_12*%
%TO.N,/MOTOR2_ISENSE*%
X275995000Y-168942500D03*
%TD*%
D13*
%TO.P,H1,1,1*%
%TO.N,GND*%
X254555000Y-245760000D03*
%TD*%
D24*
%TO.P,Y1,1,1*%
%TO.N,/EXTAL*%
X288290000Y-208180000D03*
%TO.P,Y1,2,2*%
%TO.N,/XTAL*%
X288290000Y-203300000D03*
%TD*%
D20*
%TO.P,P2,1,1*%
%TO.N,/ENC1_MTCLKC*%
X356400000Y-238040000D03*
D21*
%TO.P,P2,2,2*%
%TO.N,/ENC1_MTCLKD*%
X356400000Y-232960000D03*
%TD*%
D22*
%TO.P,J22,1,1.1*%
%TO.N,/PACK+*%
X344405000Y-198350000D03*
D23*
%TO.P,J22,2,1.2*%
X353105000Y-198350000D03*
%TO.P,J22,3,2.1*%
%TO.N,/SWITCH_OUT*%
X344405000Y-193270000D03*
%TO.P,J22,4,2.2*%
X353105000Y-193270000D03*
%TD*%
D25*
%TO.P,SW1,1*%
%TO.N,/FINED*%
X282575000Y-196850000D03*
D26*
%TO.P,SW1,2*%
%TO.N,/UB*%
X282575000Y-194310000D03*
%TO.P,SW1,3*%
%TO.N,/AVCC0*%
X274955000Y-194310000D03*
%TO.P,SW1,4*%
%TO.N,GND*%
X274955000Y-196850000D03*
%TD*%
D11*
%TO.P,J25,1,Pin_1*%
%TO.N,GND*%
X339725000Y-168942500D03*
D12*
%TO.P,J25,2,Pin_2*%
%TO.N,/AVCC0*%
X337185000Y-168942500D03*
%TO.P,J25,3,Pin_3*%
%TO.N,/MOTOR3_nSLEEP*%
X334645000Y-168942500D03*
%TO.P,J25,4,Pin_4*%
%TO.N,/MOTOR3_DRVOFF*%
X332105000Y-168942500D03*
%TO.P,J25,5,Pin_5*%
%TO.N,/MOTOR3_IN1*%
X329565000Y-168942500D03*
%TO.P,J25,6,Pin_6*%
%TO.N,/MOTOR3_IN2*%
X327025000Y-168942500D03*
%TO.P,J25,7,Pin_7*%
%TO.N,Net-(J25-Pin_7)*%
X324485000Y-168942500D03*
%TO.P,J25,8,Pin_8*%
%TO.N,Net-(J25-Pin_8)*%
X321945000Y-168942500D03*
%TO.P,J25,9,Pin_9*%
%TO.N,Net-(J25-Pin_9)*%
X319405000Y-168942500D03*
%TO.P,J25,10,Pin_10*%
%TO.N,Net-(J25-Pin_10)*%
X316865000Y-168942500D03*
%TO.P,J25,11,Pin_11*%
%TO.N,/PWM_EXT_TRIG3*%
X314325000Y-168942500D03*
%TO.P,J25,12,Pin_12*%
%TO.N,/MOTOR3_ISENSE*%
X311785000Y-168942500D03*
%TD*%
D20*
%TO.P,P4,1,1*%
%TO.N,/ENC3_TCLKC*%
X339620000Y-246200000D03*
D21*
%TO.P,P4,2,2*%
%TO.N,/ENC3_TCLKD*%
X344700000Y-246200000D03*
%TD*%
D11*
%TO.P,J12,1,Pin_1*%
%TO.N,/AVCC0*%
X257026250Y-200720000D03*
D12*
%TO.P,J12,2,Pin_2*%
%TO.N,/SONAR_TRIG_3*%
X257026250Y-198180000D03*
%TO.P,J12,3,Pin_3*%
%TO.N,/SONAR_ECHO_3*%
X257026250Y-195640000D03*
%TO.P,J12,4,Pin_4*%
%TO.N,GND*%
X257026250Y-193100000D03*
%TD*%
D11*
%TO.P,J1,1,Pin_1*%
%TO.N,/PI_3V3_SMPS*%
X288290000Y-184785000D03*
D12*
%TO.P,J1,2,Pin_2*%
%TO.N,/PI_5V0*%
X288290000Y-182245000D03*
%TO.P,J1,3,Pin_3*%
%TO.N,/PI_SDA*%
X290830000Y-184785000D03*
%TO.P,J1,4,Pin_4*%
%TO.N,/PI_5V0*%
X290830000Y-182245000D03*
%TO.P,J1,5,Pin_5*%
%TO.N,/PI_SCL*%
X293370000Y-184785000D03*
%TO.P,J1,6,Pin_6*%
%TO.N,GND*%
X293370000Y-182245000D03*
%TO.P,J1,7,Pin_7*%
%TO.N,/HOST_IRQ*%
X295910000Y-184785000D03*
%TO.P,J1,8,Pin_8*%
%TO.N,/LiDAR_RX_PI5_TX*%
X295910000Y-182245000D03*
%TO.P,J1,9,Pin_9*%
%TO.N,GND*%
X298450000Y-184785000D03*
%TO.P,J1,10,Pin_10*%
%TO.N,/LiDAR_TX_PI5_RX*%
X298450000Y-182245000D03*
%TO.P,J1,11,Pin_11*%
%TO.N,unconnected-(J1-Pin_11-Pad11)*%
X300990000Y-184785000D03*
%TO.P,J1,12,Pin_12*%
%TO.N,unconnected-(J1-Pin_12-Pad12)*%
X300990000Y-182245000D03*
%TO.P,J1,13,Pin_13*%
%TO.N,unconnected-(J1-Pin_13-Pad13)*%
X303530000Y-184785000D03*
%TO.P,J1,14,Pin_14*%
%TO.N,GND*%
X303530000Y-182245000D03*
%TO.P,J1,15,Pin_15*%
%TO.N,unconnected-(J1-Pin_15-Pad15)*%
X306070000Y-184785000D03*
%TO.P,J1,16,Pin_16*%
%TO.N,unconnected-(J1-Pin_16-Pad16)*%
X306070000Y-182245000D03*
%TO.P,J1,17,Pin_17*%
%TO.N,/PI_3V3_SMPS*%
X308610000Y-184785000D03*
%TO.P,J1,18,Pin_18*%
%TO.N,unconnected-(J1-Pin_18-Pad18)*%
X308610000Y-182245000D03*
%TO.P,J1,19,Pin_19*%
%TO.N,/HOST_COPI*%
X311150000Y-184785000D03*
%TO.P,J1,20,Pin_20*%
%TO.N,GND*%
X311150000Y-182245000D03*
%TO.P,J1,21,Pin_21*%
%TO.N,/HOST_CIPO*%
X313690000Y-184785000D03*
%TO.P,J1,22,Pin_22*%
%TO.N,/RES#*%
X313690000Y-182245000D03*
%TO.P,J1,23,Pin_23*%
%TO.N,/HOST_CLK*%
X316230000Y-184785000D03*
%TO.P,J1,24,Pin_24*%
%TO.N,/HOST_CS0*%
X316230000Y-182245000D03*
%TO.P,J1,25,Pin_25*%
%TO.N,GND*%
X318770000Y-184785000D03*
%TO.P,J1,26,Pin_26*%
%TO.N,unconnected-(J1-Pin_26-Pad26)*%
X318770000Y-182245000D03*
%TO.P,J1,27,Pin_27*%
%TO.N,unconnected-(J1-Pin_27-Pad27)*%
X321310000Y-184785000D03*
%TO.P,J1,28,Pin_28*%
%TO.N,unconnected-(J1-Pin_28-Pad28)*%
X321310000Y-182245000D03*
%TO.P,J1,29,Pin_29*%
%TO.N,unconnected-(J1-Pin_29-Pad29)*%
X323850000Y-184785000D03*
%TO.P,J1,30,Pin_30*%
%TO.N,GND*%
X323850000Y-182245000D03*
%TO.P,J1,31,Pin_31*%
%TO.N,unconnected-(J1-Pin_31-Pad31)*%
X326390000Y-184785000D03*
%TO.P,J1,32,Pin_32*%
%TO.N,unconnected-(J1-Pin_32-Pad32)*%
X326390000Y-182245000D03*
%TO.P,J1,33,Pin_33*%
%TO.N,unconnected-(J1-Pin_33-Pad33)*%
X328930000Y-184785000D03*
%TO.P,J1,34,Pin_34*%
%TO.N,GND*%
X328930000Y-182245000D03*
%TO.P,J1,35,Pin_35*%
%TO.N,unconnected-(J1-Pin_35-Pad35)*%
X331470000Y-184785000D03*
%TO.P,J1,36,Pin_36*%
%TO.N,unconnected-(J1-Pin_36-Pad36)*%
X331470000Y-182245000D03*
%TO.P,J1,37,Pin_37*%
%TO.N,unconnected-(J1-Pin_37-Pad37)*%
X334010000Y-184785000D03*
%TO.P,J1,38,Pin_38*%
%TO.N,unconnected-(J1-Pin_38-Pad38)*%
X334010000Y-182245000D03*
%TO.P,J1,39,Pin_39*%
%TO.N,GND*%
X336550000Y-184785000D03*
%TO.P,J1,40,Pin_40*%
%TO.N,unconnected-(J1-Pin_40-Pad40)*%
X336550000Y-182245000D03*
%TD*%
D20*
%TO.P,J21,1,1*%
%TO.N,/MOTOR01_VCC*%
X301072500Y-140970000D03*
D21*
%TO.P,J21,2,2*%
X306152500Y-140970000D03*
%TO.P,J21,3,3*%
%TO.N,GND*%
X311232500Y-140970000D03*
%TO.P,J21,4,4*%
X316312500Y-140970000D03*
%TD*%
D27*
%TO.P,C49,1*%
%TO.N,/AVCC0*%
X305597500Y-197530000D03*
%TO.P,C49,2*%
%TO.N,AVSS0-1*%
X303522500Y-197530000D03*
%TD*%
D28*
%TO.P,C74,1*%
%TO.N,/AVCC0*%
X308635000Y-208440000D03*
%TO.P,C74,2*%
%TO.N,GND*%
X310710000Y-208440000D03*
%TD*%
D29*
%TO.P,R19,1*%
%TO.N,Net-(U4-DCD#)*%
X307975000Y-231775000D03*
%TO.P,R19,2*%
%TO.N,/AVCC0*%
X306150000Y-231775000D03*
%TD*%
D28*
%TO.P,C26,1*%
%TO.N,/AVCC0*%
X308610000Y-203040000D03*
%TO.P,C26,2*%
%TO.N,GND*%
X310685000Y-203040000D03*
%TD*%
D30*
%TO.P,R14,1*%
%TO.N,/AVCC0*%
X273661000Y-225443000D03*
%TO.P,R14,2*%
%TO.N,/EMU_TDO*%
X275486000Y-225443000D03*
%TD*%
D29*
%TO.P,R35,1*%
%TO.N,/RES#*%
X275474000Y-210308000D03*
%TO.P,R35,2*%
%TO.N,GND*%
X273649000Y-210308000D03*
%TD*%
D31*
%TO.P,C69,1*%
%TO.N,/AVCC0*%
X290375000Y-190605000D03*
%TO.P,C69,2*%
%TO.N,AVSS0-1*%
X292100000Y-190605000D03*
%TD*%
D32*
%TO.P,C94,1*%
%TO.N,/AVCC0*%
X302260000Y-189637500D03*
%TO.P,C94,2*%
%TO.N,VREFL0*%
X302260000Y-191362500D03*
%TD*%
D11*
%TO.P,J17,1,Pin_1*%
%TO.N,GND*%
X291827750Y-175260000D03*
D12*
%TO.P,J17,2,Pin_2*%
%TO.N,/AVCC0*%
X289287750Y-175260000D03*
%TO.P,J17,3,Pin_3*%
%TO.N,/MOTOR1_nSLEEP*%
X286747750Y-175260000D03*
%TO.P,J17,4,Pin_4*%
%TO.N,/MOTOR1_DRVOFF*%
X284207750Y-175260000D03*
%TO.P,J17,5,Pin_5*%
%TO.N,/MOTOR1_IN1*%
X281667750Y-175260000D03*
%TO.P,J17,6,Pin_6*%
%TO.N,/MOTOR1_IN2*%
X279127750Y-175260000D03*
%TO.P,J17,7,Pin_7*%
%TO.N,Net-(J17-Pin_7)*%
X276587750Y-175260000D03*
%TO.P,J17,8,Pin_8*%
%TO.N,Net-(J17-Pin_8)*%
X274047750Y-175260000D03*
%TO.P,J17,9,Pin_9*%
%TO.N,Net-(J17-Pin_9)*%
X271507750Y-175260000D03*
%TO.P,J17,10,Pin_10*%
%TO.N,Net-(J17-Pin_10)*%
X268967750Y-175260000D03*
%TO.P,J17,11,Pin_11*%
%TO.N,/PWM_EXT_TRIG1*%
X266427750Y-175260000D03*
%TO.P,J17,12,Pin_12*%
%TO.N,/MOTOR1_ISENSE*%
X263887750Y-175260000D03*
%TD*%
D28*
%TO.P,C78,1*%
%TO.N,/AVCC0*%
X308572500Y-211140000D03*
%TO.P,C78,2*%
%TO.N,GND*%
X310647500Y-211140000D03*
%TD*%
D32*
%TO.P,C111,1*%
%TO.N,/MOTOR1_ISENSE*%
X261347750Y-178597500D03*
%TO.P,C111,2*%
%TO.N,GND*%
X261347750Y-180322500D03*
%TD*%
D33*
%TO.P,R64,1*%
%TO.N,/MOTOR1_DRVOFF*%
X283210000Y-178547500D03*
%TO.P,R64,2*%
%TO.N,GND*%
X283210000Y-180372500D03*
%TD*%
D29*
%TO.P,R71,1*%
%TO.N,/AVCC0*%
X285075000Y-221460000D03*
%TO.P,R71,2*%
%TO.N,Net-(J3-Pin_3)*%
X283250000Y-221460000D03*
%TD*%
D32*
%TO.P,C97,1*%
%TO.N,/AVCC0*%
X299760000Y-189637500D03*
%TO.P,C97,2*%
%TO.N,VREFL0*%
X299760000Y-191362500D03*
%TD*%
D28*
%TO.P,C67,1*%
%TO.N,GND*%
X303522500Y-211240000D03*
%TO.P,C67,2*%
%TO.N,/AVCC0*%
X305597500Y-211240000D03*
%TD*%
D31*
%TO.P,C81,1*%
%TO.N,/AVCC0*%
X290375000Y-193145000D03*
%TO.P,C81,2*%
%TO.N,AVSS0-1*%
X292100000Y-193145000D03*
%TD*%
D34*
%TO.P,PS2,1,+VIN*%
%TO.N,/FUSE+*%
X340320000Y-135712500D03*
D35*
%TO.P,PS2,2,-VIN*%
%TO.N,GND*%
X335240000Y-135712500D03*
%TO.P,PS2,3,+VOUT*%
%TO.N,/MOTOR23_VCC*%
X347980000Y-156032500D03*
%TO.P,PS2,4,TRIM*%
%TO.N,Net-(PS2-TRIM)*%
X337820000Y-156032500D03*
%TO.P,PS2,5,-VOUT*%
%TO.N,GND*%
X327660000Y-156032500D03*
%TO.P,PS2,6,RC*%
%TO.N,unconnected-(PS2-RC-Pad6)*%
X327620000Y-135712500D03*
%TD*%
D30*
%TO.P,R15,1*%
%TO.N,/AVCC0*%
X273661000Y-230523000D03*
%TO.P,R15,2*%
%TO.N,/EMU_TCK*%
X275486000Y-230523000D03*
%TD*%
D34*
%TO.P,PS3,1,+VIN*%
%TO.N,/FUSE+*%
X337460000Y-219035000D03*
D35*
%TO.P,PS3,2,-VIN*%
%TO.N,GND*%
X332380000Y-219035000D03*
%TO.P,PS3,3,+VOUT*%
%TO.N,Net-(PS3-+VOUT)*%
X345120000Y-239355000D03*
%TO.P,PS3,4,TRIM*%
%TO.N,Net-(PS3-TRIM)*%
X334960000Y-239355000D03*
%TO.P,PS3,5,-VOUT*%
%TO.N,GND*%
X324800000Y-239355000D03*
%TO.P,PS3,6,RC*%
%TO.N,unconnected-(PS3-RC-Pad6)*%
X324760000Y-219035000D03*
%TD*%
D30*
%TO.P,R70,1*%
%TO.N,/AVCC0*%
X291147500Y-215110000D03*
%TO.P,R70,2*%
%TO.N,/IMU_SCL*%
X292972500Y-215110000D03*
%TD*%
D31*
%TO.P,C84,1*%
%TO.N,/AVCC0*%
X298522500Y-201740000D03*
%TO.P,C84,2*%
%TO.N,GND*%
X300247500Y-201740000D03*
%TD*%
D29*
%TO.P,R20,1*%
%TO.N,Net-(U4-CTS#)*%
X307975000Y-234315000D03*
%TO.P,R20,2*%
%TO.N,/AVCC0*%
X306150000Y-234315000D03*
%TD*%
D33*
%TO.P,R80,1*%
%TO.N,/MOTOR1_ISENSE*%
X263887750Y-178547500D03*
%TO.P,R80,2*%
%TO.N,GND*%
X263887750Y-180372500D03*
%TD*%
D28*
%TO.P,C64,1*%
%TO.N,/AVCC0*%
X308610000Y-205740000D03*
%TO.P,C64,2*%
%TO.N,GND*%
X310685000Y-205740000D03*
%TD*%
D36*
%TO.P,C65,1*%
%TO.N,/AVCC0*%
X314985000Y-213940000D03*
%TO.P,C65,2*%
%TO.N,GND*%
X313260000Y-213940000D03*
%TD*%
D30*
%TO.P,R69,1*%
%TO.N,/AVCC0*%
X295592500Y-219555000D03*
%TO.P,R69,2*%
%TO.N,/IMU_SDA*%
X297417500Y-219555000D03*
%TD*%
D29*
%TO.P,R38,1*%
%TO.N,/UB*%
X275486000Y-220363000D03*
%TO.P,R38,2*%
%TO.N,GND*%
X273661000Y-220363000D03*
%TD*%
D31*
%TO.P,C55,1*%
%TO.N,/AVCC0*%
X310247500Y-219555000D03*
%TO.P,C55,2*%
%TO.N,GND*%
X311972500Y-219555000D03*
%TD*%
D11*
%TO.P,J3,1,Pin_1*%
%TO.N,/AVCC0*%
X279995000Y-226540000D03*
D12*
%TO.P,J3,2,Pin_2*%
%TO.N,GND*%
X279995000Y-224000000D03*
%TO.P,J3,3,Pin_3*%
%TO.N,Net-(J3-Pin_3)*%
X279995000Y-221460000D03*
%TO.P,J3,4,Pin_4*%
%TO.N,/IMU_RST*%
X279995000Y-218920000D03*
%TO.P,J3,5,Pin_5*%
%TO.N,/IMU_INT*%
X279995000Y-216380000D03*
%TO.P,J3,6,Pin_6*%
%TO.N,GND*%
X279995000Y-213840000D03*
%TO.P,J3,7,Pin_7*%
X279995000Y-211300000D03*
%TO.P,J3,8,Pin_8*%
X279995000Y-208760000D03*
%TO.P,J3,9,Pin_9*%
%TO.N,unconnected-(J3-Pin_9-Pad9)*%
X279995000Y-206220000D03*
%TD*%
D31*
%TO.P,C80,1*%
%TO.N,/AVCC0*%
X321792500Y-199160000D03*
%TO.P,C80,2*%
%TO.N,GND*%
X323517500Y-199160000D03*
%TD*%
D34*
%TO.P,PS1,1,+VIN*%
%TO.N,/FUSE+*%
X282535000Y-138390000D03*
D35*
%TO.P,PS1,2,-VIN*%
%TO.N,GND*%
X277455000Y-138390000D03*
%TO.P,PS1,3,+VOUT*%
%TO.N,/MOTOR01_VCC*%
X290195000Y-158710000D03*
%TO.P,PS1,4,TRIM*%
%TO.N,Net-(PS1-TRIM)*%
X280035000Y-158710000D03*
%TO.P,PS1,5,-VOUT*%
%TO.N,GND*%
X269875000Y-158710000D03*
%TO.P,PS1,6,RC*%
%TO.N,unconnected-(PS1-RC-Pad6)*%
X269835000Y-138390000D03*
%TD*%
D37*
%TO.P,R82,1*%
%TO.N,GND*%
X274047750Y-180372500D03*
%TO.P,R82,2*%
%TO.N,Net-(J17-Pin_8)*%
X274047750Y-178547500D03*
%TD*%
D32*
%TO.P,C57,1*%
%TO.N,/AVCC0*%
X295910000Y-192812500D03*
%TO.P,C57,2*%
%TO.N,AVSS0-1*%
X295910000Y-194537500D03*
%TD*%
D36*
%TO.P,C90,1*%
%TO.N,/AVCC0*%
X315022500Y-203940000D03*
%TO.P,C90,2*%
%TO.N,GND*%
X313297500Y-203940000D03*
%TD*%
%TO.P,C92,1*%
%TO.N,/AVCC0*%
X315022500Y-205940000D03*
%TO.P,C92,2*%
%TO.N,GND*%
X313297500Y-205940000D03*
%TD*%
D28*
%TO.P,C58,1*%
%TO.N,/AVCC0*%
X308610000Y-200340000D03*
%TO.P,C58,2*%
%TO.N,GND*%
X310685000Y-200340000D03*
%TD*%
D38*
%TO.P,C88,1*%
%TO.N,/AVCC0*%
X304760000Y-191362500D03*
%TO.P,C88,2*%
%TO.N,GND*%
X304760000Y-189637500D03*
%TD*%
D30*
%TO.P,R37,1*%
%TO.N,/AVCC0*%
X273661000Y-222903000D03*
%TO.P,R37,2*%
%TO.N,/FINED*%
X275486000Y-222903000D03*
%TD*%
D31*
%TO.P,C85,1*%
%TO.N,GND*%
X290375000Y-203200000D03*
%TO.P,C85,2*%
%TO.N,/VCL*%
X292100000Y-203200000D03*
%TD*%
%TO.P,C60,1*%
%TO.N,/AVCC0*%
X298460000Y-211740000D03*
%TO.P,C60,2*%
%TO.N,GND*%
X300185000Y-211740000D03*
%TD*%
%TO.P,C79,1*%
%TO.N,/AVCC0*%
X321817500Y-205160000D03*
%TO.P,C79,2*%
%TO.N,GND*%
X323542500Y-205160000D03*
%TD*%
D11*
%TO.P,J4,1,Pin_1*%
%TO.N,/AVCC0*%
X258405000Y-237140000D03*
D12*
%TO.P,J4,2,Pin_2*%
%TO.N,GND*%
X260945000Y-237140000D03*
%TO.P,J4,3,Pin_3*%
%TO.N,/IMU_SCL*%
X263485000Y-237140000D03*
%TO.P,J4,4,Pin_4*%
%TO.N,/IMU_SDA*%
X266025000Y-237140000D03*
%TD*%
D28*
%TO.P,C54,1*%
%TO.N,/AVCC0*%
X308610000Y-197530000D03*
%TO.P,C54,2*%
%TO.N,GND*%
X310685000Y-197530000D03*
%TD*%
D29*
%TO.P,R21,1*%
%TO.N,Net-(U4-GPIO2)*%
X307975000Y-236855000D03*
%TO.P,R21,2*%
%TO.N,GND*%
X306150000Y-236855000D03*
%TD*%
D39*
%TO.P,J13,1,TCK/FINEC*%
%TO.N,/EMU_TCK*%
X258398500Y-225125000D03*
%TO.P,J13,2,VSS*%
%TO.N,GND*%
X265256500Y-225125000D03*
%TO.P,J13,3,TMS*%
%TO.N,/EMU_TRST#*%
X258398500Y-222585000D03*
%TO.P,J13,4,EMLE*%
%TO.N,/EMLE*%
X265256500Y-222585000D03*
%TO.P,J13,5,TDO*%
%TO.N,/EMU_TDO*%
X258398500Y-220045000D03*
%TO.P,J13,6,NC*%
%TO.N,unconnected-(J13-NC-Pad6)*%
X265256500Y-220045000D03*
%TO.P,J13,7,MD/FINED*%
%TO.N,/FINED*%
X258398500Y-217505000D03*
%TO.P,J13,8,VCC*%
%TO.N,/AVCC0*%
X265256500Y-217505000D03*
%TO.P,J13,9,TMS*%
%TO.N,/EMU_TMS*%
X258398500Y-214965000D03*
%TO.P,J13,10,UB*%
%TO.N,/UB*%
X265256500Y-214965000D03*
%TO.P,J13,11,TDI*%
%TO.N,/EMU_TDI*%
X258398500Y-212425000D03*
%TO.P,J13,12,VSS*%
%TO.N,GND*%
X265256500Y-212425000D03*
%TO.P,J13,13,RESn*%
%TO.N,/RES#*%
X258398500Y-209885000D03*
%TO.P,J13,14,VSS*%
%TO.N,GND*%
X265256500Y-209885000D03*
%TD*%
D27*
%TO.P,C70,1*%
%TO.N,/AVCC0*%
X305610000Y-208440000D03*
%TO.P,C70,2*%
%TO.N,GND*%
X303535000Y-208440000D03*
%TD*%
D40*
%TO.P,NT1,1,1*%
%TO.N,AVSS0-1*%
X301752000Y-198235000D03*
%TO.P,NT1,2,2*%
%TO.N,VREFL0*%
X301752000Y-199235000D03*
%TO.P,NT1,3,3*%
%TO.N,GND*%
X301752000Y-200235000D03*
%TD*%
D31*
%TO.P,C86,1*%
%TO.N,/AVCC0*%
X290375000Y-198225000D03*
%TO.P,C86,2*%
%TO.N,AVSS0-1*%
X292100000Y-198225000D03*
%TD*%
D30*
%TO.P,R49,1*%
%TO.N,/AVCC0*%
X273661000Y-212743000D03*
%TO.P,R49,2*%
%TO.N,/RES#*%
X275486000Y-212743000D03*
%TD*%
D31*
%TO.P,C75,1*%
%TO.N,/AVCC0*%
X298560000Y-197740000D03*
%TO.P,C75,2*%
%TO.N,GND*%
X300285000Y-197740000D03*
%TD*%
%TO.P,C9,1*%
%TO.N,/AVCC0*%
X298522500Y-207740000D03*
%TO.P,C9,2*%
%TO.N,GND*%
X300247500Y-207740000D03*
%TD*%
D29*
%TO.P,R16,1*%
%TO.N,/EMU_TRST#*%
X275498500Y-227983000D03*
%TO.P,R16,2*%
%TO.N,GND*%
X273673500Y-227983000D03*
%TD*%
D36*
%TO.P,C71,1*%
%TO.N,/AVCC0*%
X315022500Y-199940000D03*
%TO.P,C71,2*%
%TO.N,GND*%
X313297500Y-199940000D03*
%TD*%
D31*
%TO.P,C72,1*%
%TO.N,/AVCC0*%
X298522500Y-199740000D03*
%TO.P,C72,2*%
%TO.N,GND*%
X300247500Y-199740000D03*
%TD*%
D28*
%TO.P,C25,1*%
%TO.N,/AVCC0*%
X308535000Y-213940000D03*
%TO.P,C25,2*%
%TO.N,GND*%
X310610000Y-213940000D03*
%TD*%
D37*
%TO.P,R84,1*%
%TO.N,GND*%
X268967750Y-180372500D03*
%TO.P,R84,2*%
%TO.N,Net-(J17-Pin_10)*%
X268967750Y-178547500D03*
%TD*%
D31*
%TO.P,C5,1*%
%TO.N,/AVCC0*%
X298460000Y-209740000D03*
%TO.P,C5,2*%
%TO.N,GND*%
X300185000Y-209740000D03*
%TD*%
%TO.P,C73,1*%
%TO.N,/AVCC0*%
X290375000Y-200660000D03*
%TO.P,C73,2*%
%TO.N,AVSS0-1*%
X292100000Y-200660000D03*
%TD*%
D20*
%TO.P,J23,1,1*%
%TO.N,/MOTOR23_VCC*%
X314967500Y-155852500D03*
D21*
%TO.P,J23,2,2*%
X309887500Y-155852500D03*
%TO.P,J23,3,3*%
%TO.N,GND*%
X304807500Y-155852500D03*
%TO.P,J23,4,4*%
X299727500Y-155852500D03*
%TD*%
D29*
%TO.P,R17,1*%
%TO.N,Net-(U4-RI#)*%
X307830000Y-221900000D03*
%TO.P,R17,2*%
%TO.N,/AVCC0*%
X306005000Y-221900000D03*
%TD*%
D38*
%TO.P,C68,1*%
%TO.N,GND*%
X300950000Y-221207500D03*
%TO.P,C68,2*%
%TO.N,/AVCC0*%
X300950000Y-219482500D03*
%TD*%
D31*
%TO.P,C83,1*%
%TO.N,/AVCC0*%
X298522500Y-203740000D03*
%TO.P,C83,2*%
%TO.N,GND*%
X300247500Y-203740000D03*
%TD*%
D29*
%TO.P,R13,1*%
%TO.N,Net-(U4-GPIO5)*%
X307975000Y-224155000D03*
%TO.P,R13,2*%
%TO.N,GND*%
X306150000Y-224155000D03*
%TD*%
D36*
%TO.P,C66,1*%
%TO.N,/AVCC0*%
X315022500Y-211940000D03*
%TO.P,C66,2*%
%TO.N,GND*%
X313297500Y-211940000D03*
%TD*%
%TO.P,C34,1*%
%TO.N,/AVCC0*%
X292100000Y-208280000D03*
%TO.P,C34,2*%
%TO.N,GND*%
X290375000Y-208280000D03*
%TD*%
D27*
%TO.P,C82,1*%
%TO.N,/AVCC0*%
X305560000Y-213940000D03*
%TO.P,C82,2*%
%TO.N,GND*%
X303485000Y-213940000D03*
%TD*%
D37*
%TO.P,R83,1*%
%TO.N,GND*%
X271507750Y-180372500D03*
%TO.P,R83,2*%
%TO.N,Net-(J17-Pin_9)*%
X271507750Y-178547500D03*
%TD*%
D27*
%TO.P,C63,1*%
%TO.N,/AVCC0*%
X305610000Y-202610000D03*
%TO.P,C63,2*%
%TO.N,AVSS0-1*%
X303535000Y-202610000D03*
%TD*%
D31*
%TO.P,C76,1*%
%TO.N,/AVCC0*%
X321717500Y-213360000D03*
%TO.P,C76,2*%
%TO.N,GND*%
X323442500Y-213360000D03*
%TD*%
D29*
%TO.P,R12,1*%
%TO.N,Net-(U4-GPIO5)*%
X307975000Y-226695000D03*
%TO.P,R12,2*%
%TO.N,/SCI_USBC_5V0*%
X306150000Y-226695000D03*
%TD*%
%TO.P,R63,1*%
%TO.N,Net-(U11-XCIN)*%
X292150000Y-205740000D03*
%TO.P,R63,2*%
%TO.N,GND*%
X290325000Y-205740000D03*
%TD*%
D37*
%TO.P,R65,1*%
%TO.N,/AVCC0*%
X266065000Y-180372500D03*
%TO.P,R65,2*%
%TO.N,/PWM_EXT_TRIG1*%
X266065000Y-178547500D03*
%TD*%
D30*
%TO.P,R11,1*%
%TO.N,/AVCC0*%
X273636000Y-217823000D03*
%TO.P,R11,2*%
%TO.N,/EMU_TMS*%
X275461000Y-217823000D03*
%TD*%
D27*
%TO.P,C91,1*%
%TO.N,/AVCC0*%
X305610000Y-205585000D03*
%TO.P,C91,2*%
%TO.N,VREFL0*%
X303535000Y-205585000D03*
%TD*%
D29*
%TO.P,R47,1*%
%TO.N,/AVCC0*%
X293885000Y-218920000D03*
%TO.P,R47,2*%
%TO.N,Net-(J19-Pin_1)*%
X292060000Y-218920000D03*
%TD*%
D30*
%TO.P,R10,1*%
%TO.N,/AVCC0*%
X273636000Y-215283000D03*
%TO.P,R10,2*%
%TO.N,/EMU_TDI*%
X275461000Y-215283000D03*
%TD*%
D29*
%TO.P,R18,1*%
%TO.N,Net-(U4-DSR#)*%
X307975000Y-229235000D03*
%TO.P,R18,2*%
%TO.N,/AVCC0*%
X306150000Y-229235000D03*
%TD*%
D36*
%TO.P,C95,1*%
%TO.N,/AVCC0*%
X315022500Y-207940000D03*
%TO.P,C95,2*%
%TO.N,GND*%
X313297500Y-207940000D03*
%TD*%
%TO.P,C87,1*%
%TO.N,/AVCC0*%
X315085000Y-197940000D03*
%TO.P,C87,2*%
%TO.N,GND*%
X313360000Y-197940000D03*
%TD*%
%TO.P,C96,1*%
%TO.N,/AVCC0*%
X315022500Y-209940000D03*
%TO.P,C96,2*%
%TO.N,GND*%
X313297500Y-209940000D03*
%TD*%
D31*
%TO.P,C56,1*%
%TO.N,/AVCC0*%
X298485000Y-205740000D03*
%TO.P,C56,2*%
%TO.N,GND*%
X300210000Y-205740000D03*
%TD*%
D37*
%TO.P,R81,1*%
%TO.N,GND*%
X276587750Y-180372500D03*
%TO.P,R81,2*%
%TO.N,Net-(J17-Pin_7)*%
X276587750Y-178547500D03*
%TD*%
D38*
%TO.P,C89,1*%
%TO.N,/AVCC0*%
X310760000Y-191362500D03*
%TO.P,C89,2*%
%TO.N,GND*%
X310760000Y-189637500D03*
%TD*%
D31*
%TO.P,C59,1*%
%TO.N,/AVCC0*%
X298460000Y-213740000D03*
%TO.P,C59,2*%
%TO.N,GND*%
X300185000Y-213740000D03*
%TD*%
D36*
%TO.P,C93,1*%
%TO.N,/AVCC0*%
X315022500Y-201940000D03*
%TO.P,C93,2*%
%TO.N,GND*%
X313297500Y-201940000D03*
%TD*%
D37*
%TO.P,R66,1*%
%TO.N,/AVCC0*%
X285750000Y-180372500D03*
%TO.P,R66,2*%
%TO.N,/MOTOR1_nSLEEP*%
X285750000Y-178547500D03*
%TD*%
D27*
%TO.P,C77,1*%
%TO.N,/AVCC0*%
X305610000Y-200065000D03*
%TO.P,C77,2*%
%TO.N,AVSS0-1*%
X303535000Y-200065000D03*
%TD*%
D41*
%TO.N,GND*%
X328930000Y-139700000D03*
X360045000Y-222250000D03*
X271780000Y-150495000D03*
X266700000Y-147967500D03*
X349250000Y-227330000D03*
X326390000Y-144767500D03*
X276860000Y-162560000D03*
X279400000Y-128917500D03*
X284480000Y-131457500D03*
X276860000Y-133985000D03*
X283845000Y-244475000D03*
X304800000Y-248920000D03*
X276225000Y-182245000D03*
X313055000Y-144780000D03*
X326390000Y-137147500D03*
X315647500Y-212854563D03*
X275590000Y-249555000D03*
X333997500Y-147320000D03*
X312420000Y-249555000D03*
X331470000Y-137147500D03*
X269240000Y-131445000D03*
X262255000Y-160655000D03*
X269240000Y-153035000D03*
X304812500Y-133985000D03*
X266700000Y-128917500D03*
X289560000Y-208915000D03*
X310515000Y-163195000D03*
X346710000Y-227330000D03*
X300355000Y-202565000D03*
X297180000Y-133985000D03*
X294640000Y-249555000D03*
X317500000Y-229870000D03*
X311785000Y-198755000D03*
X352425000Y-227330000D03*
X326390000Y-142227500D03*
X328930000Y-144780000D03*
X267335000Y-160655000D03*
X281940000Y-133985000D03*
X253365000Y-151765000D03*
X281305000Y-249555000D03*
X333997500Y-137160000D03*
X264795000Y-163207500D03*
X267335000Y-165735000D03*
X323850000Y-206375000D03*
X289572500Y-133972500D03*
X323215000Y-144767500D03*
X328930000Y-147332500D03*
X264160000Y-140335000D03*
X326390000Y-163830000D03*
X314325000Y-249555000D03*
X300990000Y-151765000D03*
X302272500Y-131432500D03*
X307352500Y-131432500D03*
X286385000Y-231140000D03*
X274320000Y-131457500D03*
X315595000Y-196850000D03*
X264160000Y-150495000D03*
X334010000Y-144780000D03*
X290830000Y-249555000D03*
X272415000Y-220345000D03*
X311150000Y-237490000D03*
X318135000Y-144767500D03*
X266700000Y-150507500D03*
X299720000Y-133985000D03*
X281305000Y-200660000D03*
X302895000Y-247015000D03*
X298990501Y-196471261D03*
X277495000Y-249555000D03*
X325120000Y-212725000D03*
X271767500Y-128917500D03*
X279400000Y-249555000D03*
X328930000Y-153047500D03*
X331470000Y-139687500D03*
X311785000Y-187960000D03*
X287007500Y-128917500D03*
X266700000Y-140347500D03*
X269240000Y-142875000D03*
X271780000Y-131457500D03*
X335915000Y-226695000D03*
X297180000Y-128905000D03*
X336550000Y-144780000D03*
X324485000Y-249555000D03*
X266700000Y-142887500D03*
X266700000Y-153047500D03*
X254635000Y-165735000D03*
X320675000Y-144780000D03*
X302272500Y-128892500D03*
X305435000Y-187960000D03*
X337820000Y-231140000D03*
X300990000Y-247015000D03*
X311785000Y-204470000D03*
X328295000Y-249555000D03*
X312420000Y-128905000D03*
X310515000Y-147307500D03*
X266700000Y-155587500D03*
X334010000Y-139700000D03*
X289572500Y-128892500D03*
X264160000Y-133985000D03*
X292112500Y-131445000D03*
X322580000Y-249555000D03*
X302272500Y-133972500D03*
X331470000Y-147320000D03*
X269240000Y-150495000D03*
X318135000Y-147307500D03*
X266700000Y-133997500D03*
X298450000Y-148577500D03*
X271780000Y-142875000D03*
X269240000Y-147955000D03*
X312432500Y-131445000D03*
X269240000Y-128905000D03*
X284467500Y-133997500D03*
X301625000Y-207645000D03*
X336537500Y-142240000D03*
X316230000Y-249555000D03*
X297180000Y-237490000D03*
X301625000Y-213360000D03*
X337820000Y-233045000D03*
X289572500Y-131432500D03*
X333997500Y-142240000D03*
X281940000Y-244475000D03*
X287655000Y-206375000D03*
X262255000Y-163195000D03*
X298960558Y-219585558D03*
X311785000Y-201295000D03*
X269240000Y-155575000D03*
X264160000Y-147955000D03*
X255905000Y-153670000D03*
X264160000Y-145415000D03*
X281305000Y-239395000D03*
X269240000Y-133985000D03*
X299720000Y-128905000D03*
X360045000Y-220345000D03*
X302895000Y-248920000D03*
X310515000Y-144767500D03*
X312420000Y-133985000D03*
X286385000Y-242570000D03*
X304812500Y-131445000D03*
X360045000Y-224155000D03*
X326390000Y-150495000D03*
X308610000Y-148577500D03*
X337820000Y-221615000D03*
X320675000Y-147320000D03*
X262255000Y-165735000D03*
X274307500Y-133997500D03*
X298450000Y-151752500D03*
X326390000Y-147320000D03*
X306705000Y-247015000D03*
X336550000Y-139700000D03*
X336537500Y-147320000D03*
X300990000Y-148590000D03*
X269240000Y-140335000D03*
X315595000Y-144767500D03*
X264160000Y-128905000D03*
X271792500Y-145415000D03*
X284467500Y-128917500D03*
X271780000Y-147955000D03*
X313055000Y-147320000D03*
X297192500Y-131445000D03*
X253365000Y-174625000D03*
X335915000Y-224155000D03*
X304800000Y-247015000D03*
X314960000Y-229870000D03*
X294652500Y-133972500D03*
X328930000Y-150507500D03*
X336550000Y-213360000D03*
X331470000Y-142227500D03*
X323850000Y-197485000D03*
X336537500Y-137160000D03*
X331470000Y-150495000D03*
X337820000Y-235585000D03*
X287020000Y-131457500D03*
X303530000Y-151752500D03*
X326390000Y-139687500D03*
X287655000Y-237490000D03*
X337820000Y-224155000D03*
X292112500Y-128905000D03*
X300990000Y-248920000D03*
X306705000Y-248920000D03*
X266700000Y-131457500D03*
X337820000Y-226695000D03*
X344805000Y-232410000D03*
X309880000Y-128905000D03*
X270510000Y-182245000D03*
X335915000Y-221615000D03*
X331470000Y-227965000D03*
X279400000Y-131457500D03*
X276860000Y-128905000D03*
X301625000Y-211455000D03*
X288750558Y-204644442D03*
X299732500Y-131445000D03*
X279400000Y-133997500D03*
X269240000Y-145415000D03*
X264160000Y-153035000D03*
X287007500Y-133997500D03*
X270510000Y-210820000D03*
X271780000Y-233680000D03*
X294652500Y-131432500D03*
X271792500Y-153035000D03*
X271780000Y-155575000D03*
X311785000Y-205740000D03*
X328930000Y-142240000D03*
X253365000Y-153670000D03*
X281940000Y-128905000D03*
X255905000Y-151765000D03*
X304812500Y-128905000D03*
X330200000Y-163830000D03*
X320675000Y-237490000D03*
X318135000Y-249555000D03*
X311150000Y-212725000D03*
X331470000Y-144767500D03*
X323215000Y-147307500D03*
X326390000Y-153035000D03*
X307352500Y-128892500D03*
X307352500Y-133972500D03*
X294640000Y-163195000D03*
X264160000Y-131445000D03*
X316453947Y-221838947D03*
X264160000Y-155575000D03*
X290830000Y-163195000D03*
X340995000Y-241300000D03*
X307212735Y-219021304D03*
X328930000Y-137160000D03*
X283210000Y-182245000D03*
X265430000Y-226695000D03*
X274307500Y-128917500D03*
X360045000Y-226060000D03*
X332066145Y-241973855D03*
X301625000Y-209550000D03*
X266700000Y-145427500D03*
X305660000Y-223040000D03*
X331470000Y-153035000D03*
X292735000Y-249555000D03*
X292112500Y-133985000D03*
X322580000Y-218440000D03*
X288925000Y-249555000D03*
X309892500Y-131445000D03*
X347345000Y-220980000D03*
X264160000Y-142875000D03*
X276860000Y-131445000D03*
X326390000Y-249555000D03*
X272415000Y-227965000D03*
X294652500Y-128892500D03*
X309880000Y-133985000D03*
X317500000Y-231775000D03*
X303530000Y-148577500D03*
X264795000Y-165747500D03*
X271767500Y-133997500D03*
X281940000Y-131445000D03*
X315595000Y-147307500D03*
%TO.N,/AVCC0*%
X304910000Y-223750000D03*
X304800000Y-229235000D03*
X272415000Y-222199000D03*
X325755000Y-220980000D03*
X307340000Y-207645000D03*
X325161941Y-213566944D03*
X262255000Y-216535000D03*
X310515000Y-193040000D03*
X319405000Y-213995000D03*
X304800000Y-231775000D03*
X271780000Y-230505000D03*
X304165000Y-193040000D03*
X273050000Y-214178000D03*
X294552394Y-222411279D03*
X330200000Y-212725000D03*
X304800000Y-234315000D03*
X307340000Y-205105000D03*
X307340000Y-200660000D03*
X272415000Y-217805000D03*
X271780000Y-212725000D03*
X301625000Y-163195000D03*
X298196000Y-196342000D03*
X298450000Y-193040000D03*
X295359000Y-191770000D03*
X321310000Y-198120000D03*
X307340000Y-210185000D03*
X298450000Y-204470000D03*
X297815000Y-198755000D03*
X337185000Y-164465000D03*
X285750000Y-223520000D03*
X315595000Y-198755000D03*
X252730000Y-179705000D03*
X319833056Y-205698059D03*
X310515000Y-226695000D03*
X287655000Y-179070000D03*
X313055000Y-163830000D03*
X297815000Y-208280000D03*
X307340000Y-212725000D03*
X272415000Y-225425000D03*
X289560000Y-207010000D03*
X307340000Y-203200000D03*
X290830000Y-191625000D03*
X311785000Y-214630000D03*
X322580000Y-220980000D03*
X278130000Y-162560000D03*
X301934831Y-221504747D03*
%TO.N,/SCI_USBC_5V0*%
X328930000Y-233045000D03*
X332105000Y-237490000D03*
X316230000Y-230505000D03*
%TO.N,Net-(D5-K)*%
X283210000Y-239395000D03*
X325120000Y-235640000D03*
%TO.N,/PI_3V3_SMPS*%
X331340000Y-213730000D03*
X329214443Y-213605559D03*
%TO.N,Net-(Q5-S)*%
X342900000Y-229235000D03*
X344170000Y-221615000D03*
X346075000Y-220345000D03*
X346075000Y-218440000D03*
X342900000Y-226695000D03*
X341630000Y-231775000D03*
X345440000Y-221615000D03*
X342900000Y-224155000D03*
X346075000Y-217170000D03*
X342900000Y-221615000D03*
X342900000Y-231775000D03*
%TO.N,AVSS0-1*%
X292100000Y-198225000D03*
X301626000Y-206248000D03*
X295910000Y-195580000D03*
%TO.N,VREFL0*%
X300350000Y-196289502D03*
X299720000Y-192405000D03*
%TO.N,/VCL*%
X293370000Y-203835000D03*
%TO.N,Net-(J14-VBUS_1)*%
X350520000Y-224790000D03*
X350520000Y-220980000D03*
X349650000Y-218550000D03*
X349250000Y-220980000D03*
X350520000Y-222250000D03*
X350520000Y-223520000D03*
X349250000Y-222250000D03*
%TO.N,/MOTOR01_VCC*%
X296545000Y-144145000D03*
X294005000Y-139065000D03*
X288290000Y-153035000D03*
X291465000Y-144145000D03*
X288925000Y-146685000D03*
X286385000Y-141605000D03*
X299085000Y-144145000D03*
X288290000Y-158115000D03*
X294005000Y-141605000D03*
X291465000Y-141605000D03*
X303530000Y-139065000D03*
X296545000Y-141605000D03*
X288925000Y-139065000D03*
X288290000Y-155575000D03*
X303530000Y-144145000D03*
X303530000Y-141605000D03*
X290830000Y-153035000D03*
X288925000Y-151765000D03*
X291465000Y-139065000D03*
X286385000Y-149225000D03*
X286385000Y-144145000D03*
X285750000Y-158115000D03*
X288925000Y-144145000D03*
X290830000Y-151765000D03*
X285750000Y-153035000D03*
X288925000Y-141605000D03*
X294005000Y-144145000D03*
X291465000Y-149225000D03*
X296545000Y-139065000D03*
X288290000Y-149225000D03*
X285750000Y-155575000D03*
X290830000Y-155575000D03*
X286385000Y-139065000D03*
X299085000Y-139065000D03*
X299085000Y-141605000D03*
X291465000Y-146685000D03*
%TO.N,/HOST_IRQ*%
X300427444Y-187924260D03*
%TO.N,/IMU_RST*%
X302115000Y-229616000D03*
X295148000Y-227076000D03*
%TO.N,/MOTOR23_VCC*%
X321945000Y-153670000D03*
X347345000Y-151130000D03*
X339725000Y-153670000D03*
X313690000Y-153670000D03*
X339725000Y-151130000D03*
X326860000Y-158750000D03*
X319405000Y-151130000D03*
X316230000Y-151130000D03*
X342265000Y-153670000D03*
X324485000Y-153670000D03*
X329400000Y-158750000D03*
X344805000Y-155575000D03*
X344805000Y-158115000D03*
X347345000Y-153670000D03*
X337185000Y-151130000D03*
X319405000Y-153670000D03*
X316230000Y-158750000D03*
X321945000Y-158750000D03*
X311150000Y-158750000D03*
X324485000Y-151130000D03*
X313690000Y-151130000D03*
X321945000Y-156210000D03*
X316230000Y-156210000D03*
X344805000Y-153670000D03*
X342265000Y-155575000D03*
X337185000Y-153670000D03*
X334645000Y-151130000D03*
X316230000Y-153670000D03*
X319405000Y-156210000D03*
X342265000Y-151130000D03*
X324485000Y-156210000D03*
X311150000Y-156210000D03*
X311150000Y-153670000D03*
X313690000Y-158750000D03*
X331940000Y-161290000D03*
X329400000Y-161290000D03*
X321945000Y-151130000D03*
X339725000Y-155575000D03*
X342265000Y-158115000D03*
X331940000Y-158750000D03*
X311150000Y-151130000D03*
X344805000Y-151130000D03*
X326860000Y-161290000D03*
X313690000Y-156210000D03*
X319405000Y-158750000D03*
X334645000Y-153670000D03*
X324485000Y-158750000D03*
X339725000Y-158115000D03*
%TO.N,/SONAR_TRIG_0*%
X280035000Y-198120000D03*
%TO.N,/PI_SDA*%
X299720000Y-222885000D03*
%TO.N,/SONAR_TRIG_1*%
X280035000Y-200660000D03*
%TO.N,/SONAR_ECHO_1*%
X280670000Y-185420000D03*
X290715446Y-199199710D03*
%TO.N,/SONAR_ECHO_2*%
X288414442Y-199265558D03*
X280035000Y-201930000D03*
X278130000Y-202565000D03*
%TO.N,/SONAR_TRIG_2*%
X293637500Y-202932500D03*
X281305000Y-203835000D03*
%TO.N,/SONAR_ECHO_3*%
X281305000Y-201930000D03*
X269240000Y-205740000D03*
X287020000Y-200025000D03*
%TO.N,/SONAR_TRIG_3*%
X278130000Y-212725000D03*
X282575000Y-212725000D03*
%TO.N,/EMU_TDI*%
X283035626Y-215723613D03*
%TO.N,/RES#*%
X302885000Y-210072327D03*
X306070000Y-193040000D03*
X277495000Y-210185000D03*
X294005000Y-205915000D03*
X305426000Y-227965000D03*
%TO.N,/EMU_TDO*%
X283184616Y-216509616D03*
%TO.N,/FINED*%
X290830000Y-204470000D03*
X286385000Y-198755000D03*
%TO.N,/UB*%
X276980000Y-219510000D03*
X297643069Y-229833070D03*
X261620000Y-214630000D03*
%TO.N,/EMLE*%
X282575000Y-199390000D03*
%TO.N,/EMU_TRST#*%
X261620000Y-226695000D03*
%TO.N,/UPSEL*%
X287530558Y-212214442D03*
%TO.N,/ENC1_MTCLKD*%
X311785000Y-223520000D03*
%TO.N,/ENC1_MTCLKC*%
X332740000Y-205105000D03*
%TO.N,/ENC2_TCLKA*%
X314990032Y-219070079D03*
%TO.N,/ENC2_TCLKB*%
X321310000Y-204000003D03*
%TO.N,/ENC3_TCLKD*%
X324485000Y-216535000D03*
%TO.N,/ENC3_TCLKC*%
X318746468Y-217778658D03*
X321945000Y-219710000D03*
%TO.N,/LED_0*%
X327025000Y-190500000D03*
X321310000Y-206375000D03*
%TO.N,/LED_1*%
X321430587Y-207165862D03*
X327025000Y-193675000D03*
%TO.N,/LED_2*%
X327025000Y-196215000D03*
X321710000Y-207915482D03*
%TO.N,/LED_3*%
X321945000Y-208915000D03*
X327660000Y-198755000D03*
%TO.N,/LED_4*%
X328295000Y-201295000D03*
X321310000Y-209550000D03*
%TO.N,/LED_5*%
X320403883Y-209665000D03*
X329565000Y-203835000D03*
%TO.N,/MOTOR0_ISENSE*%
X303530000Y-187960000D03*
%TO.N,/MOTOR1_ISENSE*%
X300990000Y-188595000D03*
%TO.N,/MOTOR2_ISENSE*%
X299710000Y-188278207D03*
X285750000Y-171450000D03*
%TO.N,Net-(U11-XCIN)*%
X293370000Y-205165000D03*
%TO.N,/EMU_TCK*%
X281305000Y-228600000D03*
%TO.N,/EMU_TMS*%
X277495000Y-217805000D03*
%TO.N,/MOTOR0_IN2*%
X288988500Y-217815000D03*
%TO.N,/MOTOR0_nSLEEP*%
X307975000Y-171450000D03*
X307975000Y-167640000D03*
X315695055Y-187866945D03*
%TO.N,/MOTOR0_DRVOFF*%
X316483222Y-188004049D03*
%TO.N,/PWM_EXT_TRIG0*%
X295656000Y-228092000D03*
X262979087Y-227240913D03*
%TO.N,/MOTOR0_IN1*%
X295910000Y-220980000D03*
%TO.N,/MOTOR1_nSLEEP*%
X316628234Y-188800124D03*
X304165000Y-172085000D03*
%TO.N,/PWM_EXT_TRIG1*%
X307975000Y-164465000D03*
X320675000Y-205740000D03*
%TO.N,Net-(U4-GPIO5)*%
X309120558Y-227454442D03*
%TO.N,Net-(U4-RI#)*%
X310515000Y-227965000D03*
%TO.N,Net-(U4-DSR#)*%
X307975000Y-230505000D03*
%TO.N,Net-(U4-DCD#)*%
X308610000Y-233045000D03*
%TO.N,Net-(U4-CTS#)*%
X309880000Y-234315000D03*
%TO.N,Net-(U4-GPIO2)*%
X310515000Y-236220000D03*
%TO.N,/MOTOR1_IN1*%
X314200558Y-219199442D03*
%TO.N,/MOTOR1_DRVOFF*%
X318010558Y-188470558D03*
X303530000Y-170815000D03*
%TO.N,/MOTOR1_IN2*%
X293370000Y-217170000D03*
%TO.N,/SWITCH_OUT*%
X356870000Y-191135000D03*
X349250000Y-185420000D03*
X344170000Y-185420000D03*
X355600000Y-187325000D03*
X351790000Y-189230000D03*
X346710000Y-189230000D03*
X354330000Y-191135000D03*
X349885000Y-191770000D03*
X344170000Y-187325000D03*
X354330000Y-187325000D03*
X351790000Y-185420000D03*
X346710000Y-187325000D03*
X356870000Y-187325000D03*
X350520000Y-186690000D03*
X344170000Y-189230000D03*
X351790000Y-191135000D03*
X354330000Y-189230000D03*
X344170000Y-191135000D03*
X346710000Y-185420000D03*
X356870000Y-185420000D03*
X356870000Y-189230000D03*
X346710000Y-191135000D03*
X347980000Y-188595000D03*
X349250000Y-187325000D03*
%TO.N,/PACK+*%
X347345000Y-203200000D03*
X345440000Y-203200000D03*
X346075000Y-213360000D03*
X345440000Y-201295000D03*
X347345000Y-201295000D03*
X343535000Y-201295000D03*
X343535000Y-203200000D03*
X349250000Y-201290000D03*
X353060000Y-201290000D03*
X353060000Y-203200000D03*
X349250000Y-203200000D03*
X344170000Y-213360000D03*
X347980000Y-213360000D03*
X351155000Y-203200000D03*
X351155000Y-201290000D03*
%TO.N,/IMU_SCL*%
X294640000Y-217805000D03*
%TO.N,/IMU_SDA*%
X296545000Y-218440000D03*
%TO.N,/MOTOR2_nSLEEP*%
X317890415Y-189305713D03*
%TO.N,/PWM_EXT_TRIG2*%
X301626000Y-196840000D03*
%TO.N,/MOTOR2_DRVOFF*%
X316947139Y-190886798D03*
%TO.N,/MOTOR2_IN1*%
X297815000Y-221615000D03*
%TO.N,/MOTOR2_IN2*%
X319405000Y-196850000D03*
%TO.N,/MOTOR3_IN2*%
X320040000Y-200660000D03*
%TO.N,/MOTOR3_IN1*%
X311150000Y-221615000D03*
%TO.N,/MOTOR3_nSLEEP*%
X317831286Y-191770945D03*
%TO.N,/PWM_EXT_TRIG3*%
X298919997Y-222885000D03*
X300990000Y-178435000D03*
%TO.N,/MOTOR3_DRVOFF*%
X316879131Y-192736497D03*
%TO.N,Net-(PS3-+VOUT)*%
X345440000Y-231775000D03*
X345440000Y-230505000D03*
X345440000Y-234315000D03*
X345440000Y-233045000D03*
X342900000Y-239395000D03*
X345440000Y-235585000D03*
X342900000Y-238125000D03*
X344170000Y-236855000D03*
X342900000Y-236855000D03*
X345440000Y-236855000D03*
%TO.N,Net-(PS3-TRIM)*%
X337185000Y-239395000D03*
%TD*%
%TO.N,GND*%
D42*
X271507750Y-180372500D02*
X274047750Y-180372500D01*
X276587750Y-180372500D02*
X276587750Y-181882250D01*
X290375000Y-203200000D02*
X290195000Y-203200000D01*
X301625000Y-209550000D02*
X300375000Y-209550000D01*
X300742500Y-200235000D02*
X300247500Y-199740000D01*
X261347750Y-180322500D02*
X263837750Y-180322500D01*
X265256500Y-209885000D02*
X269575000Y-209885000D01*
X312545000Y-198755000D02*
X313360000Y-197940000D01*
X276587750Y-181882250D02*
X276225000Y-182245000D01*
X312970000Y-199940000D02*
X312420000Y-199390000D01*
X304760000Y-188635000D02*
X305435000Y-187960000D01*
X311785000Y-204470000D02*
X311785000Y-204140000D01*
X313297500Y-205940000D02*
X311985000Y-205940000D01*
X272433000Y-220363000D02*
X272415000Y-220345000D01*
X271022000Y-210308000D02*
X270510000Y-210820000D01*
X310685000Y-200340000D02*
X310685000Y-197530000D01*
X313297500Y-209940000D02*
X313297500Y-211940000D01*
X290204000Y-203371000D02*
X290375000Y-203200000D01*
X324485000Y-213360000D02*
X325120000Y-212725000D01*
X313297500Y-203940000D02*
X313297500Y-205940000D01*
X300247500Y-202457500D02*
X300355000Y-202565000D01*
X289690000Y-206375000D02*
X290325000Y-205740000D01*
X310685000Y-205740000D02*
X310685000Y-205570000D01*
X290375000Y-208280000D02*
X290195000Y-208280000D01*
X310830000Y-200340000D02*
X311785000Y-201295000D01*
X311150000Y-211642500D02*
X310647500Y-211140000D01*
X310760000Y-189637500D02*
X310760000Y-188985000D01*
X303485000Y-213940000D02*
X302205000Y-213940000D01*
X300185000Y-209740000D02*
X300185000Y-207802500D01*
X268905000Y-212425000D02*
X270510000Y-210820000D01*
X314450000Y-196850000D02*
X315595000Y-196850000D01*
X313297500Y-199940000D02*
X312970000Y-199940000D01*
X302895000Y-236830000D02*
X306125000Y-236830000D01*
X300355000Y-202565000D02*
X300355000Y-201847500D01*
X300355000Y-197430000D02*
X300355000Y-197670000D01*
X290195000Y-208280000D02*
X289560000Y-208915000D01*
X300285000Y-197740000D02*
X300285000Y-199702500D01*
X300355000Y-201847500D02*
X300247500Y-201740000D01*
X300355000Y-197670000D02*
X300285000Y-197740000D01*
X300185000Y-211740000D02*
X300185000Y-209740000D01*
X258288750Y-180322500D02*
X258151250Y-180460000D01*
X315524990Y-214741000D02*
X315848500Y-214417490D01*
X265256500Y-226521500D02*
X265430000Y-226695000D01*
X313260000Y-213940000D02*
X313260000Y-211977500D01*
X308372814Y-219021304D02*
X309707510Y-220356000D01*
X301752000Y-200235000D02*
X300742500Y-200235000D01*
X310685000Y-205570000D02*
X311785000Y-204470000D01*
X310685000Y-197655000D02*
X312420000Y-199390000D01*
X268967750Y-180372500D02*
X271507750Y-180372500D01*
X323442500Y-213360000D02*
X324485000Y-213360000D01*
X300582500Y-221207500D02*
X298960558Y-219585558D01*
X273661000Y-220363000D02*
X272433000Y-220363000D01*
X306125000Y-236830000D02*
X306150000Y-236855000D01*
X269575000Y-209885000D02*
X270510000Y-210820000D01*
X290325000Y-205740000D02*
X290204000Y-205619000D01*
X300285000Y-199702500D02*
X300247500Y-199740000D01*
X313260000Y-211977500D02*
X313297500Y-211940000D01*
X310685000Y-200340000D02*
X310830000Y-200340000D01*
X313297500Y-201940000D02*
X312430000Y-201940000D01*
X311150000Y-213400000D02*
X310610000Y-213940000D01*
X312430000Y-201940000D02*
X311785000Y-201295000D01*
X298990501Y-196471261D02*
X299396261Y-196471261D01*
X300247500Y-201740000D02*
X300247500Y-199740000D01*
X268967750Y-180372500D02*
X268967750Y-180702750D01*
X300210000Y-205740000D02*
X300210000Y-203777500D01*
X311150000Y-212725000D02*
X311150000Y-211642500D01*
X315848500Y-213055563D02*
X315647500Y-212854563D01*
X323542500Y-206067500D02*
X323850000Y-206375000D01*
X300247500Y-205777500D02*
X300210000Y-205740000D01*
X300247500Y-202672500D02*
X300355000Y-202565000D01*
X283210000Y-180372500D02*
X283210000Y-182245000D01*
X300185000Y-211740000D02*
X301340000Y-211740000D01*
X303522500Y-211240000D02*
X301840000Y-211240000D01*
X313297500Y-213902500D02*
X313260000Y-213940000D01*
X311785000Y-204140000D02*
X310685000Y-203040000D01*
X323542500Y-205160000D02*
X323542500Y-206067500D01*
X300247500Y-203740000D02*
X300247500Y-202672500D01*
X300185000Y-213740000D02*
X301245000Y-213740000D01*
X313297500Y-207940000D02*
X313297500Y-209940000D01*
X310685000Y-203040000D02*
X310685000Y-200340000D01*
X301340000Y-211740000D02*
X301625000Y-211455000D01*
X287655000Y-206375000D02*
X289690000Y-206375000D01*
X272433000Y-227983000D02*
X272415000Y-227965000D01*
X303535000Y-208440000D02*
X302420000Y-208440000D01*
X307212735Y-219021304D02*
X308372814Y-219021304D01*
X300185000Y-213740000D02*
X300185000Y-211740000D01*
X311171500Y-220356000D02*
X311972500Y-219555000D01*
X273649000Y-210308000D02*
X271022000Y-210308000D01*
X300210000Y-203777500D02*
X300247500Y-203740000D01*
X300247500Y-207740000D02*
X301530000Y-207740000D01*
X323517500Y-197817500D02*
X323850000Y-197485000D01*
X311150000Y-212725000D02*
X311150000Y-213400000D01*
X323517500Y-199160000D02*
X323517500Y-197817500D01*
X265256500Y-212425000D02*
X268905000Y-212425000D01*
X290195000Y-203200000D02*
X288750558Y-204644442D01*
X300185000Y-207802500D02*
X300247500Y-207740000D01*
X310760000Y-188985000D02*
X311785000Y-187960000D01*
X290204000Y-205619000D02*
X290204000Y-203371000D01*
X310710000Y-208440000D02*
X310710000Y-205765000D01*
X312420000Y-199390000D02*
X311785000Y-198755000D01*
X309707510Y-220356000D02*
X311171500Y-220356000D01*
X310710000Y-205765000D02*
X310685000Y-205740000D01*
X268967750Y-180702750D02*
X270510000Y-182245000D01*
X313297500Y-205940000D02*
X313297500Y-207940000D01*
X261347750Y-180322500D02*
X258288750Y-180322500D01*
X265256500Y-225125000D02*
X265256500Y-226521500D01*
X302420000Y-208440000D02*
X301625000Y-207645000D01*
X301530000Y-207740000D02*
X301625000Y-207645000D01*
X274047750Y-180372500D02*
X276587750Y-180372500D01*
X273673500Y-227983000D02*
X272433000Y-227983000D01*
X306150000Y-223530000D02*
X305660000Y-223040000D01*
X313260000Y-213940000D02*
X314061000Y-214741000D01*
X306150000Y-224155000D02*
X306150000Y-223530000D01*
X300247500Y-207740000D02*
X300247500Y-205777500D01*
X300375000Y-209550000D02*
X300185000Y-209740000D01*
X299396261Y-196471261D02*
X300355000Y-197430000D01*
X300950000Y-221207500D02*
X300582500Y-221207500D01*
X311785000Y-198755000D02*
X312545000Y-198755000D01*
X314061000Y-214741000D02*
X315524990Y-214741000D01*
X310685000Y-197530000D02*
X310685000Y-197655000D01*
X301245000Y-213740000D02*
X301625000Y-213360000D01*
X313360000Y-197940000D02*
X314450000Y-196850000D01*
X304760000Y-189637500D02*
X304760000Y-188635000D01*
X302205000Y-213940000D02*
X301625000Y-213360000D01*
X311985000Y-205940000D02*
X311785000Y-205740000D01*
X315848500Y-214417490D02*
X315848500Y-213055563D01*
X263837750Y-180322500D02*
X263887750Y-180372500D01*
X301840000Y-211240000D02*
X301625000Y-211455000D01*
%TO.N,/AVCC0*%
X305610000Y-202610000D02*
X306750000Y-202610000D01*
X291147500Y-215110000D02*
X291147500Y-216182500D01*
X305610000Y-205585000D02*
X305610000Y-208440000D01*
X310760000Y-192795000D02*
X310515000Y-193040000D01*
X315085000Y-199877500D02*
X315022500Y-199940000D01*
X297815000Y-199032500D02*
X298522500Y-199740000D01*
X273661000Y-230523000D02*
X271798000Y-230523000D01*
X273636000Y-217823000D02*
X272433000Y-217823000D01*
X290375000Y-190605000D02*
X290375000Y-193145000D01*
D43*
X291278381Y-207214381D02*
X292100000Y-208036000D01*
D42*
X290089446Y-200374446D02*
X290089446Y-198510554D01*
X315022500Y-205940000D02*
X315022500Y-207940000D01*
X302244700Y-220777200D02*
X300950000Y-219482500D01*
X298460000Y-211740000D02*
X298460000Y-209740000D01*
X298522500Y-199740000D02*
X298522500Y-197777500D01*
D43*
X299760000Y-189637500D02*
X298450000Y-190947500D01*
X298196000Y-196596000D02*
X298560000Y-196960000D01*
D42*
X298522500Y-203740000D02*
X298522500Y-201740000D01*
X321762500Y-205105000D02*
X321817500Y-205160000D01*
X308295000Y-211140000D02*
X307340000Y-210185000D01*
D44*
X257190000Y-184165000D02*
X252730000Y-179705000D01*
D42*
X295910000Y-192812500D02*
X295910000Y-192321000D01*
X321717500Y-213360000D02*
X320040000Y-213360000D01*
X298522500Y-207740000D02*
X298522500Y-205777500D01*
X293885000Y-221743885D02*
X294552394Y-222411279D01*
X308635000Y-205765000D02*
X308610000Y-205740000D01*
X290375000Y-198225000D02*
X289145000Y-198225000D01*
X307340000Y-210185000D02*
X306652500Y-210185000D01*
X319833056Y-205698059D02*
X320426115Y-205105000D01*
X315022500Y-207940000D02*
X315022500Y-209940000D01*
X315022500Y-201940000D02*
X315022500Y-203940000D01*
X315022500Y-209940000D02*
X315022500Y-211940000D01*
X305597500Y-211240000D02*
X305597500Y-213902500D01*
X285075000Y-221460000D02*
X285075000Y-222845000D01*
X308535000Y-213435000D02*
X308572500Y-213397500D01*
X308610000Y-200340000D02*
X308610000Y-197530000D01*
X311785000Y-214630000D02*
X310762500Y-215652500D01*
X306150000Y-229235000D02*
X304800000Y-229235000D01*
X315022500Y-205940000D02*
X315022500Y-203940000D01*
X273636000Y-215283000D02*
X273636000Y-214764000D01*
X290375000Y-193145000D02*
X290375000Y-198225000D01*
X315022500Y-199940000D02*
X315022500Y-201940000D01*
X308535000Y-213920000D02*
X307340000Y-212725000D01*
X310247500Y-219555000D02*
X310247500Y-215652500D01*
X321310000Y-198677500D02*
X321792500Y-199160000D01*
X306750000Y-202610000D02*
X307340000Y-203200000D01*
X306405000Y-207645000D02*
X305610000Y-208440000D01*
X304910000Y-223750000D02*
X304910000Y-222140000D01*
X305610000Y-200065000D02*
X306745000Y-200065000D01*
X298522500Y-204397500D02*
X298450000Y-204470000D01*
X307975000Y-205740000D02*
X307340000Y-205105000D01*
X305597500Y-197530000D02*
X305597500Y-200052500D01*
X289145000Y-198225000D02*
X288250000Y-197330000D01*
X315085000Y-197940000D02*
X315085000Y-199877500D01*
X308610000Y-205740000D02*
X308610000Y-203040000D01*
X291147500Y-216182500D02*
X293885000Y-218920000D01*
X315595000Y-198755000D02*
X315595000Y-199367500D01*
X307500000Y-203040000D02*
X307340000Y-203200000D01*
X306090000Y-205105000D02*
X305610000Y-205585000D01*
X265256500Y-217505000D02*
X264286500Y-216535000D01*
D43*
X298355000Y-207740000D02*
X297815000Y-208280000D01*
D42*
X285075000Y-222845000D02*
X285750000Y-223520000D01*
X305610000Y-200065000D02*
X305610000Y-202610000D01*
X286352500Y-180372500D02*
X287655000Y-179070000D01*
X302244700Y-221194878D02*
X302244700Y-220777200D01*
X273661000Y-225443000D02*
X272433000Y-225443000D01*
X298522500Y-203740000D02*
X298522500Y-204397500D01*
X272433000Y-217823000D02*
X272415000Y-217805000D01*
X320040000Y-213360000D02*
X319405000Y-213995000D01*
D43*
X289560000Y-207010000D02*
X289764381Y-207214381D01*
X298196000Y-196342000D02*
X298196000Y-196596000D01*
D42*
X307340000Y-207645000D02*
X306405000Y-207645000D01*
X290375000Y-200660000D02*
X290089446Y-200374446D01*
X298485000Y-205740000D02*
X298485000Y-204505000D01*
X308135000Y-208440000D02*
X307340000Y-207645000D01*
X298522500Y-197777500D02*
X298560000Y-197740000D01*
X315022500Y-213902500D02*
X314985000Y-213940000D01*
D44*
X266065000Y-182245000D02*
X264145000Y-184165000D01*
D42*
X271798000Y-212743000D02*
X271780000Y-212725000D01*
X308572500Y-213397500D02*
X308572500Y-211140000D01*
X295910000Y-192321000D02*
X295359000Y-191770000D01*
X306652500Y-210185000D02*
X305597500Y-211240000D01*
X293885000Y-218920000D02*
X293885000Y-221743885D01*
X304760000Y-192445000D02*
X304165000Y-193040000D01*
X273119000Y-222903000D02*
X272415000Y-222199000D01*
X295592500Y-219555000D02*
X294520000Y-219555000D01*
X300950000Y-219482500D02*
X301217500Y-219482500D01*
X307340000Y-212725000D02*
X306775000Y-212725000D01*
D43*
X289764381Y-207214381D02*
X291278381Y-207214381D01*
D42*
X285750000Y-180372500D02*
X286352500Y-180372500D01*
X305150000Y-221900000D02*
X306005000Y-221900000D01*
X308635000Y-208440000D02*
X308635000Y-205765000D01*
X298460000Y-209740000D02*
X298460000Y-207802500D01*
X310762500Y-215652500D02*
X310247500Y-215652500D01*
X305597500Y-197530000D02*
X308610000Y-197530000D01*
D44*
X264145000Y-184165000D02*
X257190000Y-184165000D01*
D42*
X273661000Y-212743000D02*
X271798000Y-212743000D01*
X305597500Y-213902500D02*
X305560000Y-213940000D01*
X321310000Y-198120000D02*
X321310000Y-198677500D01*
X272433000Y-225443000D02*
X272415000Y-225425000D01*
X308610000Y-205740000D02*
X307975000Y-205740000D01*
X297815000Y-198755000D02*
X297815000Y-199032500D01*
X294520000Y-219555000D02*
X293885000Y-218920000D01*
X308572500Y-211140000D02*
X308295000Y-211140000D01*
D44*
X266065000Y-180372500D02*
X266065000Y-182245000D01*
D42*
X305610000Y-202610000D02*
X305610000Y-205585000D01*
X305597500Y-208752500D02*
X305597500Y-211240000D01*
X307340000Y-205105000D02*
X306090000Y-205105000D01*
X306150000Y-234315000D02*
X304800000Y-234315000D01*
X304910000Y-222140000D02*
X305150000Y-221900000D01*
X306745000Y-200065000D02*
X307340000Y-200660000D01*
X310760000Y-191362500D02*
X310760000Y-192795000D01*
X298485000Y-204505000D02*
X298450000Y-204470000D01*
X308535000Y-213940000D02*
X308535000Y-213920000D01*
X305597500Y-200052500D02*
X305610000Y-200065000D01*
D43*
X299760000Y-189637500D02*
X302260000Y-189637500D01*
D42*
X273636000Y-214764000D02*
X273050000Y-214178000D01*
X306775000Y-212725000D02*
X305560000Y-213940000D01*
X298522500Y-205777500D02*
X298485000Y-205740000D01*
X306150000Y-231775000D02*
X304800000Y-231775000D01*
X308610000Y-200340000D02*
X307660000Y-200340000D01*
D43*
X292100000Y-208036000D02*
X292100000Y-208280000D01*
X298522500Y-207740000D02*
X298355000Y-207740000D01*
D42*
X298522500Y-201740000D02*
X298522500Y-199740000D01*
X315595000Y-199367500D02*
X315022500Y-199940000D01*
X290089446Y-198510554D02*
X290375000Y-198225000D01*
X290375000Y-191170000D02*
X290830000Y-191625000D01*
X308572500Y-211140000D02*
X308572500Y-210222500D01*
X301934831Y-221504747D02*
X302244700Y-221194878D01*
X264286500Y-216535000D02*
X262255000Y-216535000D01*
X290375000Y-190605000D02*
X290375000Y-191170000D01*
X298460000Y-207802500D02*
X298522500Y-207740000D01*
X298460000Y-213740000D02*
X298460000Y-211740000D01*
X308572500Y-210222500D02*
X308635000Y-210160000D01*
D43*
X298560000Y-196960000D02*
X298560000Y-197740000D01*
D42*
X308535000Y-213940000D02*
X308535000Y-213435000D01*
X320426115Y-205105000D02*
X321762500Y-205105000D01*
X308635000Y-208440000D02*
X308135000Y-208440000D01*
X315022500Y-211940000D02*
X315022500Y-213902500D01*
D43*
X298450000Y-190947500D02*
X298450000Y-193040000D01*
D42*
X271798000Y-230523000D02*
X271780000Y-230505000D01*
X308610000Y-203040000D02*
X308610000Y-200340000D01*
X304760000Y-191362500D02*
X304760000Y-192445000D01*
X308635000Y-210160000D02*
X308635000Y-208440000D01*
X305610000Y-208440000D02*
X305610000Y-208740000D01*
X273661000Y-222903000D02*
X273119000Y-222903000D01*
X307660000Y-200340000D02*
X307340000Y-200660000D01*
X308610000Y-203040000D02*
X307500000Y-203040000D01*
X310247500Y-215652500D02*
X308535000Y-213940000D01*
X305610000Y-208740000D02*
X305597500Y-208752500D01*
%TO.N,/SCI_USBC_5V0*%
D43*
X307420000Y-227965000D02*
X306150000Y-226695000D01*
X316230000Y-230505000D02*
X316214000Y-230521000D01*
D42*
X332105000Y-236220000D02*
X332105000Y-237490000D01*
D43*
X310587346Y-230521000D02*
X308031346Y-227965000D01*
D42*
X328930000Y-233045000D02*
X332105000Y-236220000D01*
D43*
X316214000Y-230521000D02*
X310587346Y-230521000D01*
X308031346Y-227965000D02*
X307420000Y-227965000D01*
%TO.N,Net-(D5-K)*%
D44*
X323795000Y-235640000D02*
X320040000Y-239395000D01*
X320040000Y-239395000D02*
X283210000Y-239395000D01*
X325120000Y-235640000D02*
X323795000Y-235640000D01*
%TO.N,AVSS0-1*%
D42*
X304448500Y-206305514D02*
X304448500Y-203523500D01*
D43*
X293142500Y-194537500D02*
X292100000Y-195580000D01*
D45*
X303522500Y-197530000D02*
X303522500Y-200052500D01*
D42*
X301626000Y-206248000D02*
X302014000Y-206636000D01*
X303522500Y-200052500D02*
X303535000Y-200065000D01*
D43*
X292100000Y-190605000D02*
X292100000Y-193145000D01*
D42*
X304118014Y-206636000D02*
X304448500Y-206305514D01*
X302565000Y-197530000D02*
X301860000Y-198235000D01*
D43*
X295910000Y-194537500D02*
X295910000Y-195580000D01*
X295910000Y-194537500D02*
X293142500Y-194537500D01*
D42*
X304448500Y-203523500D02*
X303535000Y-202610000D01*
X303522500Y-198112500D02*
X303535000Y-198125000D01*
D45*
X303535000Y-202610000D02*
X303535000Y-200065000D01*
D42*
X302014000Y-206636000D02*
X304118014Y-206636000D01*
D43*
X292100000Y-200660000D02*
X292100000Y-198225000D01*
D42*
X303522500Y-197530000D02*
X302565000Y-197530000D01*
X303522500Y-197530000D02*
X303522500Y-198112500D01*
%TO.N,VREFL0*%
X301176000Y-197275298D02*
X301176000Y-198814000D01*
X299760000Y-191362500D02*
X302260000Y-191362500D01*
D45*
X302236000Y-199235000D02*
X302436000Y-199435000D01*
D42*
X299720000Y-191402500D02*
X299760000Y-191362500D01*
D45*
X303535000Y-205585000D02*
X302436000Y-204486000D01*
D42*
X299720000Y-192405000D02*
X299720000Y-191402500D01*
D45*
X302436000Y-199435000D02*
X302436000Y-204486000D01*
D42*
X301176000Y-198814000D02*
X301597000Y-199235000D01*
X300350000Y-196289502D02*
X300350000Y-196449298D01*
D45*
X302236000Y-199235000D02*
X301752000Y-199235000D01*
D42*
X300350000Y-196449298D02*
X301176000Y-197275298D01*
X301597000Y-199235000D02*
X301752000Y-199235000D01*
%TO.N,/VCL*%
X292735000Y-203200000D02*
X293370000Y-203835000D01*
X292100000Y-203200000D02*
X292735000Y-203200000D01*
%TO.N,/HOST_IRQ*%
X295912810Y-184785000D02*
X295910000Y-184785000D01*
X300427444Y-187924260D02*
X299193184Y-186690000D01*
X297817810Y-186690000D02*
X295912810Y-184785000D01*
X299193184Y-186690000D02*
X297817810Y-186690000D01*
%TO.N,/IMU_RST*%
X302115000Y-229616000D02*
X299575000Y-227076000D01*
X299575000Y-227076000D02*
X295148000Y-227076000D01*
%TO.N,/SONAR_TRIG_0*%
X280035000Y-198120000D02*
X270216250Y-198120000D01*
%TO.N,/PI_SDA*%
X299720000Y-221318490D02*
X298334558Y-219933048D01*
X298334558Y-219181068D02*
X288174490Y-209021000D01*
X283845000Y-205105000D02*
X283845000Y-191770000D01*
X298334558Y-219933048D02*
X298334558Y-219181068D01*
X283845000Y-191770000D02*
X285905000Y-189710000D01*
X288174490Y-209021000D02*
X287761000Y-209021000D01*
X287761000Y-209021000D02*
X283845000Y-205105000D01*
X299720000Y-222885000D02*
X299720000Y-221318490D01*
X285905000Y-189710000D02*
X288250000Y-189710000D01*
%TO.N,/SONAR_TRIG_1*%
X265771250Y-198120000D02*
X267041250Y-199390000D01*
X267041250Y-199390000D02*
X278765000Y-199390000D01*
X278765000Y-199390000D02*
X280035000Y-200660000D01*
%TO.N,/SONAR_TRIG_2*%
X268980702Y-206366000D02*
X262502250Y-199887548D01*
X269499298Y-206366000D02*
X268980702Y-206366000D01*
X262502250Y-199296000D02*
X261326250Y-198120000D01*
X281305000Y-203835000D02*
X272030298Y-203835000D01*
X272030298Y-203835000D02*
X269499298Y-206366000D01*
X262502250Y-199887548D02*
X262502250Y-199296000D01*
%TO.N,/SONAR_ECHO_3*%
X280670000Y-201295000D02*
X281305000Y-201930000D01*
X269240000Y-205740000D02*
X273685000Y-201295000D01*
X273685000Y-201295000D02*
X280670000Y-201295000D01*
%TO.N,/SONAR_TRIG_3*%
X282514000Y-212664000D02*
X282575000Y-212725000D01*
X278130000Y-212725000D02*
X278191000Y-212664000D01*
X278191000Y-212664000D02*
X282514000Y-212664000D01*
%TO.N,/EMU_TDI*%
X283035626Y-215723613D02*
X282516013Y-215204000D01*
X282516013Y-215204000D02*
X275540000Y-215204000D01*
X275461000Y-215283000D02*
X273731000Y-213553000D01*
X273731000Y-213553000D02*
X259526500Y-213553000D01*
X259526500Y-213553000D02*
X258398500Y-212425000D01*
X275540000Y-215204000D02*
X275461000Y-215283000D01*
%TO.N,/RES#*%
X274090000Y-208924000D02*
X275474000Y-210308000D01*
X276121000Y-210185000D02*
X277495000Y-210185000D01*
X302870700Y-219710000D02*
X294005000Y-210844300D01*
X275486000Y-210820000D02*
X276121000Y-210185000D01*
X305336500Y-226596500D02*
X302870700Y-224130700D01*
X305426000Y-227261990D02*
X305336500Y-227172490D01*
X259359500Y-208924000D02*
X274090000Y-208924000D01*
X305336500Y-227172490D02*
X305336500Y-226596500D01*
X275486000Y-210320000D02*
X275474000Y-210308000D01*
X294005000Y-210844300D02*
X294005000Y-205915000D01*
X258398500Y-209885000D02*
X259359500Y-208924000D01*
X275486000Y-210820000D02*
X275486000Y-210320000D01*
X305426000Y-227965000D02*
X305426000Y-227261990D01*
X302870700Y-224130700D02*
X302870700Y-219710000D01*
X275486000Y-212743000D02*
X275486000Y-210820000D01*
%TO.N,/EMU_TDO*%
X268122500Y-221006000D02*
X268122500Y-220980000D01*
X259333500Y-220980000D02*
X262390500Y-220980000D01*
X279507884Y-220284000D02*
X275486000Y-224305884D01*
X275486000Y-224305884D02*
X275486000Y-225443000D01*
X274685000Y-224642000D02*
X275486000Y-225443000D01*
X268122500Y-220980000D02*
X269380690Y-220980000D01*
X269380690Y-220980000D02*
X270015690Y-221615000D01*
X262390500Y-220980000D02*
X262390500Y-221006000D01*
X270015690Y-221615000D02*
X270661500Y-221615000D01*
X262390500Y-221006000D02*
X268122500Y-221006000D01*
X283184616Y-216509616D02*
X283184616Y-217581500D01*
X270661500Y-221615000D02*
X273688500Y-224642000D01*
X283184616Y-217581500D02*
X280482116Y-220284000D01*
X273688500Y-224642000D02*
X274685000Y-224642000D01*
X258398500Y-220045000D02*
X259333500Y-220980000D01*
X280482116Y-220284000D02*
X279507884Y-220284000D01*
%TO.N,/FINED*%
X275590000Y-189865000D02*
X282575000Y-196850000D01*
X257111500Y-217505000D02*
X250825000Y-211218500D01*
X273747000Y-221164000D02*
X270202500Y-221164000D01*
X267504500Y-218466000D02*
X259359500Y-218466000D01*
X259359500Y-218466000D02*
X258398500Y-217505000D01*
X250825000Y-211218500D02*
X250825000Y-191135000D01*
X290664000Y-202399000D02*
X290914990Y-202399000D01*
X252095000Y-189865000D02*
X275590000Y-189865000D01*
X291237500Y-202721510D02*
X291237500Y-204062500D01*
X270202500Y-221164000D02*
X267504500Y-218466000D01*
X290914990Y-202399000D02*
X291237500Y-202721510D01*
X250825000Y-191135000D02*
X252095000Y-189865000D01*
X291237500Y-204062500D02*
X290830000Y-204470000D01*
X258398500Y-217505000D02*
X257111500Y-217505000D01*
X286385000Y-198755000D02*
X287020000Y-198755000D01*
X287020000Y-198755000D02*
X290664000Y-202399000D01*
X275486000Y-222903000D02*
X273747000Y-221164000D01*
%TO.N,/UB*%
X267161500Y-214965000D02*
X271236500Y-219040000D01*
X265256500Y-214965000D02*
X261955000Y-214965000D01*
X276339000Y-219510000D02*
X275486000Y-220363000D01*
X261955000Y-214965000D02*
X261620000Y-214630000D01*
X265256500Y-214965000D02*
X267161500Y-214965000D01*
X276980000Y-219510000D02*
X276339000Y-219510000D01*
X271236500Y-219040000D02*
X274163000Y-219040000D01*
X274163000Y-219040000D02*
X275486000Y-220363000D01*
%TO.N,/EMLE*%
X287521000Y-225364000D02*
X288250000Y-224635000D01*
X265256500Y-222585000D02*
X266543500Y-222585000D01*
X286904558Y-223289558D02*
X286904558Y-208802368D01*
X277961384Y-226244000D02*
X278841384Y-225364000D01*
X282575000Y-204472810D02*
X282575000Y-199390000D01*
X266543500Y-222585000D02*
X270202500Y-226244000D01*
X288250000Y-224635000D02*
X286904558Y-223289558D01*
X278841384Y-225364000D02*
X287521000Y-225364000D01*
X286904558Y-208802368D02*
X282575000Y-204472810D01*
X270202500Y-226244000D02*
X277961384Y-226244000D01*
%TO.N,/EMU_TRST#*%
X260811500Y-222585000D02*
X261620000Y-223393500D01*
X263525000Y-229235000D02*
X274246500Y-229235000D01*
X274246500Y-229235000D02*
X275498500Y-227983000D01*
X261620000Y-223393500D02*
X261620000Y-227330000D01*
X258398500Y-222585000D02*
X260811500Y-222585000D01*
X261620000Y-227330000D02*
X263525000Y-229235000D01*
%TO.N,/UPSEL*%
X290884000Y-222377000D02*
X290884000Y-223459000D01*
X287530558Y-212214442D02*
X287530558Y-219023558D01*
X287530558Y-219023558D02*
X290884000Y-222377000D01*
X290884000Y-223459000D02*
X292060000Y-224635000D01*
%TO.N,Net-(J19-Pin_1)*%
X292060000Y-218920000D02*
X292060000Y-222095000D01*
%TO.N,/ENC2_TCLKA*%
X314990032Y-219070079D02*
X315629953Y-219710000D01*
X320040000Y-219710000D02*
X356900000Y-182850000D01*
X356900000Y-182850000D02*
X356900000Y-171800000D01*
X315629953Y-219710000D02*
X320040000Y-219710000D01*
X356900000Y-171800000D02*
X355600000Y-170500000D01*
X355600000Y-170500000D02*
X355600000Y-169900000D01*
%TO.N,/ENC2_TCLKB*%
X355600000Y-166000000D02*
X355600000Y-164820000D01*
X317500000Y-203200000D02*
X317500000Y-192986116D01*
X325214000Y-185272116D02*
X325214000Y-181757884D01*
X317500000Y-192986116D02*
X325214000Y-185272116D01*
X321310000Y-204000003D02*
X318300003Y-204000003D01*
X336853384Y-170118500D02*
X351481500Y-170118500D01*
X351481500Y-170118500D02*
X355600000Y-166000000D01*
X325214000Y-181757884D02*
X336853384Y-170118500D01*
X318300003Y-204000003D02*
X317500000Y-203200000D01*
%TO.N,/ENC3_TCLKD*%
X344700000Y-246200000D02*
X339620000Y-241120000D01*
X339620000Y-241120000D02*
X339620000Y-231670000D01*
X339620000Y-231670000D02*
X324485000Y-216535000D01*
%TO.N,/ENC3_TCLKC*%
X321945000Y-219710000D02*
X321945000Y-230968826D01*
X321945000Y-230968826D02*
X337193087Y-246216913D01*
X339620000Y-246200000D02*
X337210000Y-246200000D01*
%TO.N,/LED_0*%
X325298380Y-207452570D02*
X325298380Y-205740000D01*
X324470950Y-208280000D02*
X325112975Y-207637975D01*
X325298380Y-192226620D02*
X327025000Y-190500000D01*
X323854215Y-208275785D02*
X323858430Y-208280000D01*
X325112975Y-207637975D02*
X325298380Y-207452570D01*
X325298380Y-205740000D02*
X325298380Y-192226620D01*
X321310000Y-206375000D02*
X321953430Y-206375000D01*
X321953430Y-206375000D02*
X323854215Y-208275785D01*
X323858430Y-208280000D02*
X324470950Y-208280000D01*
%TO.N,/LED_1*%
X321430587Y-207165862D02*
X322106482Y-207165862D01*
X325749380Y-196220620D02*
X326390000Y-195580000D01*
X322106482Y-207165862D02*
X322669292Y-207728672D01*
X325749380Y-207639380D02*
X325749380Y-196220620D01*
X323850000Y-208832000D02*
X324485000Y-208832000D01*
X322669292Y-207728672D02*
X323772620Y-208832000D01*
X327025000Y-194945000D02*
X327025000Y-193675000D01*
X324556760Y-208832000D02*
X325749380Y-207639380D01*
X324485000Y-208832000D02*
X324556760Y-208832000D01*
X326390000Y-195580000D02*
X327025000Y-194945000D01*
X323772620Y-208832000D02*
X323850000Y-208832000D01*
%TO.N,/LED_2*%
X323400405Y-209097595D02*
X323585810Y-209283000D01*
X322218292Y-207915482D02*
X323400405Y-209097595D01*
X326385785Y-196854215D02*
X327025000Y-196215000D01*
X321710000Y-207915482D02*
X322218292Y-207915482D01*
X326385785Y-207640785D02*
X326385785Y-196854215D01*
X324743570Y-209283000D02*
X326385785Y-207640785D01*
X323585810Y-209283000D02*
X324485000Y-209283000D01*
X324485000Y-209283000D02*
X324743570Y-209283000D01*
%TO.N,/LED_3*%
X324930380Y-209734000D02*
X327113488Y-207550892D01*
X327025000Y-199390000D02*
X327660000Y-198755000D01*
X321945000Y-208915000D02*
X322580000Y-208915000D01*
X327113488Y-207550892D02*
X327025000Y-207462404D01*
X322580000Y-208915000D02*
X323399000Y-209734000D01*
X327025000Y-207462404D02*
X327025000Y-199390000D01*
X323399000Y-209734000D02*
X324930380Y-209734000D01*
%TO.N,/LED_4*%
X327660000Y-201930000D02*
X327660000Y-207642190D01*
X328295000Y-201295000D02*
X327660000Y-201930000D01*
X325117190Y-210185000D02*
X321945000Y-210185000D01*
X321945000Y-210185000D02*
X321310000Y-209550000D01*
X327660000Y-207642190D02*
X325117190Y-210185000D01*
%TO.N,/LED_5*%
X329565000Y-203835000D02*
X328295000Y-205105000D01*
X328295000Y-207645000D02*
X325120000Y-210820000D01*
X321558883Y-210820000D02*
X320403883Y-209665000D01*
X328295000Y-205105000D02*
X328295000Y-207645000D01*
X325120000Y-210820000D02*
X321558883Y-210820000D01*
%TO.N,/MOTOR0_ISENSE*%
X301477116Y-183609000D02*
X302166000Y-184297884D01*
X258818750Y-169545000D02*
X273729384Y-169545000D01*
X302166000Y-184297884D02*
X302166000Y-186596000D01*
X299626000Y-182732116D02*
X300502884Y-183609000D01*
X290651750Y-174084000D02*
X293003750Y-174084000D01*
X286642116Y-167766500D02*
X287331000Y-168455384D01*
X287331000Y-168455384D02*
X287331000Y-170763250D01*
X300502884Y-183609000D02*
X301477116Y-183609000D01*
X302166000Y-186596000D02*
X303530000Y-187960000D01*
X273729384Y-169545000D02*
X275507884Y-167766500D01*
X275507884Y-167766500D02*
X286642116Y-167766500D01*
X287331000Y-170763250D02*
X290651750Y-174084000D01*
X293003750Y-174084000D02*
X299626000Y-180706250D01*
X299626000Y-180706250D02*
X299626000Y-182732116D01*
%TO.N,/MOTOR1_ISENSE*%
X300990000Y-188595000D02*
X302242000Y-188595000D01*
X304706000Y-184297884D02*
X304017116Y-183609000D01*
X257642750Y-169057884D02*
X257642750Y-172302500D01*
X261397750Y-178547500D02*
X261347750Y-178597500D01*
X304706000Y-187669298D02*
X304706000Y-184297884D01*
X257642750Y-172302500D02*
X263887750Y-178547500D01*
X275321074Y-167315500D02*
X274267574Y-168369000D01*
X303042884Y-183609000D02*
X302166000Y-182732116D01*
X289871000Y-168455384D02*
X288731116Y-167315500D01*
X302251000Y-188586000D02*
X303789298Y-188586000D01*
X303789298Y-188586000D02*
X304706000Y-187669298D01*
X289871000Y-169462884D02*
X289871000Y-168455384D01*
X258331634Y-168369000D02*
X257642750Y-169057884D01*
X302242000Y-188595000D02*
X302251000Y-188586000D01*
X288731116Y-167315500D02*
X275321074Y-167315500D01*
X302166000Y-181757884D02*
X289871000Y-169462884D01*
X304017116Y-183609000D02*
X303042884Y-183609000D01*
X274267574Y-168369000D02*
X258331634Y-168369000D01*
X302166000Y-182732116D02*
X302166000Y-181757884D01*
X263887750Y-178547500D02*
X261397750Y-178547500D01*
X263887750Y-175260000D02*
X263887750Y-178547500D01*
%TO.N,/MOTOR2_ISENSE*%
X290463750Y-176069750D02*
X290463750Y-174772884D01*
X294546000Y-185272116D02*
X294546000Y-180152000D01*
X294546000Y-180152000D02*
X290463750Y-176069750D01*
X295234884Y-185961000D02*
X294546000Y-185272116D01*
X295816000Y-185961000D02*
X295234884Y-185961000D01*
X299710000Y-188278207D02*
X299652091Y-188278207D01*
X299652091Y-188278207D02*
X299326298Y-188604000D01*
X298459000Y-188604000D02*
X295816000Y-185961000D01*
X299326298Y-188604000D02*
X298459000Y-188604000D01*
X287140866Y-171450000D02*
X285750000Y-171450000D01*
X290463750Y-174772884D02*
X287140866Y-171450000D01*
%TO.N,Net-(U11-XCIN)*%
X292735000Y-205165000D02*
X292160000Y-205740000D01*
X292160000Y-205740000D02*
X292150000Y-205740000D01*
X293370000Y-205165000D02*
X292735000Y-205165000D01*
%TO.N,/EMU_TCK*%
X281305000Y-228600000D02*
X279382000Y-230523000D01*
X275486000Y-230523000D02*
X274685000Y-231324000D01*
X279382000Y-230523000D02*
X275486000Y-230523000D01*
X264597500Y-231324000D02*
X258398500Y-225125000D01*
X274685000Y-231324000D02*
X264597500Y-231324000D01*
%TO.N,/EMU_TMS*%
X274138000Y-216500000D02*
X273562010Y-216500000D01*
D43*
X275479000Y-217805000D02*
X275461000Y-217823000D01*
D42*
X275461000Y-217823000D02*
X274138000Y-216500000D01*
X273562010Y-216500000D02*
X271066010Y-214004000D01*
X271066010Y-214004000D02*
X259359500Y-214004000D01*
X277495000Y-217805000D02*
X275479000Y-217805000D01*
X259359500Y-214004000D02*
X258398500Y-214965000D01*
%TO.N,/MOTOR0_nSLEEP*%
X317500000Y-180975000D02*
X317500000Y-186062000D01*
X307975000Y-171450000D02*
X317500000Y-180975000D01*
X317500000Y-186062000D02*
X315695055Y-187866945D01*
%TO.N,/MOTOR1_nSLEEP*%
X285750000Y-176257750D02*
X285750000Y-178547500D01*
X286747750Y-175260000D02*
X285750000Y-176257750D01*
%TO.N,/PWM_EXT_TRIG1*%
X266427750Y-175260000D02*
X266427750Y-178184750D01*
X266427750Y-178184750D02*
X266065000Y-178547500D01*
%TO.N,Net-(U4-GPIO5)*%
X307975000Y-226695000D02*
X308361116Y-226695000D01*
X308361116Y-226695000D02*
X309120558Y-227454442D01*
X307975000Y-224155000D02*
X307975000Y-226695000D01*
%TO.N,Net-(U4-RI#)*%
X310515000Y-227965000D02*
X309245000Y-226695000D01*
X309245000Y-223315000D02*
X307830000Y-221900000D01*
X309245000Y-226695000D02*
X309245000Y-223315000D01*
%TO.N,Net-(U4-DSR#)*%
X307975000Y-229235000D02*
X307975000Y-230505000D01*
%TO.N,Net-(U4-DCD#)*%
X307975000Y-232410000D02*
X308610000Y-233045000D01*
X307975000Y-231775000D02*
X307975000Y-232410000D01*
%TO.N,Net-(U4-CTS#)*%
X307975000Y-234315000D02*
X309880000Y-234315000D01*
%TO.N,Net-(U4-GPIO2)*%
X307975000Y-236855000D02*
X309880000Y-236855000D01*
X309880000Y-236855000D02*
X310515000Y-236220000D01*
%TO.N,Net-(J17-Pin_8)*%
X274047750Y-175260000D02*
X274047750Y-178547500D01*
%TO.N,Net-(J17-Pin_10)*%
X268967750Y-175260000D02*
X268967750Y-178547500D01*
%TO.N,/MOTOR1_DRVOFF*%
X283210000Y-176257750D02*
X283210000Y-178547500D01*
X284207750Y-175260000D02*
X283210000Y-176257750D01*
%TO.N,Net-(J17-Pin_7)*%
X276587750Y-175260000D02*
X276587750Y-178547500D01*
%TO.N,Net-(J17-Pin_9)*%
X271507750Y-175260000D02*
X271507750Y-178547500D01*
%TO.N,/IMU_SCL*%
X294640000Y-217805000D02*
X294640000Y-216777500D01*
X294640000Y-216777500D02*
X292972500Y-215110000D01*
%TO.N,/IMU_SDA*%
X296545000Y-218440000D02*
X296545000Y-218682500D01*
X296545000Y-218682500D02*
X297417500Y-219555000D01*
X297417500Y-219555000D02*
X296545000Y-220427500D01*
X296545000Y-224353116D02*
X283758116Y-237140000D01*
X283758116Y-237140000D02*
X266025000Y-237140000D01*
X296545000Y-220427500D02*
X296545000Y-224353116D01*
%TO.N,/MOTOR2_nSLEEP*%
X317890415Y-189305713D02*
X317770004Y-189426124D01*
X310447810Y-179705000D02*
X300900206Y-179705000D01*
X298855000Y-177659794D02*
X298855000Y-168942500D01*
X312326000Y-185383188D02*
X312326000Y-181583190D01*
X317770004Y-189426124D02*
X316368936Y-189426124D01*
X300900206Y-179705000D02*
X298855000Y-177659794D01*
X312326000Y-181583190D02*
X310447810Y-179705000D01*
X316368936Y-189426124D02*
X312326000Y-185383188D01*
%TO.N,/PWM_EXT_TRIG2*%
X292006000Y-179829366D02*
X287923750Y-175747116D01*
X283269366Y-170118500D02*
X279711000Y-170118500D01*
X287923750Y-175747116D02*
X287923750Y-174772884D01*
X301626000Y-196840000D02*
X301445412Y-196659412D01*
X287923750Y-174772884D02*
X283269366Y-170118500D01*
X279711000Y-170118500D02*
X278535000Y-168942500D01*
X301445412Y-194003412D02*
X301108000Y-193666000D01*
X301445412Y-196659412D02*
X301445412Y-194003412D01*
X301108000Y-193666000D02*
X298190702Y-193666000D01*
X292006000Y-187481298D02*
X292006000Y-179829366D01*
X298190702Y-193666000D02*
X292006000Y-187481298D01*
%TO.N,Net-(J3-Pin_3)*%
X279995000Y-221460000D02*
X283250000Y-221460000D01*
%TO.N,/MOTOR3_nSLEEP*%
X322674000Y-186928231D02*
X322674000Y-180913500D01*
X322674000Y-180913500D02*
X334645000Y-168942500D01*
X317831286Y-191770945D02*
X322674000Y-186928231D01*
%TO.N,/PWM_EXT_TRIG3*%
X314325000Y-168942500D02*
X312896353Y-170371147D01*
X307148853Y-170371147D02*
X300990000Y-176530000D01*
X312896353Y-170371147D02*
X307148853Y-170371147D01*
X300990000Y-176530000D02*
X300990000Y-178435000D01*
%TO.N,/MOTOR3_DRVOFF*%
X316879131Y-192026707D02*
X317205286Y-191700552D01*
X316879131Y-192736497D02*
X316879131Y-192026707D01*
X320040000Y-188678084D02*
X320040000Y-181007500D01*
X320040000Y-181007500D02*
X332105000Y-168942500D01*
X317205286Y-191700552D02*
X317205286Y-191512798D01*
X317205286Y-191512798D02*
X320040000Y-188678084D01*
%TO.N,Net-(PS3-TRIM)*%
X334960000Y-239355000D02*
X337145000Y-239355000D01*
X337145000Y-239355000D02*
X337185000Y-239395000D01*
%TD*%
%TA.AperFunction,Conductor*%
%TO.N,AVSS0-1*%
G36*
X292293039Y-190624685D02*
G01*
X292338794Y-190677489D01*
X292350000Y-190729000D01*
X292350000Y-191579999D01*
X292449140Y-191579999D01*
X292449154Y-191579998D01*
X292550152Y-191569680D01*
X292713800Y-191515453D01*
X292713811Y-191515448D01*
X292860534Y-191424947D01*
X292860538Y-191424944D01*
X292982444Y-191303038D01*
X292982447Y-191303034D01*
X293072948Y-191156311D01*
X293072953Y-191156300D01*
X293128294Y-190989293D01*
X293168066Y-190931848D01*
X293232582Y-190905025D01*
X293301358Y-190917340D01*
X293352558Y-190964883D01*
X293370000Y-191028297D01*
X293370000Y-192721702D01*
X293350315Y-192788741D01*
X293297511Y-192834496D01*
X293228353Y-192844440D01*
X293164797Y-192815415D01*
X293128294Y-192760706D01*
X293072953Y-192593699D01*
X293072948Y-192593688D01*
X292982447Y-192446965D01*
X292982444Y-192446961D01*
X292860538Y-192325055D01*
X292860534Y-192325052D01*
X292713811Y-192234551D01*
X292713800Y-192234546D01*
X292550152Y-192180319D01*
X292449154Y-192170000D01*
X292350000Y-192170000D01*
X292350000Y-194119999D01*
X292449140Y-194119999D01*
X292449154Y-194119998D01*
X292550152Y-194109680D01*
X292713800Y-194055453D01*
X292713811Y-194055448D01*
X292860534Y-193964947D01*
X292860538Y-193964944D01*
X292982444Y-193843038D01*
X292982447Y-193843034D01*
X293072948Y-193696311D01*
X293072953Y-193696300D01*
X293128294Y-193529293D01*
X293168066Y-193471848D01*
X293232582Y-193445025D01*
X293301358Y-193457340D01*
X293352558Y-193504883D01*
X293370000Y-193568297D01*
X293370000Y-197801702D01*
X293350315Y-197868741D01*
X293297511Y-197914496D01*
X293228353Y-197924440D01*
X293164797Y-197895415D01*
X293128294Y-197840706D01*
X293072953Y-197673699D01*
X293072948Y-197673688D01*
X292982447Y-197526965D01*
X292982444Y-197526961D01*
X292860538Y-197405055D01*
X292860534Y-197405052D01*
X292713811Y-197314551D01*
X292713800Y-197314546D01*
X292550152Y-197260319D01*
X292449154Y-197250000D01*
X292350000Y-197250000D01*
X292350000Y-199199999D01*
X292449140Y-199199999D01*
X292449154Y-199199998D01*
X292550152Y-199189680D01*
X292713800Y-199135453D01*
X292713811Y-199135448D01*
X292860534Y-199044947D01*
X292860538Y-199044944D01*
X292982444Y-198923038D01*
X292982447Y-198923034D01*
X293072948Y-198776311D01*
X293072953Y-198776300D01*
X293128294Y-198609293D01*
X293168066Y-198551848D01*
X293232582Y-198525025D01*
X293301358Y-198537340D01*
X293352558Y-198584883D01*
X293370000Y-198648297D01*
X293370000Y-200236702D01*
X293350315Y-200303741D01*
X293297511Y-200349496D01*
X293228353Y-200359440D01*
X293164797Y-200330415D01*
X293128294Y-200275706D01*
X293072953Y-200108699D01*
X293072948Y-200108688D01*
X292982447Y-199961965D01*
X292982444Y-199961961D01*
X292860538Y-199840055D01*
X292860534Y-199840052D01*
X292713811Y-199749551D01*
X292713800Y-199749546D01*
X292550152Y-199695319D01*
X292449154Y-199685000D01*
X292350000Y-199685000D01*
X292350000Y-200536000D01*
X292330315Y-200603039D01*
X292277511Y-200648794D01*
X292226000Y-200660000D01*
X291974000Y-200660000D01*
X291906961Y-200640315D01*
X291861206Y-200587511D01*
X291850000Y-200536000D01*
X291850000Y-199684999D01*
X291750860Y-199685000D01*
X291750844Y-199685001D01*
X291649844Y-199695319D01*
X291628002Y-199702557D01*
X291599543Y-199703535D01*
X291571353Y-199707589D01*
X291565072Y-199704720D01*
X291558174Y-199704958D01*
X291533704Y-199690395D01*
X291507797Y-199678564D01*
X291504064Y-199672755D01*
X291498133Y-199669226D01*
X291485420Y-199643745D01*
X291470023Y-199619786D01*
X291468628Y-199610087D01*
X291466941Y-199606705D01*
X291465000Y-199584851D01*
X291465000Y-199506598D01*
X291474439Y-199459145D01*
X291485183Y-199433207D01*
X291513933Y-199288674D01*
X291546318Y-199226763D01*
X291607033Y-199192189D01*
X291648154Y-199189507D01*
X291750852Y-199199999D01*
X291850000Y-199199998D01*
X291850000Y-197249999D01*
X291750860Y-197250000D01*
X291750844Y-197250001D01*
X291649844Y-197260319D01*
X291628002Y-197267557D01*
X291558174Y-197269958D01*
X291498133Y-197234226D01*
X291466941Y-197171705D01*
X291465000Y-197149851D01*
X291465000Y-194220148D01*
X291484685Y-194153109D01*
X291537489Y-194107354D01*
X291606647Y-194097410D01*
X291628006Y-194102443D01*
X291649847Y-194109680D01*
X291649846Y-194109680D01*
X291750851Y-194119999D01*
X291850000Y-194119998D01*
X291850000Y-192169999D01*
X291750860Y-192170000D01*
X291750842Y-192170001D01*
X291664989Y-192178772D01*
X291596297Y-192166002D01*
X291545412Y-192118121D01*
X291528492Y-192050331D01*
X291537827Y-192007961D01*
X291539394Y-192004179D01*
X291599737Y-191858497D01*
X291630500Y-191703842D01*
X291630500Y-191703835D01*
X291631097Y-191697782D01*
X291632291Y-191697899D01*
X291650185Y-191636960D01*
X291702989Y-191591205D01*
X291754499Y-191579999D01*
X291850000Y-191579998D01*
X291850000Y-190729000D01*
X291869685Y-190661961D01*
X291922489Y-190616206D01*
X291974000Y-190605000D01*
X292226000Y-190605000D01*
X292293039Y-190624685D01*
G37*
%TD.AperFunction*%
%TD*%
M02*
