M48
; DRILL file KiCad 10.0.1 date 2026-04-24T17:16:27
; FORMAT={-:-/ absolute / metric / decimal}
; #@! TF.CreationDate,2026-04-24T17:16:27-05:00
; #@! TF.GenerationSoftware,Kicad,Pcbnew,10.0.1
; #@! TF.FileFunction,MixedPlating,1,6
FMAT,2
METRIC
; #@! TA.AperFunction,Plated,PTH,ViaDrill
T1C0.300
; #@! TA.AperFunction,Plated,PTH,ComponentDrill
T2C0.630
; #@! TA.AperFunction,Plated,PTH,ComponentDrill
T3C0.800
; #@! TA.AperFunction,Plated,PTH,ComponentDrill
T4C0.850
; #@! TA.AperFunction,Plated,PTH,ComponentDrill
T5C1.000
; #@! TA.AperFunction,Plated,PTH,ComponentDrill
T6C1.100
; #@! TA.AperFunction,Plated,PTH,ComponentDrill
T7C1.300
; #@! TA.AperFunction,Plated,PTH,ComponentDrill
T8C1.400
; #@! TA.AperFunction,Plated,PTH,ComponentDrill
T9C3.200
; #@! TA.AperFunction,NonPlated,NPTH,ComponentDrill
T10C0.650
%
G90
G05
T1
X252.73Y-179.705
X253.365Y-151.765
X253.365Y-153.67
X253.365Y-174.625
X254.635Y-165.735
X255.905Y-151.765
X255.905Y-153.67
X261.62Y-214.63
X261.62Y-226.695
X262.255Y-160.655
X262.255Y-163.195
X262.255Y-165.735
X262.255Y-216.535
X262.979Y-227.241
X264.16Y-128.905
X264.16Y-131.445
X264.16Y-133.985
X264.16Y-140.335
X264.16Y-142.875
X264.16Y-145.415
X264.16Y-147.955
X264.16Y-150.495
X264.16Y-153.035
X264.16Y-155.575
X264.795Y-163.207
X264.795Y-165.748
X265.43Y-226.695
X266.7Y-128.917
X266.7Y-131.457
X266.7Y-133.998
X266.7Y-140.347
X266.7Y-142.887
X266.7Y-145.427
X266.7Y-147.968
X266.7Y-150.507
X266.7Y-153.047
X266.7Y-155.588
X267.335Y-160.655
X267.335Y-165.735
X269.24Y-128.905
X269.24Y-131.445
X269.24Y-133.985
X269.24Y-140.335
X269.24Y-142.875
X269.24Y-145.415
X269.24Y-147.955
X269.24Y-150.495
X269.24Y-153.035
X269.24Y-155.575
X269.24Y-205.74
X270.51Y-182.245
X270.51Y-210.82
X271.767Y-128.917
X271.767Y-133.998
X271.78Y-131.457
X271.78Y-142.875
X271.78Y-147.955
X271.78Y-150.495
X271.78Y-155.575
X271.78Y-212.725
X271.78Y-230.505
X271.78Y-233.68
X271.792Y-145.415
X271.792Y-153.035
X272.415Y-217.805
X272.415Y-220.345
X272.415Y-222.199
X272.415Y-225.425
X272.415Y-227.965
X273.05Y-214.178
X274.308Y-128.917
X274.308Y-133.998
X274.32Y-131.457
X275.59Y-249.555
X276.225Y-182.245
X276.86Y-128.905
X276.86Y-131.445
X276.86Y-133.985
X276.86Y-162.56
X276.98Y-219.51
X277.495Y-210.185
X277.495Y-217.805
X277.495Y-249.555
X278.13Y-162.56
X278.13Y-202.565
X278.13Y-212.725
X279.4Y-128.917
X279.4Y-131.457
X279.4Y-133.998
X279.4Y-249.555
X280.035Y-198.12
X280.035Y-200.66
X280.035Y-201.93
X280.67Y-185.42
X281.305Y-200.66
X281.305Y-201.93
X281.305Y-203.835
X281.305Y-228.6
X281.305Y-239.395
X281.305Y-249.555
X281.94Y-128.905
X281.94Y-131.445
X281.94Y-133.985
X281.94Y-244.475
X282.575Y-199.39
X282.575Y-212.725
X283.036Y-215.724
X283.185Y-216.51
X283.21Y-182.245
X283.21Y-239.395
X283.845Y-244.475
X284.467Y-128.917
X284.467Y-133.998
X284.48Y-131.457
X285.75Y-153.035
X285.75Y-155.575
X285.75Y-158.115
X285.75Y-171.45
X285.75Y-223.52
X286.385Y-139.065
X286.385Y-141.605
X286.385Y-144.145
X286.385Y-149.225
X286.385Y-198.755
X286.385Y-231.14
X286.385Y-242.57
X287.007Y-128.917
X287.007Y-133.998
X287.02Y-131.457
X287.02Y-200.025
X287.531Y-212.214
X287.655Y-179.07
X287.655Y-206.375
X287.655Y-237.49
X288.29Y-149.225
X288.29Y-153.035
X288.29Y-155.575
X288.29Y-158.115
X288.414Y-199.266
X288.751Y-204.644
X288.925Y-139.065
X288.925Y-141.605
X288.925Y-144.145
X288.925Y-146.685
X288.925Y-151.765
X288.925Y-249.555
X288.988Y-217.815
X289.56Y-207.01
X289.56Y-208.915
X289.572Y-128.892
X289.572Y-131.433
X289.572Y-133.972
X290.715Y-199.2
X290.83Y-151.765
X290.83Y-153.035
X290.83Y-155.575
X290.83Y-163.195
X290.83Y-191.625
X290.83Y-204.47
X290.83Y-249.555
X291.465Y-139.065
X291.465Y-141.605
X291.465Y-144.145
X291.465Y-146.685
X291.465Y-149.225
X292.1Y-198.225
X292.113Y-128.905
X292.113Y-131.445
X292.113Y-133.985
X292.735Y-249.555
X293.37Y-203.835
X293.37Y-205.165
X293.37Y-217.17
X293.637Y-202.933
X294.005Y-139.065
X294.005Y-141.605
X294.005Y-144.145
X294.005Y-205.915
X294.552Y-222.411
X294.64Y-163.195
X294.64Y-217.805
X294.64Y-249.555
X294.652Y-128.892
X294.652Y-131.433
X294.652Y-133.972
X295.148Y-227.076
X295.359Y-191.77
X295.656Y-228.092
X295.91Y-195.58
X295.91Y-220.98
X296.545Y-139.065
X296.545Y-141.605
X296.545Y-144.145
X296.545Y-218.44
X297.18Y-128.905
X297.18Y-133.985
X297.18Y-237.49
X297.192Y-131.445
X297.643Y-229.833
X297.815Y-198.755
X297.815Y-208.28
X297.815Y-221.615
X298.196Y-196.342
X298.45Y-148.577
X298.45Y-151.752
X298.45Y-193.04
X298.45Y-204.47
X298.92Y-222.885
X298.961Y-219.586
X298.991Y-196.471
X299.085Y-139.065
X299.085Y-141.605
X299.085Y-144.145
X299.71Y-188.278
X299.72Y-128.905
X299.72Y-133.985
X299.72Y-192.405
X299.72Y-222.885
X299.732Y-131.445
X300.35Y-196.29
X300.355Y-202.565
X300.427Y-187.924
X300.99Y-148.59
X300.99Y-151.765
X300.99Y-178.435
X300.99Y-188.595
X300.99Y-247.015
X300.99Y-248.92
X301.625Y-163.195
X301.625Y-207.645
X301.625Y-209.55
X301.625Y-211.455
X301.625Y-213.36
X301.626Y-196.84
X301.626Y-206.248
X301.935Y-221.505
X302.115Y-229.616
X302.272Y-128.892
X302.272Y-131.433
X302.272Y-133.972
X302.885Y-210.072
X302.895Y-247.015
X302.895Y-248.92
X303.53Y-139.065
X303.53Y-141.605
X303.53Y-144.145
X303.53Y-148.577
X303.53Y-151.752
X303.53Y-170.815
X303.53Y-187.96
X304.165Y-172.085
X304.165Y-193.04
X304.8Y-229.235
X304.8Y-231.775
X304.8Y-234.315
X304.8Y-247.015
X304.8Y-248.92
X304.812Y-128.905
X304.812Y-131.445
X304.812Y-133.985
X304.91Y-223.75
X305.426Y-227.965
X305.435Y-187.96
X305.66Y-223.04
X306.07Y-193.04
X306.705Y-247.015
X306.705Y-248.92
X307.213Y-219.021
X307.34Y-200.66
X307.34Y-203.2
X307.34Y-205.105
X307.34Y-207.645
X307.34Y-210.185
X307.34Y-212.725
X307.352Y-128.892
X307.352Y-131.433
X307.352Y-133.972
X307.975Y-164.465
X307.975Y-167.64
X307.975Y-171.45
X307.975Y-230.505
X308.61Y-148.577
X308.61Y-233.045
X309.121Y-227.454
X309.88Y-128.905
X309.88Y-133.985
X309.88Y-234.315
X309.892Y-131.445
X310.515Y-144.767
X310.515Y-147.308
X310.515Y-163.195
X310.515Y-193.04
X310.515Y-226.695
X310.515Y-227.965
X310.515Y-236.22
X311.15Y-151.13
X311.15Y-153.67
X311.15Y-156.21
X311.15Y-158.75
X311.15Y-212.725
X311.15Y-221.615
X311.15Y-237.49
X311.785Y-187.96
X311.785Y-198.755
X311.785Y-201.295
X311.785Y-204.47
X311.785Y-205.74
X311.785Y-214.63
X311.785Y-223.52
X312.42Y-128.905
X312.42Y-133.985
X312.42Y-249.555
X312.433Y-131.445
X313.055Y-144.78
X313.055Y-147.32
X313.055Y-163.83
X313.69Y-151.13
X313.69Y-153.67
X313.69Y-156.21
X313.69Y-158.75
X314.201Y-219.199
X314.325Y-249.555
X314.96Y-229.87
X314.99Y-219.07
X315.595Y-144.767
X315.595Y-147.308
X315.595Y-196.85
X315.595Y-198.755
X315.647Y-212.855
X315.695Y-187.867
X316.23Y-151.13
X316.23Y-153.67
X316.23Y-156.21
X316.23Y-158.75
X316.23Y-230.505
X316.23Y-249.555
X316.454Y-221.839
X316.483Y-188.004
X316.628Y-188.8
X316.879Y-192.736
X316.947Y-190.887
X317.5Y-229.87
X317.5Y-231.775
X317.831Y-191.771
X317.89Y-189.306
X318.011Y-188.471
X318.135Y-144.767
X318.135Y-147.308
X318.135Y-249.555
X318.746Y-217.779
X319.405Y-151.13
X319.405Y-153.67
X319.405Y-156.21
X319.405Y-158.75
X319.405Y-196.85
X319.405Y-213.995
X319.833Y-205.698
X320.04Y-200.66
X320.404Y-209.665
X320.675Y-144.78
X320.675Y-147.32
X320.675Y-205.74
X320.675Y-237.49
X321.31Y-198.12
X321.31Y-204.0
X321.31Y-206.375
X321.31Y-209.55
X321.431Y-207.166
X321.71Y-207.915
X321.945Y-151.13
X321.945Y-153.67
X321.945Y-156.21
X321.945Y-158.75
X321.945Y-208.915
X321.945Y-219.71
X322.58Y-218.44
X322.58Y-220.98
X322.58Y-249.555
X323.215Y-144.767
X323.215Y-147.308
X323.85Y-197.485
X323.85Y-206.375
X324.485Y-151.13
X324.485Y-153.67
X324.485Y-156.21
X324.485Y-158.75
X324.485Y-216.535
X324.485Y-249.555
X325.12Y-212.725
X325.12Y-235.64
X325.162Y-213.567
X325.755Y-220.98
X326.39Y-137.148
X326.39Y-139.688
X326.39Y-142.227
X326.39Y-144.767
X326.39Y-147.32
X326.39Y-150.495
X326.39Y-153.035
X326.39Y-163.83
X326.39Y-249.555
X326.86Y-158.75
X326.86Y-161.29
X327.025Y-190.5
X327.025Y-193.675
X327.025Y-196.215
X327.66Y-198.755
X328.295Y-201.295
X328.295Y-249.555
X328.93Y-137.16
X328.93Y-139.7
X328.93Y-142.24
X328.93Y-144.78
X328.93Y-147.332
X328.93Y-150.507
X328.93Y-153.047
X328.93Y-233.045
X329.214Y-213.606
X329.4Y-158.75
X329.4Y-161.29
X329.565Y-203.835
X330.2Y-163.83
X330.2Y-212.725
X331.34Y-213.73
X331.47Y-137.148
X331.47Y-139.688
X331.47Y-142.227
X331.47Y-144.767
X331.47Y-147.32
X331.47Y-150.495
X331.47Y-153.035
X331.47Y-227.965
X331.94Y-158.75
X331.94Y-161.29
X332.066Y-241.974
X332.105Y-237.49
X332.74Y-205.105
X333.998Y-137.16
X333.998Y-142.24
X333.998Y-147.32
X334.01Y-139.7
X334.01Y-144.78
X334.645Y-151.13
X334.645Y-153.67
X335.915Y-221.615
X335.915Y-224.155
X335.915Y-226.695
X336.537Y-137.16
X336.537Y-142.24
X336.537Y-147.32
X336.55Y-139.7
X336.55Y-144.78
X336.55Y-213.36
X337.185Y-151.13
X337.185Y-153.67
X337.185Y-164.465
X337.185Y-239.395
X337.82Y-221.615
X337.82Y-224.155
X337.82Y-226.695
X337.82Y-231.14
X337.82Y-233.045
X337.82Y-235.585
X339.725Y-151.13
X339.725Y-153.67
X339.725Y-155.575
X339.725Y-158.115
X340.995Y-241.3
X341.63Y-231.775
X342.265Y-151.13
X342.265Y-153.67
X342.265Y-155.575
X342.265Y-158.115
X342.9Y-221.615
X342.9Y-224.155
X342.9Y-226.695
X342.9Y-229.235
X342.9Y-231.775
X342.9Y-236.855
X342.9Y-238.125
X342.9Y-239.395
X343.535Y-201.295
X343.535Y-203.2
X344.17Y-185.42
X344.17Y-187.325
X344.17Y-189.23
X344.17Y-191.135
X344.17Y-213.36
X344.17Y-221.615
X344.17Y-236.855
X344.805Y-151.13
X344.805Y-153.67
X344.805Y-155.575
X344.805Y-158.115
X344.805Y-232.41
X345.44Y-201.295
X345.44Y-203.2
X345.44Y-221.615
X345.44Y-230.505
X345.44Y-231.775
X345.44Y-233.045
X345.44Y-234.315
X345.44Y-235.585
X345.44Y-236.855
X346.075Y-213.36
X346.075Y-217.17
X346.075Y-218.44
X346.075Y-220.345
X346.71Y-185.42
X346.71Y-187.325
X346.71Y-189.23
X346.71Y-191.135
X346.71Y-227.33
X347.345Y-151.13
X347.345Y-153.67
X347.345Y-201.295
X347.345Y-203.2
X347.345Y-220.98
X347.98Y-188.595
X347.98Y-213.36
X349.25Y-185.42
X349.25Y-187.325
X349.25Y-201.29
X349.25Y-203.2
X349.25Y-220.98
X349.25Y-222.25
X349.25Y-227.33
X349.65Y-218.55
X349.885Y-191.77
X350.52Y-186.69
X350.52Y-220.98
X350.52Y-222.25
X350.52Y-223.52
X350.52Y-224.79
X351.155Y-201.29
X351.155Y-203.2
X351.79Y-185.42
X351.79Y-189.23
X351.79Y-191.135
X352.425Y-227.33
X353.06Y-201.29
X353.06Y-203.2
X354.33Y-187.325
X354.33Y-189.23
X354.33Y-191.135
X355.6Y-187.325
X356.87Y-185.42
X356.87Y-187.325
X356.87Y-189.23
X356.87Y-191.135
X360.045Y-220.345
X360.045Y-222.25
X360.045Y-224.155
X360.045Y-226.06
T2
X288.29Y-203.3
X288.29Y-208.18
T3
X274.955Y-194.31
X274.955Y-196.85
X282.575Y-194.31
X282.575Y-196.85
T4
X300.355Y-236.83
X301.625Y-236.83
X302.895Y-236.83
T5
X257.026Y-193.1
X257.026Y-195.64
X257.026Y-198.18
X257.026Y-200.72
X258.151Y-177.96
X258.151Y-180.46
X258.151Y-182.96
X258.151Y-185.46
X258.151Y-187.96
X258.405Y-237.14
X258.819Y-141.605
X258.819Y-144.145
X258.819Y-146.685
X258.819Y-149.225
X258.819Y-151.765
X258.819Y-154.305
X258.819Y-156.845
X258.819Y-159.385
X258.819Y-161.925
X258.819Y-164.465
X258.819Y-167.005
X258.819Y-169.545
X260.945Y-237.14
X261.326Y-193.04
X261.326Y-195.58
X261.326Y-198.12
X261.326Y-200.66
X263.485Y-237.14
X263.888Y-175.26
X265.771Y-193.04
X265.771Y-195.58
X265.771Y-198.12
X265.771Y-200.66
X266.025Y-237.14
X266.428Y-175.26
X268.968Y-175.26
X270.216Y-193.04
X270.216Y-195.58
X270.216Y-198.12
X270.216Y-200.66
X271.508Y-175.26
X274.048Y-175.26
X275.995Y-168.942
X276.588Y-175.26
X278.535Y-168.942
X279.128Y-175.26
X279.995Y-206.22
X279.995Y-208.76
X279.995Y-211.3
X279.995Y-213.84
X279.995Y-216.38
X279.995Y-218.92
X279.995Y-221.46
X279.995Y-224.0
X279.995Y-226.54
X281.075Y-168.942
X281.668Y-175.26
X283.615Y-168.942
X284.208Y-175.26
X286.155Y-168.942
X286.748Y-175.26
X288.25Y-189.71
X288.25Y-192.25
X288.25Y-194.79
X288.25Y-197.33
X288.25Y-222.095
X288.25Y-224.635
X288.25Y-227.175
X288.29Y-182.245
X288.29Y-184.785
X288.695Y-168.942
X289.288Y-175.26
X290.83Y-182.245
X290.83Y-184.785
X291.235Y-168.942
X291.828Y-175.26
X292.06Y-222.095
X292.06Y-224.635
X292.06Y-227.175
X293.37Y-182.245
X293.37Y-184.785
X293.775Y-168.942
X295.91Y-182.245
X295.91Y-184.785
X296.315Y-168.942
X298.45Y-182.245
X298.45Y-184.785
X298.855Y-168.942
X300.99Y-182.245
X300.99Y-184.785
X301.395Y-168.942
X303.53Y-182.245
X303.53Y-184.785
X303.935Y-168.942
X306.07Y-182.245
X306.07Y-184.785
X308.61Y-182.245
X308.61Y-184.785
X311.15Y-182.245
X311.15Y-184.785
X311.785Y-168.942
X313.69Y-182.245
X313.69Y-184.785
X314.325Y-168.942
X316.23Y-182.245
X316.23Y-184.785
X316.865Y-168.942
X318.77Y-182.245
X318.77Y-184.785
X319.405Y-168.942
X321.31Y-182.245
X321.31Y-184.785
X321.945Y-168.942
X323.85Y-182.245
X323.85Y-184.785
X324.485Y-168.942
X326.39Y-182.245
X326.39Y-184.785
X327.025Y-168.942
X328.93Y-182.245
X328.93Y-184.785
X329.565Y-168.942
X331.47Y-182.245
X331.47Y-184.785
X332.105Y-168.942
X334.01Y-182.245
X334.01Y-184.785
X334.645Y-168.942
X336.55Y-182.245
X336.55Y-184.785
X337.185Y-168.942
X339.725Y-168.942
T6
X264.16Y-246.38
X269.24Y-246.38
X299.727Y-155.852
X301.072Y-140.97
X304.808Y-155.852
X306.152Y-140.97
X309.887Y-155.852
X311.232Y-140.97
X314.967Y-155.852
X316.312Y-140.97
X339.62Y-246.2
X344.7Y-246.2
X355.6Y-164.82
X355.6Y-169.9
X356.4Y-232.96
X356.4Y-238.04
T7
X269.835Y-138.39
X269.875Y-158.71
X277.455Y-138.39
X280.035Y-158.71
X282.535Y-138.39
X290.195Y-158.71
X324.76Y-219.035
X324.8Y-239.355
X327.62Y-135.713
X327.66Y-156.032
X332.38Y-219.035
X334.96Y-239.355
X335.24Y-135.713
X337.46Y-219.035
X337.82Y-156.032
X340.32Y-135.713
X345.12Y-239.355
X347.98Y-156.032
T8
X344.405Y-178.03
X344.405Y-183.11
X344.405Y-193.27
X344.405Y-198.35
X353.105Y-178.03
X353.105Y-183.11
X353.105Y-193.27
X353.105Y-198.35
T9
X254.555Y-131.365
X254.555Y-245.76
X355.95Y-131.365
X355.95Y-245.76
T10
X288.945Y-245.587
X294.945Y-245.587
X312.595Y-245.587
X318.595Y-245.587
X355.442Y-219.885
X355.442Y-225.885
T3
X347.6Y-211.35G85X347.6Y-208.65
G05
X349.55Y-205.3G85X351.25Y-205.3
G05
X353.5Y-210.85G85X353.5Y-209.15
G05
M30
