%TF.GenerationSoftware,KiCad,Pcbnew,10.0.1*%
%TF.CreationDate,2026-04-24T17:16:23-05:00*%
%TF.ProjectId,STAR_MCU,53544152-5f4d-4435-952e-6b696361645f,rev?*%
%TF.SameCoordinates,Original*%
%TF.FileFunction,OtherDrawing,Comment*%
%FSLAX46Y46*%
G04 Gerber Fmt 4.6, Leading zero omitted, Abs format (unit mm)*
G04 Created by KiCad (PCBNEW 10.0.1) date 2026-04-24 17:16:23*
%MOMM*%
%LPD*%
G01*
G04 APERTURE LIST*
%ADD10C,0.050000*%
%ADD11C,0.100000*%
G04 APERTURE END LIST*
D10*
X249555000Y-126365000D02*
X360950000Y-126365000D01*
X360950000Y-250760000D01*
X249555000Y-250760000D01*
X249555000Y-126365000D01*
D11*
X360950000Y-250760000D02*
X355950000Y-250760000D01*
D10*
X360950000Y-126365000D02*
X355950000Y-126365000D01*
D11*
X249555000Y-250760000D02*
X254555000Y-250760000D01*
X355950000Y-126365000D02*
X355950000Y-131365000D01*
X355950000Y-250760000D02*
X355950000Y-245760000D01*
X254555000Y-126365000D02*
X254555000Y-131365000D01*
X249555000Y-126365000D02*
X254555000Y-126365000D01*
X254555000Y-250760000D02*
X254555000Y-245760000D01*
D10*
X269039471Y-228144475D02*
X269029947Y-228134951D01*
X269029947Y-228134951D02*
X269020423Y-228115904D01*
X269020423Y-228115904D02*
X269020423Y-228068285D01*
X269020423Y-228068285D02*
X269029947Y-228049237D01*
X269029947Y-228049237D02*
X269039471Y-228039713D01*
X269039471Y-228039713D02*
X269058519Y-228030190D01*
X269058519Y-228030190D02*
X269077566Y-228030190D01*
X269077566Y-228030190D02*
X269106138Y-228039713D01*
X269106138Y-228039713D02*
X269220423Y-228153999D01*
X269220423Y-228153999D02*
X269220423Y-228030190D01*
X269201376Y-227944475D02*
X269210900Y-227934952D01*
X269210900Y-227934952D02*
X269220423Y-227944475D01*
X269220423Y-227944475D02*
X269210900Y-227953999D01*
X269210900Y-227953999D02*
X269201376Y-227944475D01*
X269201376Y-227944475D02*
X269220423Y-227944475D01*
X269020423Y-227753999D02*
X269020423Y-227849237D01*
X269020423Y-227849237D02*
X269115661Y-227858761D01*
X269115661Y-227858761D02*
X269106138Y-227849237D01*
X269106138Y-227849237D02*
X269096614Y-227830190D01*
X269096614Y-227830190D02*
X269096614Y-227782571D01*
X269096614Y-227782571D02*
X269106138Y-227763523D01*
X269106138Y-227763523D02*
X269115661Y-227753999D01*
X269115661Y-227753999D02*
X269134709Y-227744476D01*
X269134709Y-227744476D02*
X269182328Y-227744476D01*
X269182328Y-227744476D02*
X269201376Y-227753999D01*
X269201376Y-227753999D02*
X269210900Y-227763523D01*
X269210900Y-227763523D02*
X269220423Y-227782571D01*
X269220423Y-227782571D02*
X269220423Y-227830190D01*
X269220423Y-227830190D02*
X269210900Y-227849237D01*
X269210900Y-227849237D02*
X269201376Y-227858761D01*
X269087090Y-227573047D02*
X269220423Y-227573047D01*
X269010900Y-227620666D02*
X269153757Y-227668285D01*
X269153757Y-227668285D02*
X269153757Y-227544476D01*
X269020423Y-227430190D02*
X269020423Y-227411143D01*
X269020423Y-227411143D02*
X269029947Y-227392095D01*
X269029947Y-227392095D02*
X269039471Y-227382571D01*
X269039471Y-227382571D02*
X269058519Y-227373047D01*
X269058519Y-227373047D02*
X269096614Y-227363524D01*
X269096614Y-227363524D02*
X269144233Y-227363524D01*
X269144233Y-227363524D02*
X269182328Y-227373047D01*
X269182328Y-227373047D02*
X269201376Y-227382571D01*
X269201376Y-227382571D02*
X269210900Y-227392095D01*
X269210900Y-227392095D02*
X269220423Y-227411143D01*
X269220423Y-227411143D02*
X269220423Y-227430190D01*
X269220423Y-227430190D02*
X269210900Y-227449238D01*
X269210900Y-227449238D02*
X269201376Y-227458762D01*
X269201376Y-227458762D02*
X269182328Y-227468285D01*
X269182328Y-227468285D02*
X269144233Y-227477809D01*
X269144233Y-227477809D02*
X269096614Y-227477809D01*
X269096614Y-227477809D02*
X269058519Y-227468285D01*
X269058519Y-227468285D02*
X269039471Y-227458762D01*
X269039471Y-227458762D02*
X269029947Y-227449238D01*
X269029947Y-227449238D02*
X269020423Y-227430190D01*
X270804471Y-218790713D02*
X270794947Y-218781189D01*
X270794947Y-218781189D02*
X270785423Y-218762142D01*
X270785423Y-218762142D02*
X270785423Y-218714523D01*
X270785423Y-218714523D02*
X270794947Y-218695475D01*
X270794947Y-218695475D02*
X270804471Y-218685951D01*
X270804471Y-218685951D02*
X270823519Y-218676428D01*
X270823519Y-218676428D02*
X270842566Y-218676428D01*
X270842566Y-218676428D02*
X270871138Y-218685951D01*
X270871138Y-218685951D02*
X270985423Y-218800237D01*
X270985423Y-218800237D02*
X270985423Y-218676428D01*
X270804471Y-218600237D02*
X270794947Y-218590713D01*
X270794947Y-218590713D02*
X270785423Y-218571666D01*
X270785423Y-218571666D02*
X270785423Y-218524047D01*
X270785423Y-218524047D02*
X270794947Y-218504999D01*
X270794947Y-218504999D02*
X270804471Y-218495475D01*
X270804471Y-218495475D02*
X270823519Y-218485952D01*
X270823519Y-218485952D02*
X270842566Y-218485952D01*
X270842566Y-218485952D02*
X270871138Y-218495475D01*
X270871138Y-218495475D02*
X270985423Y-218609761D01*
X270985423Y-218609761D02*
X270985423Y-218485952D01*
X270966376Y-218400237D02*
X270975900Y-218390714D01*
X270975900Y-218390714D02*
X270985423Y-218400237D01*
X270985423Y-218400237D02*
X270975900Y-218409761D01*
X270975900Y-218409761D02*
X270966376Y-218400237D01*
X270966376Y-218400237D02*
X270985423Y-218400237D01*
X270871138Y-218276428D02*
X270861614Y-218295476D01*
X270861614Y-218295476D02*
X270852090Y-218304999D01*
X270852090Y-218304999D02*
X270833042Y-218314523D01*
X270833042Y-218314523D02*
X270823519Y-218314523D01*
X270823519Y-218314523D02*
X270804471Y-218304999D01*
X270804471Y-218304999D02*
X270794947Y-218295476D01*
X270794947Y-218295476D02*
X270785423Y-218276428D01*
X270785423Y-218276428D02*
X270785423Y-218238333D01*
X270785423Y-218238333D02*
X270794947Y-218219285D01*
X270794947Y-218219285D02*
X270804471Y-218209761D01*
X270804471Y-218209761D02*
X270823519Y-218200238D01*
X270823519Y-218200238D02*
X270833042Y-218200238D01*
X270833042Y-218200238D02*
X270852090Y-218209761D01*
X270852090Y-218209761D02*
X270861614Y-218219285D01*
X270861614Y-218219285D02*
X270871138Y-218238333D01*
X270871138Y-218238333D02*
X270871138Y-218276428D01*
X270871138Y-218276428D02*
X270880661Y-218295476D01*
X270880661Y-218295476D02*
X270890185Y-218304999D01*
X270890185Y-218304999D02*
X270909233Y-218314523D01*
X270909233Y-218314523D02*
X270947328Y-218314523D01*
X270947328Y-218314523D02*
X270966376Y-218304999D01*
X270966376Y-218304999D02*
X270975900Y-218295476D01*
X270975900Y-218295476D02*
X270985423Y-218276428D01*
X270985423Y-218276428D02*
X270985423Y-218238333D01*
X270985423Y-218238333D02*
X270975900Y-218219285D01*
X270975900Y-218219285D02*
X270966376Y-218209761D01*
X270966376Y-218209761D02*
X270947328Y-218200238D01*
X270947328Y-218200238D02*
X270909233Y-218200238D01*
X270909233Y-218200238D02*
X270890185Y-218209761D01*
X270890185Y-218209761D02*
X270880661Y-218219285D01*
X270880661Y-218219285D02*
X270871138Y-218238333D01*
X270785423Y-218028809D02*
X270785423Y-218066904D01*
X270785423Y-218066904D02*
X270794947Y-218085952D01*
X270794947Y-218085952D02*
X270804471Y-218095476D01*
X270804471Y-218095476D02*
X270833042Y-218114523D01*
X270833042Y-218114523D02*
X270871138Y-218124047D01*
X270871138Y-218124047D02*
X270947328Y-218124047D01*
X270947328Y-218124047D02*
X270966376Y-218114523D01*
X270966376Y-218114523D02*
X270975900Y-218105000D01*
X270975900Y-218105000D02*
X270985423Y-218085952D01*
X270985423Y-218085952D02*
X270985423Y-218047857D01*
X270985423Y-218047857D02*
X270975900Y-218028809D01*
X270975900Y-218028809D02*
X270966376Y-218019285D01*
X270966376Y-218019285D02*
X270947328Y-218009762D01*
X270947328Y-218009762D02*
X270899709Y-218009762D01*
X270899709Y-218009762D02*
X270880661Y-218019285D01*
X270880661Y-218019285D02*
X270871138Y-218028809D01*
X270871138Y-218028809D02*
X270861614Y-218047857D01*
X270861614Y-218047857D02*
X270861614Y-218085952D01*
X270861614Y-218085952D02*
X270871138Y-218105000D01*
X270871138Y-218105000D02*
X270880661Y-218114523D01*
X270880661Y-218114523D02*
X270899709Y-218124047D01*
X270785423Y-217885952D02*
X270785423Y-217866905D01*
X270785423Y-217866905D02*
X270794947Y-217847857D01*
X270794947Y-217847857D02*
X270804471Y-217838333D01*
X270804471Y-217838333D02*
X270823519Y-217828809D01*
X270823519Y-217828809D02*
X270861614Y-217819286D01*
X270861614Y-217819286D02*
X270909233Y-217819286D01*
X270909233Y-217819286D02*
X270947328Y-217828809D01*
X270947328Y-217828809D02*
X270966376Y-217838333D01*
X270966376Y-217838333D02*
X270975900Y-217847857D01*
X270975900Y-217847857D02*
X270985423Y-217866905D01*
X270985423Y-217866905D02*
X270985423Y-217885952D01*
X270985423Y-217885952D02*
X270975900Y-217905000D01*
X270975900Y-217905000D02*
X270966376Y-217914524D01*
X270966376Y-217914524D02*
X270947328Y-217924047D01*
X270947328Y-217924047D02*
X270909233Y-217933571D01*
X270909233Y-217933571D02*
X270861614Y-217933571D01*
X270861614Y-217933571D02*
X270823519Y-217924047D01*
X270823519Y-217924047D02*
X270804471Y-217914524D01*
X270804471Y-217914524D02*
X270794947Y-217905000D01*
X270794947Y-217905000D02*
X270785423Y-217885952D01*
X261981423Y-234460428D02*
X261981423Y-234422332D01*
X261981423Y-234422332D02*
X261971900Y-234403285D01*
X261971900Y-234403285D02*
X261962376Y-234393761D01*
X261962376Y-234393761D02*
X261933804Y-234374713D01*
X261933804Y-234374713D02*
X261895709Y-234365190D01*
X261895709Y-234365190D02*
X261819519Y-234365190D01*
X261819519Y-234365190D02*
X261800471Y-234374713D01*
X261800471Y-234374713D02*
X261790947Y-234384237D01*
X261790947Y-234384237D02*
X261781423Y-234403285D01*
X261781423Y-234403285D02*
X261781423Y-234441380D01*
X261781423Y-234441380D02*
X261790947Y-234460428D01*
X261790947Y-234460428D02*
X261800471Y-234469951D01*
X261800471Y-234469951D02*
X261819519Y-234479475D01*
X261819519Y-234479475D02*
X261867138Y-234479475D01*
X261867138Y-234479475D02*
X261886185Y-234469951D01*
X261886185Y-234469951D02*
X261895709Y-234460428D01*
X261895709Y-234460428D02*
X261905233Y-234441380D01*
X261905233Y-234441380D02*
X261905233Y-234403285D01*
X261905233Y-234403285D02*
X261895709Y-234384237D01*
X261895709Y-234384237D02*
X261886185Y-234374713D01*
X261886185Y-234374713D02*
X261867138Y-234365190D01*
X261962376Y-234279475D02*
X261971900Y-234269952D01*
X261971900Y-234269952D02*
X261981423Y-234279475D01*
X261981423Y-234279475D02*
X261971900Y-234288999D01*
X261971900Y-234288999D02*
X261962376Y-234279475D01*
X261962376Y-234279475D02*
X261981423Y-234279475D01*
X261800471Y-234193761D02*
X261790947Y-234184237D01*
X261790947Y-234184237D02*
X261781423Y-234165190D01*
X261781423Y-234165190D02*
X261781423Y-234117571D01*
X261781423Y-234117571D02*
X261790947Y-234098523D01*
X261790947Y-234098523D02*
X261800471Y-234088999D01*
X261800471Y-234088999D02*
X261819519Y-234079476D01*
X261819519Y-234079476D02*
X261838566Y-234079476D01*
X261838566Y-234079476D02*
X261867138Y-234088999D01*
X261867138Y-234088999D02*
X261981423Y-234203285D01*
X261981423Y-234203285D02*
X261981423Y-234079476D01*
X261781423Y-234012809D02*
X261781423Y-233879476D01*
X261781423Y-233879476D02*
X261981423Y-233965190D01*
X261981423Y-233698524D02*
X261981423Y-233812809D01*
X261981423Y-233755666D02*
X261781423Y-233755666D01*
X261781423Y-233755666D02*
X261809995Y-233774714D01*
X261809995Y-233774714D02*
X261829042Y-233793762D01*
X261829042Y-233793762D02*
X261838566Y-233812809D01*
X252902971Y-219290713D02*
X252893447Y-219281189D01*
X252893447Y-219281189D02*
X252883923Y-219262142D01*
X252883923Y-219262142D02*
X252883923Y-219214523D01*
X252883923Y-219214523D02*
X252893447Y-219195475D01*
X252893447Y-219195475D02*
X252902971Y-219185951D01*
X252902971Y-219185951D02*
X252922019Y-219176428D01*
X252922019Y-219176428D02*
X252941066Y-219176428D01*
X252941066Y-219176428D02*
X252969638Y-219185951D01*
X252969638Y-219185951D02*
X253083923Y-219300237D01*
X253083923Y-219300237D02*
X253083923Y-219176428D01*
X252883923Y-218995475D02*
X252883923Y-219090713D01*
X252883923Y-219090713D02*
X252979161Y-219100237D01*
X252979161Y-219100237D02*
X252969638Y-219090713D01*
X252969638Y-219090713D02*
X252960114Y-219071666D01*
X252960114Y-219071666D02*
X252960114Y-219024047D01*
X252960114Y-219024047D02*
X252969638Y-219004999D01*
X252969638Y-219004999D02*
X252979161Y-218995475D01*
X252979161Y-218995475D02*
X252998209Y-218985952D01*
X252998209Y-218985952D02*
X253045828Y-218985952D01*
X253045828Y-218985952D02*
X253064876Y-218995475D01*
X253064876Y-218995475D02*
X253074400Y-219004999D01*
X253074400Y-219004999D02*
X253083923Y-219024047D01*
X253083923Y-219024047D02*
X253083923Y-219071666D01*
X253083923Y-219071666D02*
X253074400Y-219090713D01*
X253074400Y-219090713D02*
X253064876Y-219100237D01*
X253064876Y-218900237D02*
X253074400Y-218890714D01*
X253074400Y-218890714D02*
X253083923Y-218900237D01*
X253083923Y-218900237D02*
X253074400Y-218909761D01*
X253074400Y-218909761D02*
X253064876Y-218900237D01*
X253064876Y-218900237D02*
X253083923Y-218900237D01*
X252950590Y-218719285D02*
X253083923Y-218719285D01*
X252874400Y-218766904D02*
X253017257Y-218814523D01*
X253017257Y-218814523D02*
X253017257Y-218690714D01*
X252883923Y-218576428D02*
X252883923Y-218557381D01*
X252883923Y-218557381D02*
X252893447Y-218538333D01*
X252893447Y-218538333D02*
X252902971Y-218528809D01*
X252902971Y-218528809D02*
X252922019Y-218519285D01*
X252922019Y-218519285D02*
X252960114Y-218509762D01*
X252960114Y-218509762D02*
X253007733Y-218509762D01*
X253007733Y-218509762D02*
X253045828Y-218519285D01*
X253045828Y-218519285D02*
X253064876Y-218528809D01*
X253064876Y-218528809D02*
X253074400Y-218538333D01*
X253074400Y-218538333D02*
X253083923Y-218557381D01*
X253083923Y-218557381D02*
X253083923Y-218576428D01*
X253083923Y-218576428D02*
X253074400Y-218595476D01*
X253074400Y-218595476D02*
X253064876Y-218605000D01*
X253064876Y-218605000D02*
X253045828Y-218614523D01*
X253045828Y-218614523D02*
X253007733Y-218624047D01*
X253007733Y-218624047D02*
X252960114Y-218624047D01*
X252960114Y-218624047D02*
X252922019Y-218614523D01*
X252922019Y-218614523D02*
X252902971Y-218605000D01*
X252902971Y-218605000D02*
X252893447Y-218595476D01*
X252893447Y-218595476D02*
X252883923Y-218576428D01*
X252883923Y-218385952D02*
X252883923Y-218366905D01*
X252883923Y-218366905D02*
X252893447Y-218347857D01*
X252893447Y-218347857D02*
X252902971Y-218338333D01*
X252902971Y-218338333D02*
X252922019Y-218328809D01*
X252922019Y-218328809D02*
X252960114Y-218319286D01*
X252960114Y-218319286D02*
X253007733Y-218319286D01*
X253007733Y-218319286D02*
X253045828Y-218328809D01*
X253045828Y-218328809D02*
X253064876Y-218338333D01*
X253064876Y-218338333D02*
X253074400Y-218347857D01*
X253074400Y-218347857D02*
X253083923Y-218366905D01*
X253083923Y-218366905D02*
X253083923Y-218385952D01*
X253083923Y-218385952D02*
X253074400Y-218405000D01*
X253074400Y-218405000D02*
X253064876Y-218414524D01*
X253064876Y-218414524D02*
X253045828Y-218424047D01*
X253045828Y-218424047D02*
X253007733Y-218433571D01*
X253007733Y-218433571D02*
X252960114Y-218433571D01*
X252960114Y-218433571D02*
X252922019Y-218424047D01*
X252922019Y-218424047D02*
X252902971Y-218414524D01*
X252902971Y-218414524D02*
X252893447Y-218405000D01*
X252893447Y-218405000D02*
X252883923Y-218385952D01*
X270109423Y-218676428D02*
X270109423Y-218790713D01*
X270109423Y-218733570D02*
X269909423Y-218733570D01*
X269909423Y-218733570D02*
X269937995Y-218752618D01*
X269937995Y-218752618D02*
X269957042Y-218771666D01*
X269957042Y-218771666D02*
X269966566Y-218790713D01*
X269909423Y-218495475D02*
X269909423Y-218590713D01*
X269909423Y-218590713D02*
X270004661Y-218600237D01*
X270004661Y-218600237D02*
X269995138Y-218590713D01*
X269995138Y-218590713D02*
X269985614Y-218571666D01*
X269985614Y-218571666D02*
X269985614Y-218524047D01*
X269985614Y-218524047D02*
X269995138Y-218504999D01*
X269995138Y-218504999D02*
X270004661Y-218495475D01*
X270004661Y-218495475D02*
X270023709Y-218485952D01*
X270023709Y-218485952D02*
X270071328Y-218485952D01*
X270071328Y-218485952D02*
X270090376Y-218495475D01*
X270090376Y-218495475D02*
X270099900Y-218504999D01*
X270099900Y-218504999D02*
X270109423Y-218524047D01*
X270109423Y-218524047D02*
X270109423Y-218571666D01*
X270109423Y-218571666D02*
X270099900Y-218590713D01*
X270099900Y-218590713D02*
X270090376Y-218600237D01*
X270090376Y-218400237D02*
X270099900Y-218390714D01*
X270099900Y-218390714D02*
X270109423Y-218400237D01*
X270109423Y-218400237D02*
X270099900Y-218409761D01*
X270099900Y-218409761D02*
X270090376Y-218400237D01*
X270090376Y-218400237D02*
X270109423Y-218400237D01*
X269928471Y-218314523D02*
X269918947Y-218304999D01*
X269918947Y-218304999D02*
X269909423Y-218285952D01*
X269909423Y-218285952D02*
X269909423Y-218238333D01*
X269909423Y-218238333D02*
X269918947Y-218219285D01*
X269918947Y-218219285D02*
X269928471Y-218209761D01*
X269928471Y-218209761D02*
X269947519Y-218200238D01*
X269947519Y-218200238D02*
X269966566Y-218200238D01*
X269966566Y-218200238D02*
X269995138Y-218209761D01*
X269995138Y-218209761D02*
X270109423Y-218324047D01*
X270109423Y-218324047D02*
X270109423Y-218200238D01*
X269976090Y-218028809D02*
X270109423Y-218028809D01*
X269899900Y-218076428D02*
X270042757Y-218124047D01*
X270042757Y-218124047D02*
X270042757Y-218000238D01*
X269909423Y-217885952D02*
X269909423Y-217866905D01*
X269909423Y-217866905D02*
X269918947Y-217847857D01*
X269918947Y-217847857D02*
X269928471Y-217838333D01*
X269928471Y-217838333D02*
X269947519Y-217828809D01*
X269947519Y-217828809D02*
X269985614Y-217819286D01*
X269985614Y-217819286D02*
X270033233Y-217819286D01*
X270033233Y-217819286D02*
X270071328Y-217828809D01*
X270071328Y-217828809D02*
X270090376Y-217838333D01*
X270090376Y-217838333D02*
X270099900Y-217847857D01*
X270099900Y-217847857D02*
X270109423Y-217866905D01*
X270109423Y-217866905D02*
X270109423Y-217885952D01*
X270109423Y-217885952D02*
X270099900Y-217905000D01*
X270099900Y-217905000D02*
X270090376Y-217914524D01*
X270090376Y-217914524D02*
X270071328Y-217924047D01*
X270071328Y-217924047D02*
X270033233Y-217933571D01*
X270033233Y-217933571D02*
X269985614Y-217933571D01*
X269985614Y-217933571D02*
X269947519Y-217924047D01*
X269947519Y-217924047D02*
X269928471Y-217914524D01*
X269928471Y-217914524D02*
X269918947Y-217905000D01*
X269918947Y-217905000D02*
X269909423Y-217885952D01*
X261781423Y-232557237D02*
X261781423Y-232595332D01*
X261781423Y-232595332D02*
X261790947Y-232614380D01*
X261790947Y-232614380D02*
X261800471Y-232623904D01*
X261800471Y-232623904D02*
X261829042Y-232642951D01*
X261829042Y-232642951D02*
X261867138Y-232652475D01*
X261867138Y-232652475D02*
X261943328Y-232652475D01*
X261943328Y-232652475D02*
X261962376Y-232642951D01*
X261962376Y-232642951D02*
X261971900Y-232633428D01*
X261971900Y-232633428D02*
X261981423Y-232614380D01*
X261981423Y-232614380D02*
X261981423Y-232576285D01*
X261981423Y-232576285D02*
X261971900Y-232557237D01*
X261971900Y-232557237D02*
X261962376Y-232547713D01*
X261962376Y-232547713D02*
X261943328Y-232538190D01*
X261943328Y-232538190D02*
X261895709Y-232538190D01*
X261895709Y-232538190D02*
X261876661Y-232547713D01*
X261876661Y-232547713D02*
X261867138Y-232557237D01*
X261867138Y-232557237D02*
X261857614Y-232576285D01*
X261857614Y-232576285D02*
X261857614Y-232614380D01*
X261857614Y-232614380D02*
X261867138Y-232633428D01*
X261867138Y-232633428D02*
X261876661Y-232642951D01*
X261876661Y-232642951D02*
X261895709Y-232652475D01*
X261962376Y-232452475D02*
X261971900Y-232442952D01*
X261971900Y-232442952D02*
X261981423Y-232452475D01*
X261981423Y-232452475D02*
X261971900Y-232461999D01*
X261971900Y-232461999D02*
X261962376Y-232452475D01*
X261962376Y-232452475D02*
X261981423Y-232452475D01*
X261867138Y-232328666D02*
X261857614Y-232347714D01*
X261857614Y-232347714D02*
X261848090Y-232357237D01*
X261848090Y-232357237D02*
X261829042Y-232366761D01*
X261829042Y-232366761D02*
X261819519Y-232366761D01*
X261819519Y-232366761D02*
X261800471Y-232357237D01*
X261800471Y-232357237D02*
X261790947Y-232347714D01*
X261790947Y-232347714D02*
X261781423Y-232328666D01*
X261781423Y-232328666D02*
X261781423Y-232290571D01*
X261781423Y-232290571D02*
X261790947Y-232271523D01*
X261790947Y-232271523D02*
X261800471Y-232261999D01*
X261800471Y-232261999D02*
X261819519Y-232252476D01*
X261819519Y-232252476D02*
X261829042Y-232252476D01*
X261829042Y-232252476D02*
X261848090Y-232261999D01*
X261848090Y-232261999D02*
X261857614Y-232271523D01*
X261857614Y-232271523D02*
X261867138Y-232290571D01*
X261867138Y-232290571D02*
X261867138Y-232328666D01*
X261867138Y-232328666D02*
X261876661Y-232347714D01*
X261876661Y-232347714D02*
X261886185Y-232357237D01*
X261886185Y-232357237D02*
X261905233Y-232366761D01*
X261905233Y-232366761D02*
X261943328Y-232366761D01*
X261943328Y-232366761D02*
X261962376Y-232357237D01*
X261962376Y-232357237D02*
X261971900Y-232347714D01*
X261971900Y-232347714D02*
X261981423Y-232328666D01*
X261981423Y-232328666D02*
X261981423Y-232290571D01*
X261981423Y-232290571D02*
X261971900Y-232271523D01*
X261971900Y-232271523D02*
X261962376Y-232261999D01*
X261962376Y-232261999D02*
X261943328Y-232252476D01*
X261943328Y-232252476D02*
X261905233Y-232252476D01*
X261905233Y-232252476D02*
X261886185Y-232261999D01*
X261886185Y-232261999D02*
X261876661Y-232271523D01*
X261876661Y-232271523D02*
X261867138Y-232290571D01*
X261781423Y-232071523D02*
X261781423Y-232166761D01*
X261781423Y-232166761D02*
X261876661Y-232176285D01*
X261876661Y-232176285D02*
X261867138Y-232166761D01*
X261867138Y-232166761D02*
X261857614Y-232147714D01*
X261857614Y-232147714D02*
X261857614Y-232100095D01*
X261857614Y-232100095D02*
X261867138Y-232081047D01*
X261867138Y-232081047D02*
X261876661Y-232071523D01*
X261876661Y-232071523D02*
X261895709Y-232062000D01*
X261895709Y-232062000D02*
X261943328Y-232062000D01*
X261943328Y-232062000D02*
X261962376Y-232071523D01*
X261962376Y-232071523D02*
X261971900Y-232081047D01*
X261971900Y-232081047D02*
X261981423Y-232100095D01*
X261981423Y-232100095D02*
X261981423Y-232147714D01*
X261981423Y-232147714D02*
X261971900Y-232166761D01*
X261971900Y-232166761D02*
X261962376Y-232176285D01*
X261867138Y-231947714D02*
X261857614Y-231966762D01*
X261857614Y-231966762D02*
X261848090Y-231976285D01*
X261848090Y-231976285D02*
X261829042Y-231985809D01*
X261829042Y-231985809D02*
X261819519Y-231985809D01*
X261819519Y-231985809D02*
X261800471Y-231976285D01*
X261800471Y-231976285D02*
X261790947Y-231966762D01*
X261790947Y-231966762D02*
X261781423Y-231947714D01*
X261781423Y-231947714D02*
X261781423Y-231909619D01*
X261781423Y-231909619D02*
X261790947Y-231890571D01*
X261790947Y-231890571D02*
X261800471Y-231881047D01*
X261800471Y-231881047D02*
X261819519Y-231871524D01*
X261819519Y-231871524D02*
X261829042Y-231871524D01*
X261829042Y-231871524D02*
X261848090Y-231881047D01*
X261848090Y-231881047D02*
X261857614Y-231890571D01*
X261857614Y-231890571D02*
X261867138Y-231909619D01*
X261867138Y-231909619D02*
X261867138Y-231947714D01*
X261867138Y-231947714D02*
X261876661Y-231966762D01*
X261876661Y-231966762D02*
X261886185Y-231976285D01*
X261886185Y-231976285D02*
X261905233Y-231985809D01*
X261905233Y-231985809D02*
X261943328Y-231985809D01*
X261943328Y-231985809D02*
X261962376Y-231976285D01*
X261962376Y-231976285D02*
X261971900Y-231966762D01*
X261971900Y-231966762D02*
X261981423Y-231947714D01*
X261981423Y-231947714D02*
X261981423Y-231909619D01*
X261981423Y-231909619D02*
X261971900Y-231890571D01*
X261971900Y-231890571D02*
X261962376Y-231881047D01*
X261962376Y-231881047D02*
X261943328Y-231871524D01*
X261943328Y-231871524D02*
X261905233Y-231871524D01*
X261905233Y-231871524D02*
X261886185Y-231881047D01*
X261886185Y-231881047D02*
X261876661Y-231890571D01*
X261876661Y-231890571D02*
X261867138Y-231909619D01*
%TO.C,J13*%
D11*
X252474500Y-205440000D02*
X252633500Y-204805000D01*
X252474500Y-229570000D02*
X252633500Y-229697000D01*
X252553500Y-205377000D02*
X252474500Y-205440000D01*
X252553500Y-229633000D02*
X252633500Y-229697000D01*
X252633500Y-204805000D02*
X252553500Y-205377000D01*
X252633500Y-204805000D02*
X252712500Y-205377000D01*
X252633500Y-204805000D02*
X252791500Y-205440000D01*
X252633500Y-205313000D02*
X252474500Y-205440000D01*
X252633500Y-205313000D02*
X252633500Y-204805000D01*
X252633500Y-216514000D02*
X252633500Y-204805000D01*
X252633500Y-218496000D02*
X252633500Y-230205000D01*
X252633500Y-229697000D02*
X252633500Y-230205000D01*
X252633500Y-229697000D02*
X252791500Y-229570000D01*
X252633500Y-230205000D02*
X252474500Y-229570000D01*
X252633500Y-230205000D02*
X252553500Y-229633000D01*
X252633500Y-230205000D02*
X252712500Y-229633000D01*
X252712500Y-205377000D02*
X252633500Y-205313000D01*
X252712500Y-229633000D02*
X252791500Y-229570000D01*
X252791500Y-205440000D02*
X252633500Y-205313000D01*
X252791500Y-229570000D02*
X252633500Y-230205000D01*
X255407500Y-204355000D02*
X268248500Y-204355000D01*
X255407500Y-230655000D02*
X255407500Y-204355000D01*
X256681500Y-204805000D02*
X251932500Y-204805000D01*
X256681500Y-230205000D02*
X251932500Y-230205000D01*
X257382500Y-230906000D02*
X257382500Y-234129000D01*
X257382500Y-233428000D02*
X257954500Y-233349000D01*
X257382500Y-233428000D02*
X257954500Y-233508000D01*
X257382500Y-233428000D02*
X258018500Y-233270000D01*
X257890500Y-233428000D02*
X257382500Y-233428000D01*
X257890500Y-233428000D02*
X258018500Y-233587000D01*
X257954500Y-233349000D02*
X257890500Y-233428000D01*
X257954500Y-233508000D02*
X258018500Y-233587000D01*
X258018500Y-233270000D02*
X257890500Y-233428000D01*
X258018500Y-233587000D02*
X257382500Y-233428000D01*
X258398500Y-225826000D02*
X258398500Y-232303000D01*
X258398500Y-231602000D02*
X258970500Y-231523000D01*
X258398500Y-231602000D02*
X258970500Y-231681000D01*
X258398500Y-231602000D02*
X259034500Y-231443000D01*
X258906500Y-231602000D02*
X258398500Y-231602000D01*
X258906500Y-231602000D02*
X259034500Y-231761000D01*
X258970500Y-231523000D02*
X258906500Y-231602000D01*
X258970500Y-231681000D02*
X259034500Y-231761000D01*
X259034500Y-231443000D02*
X258906500Y-231602000D01*
X259034500Y-231761000D02*
X258398500Y-231602000D01*
X261700500Y-231602000D02*
X258398500Y-231602000D01*
X261700500Y-233428000D02*
X257382500Y-233428000D01*
X262336500Y-231602000D02*
X265256500Y-231602000D01*
X262336500Y-233428000D02*
X266654500Y-233428000D01*
X262719500Y-206075000D02*
X271723500Y-206075000D01*
X262719500Y-228935000D02*
X271723500Y-228935000D01*
X264622500Y-231443000D02*
X265256500Y-231602000D01*
X264622500Y-231761000D02*
X264748500Y-231602000D01*
X264685500Y-231523000D02*
X264622500Y-231443000D01*
X264685500Y-231681000D02*
X264748500Y-231602000D01*
X264748500Y-231602000D02*
X264622500Y-231443000D01*
X264748500Y-231602000D02*
X265256500Y-231602000D01*
X265256500Y-225826000D02*
X265256500Y-232303000D01*
X265256500Y-231602000D02*
X264622500Y-231761000D01*
X265256500Y-231602000D02*
X264685500Y-231523000D01*
X265256500Y-231602000D02*
X264685500Y-231681000D01*
X265958500Y-209885000D02*
X270847500Y-209885000D01*
X265958500Y-222585000D02*
X269958500Y-222585000D01*
X265958500Y-225125000D02*
X269958500Y-225125000D01*
X265958500Y-225125000D02*
X270847500Y-225125000D01*
X266018500Y-233270000D02*
X266654500Y-233428000D01*
X266018500Y-233587000D02*
X266146500Y-233428000D01*
X266082500Y-233349000D02*
X266018500Y-233270000D01*
X266082500Y-233508000D02*
X266146500Y-233428000D01*
X266146500Y-233428000D02*
X266018500Y-233270000D01*
X266146500Y-233428000D02*
X266654500Y-233428000D01*
X266654500Y-230906000D02*
X266654500Y-234129000D01*
X266654500Y-233428000D02*
X266018500Y-233587000D01*
X266654500Y-233428000D02*
X266082500Y-233349000D01*
X266654500Y-233428000D02*
X266082500Y-233508000D01*
X268248500Y-204355000D02*
X268248500Y-230655000D01*
X268248500Y-230655000D02*
X255407500Y-230655000D01*
X269098500Y-223220000D02*
X269257500Y-222585000D01*
X269098500Y-224490000D02*
X269257500Y-224617000D01*
X269178500Y-223157000D02*
X269098500Y-223220000D01*
X269178500Y-224553000D02*
X269257500Y-224617000D01*
X269257500Y-222585000D02*
X269178500Y-223157000D01*
X269257500Y-222585000D02*
X269336500Y-223157000D01*
X269257500Y-222585000D02*
X269416500Y-223220000D01*
X269257500Y-223093000D02*
X269098500Y-223220000D01*
X269257500Y-223093000D02*
X269257500Y-222585000D01*
X269257500Y-224617000D02*
X269257500Y-225125000D01*
X269257500Y-224617000D02*
X269416500Y-224490000D01*
X269257500Y-225125000D02*
X269098500Y-224490000D01*
X269257500Y-225125000D02*
X269178500Y-224553000D01*
X269257500Y-225125000D02*
X269257500Y-222585000D01*
X269257500Y-225125000D02*
X269336500Y-224553000D01*
X269257500Y-226243000D02*
X269257500Y-225125000D01*
X269336500Y-223157000D02*
X269257500Y-223093000D01*
X269336500Y-224553000D02*
X269416500Y-224490000D01*
X269416500Y-223220000D02*
X269257500Y-223093000D01*
X269416500Y-224490000D02*
X269257500Y-225125000D01*
X269987500Y-210520000D02*
X270146500Y-209885000D01*
X269987500Y-224490000D02*
X270146500Y-224617000D01*
X270067500Y-210457000D02*
X269987500Y-210520000D01*
X270067500Y-224553000D02*
X270146500Y-224617000D01*
X270146500Y-209885000D02*
X270067500Y-210457000D01*
X270146500Y-209885000D02*
X270225500Y-210457000D01*
X270146500Y-209885000D02*
X270305500Y-210520000D01*
X270146500Y-210393000D02*
X269987500Y-210520000D01*
X270146500Y-210393000D02*
X270146500Y-209885000D01*
X270146500Y-216514000D02*
X270146500Y-209885000D01*
X270146500Y-218496000D02*
X270146500Y-225125000D01*
X270146500Y-224617000D02*
X270146500Y-225125000D01*
X270146500Y-224617000D02*
X270305500Y-224490000D01*
X270146500Y-225125000D02*
X269987500Y-224490000D01*
X270146500Y-225125000D02*
X270067500Y-224553000D01*
X270146500Y-225125000D02*
X270225500Y-224553000D01*
X270225500Y-210457000D02*
X270146500Y-210393000D01*
X270225500Y-224553000D02*
X270305500Y-224490000D01*
X270305500Y-210520000D02*
X270146500Y-210393000D01*
X270305500Y-224490000D02*
X270146500Y-225125000D01*
X270864500Y-206710000D02*
X271022500Y-206075000D01*
X270864500Y-228300000D02*
X271022500Y-228427000D01*
X270943500Y-206647000D02*
X270864500Y-206710000D01*
X270943500Y-228363000D02*
X271022500Y-228427000D01*
X271022500Y-206075000D02*
X270943500Y-206647000D01*
X271022500Y-206075000D02*
X271102500Y-206647000D01*
X271022500Y-206075000D02*
X271181500Y-206710000D01*
X271022500Y-206583000D02*
X270864500Y-206710000D01*
X271022500Y-206583000D02*
X271022500Y-206075000D01*
X271022500Y-216514000D02*
X271022500Y-206075000D01*
X271022500Y-218496000D02*
X271022500Y-228935000D01*
X271022500Y-228427000D02*
X271022500Y-228935000D01*
X271022500Y-228427000D02*
X271181500Y-228300000D01*
X271022500Y-228935000D02*
X270864500Y-228300000D01*
X271022500Y-228935000D02*
X270943500Y-228363000D01*
X271022500Y-228935000D02*
X271102500Y-228363000D01*
X271102500Y-206647000D02*
X271022500Y-206583000D01*
X271102500Y-228363000D02*
X271181500Y-228300000D01*
X271181500Y-206710000D02*
X271022500Y-206583000D01*
X271181500Y-228300000D02*
X271022500Y-228935000D01*
%TD*%
M02*
