%TF.GenerationSoftware,KiCad,Pcbnew,10.0.1*%
%TF.CreationDate,2026-04-24T17:16:23-05:00*%
%TF.ProjectId,STAR_MCU,53544152-5f4d-4435-952e-6b696361645f,rev?*%
%TF.SameCoordinates,Original*%
%TF.FileFunction,Other,User*%
%FSLAX46Y46*%
G04 Gerber Fmt 4.6, Leading zero omitted, Abs format (unit mm)*
G04 Created by KiCad (PCBNEW 10.0.1) date 2026-04-24 17:16:23*
%MOMM*%
%LPD*%
G01*
G04 APERTURE LIST*
%ADD10C,0.050000*%
%ADD11C,0.000000*%
G04 APERTURE END LIST*
%TO.C,C49*%
D10*
X302680000Y-196550000D02*
X306440000Y-196550000D01*
X306440000Y-198510000D01*
X302680000Y-198510000D01*
X302680000Y-196550000D01*
%TO.C,C74*%
X307792500Y-207460000D02*
X311552500Y-207460000D01*
X311552500Y-209420000D01*
X307792500Y-209420000D01*
X307792500Y-207460000D01*
%TO.C,R19*%
X305412500Y-231045000D02*
X308712500Y-231045000D01*
X308712500Y-232505000D01*
X305412500Y-232505000D01*
X305412500Y-231045000D01*
%TO.C,C26*%
X307767500Y-202060000D02*
X311527500Y-202060000D01*
X311527500Y-204020000D01*
X307767500Y-204020000D01*
X307767500Y-202060000D01*
%TO.C,R14*%
X272923500Y-224713000D02*
X276223500Y-224713000D01*
X276223500Y-226173000D01*
X272923500Y-226173000D01*
X272923500Y-224713000D01*
%TO.C,R35*%
X272911500Y-209578000D02*
X276211500Y-209578000D01*
X276211500Y-211038000D01*
X272911500Y-211038000D01*
X272911500Y-209578000D01*
%TO.C,C69*%
X289587500Y-189875000D02*
X292887500Y-189875000D01*
X292887500Y-191335000D01*
X289587500Y-191335000D01*
X289587500Y-189875000D01*
%TO.C,C94*%
X301530000Y-188850000D02*
X302990000Y-188850000D01*
X302990000Y-192150000D01*
X301530000Y-192150000D01*
X301530000Y-188850000D01*
%TO.C,J17*%
X262117750Y-173490000D02*
X293597750Y-173490000D01*
X262117750Y-177030000D02*
X262117750Y-173490000D01*
X293597750Y-173490000D02*
X293597750Y-177030000D01*
X293597750Y-177030000D02*
X262117750Y-177030000D01*
%TO.C,C78*%
X307730000Y-210160000D02*
X311490000Y-210160000D01*
X311490000Y-212120000D01*
X307730000Y-212120000D01*
X307730000Y-210160000D01*
%TO.C,C111*%
X260617750Y-177810000D02*
X260617750Y-181110000D01*
X260617750Y-181110000D02*
X262077750Y-181110000D01*
X262077750Y-177810000D02*
X260617750Y-177810000D01*
X262077750Y-181110000D02*
X262077750Y-177810000D01*
%TO.C,R64*%
X282480000Y-177810000D02*
X282480000Y-181110000D01*
X282480000Y-181110000D02*
X283940000Y-181110000D01*
X283940000Y-177810000D02*
X282480000Y-177810000D01*
X283940000Y-181110000D02*
X283940000Y-177810000D01*
%TO.C,R71*%
X282512500Y-220730000D02*
X282512500Y-222190000D01*
X282512500Y-222190000D02*
X285812500Y-222190000D01*
X285812500Y-220730000D02*
X282512500Y-220730000D01*
X285812500Y-222190000D02*
X285812500Y-220730000D01*
%TO.C,C97*%
X299030000Y-188850000D02*
X300490000Y-188850000D01*
X300490000Y-192150000D01*
X299030000Y-192150000D01*
X299030000Y-188850000D01*
%TO.C,C67*%
X302680000Y-210260000D02*
X306440000Y-210260000D01*
X306440000Y-212220000D01*
X302680000Y-212220000D01*
X302680000Y-210260000D01*
%TO.C,C81*%
X289587500Y-192415000D02*
X292887500Y-192415000D01*
X292887500Y-193875000D01*
X289587500Y-193875000D01*
X289587500Y-192415000D01*
%TO.C,PS2*%
X324870000Y-132962500D02*
X350770000Y-132962500D01*
X324870000Y-158862500D02*
X324870000Y-132962500D01*
X350770000Y-132962500D02*
X350770000Y-158862500D01*
X350770000Y-158862500D02*
X324870000Y-158862500D01*
%TO.C,R15*%
X272923500Y-229793000D02*
X276223500Y-229793000D01*
X276223500Y-231253000D01*
X272923500Y-231253000D01*
X272923500Y-229793000D01*
%TO.C,PS3*%
X322010000Y-216285000D02*
X347910000Y-216285000D01*
X322010000Y-242185000D02*
X322010000Y-216285000D01*
X347910000Y-216285000D02*
X347910000Y-242185000D01*
X347910000Y-242185000D02*
X322010000Y-242185000D01*
%TO.C,R70*%
X290410000Y-214380000D02*
X290410000Y-215840000D01*
X290410000Y-215840000D02*
X293710000Y-215840000D01*
X293710000Y-214380000D02*
X290410000Y-214380000D01*
X293710000Y-215840000D02*
X293710000Y-214380000D01*
%TO.C,C84*%
X297735000Y-201010000D02*
X301035000Y-201010000D01*
X301035000Y-202470000D01*
X297735000Y-202470000D01*
X297735000Y-201010000D01*
%TO.C,R20*%
X305412500Y-233585000D02*
X308712500Y-233585000D01*
X308712500Y-235045000D01*
X305412500Y-235045000D01*
X305412500Y-233585000D01*
%TO.C,R80*%
X263157750Y-177810000D02*
X263157750Y-181110000D01*
X263157750Y-181110000D02*
X264617750Y-181110000D01*
X264617750Y-177810000D02*
X263157750Y-177810000D01*
X264617750Y-181110000D02*
X264617750Y-177810000D01*
%TO.C,C64*%
X307767500Y-204760000D02*
X311527500Y-204760000D01*
X311527500Y-206720000D01*
X307767500Y-206720000D01*
X307767500Y-204760000D01*
%TO.C,C65*%
X312472500Y-213210000D02*
X315772500Y-213210000D01*
X315772500Y-214670000D01*
X312472500Y-214670000D01*
X312472500Y-213210000D01*
%TO.C,R69*%
X294855000Y-218825000D02*
X294855000Y-220285000D01*
X294855000Y-220285000D02*
X298155000Y-220285000D01*
X298155000Y-218825000D02*
X294855000Y-218825000D01*
X298155000Y-220285000D02*
X298155000Y-218825000D01*
%TO.C,R38*%
X272923500Y-219633000D02*
X276223500Y-219633000D01*
X276223500Y-221093000D01*
X272923500Y-221093000D01*
X272923500Y-219633000D01*
%TO.C,C55*%
X309460000Y-218825000D02*
X312760000Y-218825000D01*
X312760000Y-220285000D01*
X309460000Y-220285000D01*
X309460000Y-218825000D01*
%TO.C,J3*%
X278225000Y-204450000D02*
X281765000Y-204450000D01*
X281765000Y-228310000D01*
X278225000Y-228310000D01*
X278225000Y-204450000D01*
%TO.C,C80*%
X321005000Y-198430000D02*
X324305000Y-198430000D01*
X324305000Y-199890000D01*
X321005000Y-199890000D01*
X321005000Y-198430000D01*
%TO.C,PS1*%
X267085000Y-135640000D02*
X292985000Y-135640000D01*
X267085000Y-161540000D02*
X267085000Y-135640000D01*
X292985000Y-135640000D02*
X292985000Y-161540000D01*
X292985000Y-161540000D02*
X267085000Y-161540000D01*
%TO.C,R82*%
X273317750Y-177810000D02*
X273317750Y-181110000D01*
X273317750Y-181110000D02*
X274777750Y-181110000D01*
X274777750Y-177810000D02*
X273317750Y-177810000D01*
X274777750Y-181110000D02*
X274777750Y-177810000D01*
%TO.C,C57*%
X295180000Y-192025000D02*
X296640000Y-192025000D01*
X296640000Y-195325000D01*
X295180000Y-195325000D01*
X295180000Y-192025000D01*
%TO.C,C90*%
X312510000Y-203210000D02*
X315810000Y-203210000D01*
X315810000Y-204670000D01*
X312510000Y-204670000D01*
X312510000Y-203210000D01*
%TO.C,C92*%
X312510000Y-205210000D02*
X315810000Y-205210000D01*
X315810000Y-206670000D01*
X312510000Y-206670000D01*
X312510000Y-205210000D01*
%TO.C,C58*%
X307767500Y-199360000D02*
X311527500Y-199360000D01*
X311527500Y-201320000D01*
X307767500Y-201320000D01*
X307767500Y-199360000D01*
%TO.C,C88*%
X304030000Y-188850000D02*
X305490000Y-188850000D01*
X305490000Y-192150000D01*
X304030000Y-192150000D01*
X304030000Y-188850000D01*
%TO.C,R37*%
X272923500Y-222173000D02*
X276223500Y-222173000D01*
X276223500Y-223633000D01*
X272923500Y-223633000D01*
X272923500Y-222173000D01*
%TO.C,C85*%
X289587500Y-202470000D02*
X292887500Y-202470000D01*
X292887500Y-203930000D01*
X289587500Y-203930000D01*
X289587500Y-202470000D01*
%TO.C,C60*%
X297672500Y-211010000D02*
X300972500Y-211010000D01*
X300972500Y-212470000D01*
X297672500Y-212470000D01*
X297672500Y-211010000D01*
%TO.C,C79*%
X321030000Y-204430000D02*
X324330000Y-204430000D01*
X324330000Y-205890000D01*
X321030000Y-205890000D01*
X321030000Y-204430000D01*
%TO.C,J4*%
X256635000Y-235370000D02*
X267795000Y-235370000D01*
X267795000Y-238910000D01*
X256635000Y-238910000D01*
X256635000Y-235370000D01*
%TO.C,C54*%
X307767500Y-196550000D02*
X311527500Y-196550000D01*
X311527500Y-198510000D01*
X307767500Y-198510000D01*
X307767500Y-196550000D01*
%TO.C,R21*%
X305412500Y-236125000D02*
X308712500Y-236125000D01*
X308712500Y-237585000D01*
X305412500Y-237585000D01*
X305412500Y-236125000D01*
D11*
%TO.C,J13*%
G36*
X269245500Y-231652000D02*
G01*
X254410500Y-231652000D01*
X254410500Y-203358000D01*
X269245500Y-203358000D01*
X269245500Y-231652000D01*
G37*
%TO.C,C70*%
D10*
X302692500Y-207460000D02*
X306452500Y-207460000D01*
X306452500Y-209420000D01*
X302692500Y-209420000D01*
X302692500Y-207460000D01*
%TO.C,C86*%
X289587500Y-197495000D02*
X292887500Y-197495000D01*
X292887500Y-198955000D01*
X289587500Y-198955000D01*
X289587500Y-197495000D01*
%TO.C,R49*%
X272923500Y-212013000D02*
X276223500Y-212013000D01*
X276223500Y-213473000D01*
X272923500Y-213473000D01*
X272923500Y-212013000D01*
%TO.C,C75*%
X297772500Y-197010000D02*
X301072500Y-197010000D01*
X301072500Y-198470000D01*
X297772500Y-198470000D01*
X297772500Y-197010000D01*
%TO.C,C9*%
X297735000Y-207010000D02*
X301035000Y-207010000D01*
X301035000Y-208470000D01*
X297735000Y-208470000D01*
X297735000Y-207010000D01*
%TO.C,R16*%
X272936000Y-227253000D02*
X276236000Y-227253000D01*
X276236000Y-228713000D01*
X272936000Y-228713000D01*
X272936000Y-227253000D01*
%TO.C,C71*%
X312510000Y-199210000D02*
X315810000Y-199210000D01*
X315810000Y-200670000D01*
X312510000Y-200670000D01*
X312510000Y-199210000D01*
%TO.C,C72*%
X297735000Y-199010000D02*
X301035000Y-199010000D01*
X301035000Y-200470000D01*
X297735000Y-200470000D01*
X297735000Y-199010000D01*
%TO.C,C25*%
X307692500Y-212960000D02*
X311452500Y-212960000D01*
X311452500Y-214920000D01*
X307692500Y-214920000D01*
X307692500Y-212960000D01*
%TO.C,R84*%
X268237750Y-177810000D02*
X268237750Y-181110000D01*
X268237750Y-181110000D02*
X269697750Y-181110000D01*
X269697750Y-177810000D02*
X268237750Y-177810000D01*
X269697750Y-181110000D02*
X269697750Y-177810000D01*
%TO.C,C5*%
X297672500Y-209010000D02*
X300972500Y-209010000D01*
X300972500Y-210470000D01*
X297672500Y-210470000D01*
X297672500Y-209010000D01*
%TO.C,C73*%
X289587500Y-199930000D02*
X292887500Y-199930000D01*
X292887500Y-201390000D01*
X289587500Y-201390000D01*
X289587500Y-199930000D01*
%TO.C,J23*%
X296937500Y-151502500D02*
X296937500Y-160202500D01*
X296937500Y-160202500D02*
X317757500Y-160202500D01*
X317757500Y-151502500D02*
X296937500Y-151502500D01*
X317757500Y-160202500D02*
X317757500Y-151502500D01*
%TO.C,R17*%
X305267500Y-221170000D02*
X308567500Y-221170000D01*
X308567500Y-222630000D01*
X305267500Y-222630000D01*
X305267500Y-221170000D01*
%TO.C,C68*%
X300220000Y-218695000D02*
X301680000Y-218695000D01*
X301680000Y-221995000D01*
X300220000Y-221995000D01*
X300220000Y-218695000D01*
%TO.C,C83*%
X297735000Y-203010000D02*
X301035000Y-203010000D01*
X301035000Y-204470000D01*
X297735000Y-204470000D01*
X297735000Y-203010000D01*
%TO.C,R13*%
X305412500Y-223425000D02*
X308712500Y-223425000D01*
X308712500Y-224885000D01*
X305412500Y-224885000D01*
X305412500Y-223425000D01*
%TO.C,C66*%
X312510000Y-211210000D02*
X315810000Y-211210000D01*
X315810000Y-212670000D01*
X312510000Y-212670000D01*
X312510000Y-211210000D01*
%TO.C,C34*%
X289587500Y-207550000D02*
X292887500Y-207550000D01*
X292887500Y-209010000D01*
X289587500Y-209010000D01*
X289587500Y-207550000D01*
%TO.C,C82*%
X302642500Y-212960000D02*
X306402500Y-212960000D01*
X306402500Y-214920000D01*
X302642500Y-214920000D01*
X302642500Y-212960000D01*
%TO.C,R83*%
X270777750Y-177810000D02*
X270777750Y-181110000D01*
X270777750Y-181110000D02*
X272237750Y-181110000D01*
X272237750Y-177810000D02*
X270777750Y-177810000D01*
X272237750Y-181110000D02*
X272237750Y-177810000D01*
%TO.C,C63*%
X302692500Y-201630000D02*
X306452500Y-201630000D01*
X306452500Y-203590000D01*
X302692500Y-203590000D01*
X302692500Y-201630000D01*
%TO.C,C76*%
X320930000Y-212630000D02*
X324230000Y-212630000D01*
X324230000Y-214090000D01*
X320930000Y-214090000D01*
X320930000Y-212630000D01*
%TO.C,R12*%
X305412500Y-225965000D02*
X308712500Y-225965000D01*
X308712500Y-227425000D01*
X305412500Y-227425000D01*
X305412500Y-225965000D01*
%TO.C,R63*%
X289587500Y-205010000D02*
X292887500Y-205010000D01*
X292887500Y-206470000D01*
X289587500Y-206470000D01*
X289587500Y-205010000D01*
%TO.C,R65*%
X265335000Y-177810000D02*
X265335000Y-181110000D01*
X265335000Y-181110000D02*
X266795000Y-181110000D01*
X266795000Y-177810000D02*
X265335000Y-177810000D01*
X266795000Y-181110000D02*
X266795000Y-177810000D01*
%TO.C,R11*%
X272898500Y-217093000D02*
X276198500Y-217093000D01*
X276198500Y-218553000D01*
X272898500Y-218553000D01*
X272898500Y-217093000D01*
%TO.C,C91*%
X302692500Y-204605000D02*
X306452500Y-204605000D01*
X306452500Y-206565000D01*
X302692500Y-206565000D01*
X302692500Y-204605000D01*
%TO.C,R47*%
X291322500Y-218190000D02*
X294622500Y-218190000D01*
X294622500Y-219650000D01*
X291322500Y-219650000D01*
X291322500Y-218190000D01*
%TO.C,R10*%
X272898500Y-214553000D02*
X276198500Y-214553000D01*
X276198500Y-216013000D01*
X272898500Y-216013000D01*
X272898500Y-214553000D01*
%TO.C,R18*%
X305412500Y-228505000D02*
X308712500Y-228505000D01*
X308712500Y-229965000D01*
X305412500Y-229965000D01*
X305412500Y-228505000D01*
%TO.C,C95*%
X312510000Y-207210000D02*
X315810000Y-207210000D01*
X315810000Y-208670000D01*
X312510000Y-208670000D01*
X312510000Y-207210000D01*
%TO.C,C87*%
X312572500Y-197210000D02*
X315872500Y-197210000D01*
X315872500Y-198670000D01*
X312572500Y-198670000D01*
X312572500Y-197210000D01*
%TO.C,C96*%
X312510000Y-209210000D02*
X315810000Y-209210000D01*
X315810000Y-210670000D01*
X312510000Y-210670000D01*
X312510000Y-209210000D01*
%TO.C,C56*%
X297697500Y-205010000D02*
X300997500Y-205010000D01*
X300997500Y-206470000D01*
X297697500Y-206470000D01*
X297697500Y-205010000D01*
%TO.C,R81*%
X275857750Y-177810000D02*
X275857750Y-181110000D01*
X275857750Y-181110000D02*
X277317750Y-181110000D01*
X277317750Y-177810000D02*
X275857750Y-177810000D01*
X277317750Y-181110000D02*
X277317750Y-177810000D01*
%TO.C,C89*%
X310030000Y-188850000D02*
X311490000Y-188850000D01*
X311490000Y-192150000D01*
X310030000Y-192150000D01*
X310030000Y-188850000D01*
%TO.C,C59*%
X297672500Y-213010000D02*
X300972500Y-213010000D01*
X300972500Y-214470000D01*
X297672500Y-214470000D01*
X297672500Y-213010000D01*
%TO.C,C93*%
X312510000Y-201210000D02*
X315810000Y-201210000D01*
X315810000Y-202670000D01*
X312510000Y-202670000D01*
X312510000Y-201210000D01*
%TO.C,R66*%
X285020000Y-177810000D02*
X285020000Y-181110000D01*
X285020000Y-181110000D02*
X286480000Y-181110000D01*
X286480000Y-177810000D02*
X285020000Y-177810000D01*
X286480000Y-181110000D02*
X286480000Y-177810000D01*
%TO.C,C77*%
X302692500Y-199085000D02*
X306452500Y-199085000D01*
X306452500Y-201045000D01*
X302692500Y-201045000D01*
X302692500Y-199085000D01*
%TD*%
M02*
