%TF.GenerationSoftware,KiCad,Pcbnew,10.0.1*%
%TF.CreationDate,2026-04-24T17:16:23-05:00*%
%TF.ProjectId,STAR_MCU,53544152-5f4d-4435-952e-6b696361645f,rev?*%
%TF.SameCoordinates,Original*%
%TF.FileFunction,Paste,Bot*%
%TF.FilePolarity,Positive*%
%FSLAX46Y46*%
G04 Gerber Fmt 4.6, Leading zero omitted, Abs format (unit mm)*
G04 Created by KiCad (PCBNEW 10.0.1) date 2026-04-24 17:16:23*
%MOMM*%
%LPD*%
G01*
G04 APERTURE LIST*
G04 Aperture macros list*
%AMRoundRect*
0 Rectangle with rounded corners*
0 $1 Rounding radius*
0 $2 $3 $4 $5 $6 $7 $8 $9 X,Y pos of 4 corners*
0 Add a 4 corners polygon primitive as box body*
4,1,4,$2,$3,$4,$5,$6,$7,$8,$9,$2,$3,0*
0 Add four circle primitives for the rounded corners*
1,1,$1+$1,$2,$3*
1,1,$1+$1,$4,$5*
1,1,$1+$1,$6,$7*
1,1,$1+$1,$8,$9*
0 Add four rect primitives between the rounded corners*
20,1,$1+$1,$2,$3,$4,$5,0*
20,1,$1+$1,$4,$5,$6,$7,0*
20,1,$1+$1,$6,$7,$8,$9,0*
20,1,$1+$1,$8,$9,$2,$3,0*%
G04 Aperture macros list end*
%ADD10C,0.010000*%
%ADD11RoundRect,0.250000X0.337500X0.475000X-0.337500X0.475000X-0.337500X-0.475000X0.337500X-0.475000X0*%
%ADD12RoundRect,0.250000X-0.337500X-0.475000X0.337500X-0.475000X0.337500X0.475000X-0.337500X0.475000X0*%
%ADD13RoundRect,0.237500X0.250000X0.237500X-0.250000X0.237500X-0.250000X-0.237500X0.250000X-0.237500X0*%
%ADD14RoundRect,0.237500X-0.250000X-0.237500X0.250000X-0.237500X0.250000X0.237500X-0.250000X0.237500X0*%
%ADD15RoundRect,0.237500X-0.300000X-0.237500X0.300000X-0.237500X0.300000X0.237500X-0.300000X0.237500X0*%
%ADD16RoundRect,0.237500X-0.237500X0.300000X-0.237500X-0.300000X0.237500X-0.300000X0.237500X0.300000X0*%
%ADD17RoundRect,0.237500X-0.237500X0.250000X-0.237500X-0.250000X0.237500X-0.250000X0.237500X0.250000X0*%
%ADD18RoundRect,0.237500X0.300000X0.237500X-0.300000X0.237500X-0.300000X-0.237500X0.300000X-0.237500X0*%
%ADD19RoundRect,0.237500X0.237500X-0.250000X0.237500X0.250000X-0.237500X0.250000X-0.237500X-0.250000X0*%
%ADD20RoundRect,0.237500X0.237500X-0.300000X0.237500X0.300000X-0.237500X0.300000X-0.237500X-0.300000X0*%
%ADD21R,5.080000X1.270000*%
G04 APERTURE END LIST*
D10*
%TO.C,J13*%
X260938500Y-210520000D02*
X255858500Y-210520000D01*
X255858500Y-209250000D01*
X260938500Y-209250000D01*
X260938500Y-210520000D01*
G36*
X260938500Y-210520000D02*
G01*
X255858500Y-210520000D01*
X255858500Y-209250000D01*
X260938500Y-209250000D01*
X260938500Y-210520000D01*
G37*
X260938500Y-213060000D02*
X255858500Y-213060000D01*
X255858500Y-211790000D01*
X260938500Y-211790000D01*
X260938500Y-213060000D01*
G36*
X260938500Y-213060000D02*
G01*
X255858500Y-213060000D01*
X255858500Y-211790000D01*
X260938500Y-211790000D01*
X260938500Y-213060000D01*
G37*
X260938500Y-215600000D02*
X255858500Y-215600000D01*
X255858500Y-214330000D01*
X260938500Y-214330000D01*
X260938500Y-215600000D01*
G36*
X260938500Y-215600000D02*
G01*
X255858500Y-215600000D01*
X255858500Y-214330000D01*
X260938500Y-214330000D01*
X260938500Y-215600000D01*
G37*
X260938500Y-218140000D02*
X255858500Y-218140000D01*
X255858500Y-216870000D01*
X260938500Y-216870000D01*
X260938500Y-218140000D01*
G36*
X260938500Y-218140000D02*
G01*
X255858500Y-218140000D01*
X255858500Y-216870000D01*
X260938500Y-216870000D01*
X260938500Y-218140000D01*
G37*
X260938500Y-220680000D02*
X255858500Y-220680000D01*
X255858500Y-219410000D01*
X260938500Y-219410000D01*
X260938500Y-220680000D01*
G36*
X260938500Y-220680000D02*
G01*
X255858500Y-220680000D01*
X255858500Y-219410000D01*
X260938500Y-219410000D01*
X260938500Y-220680000D01*
G37*
X260938500Y-223220000D02*
X255858500Y-223220000D01*
X255858500Y-221950000D01*
X260938500Y-221950000D01*
X260938500Y-223220000D01*
G36*
X260938500Y-223220000D02*
G01*
X255858500Y-223220000D01*
X255858500Y-221950000D01*
X260938500Y-221950000D01*
X260938500Y-223220000D01*
G37*
X260938500Y-225760000D02*
X255858500Y-225760000D01*
X255858500Y-224490000D01*
X260938500Y-224490000D01*
X260938500Y-225760000D01*
G36*
X260938500Y-225760000D02*
G01*
X255858500Y-225760000D01*
X255858500Y-224490000D01*
X260938500Y-224490000D01*
X260938500Y-225760000D01*
G37*
X267796500Y-210520000D02*
X262716500Y-210520000D01*
X262716500Y-209250000D01*
X267796500Y-209250000D01*
X267796500Y-210520000D01*
G36*
X267796500Y-210520000D02*
G01*
X262716500Y-210520000D01*
X262716500Y-209250000D01*
X267796500Y-209250000D01*
X267796500Y-210520000D01*
G37*
X267796500Y-213060000D02*
X262716500Y-213060000D01*
X262716500Y-211790000D01*
X267796500Y-211790000D01*
X267796500Y-213060000D01*
G36*
X267796500Y-213060000D02*
G01*
X262716500Y-213060000D01*
X262716500Y-211790000D01*
X267796500Y-211790000D01*
X267796500Y-213060000D01*
G37*
X267796500Y-215600000D02*
X262716500Y-215600000D01*
X262716500Y-214330000D01*
X267796500Y-214330000D01*
X267796500Y-215600000D01*
G36*
X267796500Y-215600000D02*
G01*
X262716500Y-215600000D01*
X262716500Y-214330000D01*
X267796500Y-214330000D01*
X267796500Y-215600000D01*
G37*
X267796500Y-218140000D02*
X262716500Y-218140000D01*
X262716500Y-216870000D01*
X267796500Y-216870000D01*
X267796500Y-218140000D01*
G36*
X267796500Y-218140000D02*
G01*
X262716500Y-218140000D01*
X262716500Y-216870000D01*
X267796500Y-216870000D01*
X267796500Y-218140000D01*
G37*
X267796500Y-220680000D02*
X262716500Y-220680000D01*
X262716500Y-219410000D01*
X267796500Y-219410000D01*
X267796500Y-220680000D01*
G36*
X267796500Y-220680000D02*
G01*
X262716500Y-220680000D01*
X262716500Y-219410000D01*
X267796500Y-219410000D01*
X267796500Y-220680000D01*
G37*
X267796500Y-223220000D02*
X262716500Y-223220000D01*
X262716500Y-221950000D01*
X267796500Y-221950000D01*
X267796500Y-223220000D01*
G36*
X267796500Y-223220000D02*
G01*
X262716500Y-223220000D01*
X262716500Y-221950000D01*
X267796500Y-221950000D01*
X267796500Y-223220000D01*
G37*
X267796500Y-225760000D02*
X262716500Y-225760000D01*
X262716500Y-224490000D01*
X267796500Y-224490000D01*
X267796500Y-225760000D01*
G36*
X267796500Y-225760000D02*
G01*
X262716500Y-225760000D01*
X262716500Y-224490000D01*
X267796500Y-224490000D01*
X267796500Y-225760000D01*
G37*
%TD*%
D11*
%TO.C,C49*%
X305597500Y-197530000D03*
X303522500Y-197530000D03*
%TD*%
D12*
%TO.C,C74*%
X308635000Y-208440000D03*
X310710000Y-208440000D03*
%TD*%
D13*
%TO.C,R19*%
X307975000Y-231775000D03*
X306150000Y-231775000D03*
%TD*%
D12*
%TO.C,C26*%
X308610000Y-203040000D03*
X310685000Y-203040000D03*
%TD*%
D14*
%TO.C,R14*%
X273661000Y-225443000D03*
X275486000Y-225443000D03*
%TD*%
D13*
%TO.C,R35*%
X275474000Y-210308000D03*
X273649000Y-210308000D03*
%TD*%
D15*
%TO.C,C69*%
X290375000Y-190605000D03*
X292100000Y-190605000D03*
%TD*%
D16*
%TO.C,C94*%
X302260000Y-189637500D03*
X302260000Y-191362500D03*
%TD*%
D12*
%TO.C,C78*%
X308572500Y-211140000D03*
X310647500Y-211140000D03*
%TD*%
D16*
%TO.C,C111*%
X261347750Y-178597500D03*
X261347750Y-180322500D03*
%TD*%
D17*
%TO.C,R64*%
X283210000Y-178547500D03*
X283210000Y-180372500D03*
%TD*%
D13*
%TO.C,R71*%
X285075000Y-221460000D03*
X283250000Y-221460000D03*
%TD*%
D16*
%TO.C,C97*%
X299760000Y-189637500D03*
X299760000Y-191362500D03*
%TD*%
D12*
%TO.C,C67*%
X303522500Y-211240000D03*
X305597500Y-211240000D03*
%TD*%
D15*
%TO.C,C81*%
X290375000Y-193145000D03*
X292100000Y-193145000D03*
%TD*%
D14*
%TO.C,R15*%
X273661000Y-230523000D03*
X275486000Y-230523000D03*
%TD*%
%TO.C,R70*%
X291147500Y-215110000D03*
X292972500Y-215110000D03*
%TD*%
D15*
%TO.C,C84*%
X298522500Y-201740000D03*
X300247500Y-201740000D03*
%TD*%
D13*
%TO.C,R20*%
X307975000Y-234315000D03*
X306150000Y-234315000D03*
%TD*%
D17*
%TO.C,R80*%
X263887750Y-178547500D03*
X263887750Y-180372500D03*
%TD*%
D12*
%TO.C,C64*%
X308610000Y-205740000D03*
X310685000Y-205740000D03*
%TD*%
D18*
%TO.C,C65*%
X314985000Y-213940000D03*
X313260000Y-213940000D03*
%TD*%
D14*
%TO.C,R69*%
X295592500Y-219555000D03*
X297417500Y-219555000D03*
%TD*%
D13*
%TO.C,R38*%
X275486000Y-220363000D03*
X273661000Y-220363000D03*
%TD*%
D15*
%TO.C,C55*%
X310247500Y-219555000D03*
X311972500Y-219555000D03*
%TD*%
%TO.C,C80*%
X321792500Y-199160000D03*
X323517500Y-199160000D03*
%TD*%
D19*
%TO.C,R82*%
X274047750Y-180372500D03*
X274047750Y-178547500D03*
%TD*%
D16*
%TO.C,C57*%
X295910000Y-192812500D03*
X295910000Y-194537500D03*
%TD*%
D18*
%TO.C,C90*%
X315022500Y-203940000D03*
X313297500Y-203940000D03*
%TD*%
%TO.C,C92*%
X315022500Y-205940000D03*
X313297500Y-205940000D03*
%TD*%
D12*
%TO.C,C58*%
X308610000Y-200340000D03*
X310685000Y-200340000D03*
%TD*%
D20*
%TO.C,C88*%
X304760000Y-191362500D03*
X304760000Y-189637500D03*
%TD*%
D14*
%TO.C,R37*%
X273661000Y-222903000D03*
X275486000Y-222903000D03*
%TD*%
D15*
%TO.C,C85*%
X290375000Y-203200000D03*
X292100000Y-203200000D03*
%TD*%
%TO.C,C60*%
X298460000Y-211740000D03*
X300185000Y-211740000D03*
%TD*%
%TO.C,C79*%
X321817500Y-205160000D03*
X323542500Y-205160000D03*
%TD*%
D12*
%TO.C,C54*%
X308610000Y-197530000D03*
X310685000Y-197530000D03*
%TD*%
D13*
%TO.C,R21*%
X307975000Y-236855000D03*
X306150000Y-236855000D03*
%TD*%
D21*
%TO.C,J13*%
X258398500Y-225125000D03*
X265256500Y-225125000D03*
X258398500Y-222585000D03*
X265256500Y-222585000D03*
X258398500Y-220045000D03*
X265256500Y-220045000D03*
X258398500Y-217505000D03*
X265256500Y-217505000D03*
X258398500Y-214965000D03*
X265256500Y-214965000D03*
X258398500Y-212425000D03*
X265256500Y-212425000D03*
X258398500Y-209885000D03*
X265256500Y-209885000D03*
%TD*%
D11*
%TO.C,C70*%
X305610000Y-208440000D03*
X303535000Y-208440000D03*
%TD*%
D15*
%TO.C,C86*%
X290375000Y-198225000D03*
X292100000Y-198225000D03*
%TD*%
D14*
%TO.C,R49*%
X273661000Y-212743000D03*
X275486000Y-212743000D03*
%TD*%
D15*
%TO.C,C75*%
X298560000Y-197740000D03*
X300285000Y-197740000D03*
%TD*%
%TO.C,C9*%
X298522500Y-207740000D03*
X300247500Y-207740000D03*
%TD*%
D13*
%TO.C,R16*%
X275498500Y-227983000D03*
X273673500Y-227983000D03*
%TD*%
D18*
%TO.C,C71*%
X315022500Y-199940000D03*
X313297500Y-199940000D03*
%TD*%
D15*
%TO.C,C72*%
X298522500Y-199740000D03*
X300247500Y-199740000D03*
%TD*%
D12*
%TO.C,C25*%
X308535000Y-213940000D03*
X310610000Y-213940000D03*
%TD*%
D19*
%TO.C,R84*%
X268967750Y-180372500D03*
X268967750Y-178547500D03*
%TD*%
D15*
%TO.C,C5*%
X298460000Y-209740000D03*
X300185000Y-209740000D03*
%TD*%
%TO.C,C73*%
X290375000Y-200660000D03*
X292100000Y-200660000D03*
%TD*%
D13*
%TO.C,R17*%
X307830000Y-221900000D03*
X306005000Y-221900000D03*
%TD*%
D20*
%TO.C,C68*%
X300950000Y-221207500D03*
X300950000Y-219482500D03*
%TD*%
D15*
%TO.C,C83*%
X298522500Y-203740000D03*
X300247500Y-203740000D03*
%TD*%
D13*
%TO.C,R13*%
X307975000Y-224155000D03*
X306150000Y-224155000D03*
%TD*%
D18*
%TO.C,C66*%
X315022500Y-211940000D03*
X313297500Y-211940000D03*
%TD*%
%TO.C,C34*%
X292100000Y-208280000D03*
X290375000Y-208280000D03*
%TD*%
D11*
%TO.C,C82*%
X305560000Y-213940000D03*
X303485000Y-213940000D03*
%TD*%
D19*
%TO.C,R83*%
X271507750Y-180372500D03*
X271507750Y-178547500D03*
%TD*%
D11*
%TO.C,C63*%
X305610000Y-202610000D03*
X303535000Y-202610000D03*
%TD*%
D15*
%TO.C,C76*%
X321717500Y-213360000D03*
X323442500Y-213360000D03*
%TD*%
D13*
%TO.C,R12*%
X307975000Y-226695000D03*
X306150000Y-226695000D03*
%TD*%
%TO.C,R63*%
X292150000Y-205740000D03*
X290325000Y-205740000D03*
%TD*%
D19*
%TO.C,R65*%
X266065000Y-180372500D03*
X266065000Y-178547500D03*
%TD*%
D14*
%TO.C,R11*%
X273636000Y-217823000D03*
X275461000Y-217823000D03*
%TD*%
D11*
%TO.C,C91*%
X305610000Y-205585000D03*
X303535000Y-205585000D03*
%TD*%
D13*
%TO.C,R47*%
X293885000Y-218920000D03*
X292060000Y-218920000D03*
%TD*%
D14*
%TO.C,R10*%
X273636000Y-215283000D03*
X275461000Y-215283000D03*
%TD*%
D13*
%TO.C,R18*%
X307975000Y-229235000D03*
X306150000Y-229235000D03*
%TD*%
D18*
%TO.C,C95*%
X315022500Y-207940000D03*
X313297500Y-207940000D03*
%TD*%
%TO.C,C87*%
X315085000Y-197940000D03*
X313360000Y-197940000D03*
%TD*%
%TO.C,C96*%
X315022500Y-209940000D03*
X313297500Y-209940000D03*
%TD*%
D15*
%TO.C,C56*%
X298485000Y-205740000D03*
X300210000Y-205740000D03*
%TD*%
D19*
%TO.C,R81*%
X276587750Y-180372500D03*
X276587750Y-178547500D03*
%TD*%
D20*
%TO.C,C89*%
X310760000Y-191362500D03*
X310760000Y-189637500D03*
%TD*%
D15*
%TO.C,C59*%
X298460000Y-213740000D03*
X300185000Y-213740000D03*
%TD*%
D18*
%TO.C,C93*%
X315022500Y-201940000D03*
X313297500Y-201940000D03*
%TD*%
D19*
%TO.C,R66*%
X285750000Y-180372500D03*
X285750000Y-178547500D03*
%TD*%
D11*
%TO.C,C77*%
X305610000Y-200065000D03*
X303535000Y-200065000D03*
%TD*%
M02*
