%TF.GenerationSoftware,KiCad,Pcbnew,10.0.1*%
%TF.CreationDate,2026-04-24T17:16:23-05:00*%
%TF.ProjectId,STAR_MCU,53544152-5f4d-4435-952e-6b696361645f,rev?*%
%TF.SameCoordinates,Original*%
%TF.FileFunction,Soldermask,Bot*%
%TF.FilePolarity,Negative*%
%FSLAX46Y46*%
G04 Gerber Fmt 4.6, Leading zero omitted, Abs format (unit mm)*
G04 Created by KiCad (PCBNEW 10.0.1) date 2026-04-24 17:16:23*
%MOMM*%
%LPD*%
G01*
G04 APERTURE LIST*
G04 Aperture macros list*
%AMRoundRect*
0 Rectangle with rounded corners*
0 $1 Rounding radius*
0 $2 $3 $4 $5 $6 $7 $8 $9 X,Y pos of 4 corners*
0 Add a 4 corners polygon primitive as box body*
4,1,4,$2,$3,$4,$5,$6,$7,$8,$9,$2,$3,0*
0 Add four circle primitives for the rounded corners*
1,1,$1+$1,$2,$3*
1,1,$1+$1,$4,$5*
1,1,$1+$1,$6,$7*
1,1,$1+$1,$8,$9*
0 Add four rect primitives between the rounded corners*
20,1,$1+$1,$2,$3,$4,$5,0*
20,1,$1+$1,$4,$5,$6,$7,0*
20,1,$1+$1,$6,$7,$8,$9,0*
20,1,$1+$1,$8,$9,$2,$3,0*%
G04 Aperture macros list end*
%ADD10C,0.010000*%
%ADD11RoundRect,0.050800X0.850000X0.850000X-0.850000X0.850000X-0.850000X-0.850000X0.850000X-0.850000X0*%
%ADD12C,1.801600*%
%ADD13C,0.751600*%
%ADD14C,6.501600*%
%ADD15C,1.201600*%
%ADD16RoundRect,0.102000X-0.754000X0.754000X-0.754000X-0.754000X0.754000X-0.754000X0.754000X0.754000X0*%
%ADD17C,1.712000*%
%ADD18RoundRect,0.050800X-0.850000X-0.850000X0.850000X-0.850000X0.850000X0.850000X-0.850000X0.850000X0*%
%ADD19O,1.604000X4.304000*%
%ADD20O,1.604000X3.304000*%
%ADD21O,3.304000X1.604000*%
%ADD22RoundRect,0.102000X0.825000X-0.825000X0.825000X0.825000X-0.825000X0.825000X-0.825000X-0.825000X0*%
%ADD23C,1.854000*%
%ADD24RoundRect,0.050800X1.050000X-1.050000X1.050000X1.050000X-1.050000X1.050000X-1.050000X-1.050000X0*%
%ADD25C,2.201600*%
%ADD26RoundRect,0.102000X-0.825000X-0.825000X0.825000X-0.825000X0.825000X0.825000X-0.825000X0.825000X0*%
%ADD27RoundRect,0.050800X-0.850000X0.850000X-0.850000X-0.850000X0.850000X-0.850000X0.850000X0.850000X0*%
%ADD28C,1.234000*%
%ADD29RoundRect,0.050800X0.650000X-0.650000X0.650000X0.650000X-0.650000X0.650000X-0.650000X-0.650000X0*%
%ADD30C,1.401600*%
%ADD31RoundRect,0.050800X0.850000X-0.850000X0.850000X0.850000X-0.850000X0.850000X-0.850000X-0.850000X0*%
%ADD32RoundRect,0.271617X0.366683X0.504183X-0.366683X0.504183X-0.366683X-0.504183X0.366683X-0.504183X0*%
%ADD33RoundRect,0.271617X-0.366683X-0.504183X0.366683X-0.504183X0.366683X0.504183X-0.366683X0.504183X0*%
%ADD34RoundRect,0.262900X0.275400X0.262900X-0.275400X0.262900X-0.275400X-0.262900X0.275400X-0.262900X0*%
%ADD35RoundRect,0.262900X-0.275400X-0.262900X0.275400X-0.262900X0.275400X0.262900X-0.275400X0.262900X0*%
%ADD36RoundRect,0.262900X-0.325400X-0.262900X0.325400X-0.262900X0.325400X0.262900X-0.325400X0.262900X0*%
%ADD37RoundRect,0.262900X-0.262900X0.325400X-0.262900X-0.325400X0.262900X-0.325400X0.262900X0.325400X0*%
%ADD38RoundRect,0.262900X-0.262900X0.275400X-0.262900X-0.275400X0.262900X-0.275400X0.262900X0.275400X0*%
%ADD39RoundRect,0.102000X0.975000X0.975000X-0.975000X0.975000X-0.975000X-0.975000X0.975000X-0.975000X0*%
%ADD40C,2.154000*%
%ADD41RoundRect,0.262900X0.325400X0.262900X-0.325400X0.262900X-0.325400X-0.262900X0.325400X-0.262900X0*%
%ADD42RoundRect,0.262900X0.262900X-0.275400X0.262900X0.275400X-0.262900X0.275400X-0.262900X-0.275400X0*%
%ADD43RoundRect,0.262900X0.262900X-0.325400X0.262900X0.325400X-0.262900X0.325400X-0.262900X-0.325400X0*%
%ADD44RoundRect,0.102000X0.825000X0.825000X-0.825000X0.825000X-0.825000X-0.825000X0.825000X-0.825000X0*%
G04 APERTURE END LIST*
D10*
%TO.C,J13*%
X260989500Y-210571000D02*
X255807500Y-210571000D01*
X255807500Y-209199000D01*
X260989500Y-209199000D01*
X260989500Y-210571000D01*
G36*
X260989500Y-210571000D02*
G01*
X255807500Y-210571000D01*
X255807500Y-209199000D01*
X260989500Y-209199000D01*
X260989500Y-210571000D01*
G37*
X260989500Y-213111000D02*
X255807500Y-213111000D01*
X255807500Y-211739000D01*
X260989500Y-211739000D01*
X260989500Y-213111000D01*
G36*
X260989500Y-213111000D02*
G01*
X255807500Y-213111000D01*
X255807500Y-211739000D01*
X260989500Y-211739000D01*
X260989500Y-213111000D01*
G37*
X260989500Y-215651000D02*
X255807500Y-215651000D01*
X255807500Y-214279000D01*
X260989500Y-214279000D01*
X260989500Y-215651000D01*
G36*
X260989500Y-215651000D02*
G01*
X255807500Y-215651000D01*
X255807500Y-214279000D01*
X260989500Y-214279000D01*
X260989500Y-215651000D01*
G37*
X260989500Y-218191000D02*
X255807500Y-218191000D01*
X255807500Y-216819000D01*
X260989500Y-216819000D01*
X260989500Y-218191000D01*
G36*
X260989500Y-218191000D02*
G01*
X255807500Y-218191000D01*
X255807500Y-216819000D01*
X260989500Y-216819000D01*
X260989500Y-218191000D01*
G37*
X260989500Y-220731000D02*
X255807500Y-220731000D01*
X255807500Y-219359000D01*
X260989500Y-219359000D01*
X260989500Y-220731000D01*
G36*
X260989500Y-220731000D02*
G01*
X255807500Y-220731000D01*
X255807500Y-219359000D01*
X260989500Y-219359000D01*
X260989500Y-220731000D01*
G37*
X260989500Y-223271000D02*
X255807500Y-223271000D01*
X255807500Y-221899000D01*
X260989500Y-221899000D01*
X260989500Y-223271000D01*
G36*
X260989500Y-223271000D02*
G01*
X255807500Y-223271000D01*
X255807500Y-221899000D01*
X260989500Y-221899000D01*
X260989500Y-223271000D01*
G37*
X260989500Y-225811000D02*
X255807500Y-225811000D01*
X255807500Y-224439000D01*
X260989500Y-224439000D01*
X260989500Y-225811000D01*
G36*
X260989500Y-225811000D02*
G01*
X255807500Y-225811000D01*
X255807500Y-224439000D01*
X260989500Y-224439000D01*
X260989500Y-225811000D01*
G37*
X267847500Y-210571000D02*
X262665500Y-210571000D01*
X262665500Y-209199000D01*
X267847500Y-209199000D01*
X267847500Y-210571000D01*
G36*
X267847500Y-210571000D02*
G01*
X262665500Y-210571000D01*
X262665500Y-209199000D01*
X267847500Y-209199000D01*
X267847500Y-210571000D01*
G37*
X267847500Y-213111000D02*
X262665500Y-213111000D01*
X262665500Y-211739000D01*
X267847500Y-211739000D01*
X267847500Y-213111000D01*
G36*
X267847500Y-213111000D02*
G01*
X262665500Y-213111000D01*
X262665500Y-211739000D01*
X267847500Y-211739000D01*
X267847500Y-213111000D01*
G37*
X267847500Y-215651000D02*
X262665500Y-215651000D01*
X262665500Y-214279000D01*
X267847500Y-214279000D01*
X267847500Y-215651000D01*
G36*
X267847500Y-215651000D02*
G01*
X262665500Y-215651000D01*
X262665500Y-214279000D01*
X267847500Y-214279000D01*
X267847500Y-215651000D01*
G37*
X267847500Y-218191000D02*
X262665500Y-218191000D01*
X262665500Y-216819000D01*
X267847500Y-216819000D01*
X267847500Y-218191000D01*
G36*
X267847500Y-218191000D02*
G01*
X262665500Y-218191000D01*
X262665500Y-216819000D01*
X267847500Y-216819000D01*
X267847500Y-218191000D01*
G37*
X267847500Y-220731000D02*
X262665500Y-220731000D01*
X262665500Y-219359000D01*
X267847500Y-219359000D01*
X267847500Y-220731000D01*
G36*
X267847500Y-220731000D02*
G01*
X262665500Y-220731000D01*
X262665500Y-219359000D01*
X267847500Y-219359000D01*
X267847500Y-220731000D01*
G37*
X267847500Y-223271000D02*
X262665500Y-223271000D01*
X262665500Y-221899000D01*
X267847500Y-221899000D01*
X267847500Y-223271000D01*
G36*
X267847500Y-223271000D02*
G01*
X262665500Y-223271000D01*
X262665500Y-221899000D01*
X267847500Y-221899000D01*
X267847500Y-223271000D01*
G37*
X267847500Y-225811000D02*
X262665500Y-225811000D01*
X262665500Y-224439000D01*
X267847500Y-224439000D01*
X267847500Y-225811000D01*
G36*
X267847500Y-225811000D02*
G01*
X262665500Y-225811000D01*
X262665500Y-224439000D01*
X267847500Y-224439000D01*
X267847500Y-225811000D01*
G37*
%TD*%
D11*
%TO.C,J9*%
X270216250Y-200660000D03*
D12*
X270216250Y-198120000D03*
X270216250Y-195580000D03*
X270216250Y-193040000D03*
%TD*%
D13*
%TO.C,J6*%
X288945000Y-245587000D03*
X294945000Y-245587000D03*
%TD*%
D14*
%TO.C,H4*%
X355950000Y-245760000D03*
%TD*%
D11*
%TO.C,J11*%
X261326250Y-200660000D03*
D12*
X261326250Y-198120000D03*
X261326250Y-195580000D03*
X261326250Y-193040000D03*
%TD*%
D14*
%TO.C,H3*%
X355950000Y-131365000D03*
%TD*%
D13*
%TO.C,J14*%
X355442000Y-225885000D03*
X355442000Y-219885000D03*
%TD*%
D15*
%TO.C,U10*%
X302895000Y-236830000D03*
X301625000Y-236830000D03*
X300355000Y-236830000D03*
%TD*%
D16*
%TO.C,J5*%
X258151250Y-177960000D03*
D17*
X258151250Y-180460000D03*
X258151250Y-182960000D03*
X258151250Y-185460000D03*
X258151250Y-187960000D03*
%TD*%
D18*
%TO.C,J18*%
X288250000Y-222095000D03*
D12*
X288250000Y-224635000D03*
X288250000Y-227175000D03*
%TD*%
D11*
%TO.C,J2*%
X288250000Y-197330000D03*
D12*
X288250000Y-194790000D03*
X288250000Y-192250000D03*
X288250000Y-189710000D03*
%TD*%
D19*
%TO.C,J7*%
X347600000Y-210000000D03*
D20*
X353500000Y-210000000D03*
D21*
X350400000Y-205300000D03*
%TD*%
D18*
%TO.C,J15*%
X258818750Y-141605000D03*
D12*
X258818750Y-144145000D03*
X258818750Y-146685000D03*
X258818750Y-149225000D03*
X258818750Y-151765000D03*
X258818750Y-154305000D03*
X258818750Y-156845000D03*
X258818750Y-159385000D03*
X258818750Y-161925000D03*
X258818750Y-164465000D03*
X258818750Y-167005000D03*
X258818750Y-169545000D03*
%TD*%
D14*
%TO.C,H2*%
X254555000Y-131365000D03*
%TD*%
D11*
%TO.C,J10*%
X265771250Y-200660000D03*
D12*
X265771250Y-198120000D03*
X265771250Y-195580000D03*
X265771250Y-193040000D03*
%TD*%
D13*
%TO.C,J8*%
X312595000Y-245587000D03*
X318595000Y-245587000D03*
%TD*%
D22*
%TO.C,P3*%
X355600000Y-169900000D03*
D23*
X355600000Y-164820000D03*
%TD*%
D18*
%TO.C,J19*%
X292060000Y-222095000D03*
D12*
X292060000Y-224635000D03*
X292060000Y-227175000D03*
%TD*%
D24*
%TO.C,J20*%
X344405000Y-183110000D03*
D25*
X353105000Y-183110000D03*
X344405000Y-178030000D03*
X353105000Y-178030000D03*
%TD*%
D26*
%TO.C,P1*%
X264160000Y-246380000D03*
D23*
X269240000Y-246380000D03*
%TD*%
D27*
%TO.C,J24*%
X303935000Y-168942500D03*
D12*
X301395000Y-168942500D03*
X298855000Y-168942500D03*
X296315000Y-168942500D03*
X293775000Y-168942500D03*
X291235000Y-168942500D03*
X288695000Y-168942500D03*
X286155000Y-168942500D03*
X283615000Y-168942500D03*
X281075000Y-168942500D03*
X278535000Y-168942500D03*
X275995000Y-168942500D03*
%TD*%
D14*
%TO.C,H1*%
X254555000Y-245760000D03*
%TD*%
D28*
%TO.C,Y1*%
X288290000Y-208180000D03*
X288290000Y-203300000D03*
%TD*%
D22*
%TO.C,P2*%
X356400000Y-238040000D03*
D23*
X356400000Y-232960000D03*
%TD*%
D24*
%TO.C,J22*%
X344405000Y-198350000D03*
D25*
X353105000Y-198350000D03*
X344405000Y-193270000D03*
X353105000Y-193270000D03*
%TD*%
D29*
%TO.C,SW1*%
X282575000Y-196850000D03*
D30*
X282575000Y-194310000D03*
X274955000Y-194310000D03*
X274955000Y-196850000D03*
%TD*%
D27*
%TO.C,J25*%
X339725000Y-168942500D03*
D12*
X337185000Y-168942500D03*
X334645000Y-168942500D03*
X332105000Y-168942500D03*
X329565000Y-168942500D03*
X327025000Y-168942500D03*
X324485000Y-168942500D03*
X321945000Y-168942500D03*
X319405000Y-168942500D03*
X316865000Y-168942500D03*
X314325000Y-168942500D03*
X311785000Y-168942500D03*
%TD*%
D26*
%TO.C,P4*%
X339620000Y-246200000D03*
D23*
X344700000Y-246200000D03*
%TD*%
D11*
%TO.C,J12*%
X257026250Y-200720000D03*
D12*
X257026250Y-198180000D03*
X257026250Y-195640000D03*
X257026250Y-193100000D03*
%TD*%
D31*
%TO.C,J1*%
X288290000Y-184785000D03*
D12*
X288290000Y-182245000D03*
X290830000Y-184785000D03*
X290830000Y-182245000D03*
X293370000Y-184785000D03*
X293370000Y-182245000D03*
X295910000Y-184785000D03*
X295910000Y-182245000D03*
X298450000Y-184785000D03*
X298450000Y-182245000D03*
X300990000Y-184785000D03*
X300990000Y-182245000D03*
X303530000Y-184785000D03*
X303530000Y-182245000D03*
X306070000Y-184785000D03*
X306070000Y-182245000D03*
X308610000Y-184785000D03*
X308610000Y-182245000D03*
X311150000Y-184785000D03*
X311150000Y-182245000D03*
X313690000Y-184785000D03*
X313690000Y-182245000D03*
X316230000Y-184785000D03*
X316230000Y-182245000D03*
X318770000Y-184785000D03*
X318770000Y-182245000D03*
X321310000Y-184785000D03*
X321310000Y-182245000D03*
X323850000Y-184785000D03*
X323850000Y-182245000D03*
X326390000Y-184785000D03*
X326390000Y-182245000D03*
X328930000Y-184785000D03*
X328930000Y-182245000D03*
X331470000Y-184785000D03*
X331470000Y-182245000D03*
X334010000Y-184785000D03*
X334010000Y-182245000D03*
X336550000Y-184785000D03*
X336550000Y-182245000D03*
%TD*%
D26*
%TO.C,J21*%
X301072500Y-140970000D03*
D23*
X306152500Y-140970000D03*
X311232500Y-140970000D03*
X316312500Y-140970000D03*
%TD*%
D32*
%TO.C,C49*%
X305597500Y-197530000D03*
X303522500Y-197530000D03*
%TD*%
D33*
%TO.C,C74*%
X308635000Y-208440000D03*
X310710000Y-208440000D03*
%TD*%
D34*
%TO.C,R19*%
X307975000Y-231775000D03*
X306150000Y-231775000D03*
%TD*%
D33*
%TO.C,C26*%
X308610000Y-203040000D03*
X310685000Y-203040000D03*
%TD*%
D35*
%TO.C,R14*%
X273661000Y-225443000D03*
X275486000Y-225443000D03*
%TD*%
D34*
%TO.C,R35*%
X275474000Y-210308000D03*
X273649000Y-210308000D03*
%TD*%
D36*
%TO.C,C69*%
X290375000Y-190605000D03*
X292100000Y-190605000D03*
%TD*%
D37*
%TO.C,C94*%
X302260000Y-189637500D03*
X302260000Y-191362500D03*
%TD*%
D31*
%TO.C,J17*%
X291827750Y-175260000D03*
D12*
X289287750Y-175260000D03*
X286747750Y-175260000D03*
X284207750Y-175260000D03*
X281667750Y-175260000D03*
X279127750Y-175260000D03*
X276587750Y-175260000D03*
X274047750Y-175260000D03*
X271507750Y-175260000D03*
X268967750Y-175260000D03*
X266427750Y-175260000D03*
X263887750Y-175260000D03*
%TD*%
D33*
%TO.C,C78*%
X308572500Y-211140000D03*
X310647500Y-211140000D03*
%TD*%
D37*
%TO.C,C111*%
X261347750Y-178597500D03*
X261347750Y-180322500D03*
%TD*%
D38*
%TO.C,R64*%
X283210000Y-178547500D03*
X283210000Y-180372500D03*
%TD*%
D34*
%TO.C,R71*%
X285075000Y-221460000D03*
X283250000Y-221460000D03*
%TD*%
D37*
%TO.C,C97*%
X299760000Y-189637500D03*
X299760000Y-191362500D03*
%TD*%
D33*
%TO.C,C67*%
X303522500Y-211240000D03*
X305597500Y-211240000D03*
%TD*%
D36*
%TO.C,C81*%
X290375000Y-193145000D03*
X292100000Y-193145000D03*
%TD*%
D39*
%TO.C,PS2*%
X340320000Y-135712500D03*
D40*
X335240000Y-135712500D03*
X347980000Y-156032500D03*
X337820000Y-156032500D03*
X327660000Y-156032500D03*
X327620000Y-135712500D03*
%TD*%
D35*
%TO.C,R15*%
X273661000Y-230523000D03*
X275486000Y-230523000D03*
%TD*%
D39*
%TO.C,PS3*%
X337460000Y-219035000D03*
D40*
X332380000Y-219035000D03*
X345120000Y-239355000D03*
X334960000Y-239355000D03*
X324800000Y-239355000D03*
X324760000Y-219035000D03*
%TD*%
D35*
%TO.C,R70*%
X291147500Y-215110000D03*
X292972500Y-215110000D03*
%TD*%
D36*
%TO.C,C84*%
X298522500Y-201740000D03*
X300247500Y-201740000D03*
%TD*%
D34*
%TO.C,R20*%
X307975000Y-234315000D03*
X306150000Y-234315000D03*
%TD*%
D38*
%TO.C,R80*%
X263887750Y-178547500D03*
X263887750Y-180372500D03*
%TD*%
D33*
%TO.C,C64*%
X308610000Y-205740000D03*
X310685000Y-205740000D03*
%TD*%
D41*
%TO.C,C65*%
X314985000Y-213940000D03*
X313260000Y-213940000D03*
%TD*%
D35*
%TO.C,R69*%
X295592500Y-219555000D03*
X297417500Y-219555000D03*
%TD*%
D34*
%TO.C,R38*%
X275486000Y-220363000D03*
X273661000Y-220363000D03*
%TD*%
D36*
%TO.C,C55*%
X310247500Y-219555000D03*
X311972500Y-219555000D03*
%TD*%
D18*
%TO.C,J3*%
X279995000Y-226540000D03*
D12*
X279995000Y-224000000D03*
X279995000Y-221460000D03*
X279995000Y-218920000D03*
X279995000Y-216380000D03*
X279995000Y-213840000D03*
X279995000Y-211300000D03*
X279995000Y-208760000D03*
X279995000Y-206220000D03*
%TD*%
D36*
%TO.C,C80*%
X321792500Y-199160000D03*
X323517500Y-199160000D03*
%TD*%
D39*
%TO.C,PS1*%
X282535000Y-138390000D03*
D40*
X277455000Y-138390000D03*
X290195000Y-158710000D03*
X280035000Y-158710000D03*
X269875000Y-158710000D03*
X269835000Y-138390000D03*
%TD*%
D42*
%TO.C,R82*%
X274047750Y-180372500D03*
X274047750Y-178547500D03*
%TD*%
D37*
%TO.C,C57*%
X295910000Y-192812500D03*
X295910000Y-194537500D03*
%TD*%
D41*
%TO.C,C90*%
X315022500Y-203940000D03*
X313297500Y-203940000D03*
%TD*%
%TO.C,C92*%
X315022500Y-205940000D03*
X313297500Y-205940000D03*
%TD*%
D33*
%TO.C,C58*%
X308610000Y-200340000D03*
X310685000Y-200340000D03*
%TD*%
D43*
%TO.C,C88*%
X304760000Y-191362500D03*
X304760000Y-189637500D03*
%TD*%
D35*
%TO.C,R37*%
X273661000Y-222903000D03*
X275486000Y-222903000D03*
%TD*%
D36*
%TO.C,C85*%
X290375000Y-203200000D03*
X292100000Y-203200000D03*
%TD*%
%TO.C,C60*%
X298460000Y-211740000D03*
X300185000Y-211740000D03*
%TD*%
%TO.C,C79*%
X321817500Y-205160000D03*
X323542500Y-205160000D03*
%TD*%
D27*
%TO.C,J4*%
X258405000Y-237140000D03*
D12*
X260945000Y-237140000D03*
X263485000Y-237140000D03*
X266025000Y-237140000D03*
%TD*%
D33*
%TO.C,C54*%
X308610000Y-197530000D03*
X310685000Y-197530000D03*
%TD*%
D34*
%TO.C,R21*%
X307975000Y-236855000D03*
X306150000Y-236855000D03*
%TD*%
D32*
%TO.C,C70*%
X305610000Y-208440000D03*
X303535000Y-208440000D03*
%TD*%
D36*
%TO.C,C86*%
X290375000Y-198225000D03*
X292100000Y-198225000D03*
%TD*%
D35*
%TO.C,R49*%
X273661000Y-212743000D03*
X275486000Y-212743000D03*
%TD*%
D36*
%TO.C,C75*%
X298560000Y-197740000D03*
X300285000Y-197740000D03*
%TD*%
%TO.C,C9*%
X298522500Y-207740000D03*
X300247500Y-207740000D03*
%TD*%
D34*
%TO.C,R16*%
X275498500Y-227983000D03*
X273673500Y-227983000D03*
%TD*%
D41*
%TO.C,C71*%
X315022500Y-199940000D03*
X313297500Y-199940000D03*
%TD*%
D36*
%TO.C,C72*%
X298522500Y-199740000D03*
X300247500Y-199740000D03*
%TD*%
D33*
%TO.C,C25*%
X308535000Y-213940000D03*
X310610000Y-213940000D03*
%TD*%
D42*
%TO.C,R84*%
X268967750Y-180372500D03*
X268967750Y-178547500D03*
%TD*%
D36*
%TO.C,C5*%
X298460000Y-209740000D03*
X300185000Y-209740000D03*
%TD*%
%TO.C,C73*%
X290375000Y-200660000D03*
X292100000Y-200660000D03*
%TD*%
D44*
%TO.C,J23*%
X314967500Y-155852500D03*
D23*
X309887500Y-155852500D03*
X304807500Y-155852500D03*
X299727500Y-155852500D03*
%TD*%
D34*
%TO.C,R17*%
X307830000Y-221900000D03*
X306005000Y-221900000D03*
%TD*%
D43*
%TO.C,C68*%
X300950000Y-221207500D03*
X300950000Y-219482500D03*
%TD*%
D36*
%TO.C,C83*%
X298522500Y-203740000D03*
X300247500Y-203740000D03*
%TD*%
D34*
%TO.C,R13*%
X307975000Y-224155000D03*
X306150000Y-224155000D03*
%TD*%
D41*
%TO.C,C66*%
X315022500Y-211940000D03*
X313297500Y-211940000D03*
%TD*%
%TO.C,C34*%
X292100000Y-208280000D03*
X290375000Y-208280000D03*
%TD*%
D32*
%TO.C,C82*%
X305560000Y-213940000D03*
X303485000Y-213940000D03*
%TD*%
D42*
%TO.C,R83*%
X271507750Y-180372500D03*
X271507750Y-178547500D03*
%TD*%
D32*
%TO.C,C63*%
X305610000Y-202610000D03*
X303535000Y-202610000D03*
%TD*%
D36*
%TO.C,C76*%
X321717500Y-213360000D03*
X323442500Y-213360000D03*
%TD*%
D34*
%TO.C,R12*%
X307975000Y-226695000D03*
X306150000Y-226695000D03*
%TD*%
%TO.C,R63*%
X292150000Y-205740000D03*
X290325000Y-205740000D03*
%TD*%
D42*
%TO.C,R65*%
X266065000Y-180372500D03*
X266065000Y-178547500D03*
%TD*%
D35*
%TO.C,R11*%
X273636000Y-217823000D03*
X275461000Y-217823000D03*
%TD*%
D32*
%TO.C,C91*%
X305610000Y-205585000D03*
X303535000Y-205585000D03*
%TD*%
D34*
%TO.C,R47*%
X293885000Y-218920000D03*
X292060000Y-218920000D03*
%TD*%
D35*
%TO.C,R10*%
X273636000Y-215283000D03*
X275461000Y-215283000D03*
%TD*%
D34*
%TO.C,R18*%
X307975000Y-229235000D03*
X306150000Y-229235000D03*
%TD*%
D41*
%TO.C,C95*%
X315022500Y-207940000D03*
X313297500Y-207940000D03*
%TD*%
%TO.C,C87*%
X315085000Y-197940000D03*
X313360000Y-197940000D03*
%TD*%
%TO.C,C96*%
X315022500Y-209940000D03*
X313297500Y-209940000D03*
%TD*%
D36*
%TO.C,C56*%
X298485000Y-205740000D03*
X300210000Y-205740000D03*
%TD*%
D42*
%TO.C,R81*%
X276587750Y-180372500D03*
X276587750Y-178547500D03*
%TD*%
D43*
%TO.C,C89*%
X310760000Y-191362500D03*
X310760000Y-189637500D03*
%TD*%
D36*
%TO.C,C59*%
X298460000Y-213740000D03*
X300185000Y-213740000D03*
%TD*%
D41*
%TO.C,C93*%
X315022500Y-201940000D03*
X313297500Y-201940000D03*
%TD*%
D42*
%TO.C,R66*%
X285750000Y-180372500D03*
X285750000Y-178547500D03*
%TD*%
D32*
%TO.C,C77*%
X305610000Y-200065000D03*
X303535000Y-200065000D03*
%TD*%
M02*
