%TF.GenerationSoftware,KiCad,Pcbnew,10.0.1*%
%TF.CreationDate,2026-04-24T17:16:23-05:00*%
%TF.ProjectId,STAR_MCU,53544152-5f4d-4435-952e-6b696361645f,rev?*%
%TF.SameCoordinates,Original*%
%TF.FileFunction,Soldermask,Top*%
%TF.FilePolarity,Negative*%
%FSLAX46Y46*%
G04 Gerber Fmt 4.6, Leading zero omitted, Abs format (unit mm)*
G04 Created by KiCad (PCBNEW 10.0.1) date 2026-04-24 17:16:23*
%MOMM*%
%LPD*%
G01*
G04 APERTURE LIST*
G04 Aperture macros list*
%AMRoundRect*
0 Rectangle with rounded corners*
0 $1 Rounding radius*
0 $2 $3 $4 $5 $6 $7 $8 $9 X,Y pos of 4 corners*
0 Add a 4 corners polygon primitive as box body*
4,1,4,$2,$3,$4,$5,$6,$7,$8,$9,$2,$3,0*
0 Add four circle primitives for the rounded corners*
1,1,$1+$1,$2,$3*
1,1,$1+$1,$4,$5*
1,1,$1+$1,$6,$7*
1,1,$1+$1,$8,$9*
0 Add four rect primitives between the rounded corners*
20,1,$1+$1,$2,$3,$4,$5,0*
20,1,$1+$1,$4,$5,$6,$7,0*
20,1,$1+$1,$6,$7,$8,$9,0*
20,1,$1+$1,$8,$9,$2,$3,0*%
G04 Aperture macros list end*
%ADD10RoundRect,0.262900X0.262900X-0.325400X0.262900X0.325400X-0.262900X0.325400X-0.262900X-0.325400X0*%
%ADD11RoundRect,0.262900X0.262900X-0.275400X0.262900X0.275400X-0.262900X0.275400X-0.262900X-0.275400X0*%
%ADD12RoundRect,0.262900X-0.275400X-0.262900X0.275400X-0.262900X0.275400X0.262900X-0.275400X0.262900X0*%
%ADD13RoundRect,0.050800X0.850000X0.850000X-0.850000X0.850000X-0.850000X-0.850000X0.850000X-0.850000X0*%
%ADD14C,1.801600*%
%ADD15RoundRect,0.262900X-0.262900X0.275400X-0.262900X-0.275400X0.262900X-0.275400X0.262900X0.275400X0*%
%ADD16RoundRect,0.262900X-0.325400X-0.262900X0.325400X-0.262900X0.325400X0.262900X-0.325400X0.262900X0*%
%ADD17RoundRect,0.050800X-1.375000X0.475000X-1.375000X-0.475000X1.375000X-0.475000X1.375000X0.475000X0*%
%ADD18RoundRect,0.050800X1.375000X1.625000X-1.375000X1.625000X-1.375000X-1.625000X1.375000X-1.625000X0*%
%ADD19RoundRect,0.050800X0.350000X0.475000X-0.350000X0.475000X-0.350000X-0.475000X0.350000X-0.475000X0*%
%ADD20RoundRect,0.262900X0.275400X0.262900X-0.275400X0.262900X-0.275400X-0.262900X0.275400X-0.262900X0*%
%ADD21RoundRect,0.050800X0.300000X-0.175000X0.300000X0.175000X-0.300000X0.175000X-0.300000X-0.175000X0*%
%ADD22RoundRect,0.050800X-0.550000X-0.850000X0.550000X-0.850000X0.550000X0.850000X-0.550000X0.850000X0*%
%ADD23C,0.751600*%
%ADD24RoundRect,0.050800X-0.300000X-0.575000X0.300000X-0.575000X0.300000X0.575000X-0.300000X0.575000X0*%
%ADD25RoundRect,0.050800X-0.150000X-0.575000X0.150000X-0.575000X0.150000X0.575000X-0.150000X0.575000X0*%
%ADD26RoundRect,0.050800X0.775000X-0.625000X0.775000X0.625000X-0.775000X0.625000X-0.775000X-0.625000X0*%
%ADD27RoundRect,0.050800X0.775000X-0.750000X0.775000X0.750000X-0.775000X0.750000X-0.775000X-0.750000X0*%
%ADD28RoundRect,0.050800X0.460000X0.565000X-0.460000X0.565000X-0.460000X-0.565000X0.460000X-0.565000X0*%
%ADD29C,6.501600*%
%ADD30RoundRect,0.050800X-0.175000X-0.300000X0.175000X-0.300000X0.175000X0.300000X-0.175000X0.300000X0*%
%ADD31RoundRect,0.050800X-0.850000X0.550000X-0.850000X-0.550000X0.850000X-0.550000X0.850000X0.550000X0*%
%ADD32RoundRect,0.262900X-0.262900X0.325400X-0.262900X-0.325400X0.262900X-0.325400X0.262900X0.325400X0*%
%ADD33RoundRect,0.050800X0.175000X0.300000X-0.175000X0.300000X-0.175000X-0.300000X0.175000X-0.300000X0*%
%ADD34RoundRect,0.050800X0.850000X-0.550000X0.850000X0.550000X-0.850000X0.550000X-0.850000X-0.550000X0*%
%ADD35RoundRect,0.050800X0.887500X-0.225000X0.887500X0.225000X-0.887500X0.225000X-0.887500X-0.225000X0*%
%ADD36RoundRect,0.050800X0.475000X-0.350000X0.475000X0.350000X-0.475000X0.350000X-0.475000X-0.350000X0*%
%ADD37RoundRect,0.262900X0.325400X0.262900X-0.325400X0.262900X-0.325400X-0.262900X0.325400X-0.262900X0*%
%ADD38RoundRect,0.050800X0.575000X-0.300000X0.575000X0.300000X-0.575000X0.300000X-0.575000X-0.300000X0*%
%ADD39RoundRect,0.050800X0.575000X-0.150000X0.575000X0.150000X-0.575000X0.150000X-0.575000X-0.150000X0*%
%ADD40RoundRect,0.050800X0.625000X0.775000X-0.625000X0.775000X-0.625000X-0.775000X0.625000X-0.775000X0*%
%ADD41RoundRect,0.050800X0.750000X0.775000X-0.750000X0.775000X-0.750000X-0.775000X0.750000X-0.775000X0*%
%ADD42RoundRect,0.271617X0.366683X0.504183X-0.366683X0.504183X-0.366683X-0.504183X0.366683X-0.504183X0*%
%ADD43RoundRect,0.050800X-0.675000X-0.700000X0.675000X-0.700000X0.675000X0.700000X-0.675000X0.700000X0*%
%ADD44C,1.201600*%
%ADD45RoundRect,0.102000X-0.754000X0.754000X-0.754000X-0.754000X0.754000X-0.754000X0.754000X0.754000X0*%
%ADD46C,1.712000*%
%ADD47RoundRect,0.050800X-0.850000X-0.850000X0.850000X-0.850000X0.850000X0.850000X-0.850000X0.850000X0*%
%ADD48O,1.604000X4.304000*%
%ADD49O,1.604000X3.304000*%
%ADD50O,3.304000X1.604000*%
%ADD51RoundRect,0.050800X-0.565000X0.460000X-0.565000X-0.460000X0.565000X-0.460000X0.565000X0.460000X0*%
%ADD52RoundRect,0.050800X0.335000X-0.150000X0.335000X0.150000X-0.335000X0.150000X-0.335000X-0.150000X0*%
%ADD53RoundRect,0.271617X-0.366683X-0.504183X0.366683X-0.504183X0.366683X0.504183X-0.366683X0.504183X0*%
%ADD54RoundRect,0.102000X0.825000X-0.825000X0.825000X0.825000X-0.825000X0.825000X-0.825000X-0.825000X0*%
%ADD55C,1.854000*%
%ADD56RoundRect,0.271617X0.504183X-0.366683X0.504183X0.366683X-0.504183X0.366683X-0.504183X-0.366683X0*%
%ADD57RoundRect,0.050800X0.675000X0.700000X-0.675000X0.700000X-0.675000X-0.700000X0.675000X-0.700000X0*%
%ADD58RoundRect,0.050800X1.050000X-1.050000X1.050000X1.050000X-1.050000X1.050000X-1.050000X-1.050000X0*%
%ADD59C,2.201600*%
%ADD60RoundRect,0.050800X-0.525000X0.325000X-0.525000X-0.325000X0.525000X-0.325000X0.525000X0.325000X0*%
%ADD61RoundRect,0.271617X-0.504183X0.366683X-0.504183X-0.366683X0.504183X-0.366683X0.504183X0.366683X0*%
%ADD62RoundRect,0.102000X-0.825000X-0.825000X0.825000X-0.825000X0.825000X0.825000X-0.825000X0.825000X0*%
%ADD63RoundRect,0.050800X-0.850000X0.850000X-0.850000X-0.850000X0.850000X-0.850000X0.850000X0.850000X0*%
%ADD64C,1.234000*%
%ADD65RoundRect,0.050800X0.650000X-0.650000X0.650000X0.650000X-0.650000X0.650000X-0.650000X-0.650000X0*%
%ADD66C,1.401600*%
%ADD67RoundRect,0.050800X0.212500X-0.200000X0.212500X0.200000X-0.212500X0.200000X-0.212500X-0.200000X0*%
%ADD68RoundRect,0.050800X0.575000X-0.475000X0.575000X0.475000X-0.575000X0.475000X-0.575000X-0.475000X0*%
%ADD69RoundRect,0.050800X0.375000X-0.150000X0.375000X0.150000X-0.375000X0.150000X-0.375000X-0.150000X0*%
%ADD70RoundRect,0.050800X0.737500X-0.150000X0.737500X0.150000X-0.737500X0.150000X-0.737500X-0.150000X0*%
%ADD71RoundRect,0.050800X-0.150000X-0.737500X0.150000X-0.737500X0.150000X0.737500X-0.150000X0.737500X0*%
%ADD72RoundRect,0.050800X0.850000X-0.850000X0.850000X0.850000X-0.850000X0.850000X-0.850000X-0.850000X0*%
%ADD73RoundRect,0.102000X0.975000X0.975000X-0.975000X0.975000X-0.975000X-0.975000X0.975000X-0.975000X0*%
%ADD74C,2.154000*%
%ADD75RoundRect,0.102000X0.825000X0.825000X-0.825000X0.825000X-0.825000X-0.825000X0.825000X-0.825000X0*%
G04 APERTURE END LIST*
D10*
%TO.C,C1*%
X274320000Y-245337500D03*
X274320000Y-243612500D03*
%TD*%
D11*
%TO.C,R1*%
X292887500Y-190787500D03*
X292887500Y-188962500D03*
%TD*%
D12*
%TO.C,R75*%
X253706250Y-159385000D03*
X255531250Y-159385000D03*
%TD*%
%TO.C,R28*%
X328652500Y-189865000D03*
X330477500Y-189865000D03*
%TD*%
D13*
%TO.C,J9*%
X270216250Y-200660000D03*
D14*
X270216250Y-198120000D03*
X270216250Y-195580000D03*
X270216250Y-193040000D03*
%TD*%
D11*
%TO.C,R9*%
X300990000Y-245387500D03*
X300990000Y-243562500D03*
%TD*%
D15*
%TO.C,R90*%
X286155000Y-163830000D03*
X286155000Y-165655000D03*
%TD*%
D16*
%TO.C,C30*%
X339905000Y-230475000D03*
X341630000Y-230475000D03*
%TD*%
D15*
%TO.C,R97*%
X324485000Y-163830000D03*
X324485000Y-165655000D03*
%TD*%
D17*
%TO.C,U3*%
X339150000Y-211850000D03*
X339150000Y-209550000D03*
X339150000Y-207250000D03*
D18*
X333950000Y-209550000D03*
%TD*%
D15*
%TO.C,R94*%
X314325000Y-163830000D03*
X314325000Y-165655000D03*
%TD*%
D12*
%TO.C,R33*%
X328612500Y-202565000D03*
X330437500Y-202565000D03*
%TD*%
D19*
%TO.C,D9*%
X338085000Y-189865000D03*
X336285000Y-189865000D03*
%TD*%
D11*
%TO.C,FB1*%
X274320000Y-241577500D03*
X274320000Y-239752500D03*
%TD*%
D20*
%TO.C,R50*%
X301500000Y-232730000D03*
X299675000Y-232730000D03*
%TD*%
D10*
%TO.C,C22*%
X327765000Y-208027500D03*
X327765000Y-206302500D03*
%TD*%
D20*
%TO.C,R42*%
X333652500Y-156210000D03*
X331827500Y-156210000D03*
%TD*%
D10*
%TO.C,C3*%
X279400000Y-247877500D03*
X279400000Y-246152500D03*
%TD*%
%TO.C,C112*%
X273455000Y-165605000D03*
X273455000Y-163880000D03*
%TD*%
D21*
%TO.C,U6*%
X342485000Y-217775000D03*
X342485000Y-218425000D03*
X342485000Y-219075000D03*
X344585000Y-219075000D03*
X344585000Y-218425000D03*
X344585000Y-217775000D03*
D22*
X343535000Y-218425000D03*
%TD*%
D11*
%TO.C,R22*%
X324104000Y-243990500D03*
X324104000Y-242165500D03*
%TD*%
%TO.C,R34*%
X322495000Y-212270000D03*
X322495000Y-210445000D03*
%TD*%
D23*
%TO.C,J6*%
X288945000Y-245587000D03*
X294945000Y-245587000D03*
D24*
X288745000Y-244312000D03*
X289545000Y-244312000D03*
D25*
X290695000Y-244312000D03*
X291695000Y-244312000D03*
X292195000Y-244312000D03*
X293195000Y-244312000D03*
D24*
X295145000Y-244312000D03*
X294345000Y-244312000D03*
D25*
X293695000Y-244312000D03*
X292695000Y-244312000D03*
X291195000Y-244312000D03*
X290195000Y-244312000D03*
D26*
X286850000Y-244962000D03*
X297040000Y-244962000D03*
D27*
X297040000Y-248887000D03*
X286850000Y-248887000D03*
%TD*%
D11*
%TO.C,R26*%
X325260000Y-228065000D03*
X325260000Y-226240000D03*
%TD*%
D28*
%TO.C,D5*%
X283055000Y-234315000D03*
X279555000Y-234315000D03*
%TD*%
D29*
%TO.C,H4*%
X355950000Y-245760000D03*
%TD*%
D30*
%TO.C,U1*%
X280050000Y-239615000D03*
X279400000Y-239615000D03*
X278750000Y-239615000D03*
X278750000Y-241715000D03*
X279400000Y-241715000D03*
X280050000Y-241715000D03*
D31*
X279400000Y-240665000D03*
%TD*%
D32*
%TO.C,C17*%
X326760000Y-234815000D03*
X326760000Y-236540000D03*
%TD*%
D16*
%TO.C,C28*%
X339905000Y-225455000D03*
X341630000Y-225455000D03*
%TD*%
D33*
%TO.C,U2*%
X324836000Y-248480000D03*
X325486000Y-248480000D03*
X326136000Y-248480000D03*
X326136000Y-246380000D03*
X325486000Y-246380000D03*
X324836000Y-246380000D03*
D34*
X325486000Y-247430000D03*
%TD*%
D13*
%TO.C,J11*%
X261326250Y-200660000D03*
D14*
X261326250Y-198120000D03*
X261326250Y-195580000D03*
X261326250Y-193040000D03*
%TD*%
D35*
%TO.C,U4*%
X312660000Y-225390000D03*
X312660000Y-226040000D03*
X312660000Y-226690000D03*
X312660000Y-227340000D03*
X312660000Y-227990000D03*
X312660000Y-228640000D03*
X312660000Y-229290000D03*
X312660000Y-229940000D03*
X312660000Y-230590000D03*
X312660000Y-231240000D03*
X312660000Y-231890000D03*
X312660000Y-232540000D03*
X312660000Y-233190000D03*
X312660000Y-233840000D03*
X319736000Y-233840000D03*
X319736000Y-233190000D03*
X319736000Y-232540000D03*
X319736000Y-231890000D03*
X319736000Y-231240000D03*
X319736000Y-230590000D03*
X319736000Y-229940000D03*
X319736000Y-229290000D03*
X319736000Y-228640000D03*
X319736000Y-227990000D03*
X319736000Y-227340000D03*
X319736000Y-226690000D03*
X319736000Y-226040000D03*
X319736000Y-225390000D03*
%TD*%
D29*
%TO.C,H3*%
X355950000Y-131365000D03*
%TD*%
D36*
%TO.C,D7*%
X322960000Y-224040000D03*
X322960000Y-222240000D03*
%TD*%
D15*
%TO.C,R95*%
X334645000Y-163830000D03*
X334645000Y-165655000D03*
%TD*%
D10*
%TO.C,C113*%
X309245000Y-165605000D03*
X309245000Y-163880000D03*
%TD*%
D16*
%TO.C,C14*%
X333782500Y-233680000D03*
X335507500Y-233680000D03*
%TD*%
D37*
%TO.C,C31*%
X349477500Y-219710000D03*
X347752500Y-219710000D03*
%TD*%
D15*
%TO.C,R86*%
X278535000Y-163830000D03*
X278535000Y-165655000D03*
%TD*%
D23*
%TO.C,J14*%
X355442000Y-225885000D03*
X355442000Y-219885000D03*
D38*
X354167000Y-226085000D03*
X354167000Y-225285000D03*
D39*
X354167000Y-224135000D03*
X354167000Y-223135000D03*
X354167000Y-222635000D03*
X354167000Y-221635000D03*
D38*
X354167000Y-219685000D03*
X354167000Y-220485000D03*
D39*
X354167000Y-221135000D03*
X354167000Y-222135000D03*
X354167000Y-223635000D03*
X354167000Y-224635000D03*
D40*
X354817000Y-227980000D03*
X354817000Y-217790000D03*
D41*
X358742000Y-217790000D03*
X358742000Y-227980000D03*
%TD*%
D42*
%TO.C,C7*%
X275992500Y-233680000D03*
X273917500Y-233680000D03*
%TD*%
D11*
%TO.C,R3*%
X283210000Y-242847500D03*
X283210000Y-241022500D03*
%TD*%
%TO.C,R85*%
X296315000Y-165655000D03*
X296315000Y-163830000D03*
%TD*%
D43*
%TO.C,D3*%
X317265000Y-239030000D03*
X319615000Y-239030000D03*
%TD*%
D12*
%TO.C,R77*%
X253706250Y-164465000D03*
X255531250Y-164465000D03*
%TD*%
D32*
%TO.C,C23*%
X323215000Y-234087500D03*
X323215000Y-235812500D03*
%TD*%
D44*
%TO.C,U10*%
X302895000Y-236830000D03*
X301625000Y-236830000D03*
X300355000Y-236830000D03*
%TD*%
D11*
%TO.C,R4*%
X290740000Y-237055000D03*
X290740000Y-235230000D03*
%TD*%
D19*
%TO.C,D12*%
X338085000Y-197485000D03*
X336285000Y-197485000D03*
%TD*%
D12*
%TO.C,R43*%
X338812500Y-239395000D03*
X340637500Y-239395000D03*
%TD*%
D45*
%TO.C,J5*%
X258151250Y-177960000D03*
D46*
X258151250Y-180460000D03*
X258151250Y-182960000D03*
X258151250Y-185460000D03*
X258151250Y-187960000D03*
%TD*%
D36*
%TO.C,D8*%
X325460000Y-224040000D03*
X325460000Y-222240000D03*
%TD*%
D20*
%TO.C,R41*%
X275867500Y-158750000D03*
X274042500Y-158750000D03*
%TD*%
D19*
%TO.C,D13*%
X338085000Y-200025000D03*
X336285000Y-200025000D03*
%TD*%
D47*
%TO.C,J18*%
X288250000Y-222095000D03*
D14*
X288250000Y-224635000D03*
X288250000Y-227175000D03*
%TD*%
D11*
%TO.C,FB2*%
X335915000Y-244752500D03*
X335915000Y-242927500D03*
%TD*%
D32*
%TO.C,C61*%
X283845000Y-201067500D03*
X283845000Y-202792500D03*
%TD*%
D15*
%TO.C,R92*%
X281075000Y-163830000D03*
X281075000Y-165655000D03*
%TD*%
D42*
%TO.C,C8*%
X275960000Y-237140000D03*
X273885000Y-237140000D03*
%TD*%
D15*
%TO.C,R100*%
X316865000Y-163830000D03*
X316865000Y-165655000D03*
%TD*%
D13*
%TO.C,J2*%
X288250000Y-197330000D03*
D14*
X288250000Y-194790000D03*
X288250000Y-192250000D03*
X288250000Y-189710000D03*
%TD*%
D16*
%TO.C,C29*%
X339905000Y-227965000D03*
X341630000Y-227965000D03*
%TD*%
D48*
%TO.C,J7*%
X347600000Y-210000000D03*
D49*
X353500000Y-210000000D03*
D50*
X350400000Y-205300000D03*
%TD*%
D10*
%TO.C,C20*%
X325225000Y-208027500D03*
X325225000Y-206302500D03*
%TD*%
D51*
%TO.C,D6*%
X329860000Y-234390000D03*
X329860000Y-237890000D03*
%TD*%
D47*
%TO.C,J15*%
X258818750Y-141605000D03*
D14*
X258818750Y-144145000D03*
X258818750Y-146685000D03*
X258818750Y-149225000D03*
X258818750Y-151765000D03*
X258818750Y-154305000D03*
X258818750Y-156845000D03*
X258818750Y-159385000D03*
X258818750Y-161925000D03*
X258818750Y-164465000D03*
X258818750Y-167005000D03*
X258818750Y-169545000D03*
%TD*%
D12*
%TO.C,R76*%
X253706250Y-161925000D03*
X255531250Y-161925000D03*
%TD*%
D29*
%TO.C,H2*%
X254555000Y-131365000D03*
%TD*%
D12*
%TO.C,R73*%
X253706250Y-146685000D03*
X255531250Y-146685000D03*
%TD*%
D13*
%TO.C,J10*%
X265771250Y-200660000D03*
D14*
X265771250Y-198120000D03*
X265771250Y-195580000D03*
X265771250Y-193040000D03*
%TD*%
D16*
%TO.C,C18*%
X333782500Y-231140000D03*
X335507500Y-231140000D03*
%TD*%
D52*
%TO.C,U5*%
X326815000Y-212070000D03*
X326815000Y-212570000D03*
X326815000Y-213070000D03*
X326815000Y-213570000D03*
X328295000Y-213570000D03*
X328295000Y-213070000D03*
X328295000Y-212570000D03*
X328295000Y-212070000D03*
%TD*%
D11*
%TO.C,R8*%
X306340000Y-245387500D03*
X306340000Y-243562500D03*
%TD*%
D23*
%TO.C,J8*%
X312595000Y-245587000D03*
X318595000Y-245587000D03*
D24*
X312395000Y-244312000D03*
X313195000Y-244312000D03*
D25*
X314345000Y-244312000D03*
X315345000Y-244312000D03*
X315845000Y-244312000D03*
X316845000Y-244312000D03*
D24*
X318795000Y-244312000D03*
X317995000Y-244312000D03*
D25*
X317345000Y-244312000D03*
X316345000Y-244312000D03*
X314845000Y-244312000D03*
X313845000Y-244312000D03*
D26*
X310500000Y-244962000D03*
X320690000Y-244962000D03*
D27*
X320690000Y-248887000D03*
X310500000Y-248887000D03*
%TD*%
D12*
%TO.C,R29*%
X328652500Y-192405000D03*
X330477500Y-192405000D03*
%TD*%
D53*
%TO.C,C15*%
X333607500Y-236640000D03*
X335682500Y-236640000D03*
%TD*%
D12*
%TO.C,R7*%
X282932500Y-231140000D03*
X284757500Y-231140000D03*
%TD*%
D32*
%TO.C,C12*%
X327679000Y-242369000D03*
X327679000Y-244094000D03*
%TD*%
D12*
%TO.C,R40*%
X347702500Y-234315000D03*
X349527500Y-234315000D03*
%TD*%
D11*
%TO.C,R36*%
X322482500Y-216812500D03*
X322482500Y-214987500D03*
%TD*%
D12*
%TO.C,FB3*%
X347702500Y-217170000D03*
X349527500Y-217170000D03*
%TD*%
D54*
%TO.C,P3*%
X355600000Y-169900000D03*
D55*
X355600000Y-164820000D03*
%TD*%
D56*
%TO.C,C21*%
X330305000Y-208202500D03*
X330305000Y-206127500D03*
%TD*%
D57*
%TO.C,D2*%
X290890000Y-239330000D03*
X288540000Y-239330000D03*
%TD*%
D47*
%TO.C,J19*%
X292060000Y-222095000D03*
D14*
X292060000Y-224635000D03*
X292060000Y-227175000D03*
%TD*%
D32*
%TO.C,C10*%
X333394000Y-242369000D03*
X333394000Y-244094000D03*
%TD*%
D58*
%TO.C,J20*%
X344405000Y-183110000D03*
D59*
X353105000Y-183110000D03*
X344405000Y-178030000D03*
X353105000Y-178030000D03*
%TD*%
D10*
%TO.C,C19*%
X322680000Y-206022500D03*
X322680000Y-204297500D03*
%TD*%
D11*
%TO.C,R2*%
X295275000Y-190777500D03*
X295275000Y-188952500D03*
%TD*%
D12*
%TO.C,R30*%
X328612500Y-194945000D03*
X330437500Y-194945000D03*
%TD*%
%TO.C,R31*%
X328612500Y-197485000D03*
X330437500Y-197485000D03*
%TD*%
D16*
%TO.C,C27*%
X339905000Y-222945000D03*
X341630000Y-222945000D03*
%TD*%
D11*
%TO.C,R5*%
X293740000Y-237030000D03*
X293740000Y-235205000D03*
%TD*%
D12*
%TO.C,R39*%
X347702500Y-231140000D03*
X349527500Y-231140000D03*
%TD*%
D60*
%TO.C,S1*%
X331110000Y-231990000D03*
X326960000Y-231990000D03*
X331110000Y-229840000D03*
X326960000Y-229840000D03*
%TD*%
D61*
%TO.C,C33*%
X345605000Y-223752500D03*
X345605000Y-225827500D03*
%TD*%
D15*
%TO.C,R99*%
X319405000Y-163830000D03*
X319405000Y-165655000D03*
%TD*%
D19*
%TO.C,D14*%
X338085000Y-202565000D03*
X336285000Y-202565000D03*
%TD*%
D15*
%TO.C,R87*%
X298855000Y-163830000D03*
X298855000Y-165655000D03*
%TD*%
D62*
%TO.C,P1*%
X264160000Y-246380000D03*
D55*
X269240000Y-246380000D03*
%TD*%
D19*
%TO.C,D10*%
X338085000Y-192405000D03*
X336285000Y-192405000D03*
%TD*%
D63*
%TO.C,J24*%
X303935000Y-168942500D03*
D14*
X301395000Y-168942500D03*
X298855000Y-168942500D03*
X296315000Y-168942500D03*
X293775000Y-168942500D03*
X291235000Y-168942500D03*
X288695000Y-168942500D03*
X286155000Y-168942500D03*
X283615000Y-168942500D03*
X281075000Y-168942500D03*
X278535000Y-168942500D03*
X275995000Y-168942500D03*
%TD*%
D15*
%TO.C,R98*%
X321945000Y-163830000D03*
X321945000Y-165655000D03*
%TD*%
D10*
%TO.C,C2*%
X276860000Y-247877500D03*
X276860000Y-246152500D03*
%TD*%
D29*
%TO.C,H1*%
X254555000Y-245760000D03*
%TD*%
D20*
%TO.C,R72*%
X255531250Y-149225000D03*
X253706250Y-149225000D03*
%TD*%
D11*
%TO.C,R27*%
X324772500Y-232152500D03*
X324772500Y-230327500D03*
%TD*%
D37*
%TO.C,C24*%
X330427500Y-216380000D03*
X328702500Y-216380000D03*
%TD*%
D12*
%TO.C,R32*%
X328652500Y-200025000D03*
X330477500Y-200025000D03*
%TD*%
D32*
%TO.C,C62*%
X283845000Y-207417500D03*
X283845000Y-209142500D03*
%TD*%
D11*
%TO.C,R96*%
X311785000Y-165655000D03*
X311785000Y-163830000D03*
%TD*%
D37*
%TO.C,C110*%
X255481250Y-172085000D03*
X253756250Y-172085000D03*
%TD*%
D64*
%TO.C,Y1*%
X288290000Y-208180000D03*
X288290000Y-203300000D03*
%TD*%
D12*
%TO.C,R74*%
X253706250Y-156845000D03*
X255531250Y-156845000D03*
%TD*%
D11*
%TO.C,R93*%
X332105000Y-165655000D03*
X332105000Y-163830000D03*
%TD*%
D54*
%TO.C,P2*%
X356400000Y-238040000D03*
D55*
X356400000Y-232960000D03*
%TD*%
D58*
%TO.C,J22*%
X344405000Y-198350000D03*
D59*
X353105000Y-198350000D03*
X344405000Y-193270000D03*
X353105000Y-193270000D03*
%TD*%
D65*
%TO.C,SW1*%
X282575000Y-196850000D03*
D66*
X282575000Y-194310000D03*
X274955000Y-194310000D03*
X274955000Y-196850000D03*
%TD*%
D10*
%TO.C,C4*%
X281940000Y-247877500D03*
X281940000Y-246152500D03*
%TD*%
D63*
%TO.C,J25*%
X339725000Y-168942500D03*
D14*
X337185000Y-168942500D03*
X334645000Y-168942500D03*
X332105000Y-168942500D03*
X329565000Y-168942500D03*
X327025000Y-168942500D03*
X324485000Y-168942500D03*
X321945000Y-168942500D03*
X319405000Y-168942500D03*
X316865000Y-168942500D03*
X314325000Y-168942500D03*
X311785000Y-168942500D03*
%TD*%
D43*
%TO.C,D1*%
X293740000Y-239330000D03*
X296090000Y-239330000D03*
%TD*%
D12*
%TO.C,R78*%
X253706250Y-167005000D03*
X255531250Y-167005000D03*
%TD*%
D61*
%TO.C,C32*%
X348615000Y-223752500D03*
X348615000Y-225827500D03*
%TD*%
D67*
%TO.C,Q5*%
X342900000Y-234935000D03*
X342900000Y-234285000D03*
X342900000Y-233635000D03*
X341024000Y-233635000D03*
X341024000Y-234285000D03*
X341024000Y-234935000D03*
D68*
X341962000Y-234610000D03*
D69*
X341962000Y-233635000D03*
%TD*%
D11*
%TO.C,R23*%
X320060000Y-222565000D03*
X320060000Y-220740000D03*
%TD*%
D62*
%TO.C,P4*%
X339620000Y-246200000D03*
D55*
X344700000Y-246200000D03*
%TD*%
D20*
%TO.C,R79*%
X255531250Y-169545000D03*
X253706250Y-169545000D03*
%TD*%
D12*
%TO.C,R6*%
X278487500Y-231140000D03*
X280312500Y-231140000D03*
%TD*%
D53*
%TO.C,C16*%
X329797500Y-240030000D03*
X331872500Y-240030000D03*
%TD*%
D15*
%TO.C,R89*%
X288695000Y-163830000D03*
X288695000Y-165655000D03*
%TD*%
D13*
%TO.C,J12*%
X257026250Y-200720000D03*
D14*
X257026250Y-198180000D03*
X257026250Y-195640000D03*
X257026250Y-193100000D03*
%TD*%
D11*
%TO.C,R88*%
X275995000Y-165655000D03*
X275995000Y-163830000D03*
%TD*%
D32*
%TO.C,C11*%
X330454000Y-242369000D03*
X330454000Y-244094000D03*
%TD*%
D10*
%TO.C,C13*%
X330708000Y-248158000D03*
X330708000Y-246433000D03*
%TD*%
D70*
%TO.C,U11*%
X295884000Y-197040000D03*
X295884000Y-197540000D03*
X295884000Y-198040000D03*
X295884000Y-198540000D03*
X295884000Y-199040000D03*
X295884000Y-199540000D03*
X295884000Y-200040000D03*
X295884000Y-200540000D03*
X295884000Y-201040000D03*
X295884000Y-201540000D03*
X295884000Y-202040000D03*
X295884000Y-202540000D03*
X295884000Y-203040000D03*
X295884000Y-203540000D03*
X295884000Y-204040000D03*
X295884000Y-204540000D03*
X295884000Y-205040000D03*
X295884000Y-205540000D03*
X295884000Y-206040000D03*
X295884000Y-206540000D03*
X295884000Y-207040000D03*
X295884000Y-207540000D03*
X295884000Y-208040000D03*
X295884000Y-208540000D03*
X295884000Y-209040000D03*
X295884000Y-209540000D03*
X295884000Y-210040000D03*
X295884000Y-210540000D03*
X295884000Y-211040000D03*
X295884000Y-211540000D03*
X295884000Y-212040000D03*
X295884000Y-212540000D03*
X295884000Y-213040000D03*
X295884000Y-213540000D03*
X295884000Y-214040000D03*
X295884000Y-214540000D03*
D71*
X297872000Y-216528000D03*
X298372000Y-216528000D03*
X298872000Y-216528000D03*
X299372000Y-216528000D03*
X299872000Y-216528000D03*
X300372000Y-216528000D03*
X300872000Y-216528000D03*
X301372000Y-216528000D03*
X301872000Y-216528000D03*
X302372000Y-216528000D03*
X302872000Y-216528000D03*
X303372000Y-216528000D03*
X303872000Y-216528000D03*
X304372000Y-216528000D03*
X304872000Y-216528000D03*
X305372000Y-216528000D03*
X305872000Y-216528000D03*
X306372000Y-216528000D03*
X306872000Y-216528000D03*
X307372000Y-216528000D03*
X307872000Y-216528000D03*
X308372000Y-216528000D03*
X308872000Y-216528000D03*
X309372000Y-216528000D03*
X309872000Y-216528000D03*
X310372000Y-216528000D03*
X310872000Y-216528000D03*
X311372000Y-216528000D03*
X311872000Y-216528000D03*
X312372000Y-216528000D03*
X312872000Y-216528000D03*
X313372000Y-216528000D03*
X313872000Y-216528000D03*
X314372000Y-216528000D03*
X314872000Y-216528000D03*
X315372000Y-216528000D03*
D70*
X317360000Y-214540000D03*
X317360000Y-214040000D03*
X317360000Y-213540000D03*
X317360000Y-213040000D03*
X317360000Y-212540000D03*
X317360000Y-212040000D03*
X317360000Y-211540000D03*
X317360000Y-211040000D03*
X317360000Y-210540000D03*
X317360000Y-210040000D03*
X317360000Y-209540000D03*
X317360000Y-209040000D03*
X317360000Y-208540000D03*
X317360000Y-208040000D03*
X317360000Y-207540000D03*
X317360000Y-207040000D03*
X317360000Y-206540000D03*
X317360000Y-206040000D03*
X317360000Y-205540000D03*
X317360000Y-205040000D03*
X317360000Y-204540000D03*
X317360000Y-204040000D03*
X317360000Y-203540000D03*
X317360000Y-203040000D03*
X317360000Y-202540000D03*
X317360000Y-202040000D03*
X317360000Y-201540000D03*
X317360000Y-201040000D03*
X317360000Y-200540000D03*
X317360000Y-200040000D03*
X317360000Y-199540000D03*
X317360000Y-199040000D03*
X317360000Y-198540000D03*
X317360000Y-198040000D03*
X317360000Y-197540000D03*
X317360000Y-197040000D03*
D71*
X315372000Y-195052000D03*
X314872000Y-195052000D03*
X314372000Y-195052000D03*
X313872000Y-195052000D03*
X313372000Y-195052000D03*
X312872000Y-195052000D03*
X312372000Y-195052000D03*
X311872000Y-195052000D03*
X311372000Y-195052000D03*
X310872000Y-195052000D03*
X310372000Y-195052000D03*
X309872000Y-195052000D03*
X309372000Y-195052000D03*
X308872000Y-195052000D03*
X308372000Y-195052000D03*
X307872000Y-195052000D03*
X307372000Y-195052000D03*
X306872000Y-195052000D03*
X306372000Y-195052000D03*
X305872000Y-195052000D03*
X305372000Y-195052000D03*
X304872000Y-195052000D03*
X304372000Y-195052000D03*
X303872000Y-195052000D03*
X303372000Y-195052000D03*
X302872000Y-195052000D03*
X302372000Y-195052000D03*
X301872000Y-195052000D03*
X301372000Y-195052000D03*
X300872000Y-195052000D03*
X300372000Y-195052000D03*
X299872000Y-195052000D03*
X299372000Y-195052000D03*
X298872000Y-195052000D03*
X298372000Y-195052000D03*
X297872000Y-195052000D03*
%TD*%
D72*
%TO.C,J1*%
X288290000Y-184785000D03*
D14*
X288290000Y-182245000D03*
X290830000Y-184785000D03*
X290830000Y-182245000D03*
X293370000Y-184785000D03*
X293370000Y-182245000D03*
X295910000Y-184785000D03*
X295910000Y-182245000D03*
X298450000Y-184785000D03*
X298450000Y-182245000D03*
X300990000Y-184785000D03*
X300990000Y-182245000D03*
X303530000Y-184785000D03*
X303530000Y-182245000D03*
X306070000Y-184785000D03*
X306070000Y-182245000D03*
X308610000Y-184785000D03*
X308610000Y-182245000D03*
X311150000Y-184785000D03*
X311150000Y-182245000D03*
X313690000Y-184785000D03*
X313690000Y-182245000D03*
X316230000Y-184785000D03*
X316230000Y-182245000D03*
X318770000Y-184785000D03*
X318770000Y-182245000D03*
X321310000Y-184785000D03*
X321310000Y-182245000D03*
X323850000Y-184785000D03*
X323850000Y-182245000D03*
X326390000Y-184785000D03*
X326390000Y-182245000D03*
X328930000Y-184785000D03*
X328930000Y-182245000D03*
X331470000Y-184785000D03*
X331470000Y-182245000D03*
X334010000Y-184785000D03*
X334010000Y-182245000D03*
X336550000Y-184785000D03*
X336550000Y-182245000D03*
%TD*%
D37*
%TO.C,C6*%
X275817500Y-231140000D03*
X274092500Y-231140000D03*
%TD*%
D62*
%TO.C,J21*%
X301072500Y-140970000D03*
D55*
X306152500Y-140970000D03*
X311232500Y-140970000D03*
X316312500Y-140970000D03*
%TD*%
D19*
%TO.C,D11*%
X338085000Y-194945000D03*
X336285000Y-194945000D03*
%TD*%
D57*
%TO.C,D4*%
X314415000Y-239030000D03*
X312065000Y-239030000D03*
%TD*%
D11*
%TO.C,R25*%
X322860000Y-228052500D03*
X322860000Y-226227500D03*
%TD*%
D15*
%TO.C,R91*%
X283615000Y-163830000D03*
X283615000Y-165655000D03*
%TD*%
D11*
%TO.C,R24*%
X317960000Y-222565000D03*
X317960000Y-220740000D03*
%TD*%
D72*
%TO.C,J17*%
X291827750Y-175260000D03*
D14*
X289287750Y-175260000D03*
X286747750Y-175260000D03*
X284207750Y-175260000D03*
X281667750Y-175260000D03*
X279127750Y-175260000D03*
X276587750Y-175260000D03*
X274047750Y-175260000D03*
X271507750Y-175260000D03*
X268967750Y-175260000D03*
X266427750Y-175260000D03*
X263887750Y-175260000D03*
%TD*%
D73*
%TO.C,PS2*%
X340320000Y-135712500D03*
D74*
X335240000Y-135712500D03*
X347980000Y-156032500D03*
X337820000Y-156032500D03*
X327660000Y-156032500D03*
X327620000Y-135712500D03*
%TD*%
D73*
%TO.C,PS3*%
X337460000Y-219035000D03*
D74*
X332380000Y-219035000D03*
X345120000Y-239355000D03*
X334960000Y-239355000D03*
X324800000Y-239355000D03*
X324760000Y-219035000D03*
%TD*%
D47*
%TO.C,J3*%
X279995000Y-226540000D03*
D14*
X279995000Y-224000000D03*
X279995000Y-221460000D03*
X279995000Y-218920000D03*
X279995000Y-216380000D03*
X279995000Y-213840000D03*
X279995000Y-211300000D03*
X279995000Y-208760000D03*
X279995000Y-206220000D03*
%TD*%
D73*
%TO.C,PS1*%
X282535000Y-138390000D03*
D74*
X277455000Y-138390000D03*
X290195000Y-158710000D03*
X280035000Y-158710000D03*
X269875000Y-158710000D03*
X269835000Y-138390000D03*
%TD*%
D63*
%TO.C,J4*%
X258405000Y-237140000D03*
D14*
X260945000Y-237140000D03*
X263485000Y-237140000D03*
X266025000Y-237140000D03*
%TD*%
D75*
%TO.C,J23*%
X314967500Y-155852500D03*
D55*
X309887500Y-155852500D03*
X304807500Y-155852500D03*
X299727500Y-155852500D03*
%TD*%
M02*
