%TF.GenerationSoftware,KiCad,Pcbnew,9.0.5*%
%TF.CreationDate,2026-01-13T21:54:13-06:00*%
%TF.ProjectId,STAR_BMS,53544152-5f42-44d5-932e-6b696361645f,rev?*%
%TF.SameCoordinates,Original*%
%TF.FileFunction,Copper,L3,Inr*%
%TF.FilePolarity,Positive*%
%FSLAX46Y46*%
G04 Gerber Fmt 4.6, Leading zero omitted, Abs format (unit mm)*
G04 Created by KiCad (PCBNEW 9.0.5) date 2026-01-13 21:54:13*
%MOMM*%
%LPD*%
G01*
G04 APERTURE LIST*
%TA.AperFunction,ComponentPad*%
%ADD10C,1.400000*%
%TD*%
%TA.AperFunction,ComponentPad*%
%ADD11R,2.100000X2.100000*%
%TD*%
%TA.AperFunction,ComponentPad*%
%ADD12C,2.100000*%
%TD*%
%TA.AperFunction,ComponentPad*%
%ADD13C,0.800000*%
%TD*%
%TA.AperFunction,ComponentPad*%
%ADD14C,6.400000*%
%TD*%
%TA.AperFunction,ComponentPad*%
%ADD15C,4.800000*%
%TD*%
%TA.AperFunction,ComponentPad*%
%ADD16R,1.700000X1.700000*%
%TD*%
%TA.AperFunction,ComponentPad*%
%ADD17C,1.700000*%
%TD*%
%TA.AperFunction,ComponentPad*%
%ADD18C,1.574800*%
%TD*%
%TA.AperFunction,ComponentPad*%
%ADD19C,1.650000*%
%TD*%
%TA.AperFunction,ViaPad*%
%ADD20C,0.600000*%
%TD*%
%TA.AperFunction,Conductor*%
%ADD21C,0.300000*%
%TD*%
%TA.AperFunction,Conductor*%
%ADD22C,0.200000*%
%TD*%
G04 APERTURE END LIST*
D10*
%TO.N,/CELL2_VP*%
%TO.C,J4*%
X143256000Y-109300000D03*
%TO.N,/CELL1_VP*%
X143256000Y-111800000D03*
%TO.N,AGND*%
X143256000Y-114300000D03*
%TD*%
D11*
%TO.N,CH_GND*%
%TO.C,J3*%
X131548000Y-70504000D03*
D12*
X131548000Y-61804000D03*
%TO.N,/PACK+*%
X126468000Y-70504000D03*
X126468000Y-61804000D03*
%TD*%
D11*
%TO.N,AGND*%
%TO.C,J8*%
X142176000Y-98044000D03*
D12*
X150876000Y-98044000D03*
%TO.N,/CELL2_VP*%
X142176000Y-92964000D03*
X150876000Y-92964000D03*
%TD*%
D13*
%TO.N,CH_GND*%
%TO.C,H1*%
X30032000Y-58340000D03*
X30734944Y-56642944D03*
X30734944Y-60037056D03*
X32432000Y-55940000D03*
D14*
X32432000Y-58340000D03*
D13*
X32432000Y-60740000D03*
X34129056Y-56642944D03*
X34129056Y-60037056D03*
X34832000Y-58340000D03*
%TD*%
D10*
%TO.N,/CELL2_VP*%
%TO.C,J5*%
X134406000Y-109300000D03*
%TO.N,/CELL1_VP*%
X134406000Y-111800000D03*
%TO.N,AGND*%
X134406000Y-114300000D03*
%TD*%
D13*
%TO.N,CH_GND*%
%TO.C,H2*%
X150499305Y-133811000D03*
X151202249Y-132113944D03*
X151202249Y-135508056D03*
X152899305Y-131411000D03*
D14*
X152899305Y-133811000D03*
D13*
X152899305Y-136211000D03*
X154596361Y-132113944D03*
X154596361Y-135508056D03*
X155299305Y-133811000D03*
%TD*%
D11*
%TO.N,AGND*%
%TO.C,J7*%
X142076000Y-83744000D03*
D12*
X150776000Y-83744000D03*
%TO.N,/CELL2_VP*%
X142076000Y-78664000D03*
X150776000Y-78664000D03*
%TD*%
D13*
%TO.N,CH_GND*%
%TO.C,H4*%
X151985000Y-58340000D03*
X152687944Y-56642944D03*
X152687944Y-60037056D03*
X154385000Y-55940000D03*
D14*
X154385000Y-58340000D03*
D13*
X154385000Y-60740000D03*
X156082056Y-56642944D03*
X156082056Y-60037056D03*
X156785000Y-58340000D03*
%TD*%
D15*
%TO.N,Net-(J1-POWER)*%
%TO.C,J1*%
X40725000Y-71045500D03*
%TO.N,CH_GND*%
X34925000Y-71045500D03*
X37725000Y-75845500D03*
%TD*%
D16*
%TO.N,GND*%
%TO.C,J10*%
X93980000Y-117348000D03*
D17*
%TO.N,Net-(J10-Pin_2)*%
X93980000Y-119888000D03*
%TD*%
D16*
%TO.N,GND*%
%TO.C,J11*%
X98552000Y-117348000D03*
D17*
%TO.N,Net-(J11-Pin_2)*%
X98552000Y-119888000D03*
%TD*%
D18*
%TO.N,CH_GND*%
%TO.C,J9*%
X42470600Y-119421900D03*
%TO.N,/BMS_SMBUS_CLK*%
X42470600Y-121961900D03*
%TO.N,/BMS_SMBUS_DATA*%
X42470600Y-124501900D03*
%TO.N,unconnected-(J9-Pad4)*%
X42470600Y-127041900D03*
%TD*%
D13*
%TO.N,CH_GND*%
%TO.C,H3*%
X30032000Y-133811000D03*
X30734944Y-132113944D03*
X30734944Y-135508056D03*
X32432000Y-131411000D03*
D14*
X32432000Y-133811000D03*
D13*
X32432000Y-136211000D03*
X34129056Y-132113944D03*
X34129056Y-135508056D03*
X34832000Y-133811000D03*
%TD*%
D16*
%TO.N,Net-(J6-Pin_1)*%
%TO.C,J6*%
X37719000Y-85222000D03*
D17*
%TO.N,CH_GND*%
X37719000Y-82682000D03*
%TD*%
D19*
%TO.N,/BTP_INT*%
%TO.C,J2*%
X35560000Y-102616000D03*
%TO.N,/BMS_SMBUS_DATA*%
X33020000Y-102616000D03*
%TO.N,CH_GND*%
X35560000Y-100076000D03*
%TO.N,/BMS_SMBUS_CLK*%
X33020000Y-100076000D03*
%TO.N,CH_GND*%
X35560000Y-97536000D03*
X33020000Y-97536000D03*
%TD*%
D16*
%TO.N,GND*%
%TO.C,J13*%
X107696000Y-117348000D03*
D17*
%TO.N,Net-(J13-Pin_2)*%
X107696000Y-119888000D03*
%TD*%
D16*
%TO.N,GND*%
%TO.C,J12*%
X103124000Y-117348000D03*
D17*
%TO.N,Net-(J12-Pin_2)*%
X103124000Y-119888000D03*
%TD*%
D20*
%TO.N,CH_GND*%
X82550000Y-98171000D03*
X63500000Y-111252000D03*
X51562000Y-60071000D03*
X99568000Y-68072000D03*
X80772000Y-55372000D03*
X99568000Y-66040000D03*
X85852000Y-59436000D03*
X46609000Y-83185000D03*
X40132000Y-113284000D03*
X46482000Y-62103000D03*
X90932000Y-61468000D03*
X58420000Y-126492000D03*
X49149000Y-79121000D03*
X68580000Y-111252000D03*
X63500000Y-124460000D03*
X40132000Y-111252000D03*
X46609000Y-79121000D03*
X66040000Y-111252000D03*
X47752000Y-113284000D03*
X55880000Y-111252000D03*
X52832000Y-109220000D03*
X60960000Y-128524000D03*
X50292000Y-113284000D03*
X54102000Y-56007000D03*
X88392000Y-55372000D03*
X85090000Y-96139000D03*
X44069000Y-85217000D03*
X76200000Y-130556000D03*
X47752000Y-115316000D03*
X53340000Y-126492000D03*
X87630000Y-98171000D03*
X43942000Y-62103000D03*
X44069000Y-79121000D03*
X51562000Y-62103000D03*
X50800000Y-130556000D03*
X49022000Y-56007000D03*
X52832000Y-111252000D03*
X58420000Y-109220000D03*
X102108000Y-66040000D03*
X73660000Y-124460000D03*
X73660000Y-128524000D03*
X85852000Y-57404000D03*
X58420000Y-111252000D03*
X71120000Y-130556000D03*
X50800000Y-128524000D03*
X80010000Y-98171000D03*
X93472000Y-55372000D03*
X55880000Y-126492000D03*
X52832000Y-113284000D03*
X42672000Y-109220000D03*
X49022000Y-58039000D03*
X80010000Y-96139000D03*
X93472000Y-61468000D03*
X60960000Y-126492000D03*
X88392000Y-61468000D03*
X76200000Y-124460000D03*
X90932000Y-59436000D03*
X50800000Y-124460000D03*
X60960000Y-130556000D03*
X51562000Y-56007000D03*
X60960000Y-115316000D03*
X56642000Y-60071000D03*
X58420000Y-115316000D03*
X46609000Y-85217000D03*
X80772000Y-57404000D03*
X50292000Y-109220000D03*
X68580000Y-113284000D03*
X42672000Y-113284000D03*
X83312000Y-61468000D03*
X80772000Y-61468000D03*
X44069000Y-83185000D03*
X54102000Y-62103000D03*
X102108000Y-64008000D03*
X102108000Y-68072000D03*
X80772000Y-59436000D03*
X45212000Y-109220000D03*
X49149000Y-81153000D03*
X102108000Y-70104000D03*
X51689000Y-85217000D03*
X51562000Y-58039000D03*
X73660000Y-130556000D03*
X54102000Y-58039000D03*
X40132000Y-109220000D03*
X48260000Y-128524000D03*
X46609000Y-81153000D03*
X54102000Y-60071000D03*
X90932000Y-55372000D03*
X93472000Y-57404000D03*
X60960000Y-124460000D03*
X42672000Y-111252000D03*
X104648000Y-70104000D03*
X48260000Y-126492000D03*
X56642000Y-62103000D03*
X85090000Y-98171000D03*
X71120000Y-124460000D03*
X80010000Y-94107000D03*
X63500000Y-130556000D03*
X83312000Y-57404000D03*
X44069000Y-81153000D03*
X50800000Y-126492000D03*
X66040000Y-130556000D03*
X66040000Y-126492000D03*
X78232000Y-76200000D03*
X66040000Y-124460000D03*
X50292000Y-111252000D03*
X68580000Y-126492000D03*
X85852000Y-55372000D03*
X83312000Y-59436000D03*
X63500000Y-128524000D03*
X55880000Y-128524000D03*
X55880000Y-113284000D03*
X40132000Y-115316000D03*
X52832000Y-115316000D03*
X99568000Y-64008000D03*
X60960000Y-109220000D03*
X43942000Y-60071000D03*
X60960000Y-113284000D03*
X55880000Y-109220000D03*
X66040000Y-113284000D03*
X58420000Y-128524000D03*
X42672000Y-115316000D03*
X43942000Y-56007000D03*
X82550000Y-94107000D03*
X47752000Y-111252000D03*
X88392000Y-57404000D03*
X55880000Y-115316000D03*
X88392000Y-59436000D03*
X76200000Y-128524000D03*
X87630000Y-96139000D03*
X58420000Y-124460000D03*
X58420000Y-130556000D03*
X104648000Y-64008000D03*
X53340000Y-128524000D03*
X45212000Y-113284000D03*
X83312000Y-55372000D03*
X66040000Y-128524000D03*
X51689000Y-81153000D03*
X47752000Y-109220000D03*
X55880000Y-130556000D03*
X63500000Y-126492000D03*
X49149000Y-85217000D03*
X45212000Y-115316000D03*
X46482000Y-58039000D03*
X104648000Y-68072000D03*
X46482000Y-56007000D03*
X63500000Y-113284000D03*
X71120000Y-128524000D03*
X63500000Y-109220000D03*
X104648000Y-66040000D03*
X49022000Y-62103000D03*
X68580000Y-109220000D03*
X46482000Y-60071000D03*
X90932000Y-57404000D03*
X71120000Y-126492000D03*
X45212000Y-111252000D03*
X73660000Y-126492000D03*
X58420000Y-113284000D03*
X49149000Y-83185000D03*
X55880000Y-124460000D03*
X48260000Y-130556000D03*
X82550000Y-96139000D03*
X87630000Y-94107000D03*
X99568000Y-70104000D03*
X93472000Y-59436000D03*
X76200000Y-126492000D03*
X85090000Y-94107000D03*
X56642000Y-58039000D03*
X68580000Y-130556000D03*
X68580000Y-128524000D03*
X60960000Y-111252000D03*
X56642000Y-56007000D03*
X43942000Y-58039000D03*
X50292000Y-115316000D03*
X68580000Y-124460000D03*
X63500000Y-115316000D03*
X48260000Y-124460000D03*
X120269000Y-72644000D03*
X53340000Y-124460000D03*
X51689000Y-79121000D03*
X49022000Y-60071000D03*
X68580000Y-115316000D03*
X85852000Y-61468000D03*
X53340000Y-130556000D03*
X51689000Y-83185000D03*
X66040000Y-115316000D03*
X66040000Y-109220000D03*
%TO.N,Net-(U1-CE)*%
X75184000Y-80264000D03*
X71628000Y-76235000D03*
%TO.N,Net-(U1-TS)*%
X72136000Y-78740000D03*
X71628000Y-94488000D03*
%TO.N,Net-(D4-A)*%
X80264000Y-76200000D03*
X81788000Y-85852000D03*
%TO.N,Net-(D4-K)*%
X83312000Y-82296000D03*
X71120000Y-74676000D03*
%TO.N,Net-(D14-K)*%
X109220000Y-97536000D03*
X98933000Y-95920000D03*
%TO.N,Net-(U3-SRN)*%
X81788000Y-118872000D03*
X94869000Y-102870000D03*
%TO.N,Net-(U3-SRP)*%
X94615000Y-104648000D03*
X88900000Y-118872000D03*
%TO.N,AGND*%
X142240000Y-119888000D03*
X123444000Y-113792000D03*
X123444000Y-119888000D03*
X121920000Y-122936000D03*
X128016000Y-124460000D03*
X142240000Y-125984000D03*
X126492000Y-121412000D03*
X108204000Y-127508000D03*
X142240000Y-129032000D03*
X121920000Y-121412000D03*
X121920000Y-124460000D03*
X140716000Y-118364000D03*
X96012000Y-127508000D03*
X128016000Y-115316000D03*
X143764000Y-122936000D03*
X140716000Y-124460000D03*
X129540000Y-116840000D03*
X91440000Y-125984000D03*
X128016000Y-122936000D03*
X123444000Y-116840000D03*
X96012000Y-125984000D03*
X142240000Y-127508000D03*
X92964000Y-127508000D03*
X121920000Y-116840000D03*
X137668000Y-124460000D03*
X126492000Y-119888000D03*
X126492000Y-116840000D03*
X126492000Y-118364000D03*
X124968000Y-121412000D03*
X142240000Y-118364000D03*
X124968000Y-115316000D03*
X108204000Y-125984000D03*
X136144000Y-129032000D03*
X128016000Y-116840000D03*
X139192000Y-127508000D03*
X129540000Y-124460000D03*
X123444000Y-124460000D03*
X139192000Y-129032000D03*
X123444000Y-118364000D03*
X94488000Y-125984000D03*
X121920000Y-118364000D03*
X140716000Y-122936000D03*
X102108000Y-125984000D03*
X143764000Y-118364000D03*
X139192000Y-122936000D03*
X137668000Y-122936000D03*
X123444000Y-122936000D03*
X128016000Y-118364000D03*
X126492000Y-122936000D03*
X142240000Y-124460000D03*
X124968000Y-119888000D03*
X105156000Y-127508000D03*
X121920000Y-113792000D03*
X136144000Y-127508000D03*
X140716000Y-125984000D03*
X142240000Y-121412000D03*
X103632000Y-125984000D03*
X121920000Y-115316000D03*
X130048000Y-98044000D03*
X137668000Y-125984000D03*
X100584000Y-125984000D03*
X126492000Y-115316000D03*
X129540000Y-113792000D03*
X129540000Y-122936000D03*
X126492000Y-113792000D03*
X121920000Y-119888000D03*
X143764000Y-129032000D03*
X142240000Y-122936000D03*
X123444000Y-121412000D03*
X137668000Y-129032000D03*
X140716000Y-129032000D03*
X136144000Y-119888000D03*
X137668000Y-118364000D03*
X129540000Y-115316000D03*
X140716000Y-127508000D03*
X97536000Y-127508000D03*
X124968000Y-124460000D03*
X139192000Y-119888000D03*
X137668000Y-127508000D03*
X124968000Y-113792000D03*
X140716000Y-121412000D03*
X124968000Y-116840000D03*
X106680000Y-125984000D03*
X124968000Y-118364000D03*
X136144000Y-122936000D03*
X129540000Y-119888000D03*
X143764000Y-119888000D03*
X129540000Y-121412000D03*
X139192000Y-125984000D03*
X129540000Y-118364000D03*
X137668000Y-119888000D03*
X136144000Y-121412000D03*
X106680000Y-127508000D03*
X136144000Y-124460000D03*
X126492000Y-124460000D03*
X143764000Y-125984000D03*
X102108000Y-127508000D03*
X124968000Y-122936000D03*
X136144000Y-125984000D03*
X139192000Y-124460000D03*
X92964000Y-125984000D03*
X128016000Y-113792000D03*
X139192000Y-118364000D03*
X99060000Y-125984000D03*
X140716000Y-119888000D03*
X103632000Y-127508000D03*
X91440000Y-127508000D03*
X100584000Y-127508000D03*
X94488000Y-127508000D03*
X136144000Y-118364000D03*
X97536000Y-125984000D03*
X128016000Y-121412000D03*
X128016000Y-119888000D03*
X123444000Y-115316000D03*
X137668000Y-121412000D03*
X99060000Y-127508000D03*
X143764000Y-127508000D03*
X143764000Y-124460000D03*
X143764000Y-121412000D03*
X139192000Y-121412000D03*
X105156000Y-125984000D03*
%TO.N,/CELL2_VP*%
X116332000Y-99568000D03*
X117348000Y-98552000D03*
X122682000Y-85471000D03*
X117348000Y-100584000D03*
X116332000Y-97536000D03*
X117348000Y-99568000D03*
X116332000Y-101600000D03*
X116332000Y-100584000D03*
X116332000Y-98552000D03*
X117348000Y-97536000D03*
X94488000Y-98552000D03*
X111633000Y-85344000D03*
%TO.N,Net-(D12-K)*%
X54864000Y-101092000D03*
X108712000Y-105664000D03*
%TO.N,Net-(U2-V1)*%
X121920000Y-105156000D03*
X125476000Y-103632000D03*
%TO.N,Net-(U3-LEDCNTLA)*%
X107315000Y-100285000D03*
X114808000Y-115824000D03*
%TO.N,Net-(U3-LEDCNTLC)*%
X106807000Y-98806000D03*
X114808000Y-112268000D03*
%TO.N,Net-(U3-LEDCNTLB)*%
X112776000Y-112268000D03*
X106770946Y-99690584D03*
%TO.N,Net-(D13-K)*%
X52324000Y-93472000D03*
X115824000Y-105156000D03*
%TO.N,Net-(J10-Pin_2)*%
X101451519Y-103720855D03*
%TO.N,/BTP_INT*%
X102314649Y-107585514D03*
X41148000Y-102616000D03*
%TO.N,Net-(J11-Pin_2)*%
X101473000Y-104902000D03*
%TO.N,/CELL1_VP*%
X93980000Y-108204000D03*
X121412000Y-108204000D03*
%TO.N,Net-(U1-HIDRV)*%
X66294000Y-61976000D03*
X74422000Y-73787000D03*
%TO.N,Net-(U1-LODRV)*%
X76200000Y-73660000D03*
X74295000Y-62230000D03*
%TO.N,Net-(J12-Pin_2)*%
X101981000Y-105791000D03*
%TO.N,Net-(J13-Pin_2)*%
X102235000Y-106553000D03*
%TO.N,Net-(U1-VFB)*%
X92456000Y-87376000D03*
X76581000Y-79375000D03*
%TO.N,Net-(U3-DSG)*%
X104521000Y-85725000D03*
X100584000Y-93726000D03*
%TO.N,Net-(U3-PCHG)*%
X100754265Y-95587735D03*
X106299000Y-95377000D03*
%TO.N,Net-(U3-CHG)*%
X99822000Y-95504000D03*
X125984000Y-93472000D03*
%TO.N,Net-(U3-FUSE)*%
X130556000Y-93472000D03*
X104902000Y-96774000D03*
%TO.N,Net-(U1-STAT)*%
X71628000Y-77216000D03*
X67056000Y-77724000D03*
%TO.N,Net-(U1-~{PG})*%
X73660000Y-79248000D03*
X69088000Y-83312000D03*
%TD*%
D21*
%TO.N,Net-(U1-CE)*%
X75184000Y-79791000D02*
X75184000Y-80264000D01*
X71628000Y-76235000D02*
X75184000Y-79791000D01*
%TO.N,Net-(U1-TS)*%
X68437000Y-82439000D02*
X68437000Y-91297000D01*
X72136000Y-78740000D02*
X68437000Y-82439000D01*
X68437000Y-91297000D02*
X71628000Y-94488000D01*
%TO.N,Net-(D4-A)*%
X80264000Y-76200000D02*
X80264000Y-84328000D01*
X80264000Y-84328000D02*
X81788000Y-85852000D01*
%TO.N,Net-(D4-K)*%
X71120000Y-74676000D02*
X80264000Y-74676000D01*
X83312000Y-77724000D02*
X83312000Y-82296000D01*
X80264000Y-74676000D02*
X83312000Y-77724000D01*
D22*
%TO.N,Net-(D14-K)*%
X98933000Y-95920000D02*
X100549000Y-97536000D01*
X100549000Y-97536000D02*
X109220000Y-97536000D01*
D21*
%TO.N,Net-(U3-SRN)*%
X81788000Y-115951000D02*
X94869000Y-102870000D01*
X81788000Y-118872000D02*
X81788000Y-115951000D01*
%TO.N,Net-(U3-SRP)*%
X88900000Y-110363000D02*
X94615000Y-104648000D01*
X88900000Y-118872000D02*
X88900000Y-110363000D01*
%TO.N,Net-(U2-V1)*%
X123952000Y-105156000D02*
X121920000Y-105156000D01*
X125476000Y-103632000D02*
X123952000Y-105156000D01*
D22*
%TO.N,Net-(U3-LEDCNTLA)*%
X107315000Y-100285000D02*
X107315000Y-108331000D01*
X107315000Y-108331000D02*
X114808000Y-115824000D01*
D21*
%TO.N,Net-(U3-LEDCNTLC)*%
X112522000Y-98806000D02*
X106807000Y-98806000D01*
X114808000Y-112268000D02*
X118364000Y-108712000D01*
X118364000Y-108712000D02*
X118364000Y-104648000D01*
X118364000Y-104648000D02*
X112522000Y-98806000D01*
D22*
%TO.N,Net-(U3-LEDCNTLB)*%
X117913000Y-107131000D02*
X112776000Y-112268000D01*
X106770946Y-99690584D02*
X106777530Y-99684000D01*
X117913000Y-105213000D02*
X117913000Y-107131000D01*
X112384000Y-99684000D02*
X117913000Y-105213000D01*
X106777530Y-99684000D02*
X112384000Y-99684000D01*
D21*
%TO.N,Net-(J10-Pin_2)*%
X101451519Y-103720855D02*
X91440000Y-113732374D01*
X91440000Y-119380000D02*
X91948000Y-119888000D01*
X91440000Y-113732374D02*
X91440000Y-119380000D01*
X91948000Y-119888000D02*
X93980000Y-119888000D01*
D22*
%TO.N,Net-(J11-Pin_2)*%
X101473000Y-104902000D02*
X97401000Y-108974000D01*
X97401000Y-118737000D02*
X98552000Y-119888000D01*
X97401000Y-108974000D02*
X97401000Y-118737000D01*
D21*
%TO.N,Net-(U1-HIDRV)*%
X70739000Y-61976000D02*
X74422000Y-65659000D01*
X74422000Y-65659000D02*
X74422000Y-73787000D01*
X66294000Y-61976000D02*
X70739000Y-61976000D01*
%TO.N,Net-(U1-LODRV)*%
X74295000Y-62230000D02*
X76200000Y-64135000D01*
X76200000Y-64135000D02*
X76200000Y-73660000D01*
%TO.N,Net-(J12-Pin_2)*%
X101584000Y-118348000D02*
X101584000Y-106188000D01*
X101584000Y-106188000D02*
X101981000Y-105791000D01*
X103124000Y-119888000D02*
X101584000Y-118348000D01*
%TO.N,Net-(J13-Pin_2)*%
X106495000Y-118687000D02*
X106495000Y-110813000D01*
X107696000Y-119888000D02*
X106495000Y-118687000D01*
X106495000Y-110813000D02*
X102235000Y-106553000D01*
%TO.N,Net-(U1-VFB)*%
X76581000Y-81565654D02*
X76581000Y-79375000D01*
X82391346Y-87376000D02*
X76581000Y-81565654D01*
X92456000Y-87376000D02*
X82391346Y-87376000D01*
D22*
%TO.N,Net-(U3-DSG)*%
X100584000Y-93726000D02*
X100584000Y-89662000D01*
X100584000Y-89662000D02*
X104521000Y-85725000D01*
D21*
%TO.N,Net-(U3-PCHG)*%
X106299000Y-95377000D02*
X100965000Y-95377000D01*
X100965000Y-95377000D02*
X100754265Y-95587735D01*
D22*
%TO.N,Net-(U3-CHG)*%
X101179943Y-96012000D02*
X123444000Y-96012000D01*
X123444000Y-96012000D02*
X125984000Y-93472000D01*
X99822000Y-95504000D02*
X100506735Y-96188735D01*
X101003208Y-96188735D02*
X101179943Y-96012000D01*
X100506735Y-96188735D02*
X101003208Y-96188735D01*
%TO.N,Net-(U3-FUSE)*%
X104902000Y-96774000D02*
X124841000Y-96774000D01*
X128143000Y-93472000D02*
X130556000Y-93472000D01*
X124841000Y-96774000D02*
X128143000Y-93472000D01*
D21*
%TO.N,Net-(U1-STAT)*%
X71120000Y-77724000D02*
X67056000Y-77724000D01*
X71628000Y-77216000D02*
X71120000Y-77724000D01*
%TO.N,Net-(U1-~{PG})*%
X73660000Y-79248000D02*
X69596000Y-83312000D01*
X69596000Y-83312000D02*
X69088000Y-83312000D01*
%TD*%
M02*
