%TF.GenerationSoftware,KiCad,Pcbnew,9.0.5*%
%TF.CreationDate,2026-01-13T21:54:13-06:00*%
%TF.ProjectId,STAR_BMS,53544152-5f42-44d5-932e-6b696361645f,rev?*%
%TF.SameCoordinates,Original*%
%TF.FileFunction,Soldermask,Top*%
%TF.FilePolarity,Negative*%
%FSLAX46Y46*%
G04 Gerber Fmt 4.6, Leading zero omitted, Abs format (unit mm)*
G04 Created by KiCad (PCBNEW 9.0.5) date 2026-01-13 21:54:13*
%MOMM*%
%LPD*%
G01*
G04 APERTURE LIST*
G04 Aperture macros list*
%AMRoundRect*
0 Rectangle with rounded corners*
0 $1 Rounding radius*
0 $2 $3 $4 $5 $6 $7 $8 $9 X,Y pos of 4 corners*
0 Add a 4 corners polygon primitive as box body*
4,1,4,$2,$3,$4,$5,$6,$7,$8,$9,$2,$3,0*
0 Add four circle primitives for the rounded corners*
1,1,$1+$1,$2,$3*
1,1,$1+$1,$4,$5*
1,1,$1+$1,$6,$7*
1,1,$1+$1,$8,$9*
0 Add four rect primitives between the rounded corners*
20,1,$1+$1,$2,$3,$4,$5,0*
20,1,$1+$1,$4,$5,$6,$7,0*
20,1,$1+$1,$6,$7,$8,$9,0*
20,1,$1+$1,$8,$9,$2,$3,0*%
G04 Aperture macros list end*
%ADD10RoundRect,0.250000X0.475000X-0.337500X0.475000X0.337500X-0.475000X0.337500X-0.475000X-0.337500X0*%
%ADD11RoundRect,0.237500X-0.300000X-0.237500X0.300000X-0.237500X0.300000X0.237500X-0.300000X0.237500X0*%
%ADD12R,2.650000X3.400000*%
%ADD13RoundRect,0.237500X0.237500X-0.250000X0.237500X0.250000X-0.237500X0.250000X-0.237500X-0.250000X0*%
%ADD14RoundRect,0.237500X-0.237500X0.300000X-0.237500X-0.300000X0.237500X-0.300000X0.237500X0.300000X0*%
%ADD15R,0.700000X0.950000*%
%ADD16RoundRect,0.237500X-0.237500X0.250000X-0.237500X-0.250000X0.237500X-0.250000X0.237500X0.250000X0*%
%ADD17R,0.700000X0.300000*%
%ADD18R,1.000000X1.700000*%
%ADD19C,1.400000*%
%ADD20R,1.400000X1.350000*%
%ADD21R,2.100000X2.100000*%
%ADD22C,2.100000*%
%ADD23RoundRect,0.237500X0.237500X-0.300000X0.237500X0.300000X-0.237500X0.300000X-0.237500X-0.300000X0*%
%ADD24R,0.500000X1.000000*%
%ADD25RoundRect,0.237500X-0.250000X-0.237500X0.250000X-0.237500X0.250000X0.237500X-0.250000X0.237500X0*%
%ADD26RoundRect,0.237500X0.250000X0.237500X-0.250000X0.237500X-0.250000X-0.237500X0.250000X-0.237500X0*%
%ADD27C,0.800000*%
%ADD28C,6.400000*%
%ADD29RoundRect,0.237500X0.300000X0.237500X-0.300000X0.237500X-0.300000X-0.237500X0.300000X-0.237500X0*%
%ADD30R,0.800000X0.300000*%
%ADD31R,0.300000X0.800000*%
%ADD32R,2.240000X2.240000*%
%ADD33R,0.420000X0.950000*%
%ADD34R,0.650000X1.050000*%
%ADD35R,0.850000X0.200000*%
%ADD36R,0.200000X0.850000*%
%ADD37R,1.450000X1.450000*%
%ADD38R,0.850000X1.450000*%
%ADD39R,0.850000X1.050000*%
%ADD40R,4.700000X3.750000*%
%ADD41R,1.150000X0.600000*%
%ADD42R,0.700000X1.000000*%
%ADD43C,4.800000*%
%ADD44R,0.400000X0.425000*%
%ADD45R,0.950000X1.150000*%
%ADD46R,0.300000X0.750000*%
%ADD47RoundRect,0.102000X0.875000X0.550000X-0.875000X0.550000X-0.875000X-0.550000X0.875000X-0.550000X0*%
%ADD48R,1.100000X0.650000*%
%ADD49R,0.700000X0.600000*%
%ADD50R,1.700000X1.700000*%
%ADD51C,1.700000*%
%ADD52C,1.574800*%
%ADD53C,1.854000*%
%ADD54R,3.500000X3.000000*%
%ADD55R,1.150000X1.700000*%
G04 APERTURE END LIST*
D10*
%TO.C,C12*%
X98425000Y-74930000D03*
X98425000Y-72855000D03*
%TD*%
D11*
%TO.C,C16*%
X126291000Y-76200000D03*
X128016000Y-76200000D03*
%TD*%
D12*
%TO.C,R44*%
X87884000Y-126492000D03*
X83184000Y-126492000D03*
%TD*%
D13*
%TO.C,R37*%
X88900000Y-121920000D03*
X88900000Y-120095000D03*
%TD*%
D14*
%TO.C,C27*%
X120396000Y-104293500D03*
X120396000Y-106018500D03*
%TD*%
D15*
%TO.C,D7*%
X114808000Y-119380000D03*
X113008000Y-119380000D03*
%TD*%
D16*
%TO.C,R24*%
X46736000Y-101195500D03*
X46736000Y-103020500D03*
%TD*%
D17*
%TO.C,U2*%
X122360000Y-101600000D03*
X122360000Y-102100000D03*
X122360000Y-102600000D03*
X122360000Y-103100000D03*
X124460000Y-103100000D03*
X124460000Y-102600000D03*
X124460000Y-102100000D03*
X124460000Y-101600000D03*
D18*
X123410000Y-102350000D03*
%TD*%
D19*
%TO.C,J4*%
X143256000Y-109300000D03*
X143256000Y-111800000D03*
X143256000Y-114300000D03*
%TD*%
D13*
%TO.C,R25*%
X47244000Y-96924500D03*
X47244000Y-95099500D03*
%TD*%
D20*
%TO.C,D10*%
X43688000Y-101441000D03*
X43688000Y-103791000D03*
%TD*%
D16*
%TO.C,R2*%
X52070000Y-73382500D03*
X52070000Y-75207500D03*
%TD*%
D21*
%TO.C,J3*%
X131548000Y-70504000D03*
D22*
X131548000Y-61804000D03*
X126468000Y-70504000D03*
X126468000Y-61804000D03*
%TD*%
D13*
%TO.C,R43*%
X123952000Y-108608500D03*
X123952000Y-106783500D03*
%TD*%
D15*
%TO.C,D9*%
X113019000Y-117348000D03*
X114819000Y-117348000D03*
%TD*%
%TO.C,D2*%
X67056000Y-79248000D03*
X65256000Y-79248000D03*
%TD*%
D23*
%TO.C,C17*%
X122047000Y-79729500D03*
X122047000Y-78004500D03*
%TD*%
D24*
%TO.C,D14*%
X114300000Y-103816000D03*
X114300000Y-101416000D03*
%TD*%
D25*
%TO.C,R17*%
X104751500Y-81788000D03*
X106576500Y-81788000D03*
%TD*%
D21*
%TO.C,J8*%
X142176000Y-98044000D03*
D22*
X150876000Y-98044000D03*
X142176000Y-92964000D03*
X150876000Y-92964000D03*
%TD*%
D14*
%TO.C,C10*%
X92075000Y-80010000D03*
X92075000Y-81735000D03*
%TD*%
D26*
%TO.C,R32*%
X128420500Y-99568000D03*
X126595500Y-99568000D03*
%TD*%
D25*
%TO.C,R22*%
X124055500Y-96012000D03*
X125880500Y-96012000D03*
%TD*%
D26*
%TO.C,R21*%
X108100500Y-92964000D03*
X106275500Y-92964000D03*
%TD*%
D27*
%TO.C,H1*%
X30032000Y-58340000D03*
X30734944Y-56642944D03*
X30734944Y-60037056D03*
X32432000Y-55940000D03*
D28*
X32432000Y-58340000D03*
D27*
X32432000Y-60740000D03*
X34129056Y-56642944D03*
X34129056Y-60037056D03*
X34832000Y-58340000D03*
%TD*%
D14*
%TO.C,C26*%
X88900000Y-106833500D03*
X88900000Y-108558500D03*
%TD*%
D26*
%TO.C,R12*%
X91336500Y-84431500D03*
X89511500Y-84431500D03*
%TD*%
D19*
%TO.C,J5*%
X134406000Y-109300000D03*
X134406000Y-111800000D03*
X134406000Y-114300000D03*
%TD*%
D11*
%TO.C,C15*%
X122127500Y-76200000D03*
X123852500Y-76200000D03*
%TD*%
D29*
%TO.C,C20*%
X109698500Y-99060000D03*
X107973500Y-99060000D03*
%TD*%
D27*
%TO.C,H2*%
X150499305Y-133811000D03*
X151202249Y-132113944D03*
X151202249Y-135508056D03*
X152899305Y-131411000D03*
D28*
X152899305Y-133811000D03*
D27*
X152899305Y-136211000D03*
X154596361Y-132113944D03*
X154596361Y-135508056D03*
X155299305Y-133811000D03*
%TD*%
D15*
%TO.C,D5*%
X113008000Y-125476000D03*
X114808000Y-125476000D03*
%TD*%
D21*
%TO.C,J7*%
X142076000Y-83744000D03*
D22*
X150776000Y-83744000D03*
X142076000Y-78664000D03*
X150776000Y-78664000D03*
%TD*%
D30*
%TO.C,U1*%
X73230000Y-75635000D03*
X73230000Y-76135000D03*
X73230000Y-76635000D03*
X73230000Y-77135000D03*
D31*
X74180000Y-78085000D03*
X74680000Y-78085000D03*
X75180000Y-78085000D03*
X75680000Y-78085000D03*
D30*
X76630000Y-77135000D03*
X76630000Y-76635000D03*
X76630000Y-76135000D03*
X76630000Y-75635000D03*
D31*
X75680000Y-74685000D03*
X75180000Y-74685000D03*
X74680000Y-74685000D03*
X74180000Y-74685000D03*
D32*
X74930000Y-76385000D03*
%TD*%
D14*
%TO.C,C2*%
X68580000Y-74982500D03*
X68580000Y-76707500D03*
%TD*%
D13*
%TO.C,R29*%
X52324000Y-103020500D03*
X52324000Y-101195500D03*
%TD*%
D25*
%TO.C,R8*%
X74017500Y-87910000D03*
X75842500Y-87910000D03*
%TD*%
D11*
%TO.C,C21*%
X130709500Y-102616000D03*
X132434500Y-102616000D03*
%TD*%
D33*
%TO.C,D12*%
X49784000Y-101033000D03*
X49784000Y-103183000D03*
%TD*%
D11*
%TO.C,C4*%
X74067500Y-97435000D03*
X75792500Y-97435000D03*
%TD*%
D25*
%TO.C,R33*%
X132183500Y-96520000D03*
X134008500Y-96520000D03*
%TD*%
D16*
%TO.C,R3*%
X66040000Y-73027500D03*
X66040000Y-74852500D03*
%TD*%
D34*
%TO.C,S2*%
X106231000Y-109177000D03*
X106231000Y-113327000D03*
X104081000Y-109177000D03*
X104081000Y-113327000D03*
%TD*%
D35*
%TO.C,U3*%
X101120000Y-98885000D03*
X101120000Y-99285000D03*
X101120000Y-99685000D03*
X101120000Y-100085000D03*
X101120000Y-100485000D03*
X101120000Y-100885000D03*
X101120000Y-101285000D03*
X101120000Y-101685000D03*
D36*
X101670000Y-102235000D03*
X102070000Y-102235000D03*
X102470000Y-102235000D03*
X102870000Y-102235000D03*
X103270000Y-102235000D03*
X103670000Y-102235000D03*
X104070000Y-102235000D03*
X104470000Y-102235000D03*
D35*
X105020000Y-101685000D03*
X105020000Y-101285000D03*
X105020000Y-100885000D03*
X105020000Y-100485000D03*
X105020000Y-100085000D03*
X105020000Y-99685000D03*
X105020000Y-99285000D03*
X105020000Y-98885000D03*
D36*
X104470000Y-98335000D03*
X104070000Y-98335000D03*
X103670000Y-98335000D03*
X103270000Y-98335000D03*
X102870000Y-98335000D03*
X102470000Y-98335000D03*
X102070000Y-98335000D03*
X101670000Y-98335000D03*
D37*
X103070000Y-100285000D03*
%TD*%
D11*
%TO.C,C9*%
X73432500Y-72670000D03*
X75157500Y-72670000D03*
%TD*%
D38*
%TO.C,Q3*%
X78105000Y-64290000D03*
X76835000Y-64290000D03*
X75565000Y-64290000D03*
X74295000Y-64290000D03*
D39*
X74275000Y-69990000D03*
X75565000Y-69990000D03*
X76835000Y-69990000D03*
X78125000Y-69990000D03*
D40*
X76200000Y-67590000D03*
%TD*%
D26*
%TO.C,R5*%
X75842500Y-84735000D03*
X74017500Y-84735000D03*
%TD*%
D27*
%TO.C,H4*%
X151985000Y-58340000D03*
X152687944Y-56642944D03*
X152687944Y-60037056D03*
X154385000Y-55940000D03*
D28*
X154385000Y-58340000D03*
D27*
X154385000Y-60740000D03*
X156082056Y-56642944D03*
X156082056Y-60037056D03*
X156785000Y-58340000D03*
%TD*%
D11*
%TO.C,C19*%
X132233500Y-99568000D03*
X133958500Y-99568000D03*
%TD*%
D16*
%TO.C,R26*%
X109728000Y-83542500D03*
X109728000Y-85367500D03*
%TD*%
D25*
%TO.C,R41*%
X118467500Y-98044000D03*
X120292500Y-98044000D03*
%TD*%
D16*
%TO.C,R1*%
X46990000Y-70842500D03*
X46990000Y-72667500D03*
%TD*%
D11*
%TO.C,C24*%
X95657500Y-96520000D03*
X97382500Y-96520000D03*
%TD*%
D13*
%TO.C,R40*%
X92456000Y-108608500D03*
X92456000Y-106783500D03*
%TD*%
D16*
%TO.C,R15*%
X102616000Y-89003500D03*
X102616000Y-90828500D03*
%TD*%
D38*
%TO.C,Q5*%
X118725000Y-77485000D03*
X117455000Y-77485000D03*
X116185000Y-77485000D03*
X114915000Y-77485000D03*
D39*
X114895000Y-83185000D03*
X116185000Y-83185000D03*
X117455000Y-83185000D03*
X118745000Y-83185000D03*
D40*
X116820000Y-80785000D03*
%TD*%
D13*
%TO.C,R31*%
X52324000Y-96924500D03*
X52324000Y-95099500D03*
%TD*%
D41*
%TO.C,Q8*%
X134960000Y-102164000D03*
X134960000Y-104084000D03*
X137160000Y-103124000D03*
%TD*%
D10*
%TO.C,C13*%
X102235000Y-74930000D03*
X102235000Y-72855000D03*
%TD*%
D23*
%TO.C,C3*%
X71755000Y-82212500D03*
X71755000Y-80487500D03*
%TD*%
D25*
%TO.C,R20*%
X110339500Y-92964000D03*
X112164500Y-92964000D03*
%TD*%
D38*
%TO.C,Q7*%
X114935000Y-92835000D03*
X116205000Y-92835000D03*
X117475000Y-92835000D03*
X118745000Y-92835000D03*
D39*
X118765000Y-87135000D03*
X117475000Y-87135000D03*
X116205000Y-87135000D03*
X114915000Y-87135000D03*
D40*
X116840000Y-89535000D03*
%TD*%
D23*
%TO.C,C6*%
X86360000Y-85317500D03*
X86360000Y-83592500D03*
%TD*%
D42*
%TO.C,Q4*%
X115885000Y-71260000D03*
X113985000Y-71260000D03*
X114935000Y-73660000D03*
%TD*%
D25*
%TO.C,R23*%
X113387500Y-96012000D03*
X115212500Y-96012000D03*
%TD*%
D14*
%TO.C,C5*%
X82550000Y-89942500D03*
X82550000Y-91667500D03*
%TD*%
D43*
%TO.C,J1*%
X40725000Y-71045500D03*
X34925000Y-71045500D03*
X37725000Y-75845500D03*
%TD*%
D16*
%TO.C,R42*%
X118364000Y-101195500D03*
X118364000Y-103020500D03*
%TD*%
%TO.C,R18*%
X106680000Y-83900500D03*
X106680000Y-85725500D03*
%TD*%
D44*
%TO.C,Q1*%
X52126000Y-70661000D03*
X52776000Y-70661000D03*
X53426000Y-70661000D03*
X53426000Y-68785000D03*
X52776000Y-68785000D03*
X52126000Y-68785000D03*
D45*
X52451000Y-69723000D03*
D46*
X53426000Y-69723000D03*
%TD*%
D25*
%TO.C,R9*%
X74017500Y-94470000D03*
X75842500Y-94470000D03*
%TD*%
D47*
%TO.C,R11*%
X95355000Y-76265000D03*
X95355000Y-74865000D03*
X92605000Y-74865000D03*
X92605000Y-76265000D03*
%TD*%
D15*
%TO.C,D8*%
X114808000Y-121412000D03*
X113008000Y-121412000D03*
%TD*%
D38*
%TO.C,Q2*%
X70465000Y-64150000D03*
X69195000Y-64150000D03*
X67925000Y-64150000D03*
X66655000Y-64150000D03*
D39*
X66635000Y-69850000D03*
X67925000Y-69850000D03*
X69195000Y-69850000D03*
X70485000Y-69850000D03*
D40*
X68560000Y-67450000D03*
%TD*%
D25*
%TO.C,R27*%
X117451500Y-96012000D03*
X119276500Y-96012000D03*
%TD*%
D14*
%TO.C,C1*%
X46990000Y-74702500D03*
X46990000Y-76427500D03*
%TD*%
D48*
%TO.C,Q6*%
X110504000Y-90866000D03*
X110504000Y-88966000D03*
X108204000Y-89916000D03*
%TD*%
D15*
%TO.C,D6*%
X113008000Y-123444000D03*
X114808000Y-123444000D03*
%TD*%
D34*
%TO.C,S1*%
X110930000Y-77300000D03*
X110930000Y-81450000D03*
X108780000Y-77300000D03*
X108780000Y-81450000D03*
%TD*%
D49*
%TO.C,D1*%
X57150000Y-69785000D03*
X57150000Y-71185000D03*
%TD*%
D13*
%TO.C,R7*%
X60325000Y-71397500D03*
X60325000Y-69572500D03*
%TD*%
D25*
%TO.C,R13*%
X89511500Y-87225500D03*
X91336500Y-87225500D03*
%TD*%
D50*
%TO.C,J10*%
X93980000Y-117348000D03*
D51*
X93980000Y-119888000D03*
%TD*%
D10*
%TO.C,C14*%
X106045000Y-74930000D03*
X106045000Y-72855000D03*
%TD*%
D25*
%TO.C,R28*%
X132183500Y-93472000D03*
X134008500Y-93472000D03*
%TD*%
D11*
%TO.C,C23*%
X122581500Y-98552000D03*
X124306500Y-98552000D03*
%TD*%
D16*
%TO.C,R19*%
X104140000Y-93067500D03*
X104140000Y-94892500D03*
%TD*%
D10*
%TO.C,C7*%
X59690000Y-65172500D03*
X59690000Y-63097500D03*
%TD*%
D26*
%TO.C,R14*%
X91336500Y-89892500D03*
X89511500Y-89892500D03*
%TD*%
D13*
%TO.C,R6*%
X62865000Y-71397500D03*
X62865000Y-69572500D03*
%TD*%
D14*
%TO.C,C11*%
X78740000Y-78385500D03*
X78740000Y-80110500D03*
%TD*%
D50*
%TO.C,J11*%
X98552000Y-117348000D03*
D51*
X98552000Y-119888000D03*
%TD*%
D52*
%TO.C,J9*%
X42470600Y-119421900D03*
X42470600Y-121961900D03*
X42470600Y-124501900D03*
X42470600Y-127041900D03*
%TD*%
D27*
%TO.C,H3*%
X30032000Y-133811000D03*
X30734944Y-132113944D03*
X30734944Y-135508056D03*
X32432000Y-131411000D03*
D28*
X32432000Y-133811000D03*
D27*
X32432000Y-136211000D03*
X34129056Y-132113944D03*
X34129056Y-135508056D03*
X34832000Y-133811000D03*
%TD*%
D50*
%TO.C,J6*%
X37719000Y-85222000D03*
D51*
X37719000Y-82682000D03*
%TD*%
D33*
%TO.C,D13*%
X49784000Y-94937000D03*
X49784000Y-97087000D03*
%TD*%
D53*
%TO.C,J2*%
X35560000Y-102616000D03*
X33020000Y-102616000D03*
X35560000Y-100076000D03*
X33020000Y-100076000D03*
X35560000Y-97536000D03*
X33020000Y-97536000D03*
%TD*%
D25*
%TO.C,R4*%
X74017500Y-81560000D03*
X75842500Y-81560000D03*
%TD*%
D10*
%TO.C,C8*%
X62700000Y-65172500D03*
X62700000Y-63097500D03*
%TD*%
D24*
%TO.C,D4*%
X83185000Y-83255000D03*
X83185000Y-85655000D03*
%TD*%
D23*
%TO.C,C18*%
X122047000Y-83793500D03*
X122047000Y-82068500D03*
%TD*%
D26*
%TO.C,R10*%
X75842500Y-91085000D03*
X74017500Y-91085000D03*
%TD*%
D14*
%TO.C,C28*%
X125984000Y-106833500D03*
X125984000Y-108558500D03*
%TD*%
D15*
%TO.C,D3*%
X67056000Y-83058000D03*
X65256000Y-83058000D03*
%TD*%
D26*
%TO.C,R34*%
X110744000Y-107217000D03*
X108919000Y-107217000D03*
%TD*%
D13*
%TO.C,R38*%
X81788000Y-121920000D03*
X81788000Y-120095000D03*
%TD*%
D23*
%TO.C,C22*%
X97028000Y-104494500D03*
X97028000Y-102769500D03*
%TD*%
D29*
%TO.C,C25*%
X97382500Y-100584000D03*
X95657500Y-100584000D03*
%TD*%
D50*
%TO.C,J13*%
X107696000Y-117348000D03*
D51*
X107696000Y-119888000D03*
%TD*%
D54*
%TO.C,L1*%
X85852000Y-69005000D03*
X85852000Y-74505000D03*
%TD*%
D34*
%TO.C,S3*%
X99509000Y-113327000D03*
X99509000Y-109177000D03*
X101659000Y-113327000D03*
X101659000Y-109177000D03*
%TD*%
D25*
%TO.C,R36*%
X126595500Y-102616000D03*
X128420500Y-102616000D03*
%TD*%
D55*
%TO.C,R30*%
X111500000Y-99060000D03*
X114300000Y-99060000D03*
%TD*%
D25*
%TO.C,R16*%
X118467500Y-71120000D03*
X120292500Y-71120000D03*
%TD*%
%TO.C,R35*%
X113895500Y-106680000D03*
X115720500Y-106680000D03*
%TD*%
D20*
%TO.C,D11*%
X43688000Y-97695000D03*
X43688000Y-95345000D03*
%TD*%
D25*
%TO.C,R39*%
X95711000Y-98552000D03*
X97536000Y-98552000D03*
%TD*%
D50*
%TO.C,J12*%
X103124000Y-117348000D03*
D51*
X103124000Y-119888000D03*
%TD*%
M02*
