%TF.GenerationSoftware,KiCad,Pcbnew,9.0.5*%
%TF.CreationDate,2026-01-13T21:54:13-06:00*%
%TF.ProjectId,STAR_BMS,53544152-5f42-44d5-932e-6b696361645f,rev?*%
%TF.SameCoordinates,Original*%
%TF.FileFunction,Legend,Top*%
%TF.FilePolarity,Positive*%
%FSLAX46Y46*%
G04 Gerber Fmt 4.6, Leading zero omitted, Abs format (unit mm)*
G04 Created by KiCad (PCBNEW 9.0.5) date 2026-01-13 21:54:13*
%MOMM*%
%LPD*%
G01*
G04 APERTURE LIST*
%ADD10C,0.150000*%
%ADD11C,0.254000*%
%ADD12C,0.250000*%
%ADD13C,0.200000*%
%ADD14C,0.120000*%
%ADD15C,0.100000*%
%ADD16C,0.127000*%
%ADD17C,0.152400*%
%ADD18C,0.508000*%
%ADD19C,0.010000*%
G04 APERTURE END LIST*
D10*
X100689580Y-74535357D02*
X100737200Y-74582976D01*
X100737200Y-74582976D02*
X100784819Y-74725833D01*
X100784819Y-74725833D02*
X100784819Y-74821071D01*
X100784819Y-74821071D02*
X100737200Y-74963928D01*
X100737200Y-74963928D02*
X100641961Y-75059166D01*
X100641961Y-75059166D02*
X100546723Y-75106785D01*
X100546723Y-75106785D02*
X100356247Y-75154404D01*
X100356247Y-75154404D02*
X100213390Y-75154404D01*
X100213390Y-75154404D02*
X100022914Y-75106785D01*
X100022914Y-75106785D02*
X99927676Y-75059166D01*
X99927676Y-75059166D02*
X99832438Y-74963928D01*
X99832438Y-74963928D02*
X99784819Y-74821071D01*
X99784819Y-74821071D02*
X99784819Y-74725833D01*
X99784819Y-74725833D02*
X99832438Y-74582976D01*
X99832438Y-74582976D02*
X99880057Y-74535357D01*
X100784819Y-73582976D02*
X100784819Y-74154404D01*
X100784819Y-73868690D02*
X99784819Y-73868690D01*
X99784819Y-73868690D02*
X99927676Y-73963928D01*
X99927676Y-73963928D02*
X100022914Y-74059166D01*
X100022914Y-74059166D02*
X100070533Y-74154404D01*
X99880057Y-73202023D02*
X99832438Y-73154404D01*
X99832438Y-73154404D02*
X99784819Y-73059166D01*
X99784819Y-73059166D02*
X99784819Y-72821071D01*
X99784819Y-72821071D02*
X99832438Y-72725833D01*
X99832438Y-72725833D02*
X99880057Y-72678214D01*
X99880057Y-72678214D02*
X99975295Y-72630595D01*
X99975295Y-72630595D02*
X100070533Y-72630595D01*
X100070533Y-72630595D02*
X100213390Y-72678214D01*
X100213390Y-72678214D02*
X100784819Y-73249642D01*
X100784819Y-73249642D02*
X100784819Y-72630595D01*
X126510642Y-75129580D02*
X126463023Y-75177200D01*
X126463023Y-75177200D02*
X126320166Y-75224819D01*
X126320166Y-75224819D02*
X126224928Y-75224819D01*
X126224928Y-75224819D02*
X126082071Y-75177200D01*
X126082071Y-75177200D02*
X125986833Y-75081961D01*
X125986833Y-75081961D02*
X125939214Y-74986723D01*
X125939214Y-74986723D02*
X125891595Y-74796247D01*
X125891595Y-74796247D02*
X125891595Y-74653390D01*
X125891595Y-74653390D02*
X125939214Y-74462914D01*
X125939214Y-74462914D02*
X125986833Y-74367676D01*
X125986833Y-74367676D02*
X126082071Y-74272438D01*
X126082071Y-74272438D02*
X126224928Y-74224819D01*
X126224928Y-74224819D02*
X126320166Y-74224819D01*
X126320166Y-74224819D02*
X126463023Y-74272438D01*
X126463023Y-74272438D02*
X126510642Y-74320057D01*
X127463023Y-75224819D02*
X126891595Y-75224819D01*
X127177309Y-75224819D02*
X127177309Y-74224819D01*
X127177309Y-74224819D02*
X127082071Y-74367676D01*
X127082071Y-74367676D02*
X126986833Y-74462914D01*
X126986833Y-74462914D02*
X126891595Y-74510533D01*
X128320166Y-74224819D02*
X128129690Y-74224819D01*
X128129690Y-74224819D02*
X128034452Y-74272438D01*
X128034452Y-74272438D02*
X127986833Y-74320057D01*
X127986833Y-74320057D02*
X127891595Y-74462914D01*
X127891595Y-74462914D02*
X127843976Y-74653390D01*
X127843976Y-74653390D02*
X127843976Y-75034342D01*
X127843976Y-75034342D02*
X127891595Y-75129580D01*
X127891595Y-75129580D02*
X127939214Y-75177200D01*
X127939214Y-75177200D02*
X128034452Y-75224819D01*
X128034452Y-75224819D02*
X128224928Y-75224819D01*
X128224928Y-75224819D02*
X128320166Y-75177200D01*
X128320166Y-75177200D02*
X128367785Y-75129580D01*
X128367785Y-75129580D02*
X128415404Y-75034342D01*
X128415404Y-75034342D02*
X128415404Y-74796247D01*
X128415404Y-74796247D02*
X128367785Y-74701009D01*
X128367785Y-74701009D02*
X128320166Y-74653390D01*
X128320166Y-74653390D02*
X128224928Y-74605771D01*
X128224928Y-74605771D02*
X128034452Y-74605771D01*
X128034452Y-74605771D02*
X127939214Y-74653390D01*
X127939214Y-74653390D02*
X127891595Y-74701009D01*
X127891595Y-74701009D02*
X127843976Y-74796247D01*
D11*
X84717571Y-129735318D02*
X84294237Y-129130556D01*
X83991856Y-129735318D02*
X83991856Y-128465318D01*
X83991856Y-128465318D02*
X84475666Y-128465318D01*
X84475666Y-128465318D02*
X84596618Y-128525794D01*
X84596618Y-128525794D02*
X84657095Y-128586270D01*
X84657095Y-128586270D02*
X84717571Y-128707222D01*
X84717571Y-128707222D02*
X84717571Y-128888651D01*
X84717571Y-128888651D02*
X84657095Y-129009603D01*
X84657095Y-129009603D02*
X84596618Y-129070080D01*
X84596618Y-129070080D02*
X84475666Y-129130556D01*
X84475666Y-129130556D02*
X83991856Y-129130556D01*
X85806142Y-128888651D02*
X85806142Y-129735318D01*
X85503761Y-128404842D02*
X85201380Y-129311984D01*
X85201380Y-129311984D02*
X85987571Y-129311984D01*
X87015666Y-128888651D02*
X87015666Y-129735318D01*
X86713285Y-128404842D02*
X86410904Y-129311984D01*
X86410904Y-129311984D02*
X87197095Y-129311984D01*
D10*
X90751819Y-121673857D02*
X90275628Y-122007190D01*
X90751819Y-122245285D02*
X89751819Y-122245285D01*
X89751819Y-122245285D02*
X89751819Y-121864333D01*
X89751819Y-121864333D02*
X89799438Y-121769095D01*
X89799438Y-121769095D02*
X89847057Y-121721476D01*
X89847057Y-121721476D02*
X89942295Y-121673857D01*
X89942295Y-121673857D02*
X90085152Y-121673857D01*
X90085152Y-121673857D02*
X90180390Y-121721476D01*
X90180390Y-121721476D02*
X90228009Y-121769095D01*
X90228009Y-121769095D02*
X90275628Y-121864333D01*
X90275628Y-121864333D02*
X90275628Y-122245285D01*
X89751819Y-121340523D02*
X89751819Y-120721476D01*
X89751819Y-120721476D02*
X90132771Y-121054809D01*
X90132771Y-121054809D02*
X90132771Y-120911952D01*
X90132771Y-120911952D02*
X90180390Y-120816714D01*
X90180390Y-120816714D02*
X90228009Y-120769095D01*
X90228009Y-120769095D02*
X90323247Y-120721476D01*
X90323247Y-120721476D02*
X90561342Y-120721476D01*
X90561342Y-120721476D02*
X90656580Y-120769095D01*
X90656580Y-120769095D02*
X90704200Y-120816714D01*
X90704200Y-120816714D02*
X90751819Y-120911952D01*
X90751819Y-120911952D02*
X90751819Y-121197666D01*
X90751819Y-121197666D02*
X90704200Y-121292904D01*
X90704200Y-121292904D02*
X90656580Y-121340523D01*
X89751819Y-120388142D02*
X89751819Y-119721476D01*
X89751819Y-119721476D02*
X90751819Y-120150047D01*
X119231580Y-105798857D02*
X119279200Y-105846476D01*
X119279200Y-105846476D02*
X119326819Y-105989333D01*
X119326819Y-105989333D02*
X119326819Y-106084571D01*
X119326819Y-106084571D02*
X119279200Y-106227428D01*
X119279200Y-106227428D02*
X119183961Y-106322666D01*
X119183961Y-106322666D02*
X119088723Y-106370285D01*
X119088723Y-106370285D02*
X118898247Y-106417904D01*
X118898247Y-106417904D02*
X118755390Y-106417904D01*
X118755390Y-106417904D02*
X118564914Y-106370285D01*
X118564914Y-106370285D02*
X118469676Y-106322666D01*
X118469676Y-106322666D02*
X118374438Y-106227428D01*
X118374438Y-106227428D02*
X118326819Y-106084571D01*
X118326819Y-106084571D02*
X118326819Y-105989333D01*
X118326819Y-105989333D02*
X118374438Y-105846476D01*
X118374438Y-105846476D02*
X118422057Y-105798857D01*
X118422057Y-105417904D02*
X118374438Y-105370285D01*
X118374438Y-105370285D02*
X118326819Y-105275047D01*
X118326819Y-105275047D02*
X118326819Y-105036952D01*
X118326819Y-105036952D02*
X118374438Y-104941714D01*
X118374438Y-104941714D02*
X118422057Y-104894095D01*
X118422057Y-104894095D02*
X118517295Y-104846476D01*
X118517295Y-104846476D02*
X118612533Y-104846476D01*
X118612533Y-104846476D02*
X118755390Y-104894095D01*
X118755390Y-104894095D02*
X119326819Y-105465523D01*
X119326819Y-105465523D02*
X119326819Y-104846476D01*
X118326819Y-104513142D02*
X118326819Y-103846476D01*
X118326819Y-103846476D02*
X119326819Y-104275047D01*
D11*
X116176618Y-119954318D02*
X116176618Y-118684318D01*
X116176618Y-118684318D02*
X116478999Y-118684318D01*
X116478999Y-118684318D02*
X116660428Y-118744794D01*
X116660428Y-118744794D02*
X116781380Y-118865746D01*
X116781380Y-118865746D02*
X116841857Y-118986699D01*
X116841857Y-118986699D02*
X116902333Y-119228603D01*
X116902333Y-119228603D02*
X116902333Y-119410032D01*
X116902333Y-119410032D02*
X116841857Y-119651937D01*
X116841857Y-119651937D02*
X116781380Y-119772889D01*
X116781380Y-119772889D02*
X116660428Y-119893842D01*
X116660428Y-119893842D02*
X116478999Y-119954318D01*
X116478999Y-119954318D02*
X116176618Y-119954318D01*
X117325666Y-118684318D02*
X118172333Y-118684318D01*
X118172333Y-118684318D02*
X117628047Y-119954318D01*
D10*
X46093142Y-100022819D02*
X45759809Y-99546628D01*
X45521714Y-100022819D02*
X45521714Y-99022819D01*
X45521714Y-99022819D02*
X45902666Y-99022819D01*
X45902666Y-99022819D02*
X45997904Y-99070438D01*
X45997904Y-99070438D02*
X46045523Y-99118057D01*
X46045523Y-99118057D02*
X46093142Y-99213295D01*
X46093142Y-99213295D02*
X46093142Y-99356152D01*
X46093142Y-99356152D02*
X46045523Y-99451390D01*
X46045523Y-99451390D02*
X45997904Y-99499009D01*
X45997904Y-99499009D02*
X45902666Y-99546628D01*
X45902666Y-99546628D02*
X45521714Y-99546628D01*
X46474095Y-99118057D02*
X46521714Y-99070438D01*
X46521714Y-99070438D02*
X46616952Y-99022819D01*
X46616952Y-99022819D02*
X46855047Y-99022819D01*
X46855047Y-99022819D02*
X46950285Y-99070438D01*
X46950285Y-99070438D02*
X46997904Y-99118057D01*
X46997904Y-99118057D02*
X47045523Y-99213295D01*
X47045523Y-99213295D02*
X47045523Y-99308533D01*
X47045523Y-99308533D02*
X46997904Y-99451390D01*
X46997904Y-99451390D02*
X46426476Y-100022819D01*
X46426476Y-100022819D02*
X47045523Y-100022819D01*
X47902666Y-99356152D02*
X47902666Y-100022819D01*
X47664571Y-98975200D02*
X47426476Y-99689485D01*
X47426476Y-99689485D02*
X48045523Y-99689485D01*
D11*
X122442380Y-103952318D02*
X122442380Y-104980413D01*
X122442380Y-104980413D02*
X122502857Y-105101365D01*
X122502857Y-105101365D02*
X122563333Y-105161842D01*
X122563333Y-105161842D02*
X122684285Y-105222318D01*
X122684285Y-105222318D02*
X122926190Y-105222318D01*
X122926190Y-105222318D02*
X123047142Y-105161842D01*
X123047142Y-105161842D02*
X123107619Y-105101365D01*
X123107619Y-105101365D02*
X123168095Y-104980413D01*
X123168095Y-104980413D02*
X123168095Y-103952318D01*
X123712380Y-104073270D02*
X123772856Y-104012794D01*
X123772856Y-104012794D02*
X123893809Y-103952318D01*
X123893809Y-103952318D02*
X124196190Y-103952318D01*
X124196190Y-103952318D02*
X124317142Y-104012794D01*
X124317142Y-104012794D02*
X124377618Y-104073270D01*
X124377618Y-104073270D02*
X124438095Y-104194222D01*
X124438095Y-104194222D02*
X124438095Y-104315175D01*
X124438095Y-104315175D02*
X124377618Y-104496603D01*
X124377618Y-104496603D02*
X123651904Y-105222318D01*
X123651904Y-105222318D02*
X124438095Y-105222318D01*
X143085318Y-112223332D02*
X143992461Y-112223332D01*
X143992461Y-112223332D02*
X144173889Y-112283809D01*
X144173889Y-112283809D02*
X144294842Y-112404761D01*
X144294842Y-112404761D02*
X144355318Y-112586190D01*
X144355318Y-112586190D02*
X144355318Y-112707142D01*
X143508651Y-111074285D02*
X144355318Y-111074285D01*
X143024842Y-111376666D02*
X143931984Y-111679047D01*
X143931984Y-111679047D02*
X143931984Y-110892856D01*
D10*
X46601142Y-93926819D02*
X46267809Y-93450628D01*
X46029714Y-93926819D02*
X46029714Y-92926819D01*
X46029714Y-92926819D02*
X46410666Y-92926819D01*
X46410666Y-92926819D02*
X46505904Y-92974438D01*
X46505904Y-92974438D02*
X46553523Y-93022057D01*
X46553523Y-93022057D02*
X46601142Y-93117295D01*
X46601142Y-93117295D02*
X46601142Y-93260152D01*
X46601142Y-93260152D02*
X46553523Y-93355390D01*
X46553523Y-93355390D02*
X46505904Y-93403009D01*
X46505904Y-93403009D02*
X46410666Y-93450628D01*
X46410666Y-93450628D02*
X46029714Y-93450628D01*
X46982095Y-93022057D02*
X47029714Y-92974438D01*
X47029714Y-92974438D02*
X47124952Y-92926819D01*
X47124952Y-92926819D02*
X47363047Y-92926819D01*
X47363047Y-92926819D02*
X47458285Y-92974438D01*
X47458285Y-92974438D02*
X47505904Y-93022057D01*
X47505904Y-93022057D02*
X47553523Y-93117295D01*
X47553523Y-93117295D02*
X47553523Y-93212533D01*
X47553523Y-93212533D02*
X47505904Y-93355390D01*
X47505904Y-93355390D02*
X46934476Y-93926819D01*
X46934476Y-93926819D02*
X47553523Y-93926819D01*
X48458285Y-92926819D02*
X47982095Y-92926819D01*
X47982095Y-92926819D02*
X47934476Y-93403009D01*
X47934476Y-93403009D02*
X47982095Y-93355390D01*
X47982095Y-93355390D02*
X48077333Y-93307771D01*
X48077333Y-93307771D02*
X48315428Y-93307771D01*
X48315428Y-93307771D02*
X48410666Y-93355390D01*
X48410666Y-93355390D02*
X48458285Y-93403009D01*
X48458285Y-93403009D02*
X48505904Y-93498247D01*
X48505904Y-93498247D02*
X48505904Y-93736342D01*
X48505904Y-93736342D02*
X48458285Y-93831580D01*
X48458285Y-93831580D02*
X48410666Y-93879200D01*
X48410666Y-93879200D02*
X48315428Y-93926819D01*
X48315428Y-93926819D02*
X48077333Y-93926819D01*
X48077333Y-93926819D02*
X47982095Y-93879200D01*
X47982095Y-93879200D02*
X47934476Y-93831580D01*
D11*
X41637856Y-106746318D02*
X41637856Y-105476318D01*
X41637856Y-105476318D02*
X41940237Y-105476318D01*
X41940237Y-105476318D02*
X42121666Y-105536794D01*
X42121666Y-105536794D02*
X42242618Y-105657746D01*
X42242618Y-105657746D02*
X42303095Y-105778699D01*
X42303095Y-105778699D02*
X42363571Y-106020603D01*
X42363571Y-106020603D02*
X42363571Y-106202032D01*
X42363571Y-106202032D02*
X42303095Y-106443937D01*
X42303095Y-106443937D02*
X42242618Y-106564889D01*
X42242618Y-106564889D02*
X42121666Y-106685842D01*
X42121666Y-106685842D02*
X41940237Y-106746318D01*
X41940237Y-106746318D02*
X41637856Y-106746318D01*
X43573095Y-106746318D02*
X42847380Y-106746318D01*
X43210237Y-106746318D02*
X43210237Y-105476318D01*
X43210237Y-105476318D02*
X43089285Y-105657746D01*
X43089285Y-105657746D02*
X42968333Y-105778699D01*
X42968333Y-105778699D02*
X42847380Y-105839175D01*
X44359285Y-105476318D02*
X44480238Y-105476318D01*
X44480238Y-105476318D02*
X44601190Y-105536794D01*
X44601190Y-105536794D02*
X44661666Y-105597270D01*
X44661666Y-105597270D02*
X44722142Y-105718222D01*
X44722142Y-105718222D02*
X44782619Y-105960127D01*
X44782619Y-105960127D02*
X44782619Y-106262508D01*
X44782619Y-106262508D02*
X44722142Y-106504413D01*
X44722142Y-106504413D02*
X44661666Y-106625365D01*
X44661666Y-106625365D02*
X44601190Y-106685842D01*
X44601190Y-106685842D02*
X44480238Y-106746318D01*
X44480238Y-106746318D02*
X44359285Y-106746318D01*
X44359285Y-106746318D02*
X44238333Y-106685842D01*
X44238333Y-106685842D02*
X44177857Y-106625365D01*
X44177857Y-106625365D02*
X44117380Y-106504413D01*
X44117380Y-106504413D02*
X44056904Y-106262508D01*
X44056904Y-106262508D02*
X44056904Y-105960127D01*
X44056904Y-105960127D02*
X44117380Y-105718222D01*
X44117380Y-105718222D02*
X44177857Y-105597270D01*
X44177857Y-105597270D02*
X44238333Y-105536794D01*
X44238333Y-105536794D02*
X44359285Y-105476318D01*
D10*
X49363333Y-74749819D02*
X49030000Y-74273628D01*
X48791905Y-74749819D02*
X48791905Y-73749819D01*
X48791905Y-73749819D02*
X49172857Y-73749819D01*
X49172857Y-73749819D02*
X49268095Y-73797438D01*
X49268095Y-73797438D02*
X49315714Y-73845057D01*
X49315714Y-73845057D02*
X49363333Y-73940295D01*
X49363333Y-73940295D02*
X49363333Y-74083152D01*
X49363333Y-74083152D02*
X49315714Y-74178390D01*
X49315714Y-74178390D02*
X49268095Y-74226009D01*
X49268095Y-74226009D02*
X49172857Y-74273628D01*
X49172857Y-74273628D02*
X48791905Y-74273628D01*
X49744286Y-73845057D02*
X49791905Y-73797438D01*
X49791905Y-73797438D02*
X49887143Y-73749819D01*
X49887143Y-73749819D02*
X50125238Y-73749819D01*
X50125238Y-73749819D02*
X50220476Y-73797438D01*
X50220476Y-73797438D02*
X50268095Y-73845057D01*
X50268095Y-73845057D02*
X50315714Y-73940295D01*
X50315714Y-73940295D02*
X50315714Y-74035533D01*
X50315714Y-74035533D02*
X50268095Y-74178390D01*
X50268095Y-74178390D02*
X49696667Y-74749819D01*
X49696667Y-74749819D02*
X50315714Y-74749819D01*
D11*
X131124667Y-69808318D02*
X131124667Y-70715461D01*
X131124667Y-70715461D02*
X131064190Y-70896889D01*
X131064190Y-70896889D02*
X130943238Y-71017842D01*
X130943238Y-71017842D02*
X130761809Y-71078318D01*
X130761809Y-71078318D02*
X130640857Y-71078318D01*
X131608476Y-69808318D02*
X132394667Y-69808318D01*
X132394667Y-69808318D02*
X131971333Y-70292127D01*
X131971333Y-70292127D02*
X132152762Y-70292127D01*
X132152762Y-70292127D02*
X132273714Y-70352603D01*
X132273714Y-70352603D02*
X132334190Y-70413080D01*
X132334190Y-70413080D02*
X132394667Y-70534032D01*
X132394667Y-70534032D02*
X132394667Y-70836413D01*
X132394667Y-70836413D02*
X132334190Y-70957365D01*
X132334190Y-70957365D02*
X132273714Y-71017842D01*
X132273714Y-71017842D02*
X132152762Y-71078318D01*
X132152762Y-71078318D02*
X131789905Y-71078318D01*
X131789905Y-71078318D02*
X131668952Y-71017842D01*
X131668952Y-71017842D02*
X131608476Y-70957365D01*
D10*
X124406819Y-111386857D02*
X123930628Y-111720190D01*
X124406819Y-111958285D02*
X123406819Y-111958285D01*
X123406819Y-111958285D02*
X123406819Y-111577333D01*
X123406819Y-111577333D02*
X123454438Y-111482095D01*
X123454438Y-111482095D02*
X123502057Y-111434476D01*
X123502057Y-111434476D02*
X123597295Y-111386857D01*
X123597295Y-111386857D02*
X123740152Y-111386857D01*
X123740152Y-111386857D02*
X123835390Y-111434476D01*
X123835390Y-111434476D02*
X123883009Y-111482095D01*
X123883009Y-111482095D02*
X123930628Y-111577333D01*
X123930628Y-111577333D02*
X123930628Y-111958285D01*
X123740152Y-110529714D02*
X124406819Y-110529714D01*
X123359200Y-110767809D02*
X124073485Y-111005904D01*
X124073485Y-111005904D02*
X124073485Y-110386857D01*
X123406819Y-110101142D02*
X123406819Y-109482095D01*
X123406819Y-109482095D02*
X123787771Y-109815428D01*
X123787771Y-109815428D02*
X123787771Y-109672571D01*
X123787771Y-109672571D02*
X123835390Y-109577333D01*
X123835390Y-109577333D02*
X123883009Y-109529714D01*
X123883009Y-109529714D02*
X123978247Y-109482095D01*
X123978247Y-109482095D02*
X124216342Y-109482095D01*
X124216342Y-109482095D02*
X124311580Y-109529714D01*
X124311580Y-109529714D02*
X124359200Y-109577333D01*
X124359200Y-109577333D02*
X124406819Y-109672571D01*
X124406819Y-109672571D02*
X124406819Y-109958285D01*
X124406819Y-109958285D02*
X124359200Y-110053523D01*
X124359200Y-110053523D02*
X124311580Y-110101142D01*
D11*
X116187618Y-117922318D02*
X116187618Y-116652318D01*
X116187618Y-116652318D02*
X116489999Y-116652318D01*
X116489999Y-116652318D02*
X116671428Y-116712794D01*
X116671428Y-116712794D02*
X116792380Y-116833746D01*
X116792380Y-116833746D02*
X116852857Y-116954699D01*
X116852857Y-116954699D02*
X116913333Y-117196603D01*
X116913333Y-117196603D02*
X116913333Y-117378032D01*
X116913333Y-117378032D02*
X116852857Y-117619937D01*
X116852857Y-117619937D02*
X116792380Y-117740889D01*
X116792380Y-117740889D02*
X116671428Y-117861842D01*
X116671428Y-117861842D02*
X116489999Y-117922318D01*
X116489999Y-117922318D02*
X116187618Y-117922318D01*
X117518095Y-117922318D02*
X117759999Y-117922318D01*
X117759999Y-117922318D02*
X117880952Y-117861842D01*
X117880952Y-117861842D02*
X117941428Y-117801365D01*
X117941428Y-117801365D02*
X118062380Y-117619937D01*
X118062380Y-117619937D02*
X118122857Y-117378032D01*
X118122857Y-117378032D02*
X118122857Y-116894222D01*
X118122857Y-116894222D02*
X118062380Y-116773270D01*
X118062380Y-116773270D02*
X118001904Y-116712794D01*
X118001904Y-116712794D02*
X117880952Y-116652318D01*
X117880952Y-116652318D02*
X117639047Y-116652318D01*
X117639047Y-116652318D02*
X117518095Y-116712794D01*
X117518095Y-116712794D02*
X117457618Y-116773270D01*
X117457618Y-116773270D02*
X117397142Y-116894222D01*
X117397142Y-116894222D02*
X117397142Y-117196603D01*
X117397142Y-117196603D02*
X117457618Y-117317556D01*
X117457618Y-117317556D02*
X117518095Y-117378032D01*
X117518095Y-117378032D02*
X117639047Y-117438508D01*
X117639047Y-117438508D02*
X117880952Y-117438508D01*
X117880952Y-117438508D02*
X118001904Y-117378032D01*
X118001904Y-117378032D02*
X118062380Y-117317556D01*
X118062380Y-117317556D02*
X118122857Y-117196603D01*
X65218618Y-81727318D02*
X65218618Y-80457318D01*
X65218618Y-80457318D02*
X65520999Y-80457318D01*
X65520999Y-80457318D02*
X65702428Y-80517794D01*
X65702428Y-80517794D02*
X65823380Y-80638746D01*
X65823380Y-80638746D02*
X65883857Y-80759699D01*
X65883857Y-80759699D02*
X65944333Y-81001603D01*
X65944333Y-81001603D02*
X65944333Y-81183032D01*
X65944333Y-81183032D02*
X65883857Y-81424937D01*
X65883857Y-81424937D02*
X65823380Y-81545889D01*
X65823380Y-81545889D02*
X65702428Y-81666842D01*
X65702428Y-81666842D02*
X65520999Y-81727318D01*
X65520999Y-81727318D02*
X65218618Y-81727318D01*
X66428142Y-80578270D02*
X66488618Y-80517794D01*
X66488618Y-80517794D02*
X66609571Y-80457318D01*
X66609571Y-80457318D02*
X66911952Y-80457318D01*
X66911952Y-80457318D02*
X67032904Y-80517794D01*
X67032904Y-80517794D02*
X67093380Y-80578270D01*
X67093380Y-80578270D02*
X67153857Y-80699222D01*
X67153857Y-80699222D02*
X67153857Y-80820175D01*
X67153857Y-80820175D02*
X67093380Y-81001603D01*
X67093380Y-81001603D02*
X66367666Y-81727318D01*
X66367666Y-81727318D02*
X67153857Y-81727318D01*
D10*
X123930580Y-79509857D02*
X123978200Y-79557476D01*
X123978200Y-79557476D02*
X124025819Y-79700333D01*
X124025819Y-79700333D02*
X124025819Y-79795571D01*
X124025819Y-79795571D02*
X123978200Y-79938428D01*
X123978200Y-79938428D02*
X123882961Y-80033666D01*
X123882961Y-80033666D02*
X123787723Y-80081285D01*
X123787723Y-80081285D02*
X123597247Y-80128904D01*
X123597247Y-80128904D02*
X123454390Y-80128904D01*
X123454390Y-80128904D02*
X123263914Y-80081285D01*
X123263914Y-80081285D02*
X123168676Y-80033666D01*
X123168676Y-80033666D02*
X123073438Y-79938428D01*
X123073438Y-79938428D02*
X123025819Y-79795571D01*
X123025819Y-79795571D02*
X123025819Y-79700333D01*
X123025819Y-79700333D02*
X123073438Y-79557476D01*
X123073438Y-79557476D02*
X123121057Y-79509857D01*
X124025819Y-78557476D02*
X124025819Y-79128904D01*
X124025819Y-78843190D02*
X123025819Y-78843190D01*
X123025819Y-78843190D02*
X123168676Y-78938428D01*
X123168676Y-78938428D02*
X123263914Y-79033666D01*
X123263914Y-79033666D02*
X123311533Y-79128904D01*
X123025819Y-78224142D02*
X123025819Y-77557476D01*
X123025819Y-77557476D02*
X124025819Y-77986047D01*
D11*
X112842318Y-104158143D02*
X111572318Y-104158143D01*
X111572318Y-104158143D02*
X111572318Y-103855762D01*
X111572318Y-103855762D02*
X111632794Y-103674333D01*
X111632794Y-103674333D02*
X111753746Y-103553381D01*
X111753746Y-103553381D02*
X111874699Y-103492904D01*
X111874699Y-103492904D02*
X112116603Y-103432428D01*
X112116603Y-103432428D02*
X112298032Y-103432428D01*
X112298032Y-103432428D02*
X112539937Y-103492904D01*
X112539937Y-103492904D02*
X112660889Y-103553381D01*
X112660889Y-103553381D02*
X112781842Y-103674333D01*
X112781842Y-103674333D02*
X112842318Y-103855762D01*
X112842318Y-103855762D02*
X112842318Y-104158143D01*
X112842318Y-102222904D02*
X112842318Y-102948619D01*
X112842318Y-102585762D02*
X111572318Y-102585762D01*
X111572318Y-102585762D02*
X111753746Y-102706714D01*
X111753746Y-102706714D02*
X111874699Y-102827666D01*
X111874699Y-102827666D02*
X111935175Y-102948619D01*
X111995651Y-101134333D02*
X112842318Y-101134333D01*
X111511842Y-101436714D02*
X112418984Y-101739095D01*
X112418984Y-101739095D02*
X112418984Y-100952904D01*
D10*
X105021142Y-80718819D02*
X104687809Y-80242628D01*
X104449714Y-80718819D02*
X104449714Y-79718819D01*
X104449714Y-79718819D02*
X104830666Y-79718819D01*
X104830666Y-79718819D02*
X104925904Y-79766438D01*
X104925904Y-79766438D02*
X104973523Y-79814057D01*
X104973523Y-79814057D02*
X105021142Y-79909295D01*
X105021142Y-79909295D02*
X105021142Y-80052152D01*
X105021142Y-80052152D02*
X104973523Y-80147390D01*
X104973523Y-80147390D02*
X104925904Y-80195009D01*
X104925904Y-80195009D02*
X104830666Y-80242628D01*
X104830666Y-80242628D02*
X104449714Y-80242628D01*
X105973523Y-80718819D02*
X105402095Y-80718819D01*
X105687809Y-80718819D02*
X105687809Y-79718819D01*
X105687809Y-79718819D02*
X105592571Y-79861676D01*
X105592571Y-79861676D02*
X105497333Y-79956914D01*
X105497333Y-79956914D02*
X105402095Y-80004533D01*
X106306857Y-79718819D02*
X106973523Y-79718819D01*
X106973523Y-79718819D02*
X106544952Y-80718819D01*
D11*
X141480318Y-98467332D02*
X142387461Y-98467332D01*
X142387461Y-98467332D02*
X142568889Y-98527809D01*
X142568889Y-98527809D02*
X142689842Y-98648761D01*
X142689842Y-98648761D02*
X142750318Y-98830190D01*
X142750318Y-98830190D02*
X142750318Y-98951142D01*
X142024603Y-97681142D02*
X141964127Y-97802094D01*
X141964127Y-97802094D02*
X141903651Y-97862571D01*
X141903651Y-97862571D02*
X141782699Y-97923047D01*
X141782699Y-97923047D02*
X141722222Y-97923047D01*
X141722222Y-97923047D02*
X141601270Y-97862571D01*
X141601270Y-97862571D02*
X141540794Y-97802094D01*
X141540794Y-97802094D02*
X141480318Y-97681142D01*
X141480318Y-97681142D02*
X141480318Y-97439237D01*
X141480318Y-97439237D02*
X141540794Y-97318285D01*
X141540794Y-97318285D02*
X141601270Y-97257809D01*
X141601270Y-97257809D02*
X141722222Y-97197332D01*
X141722222Y-97197332D02*
X141782699Y-97197332D01*
X141782699Y-97197332D02*
X141903651Y-97257809D01*
X141903651Y-97257809D02*
X141964127Y-97318285D01*
X141964127Y-97318285D02*
X142024603Y-97439237D01*
X142024603Y-97439237D02*
X142024603Y-97681142D01*
X142024603Y-97681142D02*
X142085080Y-97802094D01*
X142085080Y-97802094D02*
X142145556Y-97862571D01*
X142145556Y-97862571D02*
X142266508Y-97923047D01*
X142266508Y-97923047D02*
X142508413Y-97923047D01*
X142508413Y-97923047D02*
X142629365Y-97862571D01*
X142629365Y-97862571D02*
X142689842Y-97802094D01*
X142689842Y-97802094D02*
X142750318Y-97681142D01*
X142750318Y-97681142D02*
X142750318Y-97439237D01*
X142750318Y-97439237D02*
X142689842Y-97318285D01*
X142689842Y-97318285D02*
X142629365Y-97257809D01*
X142629365Y-97257809D02*
X142508413Y-97197332D01*
X142508413Y-97197332D02*
X142266508Y-97197332D01*
X142266508Y-97197332D02*
X142145556Y-97257809D01*
X142145556Y-97257809D02*
X142085080Y-97318285D01*
X142085080Y-97318285D02*
X142024603Y-97439237D01*
D10*
X90739580Y-81515357D02*
X90787200Y-81562976D01*
X90787200Y-81562976D02*
X90834819Y-81705833D01*
X90834819Y-81705833D02*
X90834819Y-81801071D01*
X90834819Y-81801071D02*
X90787200Y-81943928D01*
X90787200Y-81943928D02*
X90691961Y-82039166D01*
X90691961Y-82039166D02*
X90596723Y-82086785D01*
X90596723Y-82086785D02*
X90406247Y-82134404D01*
X90406247Y-82134404D02*
X90263390Y-82134404D01*
X90263390Y-82134404D02*
X90072914Y-82086785D01*
X90072914Y-82086785D02*
X89977676Y-82039166D01*
X89977676Y-82039166D02*
X89882438Y-81943928D01*
X89882438Y-81943928D02*
X89834819Y-81801071D01*
X89834819Y-81801071D02*
X89834819Y-81705833D01*
X89834819Y-81705833D02*
X89882438Y-81562976D01*
X89882438Y-81562976D02*
X89930057Y-81515357D01*
X90834819Y-80562976D02*
X90834819Y-81134404D01*
X90834819Y-80848690D02*
X89834819Y-80848690D01*
X89834819Y-80848690D02*
X89977676Y-80943928D01*
X89977676Y-80943928D02*
X90072914Y-81039166D01*
X90072914Y-81039166D02*
X90120533Y-81134404D01*
X89834819Y-79943928D02*
X89834819Y-79848690D01*
X89834819Y-79848690D02*
X89882438Y-79753452D01*
X89882438Y-79753452D02*
X89930057Y-79705833D01*
X89930057Y-79705833D02*
X90025295Y-79658214D01*
X90025295Y-79658214D02*
X90215771Y-79610595D01*
X90215771Y-79610595D02*
X90453866Y-79610595D01*
X90453866Y-79610595D02*
X90644342Y-79658214D01*
X90644342Y-79658214D02*
X90739580Y-79705833D01*
X90739580Y-79705833D02*
X90787200Y-79753452D01*
X90787200Y-79753452D02*
X90834819Y-79848690D01*
X90834819Y-79848690D02*
X90834819Y-79943928D01*
X90834819Y-79943928D02*
X90787200Y-80039166D01*
X90787200Y-80039166D02*
X90739580Y-80086785D01*
X90739580Y-80086785D02*
X90644342Y-80134404D01*
X90644342Y-80134404D02*
X90453866Y-80182023D01*
X90453866Y-80182023D02*
X90215771Y-80182023D01*
X90215771Y-80182023D02*
X90025295Y-80134404D01*
X90025295Y-80134404D02*
X89930057Y-80086785D01*
X89930057Y-80086785D02*
X89882438Y-80039166D01*
X89882438Y-80039166D02*
X89834819Y-79943928D01*
X126865142Y-101546819D02*
X126531809Y-101070628D01*
X126293714Y-101546819D02*
X126293714Y-100546819D01*
X126293714Y-100546819D02*
X126674666Y-100546819D01*
X126674666Y-100546819D02*
X126769904Y-100594438D01*
X126769904Y-100594438D02*
X126817523Y-100642057D01*
X126817523Y-100642057D02*
X126865142Y-100737295D01*
X126865142Y-100737295D02*
X126865142Y-100880152D01*
X126865142Y-100880152D02*
X126817523Y-100975390D01*
X126817523Y-100975390D02*
X126769904Y-101023009D01*
X126769904Y-101023009D02*
X126674666Y-101070628D01*
X126674666Y-101070628D02*
X126293714Y-101070628D01*
X127198476Y-100546819D02*
X127817523Y-100546819D01*
X127817523Y-100546819D02*
X127484190Y-100927771D01*
X127484190Y-100927771D02*
X127627047Y-100927771D01*
X127627047Y-100927771D02*
X127722285Y-100975390D01*
X127722285Y-100975390D02*
X127769904Y-101023009D01*
X127769904Y-101023009D02*
X127817523Y-101118247D01*
X127817523Y-101118247D02*
X127817523Y-101356342D01*
X127817523Y-101356342D02*
X127769904Y-101451580D01*
X127769904Y-101451580D02*
X127722285Y-101499200D01*
X127722285Y-101499200D02*
X127627047Y-101546819D01*
X127627047Y-101546819D02*
X127341333Y-101546819D01*
X127341333Y-101546819D02*
X127246095Y-101499200D01*
X127246095Y-101499200D02*
X127198476Y-101451580D01*
X128198476Y-100642057D02*
X128246095Y-100594438D01*
X128246095Y-100594438D02*
X128341333Y-100546819D01*
X128341333Y-100546819D02*
X128579428Y-100546819D01*
X128579428Y-100546819D02*
X128674666Y-100594438D01*
X128674666Y-100594438D02*
X128722285Y-100642057D01*
X128722285Y-100642057D02*
X128769904Y-100737295D01*
X128769904Y-100737295D02*
X128769904Y-100832533D01*
X128769904Y-100832533D02*
X128722285Y-100975390D01*
X128722285Y-100975390D02*
X128150857Y-101546819D01*
X128150857Y-101546819D02*
X128769904Y-101546819D01*
X124325142Y-95036819D02*
X123991809Y-94560628D01*
X123753714Y-95036819D02*
X123753714Y-94036819D01*
X123753714Y-94036819D02*
X124134666Y-94036819D01*
X124134666Y-94036819D02*
X124229904Y-94084438D01*
X124229904Y-94084438D02*
X124277523Y-94132057D01*
X124277523Y-94132057D02*
X124325142Y-94227295D01*
X124325142Y-94227295D02*
X124325142Y-94370152D01*
X124325142Y-94370152D02*
X124277523Y-94465390D01*
X124277523Y-94465390D02*
X124229904Y-94513009D01*
X124229904Y-94513009D02*
X124134666Y-94560628D01*
X124134666Y-94560628D02*
X123753714Y-94560628D01*
X124706095Y-94132057D02*
X124753714Y-94084438D01*
X124753714Y-94084438D02*
X124848952Y-94036819D01*
X124848952Y-94036819D02*
X125087047Y-94036819D01*
X125087047Y-94036819D02*
X125182285Y-94084438D01*
X125182285Y-94084438D02*
X125229904Y-94132057D01*
X125229904Y-94132057D02*
X125277523Y-94227295D01*
X125277523Y-94227295D02*
X125277523Y-94322533D01*
X125277523Y-94322533D02*
X125229904Y-94465390D01*
X125229904Y-94465390D02*
X124658476Y-95036819D01*
X124658476Y-95036819D02*
X125277523Y-95036819D01*
X125658476Y-94132057D02*
X125706095Y-94084438D01*
X125706095Y-94084438D02*
X125801333Y-94036819D01*
X125801333Y-94036819D02*
X126039428Y-94036819D01*
X126039428Y-94036819D02*
X126134666Y-94084438D01*
X126134666Y-94084438D02*
X126182285Y-94132057D01*
X126182285Y-94132057D02*
X126229904Y-94227295D01*
X126229904Y-94227295D02*
X126229904Y-94322533D01*
X126229904Y-94322533D02*
X126182285Y-94465390D01*
X126182285Y-94465390D02*
X125610857Y-95036819D01*
X125610857Y-95036819D02*
X126229904Y-95036819D01*
X106545142Y-94848819D02*
X106211809Y-94372628D01*
X105973714Y-94848819D02*
X105973714Y-93848819D01*
X105973714Y-93848819D02*
X106354666Y-93848819D01*
X106354666Y-93848819D02*
X106449904Y-93896438D01*
X106449904Y-93896438D02*
X106497523Y-93944057D01*
X106497523Y-93944057D02*
X106545142Y-94039295D01*
X106545142Y-94039295D02*
X106545142Y-94182152D01*
X106545142Y-94182152D02*
X106497523Y-94277390D01*
X106497523Y-94277390D02*
X106449904Y-94325009D01*
X106449904Y-94325009D02*
X106354666Y-94372628D01*
X106354666Y-94372628D02*
X105973714Y-94372628D01*
X106926095Y-93944057D02*
X106973714Y-93896438D01*
X106973714Y-93896438D02*
X107068952Y-93848819D01*
X107068952Y-93848819D02*
X107307047Y-93848819D01*
X107307047Y-93848819D02*
X107402285Y-93896438D01*
X107402285Y-93896438D02*
X107449904Y-93944057D01*
X107449904Y-93944057D02*
X107497523Y-94039295D01*
X107497523Y-94039295D02*
X107497523Y-94134533D01*
X107497523Y-94134533D02*
X107449904Y-94277390D01*
X107449904Y-94277390D02*
X106878476Y-94848819D01*
X106878476Y-94848819D02*
X107497523Y-94848819D01*
X108449904Y-94848819D02*
X107878476Y-94848819D01*
X108164190Y-94848819D02*
X108164190Y-93848819D01*
X108164190Y-93848819D02*
X108068952Y-93991676D01*
X108068952Y-93991676D02*
X107973714Y-94086914D01*
X107973714Y-94086914D02*
X107878476Y-94134533D01*
X87735580Y-108338857D02*
X87783200Y-108386476D01*
X87783200Y-108386476D02*
X87830819Y-108529333D01*
X87830819Y-108529333D02*
X87830819Y-108624571D01*
X87830819Y-108624571D02*
X87783200Y-108767428D01*
X87783200Y-108767428D02*
X87687961Y-108862666D01*
X87687961Y-108862666D02*
X87592723Y-108910285D01*
X87592723Y-108910285D02*
X87402247Y-108957904D01*
X87402247Y-108957904D02*
X87259390Y-108957904D01*
X87259390Y-108957904D02*
X87068914Y-108910285D01*
X87068914Y-108910285D02*
X86973676Y-108862666D01*
X86973676Y-108862666D02*
X86878438Y-108767428D01*
X86878438Y-108767428D02*
X86830819Y-108624571D01*
X86830819Y-108624571D02*
X86830819Y-108529333D01*
X86830819Y-108529333D02*
X86878438Y-108386476D01*
X86878438Y-108386476D02*
X86926057Y-108338857D01*
X86926057Y-107957904D02*
X86878438Y-107910285D01*
X86878438Y-107910285D02*
X86830819Y-107815047D01*
X86830819Y-107815047D02*
X86830819Y-107576952D01*
X86830819Y-107576952D02*
X86878438Y-107481714D01*
X86878438Y-107481714D02*
X86926057Y-107434095D01*
X86926057Y-107434095D02*
X87021295Y-107386476D01*
X87021295Y-107386476D02*
X87116533Y-107386476D01*
X87116533Y-107386476D02*
X87259390Y-107434095D01*
X87259390Y-107434095D02*
X87830819Y-108005523D01*
X87830819Y-108005523D02*
X87830819Y-107386476D01*
X86830819Y-106529333D02*
X86830819Y-106719809D01*
X86830819Y-106719809D02*
X86878438Y-106815047D01*
X86878438Y-106815047D02*
X86926057Y-106862666D01*
X86926057Y-106862666D02*
X87068914Y-106957904D01*
X87068914Y-106957904D02*
X87259390Y-107005523D01*
X87259390Y-107005523D02*
X87640342Y-107005523D01*
X87640342Y-107005523D02*
X87735580Y-106957904D01*
X87735580Y-106957904D02*
X87783200Y-106910285D01*
X87783200Y-106910285D02*
X87830819Y-106815047D01*
X87830819Y-106815047D02*
X87830819Y-106624571D01*
X87830819Y-106624571D02*
X87783200Y-106529333D01*
X87783200Y-106529333D02*
X87735580Y-106481714D01*
X87735580Y-106481714D02*
X87640342Y-106434095D01*
X87640342Y-106434095D02*
X87402247Y-106434095D01*
X87402247Y-106434095D02*
X87307009Y-106481714D01*
X87307009Y-106481714D02*
X87259390Y-106529333D01*
X87259390Y-106529333D02*
X87211771Y-106624571D01*
X87211771Y-106624571D02*
X87211771Y-106815047D01*
X87211771Y-106815047D02*
X87259390Y-106910285D01*
X87259390Y-106910285D02*
X87307009Y-106957904D01*
X87307009Y-106957904D02*
X87402247Y-107005523D01*
X89781142Y-83616319D02*
X89447809Y-83140128D01*
X89209714Y-83616319D02*
X89209714Y-82616319D01*
X89209714Y-82616319D02*
X89590666Y-82616319D01*
X89590666Y-82616319D02*
X89685904Y-82663938D01*
X89685904Y-82663938D02*
X89733523Y-82711557D01*
X89733523Y-82711557D02*
X89781142Y-82806795D01*
X89781142Y-82806795D02*
X89781142Y-82949652D01*
X89781142Y-82949652D02*
X89733523Y-83044890D01*
X89733523Y-83044890D02*
X89685904Y-83092509D01*
X89685904Y-83092509D02*
X89590666Y-83140128D01*
X89590666Y-83140128D02*
X89209714Y-83140128D01*
X90733523Y-83616319D02*
X90162095Y-83616319D01*
X90447809Y-83616319D02*
X90447809Y-82616319D01*
X90447809Y-82616319D02*
X90352571Y-82759176D01*
X90352571Y-82759176D02*
X90257333Y-82854414D01*
X90257333Y-82854414D02*
X90162095Y-82902033D01*
X91114476Y-82711557D02*
X91162095Y-82663938D01*
X91162095Y-82663938D02*
X91257333Y-82616319D01*
X91257333Y-82616319D02*
X91495428Y-82616319D01*
X91495428Y-82616319D02*
X91590666Y-82663938D01*
X91590666Y-82663938D02*
X91638285Y-82711557D01*
X91638285Y-82711557D02*
X91685904Y-82806795D01*
X91685904Y-82806795D02*
X91685904Y-82902033D01*
X91685904Y-82902033D02*
X91638285Y-83044890D01*
X91638285Y-83044890D02*
X91066857Y-83616319D01*
X91066857Y-83616319D02*
X91685904Y-83616319D01*
D11*
X134235318Y-112223332D02*
X135142461Y-112223332D01*
X135142461Y-112223332D02*
X135323889Y-112283809D01*
X135323889Y-112283809D02*
X135444842Y-112404761D01*
X135444842Y-112404761D02*
X135505318Y-112586190D01*
X135505318Y-112586190D02*
X135505318Y-112707142D01*
X134235318Y-111013809D02*
X134235318Y-111618571D01*
X134235318Y-111618571D02*
X134840080Y-111679047D01*
X134840080Y-111679047D02*
X134779603Y-111618571D01*
X134779603Y-111618571D02*
X134719127Y-111497618D01*
X134719127Y-111497618D02*
X134719127Y-111195237D01*
X134719127Y-111195237D02*
X134779603Y-111074285D01*
X134779603Y-111074285D02*
X134840080Y-111013809D01*
X134840080Y-111013809D02*
X134961032Y-110953332D01*
X134961032Y-110953332D02*
X135263413Y-110953332D01*
X135263413Y-110953332D02*
X135384365Y-111013809D01*
X135384365Y-111013809D02*
X135444842Y-111074285D01*
X135444842Y-111074285D02*
X135505318Y-111195237D01*
X135505318Y-111195237D02*
X135505318Y-111497618D01*
X135505318Y-111497618D02*
X135444842Y-111618571D01*
X135444842Y-111618571D02*
X135384365Y-111679047D01*
D10*
X122347142Y-75129580D02*
X122299523Y-75177200D01*
X122299523Y-75177200D02*
X122156666Y-75224819D01*
X122156666Y-75224819D02*
X122061428Y-75224819D01*
X122061428Y-75224819D02*
X121918571Y-75177200D01*
X121918571Y-75177200D02*
X121823333Y-75081961D01*
X121823333Y-75081961D02*
X121775714Y-74986723D01*
X121775714Y-74986723D02*
X121728095Y-74796247D01*
X121728095Y-74796247D02*
X121728095Y-74653390D01*
X121728095Y-74653390D02*
X121775714Y-74462914D01*
X121775714Y-74462914D02*
X121823333Y-74367676D01*
X121823333Y-74367676D02*
X121918571Y-74272438D01*
X121918571Y-74272438D02*
X122061428Y-74224819D01*
X122061428Y-74224819D02*
X122156666Y-74224819D01*
X122156666Y-74224819D02*
X122299523Y-74272438D01*
X122299523Y-74272438D02*
X122347142Y-74320057D01*
X123299523Y-75224819D02*
X122728095Y-75224819D01*
X123013809Y-75224819D02*
X123013809Y-74224819D01*
X123013809Y-74224819D02*
X122918571Y-74367676D01*
X122918571Y-74367676D02*
X122823333Y-74462914D01*
X122823333Y-74462914D02*
X122728095Y-74510533D01*
X124204285Y-74224819D02*
X123728095Y-74224819D01*
X123728095Y-74224819D02*
X123680476Y-74701009D01*
X123680476Y-74701009D02*
X123728095Y-74653390D01*
X123728095Y-74653390D02*
X123823333Y-74605771D01*
X123823333Y-74605771D02*
X124061428Y-74605771D01*
X124061428Y-74605771D02*
X124156666Y-74653390D01*
X124156666Y-74653390D02*
X124204285Y-74701009D01*
X124204285Y-74701009D02*
X124251904Y-74796247D01*
X124251904Y-74796247D02*
X124251904Y-75034342D01*
X124251904Y-75034342D02*
X124204285Y-75129580D01*
X124204285Y-75129580D02*
X124156666Y-75177200D01*
X124156666Y-75177200D02*
X124061428Y-75224819D01*
X124061428Y-75224819D02*
X123823333Y-75224819D01*
X123823333Y-75224819D02*
X123728095Y-75177200D01*
X123728095Y-75177200D02*
X123680476Y-75129580D01*
X108069142Y-97768580D02*
X108021523Y-97816200D01*
X108021523Y-97816200D02*
X107878666Y-97863819D01*
X107878666Y-97863819D02*
X107783428Y-97863819D01*
X107783428Y-97863819D02*
X107640571Y-97816200D01*
X107640571Y-97816200D02*
X107545333Y-97720961D01*
X107545333Y-97720961D02*
X107497714Y-97625723D01*
X107497714Y-97625723D02*
X107450095Y-97435247D01*
X107450095Y-97435247D02*
X107450095Y-97292390D01*
X107450095Y-97292390D02*
X107497714Y-97101914D01*
X107497714Y-97101914D02*
X107545333Y-97006676D01*
X107545333Y-97006676D02*
X107640571Y-96911438D01*
X107640571Y-96911438D02*
X107783428Y-96863819D01*
X107783428Y-96863819D02*
X107878666Y-96863819D01*
X107878666Y-96863819D02*
X108021523Y-96911438D01*
X108021523Y-96911438D02*
X108069142Y-96959057D01*
X108450095Y-96959057D02*
X108497714Y-96911438D01*
X108497714Y-96911438D02*
X108592952Y-96863819D01*
X108592952Y-96863819D02*
X108831047Y-96863819D01*
X108831047Y-96863819D02*
X108926285Y-96911438D01*
X108926285Y-96911438D02*
X108973904Y-96959057D01*
X108973904Y-96959057D02*
X109021523Y-97054295D01*
X109021523Y-97054295D02*
X109021523Y-97149533D01*
X109021523Y-97149533D02*
X108973904Y-97292390D01*
X108973904Y-97292390D02*
X108402476Y-97863819D01*
X108402476Y-97863819D02*
X109021523Y-97863819D01*
X109640571Y-96863819D02*
X109735809Y-96863819D01*
X109735809Y-96863819D02*
X109831047Y-96911438D01*
X109831047Y-96911438D02*
X109878666Y-96959057D01*
X109878666Y-96959057D02*
X109926285Y-97054295D01*
X109926285Y-97054295D02*
X109973904Y-97244771D01*
X109973904Y-97244771D02*
X109973904Y-97482866D01*
X109973904Y-97482866D02*
X109926285Y-97673342D01*
X109926285Y-97673342D02*
X109878666Y-97768580D01*
X109878666Y-97768580D02*
X109831047Y-97816200D01*
X109831047Y-97816200D02*
X109735809Y-97863819D01*
X109735809Y-97863819D02*
X109640571Y-97863819D01*
X109640571Y-97863819D02*
X109545333Y-97816200D01*
X109545333Y-97816200D02*
X109497714Y-97768580D01*
X109497714Y-97768580D02*
X109450095Y-97673342D01*
X109450095Y-97673342D02*
X109402476Y-97482866D01*
X109402476Y-97482866D02*
X109402476Y-97244771D01*
X109402476Y-97244771D02*
X109450095Y-97054295D01*
X109450095Y-97054295D02*
X109497714Y-96959057D01*
X109497714Y-96959057D02*
X109545333Y-96911438D01*
X109545333Y-96911438D02*
X109640571Y-96863819D01*
D11*
X116176618Y-126050318D02*
X116176618Y-124780318D01*
X116176618Y-124780318D02*
X116478999Y-124780318D01*
X116478999Y-124780318D02*
X116660428Y-124840794D01*
X116660428Y-124840794D02*
X116781380Y-124961746D01*
X116781380Y-124961746D02*
X116841857Y-125082699D01*
X116841857Y-125082699D02*
X116902333Y-125324603D01*
X116902333Y-125324603D02*
X116902333Y-125506032D01*
X116902333Y-125506032D02*
X116841857Y-125747937D01*
X116841857Y-125747937D02*
X116781380Y-125868889D01*
X116781380Y-125868889D02*
X116660428Y-125989842D01*
X116660428Y-125989842D02*
X116478999Y-126050318D01*
X116478999Y-126050318D02*
X116176618Y-126050318D01*
X118051380Y-124780318D02*
X117446618Y-124780318D01*
X117446618Y-124780318D02*
X117386142Y-125385080D01*
X117386142Y-125385080D02*
X117446618Y-125324603D01*
X117446618Y-125324603D02*
X117567571Y-125264127D01*
X117567571Y-125264127D02*
X117869952Y-125264127D01*
X117869952Y-125264127D02*
X117990904Y-125324603D01*
X117990904Y-125324603D02*
X118051380Y-125385080D01*
X118051380Y-125385080D02*
X118111857Y-125506032D01*
X118111857Y-125506032D02*
X118111857Y-125808413D01*
X118111857Y-125808413D02*
X118051380Y-125929365D01*
X118051380Y-125929365D02*
X117990904Y-125989842D01*
X117990904Y-125989842D02*
X117869952Y-126050318D01*
X117869952Y-126050318D02*
X117567571Y-126050318D01*
X117567571Y-126050318D02*
X117446618Y-125989842D01*
X117446618Y-125989842D02*
X117386142Y-125929365D01*
X141380318Y-84167332D02*
X142287461Y-84167332D01*
X142287461Y-84167332D02*
X142468889Y-84227809D01*
X142468889Y-84227809D02*
X142589842Y-84348761D01*
X142589842Y-84348761D02*
X142650318Y-84530190D01*
X142650318Y-84530190D02*
X142650318Y-84651142D01*
X141380318Y-83683523D02*
X141380318Y-82836856D01*
X141380318Y-82836856D02*
X142650318Y-83381142D01*
X77772380Y-75689318D02*
X77772380Y-76717413D01*
X77772380Y-76717413D02*
X77832857Y-76838365D01*
X77832857Y-76838365D02*
X77893333Y-76898842D01*
X77893333Y-76898842D02*
X78014285Y-76959318D01*
X78014285Y-76959318D02*
X78256190Y-76959318D01*
X78256190Y-76959318D02*
X78377142Y-76898842D01*
X78377142Y-76898842D02*
X78437619Y-76838365D01*
X78437619Y-76838365D02*
X78498095Y-76717413D01*
X78498095Y-76717413D02*
X78498095Y-75689318D01*
X79768095Y-76959318D02*
X79042380Y-76959318D01*
X79405237Y-76959318D02*
X79405237Y-75689318D01*
X79405237Y-75689318D02*
X79284285Y-75870746D01*
X79284285Y-75870746D02*
X79163333Y-75991699D01*
X79163333Y-75991699D02*
X79042380Y-76052175D01*
D10*
X68989580Y-79111666D02*
X69037200Y-79159285D01*
X69037200Y-79159285D02*
X69084819Y-79302142D01*
X69084819Y-79302142D02*
X69084819Y-79397380D01*
X69084819Y-79397380D02*
X69037200Y-79540237D01*
X69037200Y-79540237D02*
X68941961Y-79635475D01*
X68941961Y-79635475D02*
X68846723Y-79683094D01*
X68846723Y-79683094D02*
X68656247Y-79730713D01*
X68656247Y-79730713D02*
X68513390Y-79730713D01*
X68513390Y-79730713D02*
X68322914Y-79683094D01*
X68322914Y-79683094D02*
X68227676Y-79635475D01*
X68227676Y-79635475D02*
X68132438Y-79540237D01*
X68132438Y-79540237D02*
X68084819Y-79397380D01*
X68084819Y-79397380D02*
X68084819Y-79302142D01*
X68084819Y-79302142D02*
X68132438Y-79159285D01*
X68132438Y-79159285D02*
X68180057Y-79111666D01*
X68180057Y-78730713D02*
X68132438Y-78683094D01*
X68132438Y-78683094D02*
X68084819Y-78587856D01*
X68084819Y-78587856D02*
X68084819Y-78349761D01*
X68084819Y-78349761D02*
X68132438Y-78254523D01*
X68132438Y-78254523D02*
X68180057Y-78206904D01*
X68180057Y-78206904D02*
X68275295Y-78159285D01*
X68275295Y-78159285D02*
X68370533Y-78159285D01*
X68370533Y-78159285D02*
X68513390Y-78206904D01*
X68513390Y-78206904D02*
X69084819Y-78778332D01*
X69084819Y-78778332D02*
X69084819Y-78159285D01*
X54221142Y-101546819D02*
X53887809Y-101070628D01*
X53649714Y-101546819D02*
X53649714Y-100546819D01*
X53649714Y-100546819D02*
X54030666Y-100546819D01*
X54030666Y-100546819D02*
X54125904Y-100594438D01*
X54125904Y-100594438D02*
X54173523Y-100642057D01*
X54173523Y-100642057D02*
X54221142Y-100737295D01*
X54221142Y-100737295D02*
X54221142Y-100880152D01*
X54221142Y-100880152D02*
X54173523Y-100975390D01*
X54173523Y-100975390D02*
X54125904Y-101023009D01*
X54125904Y-101023009D02*
X54030666Y-101070628D01*
X54030666Y-101070628D02*
X53649714Y-101070628D01*
X54602095Y-100642057D02*
X54649714Y-100594438D01*
X54649714Y-100594438D02*
X54744952Y-100546819D01*
X54744952Y-100546819D02*
X54983047Y-100546819D01*
X54983047Y-100546819D02*
X55078285Y-100594438D01*
X55078285Y-100594438D02*
X55125904Y-100642057D01*
X55125904Y-100642057D02*
X55173523Y-100737295D01*
X55173523Y-100737295D02*
X55173523Y-100832533D01*
X55173523Y-100832533D02*
X55125904Y-100975390D01*
X55125904Y-100975390D02*
X54554476Y-101546819D01*
X54554476Y-101546819D02*
X55173523Y-101546819D01*
X55649714Y-101546819D02*
X55840190Y-101546819D01*
X55840190Y-101546819D02*
X55935428Y-101499200D01*
X55935428Y-101499200D02*
X55983047Y-101451580D01*
X55983047Y-101451580D02*
X56078285Y-101308723D01*
X56078285Y-101308723D02*
X56125904Y-101118247D01*
X56125904Y-101118247D02*
X56125904Y-100737295D01*
X56125904Y-100737295D02*
X56078285Y-100642057D01*
X56078285Y-100642057D02*
X56030666Y-100594438D01*
X56030666Y-100594438D02*
X55935428Y-100546819D01*
X55935428Y-100546819D02*
X55744952Y-100546819D01*
X55744952Y-100546819D02*
X55649714Y-100594438D01*
X55649714Y-100594438D02*
X55602095Y-100642057D01*
X55602095Y-100642057D02*
X55554476Y-100737295D01*
X55554476Y-100737295D02*
X55554476Y-100975390D01*
X55554476Y-100975390D02*
X55602095Y-101070628D01*
X55602095Y-101070628D02*
X55649714Y-101118247D01*
X55649714Y-101118247D02*
X55744952Y-101165866D01*
X55744952Y-101165866D02*
X55935428Y-101165866D01*
X55935428Y-101165866D02*
X56030666Y-101118247D01*
X56030666Y-101118247D02*
X56078285Y-101070628D01*
X56078285Y-101070628D02*
X56125904Y-100975390D01*
X74763333Y-86669819D02*
X74430000Y-86193628D01*
X74191905Y-86669819D02*
X74191905Y-85669819D01*
X74191905Y-85669819D02*
X74572857Y-85669819D01*
X74572857Y-85669819D02*
X74668095Y-85717438D01*
X74668095Y-85717438D02*
X74715714Y-85765057D01*
X74715714Y-85765057D02*
X74763333Y-85860295D01*
X74763333Y-85860295D02*
X74763333Y-86003152D01*
X74763333Y-86003152D02*
X74715714Y-86098390D01*
X74715714Y-86098390D02*
X74668095Y-86146009D01*
X74668095Y-86146009D02*
X74572857Y-86193628D01*
X74572857Y-86193628D02*
X74191905Y-86193628D01*
X75334762Y-86098390D02*
X75239524Y-86050771D01*
X75239524Y-86050771D02*
X75191905Y-86003152D01*
X75191905Y-86003152D02*
X75144286Y-85907914D01*
X75144286Y-85907914D02*
X75144286Y-85860295D01*
X75144286Y-85860295D02*
X75191905Y-85765057D01*
X75191905Y-85765057D02*
X75239524Y-85717438D01*
X75239524Y-85717438D02*
X75334762Y-85669819D01*
X75334762Y-85669819D02*
X75525238Y-85669819D01*
X75525238Y-85669819D02*
X75620476Y-85717438D01*
X75620476Y-85717438D02*
X75668095Y-85765057D01*
X75668095Y-85765057D02*
X75715714Y-85860295D01*
X75715714Y-85860295D02*
X75715714Y-85907914D01*
X75715714Y-85907914D02*
X75668095Y-86003152D01*
X75668095Y-86003152D02*
X75620476Y-86050771D01*
X75620476Y-86050771D02*
X75525238Y-86098390D01*
X75525238Y-86098390D02*
X75334762Y-86098390D01*
X75334762Y-86098390D02*
X75239524Y-86146009D01*
X75239524Y-86146009D02*
X75191905Y-86193628D01*
X75191905Y-86193628D02*
X75144286Y-86288866D01*
X75144286Y-86288866D02*
X75144286Y-86479342D01*
X75144286Y-86479342D02*
X75191905Y-86574580D01*
X75191905Y-86574580D02*
X75239524Y-86622200D01*
X75239524Y-86622200D02*
X75334762Y-86669819D01*
X75334762Y-86669819D02*
X75525238Y-86669819D01*
X75525238Y-86669819D02*
X75620476Y-86622200D01*
X75620476Y-86622200D02*
X75668095Y-86574580D01*
X75668095Y-86574580D02*
X75715714Y-86479342D01*
X75715714Y-86479342D02*
X75715714Y-86288866D01*
X75715714Y-86288866D02*
X75668095Y-86193628D01*
X75668095Y-86193628D02*
X75620476Y-86146009D01*
X75620476Y-86146009D02*
X75525238Y-86098390D01*
X130929142Y-104499580D02*
X130881523Y-104547200D01*
X130881523Y-104547200D02*
X130738666Y-104594819D01*
X130738666Y-104594819D02*
X130643428Y-104594819D01*
X130643428Y-104594819D02*
X130500571Y-104547200D01*
X130500571Y-104547200D02*
X130405333Y-104451961D01*
X130405333Y-104451961D02*
X130357714Y-104356723D01*
X130357714Y-104356723D02*
X130310095Y-104166247D01*
X130310095Y-104166247D02*
X130310095Y-104023390D01*
X130310095Y-104023390D02*
X130357714Y-103832914D01*
X130357714Y-103832914D02*
X130405333Y-103737676D01*
X130405333Y-103737676D02*
X130500571Y-103642438D01*
X130500571Y-103642438D02*
X130643428Y-103594819D01*
X130643428Y-103594819D02*
X130738666Y-103594819D01*
X130738666Y-103594819D02*
X130881523Y-103642438D01*
X130881523Y-103642438D02*
X130929142Y-103690057D01*
X131310095Y-103690057D02*
X131357714Y-103642438D01*
X131357714Y-103642438D02*
X131452952Y-103594819D01*
X131452952Y-103594819D02*
X131691047Y-103594819D01*
X131691047Y-103594819D02*
X131786285Y-103642438D01*
X131786285Y-103642438D02*
X131833904Y-103690057D01*
X131833904Y-103690057D02*
X131881523Y-103785295D01*
X131881523Y-103785295D02*
X131881523Y-103880533D01*
X131881523Y-103880533D02*
X131833904Y-104023390D01*
X131833904Y-104023390D02*
X131262476Y-104594819D01*
X131262476Y-104594819D02*
X131881523Y-104594819D01*
X132833904Y-104594819D02*
X132262476Y-104594819D01*
X132548190Y-104594819D02*
X132548190Y-103594819D01*
X132548190Y-103594819D02*
X132452952Y-103737676D01*
X132452952Y-103737676D02*
X132357714Y-103832914D01*
X132357714Y-103832914D02*
X132262476Y-103880533D01*
D12*
X48569714Y-105097619D02*
X48569714Y-104097619D01*
X48569714Y-104097619D02*
X48807809Y-104097619D01*
X48807809Y-104097619D02*
X48950666Y-104145238D01*
X48950666Y-104145238D02*
X49045904Y-104240476D01*
X49045904Y-104240476D02*
X49093523Y-104335714D01*
X49093523Y-104335714D02*
X49141142Y-104526190D01*
X49141142Y-104526190D02*
X49141142Y-104669047D01*
X49141142Y-104669047D02*
X49093523Y-104859523D01*
X49093523Y-104859523D02*
X49045904Y-104954761D01*
X49045904Y-104954761D02*
X48950666Y-105050000D01*
X48950666Y-105050000D02*
X48807809Y-105097619D01*
X48807809Y-105097619D02*
X48569714Y-105097619D01*
X50093523Y-105097619D02*
X49522095Y-105097619D01*
X49807809Y-105097619D02*
X49807809Y-104097619D01*
X49807809Y-104097619D02*
X49712571Y-104240476D01*
X49712571Y-104240476D02*
X49617333Y-104335714D01*
X49617333Y-104335714D02*
X49522095Y-104383333D01*
X50474476Y-104192857D02*
X50522095Y-104145238D01*
X50522095Y-104145238D02*
X50617333Y-104097619D01*
X50617333Y-104097619D02*
X50855428Y-104097619D01*
X50855428Y-104097619D02*
X50950666Y-104145238D01*
X50950666Y-104145238D02*
X50998285Y-104192857D01*
X50998285Y-104192857D02*
X51045904Y-104288095D01*
X51045904Y-104288095D02*
X51045904Y-104383333D01*
X51045904Y-104383333D02*
X50998285Y-104526190D01*
X50998285Y-104526190D02*
X50426857Y-105097619D01*
X50426857Y-105097619D02*
X51045904Y-105097619D01*
D10*
X74763333Y-96364580D02*
X74715714Y-96412200D01*
X74715714Y-96412200D02*
X74572857Y-96459819D01*
X74572857Y-96459819D02*
X74477619Y-96459819D01*
X74477619Y-96459819D02*
X74334762Y-96412200D01*
X74334762Y-96412200D02*
X74239524Y-96316961D01*
X74239524Y-96316961D02*
X74191905Y-96221723D01*
X74191905Y-96221723D02*
X74144286Y-96031247D01*
X74144286Y-96031247D02*
X74144286Y-95888390D01*
X74144286Y-95888390D02*
X74191905Y-95697914D01*
X74191905Y-95697914D02*
X74239524Y-95602676D01*
X74239524Y-95602676D02*
X74334762Y-95507438D01*
X74334762Y-95507438D02*
X74477619Y-95459819D01*
X74477619Y-95459819D02*
X74572857Y-95459819D01*
X74572857Y-95459819D02*
X74715714Y-95507438D01*
X74715714Y-95507438D02*
X74763333Y-95555057D01*
X75620476Y-95793152D02*
X75620476Y-96459819D01*
X75382381Y-95412200D02*
X75144286Y-96126485D01*
X75144286Y-96126485D02*
X75763333Y-96126485D01*
X132453142Y-95544819D02*
X132119809Y-95068628D01*
X131881714Y-95544819D02*
X131881714Y-94544819D01*
X131881714Y-94544819D02*
X132262666Y-94544819D01*
X132262666Y-94544819D02*
X132357904Y-94592438D01*
X132357904Y-94592438D02*
X132405523Y-94640057D01*
X132405523Y-94640057D02*
X132453142Y-94735295D01*
X132453142Y-94735295D02*
X132453142Y-94878152D01*
X132453142Y-94878152D02*
X132405523Y-94973390D01*
X132405523Y-94973390D02*
X132357904Y-95021009D01*
X132357904Y-95021009D02*
X132262666Y-95068628D01*
X132262666Y-95068628D02*
X131881714Y-95068628D01*
X132786476Y-94544819D02*
X133405523Y-94544819D01*
X133405523Y-94544819D02*
X133072190Y-94925771D01*
X133072190Y-94925771D02*
X133215047Y-94925771D01*
X133215047Y-94925771D02*
X133310285Y-94973390D01*
X133310285Y-94973390D02*
X133357904Y-95021009D01*
X133357904Y-95021009D02*
X133405523Y-95116247D01*
X133405523Y-95116247D02*
X133405523Y-95354342D01*
X133405523Y-95354342D02*
X133357904Y-95449580D01*
X133357904Y-95449580D02*
X133310285Y-95497200D01*
X133310285Y-95497200D02*
X133215047Y-95544819D01*
X133215047Y-95544819D02*
X132929333Y-95544819D01*
X132929333Y-95544819D02*
X132834095Y-95497200D01*
X132834095Y-95497200D02*
X132786476Y-95449580D01*
X133738857Y-94544819D02*
X134357904Y-94544819D01*
X134357904Y-94544819D02*
X134024571Y-94925771D01*
X134024571Y-94925771D02*
X134167428Y-94925771D01*
X134167428Y-94925771D02*
X134262666Y-94973390D01*
X134262666Y-94973390D02*
X134310285Y-95021009D01*
X134310285Y-95021009D02*
X134357904Y-95116247D01*
X134357904Y-95116247D02*
X134357904Y-95354342D01*
X134357904Y-95354342D02*
X134310285Y-95449580D01*
X134310285Y-95449580D02*
X134262666Y-95497200D01*
X134262666Y-95497200D02*
X134167428Y-95544819D01*
X134167428Y-95544819D02*
X133881714Y-95544819D01*
X133881714Y-95544819D02*
X133786476Y-95497200D01*
X133786476Y-95497200D02*
X133738857Y-95449580D01*
X66494819Y-77281666D02*
X66018628Y-77614999D01*
X66494819Y-77853094D02*
X65494819Y-77853094D01*
X65494819Y-77853094D02*
X65494819Y-77472142D01*
X65494819Y-77472142D02*
X65542438Y-77376904D01*
X65542438Y-77376904D02*
X65590057Y-77329285D01*
X65590057Y-77329285D02*
X65685295Y-77281666D01*
X65685295Y-77281666D02*
X65828152Y-77281666D01*
X65828152Y-77281666D02*
X65923390Y-77329285D01*
X65923390Y-77329285D02*
X65971009Y-77376904D01*
X65971009Y-77376904D02*
X66018628Y-77472142D01*
X66018628Y-77472142D02*
X66018628Y-77853094D01*
X65494819Y-76948332D02*
X65494819Y-76329285D01*
X65494819Y-76329285D02*
X65875771Y-76662618D01*
X65875771Y-76662618D02*
X65875771Y-76519761D01*
X65875771Y-76519761D02*
X65923390Y-76424523D01*
X65923390Y-76424523D02*
X65971009Y-76376904D01*
X65971009Y-76376904D02*
X66066247Y-76329285D01*
X66066247Y-76329285D02*
X66304342Y-76329285D01*
X66304342Y-76329285D02*
X66399580Y-76376904D01*
X66399580Y-76376904D02*
X66447200Y-76424523D01*
X66447200Y-76424523D02*
X66494819Y-76519761D01*
X66494819Y-76519761D02*
X66494819Y-76805475D01*
X66494819Y-76805475D02*
X66447200Y-76900713D01*
X66447200Y-76900713D02*
X66399580Y-76948332D01*
D11*
X105669842Y-112219619D02*
X105730318Y-112038190D01*
X105730318Y-112038190D02*
X105730318Y-111735809D01*
X105730318Y-111735809D02*
X105669842Y-111614857D01*
X105669842Y-111614857D02*
X105609365Y-111554381D01*
X105609365Y-111554381D02*
X105488413Y-111493904D01*
X105488413Y-111493904D02*
X105367461Y-111493904D01*
X105367461Y-111493904D02*
X105246508Y-111554381D01*
X105246508Y-111554381D02*
X105186032Y-111614857D01*
X105186032Y-111614857D02*
X105125556Y-111735809D01*
X105125556Y-111735809D02*
X105065080Y-111977714D01*
X105065080Y-111977714D02*
X105004603Y-112098666D01*
X105004603Y-112098666D02*
X104944127Y-112159143D01*
X104944127Y-112159143D02*
X104823175Y-112219619D01*
X104823175Y-112219619D02*
X104702222Y-112219619D01*
X104702222Y-112219619D02*
X104581270Y-112159143D01*
X104581270Y-112159143D02*
X104520794Y-112098666D01*
X104520794Y-112098666D02*
X104460318Y-111977714D01*
X104460318Y-111977714D02*
X104460318Y-111675333D01*
X104460318Y-111675333D02*
X104520794Y-111493904D01*
X104581270Y-111010095D02*
X104520794Y-110949619D01*
X104520794Y-110949619D02*
X104460318Y-110828666D01*
X104460318Y-110828666D02*
X104460318Y-110526285D01*
X104460318Y-110526285D02*
X104520794Y-110405333D01*
X104520794Y-110405333D02*
X104581270Y-110344857D01*
X104581270Y-110344857D02*
X104702222Y-110284380D01*
X104702222Y-110284380D02*
X104823175Y-110284380D01*
X104823175Y-110284380D02*
X105004603Y-110344857D01*
X105004603Y-110344857D02*
X105730318Y-111070571D01*
X105730318Y-111070571D02*
X105730318Y-110284380D01*
X102102380Y-99589318D02*
X102102380Y-100617413D01*
X102102380Y-100617413D02*
X102162857Y-100738365D01*
X102162857Y-100738365D02*
X102223333Y-100798842D01*
X102223333Y-100798842D02*
X102344285Y-100859318D01*
X102344285Y-100859318D02*
X102586190Y-100859318D01*
X102586190Y-100859318D02*
X102707142Y-100798842D01*
X102707142Y-100798842D02*
X102767619Y-100738365D01*
X102767619Y-100738365D02*
X102828095Y-100617413D01*
X102828095Y-100617413D02*
X102828095Y-99589318D01*
X103311904Y-99589318D02*
X104098095Y-99589318D01*
X104098095Y-99589318D02*
X103674761Y-100073127D01*
X103674761Y-100073127D02*
X103856190Y-100073127D01*
X103856190Y-100073127D02*
X103977142Y-100133603D01*
X103977142Y-100133603D02*
X104037618Y-100194080D01*
X104037618Y-100194080D02*
X104098095Y-100315032D01*
X104098095Y-100315032D02*
X104098095Y-100617413D01*
X104098095Y-100617413D02*
X104037618Y-100738365D01*
X104037618Y-100738365D02*
X103977142Y-100798842D01*
X103977142Y-100798842D02*
X103856190Y-100859318D01*
X103856190Y-100859318D02*
X103493333Y-100859318D01*
X103493333Y-100859318D02*
X103372380Y-100798842D01*
X103372380Y-100798842D02*
X103311904Y-100738365D01*
D10*
X70953333Y-73029580D02*
X70905714Y-73077200D01*
X70905714Y-73077200D02*
X70762857Y-73124819D01*
X70762857Y-73124819D02*
X70667619Y-73124819D01*
X70667619Y-73124819D02*
X70524762Y-73077200D01*
X70524762Y-73077200D02*
X70429524Y-72981961D01*
X70429524Y-72981961D02*
X70381905Y-72886723D01*
X70381905Y-72886723D02*
X70334286Y-72696247D01*
X70334286Y-72696247D02*
X70334286Y-72553390D01*
X70334286Y-72553390D02*
X70381905Y-72362914D01*
X70381905Y-72362914D02*
X70429524Y-72267676D01*
X70429524Y-72267676D02*
X70524762Y-72172438D01*
X70524762Y-72172438D02*
X70667619Y-72124819D01*
X70667619Y-72124819D02*
X70762857Y-72124819D01*
X70762857Y-72124819D02*
X70905714Y-72172438D01*
X70905714Y-72172438D02*
X70953333Y-72220057D01*
X71429524Y-73124819D02*
X71620000Y-73124819D01*
X71620000Y-73124819D02*
X71715238Y-73077200D01*
X71715238Y-73077200D02*
X71762857Y-73029580D01*
X71762857Y-73029580D02*
X71858095Y-72886723D01*
X71858095Y-72886723D02*
X71905714Y-72696247D01*
X71905714Y-72696247D02*
X71905714Y-72315295D01*
X71905714Y-72315295D02*
X71858095Y-72220057D01*
X71858095Y-72220057D02*
X71810476Y-72172438D01*
X71810476Y-72172438D02*
X71715238Y-72124819D01*
X71715238Y-72124819D02*
X71524762Y-72124819D01*
X71524762Y-72124819D02*
X71429524Y-72172438D01*
X71429524Y-72172438D02*
X71381905Y-72220057D01*
X71381905Y-72220057D02*
X71334286Y-72315295D01*
X71334286Y-72315295D02*
X71334286Y-72553390D01*
X71334286Y-72553390D02*
X71381905Y-72648628D01*
X71381905Y-72648628D02*
X71429524Y-72696247D01*
X71429524Y-72696247D02*
X71524762Y-72743866D01*
X71524762Y-72743866D02*
X71715238Y-72743866D01*
X71715238Y-72743866D02*
X71810476Y-72696247D01*
X71810476Y-72696247D02*
X71858095Y-72648628D01*
X71858095Y-72648628D02*
X71905714Y-72553390D01*
D11*
X75974047Y-60525270D02*
X75853095Y-60464794D01*
X75853095Y-60464794D02*
X75732142Y-60343842D01*
X75732142Y-60343842D02*
X75550714Y-60162413D01*
X75550714Y-60162413D02*
X75429761Y-60101937D01*
X75429761Y-60101937D02*
X75308809Y-60101937D01*
X75369285Y-60404318D02*
X75248333Y-60343842D01*
X75248333Y-60343842D02*
X75127380Y-60222889D01*
X75127380Y-60222889D02*
X75066904Y-59980984D01*
X75066904Y-59980984D02*
X75066904Y-59557651D01*
X75066904Y-59557651D02*
X75127380Y-59315746D01*
X75127380Y-59315746D02*
X75248333Y-59194794D01*
X75248333Y-59194794D02*
X75369285Y-59134318D01*
X75369285Y-59134318D02*
X75611190Y-59134318D01*
X75611190Y-59134318D02*
X75732142Y-59194794D01*
X75732142Y-59194794D02*
X75853095Y-59315746D01*
X75853095Y-59315746D02*
X75913571Y-59557651D01*
X75913571Y-59557651D02*
X75913571Y-59980984D01*
X75913571Y-59980984D02*
X75853095Y-60222889D01*
X75853095Y-60222889D02*
X75732142Y-60343842D01*
X75732142Y-60343842D02*
X75611190Y-60404318D01*
X75611190Y-60404318D02*
X75369285Y-60404318D01*
X76336904Y-59134318D02*
X77123095Y-59134318D01*
X77123095Y-59134318D02*
X76699761Y-59618127D01*
X76699761Y-59618127D02*
X76881190Y-59618127D01*
X76881190Y-59618127D02*
X77002142Y-59678603D01*
X77002142Y-59678603D02*
X77062618Y-59739080D01*
X77062618Y-59739080D02*
X77123095Y-59860032D01*
X77123095Y-59860032D02*
X77123095Y-60162413D01*
X77123095Y-60162413D02*
X77062618Y-60283365D01*
X77062618Y-60283365D02*
X77002142Y-60343842D01*
X77002142Y-60343842D02*
X76881190Y-60404318D01*
X76881190Y-60404318D02*
X76518333Y-60404318D01*
X76518333Y-60404318D02*
X76397380Y-60343842D01*
X76397380Y-60343842D02*
X76336904Y-60283365D01*
D10*
X74763333Y-83494819D02*
X74430000Y-83018628D01*
X74191905Y-83494819D02*
X74191905Y-82494819D01*
X74191905Y-82494819D02*
X74572857Y-82494819D01*
X74572857Y-82494819D02*
X74668095Y-82542438D01*
X74668095Y-82542438D02*
X74715714Y-82590057D01*
X74715714Y-82590057D02*
X74763333Y-82685295D01*
X74763333Y-82685295D02*
X74763333Y-82828152D01*
X74763333Y-82828152D02*
X74715714Y-82923390D01*
X74715714Y-82923390D02*
X74668095Y-82971009D01*
X74668095Y-82971009D02*
X74572857Y-83018628D01*
X74572857Y-83018628D02*
X74191905Y-83018628D01*
X75668095Y-82494819D02*
X75191905Y-82494819D01*
X75191905Y-82494819D02*
X75144286Y-82971009D01*
X75144286Y-82971009D02*
X75191905Y-82923390D01*
X75191905Y-82923390D02*
X75287143Y-82875771D01*
X75287143Y-82875771D02*
X75525238Y-82875771D01*
X75525238Y-82875771D02*
X75620476Y-82923390D01*
X75620476Y-82923390D02*
X75668095Y-82971009D01*
X75668095Y-82971009D02*
X75715714Y-83066247D01*
X75715714Y-83066247D02*
X75715714Y-83304342D01*
X75715714Y-83304342D02*
X75668095Y-83399580D01*
X75668095Y-83399580D02*
X75620476Y-83447200D01*
X75620476Y-83447200D02*
X75525238Y-83494819D01*
X75525238Y-83494819D02*
X75287143Y-83494819D01*
X75287143Y-83494819D02*
X75191905Y-83447200D01*
X75191905Y-83447200D02*
X75144286Y-83399580D01*
X132453142Y-98497580D02*
X132405523Y-98545200D01*
X132405523Y-98545200D02*
X132262666Y-98592819D01*
X132262666Y-98592819D02*
X132167428Y-98592819D01*
X132167428Y-98592819D02*
X132024571Y-98545200D01*
X132024571Y-98545200D02*
X131929333Y-98449961D01*
X131929333Y-98449961D02*
X131881714Y-98354723D01*
X131881714Y-98354723D02*
X131834095Y-98164247D01*
X131834095Y-98164247D02*
X131834095Y-98021390D01*
X131834095Y-98021390D02*
X131881714Y-97830914D01*
X131881714Y-97830914D02*
X131929333Y-97735676D01*
X131929333Y-97735676D02*
X132024571Y-97640438D01*
X132024571Y-97640438D02*
X132167428Y-97592819D01*
X132167428Y-97592819D02*
X132262666Y-97592819D01*
X132262666Y-97592819D02*
X132405523Y-97640438D01*
X132405523Y-97640438D02*
X132453142Y-97688057D01*
X133405523Y-98592819D02*
X132834095Y-98592819D01*
X133119809Y-98592819D02*
X133119809Y-97592819D01*
X133119809Y-97592819D02*
X133024571Y-97735676D01*
X133024571Y-97735676D02*
X132929333Y-97830914D01*
X132929333Y-97830914D02*
X132834095Y-97878533D01*
X133881714Y-98592819D02*
X134072190Y-98592819D01*
X134072190Y-98592819D02*
X134167428Y-98545200D01*
X134167428Y-98545200D02*
X134215047Y-98497580D01*
X134215047Y-98497580D02*
X134310285Y-98354723D01*
X134310285Y-98354723D02*
X134357904Y-98164247D01*
X134357904Y-98164247D02*
X134357904Y-97783295D01*
X134357904Y-97783295D02*
X134310285Y-97688057D01*
X134310285Y-97688057D02*
X134262666Y-97640438D01*
X134262666Y-97640438D02*
X134167428Y-97592819D01*
X134167428Y-97592819D02*
X133976952Y-97592819D01*
X133976952Y-97592819D02*
X133881714Y-97640438D01*
X133881714Y-97640438D02*
X133834095Y-97688057D01*
X133834095Y-97688057D02*
X133786476Y-97783295D01*
X133786476Y-97783295D02*
X133786476Y-98021390D01*
X133786476Y-98021390D02*
X133834095Y-98116628D01*
X133834095Y-98116628D02*
X133881714Y-98164247D01*
X133881714Y-98164247D02*
X133976952Y-98211866D01*
X133976952Y-98211866D02*
X134167428Y-98211866D01*
X134167428Y-98211866D02*
X134262666Y-98164247D01*
X134262666Y-98164247D02*
X134310285Y-98116628D01*
X134310285Y-98116628D02*
X134357904Y-98021390D01*
X111612819Y-85097857D02*
X111136628Y-85431190D01*
X111612819Y-85669285D02*
X110612819Y-85669285D01*
X110612819Y-85669285D02*
X110612819Y-85288333D01*
X110612819Y-85288333D02*
X110660438Y-85193095D01*
X110660438Y-85193095D02*
X110708057Y-85145476D01*
X110708057Y-85145476D02*
X110803295Y-85097857D01*
X110803295Y-85097857D02*
X110946152Y-85097857D01*
X110946152Y-85097857D02*
X111041390Y-85145476D01*
X111041390Y-85145476D02*
X111089009Y-85193095D01*
X111089009Y-85193095D02*
X111136628Y-85288333D01*
X111136628Y-85288333D02*
X111136628Y-85669285D01*
X110708057Y-84716904D02*
X110660438Y-84669285D01*
X110660438Y-84669285D02*
X110612819Y-84574047D01*
X110612819Y-84574047D02*
X110612819Y-84335952D01*
X110612819Y-84335952D02*
X110660438Y-84240714D01*
X110660438Y-84240714D02*
X110708057Y-84193095D01*
X110708057Y-84193095D02*
X110803295Y-84145476D01*
X110803295Y-84145476D02*
X110898533Y-84145476D01*
X110898533Y-84145476D02*
X111041390Y-84193095D01*
X111041390Y-84193095D02*
X111612819Y-84764523D01*
X111612819Y-84764523D02*
X111612819Y-84145476D01*
X110612819Y-83288333D02*
X110612819Y-83478809D01*
X110612819Y-83478809D02*
X110660438Y-83574047D01*
X110660438Y-83574047D02*
X110708057Y-83621666D01*
X110708057Y-83621666D02*
X110850914Y-83716904D01*
X110850914Y-83716904D02*
X111041390Y-83764523D01*
X111041390Y-83764523D02*
X111422342Y-83764523D01*
X111422342Y-83764523D02*
X111517580Y-83716904D01*
X111517580Y-83716904D02*
X111565200Y-83669285D01*
X111565200Y-83669285D02*
X111612819Y-83574047D01*
X111612819Y-83574047D02*
X111612819Y-83383571D01*
X111612819Y-83383571D02*
X111565200Y-83288333D01*
X111565200Y-83288333D02*
X111517580Y-83240714D01*
X111517580Y-83240714D02*
X111422342Y-83193095D01*
X111422342Y-83193095D02*
X111184247Y-83193095D01*
X111184247Y-83193095D02*
X111089009Y-83240714D01*
X111089009Y-83240714D02*
X111041390Y-83288333D01*
X111041390Y-83288333D02*
X110993771Y-83383571D01*
X110993771Y-83383571D02*
X110993771Y-83574047D01*
X110993771Y-83574047D02*
X111041390Y-83669285D01*
X111041390Y-83669285D02*
X111089009Y-83716904D01*
X111089009Y-83716904D02*
X111184247Y-83764523D01*
X118737142Y-100022819D02*
X118403809Y-99546628D01*
X118165714Y-100022819D02*
X118165714Y-99022819D01*
X118165714Y-99022819D02*
X118546666Y-99022819D01*
X118546666Y-99022819D02*
X118641904Y-99070438D01*
X118641904Y-99070438D02*
X118689523Y-99118057D01*
X118689523Y-99118057D02*
X118737142Y-99213295D01*
X118737142Y-99213295D02*
X118737142Y-99356152D01*
X118737142Y-99356152D02*
X118689523Y-99451390D01*
X118689523Y-99451390D02*
X118641904Y-99499009D01*
X118641904Y-99499009D02*
X118546666Y-99546628D01*
X118546666Y-99546628D02*
X118165714Y-99546628D01*
X119594285Y-99356152D02*
X119594285Y-100022819D01*
X119356190Y-98975200D02*
X119118095Y-99689485D01*
X119118095Y-99689485D02*
X119737142Y-99689485D01*
X120641904Y-100022819D02*
X120070476Y-100022819D01*
X120356190Y-100022819D02*
X120356190Y-99022819D01*
X120356190Y-99022819D02*
X120260952Y-99165676D01*
X120260952Y-99165676D02*
X120165714Y-99260914D01*
X120165714Y-99260914D02*
X120070476Y-99308533D01*
X45794819Y-71834166D02*
X45318628Y-72167499D01*
X45794819Y-72405594D02*
X44794819Y-72405594D01*
X44794819Y-72405594D02*
X44794819Y-72024642D01*
X44794819Y-72024642D02*
X44842438Y-71929404D01*
X44842438Y-71929404D02*
X44890057Y-71881785D01*
X44890057Y-71881785D02*
X44985295Y-71834166D01*
X44985295Y-71834166D02*
X45128152Y-71834166D01*
X45128152Y-71834166D02*
X45223390Y-71881785D01*
X45223390Y-71881785D02*
X45271009Y-71929404D01*
X45271009Y-71929404D02*
X45318628Y-72024642D01*
X45318628Y-72024642D02*
X45318628Y-72405594D01*
X45794819Y-70881785D02*
X45794819Y-71453213D01*
X45794819Y-71167499D02*
X44794819Y-71167499D01*
X44794819Y-71167499D02*
X44937676Y-71262737D01*
X44937676Y-71262737D02*
X45032914Y-71357975D01*
X45032914Y-71357975D02*
X45080533Y-71453213D01*
X92321142Y-96879580D02*
X92273523Y-96927200D01*
X92273523Y-96927200D02*
X92130666Y-96974819D01*
X92130666Y-96974819D02*
X92035428Y-96974819D01*
X92035428Y-96974819D02*
X91892571Y-96927200D01*
X91892571Y-96927200D02*
X91797333Y-96831961D01*
X91797333Y-96831961D02*
X91749714Y-96736723D01*
X91749714Y-96736723D02*
X91702095Y-96546247D01*
X91702095Y-96546247D02*
X91702095Y-96403390D01*
X91702095Y-96403390D02*
X91749714Y-96212914D01*
X91749714Y-96212914D02*
X91797333Y-96117676D01*
X91797333Y-96117676D02*
X91892571Y-96022438D01*
X91892571Y-96022438D02*
X92035428Y-95974819D01*
X92035428Y-95974819D02*
X92130666Y-95974819D01*
X92130666Y-95974819D02*
X92273523Y-96022438D01*
X92273523Y-96022438D02*
X92321142Y-96070057D01*
X92702095Y-96070057D02*
X92749714Y-96022438D01*
X92749714Y-96022438D02*
X92844952Y-95974819D01*
X92844952Y-95974819D02*
X93083047Y-95974819D01*
X93083047Y-95974819D02*
X93178285Y-96022438D01*
X93178285Y-96022438D02*
X93225904Y-96070057D01*
X93225904Y-96070057D02*
X93273523Y-96165295D01*
X93273523Y-96165295D02*
X93273523Y-96260533D01*
X93273523Y-96260533D02*
X93225904Y-96403390D01*
X93225904Y-96403390D02*
X92654476Y-96974819D01*
X92654476Y-96974819D02*
X93273523Y-96974819D01*
X94130666Y-96308152D02*
X94130666Y-96974819D01*
X93892571Y-95927200D02*
X93654476Y-96641485D01*
X93654476Y-96641485D02*
X94273523Y-96641485D01*
X91480819Y-108338857D02*
X91004628Y-108672190D01*
X91480819Y-108910285D02*
X90480819Y-108910285D01*
X90480819Y-108910285D02*
X90480819Y-108529333D01*
X90480819Y-108529333D02*
X90528438Y-108434095D01*
X90528438Y-108434095D02*
X90576057Y-108386476D01*
X90576057Y-108386476D02*
X90671295Y-108338857D01*
X90671295Y-108338857D02*
X90814152Y-108338857D01*
X90814152Y-108338857D02*
X90909390Y-108386476D01*
X90909390Y-108386476D02*
X90957009Y-108434095D01*
X90957009Y-108434095D02*
X91004628Y-108529333D01*
X91004628Y-108529333D02*
X91004628Y-108910285D01*
X90814152Y-107481714D02*
X91480819Y-107481714D01*
X90433200Y-107719809D02*
X91147485Y-107957904D01*
X91147485Y-107957904D02*
X91147485Y-107338857D01*
X90480819Y-106767428D02*
X90480819Y-106672190D01*
X90480819Y-106672190D02*
X90528438Y-106576952D01*
X90528438Y-106576952D02*
X90576057Y-106529333D01*
X90576057Y-106529333D02*
X90671295Y-106481714D01*
X90671295Y-106481714D02*
X90861771Y-106434095D01*
X90861771Y-106434095D02*
X91099866Y-106434095D01*
X91099866Y-106434095D02*
X91290342Y-106481714D01*
X91290342Y-106481714D02*
X91385580Y-106529333D01*
X91385580Y-106529333D02*
X91433200Y-106576952D01*
X91433200Y-106576952D02*
X91480819Y-106672190D01*
X91480819Y-106672190D02*
X91480819Y-106767428D01*
X91480819Y-106767428D02*
X91433200Y-106862666D01*
X91433200Y-106862666D02*
X91385580Y-106910285D01*
X91385580Y-106910285D02*
X91290342Y-106957904D01*
X91290342Y-106957904D02*
X91099866Y-107005523D01*
X91099866Y-107005523D02*
X90861771Y-107005523D01*
X90861771Y-107005523D02*
X90671295Y-106957904D01*
X90671295Y-106957904D02*
X90576057Y-106910285D01*
X90576057Y-106910285D02*
X90528438Y-106862666D01*
X90528438Y-106862666D02*
X90480819Y-106767428D01*
X101800819Y-90558857D02*
X101324628Y-90892190D01*
X101800819Y-91130285D02*
X100800819Y-91130285D01*
X100800819Y-91130285D02*
X100800819Y-90749333D01*
X100800819Y-90749333D02*
X100848438Y-90654095D01*
X100848438Y-90654095D02*
X100896057Y-90606476D01*
X100896057Y-90606476D02*
X100991295Y-90558857D01*
X100991295Y-90558857D02*
X101134152Y-90558857D01*
X101134152Y-90558857D02*
X101229390Y-90606476D01*
X101229390Y-90606476D02*
X101277009Y-90654095D01*
X101277009Y-90654095D02*
X101324628Y-90749333D01*
X101324628Y-90749333D02*
X101324628Y-91130285D01*
X101800819Y-89606476D02*
X101800819Y-90177904D01*
X101800819Y-89892190D02*
X100800819Y-89892190D01*
X100800819Y-89892190D02*
X100943676Y-89987428D01*
X100943676Y-89987428D02*
X101038914Y-90082666D01*
X101038914Y-90082666D02*
X101086533Y-90177904D01*
X100800819Y-88701714D02*
X100800819Y-89177904D01*
X100800819Y-89177904D02*
X101277009Y-89225523D01*
X101277009Y-89225523D02*
X101229390Y-89177904D01*
X101229390Y-89177904D02*
X101181771Y-89082666D01*
X101181771Y-89082666D02*
X101181771Y-88844571D01*
X101181771Y-88844571D02*
X101229390Y-88749333D01*
X101229390Y-88749333D02*
X101277009Y-88701714D01*
X101277009Y-88701714D02*
X101372247Y-88654095D01*
X101372247Y-88654095D02*
X101610342Y-88654095D01*
X101610342Y-88654095D02*
X101705580Y-88701714D01*
X101705580Y-88701714D02*
X101753200Y-88749333D01*
X101753200Y-88749333D02*
X101800819Y-88844571D01*
X101800819Y-88844571D02*
X101800819Y-89082666D01*
X101800819Y-89082666D02*
X101753200Y-89177904D01*
X101753200Y-89177904D02*
X101705580Y-89225523D01*
D11*
X116699047Y-80930270D02*
X116578095Y-80869794D01*
X116578095Y-80869794D02*
X116457142Y-80748842D01*
X116457142Y-80748842D02*
X116275714Y-80567413D01*
X116275714Y-80567413D02*
X116154761Y-80506937D01*
X116154761Y-80506937D02*
X116033809Y-80506937D01*
X116094285Y-80809318D02*
X115973333Y-80748842D01*
X115973333Y-80748842D02*
X115852380Y-80627889D01*
X115852380Y-80627889D02*
X115791904Y-80385984D01*
X115791904Y-80385984D02*
X115791904Y-79962651D01*
X115791904Y-79962651D02*
X115852380Y-79720746D01*
X115852380Y-79720746D02*
X115973333Y-79599794D01*
X115973333Y-79599794D02*
X116094285Y-79539318D01*
X116094285Y-79539318D02*
X116336190Y-79539318D01*
X116336190Y-79539318D02*
X116457142Y-79599794D01*
X116457142Y-79599794D02*
X116578095Y-79720746D01*
X116578095Y-79720746D02*
X116638571Y-79962651D01*
X116638571Y-79962651D02*
X116638571Y-80385984D01*
X116638571Y-80385984D02*
X116578095Y-80627889D01*
X116578095Y-80627889D02*
X116457142Y-80748842D01*
X116457142Y-80748842D02*
X116336190Y-80809318D01*
X116336190Y-80809318D02*
X116094285Y-80809318D01*
X117787618Y-79539318D02*
X117182856Y-79539318D01*
X117182856Y-79539318D02*
X117122380Y-80144080D01*
X117122380Y-80144080D02*
X117182856Y-80083603D01*
X117182856Y-80083603D02*
X117303809Y-80023127D01*
X117303809Y-80023127D02*
X117606190Y-80023127D01*
X117606190Y-80023127D02*
X117727142Y-80083603D01*
X117727142Y-80083603D02*
X117787618Y-80144080D01*
X117787618Y-80144080D02*
X117848095Y-80265032D01*
X117848095Y-80265032D02*
X117848095Y-80567413D01*
X117848095Y-80567413D02*
X117787618Y-80688365D01*
X117787618Y-80688365D02*
X117727142Y-80748842D01*
X117727142Y-80748842D02*
X117606190Y-80809318D01*
X117606190Y-80809318D02*
X117303809Y-80809318D01*
X117303809Y-80809318D02*
X117182856Y-80748842D01*
X117182856Y-80748842D02*
X117122380Y-80688365D01*
D10*
X54221142Y-95450819D02*
X53887809Y-94974628D01*
X53649714Y-95450819D02*
X53649714Y-94450819D01*
X53649714Y-94450819D02*
X54030666Y-94450819D01*
X54030666Y-94450819D02*
X54125904Y-94498438D01*
X54125904Y-94498438D02*
X54173523Y-94546057D01*
X54173523Y-94546057D02*
X54221142Y-94641295D01*
X54221142Y-94641295D02*
X54221142Y-94784152D01*
X54221142Y-94784152D02*
X54173523Y-94879390D01*
X54173523Y-94879390D02*
X54125904Y-94927009D01*
X54125904Y-94927009D02*
X54030666Y-94974628D01*
X54030666Y-94974628D02*
X53649714Y-94974628D01*
X54554476Y-94450819D02*
X55173523Y-94450819D01*
X55173523Y-94450819D02*
X54840190Y-94831771D01*
X54840190Y-94831771D02*
X54983047Y-94831771D01*
X54983047Y-94831771D02*
X55078285Y-94879390D01*
X55078285Y-94879390D02*
X55125904Y-94927009D01*
X55125904Y-94927009D02*
X55173523Y-95022247D01*
X55173523Y-95022247D02*
X55173523Y-95260342D01*
X55173523Y-95260342D02*
X55125904Y-95355580D01*
X55125904Y-95355580D02*
X55078285Y-95403200D01*
X55078285Y-95403200D02*
X54983047Y-95450819D01*
X54983047Y-95450819D02*
X54697333Y-95450819D01*
X54697333Y-95450819D02*
X54602095Y-95403200D01*
X54602095Y-95403200D02*
X54554476Y-95355580D01*
X56125904Y-95450819D02*
X55554476Y-95450819D01*
X55840190Y-95450819D02*
X55840190Y-94450819D01*
X55840190Y-94450819D02*
X55744952Y-94593676D01*
X55744952Y-94593676D02*
X55649714Y-94688914D01*
X55649714Y-94688914D02*
X55554476Y-94736533D01*
D11*
X135939047Y-103819270D02*
X135818095Y-103758794D01*
X135818095Y-103758794D02*
X135697142Y-103637842D01*
X135697142Y-103637842D02*
X135515714Y-103456413D01*
X135515714Y-103456413D02*
X135394761Y-103395937D01*
X135394761Y-103395937D02*
X135273809Y-103395937D01*
X135334285Y-103698318D02*
X135213333Y-103637842D01*
X135213333Y-103637842D02*
X135092380Y-103516889D01*
X135092380Y-103516889D02*
X135031904Y-103274984D01*
X135031904Y-103274984D02*
X135031904Y-102851651D01*
X135031904Y-102851651D02*
X135092380Y-102609746D01*
X135092380Y-102609746D02*
X135213333Y-102488794D01*
X135213333Y-102488794D02*
X135334285Y-102428318D01*
X135334285Y-102428318D02*
X135576190Y-102428318D01*
X135576190Y-102428318D02*
X135697142Y-102488794D01*
X135697142Y-102488794D02*
X135818095Y-102609746D01*
X135818095Y-102609746D02*
X135878571Y-102851651D01*
X135878571Y-102851651D02*
X135878571Y-103274984D01*
X135878571Y-103274984D02*
X135818095Y-103516889D01*
X135818095Y-103516889D02*
X135697142Y-103637842D01*
X135697142Y-103637842D02*
X135576190Y-103698318D01*
X135576190Y-103698318D02*
X135334285Y-103698318D01*
X136604285Y-102972603D02*
X136483333Y-102912127D01*
X136483333Y-102912127D02*
X136422856Y-102851651D01*
X136422856Y-102851651D02*
X136362380Y-102730699D01*
X136362380Y-102730699D02*
X136362380Y-102670222D01*
X136362380Y-102670222D02*
X136422856Y-102549270D01*
X136422856Y-102549270D02*
X136483333Y-102488794D01*
X136483333Y-102488794D02*
X136604285Y-102428318D01*
X136604285Y-102428318D02*
X136846190Y-102428318D01*
X136846190Y-102428318D02*
X136967142Y-102488794D01*
X136967142Y-102488794D02*
X137027618Y-102549270D01*
X137027618Y-102549270D02*
X137088095Y-102670222D01*
X137088095Y-102670222D02*
X137088095Y-102730699D01*
X137088095Y-102730699D02*
X137027618Y-102851651D01*
X137027618Y-102851651D02*
X136967142Y-102912127D01*
X136967142Y-102912127D02*
X136846190Y-102972603D01*
X136846190Y-102972603D02*
X136604285Y-102972603D01*
X136604285Y-102972603D02*
X136483333Y-103033080D01*
X136483333Y-103033080D02*
X136422856Y-103093556D01*
X136422856Y-103093556D02*
X136362380Y-103214508D01*
X136362380Y-103214508D02*
X136362380Y-103456413D01*
X136362380Y-103456413D02*
X136422856Y-103577365D01*
X136422856Y-103577365D02*
X136483333Y-103637842D01*
X136483333Y-103637842D02*
X136604285Y-103698318D01*
X136604285Y-103698318D02*
X136846190Y-103698318D01*
X136846190Y-103698318D02*
X136967142Y-103637842D01*
X136967142Y-103637842D02*
X137027618Y-103577365D01*
X137027618Y-103577365D02*
X137088095Y-103456413D01*
X137088095Y-103456413D02*
X137088095Y-103214508D01*
X137088095Y-103214508D02*
X137027618Y-103093556D01*
X137027618Y-103093556D02*
X136967142Y-103033080D01*
X136967142Y-103033080D02*
X136846190Y-102972603D01*
D10*
X104334580Y-74535357D02*
X104382200Y-74582976D01*
X104382200Y-74582976D02*
X104429819Y-74725833D01*
X104429819Y-74725833D02*
X104429819Y-74821071D01*
X104429819Y-74821071D02*
X104382200Y-74963928D01*
X104382200Y-74963928D02*
X104286961Y-75059166D01*
X104286961Y-75059166D02*
X104191723Y-75106785D01*
X104191723Y-75106785D02*
X104001247Y-75154404D01*
X104001247Y-75154404D02*
X103858390Y-75154404D01*
X103858390Y-75154404D02*
X103667914Y-75106785D01*
X103667914Y-75106785D02*
X103572676Y-75059166D01*
X103572676Y-75059166D02*
X103477438Y-74963928D01*
X103477438Y-74963928D02*
X103429819Y-74821071D01*
X103429819Y-74821071D02*
X103429819Y-74725833D01*
X103429819Y-74725833D02*
X103477438Y-74582976D01*
X103477438Y-74582976D02*
X103525057Y-74535357D01*
X104429819Y-73582976D02*
X104429819Y-74154404D01*
X104429819Y-73868690D02*
X103429819Y-73868690D01*
X103429819Y-73868690D02*
X103572676Y-73963928D01*
X103572676Y-73963928D02*
X103667914Y-74059166D01*
X103667914Y-74059166D02*
X103715533Y-74154404D01*
X103429819Y-73249642D02*
X103429819Y-72630595D01*
X103429819Y-72630595D02*
X103810771Y-72963928D01*
X103810771Y-72963928D02*
X103810771Y-72821071D01*
X103810771Y-72821071D02*
X103858390Y-72725833D01*
X103858390Y-72725833D02*
X103906009Y-72678214D01*
X103906009Y-72678214D02*
X104001247Y-72630595D01*
X104001247Y-72630595D02*
X104239342Y-72630595D01*
X104239342Y-72630595D02*
X104334580Y-72678214D01*
X104334580Y-72678214D02*
X104382200Y-72725833D01*
X104382200Y-72725833D02*
X104429819Y-72821071D01*
X104429819Y-72821071D02*
X104429819Y-73106785D01*
X104429819Y-73106785D02*
X104382200Y-73202023D01*
X104382200Y-73202023D02*
X104334580Y-73249642D01*
X70684580Y-81516666D02*
X70732200Y-81564285D01*
X70732200Y-81564285D02*
X70779819Y-81707142D01*
X70779819Y-81707142D02*
X70779819Y-81802380D01*
X70779819Y-81802380D02*
X70732200Y-81945237D01*
X70732200Y-81945237D02*
X70636961Y-82040475D01*
X70636961Y-82040475D02*
X70541723Y-82088094D01*
X70541723Y-82088094D02*
X70351247Y-82135713D01*
X70351247Y-82135713D02*
X70208390Y-82135713D01*
X70208390Y-82135713D02*
X70017914Y-82088094D01*
X70017914Y-82088094D02*
X69922676Y-82040475D01*
X69922676Y-82040475D02*
X69827438Y-81945237D01*
X69827438Y-81945237D02*
X69779819Y-81802380D01*
X69779819Y-81802380D02*
X69779819Y-81707142D01*
X69779819Y-81707142D02*
X69827438Y-81564285D01*
X69827438Y-81564285D02*
X69875057Y-81516666D01*
X69779819Y-81183332D02*
X69779819Y-80564285D01*
X69779819Y-80564285D02*
X70160771Y-80897618D01*
X70160771Y-80897618D02*
X70160771Y-80754761D01*
X70160771Y-80754761D02*
X70208390Y-80659523D01*
X70208390Y-80659523D02*
X70256009Y-80611904D01*
X70256009Y-80611904D02*
X70351247Y-80564285D01*
X70351247Y-80564285D02*
X70589342Y-80564285D01*
X70589342Y-80564285D02*
X70684580Y-80611904D01*
X70684580Y-80611904D02*
X70732200Y-80659523D01*
X70732200Y-80659523D02*
X70779819Y-80754761D01*
X70779819Y-80754761D02*
X70779819Y-81040475D01*
X70779819Y-81040475D02*
X70732200Y-81135713D01*
X70732200Y-81135713D02*
X70684580Y-81183332D01*
X110609142Y-94942819D02*
X110275809Y-94466628D01*
X110037714Y-94942819D02*
X110037714Y-93942819D01*
X110037714Y-93942819D02*
X110418666Y-93942819D01*
X110418666Y-93942819D02*
X110513904Y-93990438D01*
X110513904Y-93990438D02*
X110561523Y-94038057D01*
X110561523Y-94038057D02*
X110609142Y-94133295D01*
X110609142Y-94133295D02*
X110609142Y-94276152D01*
X110609142Y-94276152D02*
X110561523Y-94371390D01*
X110561523Y-94371390D02*
X110513904Y-94419009D01*
X110513904Y-94419009D02*
X110418666Y-94466628D01*
X110418666Y-94466628D02*
X110037714Y-94466628D01*
X110990095Y-94038057D02*
X111037714Y-93990438D01*
X111037714Y-93990438D02*
X111132952Y-93942819D01*
X111132952Y-93942819D02*
X111371047Y-93942819D01*
X111371047Y-93942819D02*
X111466285Y-93990438D01*
X111466285Y-93990438D02*
X111513904Y-94038057D01*
X111513904Y-94038057D02*
X111561523Y-94133295D01*
X111561523Y-94133295D02*
X111561523Y-94228533D01*
X111561523Y-94228533D02*
X111513904Y-94371390D01*
X111513904Y-94371390D02*
X110942476Y-94942819D01*
X110942476Y-94942819D02*
X111561523Y-94942819D01*
X112180571Y-93942819D02*
X112275809Y-93942819D01*
X112275809Y-93942819D02*
X112371047Y-93990438D01*
X112371047Y-93990438D02*
X112418666Y-94038057D01*
X112418666Y-94038057D02*
X112466285Y-94133295D01*
X112466285Y-94133295D02*
X112513904Y-94323771D01*
X112513904Y-94323771D02*
X112513904Y-94561866D01*
X112513904Y-94561866D02*
X112466285Y-94752342D01*
X112466285Y-94752342D02*
X112418666Y-94847580D01*
X112418666Y-94847580D02*
X112371047Y-94895200D01*
X112371047Y-94895200D02*
X112275809Y-94942819D01*
X112275809Y-94942819D02*
X112180571Y-94942819D01*
X112180571Y-94942819D02*
X112085333Y-94895200D01*
X112085333Y-94895200D02*
X112037714Y-94847580D01*
X112037714Y-94847580D02*
X111990095Y-94752342D01*
X111990095Y-94752342D02*
X111942476Y-94561866D01*
X111942476Y-94561866D02*
X111942476Y-94323771D01*
X111942476Y-94323771D02*
X111990095Y-94133295D01*
X111990095Y-94133295D02*
X112037714Y-94038057D01*
X112037714Y-94038057D02*
X112085333Y-93990438D01*
X112085333Y-93990438D02*
X112180571Y-93942819D01*
D11*
X116719047Y-90780270D02*
X116598095Y-90719794D01*
X116598095Y-90719794D02*
X116477142Y-90598842D01*
X116477142Y-90598842D02*
X116295714Y-90417413D01*
X116295714Y-90417413D02*
X116174761Y-90356937D01*
X116174761Y-90356937D02*
X116053809Y-90356937D01*
X116114285Y-90659318D02*
X115993333Y-90598842D01*
X115993333Y-90598842D02*
X115872380Y-90477889D01*
X115872380Y-90477889D02*
X115811904Y-90235984D01*
X115811904Y-90235984D02*
X115811904Y-89812651D01*
X115811904Y-89812651D02*
X115872380Y-89570746D01*
X115872380Y-89570746D02*
X115993333Y-89449794D01*
X115993333Y-89449794D02*
X116114285Y-89389318D01*
X116114285Y-89389318D02*
X116356190Y-89389318D01*
X116356190Y-89389318D02*
X116477142Y-89449794D01*
X116477142Y-89449794D02*
X116598095Y-89570746D01*
X116598095Y-89570746D02*
X116658571Y-89812651D01*
X116658571Y-89812651D02*
X116658571Y-90235984D01*
X116658571Y-90235984D02*
X116598095Y-90477889D01*
X116598095Y-90477889D02*
X116477142Y-90598842D01*
X116477142Y-90598842D02*
X116356190Y-90659318D01*
X116356190Y-90659318D02*
X116114285Y-90659318D01*
X117081904Y-89389318D02*
X117928571Y-89389318D01*
X117928571Y-89389318D02*
X117384285Y-90659318D01*
D10*
X85289580Y-84621666D02*
X85337200Y-84669285D01*
X85337200Y-84669285D02*
X85384819Y-84812142D01*
X85384819Y-84812142D02*
X85384819Y-84907380D01*
X85384819Y-84907380D02*
X85337200Y-85050237D01*
X85337200Y-85050237D02*
X85241961Y-85145475D01*
X85241961Y-85145475D02*
X85146723Y-85193094D01*
X85146723Y-85193094D02*
X84956247Y-85240713D01*
X84956247Y-85240713D02*
X84813390Y-85240713D01*
X84813390Y-85240713D02*
X84622914Y-85193094D01*
X84622914Y-85193094D02*
X84527676Y-85145475D01*
X84527676Y-85145475D02*
X84432438Y-85050237D01*
X84432438Y-85050237D02*
X84384819Y-84907380D01*
X84384819Y-84907380D02*
X84384819Y-84812142D01*
X84384819Y-84812142D02*
X84432438Y-84669285D01*
X84432438Y-84669285D02*
X84480057Y-84621666D01*
X84384819Y-83764523D02*
X84384819Y-83954999D01*
X84384819Y-83954999D02*
X84432438Y-84050237D01*
X84432438Y-84050237D02*
X84480057Y-84097856D01*
X84480057Y-84097856D02*
X84622914Y-84193094D01*
X84622914Y-84193094D02*
X84813390Y-84240713D01*
X84813390Y-84240713D02*
X85194342Y-84240713D01*
X85194342Y-84240713D02*
X85289580Y-84193094D01*
X85289580Y-84193094D02*
X85337200Y-84145475D01*
X85337200Y-84145475D02*
X85384819Y-84050237D01*
X85384819Y-84050237D02*
X85384819Y-83859761D01*
X85384819Y-83859761D02*
X85337200Y-83764523D01*
X85337200Y-83764523D02*
X85289580Y-83716904D01*
X85289580Y-83716904D02*
X85194342Y-83669285D01*
X85194342Y-83669285D02*
X84956247Y-83669285D01*
X84956247Y-83669285D02*
X84861009Y-83716904D01*
X84861009Y-83716904D02*
X84813390Y-83764523D01*
X84813390Y-83764523D02*
X84765771Y-83859761D01*
X84765771Y-83859761D02*
X84765771Y-84050237D01*
X84765771Y-84050237D02*
X84813390Y-84145475D01*
X84813390Y-84145475D02*
X84861009Y-84193094D01*
X84861009Y-84193094D02*
X84956247Y-84240713D01*
D11*
X114814047Y-69910270D02*
X114693095Y-69849794D01*
X114693095Y-69849794D02*
X114572142Y-69728842D01*
X114572142Y-69728842D02*
X114390714Y-69547413D01*
X114390714Y-69547413D02*
X114269761Y-69486937D01*
X114269761Y-69486937D02*
X114148809Y-69486937D01*
X114209285Y-69789318D02*
X114088333Y-69728842D01*
X114088333Y-69728842D02*
X113967380Y-69607889D01*
X113967380Y-69607889D02*
X113906904Y-69365984D01*
X113906904Y-69365984D02*
X113906904Y-68942651D01*
X113906904Y-68942651D02*
X113967380Y-68700746D01*
X113967380Y-68700746D02*
X114088333Y-68579794D01*
X114088333Y-68579794D02*
X114209285Y-68519318D01*
X114209285Y-68519318D02*
X114451190Y-68519318D01*
X114451190Y-68519318D02*
X114572142Y-68579794D01*
X114572142Y-68579794D02*
X114693095Y-68700746D01*
X114693095Y-68700746D02*
X114753571Y-68942651D01*
X114753571Y-68942651D02*
X114753571Y-69365984D01*
X114753571Y-69365984D02*
X114693095Y-69607889D01*
X114693095Y-69607889D02*
X114572142Y-69728842D01*
X114572142Y-69728842D02*
X114451190Y-69789318D01*
X114451190Y-69789318D02*
X114209285Y-69789318D01*
X115842142Y-68942651D02*
X115842142Y-69789318D01*
X115539761Y-68458842D02*
X115237380Y-69365984D01*
X115237380Y-69365984D02*
X116023571Y-69365984D01*
D10*
X110101142Y-96466819D02*
X109767809Y-95990628D01*
X109529714Y-96466819D02*
X109529714Y-95466819D01*
X109529714Y-95466819D02*
X109910666Y-95466819D01*
X109910666Y-95466819D02*
X110005904Y-95514438D01*
X110005904Y-95514438D02*
X110053523Y-95562057D01*
X110053523Y-95562057D02*
X110101142Y-95657295D01*
X110101142Y-95657295D02*
X110101142Y-95800152D01*
X110101142Y-95800152D02*
X110053523Y-95895390D01*
X110053523Y-95895390D02*
X110005904Y-95943009D01*
X110005904Y-95943009D02*
X109910666Y-95990628D01*
X109910666Y-95990628D02*
X109529714Y-95990628D01*
X110482095Y-95562057D02*
X110529714Y-95514438D01*
X110529714Y-95514438D02*
X110624952Y-95466819D01*
X110624952Y-95466819D02*
X110863047Y-95466819D01*
X110863047Y-95466819D02*
X110958285Y-95514438D01*
X110958285Y-95514438D02*
X111005904Y-95562057D01*
X111005904Y-95562057D02*
X111053523Y-95657295D01*
X111053523Y-95657295D02*
X111053523Y-95752533D01*
X111053523Y-95752533D02*
X111005904Y-95895390D01*
X111005904Y-95895390D02*
X110434476Y-96466819D01*
X110434476Y-96466819D02*
X111053523Y-96466819D01*
X111386857Y-95466819D02*
X112005904Y-95466819D01*
X112005904Y-95466819D02*
X111672571Y-95847771D01*
X111672571Y-95847771D02*
X111815428Y-95847771D01*
X111815428Y-95847771D02*
X111910666Y-95895390D01*
X111910666Y-95895390D02*
X111958285Y-95943009D01*
X111958285Y-95943009D02*
X112005904Y-96038247D01*
X112005904Y-96038247D02*
X112005904Y-96276342D01*
X112005904Y-96276342D02*
X111958285Y-96371580D01*
X111958285Y-96371580D02*
X111910666Y-96419200D01*
X111910666Y-96419200D02*
X111815428Y-96466819D01*
X111815428Y-96466819D02*
X111529714Y-96466819D01*
X111529714Y-96466819D02*
X111434476Y-96419200D01*
X111434476Y-96419200D02*
X111386857Y-96371580D01*
X81804580Y-90971666D02*
X81852200Y-91019285D01*
X81852200Y-91019285D02*
X81899819Y-91162142D01*
X81899819Y-91162142D02*
X81899819Y-91257380D01*
X81899819Y-91257380D02*
X81852200Y-91400237D01*
X81852200Y-91400237D02*
X81756961Y-91495475D01*
X81756961Y-91495475D02*
X81661723Y-91543094D01*
X81661723Y-91543094D02*
X81471247Y-91590713D01*
X81471247Y-91590713D02*
X81328390Y-91590713D01*
X81328390Y-91590713D02*
X81137914Y-91543094D01*
X81137914Y-91543094D02*
X81042676Y-91495475D01*
X81042676Y-91495475D02*
X80947438Y-91400237D01*
X80947438Y-91400237D02*
X80899819Y-91257380D01*
X80899819Y-91257380D02*
X80899819Y-91162142D01*
X80899819Y-91162142D02*
X80947438Y-91019285D01*
X80947438Y-91019285D02*
X80995057Y-90971666D01*
X80899819Y-90066904D02*
X80899819Y-90543094D01*
X80899819Y-90543094D02*
X81376009Y-90590713D01*
X81376009Y-90590713D02*
X81328390Y-90543094D01*
X81328390Y-90543094D02*
X81280771Y-90447856D01*
X81280771Y-90447856D02*
X81280771Y-90209761D01*
X81280771Y-90209761D02*
X81328390Y-90114523D01*
X81328390Y-90114523D02*
X81376009Y-90066904D01*
X81376009Y-90066904D02*
X81471247Y-90019285D01*
X81471247Y-90019285D02*
X81709342Y-90019285D01*
X81709342Y-90019285D02*
X81804580Y-90066904D01*
X81804580Y-90066904D02*
X81852200Y-90114523D01*
X81852200Y-90114523D02*
X81899819Y-90209761D01*
X81899819Y-90209761D02*
X81899819Y-90447856D01*
X81899819Y-90447856D02*
X81852200Y-90543094D01*
X81852200Y-90543094D02*
X81804580Y-90590713D01*
D11*
X30077667Y-69590818D02*
X30077667Y-70497961D01*
X30077667Y-70497961D02*
X30017190Y-70679389D01*
X30017190Y-70679389D02*
X29896238Y-70800342D01*
X29896238Y-70800342D02*
X29714809Y-70860818D01*
X29714809Y-70860818D02*
X29593857Y-70860818D01*
X31347667Y-70860818D02*
X30621952Y-70860818D01*
X30984809Y-70860818D02*
X30984809Y-69590818D01*
X30984809Y-69590818D02*
X30863857Y-69772246D01*
X30863857Y-69772246D02*
X30742905Y-69893199D01*
X30742905Y-69893199D02*
X30621952Y-69953675D01*
D10*
X116786819Y-102750857D02*
X116310628Y-103084190D01*
X116786819Y-103322285D02*
X115786819Y-103322285D01*
X115786819Y-103322285D02*
X115786819Y-102941333D01*
X115786819Y-102941333D02*
X115834438Y-102846095D01*
X115834438Y-102846095D02*
X115882057Y-102798476D01*
X115882057Y-102798476D02*
X115977295Y-102750857D01*
X115977295Y-102750857D02*
X116120152Y-102750857D01*
X116120152Y-102750857D02*
X116215390Y-102798476D01*
X116215390Y-102798476D02*
X116263009Y-102846095D01*
X116263009Y-102846095D02*
X116310628Y-102941333D01*
X116310628Y-102941333D02*
X116310628Y-103322285D01*
X116120152Y-101893714D02*
X116786819Y-101893714D01*
X115739200Y-102131809D02*
X116453485Y-102369904D01*
X116453485Y-102369904D02*
X116453485Y-101750857D01*
X115882057Y-101417523D02*
X115834438Y-101369904D01*
X115834438Y-101369904D02*
X115786819Y-101274666D01*
X115786819Y-101274666D02*
X115786819Y-101036571D01*
X115786819Y-101036571D02*
X115834438Y-100941333D01*
X115834438Y-100941333D02*
X115882057Y-100893714D01*
X115882057Y-100893714D02*
X115977295Y-100846095D01*
X115977295Y-100846095D02*
X116072533Y-100846095D01*
X116072533Y-100846095D02*
X116215390Y-100893714D01*
X116215390Y-100893714D02*
X116786819Y-101465142D01*
X116786819Y-101465142D02*
X116786819Y-100846095D01*
X105633819Y-85455857D02*
X105157628Y-85789190D01*
X105633819Y-86027285D02*
X104633819Y-86027285D01*
X104633819Y-86027285D02*
X104633819Y-85646333D01*
X104633819Y-85646333D02*
X104681438Y-85551095D01*
X104681438Y-85551095D02*
X104729057Y-85503476D01*
X104729057Y-85503476D02*
X104824295Y-85455857D01*
X104824295Y-85455857D02*
X104967152Y-85455857D01*
X104967152Y-85455857D02*
X105062390Y-85503476D01*
X105062390Y-85503476D02*
X105110009Y-85551095D01*
X105110009Y-85551095D02*
X105157628Y-85646333D01*
X105157628Y-85646333D02*
X105157628Y-86027285D01*
X105633819Y-84503476D02*
X105633819Y-85074904D01*
X105633819Y-84789190D02*
X104633819Y-84789190D01*
X104633819Y-84789190D02*
X104776676Y-84884428D01*
X104776676Y-84884428D02*
X104871914Y-84979666D01*
X104871914Y-84979666D02*
X104919533Y-85074904D01*
X105062390Y-83932047D02*
X105014771Y-84027285D01*
X105014771Y-84027285D02*
X104967152Y-84074904D01*
X104967152Y-84074904D02*
X104871914Y-84122523D01*
X104871914Y-84122523D02*
X104824295Y-84122523D01*
X104824295Y-84122523D02*
X104729057Y-84074904D01*
X104729057Y-84074904D02*
X104681438Y-84027285D01*
X104681438Y-84027285D02*
X104633819Y-83932047D01*
X104633819Y-83932047D02*
X104633819Y-83741571D01*
X104633819Y-83741571D02*
X104681438Y-83646333D01*
X104681438Y-83646333D02*
X104729057Y-83598714D01*
X104729057Y-83598714D02*
X104824295Y-83551095D01*
X104824295Y-83551095D02*
X104871914Y-83551095D01*
X104871914Y-83551095D02*
X104967152Y-83598714D01*
X104967152Y-83598714D02*
X105014771Y-83646333D01*
X105014771Y-83646333D02*
X105062390Y-83741571D01*
X105062390Y-83741571D02*
X105062390Y-83932047D01*
X105062390Y-83932047D02*
X105110009Y-84027285D01*
X105110009Y-84027285D02*
X105157628Y-84074904D01*
X105157628Y-84074904D02*
X105252866Y-84122523D01*
X105252866Y-84122523D02*
X105443342Y-84122523D01*
X105443342Y-84122523D02*
X105538580Y-84074904D01*
X105538580Y-84074904D02*
X105586200Y-84027285D01*
X105586200Y-84027285D02*
X105633819Y-83932047D01*
X105633819Y-83932047D02*
X105633819Y-83741571D01*
X105633819Y-83741571D02*
X105586200Y-83646333D01*
X105586200Y-83646333D02*
X105538580Y-83598714D01*
X105538580Y-83598714D02*
X105443342Y-83551095D01*
X105443342Y-83551095D02*
X105252866Y-83551095D01*
X105252866Y-83551095D02*
X105157628Y-83598714D01*
X105157628Y-83598714D02*
X105110009Y-83646333D01*
X105110009Y-83646333D02*
X105062390Y-83741571D01*
D11*
X49055047Y-70756270D02*
X48934095Y-70695794D01*
X48934095Y-70695794D02*
X48813142Y-70574842D01*
X48813142Y-70574842D02*
X48631714Y-70393413D01*
X48631714Y-70393413D02*
X48510761Y-70332937D01*
X48510761Y-70332937D02*
X48389809Y-70332937D01*
X48450285Y-70635318D02*
X48329333Y-70574842D01*
X48329333Y-70574842D02*
X48208380Y-70453889D01*
X48208380Y-70453889D02*
X48147904Y-70211984D01*
X48147904Y-70211984D02*
X48147904Y-69788651D01*
X48147904Y-69788651D02*
X48208380Y-69546746D01*
X48208380Y-69546746D02*
X48329333Y-69425794D01*
X48329333Y-69425794D02*
X48450285Y-69365318D01*
X48450285Y-69365318D02*
X48692190Y-69365318D01*
X48692190Y-69365318D02*
X48813142Y-69425794D01*
X48813142Y-69425794D02*
X48934095Y-69546746D01*
X48934095Y-69546746D02*
X48994571Y-69788651D01*
X48994571Y-69788651D02*
X48994571Y-70211984D01*
X48994571Y-70211984D02*
X48934095Y-70453889D01*
X48934095Y-70453889D02*
X48813142Y-70574842D01*
X48813142Y-70574842D02*
X48692190Y-70635318D01*
X48692190Y-70635318D02*
X48450285Y-70635318D01*
X50204095Y-70635318D02*
X49478380Y-70635318D01*
X49841237Y-70635318D02*
X49841237Y-69365318D01*
X49841237Y-69365318D02*
X49720285Y-69546746D01*
X49720285Y-69546746D02*
X49599333Y-69667699D01*
X49599333Y-69667699D02*
X49478380Y-69728175D01*
D10*
X74763333Y-93019819D02*
X74430000Y-92543628D01*
X74191905Y-93019819D02*
X74191905Y-92019819D01*
X74191905Y-92019819D02*
X74572857Y-92019819D01*
X74572857Y-92019819D02*
X74668095Y-92067438D01*
X74668095Y-92067438D02*
X74715714Y-92115057D01*
X74715714Y-92115057D02*
X74763333Y-92210295D01*
X74763333Y-92210295D02*
X74763333Y-92353152D01*
X74763333Y-92353152D02*
X74715714Y-92448390D01*
X74715714Y-92448390D02*
X74668095Y-92496009D01*
X74668095Y-92496009D02*
X74572857Y-92543628D01*
X74572857Y-92543628D02*
X74191905Y-92543628D01*
X75239524Y-93019819D02*
X75430000Y-93019819D01*
X75430000Y-93019819D02*
X75525238Y-92972200D01*
X75525238Y-92972200D02*
X75572857Y-92924580D01*
X75572857Y-92924580D02*
X75668095Y-92781723D01*
X75668095Y-92781723D02*
X75715714Y-92591247D01*
X75715714Y-92591247D02*
X75715714Y-92210295D01*
X75715714Y-92210295D02*
X75668095Y-92115057D01*
X75668095Y-92115057D02*
X75620476Y-92067438D01*
X75620476Y-92067438D02*
X75525238Y-92019819D01*
X75525238Y-92019819D02*
X75334762Y-92019819D01*
X75334762Y-92019819D02*
X75239524Y-92067438D01*
X75239524Y-92067438D02*
X75191905Y-92115057D01*
X75191905Y-92115057D02*
X75144286Y-92210295D01*
X75144286Y-92210295D02*
X75144286Y-92448390D01*
X75144286Y-92448390D02*
X75191905Y-92543628D01*
X75191905Y-92543628D02*
X75239524Y-92591247D01*
X75239524Y-92591247D02*
X75334762Y-92638866D01*
X75334762Y-92638866D02*
X75525238Y-92638866D01*
X75525238Y-92638866D02*
X75620476Y-92591247D01*
X75620476Y-92591247D02*
X75668095Y-92543628D01*
X75668095Y-92543628D02*
X75715714Y-92448390D01*
X92662142Y-78354819D02*
X92328809Y-77878628D01*
X92090714Y-78354819D02*
X92090714Y-77354819D01*
X92090714Y-77354819D02*
X92471666Y-77354819D01*
X92471666Y-77354819D02*
X92566904Y-77402438D01*
X92566904Y-77402438D02*
X92614523Y-77450057D01*
X92614523Y-77450057D02*
X92662142Y-77545295D01*
X92662142Y-77545295D02*
X92662142Y-77688152D01*
X92662142Y-77688152D02*
X92614523Y-77783390D01*
X92614523Y-77783390D02*
X92566904Y-77831009D01*
X92566904Y-77831009D02*
X92471666Y-77878628D01*
X92471666Y-77878628D02*
X92090714Y-77878628D01*
X93614523Y-78354819D02*
X93043095Y-78354819D01*
X93328809Y-78354819D02*
X93328809Y-77354819D01*
X93328809Y-77354819D02*
X93233571Y-77497676D01*
X93233571Y-77497676D02*
X93138333Y-77592914D01*
X93138333Y-77592914D02*
X93043095Y-77640533D01*
X94566904Y-78354819D02*
X93995476Y-78354819D01*
X94281190Y-78354819D02*
X94281190Y-77354819D01*
X94281190Y-77354819D02*
X94185952Y-77497676D01*
X94185952Y-77497676D02*
X94090714Y-77592914D01*
X94090714Y-77592914D02*
X93995476Y-77640533D01*
D11*
X116176618Y-121927318D02*
X116176618Y-120657318D01*
X116176618Y-120657318D02*
X116478999Y-120657318D01*
X116478999Y-120657318D02*
X116660428Y-120717794D01*
X116660428Y-120717794D02*
X116781380Y-120838746D01*
X116781380Y-120838746D02*
X116841857Y-120959699D01*
X116841857Y-120959699D02*
X116902333Y-121201603D01*
X116902333Y-121201603D02*
X116902333Y-121383032D01*
X116902333Y-121383032D02*
X116841857Y-121624937D01*
X116841857Y-121624937D02*
X116781380Y-121745889D01*
X116781380Y-121745889D02*
X116660428Y-121866842D01*
X116660428Y-121866842D02*
X116478999Y-121927318D01*
X116478999Y-121927318D02*
X116176618Y-121927318D01*
X117628047Y-121201603D02*
X117507095Y-121141127D01*
X117507095Y-121141127D02*
X117446618Y-121080651D01*
X117446618Y-121080651D02*
X117386142Y-120959699D01*
X117386142Y-120959699D02*
X117386142Y-120899222D01*
X117386142Y-120899222D02*
X117446618Y-120778270D01*
X117446618Y-120778270D02*
X117507095Y-120717794D01*
X117507095Y-120717794D02*
X117628047Y-120657318D01*
X117628047Y-120657318D02*
X117869952Y-120657318D01*
X117869952Y-120657318D02*
X117990904Y-120717794D01*
X117990904Y-120717794D02*
X118051380Y-120778270D01*
X118051380Y-120778270D02*
X118111857Y-120899222D01*
X118111857Y-120899222D02*
X118111857Y-120959699D01*
X118111857Y-120959699D02*
X118051380Y-121080651D01*
X118051380Y-121080651D02*
X117990904Y-121141127D01*
X117990904Y-121141127D02*
X117869952Y-121201603D01*
X117869952Y-121201603D02*
X117628047Y-121201603D01*
X117628047Y-121201603D02*
X117507095Y-121262080D01*
X117507095Y-121262080D02*
X117446618Y-121322556D01*
X117446618Y-121322556D02*
X117386142Y-121443508D01*
X117386142Y-121443508D02*
X117386142Y-121685413D01*
X117386142Y-121685413D02*
X117446618Y-121806365D01*
X117446618Y-121806365D02*
X117507095Y-121866842D01*
X117507095Y-121866842D02*
X117628047Y-121927318D01*
X117628047Y-121927318D02*
X117869952Y-121927318D01*
X117869952Y-121927318D02*
X117990904Y-121866842D01*
X117990904Y-121866842D02*
X118051380Y-121806365D01*
X118051380Y-121806365D02*
X118111857Y-121685413D01*
X118111857Y-121685413D02*
X118111857Y-121443508D01*
X118111857Y-121443508D02*
X118051380Y-121322556D01*
X118051380Y-121322556D02*
X117990904Y-121262080D01*
X117990904Y-121262080D02*
X117869952Y-121201603D01*
X68459047Y-61655270D02*
X68338095Y-61594794D01*
X68338095Y-61594794D02*
X68217142Y-61473842D01*
X68217142Y-61473842D02*
X68035714Y-61292413D01*
X68035714Y-61292413D02*
X67914761Y-61231937D01*
X67914761Y-61231937D02*
X67793809Y-61231937D01*
X67854285Y-61534318D02*
X67733333Y-61473842D01*
X67733333Y-61473842D02*
X67612380Y-61352889D01*
X67612380Y-61352889D02*
X67551904Y-61110984D01*
X67551904Y-61110984D02*
X67551904Y-60687651D01*
X67551904Y-60687651D02*
X67612380Y-60445746D01*
X67612380Y-60445746D02*
X67733333Y-60324794D01*
X67733333Y-60324794D02*
X67854285Y-60264318D01*
X67854285Y-60264318D02*
X68096190Y-60264318D01*
X68096190Y-60264318D02*
X68217142Y-60324794D01*
X68217142Y-60324794D02*
X68338095Y-60445746D01*
X68338095Y-60445746D02*
X68398571Y-60687651D01*
X68398571Y-60687651D02*
X68398571Y-61110984D01*
X68398571Y-61110984D02*
X68338095Y-61352889D01*
X68338095Y-61352889D02*
X68217142Y-61473842D01*
X68217142Y-61473842D02*
X68096190Y-61534318D01*
X68096190Y-61534318D02*
X67854285Y-61534318D01*
X68882380Y-60385270D02*
X68942856Y-60324794D01*
X68942856Y-60324794D02*
X69063809Y-60264318D01*
X69063809Y-60264318D02*
X69366190Y-60264318D01*
X69366190Y-60264318D02*
X69487142Y-60324794D01*
X69487142Y-60324794D02*
X69547618Y-60385270D01*
X69547618Y-60385270D02*
X69608095Y-60506222D01*
X69608095Y-60506222D02*
X69608095Y-60627175D01*
X69608095Y-60627175D02*
X69547618Y-60808603D01*
X69547618Y-60808603D02*
X68821904Y-61534318D01*
X68821904Y-61534318D02*
X69608095Y-61534318D01*
D10*
X120769142Y-96466819D02*
X120435809Y-95990628D01*
X120197714Y-96466819D02*
X120197714Y-95466819D01*
X120197714Y-95466819D02*
X120578666Y-95466819D01*
X120578666Y-95466819D02*
X120673904Y-95514438D01*
X120673904Y-95514438D02*
X120721523Y-95562057D01*
X120721523Y-95562057D02*
X120769142Y-95657295D01*
X120769142Y-95657295D02*
X120769142Y-95800152D01*
X120769142Y-95800152D02*
X120721523Y-95895390D01*
X120721523Y-95895390D02*
X120673904Y-95943009D01*
X120673904Y-95943009D02*
X120578666Y-95990628D01*
X120578666Y-95990628D02*
X120197714Y-95990628D01*
X121150095Y-95562057D02*
X121197714Y-95514438D01*
X121197714Y-95514438D02*
X121292952Y-95466819D01*
X121292952Y-95466819D02*
X121531047Y-95466819D01*
X121531047Y-95466819D02*
X121626285Y-95514438D01*
X121626285Y-95514438D02*
X121673904Y-95562057D01*
X121673904Y-95562057D02*
X121721523Y-95657295D01*
X121721523Y-95657295D02*
X121721523Y-95752533D01*
X121721523Y-95752533D02*
X121673904Y-95895390D01*
X121673904Y-95895390D02*
X121102476Y-96466819D01*
X121102476Y-96466819D02*
X121721523Y-96466819D01*
X122054857Y-95466819D02*
X122721523Y-95466819D01*
X122721523Y-95466819D02*
X122292952Y-96466819D01*
X45749580Y-75594166D02*
X45797200Y-75641785D01*
X45797200Y-75641785D02*
X45844819Y-75784642D01*
X45844819Y-75784642D02*
X45844819Y-75879880D01*
X45844819Y-75879880D02*
X45797200Y-76022737D01*
X45797200Y-76022737D02*
X45701961Y-76117975D01*
X45701961Y-76117975D02*
X45606723Y-76165594D01*
X45606723Y-76165594D02*
X45416247Y-76213213D01*
X45416247Y-76213213D02*
X45273390Y-76213213D01*
X45273390Y-76213213D02*
X45082914Y-76165594D01*
X45082914Y-76165594D02*
X44987676Y-76117975D01*
X44987676Y-76117975D02*
X44892438Y-76022737D01*
X44892438Y-76022737D02*
X44844819Y-75879880D01*
X44844819Y-75879880D02*
X44844819Y-75784642D01*
X44844819Y-75784642D02*
X44892438Y-75641785D01*
X44892438Y-75641785D02*
X44940057Y-75594166D01*
X45844819Y-74641785D02*
X45844819Y-75213213D01*
X45844819Y-74927499D02*
X44844819Y-74927499D01*
X44844819Y-74927499D02*
X44987676Y-75022737D01*
X44987676Y-75022737D02*
X45082914Y-75117975D01*
X45082914Y-75117975D02*
X45130533Y-75213213D01*
D11*
X109233047Y-90611270D02*
X109112095Y-90550794D01*
X109112095Y-90550794D02*
X108991142Y-90429842D01*
X108991142Y-90429842D02*
X108809714Y-90248413D01*
X108809714Y-90248413D02*
X108688761Y-90187937D01*
X108688761Y-90187937D02*
X108567809Y-90187937D01*
X108628285Y-90490318D02*
X108507333Y-90429842D01*
X108507333Y-90429842D02*
X108386380Y-90308889D01*
X108386380Y-90308889D02*
X108325904Y-90066984D01*
X108325904Y-90066984D02*
X108325904Y-89643651D01*
X108325904Y-89643651D02*
X108386380Y-89401746D01*
X108386380Y-89401746D02*
X108507333Y-89280794D01*
X108507333Y-89280794D02*
X108628285Y-89220318D01*
X108628285Y-89220318D02*
X108870190Y-89220318D01*
X108870190Y-89220318D02*
X108991142Y-89280794D01*
X108991142Y-89280794D02*
X109112095Y-89401746D01*
X109112095Y-89401746D02*
X109172571Y-89643651D01*
X109172571Y-89643651D02*
X109172571Y-90066984D01*
X109172571Y-90066984D02*
X109112095Y-90308889D01*
X109112095Y-90308889D02*
X108991142Y-90429842D01*
X108991142Y-90429842D02*
X108870190Y-90490318D01*
X108870190Y-90490318D02*
X108628285Y-90490318D01*
X110261142Y-89220318D02*
X110019237Y-89220318D01*
X110019237Y-89220318D02*
X109898285Y-89280794D01*
X109898285Y-89280794D02*
X109837809Y-89341270D01*
X109837809Y-89341270D02*
X109716856Y-89522699D01*
X109716856Y-89522699D02*
X109656380Y-89764603D01*
X109656380Y-89764603D02*
X109656380Y-90248413D01*
X109656380Y-90248413D02*
X109716856Y-90369365D01*
X109716856Y-90369365D02*
X109777333Y-90429842D01*
X109777333Y-90429842D02*
X109898285Y-90490318D01*
X109898285Y-90490318D02*
X110140190Y-90490318D01*
X110140190Y-90490318D02*
X110261142Y-90429842D01*
X110261142Y-90429842D02*
X110321618Y-90369365D01*
X110321618Y-90369365D02*
X110382095Y-90248413D01*
X110382095Y-90248413D02*
X110382095Y-89946032D01*
X110382095Y-89946032D02*
X110321618Y-89825080D01*
X110321618Y-89825080D02*
X110261142Y-89764603D01*
X110261142Y-89764603D02*
X110140190Y-89704127D01*
X110140190Y-89704127D02*
X109898285Y-89704127D01*
X109898285Y-89704127D02*
X109777333Y-89764603D01*
X109777333Y-89764603D02*
X109716856Y-89825080D01*
X109716856Y-89825080D02*
X109656380Y-89946032D01*
X116176618Y-124018318D02*
X116176618Y-122748318D01*
X116176618Y-122748318D02*
X116478999Y-122748318D01*
X116478999Y-122748318D02*
X116660428Y-122808794D01*
X116660428Y-122808794D02*
X116781380Y-122929746D01*
X116781380Y-122929746D02*
X116841857Y-123050699D01*
X116841857Y-123050699D02*
X116902333Y-123292603D01*
X116902333Y-123292603D02*
X116902333Y-123474032D01*
X116902333Y-123474032D02*
X116841857Y-123715937D01*
X116841857Y-123715937D02*
X116781380Y-123836889D01*
X116781380Y-123836889D02*
X116660428Y-123957842D01*
X116660428Y-123957842D02*
X116478999Y-124018318D01*
X116478999Y-124018318D02*
X116176618Y-124018318D01*
X117990904Y-122748318D02*
X117748999Y-122748318D01*
X117748999Y-122748318D02*
X117628047Y-122808794D01*
X117628047Y-122808794D02*
X117567571Y-122869270D01*
X117567571Y-122869270D02*
X117446618Y-123050699D01*
X117446618Y-123050699D02*
X117386142Y-123292603D01*
X117386142Y-123292603D02*
X117386142Y-123776413D01*
X117386142Y-123776413D02*
X117446618Y-123897365D01*
X117446618Y-123897365D02*
X117507095Y-123957842D01*
X117507095Y-123957842D02*
X117628047Y-124018318D01*
X117628047Y-124018318D02*
X117869952Y-124018318D01*
X117869952Y-124018318D02*
X117990904Y-123957842D01*
X117990904Y-123957842D02*
X118051380Y-123897365D01*
X118051380Y-123897365D02*
X118111857Y-123776413D01*
X118111857Y-123776413D02*
X118111857Y-123474032D01*
X118111857Y-123474032D02*
X118051380Y-123353080D01*
X118051380Y-123353080D02*
X117990904Y-123292603D01*
X117990904Y-123292603D02*
X117869952Y-123232127D01*
X117869952Y-123232127D02*
X117628047Y-123232127D01*
X117628047Y-123232127D02*
X117507095Y-123292603D01*
X117507095Y-123292603D02*
X117446618Y-123353080D01*
X117446618Y-123353080D02*
X117386142Y-123474032D01*
X110368842Y-80109289D02*
X110429318Y-79927860D01*
X110429318Y-79927860D02*
X110429318Y-79625479D01*
X110429318Y-79625479D02*
X110368842Y-79504527D01*
X110368842Y-79504527D02*
X110308365Y-79444051D01*
X110308365Y-79444051D02*
X110187413Y-79383574D01*
X110187413Y-79383574D02*
X110066461Y-79383574D01*
X110066461Y-79383574D02*
X109945508Y-79444051D01*
X109945508Y-79444051D02*
X109885032Y-79504527D01*
X109885032Y-79504527D02*
X109824556Y-79625479D01*
X109824556Y-79625479D02*
X109764080Y-79867384D01*
X109764080Y-79867384D02*
X109703603Y-79988336D01*
X109703603Y-79988336D02*
X109643127Y-80048813D01*
X109643127Y-80048813D02*
X109522175Y-80109289D01*
X109522175Y-80109289D02*
X109401222Y-80109289D01*
X109401222Y-80109289D02*
X109280270Y-80048813D01*
X109280270Y-80048813D02*
X109219794Y-79988336D01*
X109219794Y-79988336D02*
X109159318Y-79867384D01*
X109159318Y-79867384D02*
X109159318Y-79565003D01*
X109159318Y-79565003D02*
X109219794Y-79383574D01*
X110429318Y-78174050D02*
X110429318Y-78899765D01*
X110429318Y-78536908D02*
X109159318Y-78536908D01*
X109159318Y-78536908D02*
X109340746Y-78657860D01*
X109340746Y-78657860D02*
X109461699Y-78778812D01*
X109461699Y-78778812D02*
X109522175Y-78899765D01*
X57724318Y-75232381D02*
X56454318Y-75232381D01*
X56454318Y-75232381D02*
X56454318Y-74930000D01*
X56454318Y-74930000D02*
X56514794Y-74748571D01*
X56514794Y-74748571D02*
X56635746Y-74627619D01*
X56635746Y-74627619D02*
X56756699Y-74567142D01*
X56756699Y-74567142D02*
X56998603Y-74506666D01*
X56998603Y-74506666D02*
X57180032Y-74506666D01*
X57180032Y-74506666D02*
X57421937Y-74567142D01*
X57421937Y-74567142D02*
X57542889Y-74627619D01*
X57542889Y-74627619D02*
X57663842Y-74748571D01*
X57663842Y-74748571D02*
X57724318Y-74930000D01*
X57724318Y-74930000D02*
X57724318Y-75232381D01*
X57724318Y-73297142D02*
X57724318Y-74022857D01*
X57724318Y-73660000D02*
X56454318Y-73660000D01*
X56454318Y-73660000D02*
X56635746Y-73780952D01*
X56635746Y-73780952D02*
X56756699Y-73901904D01*
X56756699Y-73901904D02*
X56817175Y-74022857D01*
D10*
X60779819Y-74461666D02*
X60303628Y-74794999D01*
X60779819Y-75033094D02*
X59779819Y-75033094D01*
X59779819Y-75033094D02*
X59779819Y-74652142D01*
X59779819Y-74652142D02*
X59827438Y-74556904D01*
X59827438Y-74556904D02*
X59875057Y-74509285D01*
X59875057Y-74509285D02*
X59970295Y-74461666D01*
X59970295Y-74461666D02*
X60113152Y-74461666D01*
X60113152Y-74461666D02*
X60208390Y-74509285D01*
X60208390Y-74509285D02*
X60256009Y-74556904D01*
X60256009Y-74556904D02*
X60303628Y-74652142D01*
X60303628Y-74652142D02*
X60303628Y-75033094D01*
X59779819Y-74128332D02*
X59779819Y-73461666D01*
X59779819Y-73461666D02*
X60779819Y-73890237D01*
X89781142Y-86250319D02*
X89447809Y-85774128D01*
X89209714Y-86250319D02*
X89209714Y-85250319D01*
X89209714Y-85250319D02*
X89590666Y-85250319D01*
X89590666Y-85250319D02*
X89685904Y-85297938D01*
X89685904Y-85297938D02*
X89733523Y-85345557D01*
X89733523Y-85345557D02*
X89781142Y-85440795D01*
X89781142Y-85440795D02*
X89781142Y-85583652D01*
X89781142Y-85583652D02*
X89733523Y-85678890D01*
X89733523Y-85678890D02*
X89685904Y-85726509D01*
X89685904Y-85726509D02*
X89590666Y-85774128D01*
X89590666Y-85774128D02*
X89209714Y-85774128D01*
X90733523Y-86250319D02*
X90162095Y-86250319D01*
X90447809Y-86250319D02*
X90447809Y-85250319D01*
X90447809Y-85250319D02*
X90352571Y-85393176D01*
X90352571Y-85393176D02*
X90257333Y-85488414D01*
X90257333Y-85488414D02*
X90162095Y-85536033D01*
X91066857Y-85250319D02*
X91685904Y-85250319D01*
X91685904Y-85250319D02*
X91352571Y-85631271D01*
X91352571Y-85631271D02*
X91495428Y-85631271D01*
X91495428Y-85631271D02*
X91590666Y-85678890D01*
X91590666Y-85678890D02*
X91638285Y-85726509D01*
X91638285Y-85726509D02*
X91685904Y-85821747D01*
X91685904Y-85821747D02*
X91685904Y-86059842D01*
X91685904Y-86059842D02*
X91638285Y-86155080D01*
X91638285Y-86155080D02*
X91590666Y-86202700D01*
X91590666Y-86202700D02*
X91495428Y-86250319D01*
X91495428Y-86250319D02*
X91209714Y-86250319D01*
X91209714Y-86250319D02*
X91114476Y-86202700D01*
X91114476Y-86202700D02*
X91066857Y-86155080D01*
X93170476Y-114422819D02*
X93170476Y-115137104D01*
X93170476Y-115137104D02*
X93122857Y-115279961D01*
X93122857Y-115279961D02*
X93027619Y-115375200D01*
X93027619Y-115375200D02*
X92884762Y-115422819D01*
X92884762Y-115422819D02*
X92789524Y-115422819D01*
X94170476Y-115422819D02*
X93599048Y-115422819D01*
X93884762Y-115422819D02*
X93884762Y-114422819D01*
X93884762Y-114422819D02*
X93789524Y-114565676D01*
X93789524Y-114565676D02*
X93694286Y-114660914D01*
X93694286Y-114660914D02*
X93599048Y-114708533D01*
X94789524Y-114422819D02*
X94884762Y-114422819D01*
X94884762Y-114422819D02*
X94980000Y-114470438D01*
X94980000Y-114470438D02*
X95027619Y-114518057D01*
X95027619Y-114518057D02*
X95075238Y-114613295D01*
X95075238Y-114613295D02*
X95122857Y-114803771D01*
X95122857Y-114803771D02*
X95122857Y-115041866D01*
X95122857Y-115041866D02*
X95075238Y-115232342D01*
X95075238Y-115232342D02*
X95027619Y-115327580D01*
X95027619Y-115327580D02*
X94980000Y-115375200D01*
X94980000Y-115375200D02*
X94884762Y-115422819D01*
X94884762Y-115422819D02*
X94789524Y-115422819D01*
X94789524Y-115422819D02*
X94694286Y-115375200D01*
X94694286Y-115375200D02*
X94646667Y-115327580D01*
X94646667Y-115327580D02*
X94599048Y-115232342D01*
X94599048Y-115232342D02*
X94551429Y-115041866D01*
X94551429Y-115041866D02*
X94551429Y-114803771D01*
X94551429Y-114803771D02*
X94599048Y-114613295D01*
X94599048Y-114613295D02*
X94646667Y-114518057D01*
X94646667Y-114518057D02*
X94694286Y-114470438D01*
X94694286Y-114470438D02*
X94789524Y-114422819D01*
X108309580Y-74535357D02*
X108357200Y-74582976D01*
X108357200Y-74582976D02*
X108404819Y-74725833D01*
X108404819Y-74725833D02*
X108404819Y-74821071D01*
X108404819Y-74821071D02*
X108357200Y-74963928D01*
X108357200Y-74963928D02*
X108261961Y-75059166D01*
X108261961Y-75059166D02*
X108166723Y-75106785D01*
X108166723Y-75106785D02*
X107976247Y-75154404D01*
X107976247Y-75154404D02*
X107833390Y-75154404D01*
X107833390Y-75154404D02*
X107642914Y-75106785D01*
X107642914Y-75106785D02*
X107547676Y-75059166D01*
X107547676Y-75059166D02*
X107452438Y-74963928D01*
X107452438Y-74963928D02*
X107404819Y-74821071D01*
X107404819Y-74821071D02*
X107404819Y-74725833D01*
X107404819Y-74725833D02*
X107452438Y-74582976D01*
X107452438Y-74582976D02*
X107500057Y-74535357D01*
X108404819Y-73582976D02*
X108404819Y-74154404D01*
X108404819Y-73868690D02*
X107404819Y-73868690D01*
X107404819Y-73868690D02*
X107547676Y-73963928D01*
X107547676Y-73963928D02*
X107642914Y-74059166D01*
X107642914Y-74059166D02*
X107690533Y-74154404D01*
X107738152Y-72725833D02*
X108404819Y-72725833D01*
X107357200Y-72963928D02*
X108071485Y-73202023D01*
X108071485Y-73202023D02*
X108071485Y-72582976D01*
X132453142Y-92496819D02*
X132119809Y-92020628D01*
X131881714Y-92496819D02*
X131881714Y-91496819D01*
X131881714Y-91496819D02*
X132262666Y-91496819D01*
X132262666Y-91496819D02*
X132357904Y-91544438D01*
X132357904Y-91544438D02*
X132405523Y-91592057D01*
X132405523Y-91592057D02*
X132453142Y-91687295D01*
X132453142Y-91687295D02*
X132453142Y-91830152D01*
X132453142Y-91830152D02*
X132405523Y-91925390D01*
X132405523Y-91925390D02*
X132357904Y-91973009D01*
X132357904Y-91973009D02*
X132262666Y-92020628D01*
X132262666Y-92020628D02*
X131881714Y-92020628D01*
X132834095Y-91592057D02*
X132881714Y-91544438D01*
X132881714Y-91544438D02*
X132976952Y-91496819D01*
X132976952Y-91496819D02*
X133215047Y-91496819D01*
X133215047Y-91496819D02*
X133310285Y-91544438D01*
X133310285Y-91544438D02*
X133357904Y-91592057D01*
X133357904Y-91592057D02*
X133405523Y-91687295D01*
X133405523Y-91687295D02*
X133405523Y-91782533D01*
X133405523Y-91782533D02*
X133357904Y-91925390D01*
X133357904Y-91925390D02*
X132786476Y-92496819D01*
X132786476Y-92496819D02*
X133405523Y-92496819D01*
X133976952Y-91925390D02*
X133881714Y-91877771D01*
X133881714Y-91877771D02*
X133834095Y-91830152D01*
X133834095Y-91830152D02*
X133786476Y-91734914D01*
X133786476Y-91734914D02*
X133786476Y-91687295D01*
X133786476Y-91687295D02*
X133834095Y-91592057D01*
X133834095Y-91592057D02*
X133881714Y-91544438D01*
X133881714Y-91544438D02*
X133976952Y-91496819D01*
X133976952Y-91496819D02*
X134167428Y-91496819D01*
X134167428Y-91496819D02*
X134262666Y-91544438D01*
X134262666Y-91544438D02*
X134310285Y-91592057D01*
X134310285Y-91592057D02*
X134357904Y-91687295D01*
X134357904Y-91687295D02*
X134357904Y-91734914D01*
X134357904Y-91734914D02*
X134310285Y-91830152D01*
X134310285Y-91830152D02*
X134262666Y-91877771D01*
X134262666Y-91877771D02*
X134167428Y-91925390D01*
X134167428Y-91925390D02*
X133976952Y-91925390D01*
X133976952Y-91925390D02*
X133881714Y-91973009D01*
X133881714Y-91973009D02*
X133834095Y-92020628D01*
X133834095Y-92020628D02*
X133786476Y-92115866D01*
X133786476Y-92115866D02*
X133786476Y-92306342D01*
X133786476Y-92306342D02*
X133834095Y-92401580D01*
X133834095Y-92401580D02*
X133881714Y-92449200D01*
X133881714Y-92449200D02*
X133976952Y-92496819D01*
X133976952Y-92496819D02*
X134167428Y-92496819D01*
X134167428Y-92496819D02*
X134262666Y-92449200D01*
X134262666Y-92449200D02*
X134310285Y-92401580D01*
X134310285Y-92401580D02*
X134357904Y-92306342D01*
X134357904Y-92306342D02*
X134357904Y-92115866D01*
X134357904Y-92115866D02*
X134310285Y-92020628D01*
X134310285Y-92020628D02*
X134262666Y-91973009D01*
X134262666Y-91973009D02*
X134167428Y-91925390D01*
X122801142Y-97481580D02*
X122753523Y-97529200D01*
X122753523Y-97529200D02*
X122610666Y-97576819D01*
X122610666Y-97576819D02*
X122515428Y-97576819D01*
X122515428Y-97576819D02*
X122372571Y-97529200D01*
X122372571Y-97529200D02*
X122277333Y-97433961D01*
X122277333Y-97433961D02*
X122229714Y-97338723D01*
X122229714Y-97338723D02*
X122182095Y-97148247D01*
X122182095Y-97148247D02*
X122182095Y-97005390D01*
X122182095Y-97005390D02*
X122229714Y-96814914D01*
X122229714Y-96814914D02*
X122277333Y-96719676D01*
X122277333Y-96719676D02*
X122372571Y-96624438D01*
X122372571Y-96624438D02*
X122515428Y-96576819D01*
X122515428Y-96576819D02*
X122610666Y-96576819D01*
X122610666Y-96576819D02*
X122753523Y-96624438D01*
X122753523Y-96624438D02*
X122801142Y-96672057D01*
X123182095Y-96672057D02*
X123229714Y-96624438D01*
X123229714Y-96624438D02*
X123324952Y-96576819D01*
X123324952Y-96576819D02*
X123563047Y-96576819D01*
X123563047Y-96576819D02*
X123658285Y-96624438D01*
X123658285Y-96624438D02*
X123705904Y-96672057D01*
X123705904Y-96672057D02*
X123753523Y-96767295D01*
X123753523Y-96767295D02*
X123753523Y-96862533D01*
X123753523Y-96862533D02*
X123705904Y-97005390D01*
X123705904Y-97005390D02*
X123134476Y-97576819D01*
X123134476Y-97576819D02*
X123753523Y-97576819D01*
X124086857Y-96576819D02*
X124705904Y-96576819D01*
X124705904Y-96576819D02*
X124372571Y-96957771D01*
X124372571Y-96957771D02*
X124515428Y-96957771D01*
X124515428Y-96957771D02*
X124610666Y-97005390D01*
X124610666Y-97005390D02*
X124658285Y-97053009D01*
X124658285Y-97053009D02*
X124705904Y-97148247D01*
X124705904Y-97148247D02*
X124705904Y-97386342D01*
X124705904Y-97386342D02*
X124658285Y-97481580D01*
X124658285Y-97481580D02*
X124610666Y-97529200D01*
X124610666Y-97529200D02*
X124515428Y-97576819D01*
X124515428Y-97576819D02*
X124229714Y-97576819D01*
X124229714Y-97576819D02*
X124134476Y-97529200D01*
X124134476Y-97529200D02*
X124086857Y-97481580D01*
X104594819Y-91471357D02*
X104118628Y-91804690D01*
X104594819Y-92042785D02*
X103594819Y-92042785D01*
X103594819Y-92042785D02*
X103594819Y-91661833D01*
X103594819Y-91661833D02*
X103642438Y-91566595D01*
X103642438Y-91566595D02*
X103690057Y-91518976D01*
X103690057Y-91518976D02*
X103785295Y-91471357D01*
X103785295Y-91471357D02*
X103928152Y-91471357D01*
X103928152Y-91471357D02*
X104023390Y-91518976D01*
X104023390Y-91518976D02*
X104071009Y-91566595D01*
X104071009Y-91566595D02*
X104118628Y-91661833D01*
X104118628Y-91661833D02*
X104118628Y-92042785D01*
X104594819Y-90518976D02*
X104594819Y-91090404D01*
X104594819Y-90804690D02*
X103594819Y-90804690D01*
X103594819Y-90804690D02*
X103737676Y-90899928D01*
X103737676Y-90899928D02*
X103832914Y-90995166D01*
X103832914Y-90995166D02*
X103880533Y-91090404D01*
X104594819Y-90042785D02*
X104594819Y-89852309D01*
X104594819Y-89852309D02*
X104547200Y-89757071D01*
X104547200Y-89757071D02*
X104499580Y-89709452D01*
X104499580Y-89709452D02*
X104356723Y-89614214D01*
X104356723Y-89614214D02*
X104166247Y-89566595D01*
X104166247Y-89566595D02*
X103785295Y-89566595D01*
X103785295Y-89566595D02*
X103690057Y-89614214D01*
X103690057Y-89614214D02*
X103642438Y-89661833D01*
X103642438Y-89661833D02*
X103594819Y-89757071D01*
X103594819Y-89757071D02*
X103594819Y-89947547D01*
X103594819Y-89947547D02*
X103642438Y-90042785D01*
X103642438Y-90042785D02*
X103690057Y-90090404D01*
X103690057Y-90090404D02*
X103785295Y-90138023D01*
X103785295Y-90138023D02*
X104023390Y-90138023D01*
X104023390Y-90138023D02*
X104118628Y-90090404D01*
X104118628Y-90090404D02*
X104166247Y-90042785D01*
X104166247Y-90042785D02*
X104213866Y-89947547D01*
X104213866Y-89947547D02*
X104213866Y-89757071D01*
X104213866Y-89757071D02*
X104166247Y-89661833D01*
X104166247Y-89661833D02*
X104118628Y-89614214D01*
X104118628Y-89614214D02*
X104023390Y-89566595D01*
X59909580Y-60714166D02*
X59957200Y-60761785D01*
X59957200Y-60761785D02*
X60004819Y-60904642D01*
X60004819Y-60904642D02*
X60004819Y-60999880D01*
X60004819Y-60999880D02*
X59957200Y-61142737D01*
X59957200Y-61142737D02*
X59861961Y-61237975D01*
X59861961Y-61237975D02*
X59766723Y-61285594D01*
X59766723Y-61285594D02*
X59576247Y-61333213D01*
X59576247Y-61333213D02*
X59433390Y-61333213D01*
X59433390Y-61333213D02*
X59242914Y-61285594D01*
X59242914Y-61285594D02*
X59147676Y-61237975D01*
X59147676Y-61237975D02*
X59052438Y-61142737D01*
X59052438Y-61142737D02*
X59004819Y-60999880D01*
X59004819Y-60999880D02*
X59004819Y-60904642D01*
X59004819Y-60904642D02*
X59052438Y-60761785D01*
X59052438Y-60761785D02*
X59100057Y-60714166D01*
X59004819Y-60380832D02*
X59004819Y-59714166D01*
X59004819Y-59714166D02*
X60004819Y-60142737D01*
X89781142Y-89077319D02*
X89447809Y-88601128D01*
X89209714Y-89077319D02*
X89209714Y-88077319D01*
X89209714Y-88077319D02*
X89590666Y-88077319D01*
X89590666Y-88077319D02*
X89685904Y-88124938D01*
X89685904Y-88124938D02*
X89733523Y-88172557D01*
X89733523Y-88172557D02*
X89781142Y-88267795D01*
X89781142Y-88267795D02*
X89781142Y-88410652D01*
X89781142Y-88410652D02*
X89733523Y-88505890D01*
X89733523Y-88505890D02*
X89685904Y-88553509D01*
X89685904Y-88553509D02*
X89590666Y-88601128D01*
X89590666Y-88601128D02*
X89209714Y-88601128D01*
X90733523Y-89077319D02*
X90162095Y-89077319D01*
X90447809Y-89077319D02*
X90447809Y-88077319D01*
X90447809Y-88077319D02*
X90352571Y-88220176D01*
X90352571Y-88220176D02*
X90257333Y-88315414D01*
X90257333Y-88315414D02*
X90162095Y-88363033D01*
X91590666Y-88410652D02*
X91590666Y-89077319D01*
X91352571Y-88029700D02*
X91114476Y-88743985D01*
X91114476Y-88743985D02*
X91733523Y-88743985D01*
X63319819Y-73826666D02*
X62843628Y-74159999D01*
X63319819Y-74398094D02*
X62319819Y-74398094D01*
X62319819Y-74398094D02*
X62319819Y-74017142D01*
X62319819Y-74017142D02*
X62367438Y-73921904D01*
X62367438Y-73921904D02*
X62415057Y-73874285D01*
X62415057Y-73874285D02*
X62510295Y-73826666D01*
X62510295Y-73826666D02*
X62653152Y-73826666D01*
X62653152Y-73826666D02*
X62748390Y-73874285D01*
X62748390Y-73874285D02*
X62796009Y-73921904D01*
X62796009Y-73921904D02*
X62843628Y-74017142D01*
X62843628Y-74017142D02*
X62843628Y-74398094D01*
X62319819Y-72969523D02*
X62319819Y-73159999D01*
X62319819Y-73159999D02*
X62367438Y-73255237D01*
X62367438Y-73255237D02*
X62415057Y-73302856D01*
X62415057Y-73302856D02*
X62557914Y-73398094D01*
X62557914Y-73398094D02*
X62748390Y-73445713D01*
X62748390Y-73445713D02*
X63129342Y-73445713D01*
X63129342Y-73445713D02*
X63224580Y-73398094D01*
X63224580Y-73398094D02*
X63272200Y-73350475D01*
X63272200Y-73350475D02*
X63319819Y-73255237D01*
X63319819Y-73255237D02*
X63319819Y-73064761D01*
X63319819Y-73064761D02*
X63272200Y-72969523D01*
X63272200Y-72969523D02*
X63224580Y-72921904D01*
X63224580Y-72921904D02*
X63129342Y-72874285D01*
X63129342Y-72874285D02*
X62891247Y-72874285D01*
X62891247Y-72874285D02*
X62796009Y-72921904D01*
X62796009Y-72921904D02*
X62748390Y-72969523D01*
X62748390Y-72969523D02*
X62700771Y-73064761D01*
X62700771Y-73064761D02*
X62700771Y-73255237D01*
X62700771Y-73255237D02*
X62748390Y-73350475D01*
X62748390Y-73350475D02*
X62796009Y-73398094D01*
X62796009Y-73398094D02*
X62891247Y-73445713D01*
X80623580Y-79890857D02*
X80671200Y-79938476D01*
X80671200Y-79938476D02*
X80718819Y-80081333D01*
X80718819Y-80081333D02*
X80718819Y-80176571D01*
X80718819Y-80176571D02*
X80671200Y-80319428D01*
X80671200Y-80319428D02*
X80575961Y-80414666D01*
X80575961Y-80414666D02*
X80480723Y-80462285D01*
X80480723Y-80462285D02*
X80290247Y-80509904D01*
X80290247Y-80509904D02*
X80147390Y-80509904D01*
X80147390Y-80509904D02*
X79956914Y-80462285D01*
X79956914Y-80462285D02*
X79861676Y-80414666D01*
X79861676Y-80414666D02*
X79766438Y-80319428D01*
X79766438Y-80319428D02*
X79718819Y-80176571D01*
X79718819Y-80176571D02*
X79718819Y-80081333D01*
X79718819Y-80081333D02*
X79766438Y-79938476D01*
X79766438Y-79938476D02*
X79814057Y-79890857D01*
X80718819Y-78938476D02*
X80718819Y-79509904D01*
X80718819Y-79224190D02*
X79718819Y-79224190D01*
X79718819Y-79224190D02*
X79861676Y-79319428D01*
X79861676Y-79319428D02*
X79956914Y-79414666D01*
X79956914Y-79414666D02*
X80004533Y-79509904D01*
X80718819Y-77986095D02*
X80718819Y-78557523D01*
X80718819Y-78271809D02*
X79718819Y-78271809D01*
X79718819Y-78271809D02*
X79861676Y-78367047D01*
X79861676Y-78367047D02*
X79956914Y-78462285D01*
X79956914Y-78462285D02*
X80004533Y-78557523D01*
X97742476Y-114422819D02*
X97742476Y-115137104D01*
X97742476Y-115137104D02*
X97694857Y-115279961D01*
X97694857Y-115279961D02*
X97599619Y-115375200D01*
X97599619Y-115375200D02*
X97456762Y-115422819D01*
X97456762Y-115422819D02*
X97361524Y-115422819D01*
X98742476Y-115422819D02*
X98171048Y-115422819D01*
X98456762Y-115422819D02*
X98456762Y-114422819D01*
X98456762Y-114422819D02*
X98361524Y-114565676D01*
X98361524Y-114565676D02*
X98266286Y-114660914D01*
X98266286Y-114660914D02*
X98171048Y-114708533D01*
X99694857Y-115422819D02*
X99123429Y-115422819D01*
X99409143Y-115422819D02*
X99409143Y-114422819D01*
X99409143Y-114422819D02*
X99313905Y-114565676D01*
X99313905Y-114565676D02*
X99218667Y-114660914D01*
X99218667Y-114660914D02*
X99123429Y-114708533D01*
X43015780Y-122898566D02*
X42301495Y-122898566D01*
X42301495Y-122898566D02*
X42158638Y-122850947D01*
X42158638Y-122850947D02*
X42063400Y-122755709D01*
X42063400Y-122755709D02*
X42015780Y-122612852D01*
X42015780Y-122612852D02*
X42015780Y-122517614D01*
X42015780Y-123422376D02*
X42015780Y-123612852D01*
X42015780Y-123612852D02*
X42063400Y-123708090D01*
X42063400Y-123708090D02*
X42111019Y-123755709D01*
X42111019Y-123755709D02*
X42253876Y-123850947D01*
X42253876Y-123850947D02*
X42444352Y-123898566D01*
X42444352Y-123898566D02*
X42825304Y-123898566D01*
X42825304Y-123898566D02*
X42920542Y-123850947D01*
X42920542Y-123850947D02*
X42968161Y-123803328D01*
X42968161Y-123803328D02*
X43015780Y-123708090D01*
X43015780Y-123708090D02*
X43015780Y-123517614D01*
X43015780Y-123517614D02*
X42968161Y-123422376D01*
X42968161Y-123422376D02*
X42920542Y-123374757D01*
X42920542Y-123374757D02*
X42825304Y-123327138D01*
X42825304Y-123327138D02*
X42587209Y-123327138D01*
X42587209Y-123327138D02*
X42491971Y-123374757D01*
X42491971Y-123374757D02*
X42444352Y-123422376D01*
X42444352Y-123422376D02*
X42396733Y-123517614D01*
X42396733Y-123517614D02*
X42396733Y-123708090D01*
X42396733Y-123708090D02*
X42444352Y-123803328D01*
X42444352Y-123803328D02*
X42491971Y-123850947D01*
X42491971Y-123850947D02*
X42587209Y-123898566D01*
X37385666Y-87056819D02*
X37385666Y-87771104D01*
X37385666Y-87771104D02*
X37338047Y-87913961D01*
X37338047Y-87913961D02*
X37242809Y-88009200D01*
X37242809Y-88009200D02*
X37099952Y-88056819D01*
X37099952Y-88056819D02*
X37004714Y-88056819D01*
X38290428Y-87056819D02*
X38099952Y-87056819D01*
X38099952Y-87056819D02*
X38004714Y-87104438D01*
X38004714Y-87104438D02*
X37957095Y-87152057D01*
X37957095Y-87152057D02*
X37861857Y-87294914D01*
X37861857Y-87294914D02*
X37814238Y-87485390D01*
X37814238Y-87485390D02*
X37814238Y-87866342D01*
X37814238Y-87866342D02*
X37861857Y-87961580D01*
X37861857Y-87961580D02*
X37909476Y-88009200D01*
X37909476Y-88009200D02*
X38004714Y-88056819D01*
X38004714Y-88056819D02*
X38195190Y-88056819D01*
X38195190Y-88056819D02*
X38290428Y-88009200D01*
X38290428Y-88009200D02*
X38338047Y-87961580D01*
X38338047Y-87961580D02*
X38385666Y-87866342D01*
X38385666Y-87866342D02*
X38385666Y-87628247D01*
X38385666Y-87628247D02*
X38338047Y-87533009D01*
X38338047Y-87533009D02*
X38290428Y-87485390D01*
X38290428Y-87485390D02*
X38195190Y-87437771D01*
X38195190Y-87437771D02*
X38004714Y-87437771D01*
X38004714Y-87437771D02*
X37909476Y-87485390D01*
X37909476Y-87485390D02*
X37861857Y-87533009D01*
X37861857Y-87533009D02*
X37814238Y-87628247D01*
D11*
X48241856Y-99126318D02*
X48241856Y-97856318D01*
X48241856Y-97856318D02*
X48544237Y-97856318D01*
X48544237Y-97856318D02*
X48725666Y-97916794D01*
X48725666Y-97916794D02*
X48846618Y-98037746D01*
X48846618Y-98037746D02*
X48907095Y-98158699D01*
X48907095Y-98158699D02*
X48967571Y-98400603D01*
X48967571Y-98400603D02*
X48967571Y-98582032D01*
X48967571Y-98582032D02*
X48907095Y-98823937D01*
X48907095Y-98823937D02*
X48846618Y-98944889D01*
X48846618Y-98944889D02*
X48725666Y-99065842D01*
X48725666Y-99065842D02*
X48544237Y-99126318D01*
X48544237Y-99126318D02*
X48241856Y-99126318D01*
X50177095Y-99126318D02*
X49451380Y-99126318D01*
X49814237Y-99126318D02*
X49814237Y-97856318D01*
X49814237Y-97856318D02*
X49693285Y-98037746D01*
X49693285Y-98037746D02*
X49572333Y-98158699D01*
X49572333Y-98158699D02*
X49451380Y-98219175D01*
X50600428Y-97856318D02*
X51386619Y-97856318D01*
X51386619Y-97856318D02*
X50963285Y-98340127D01*
X50963285Y-98340127D02*
X51144714Y-98340127D01*
X51144714Y-98340127D02*
X51265666Y-98400603D01*
X51265666Y-98400603D02*
X51326142Y-98461080D01*
X51326142Y-98461080D02*
X51386619Y-98582032D01*
X51386619Y-98582032D02*
X51386619Y-98884413D01*
X51386619Y-98884413D02*
X51326142Y-99005365D01*
X51326142Y-99005365D02*
X51265666Y-99065842D01*
X51265666Y-99065842D02*
X51144714Y-99126318D01*
X51144714Y-99126318D02*
X50781857Y-99126318D01*
X50781857Y-99126318D02*
X50660904Y-99065842D01*
X50660904Y-99065842D02*
X50600428Y-99005365D01*
D10*
X34277333Y-91002295D02*
X34277333Y-91573723D01*
X34277333Y-91573723D02*
X34239238Y-91688009D01*
X34239238Y-91688009D02*
X34163047Y-91764200D01*
X34163047Y-91764200D02*
X34048762Y-91802295D01*
X34048762Y-91802295D02*
X33972571Y-91802295D01*
X34620190Y-91078485D02*
X34658286Y-91040390D01*
X34658286Y-91040390D02*
X34734476Y-91002295D01*
X34734476Y-91002295D02*
X34924952Y-91002295D01*
X34924952Y-91002295D02*
X35001143Y-91040390D01*
X35001143Y-91040390D02*
X35039238Y-91078485D01*
X35039238Y-91078485D02*
X35077333Y-91154676D01*
X35077333Y-91154676D02*
X35077333Y-91230866D01*
X35077333Y-91230866D02*
X35039238Y-91345152D01*
X35039238Y-91345152D02*
X34582095Y-91802295D01*
X34582095Y-91802295D02*
X35077333Y-91802295D01*
X74763333Y-80319819D02*
X74430000Y-79843628D01*
X74191905Y-80319819D02*
X74191905Y-79319819D01*
X74191905Y-79319819D02*
X74572857Y-79319819D01*
X74572857Y-79319819D02*
X74668095Y-79367438D01*
X74668095Y-79367438D02*
X74715714Y-79415057D01*
X74715714Y-79415057D02*
X74763333Y-79510295D01*
X74763333Y-79510295D02*
X74763333Y-79653152D01*
X74763333Y-79653152D02*
X74715714Y-79748390D01*
X74715714Y-79748390D02*
X74668095Y-79796009D01*
X74668095Y-79796009D02*
X74572857Y-79843628D01*
X74572857Y-79843628D02*
X74191905Y-79843628D01*
X75620476Y-79653152D02*
X75620476Y-80319819D01*
X75382381Y-79272200D02*
X75144286Y-79986485D01*
X75144286Y-79986485D02*
X75763333Y-79986485D01*
X62909580Y-61264166D02*
X62957200Y-61311785D01*
X62957200Y-61311785D02*
X63004819Y-61454642D01*
X63004819Y-61454642D02*
X63004819Y-61549880D01*
X63004819Y-61549880D02*
X62957200Y-61692737D01*
X62957200Y-61692737D02*
X62861961Y-61787975D01*
X62861961Y-61787975D02*
X62766723Y-61835594D01*
X62766723Y-61835594D02*
X62576247Y-61883213D01*
X62576247Y-61883213D02*
X62433390Y-61883213D01*
X62433390Y-61883213D02*
X62242914Y-61835594D01*
X62242914Y-61835594D02*
X62147676Y-61787975D01*
X62147676Y-61787975D02*
X62052438Y-61692737D01*
X62052438Y-61692737D02*
X62004819Y-61549880D01*
X62004819Y-61549880D02*
X62004819Y-61454642D01*
X62004819Y-61454642D02*
X62052438Y-61311785D01*
X62052438Y-61311785D02*
X62100057Y-61264166D01*
X62433390Y-60692737D02*
X62385771Y-60787975D01*
X62385771Y-60787975D02*
X62338152Y-60835594D01*
X62338152Y-60835594D02*
X62242914Y-60883213D01*
X62242914Y-60883213D02*
X62195295Y-60883213D01*
X62195295Y-60883213D02*
X62100057Y-60835594D01*
X62100057Y-60835594D02*
X62052438Y-60787975D01*
X62052438Y-60787975D02*
X62004819Y-60692737D01*
X62004819Y-60692737D02*
X62004819Y-60502261D01*
X62004819Y-60502261D02*
X62052438Y-60407023D01*
X62052438Y-60407023D02*
X62100057Y-60359404D01*
X62100057Y-60359404D02*
X62195295Y-60311785D01*
X62195295Y-60311785D02*
X62242914Y-60311785D01*
X62242914Y-60311785D02*
X62338152Y-60359404D01*
X62338152Y-60359404D02*
X62385771Y-60407023D01*
X62385771Y-60407023D02*
X62433390Y-60502261D01*
X62433390Y-60502261D02*
X62433390Y-60692737D01*
X62433390Y-60692737D02*
X62481009Y-60787975D01*
X62481009Y-60787975D02*
X62528628Y-60835594D01*
X62528628Y-60835594D02*
X62623866Y-60883213D01*
X62623866Y-60883213D02*
X62814342Y-60883213D01*
X62814342Y-60883213D02*
X62909580Y-60835594D01*
X62909580Y-60835594D02*
X62957200Y-60787975D01*
X62957200Y-60787975D02*
X63004819Y-60692737D01*
X63004819Y-60692737D02*
X63004819Y-60502261D01*
X63004819Y-60502261D02*
X62957200Y-60407023D01*
X62957200Y-60407023D02*
X62909580Y-60359404D01*
X62909580Y-60359404D02*
X62814342Y-60311785D01*
X62814342Y-60311785D02*
X62623866Y-60311785D01*
X62623866Y-60311785D02*
X62528628Y-60359404D01*
X62528628Y-60359404D02*
X62481009Y-60407023D01*
X62481009Y-60407023D02*
X62433390Y-60502261D01*
D11*
X81854318Y-85392381D02*
X80584318Y-85392381D01*
X80584318Y-85392381D02*
X80584318Y-85090000D01*
X80584318Y-85090000D02*
X80644794Y-84908571D01*
X80644794Y-84908571D02*
X80765746Y-84787619D01*
X80765746Y-84787619D02*
X80886699Y-84727142D01*
X80886699Y-84727142D02*
X81128603Y-84666666D01*
X81128603Y-84666666D02*
X81310032Y-84666666D01*
X81310032Y-84666666D02*
X81551937Y-84727142D01*
X81551937Y-84727142D02*
X81672889Y-84787619D01*
X81672889Y-84787619D02*
X81793842Y-84908571D01*
X81793842Y-84908571D02*
X81854318Y-85090000D01*
X81854318Y-85090000D02*
X81854318Y-85392381D01*
X81007651Y-83578095D02*
X81854318Y-83578095D01*
X80523842Y-83880476D02*
X81430984Y-84182857D01*
X81430984Y-84182857D02*
X81430984Y-83396666D01*
D10*
X123930580Y-83573857D02*
X123978200Y-83621476D01*
X123978200Y-83621476D02*
X124025819Y-83764333D01*
X124025819Y-83764333D02*
X124025819Y-83859571D01*
X124025819Y-83859571D02*
X123978200Y-84002428D01*
X123978200Y-84002428D02*
X123882961Y-84097666D01*
X123882961Y-84097666D02*
X123787723Y-84145285D01*
X123787723Y-84145285D02*
X123597247Y-84192904D01*
X123597247Y-84192904D02*
X123454390Y-84192904D01*
X123454390Y-84192904D02*
X123263914Y-84145285D01*
X123263914Y-84145285D02*
X123168676Y-84097666D01*
X123168676Y-84097666D02*
X123073438Y-84002428D01*
X123073438Y-84002428D02*
X123025819Y-83859571D01*
X123025819Y-83859571D02*
X123025819Y-83764333D01*
X123025819Y-83764333D02*
X123073438Y-83621476D01*
X123073438Y-83621476D02*
X123121057Y-83573857D01*
X124025819Y-82621476D02*
X124025819Y-83192904D01*
X124025819Y-82907190D02*
X123025819Y-82907190D01*
X123025819Y-82907190D02*
X123168676Y-83002428D01*
X123168676Y-83002428D02*
X123263914Y-83097666D01*
X123263914Y-83097666D02*
X123311533Y-83192904D01*
X123454390Y-82050047D02*
X123406771Y-82145285D01*
X123406771Y-82145285D02*
X123359152Y-82192904D01*
X123359152Y-82192904D02*
X123263914Y-82240523D01*
X123263914Y-82240523D02*
X123216295Y-82240523D01*
X123216295Y-82240523D02*
X123121057Y-82192904D01*
X123121057Y-82192904D02*
X123073438Y-82145285D01*
X123073438Y-82145285D02*
X123025819Y-82050047D01*
X123025819Y-82050047D02*
X123025819Y-81859571D01*
X123025819Y-81859571D02*
X123073438Y-81764333D01*
X123073438Y-81764333D02*
X123121057Y-81716714D01*
X123121057Y-81716714D02*
X123216295Y-81669095D01*
X123216295Y-81669095D02*
X123263914Y-81669095D01*
X123263914Y-81669095D02*
X123359152Y-81716714D01*
X123359152Y-81716714D02*
X123406771Y-81764333D01*
X123406771Y-81764333D02*
X123454390Y-81859571D01*
X123454390Y-81859571D02*
X123454390Y-82050047D01*
X123454390Y-82050047D02*
X123502009Y-82145285D01*
X123502009Y-82145285D02*
X123549628Y-82192904D01*
X123549628Y-82192904D02*
X123644866Y-82240523D01*
X123644866Y-82240523D02*
X123835342Y-82240523D01*
X123835342Y-82240523D02*
X123930580Y-82192904D01*
X123930580Y-82192904D02*
X123978200Y-82145285D01*
X123978200Y-82145285D02*
X124025819Y-82050047D01*
X124025819Y-82050047D02*
X124025819Y-81859571D01*
X124025819Y-81859571D02*
X123978200Y-81764333D01*
X123978200Y-81764333D02*
X123930580Y-81716714D01*
X123930580Y-81716714D02*
X123835342Y-81669095D01*
X123835342Y-81669095D02*
X123644866Y-81669095D01*
X123644866Y-81669095D02*
X123549628Y-81716714D01*
X123549628Y-81716714D02*
X123502009Y-81764333D01*
X123502009Y-81764333D02*
X123454390Y-81859571D01*
X74287142Y-89844819D02*
X73953809Y-89368628D01*
X73715714Y-89844819D02*
X73715714Y-88844819D01*
X73715714Y-88844819D02*
X74096666Y-88844819D01*
X74096666Y-88844819D02*
X74191904Y-88892438D01*
X74191904Y-88892438D02*
X74239523Y-88940057D01*
X74239523Y-88940057D02*
X74287142Y-89035295D01*
X74287142Y-89035295D02*
X74287142Y-89178152D01*
X74287142Y-89178152D02*
X74239523Y-89273390D01*
X74239523Y-89273390D02*
X74191904Y-89321009D01*
X74191904Y-89321009D02*
X74096666Y-89368628D01*
X74096666Y-89368628D02*
X73715714Y-89368628D01*
X75239523Y-89844819D02*
X74668095Y-89844819D01*
X74953809Y-89844819D02*
X74953809Y-88844819D01*
X74953809Y-88844819D02*
X74858571Y-88987676D01*
X74858571Y-88987676D02*
X74763333Y-89082914D01*
X74763333Y-89082914D02*
X74668095Y-89130533D01*
X75858571Y-88844819D02*
X75953809Y-88844819D01*
X75953809Y-88844819D02*
X76049047Y-88892438D01*
X76049047Y-88892438D02*
X76096666Y-88940057D01*
X76096666Y-88940057D02*
X76144285Y-89035295D01*
X76144285Y-89035295D02*
X76191904Y-89225771D01*
X76191904Y-89225771D02*
X76191904Y-89463866D01*
X76191904Y-89463866D02*
X76144285Y-89654342D01*
X76144285Y-89654342D02*
X76096666Y-89749580D01*
X76096666Y-89749580D02*
X76049047Y-89797200D01*
X76049047Y-89797200D02*
X75953809Y-89844819D01*
X75953809Y-89844819D02*
X75858571Y-89844819D01*
X75858571Y-89844819D02*
X75763333Y-89797200D01*
X75763333Y-89797200D02*
X75715714Y-89749580D01*
X75715714Y-89749580D02*
X75668095Y-89654342D01*
X75668095Y-89654342D02*
X75620476Y-89463866D01*
X75620476Y-89463866D02*
X75620476Y-89225771D01*
X75620476Y-89225771D02*
X75668095Y-89035295D01*
X75668095Y-89035295D02*
X75715714Y-88940057D01*
X75715714Y-88940057D02*
X75763333Y-88892438D01*
X75763333Y-88892438D02*
X75858571Y-88844819D01*
X126343580Y-111386857D02*
X126391200Y-111434476D01*
X126391200Y-111434476D02*
X126438819Y-111577333D01*
X126438819Y-111577333D02*
X126438819Y-111672571D01*
X126438819Y-111672571D02*
X126391200Y-111815428D01*
X126391200Y-111815428D02*
X126295961Y-111910666D01*
X126295961Y-111910666D02*
X126200723Y-111958285D01*
X126200723Y-111958285D02*
X126010247Y-112005904D01*
X126010247Y-112005904D02*
X125867390Y-112005904D01*
X125867390Y-112005904D02*
X125676914Y-111958285D01*
X125676914Y-111958285D02*
X125581676Y-111910666D01*
X125581676Y-111910666D02*
X125486438Y-111815428D01*
X125486438Y-111815428D02*
X125438819Y-111672571D01*
X125438819Y-111672571D02*
X125438819Y-111577333D01*
X125438819Y-111577333D02*
X125486438Y-111434476D01*
X125486438Y-111434476D02*
X125534057Y-111386857D01*
X125534057Y-111005904D02*
X125486438Y-110958285D01*
X125486438Y-110958285D02*
X125438819Y-110863047D01*
X125438819Y-110863047D02*
X125438819Y-110624952D01*
X125438819Y-110624952D02*
X125486438Y-110529714D01*
X125486438Y-110529714D02*
X125534057Y-110482095D01*
X125534057Y-110482095D02*
X125629295Y-110434476D01*
X125629295Y-110434476D02*
X125724533Y-110434476D01*
X125724533Y-110434476D02*
X125867390Y-110482095D01*
X125867390Y-110482095D02*
X126438819Y-111053523D01*
X126438819Y-111053523D02*
X126438819Y-110434476D01*
X125867390Y-109863047D02*
X125819771Y-109958285D01*
X125819771Y-109958285D02*
X125772152Y-110005904D01*
X125772152Y-110005904D02*
X125676914Y-110053523D01*
X125676914Y-110053523D02*
X125629295Y-110053523D01*
X125629295Y-110053523D02*
X125534057Y-110005904D01*
X125534057Y-110005904D02*
X125486438Y-109958285D01*
X125486438Y-109958285D02*
X125438819Y-109863047D01*
X125438819Y-109863047D02*
X125438819Y-109672571D01*
X125438819Y-109672571D02*
X125486438Y-109577333D01*
X125486438Y-109577333D02*
X125534057Y-109529714D01*
X125534057Y-109529714D02*
X125629295Y-109482095D01*
X125629295Y-109482095D02*
X125676914Y-109482095D01*
X125676914Y-109482095D02*
X125772152Y-109529714D01*
X125772152Y-109529714D02*
X125819771Y-109577333D01*
X125819771Y-109577333D02*
X125867390Y-109672571D01*
X125867390Y-109672571D02*
X125867390Y-109863047D01*
X125867390Y-109863047D02*
X125915009Y-109958285D01*
X125915009Y-109958285D02*
X125962628Y-110005904D01*
X125962628Y-110005904D02*
X126057866Y-110053523D01*
X126057866Y-110053523D02*
X126248342Y-110053523D01*
X126248342Y-110053523D02*
X126343580Y-110005904D01*
X126343580Y-110005904D02*
X126391200Y-109958285D01*
X126391200Y-109958285D02*
X126438819Y-109863047D01*
X126438819Y-109863047D02*
X126438819Y-109672571D01*
X126438819Y-109672571D02*
X126391200Y-109577333D01*
X126391200Y-109577333D02*
X126343580Y-109529714D01*
X126343580Y-109529714D02*
X126248342Y-109482095D01*
X126248342Y-109482095D02*
X126057866Y-109482095D01*
X126057866Y-109482095D02*
X125962628Y-109529714D01*
X125962628Y-109529714D02*
X125915009Y-109577333D01*
X125915009Y-109577333D02*
X125867390Y-109672571D01*
D11*
X65218618Y-85537318D02*
X65218618Y-84267318D01*
X65218618Y-84267318D02*
X65520999Y-84267318D01*
X65520999Y-84267318D02*
X65702428Y-84327794D01*
X65702428Y-84327794D02*
X65823380Y-84448746D01*
X65823380Y-84448746D02*
X65883857Y-84569699D01*
X65883857Y-84569699D02*
X65944333Y-84811603D01*
X65944333Y-84811603D02*
X65944333Y-84993032D01*
X65944333Y-84993032D02*
X65883857Y-85234937D01*
X65883857Y-85234937D02*
X65823380Y-85355889D01*
X65823380Y-85355889D02*
X65702428Y-85476842D01*
X65702428Y-85476842D02*
X65520999Y-85537318D01*
X65520999Y-85537318D02*
X65218618Y-85537318D01*
X66367666Y-84267318D02*
X67153857Y-84267318D01*
X67153857Y-84267318D02*
X66730523Y-84751127D01*
X66730523Y-84751127D02*
X66911952Y-84751127D01*
X66911952Y-84751127D02*
X67032904Y-84811603D01*
X67032904Y-84811603D02*
X67093380Y-84872080D01*
X67093380Y-84872080D02*
X67153857Y-84993032D01*
X67153857Y-84993032D02*
X67153857Y-85295413D01*
X67153857Y-85295413D02*
X67093380Y-85416365D01*
X67093380Y-85416365D02*
X67032904Y-85476842D01*
X67032904Y-85476842D02*
X66911952Y-85537318D01*
X66911952Y-85537318D02*
X66549095Y-85537318D01*
X66549095Y-85537318D02*
X66428142Y-85476842D01*
X66428142Y-85476842D02*
X66367666Y-85416365D01*
D10*
X109188642Y-109101819D02*
X108855309Y-108625628D01*
X108617214Y-109101819D02*
X108617214Y-108101819D01*
X108617214Y-108101819D02*
X108998166Y-108101819D01*
X108998166Y-108101819D02*
X109093404Y-108149438D01*
X109093404Y-108149438D02*
X109141023Y-108197057D01*
X109141023Y-108197057D02*
X109188642Y-108292295D01*
X109188642Y-108292295D02*
X109188642Y-108435152D01*
X109188642Y-108435152D02*
X109141023Y-108530390D01*
X109141023Y-108530390D02*
X109093404Y-108578009D01*
X109093404Y-108578009D02*
X108998166Y-108625628D01*
X108998166Y-108625628D02*
X108617214Y-108625628D01*
X109521976Y-108101819D02*
X110141023Y-108101819D01*
X110141023Y-108101819D02*
X109807690Y-108482771D01*
X109807690Y-108482771D02*
X109950547Y-108482771D01*
X109950547Y-108482771D02*
X110045785Y-108530390D01*
X110045785Y-108530390D02*
X110093404Y-108578009D01*
X110093404Y-108578009D02*
X110141023Y-108673247D01*
X110141023Y-108673247D02*
X110141023Y-108911342D01*
X110141023Y-108911342D02*
X110093404Y-109006580D01*
X110093404Y-109006580D02*
X110045785Y-109054200D01*
X110045785Y-109054200D02*
X109950547Y-109101819D01*
X109950547Y-109101819D02*
X109664833Y-109101819D01*
X109664833Y-109101819D02*
X109569595Y-109054200D01*
X109569595Y-109054200D02*
X109521976Y-109006580D01*
X110998166Y-108435152D02*
X110998166Y-109101819D01*
X110760071Y-108054200D02*
X110521976Y-108768485D01*
X110521976Y-108768485D02*
X111141023Y-108768485D01*
X83703819Y-121673857D02*
X83227628Y-122007190D01*
X83703819Y-122245285D02*
X82703819Y-122245285D01*
X82703819Y-122245285D02*
X82703819Y-121864333D01*
X82703819Y-121864333D02*
X82751438Y-121769095D01*
X82751438Y-121769095D02*
X82799057Y-121721476D01*
X82799057Y-121721476D02*
X82894295Y-121673857D01*
X82894295Y-121673857D02*
X83037152Y-121673857D01*
X83037152Y-121673857D02*
X83132390Y-121721476D01*
X83132390Y-121721476D02*
X83180009Y-121769095D01*
X83180009Y-121769095D02*
X83227628Y-121864333D01*
X83227628Y-121864333D02*
X83227628Y-122245285D01*
X82703819Y-121340523D02*
X82703819Y-120721476D01*
X82703819Y-120721476D02*
X83084771Y-121054809D01*
X83084771Y-121054809D02*
X83084771Y-120911952D01*
X83084771Y-120911952D02*
X83132390Y-120816714D01*
X83132390Y-120816714D02*
X83180009Y-120769095D01*
X83180009Y-120769095D02*
X83275247Y-120721476D01*
X83275247Y-120721476D02*
X83513342Y-120721476D01*
X83513342Y-120721476D02*
X83608580Y-120769095D01*
X83608580Y-120769095D02*
X83656200Y-120816714D01*
X83656200Y-120816714D02*
X83703819Y-120911952D01*
X83703819Y-120911952D02*
X83703819Y-121197666D01*
X83703819Y-121197666D02*
X83656200Y-121292904D01*
X83656200Y-121292904D02*
X83608580Y-121340523D01*
X83132390Y-120150047D02*
X83084771Y-120245285D01*
X83084771Y-120245285D02*
X83037152Y-120292904D01*
X83037152Y-120292904D02*
X82941914Y-120340523D01*
X82941914Y-120340523D02*
X82894295Y-120340523D01*
X82894295Y-120340523D02*
X82799057Y-120292904D01*
X82799057Y-120292904D02*
X82751438Y-120245285D01*
X82751438Y-120245285D02*
X82703819Y-120150047D01*
X82703819Y-120150047D02*
X82703819Y-119959571D01*
X82703819Y-119959571D02*
X82751438Y-119864333D01*
X82751438Y-119864333D02*
X82799057Y-119816714D01*
X82799057Y-119816714D02*
X82894295Y-119769095D01*
X82894295Y-119769095D02*
X82941914Y-119769095D01*
X82941914Y-119769095D02*
X83037152Y-119816714D01*
X83037152Y-119816714D02*
X83084771Y-119864333D01*
X83084771Y-119864333D02*
X83132390Y-119959571D01*
X83132390Y-119959571D02*
X83132390Y-120150047D01*
X83132390Y-120150047D02*
X83180009Y-120245285D01*
X83180009Y-120245285D02*
X83227628Y-120292904D01*
X83227628Y-120292904D02*
X83322866Y-120340523D01*
X83322866Y-120340523D02*
X83513342Y-120340523D01*
X83513342Y-120340523D02*
X83608580Y-120292904D01*
X83608580Y-120292904D02*
X83656200Y-120245285D01*
X83656200Y-120245285D02*
X83703819Y-120150047D01*
X83703819Y-120150047D02*
X83703819Y-119959571D01*
X83703819Y-119959571D02*
X83656200Y-119864333D01*
X83656200Y-119864333D02*
X83608580Y-119816714D01*
X83608580Y-119816714D02*
X83513342Y-119769095D01*
X83513342Y-119769095D02*
X83322866Y-119769095D01*
X83322866Y-119769095D02*
X83227628Y-119816714D01*
X83227628Y-119816714D02*
X83180009Y-119864333D01*
X83180009Y-119864333D02*
X83132390Y-119959571D01*
X95957580Y-104274857D02*
X96005200Y-104322476D01*
X96005200Y-104322476D02*
X96052819Y-104465333D01*
X96052819Y-104465333D02*
X96052819Y-104560571D01*
X96052819Y-104560571D02*
X96005200Y-104703428D01*
X96005200Y-104703428D02*
X95909961Y-104798666D01*
X95909961Y-104798666D02*
X95814723Y-104846285D01*
X95814723Y-104846285D02*
X95624247Y-104893904D01*
X95624247Y-104893904D02*
X95481390Y-104893904D01*
X95481390Y-104893904D02*
X95290914Y-104846285D01*
X95290914Y-104846285D02*
X95195676Y-104798666D01*
X95195676Y-104798666D02*
X95100438Y-104703428D01*
X95100438Y-104703428D02*
X95052819Y-104560571D01*
X95052819Y-104560571D02*
X95052819Y-104465333D01*
X95052819Y-104465333D02*
X95100438Y-104322476D01*
X95100438Y-104322476D02*
X95148057Y-104274857D01*
X95148057Y-103893904D02*
X95100438Y-103846285D01*
X95100438Y-103846285D02*
X95052819Y-103751047D01*
X95052819Y-103751047D02*
X95052819Y-103512952D01*
X95052819Y-103512952D02*
X95100438Y-103417714D01*
X95100438Y-103417714D02*
X95148057Y-103370095D01*
X95148057Y-103370095D02*
X95243295Y-103322476D01*
X95243295Y-103322476D02*
X95338533Y-103322476D01*
X95338533Y-103322476D02*
X95481390Y-103370095D01*
X95481390Y-103370095D02*
X96052819Y-103941523D01*
X96052819Y-103941523D02*
X96052819Y-103322476D01*
X95148057Y-102941523D02*
X95100438Y-102893904D01*
X95100438Y-102893904D02*
X95052819Y-102798666D01*
X95052819Y-102798666D02*
X95052819Y-102560571D01*
X95052819Y-102560571D02*
X95100438Y-102465333D01*
X95100438Y-102465333D02*
X95148057Y-102417714D01*
X95148057Y-102417714D02*
X95243295Y-102370095D01*
X95243295Y-102370095D02*
X95338533Y-102370095D01*
X95338533Y-102370095D02*
X95481390Y-102417714D01*
X95481390Y-102417714D02*
X96052819Y-102989142D01*
X96052819Y-102989142D02*
X96052819Y-102370095D01*
X92321142Y-100943580D02*
X92273523Y-100991200D01*
X92273523Y-100991200D02*
X92130666Y-101038819D01*
X92130666Y-101038819D02*
X92035428Y-101038819D01*
X92035428Y-101038819D02*
X91892571Y-100991200D01*
X91892571Y-100991200D02*
X91797333Y-100895961D01*
X91797333Y-100895961D02*
X91749714Y-100800723D01*
X91749714Y-100800723D02*
X91702095Y-100610247D01*
X91702095Y-100610247D02*
X91702095Y-100467390D01*
X91702095Y-100467390D02*
X91749714Y-100276914D01*
X91749714Y-100276914D02*
X91797333Y-100181676D01*
X91797333Y-100181676D02*
X91892571Y-100086438D01*
X91892571Y-100086438D02*
X92035428Y-100038819D01*
X92035428Y-100038819D02*
X92130666Y-100038819D01*
X92130666Y-100038819D02*
X92273523Y-100086438D01*
X92273523Y-100086438D02*
X92321142Y-100134057D01*
X92702095Y-100134057D02*
X92749714Y-100086438D01*
X92749714Y-100086438D02*
X92844952Y-100038819D01*
X92844952Y-100038819D02*
X93083047Y-100038819D01*
X93083047Y-100038819D02*
X93178285Y-100086438D01*
X93178285Y-100086438D02*
X93225904Y-100134057D01*
X93225904Y-100134057D02*
X93273523Y-100229295D01*
X93273523Y-100229295D02*
X93273523Y-100324533D01*
X93273523Y-100324533D02*
X93225904Y-100467390D01*
X93225904Y-100467390D02*
X92654476Y-101038819D01*
X92654476Y-101038819D02*
X93273523Y-101038819D01*
X94178285Y-100038819D02*
X93702095Y-100038819D01*
X93702095Y-100038819D02*
X93654476Y-100515009D01*
X93654476Y-100515009D02*
X93702095Y-100467390D01*
X93702095Y-100467390D02*
X93797333Y-100419771D01*
X93797333Y-100419771D02*
X94035428Y-100419771D01*
X94035428Y-100419771D02*
X94130666Y-100467390D01*
X94130666Y-100467390D02*
X94178285Y-100515009D01*
X94178285Y-100515009D02*
X94225904Y-100610247D01*
X94225904Y-100610247D02*
X94225904Y-100848342D01*
X94225904Y-100848342D02*
X94178285Y-100943580D01*
X94178285Y-100943580D02*
X94130666Y-100991200D01*
X94130666Y-100991200D02*
X94035428Y-101038819D01*
X94035428Y-101038819D02*
X93797333Y-101038819D01*
X93797333Y-101038819D02*
X93702095Y-100991200D01*
X93702095Y-100991200D02*
X93654476Y-100943580D01*
X106886476Y-114422819D02*
X106886476Y-115137104D01*
X106886476Y-115137104D02*
X106838857Y-115279961D01*
X106838857Y-115279961D02*
X106743619Y-115375200D01*
X106743619Y-115375200D02*
X106600762Y-115422819D01*
X106600762Y-115422819D02*
X106505524Y-115422819D01*
X107886476Y-115422819D02*
X107315048Y-115422819D01*
X107600762Y-115422819D02*
X107600762Y-114422819D01*
X107600762Y-114422819D02*
X107505524Y-114565676D01*
X107505524Y-114565676D02*
X107410286Y-114660914D01*
X107410286Y-114660914D02*
X107315048Y-114708533D01*
X108219810Y-114422819D02*
X108838857Y-114422819D01*
X108838857Y-114422819D02*
X108505524Y-114803771D01*
X108505524Y-114803771D02*
X108648381Y-114803771D01*
X108648381Y-114803771D02*
X108743619Y-114851390D01*
X108743619Y-114851390D02*
X108791238Y-114899009D01*
X108791238Y-114899009D02*
X108838857Y-114994247D01*
X108838857Y-114994247D02*
X108838857Y-115232342D01*
X108838857Y-115232342D02*
X108791238Y-115327580D01*
X108791238Y-115327580D02*
X108743619Y-115375200D01*
X108743619Y-115375200D02*
X108648381Y-115422819D01*
X108648381Y-115422819D02*
X108362667Y-115422819D01*
X108362667Y-115422819D02*
X108267429Y-115375200D01*
X108267429Y-115375200D02*
X108219810Y-115327580D01*
D11*
X85640333Y-78679318D02*
X85035571Y-78679318D01*
X85035571Y-78679318D02*
X85035571Y-77409318D01*
X86728905Y-78679318D02*
X86003190Y-78679318D01*
X86366047Y-78679318D02*
X86366047Y-77409318D01*
X86366047Y-77409318D02*
X86245095Y-77590746D01*
X86245095Y-77590746D02*
X86124143Y-77711699D01*
X86124143Y-77711699D02*
X86003190Y-77772175D01*
X101047142Y-112452949D02*
X101107618Y-112271520D01*
X101107618Y-112271520D02*
X101107618Y-111969139D01*
X101107618Y-111969139D02*
X101047142Y-111848187D01*
X101047142Y-111848187D02*
X100986665Y-111787711D01*
X100986665Y-111787711D02*
X100865713Y-111727234D01*
X100865713Y-111727234D02*
X100744761Y-111727234D01*
X100744761Y-111727234D02*
X100623808Y-111787711D01*
X100623808Y-111787711D02*
X100563332Y-111848187D01*
X100563332Y-111848187D02*
X100502856Y-111969139D01*
X100502856Y-111969139D02*
X100442380Y-112211044D01*
X100442380Y-112211044D02*
X100381903Y-112331996D01*
X100381903Y-112331996D02*
X100321427Y-112392473D01*
X100321427Y-112392473D02*
X100200475Y-112452949D01*
X100200475Y-112452949D02*
X100079522Y-112452949D01*
X100079522Y-112452949D02*
X99958570Y-112392473D01*
X99958570Y-112392473D02*
X99898094Y-112331996D01*
X99898094Y-112331996D02*
X99837618Y-112211044D01*
X99837618Y-112211044D02*
X99837618Y-111908663D01*
X99837618Y-111908663D02*
X99898094Y-111727234D01*
X99837618Y-111303901D02*
X99837618Y-110517710D01*
X99837618Y-110517710D02*
X100321427Y-110941044D01*
X100321427Y-110941044D02*
X100321427Y-110759615D01*
X100321427Y-110759615D02*
X100381903Y-110638663D01*
X100381903Y-110638663D02*
X100442380Y-110578187D01*
X100442380Y-110578187D02*
X100563332Y-110517710D01*
X100563332Y-110517710D02*
X100865713Y-110517710D01*
X100865713Y-110517710D02*
X100986665Y-110578187D01*
X100986665Y-110578187D02*
X101047142Y-110638663D01*
X101047142Y-110638663D02*
X101107618Y-110759615D01*
X101107618Y-110759615D02*
X101107618Y-111122472D01*
X101107618Y-111122472D02*
X101047142Y-111243425D01*
X101047142Y-111243425D02*
X100986665Y-111303901D01*
D10*
X126865142Y-104594819D02*
X126531809Y-104118628D01*
X126293714Y-104594819D02*
X126293714Y-103594819D01*
X126293714Y-103594819D02*
X126674666Y-103594819D01*
X126674666Y-103594819D02*
X126769904Y-103642438D01*
X126769904Y-103642438D02*
X126817523Y-103690057D01*
X126817523Y-103690057D02*
X126865142Y-103785295D01*
X126865142Y-103785295D02*
X126865142Y-103928152D01*
X126865142Y-103928152D02*
X126817523Y-104023390D01*
X126817523Y-104023390D02*
X126769904Y-104071009D01*
X126769904Y-104071009D02*
X126674666Y-104118628D01*
X126674666Y-104118628D02*
X126293714Y-104118628D01*
X127198476Y-103594819D02*
X127817523Y-103594819D01*
X127817523Y-103594819D02*
X127484190Y-103975771D01*
X127484190Y-103975771D02*
X127627047Y-103975771D01*
X127627047Y-103975771D02*
X127722285Y-104023390D01*
X127722285Y-104023390D02*
X127769904Y-104071009D01*
X127769904Y-104071009D02*
X127817523Y-104166247D01*
X127817523Y-104166247D02*
X127817523Y-104404342D01*
X127817523Y-104404342D02*
X127769904Y-104499580D01*
X127769904Y-104499580D02*
X127722285Y-104547200D01*
X127722285Y-104547200D02*
X127627047Y-104594819D01*
X127627047Y-104594819D02*
X127341333Y-104594819D01*
X127341333Y-104594819D02*
X127246095Y-104547200D01*
X127246095Y-104547200D02*
X127198476Y-104499580D01*
X128674666Y-103594819D02*
X128484190Y-103594819D01*
X128484190Y-103594819D02*
X128388952Y-103642438D01*
X128388952Y-103642438D02*
X128341333Y-103690057D01*
X128341333Y-103690057D02*
X128246095Y-103832914D01*
X128246095Y-103832914D02*
X128198476Y-104023390D01*
X128198476Y-104023390D02*
X128198476Y-104404342D01*
X128198476Y-104404342D02*
X128246095Y-104499580D01*
X128246095Y-104499580D02*
X128293714Y-104547200D01*
X128293714Y-104547200D02*
X128388952Y-104594819D01*
X128388952Y-104594819D02*
X128579428Y-104594819D01*
X128579428Y-104594819D02*
X128674666Y-104547200D01*
X128674666Y-104547200D02*
X128722285Y-104499580D01*
X128722285Y-104499580D02*
X128769904Y-104404342D01*
X128769904Y-104404342D02*
X128769904Y-104166247D01*
X128769904Y-104166247D02*
X128722285Y-104071009D01*
X128722285Y-104071009D02*
X128674666Y-104023390D01*
X128674666Y-104023390D02*
X128579428Y-103975771D01*
X128579428Y-103975771D02*
X128388952Y-103975771D01*
X128388952Y-103975771D02*
X128293714Y-104023390D01*
X128293714Y-104023390D02*
X128246095Y-104071009D01*
X128246095Y-104071009D02*
X128198476Y-104166247D01*
D13*
X112133142Y-97988219D02*
X111799809Y-97512028D01*
X111561714Y-97988219D02*
X111561714Y-96988219D01*
X111561714Y-96988219D02*
X111942666Y-96988219D01*
X111942666Y-96988219D02*
X112037904Y-97035838D01*
X112037904Y-97035838D02*
X112085523Y-97083457D01*
X112085523Y-97083457D02*
X112133142Y-97178695D01*
X112133142Y-97178695D02*
X112133142Y-97321552D01*
X112133142Y-97321552D02*
X112085523Y-97416790D01*
X112085523Y-97416790D02*
X112037904Y-97464409D01*
X112037904Y-97464409D02*
X111942666Y-97512028D01*
X111942666Y-97512028D02*
X111561714Y-97512028D01*
X112466476Y-96988219D02*
X113085523Y-96988219D01*
X113085523Y-96988219D02*
X112752190Y-97369171D01*
X112752190Y-97369171D02*
X112895047Y-97369171D01*
X112895047Y-97369171D02*
X112990285Y-97416790D01*
X112990285Y-97416790D02*
X113037904Y-97464409D01*
X113037904Y-97464409D02*
X113085523Y-97559647D01*
X113085523Y-97559647D02*
X113085523Y-97797742D01*
X113085523Y-97797742D02*
X113037904Y-97892980D01*
X113037904Y-97892980D02*
X112990285Y-97940600D01*
X112990285Y-97940600D02*
X112895047Y-97988219D01*
X112895047Y-97988219D02*
X112609333Y-97988219D01*
X112609333Y-97988219D02*
X112514095Y-97940600D01*
X112514095Y-97940600D02*
X112466476Y-97892980D01*
X113704571Y-96988219D02*
X113799809Y-96988219D01*
X113799809Y-96988219D02*
X113895047Y-97035838D01*
X113895047Y-97035838D02*
X113942666Y-97083457D01*
X113942666Y-97083457D02*
X113990285Y-97178695D01*
X113990285Y-97178695D02*
X114037904Y-97369171D01*
X114037904Y-97369171D02*
X114037904Y-97607266D01*
X114037904Y-97607266D02*
X113990285Y-97797742D01*
X113990285Y-97797742D02*
X113942666Y-97892980D01*
X113942666Y-97892980D02*
X113895047Y-97940600D01*
X113895047Y-97940600D02*
X113799809Y-97988219D01*
X113799809Y-97988219D02*
X113704571Y-97988219D01*
X113704571Y-97988219D02*
X113609333Y-97940600D01*
X113609333Y-97940600D02*
X113561714Y-97892980D01*
X113561714Y-97892980D02*
X113514095Y-97797742D01*
X113514095Y-97797742D02*
X113466476Y-97607266D01*
X113466476Y-97607266D02*
X113466476Y-97369171D01*
X113466476Y-97369171D02*
X113514095Y-97178695D01*
X113514095Y-97178695D02*
X113561714Y-97083457D01*
X113561714Y-97083457D02*
X113609333Y-97035838D01*
X113609333Y-97035838D02*
X113704571Y-96988219D01*
D10*
X118737142Y-70144819D02*
X118403809Y-69668628D01*
X118165714Y-70144819D02*
X118165714Y-69144819D01*
X118165714Y-69144819D02*
X118546666Y-69144819D01*
X118546666Y-69144819D02*
X118641904Y-69192438D01*
X118641904Y-69192438D02*
X118689523Y-69240057D01*
X118689523Y-69240057D02*
X118737142Y-69335295D01*
X118737142Y-69335295D02*
X118737142Y-69478152D01*
X118737142Y-69478152D02*
X118689523Y-69573390D01*
X118689523Y-69573390D02*
X118641904Y-69621009D01*
X118641904Y-69621009D02*
X118546666Y-69668628D01*
X118546666Y-69668628D02*
X118165714Y-69668628D01*
X119689523Y-70144819D02*
X119118095Y-70144819D01*
X119403809Y-70144819D02*
X119403809Y-69144819D01*
X119403809Y-69144819D02*
X119308571Y-69287676D01*
X119308571Y-69287676D02*
X119213333Y-69382914D01*
X119213333Y-69382914D02*
X119118095Y-69430533D01*
X120546666Y-69144819D02*
X120356190Y-69144819D01*
X120356190Y-69144819D02*
X120260952Y-69192438D01*
X120260952Y-69192438D02*
X120213333Y-69240057D01*
X120213333Y-69240057D02*
X120118095Y-69382914D01*
X120118095Y-69382914D02*
X120070476Y-69573390D01*
X120070476Y-69573390D02*
X120070476Y-69954342D01*
X120070476Y-69954342D02*
X120118095Y-70049580D01*
X120118095Y-70049580D02*
X120165714Y-70097200D01*
X120165714Y-70097200D02*
X120260952Y-70144819D01*
X120260952Y-70144819D02*
X120451428Y-70144819D01*
X120451428Y-70144819D02*
X120546666Y-70097200D01*
X120546666Y-70097200D02*
X120594285Y-70049580D01*
X120594285Y-70049580D02*
X120641904Y-69954342D01*
X120641904Y-69954342D02*
X120641904Y-69716247D01*
X120641904Y-69716247D02*
X120594285Y-69621009D01*
X120594285Y-69621009D02*
X120546666Y-69573390D01*
X120546666Y-69573390D02*
X120451428Y-69525771D01*
X120451428Y-69525771D02*
X120260952Y-69525771D01*
X120260952Y-69525771D02*
X120165714Y-69573390D01*
X120165714Y-69573390D02*
X120118095Y-69621009D01*
X120118095Y-69621009D02*
X120070476Y-69716247D01*
X114165142Y-105704819D02*
X113831809Y-105228628D01*
X113593714Y-105704819D02*
X113593714Y-104704819D01*
X113593714Y-104704819D02*
X113974666Y-104704819D01*
X113974666Y-104704819D02*
X114069904Y-104752438D01*
X114069904Y-104752438D02*
X114117523Y-104800057D01*
X114117523Y-104800057D02*
X114165142Y-104895295D01*
X114165142Y-104895295D02*
X114165142Y-105038152D01*
X114165142Y-105038152D02*
X114117523Y-105133390D01*
X114117523Y-105133390D02*
X114069904Y-105181009D01*
X114069904Y-105181009D02*
X113974666Y-105228628D01*
X113974666Y-105228628D02*
X113593714Y-105228628D01*
X114498476Y-104704819D02*
X115117523Y-104704819D01*
X115117523Y-104704819D02*
X114784190Y-105085771D01*
X114784190Y-105085771D02*
X114927047Y-105085771D01*
X114927047Y-105085771D02*
X115022285Y-105133390D01*
X115022285Y-105133390D02*
X115069904Y-105181009D01*
X115069904Y-105181009D02*
X115117523Y-105276247D01*
X115117523Y-105276247D02*
X115117523Y-105514342D01*
X115117523Y-105514342D02*
X115069904Y-105609580D01*
X115069904Y-105609580D02*
X115022285Y-105657200D01*
X115022285Y-105657200D02*
X114927047Y-105704819D01*
X114927047Y-105704819D02*
X114641333Y-105704819D01*
X114641333Y-105704819D02*
X114546095Y-105657200D01*
X114546095Y-105657200D02*
X114498476Y-105609580D01*
X116022285Y-104704819D02*
X115546095Y-104704819D01*
X115546095Y-104704819D02*
X115498476Y-105181009D01*
X115498476Y-105181009D02*
X115546095Y-105133390D01*
X115546095Y-105133390D02*
X115641333Y-105085771D01*
X115641333Y-105085771D02*
X115879428Y-105085771D01*
X115879428Y-105085771D02*
X115974666Y-105133390D01*
X115974666Y-105133390D02*
X116022285Y-105181009D01*
X116022285Y-105181009D02*
X116069904Y-105276247D01*
X116069904Y-105276247D02*
X116069904Y-105514342D01*
X116069904Y-105514342D02*
X116022285Y-105609580D01*
X116022285Y-105609580D02*
X115974666Y-105657200D01*
X115974666Y-105657200D02*
X115879428Y-105704819D01*
X115879428Y-105704819D02*
X115641333Y-105704819D01*
X115641333Y-105704819D02*
X115546095Y-105657200D01*
X115546095Y-105657200D02*
X115498476Y-105609580D01*
D11*
X41637856Y-93538318D02*
X41637856Y-92268318D01*
X41637856Y-92268318D02*
X41940237Y-92268318D01*
X41940237Y-92268318D02*
X42121666Y-92328794D01*
X42121666Y-92328794D02*
X42242618Y-92449746D01*
X42242618Y-92449746D02*
X42303095Y-92570699D01*
X42303095Y-92570699D02*
X42363571Y-92812603D01*
X42363571Y-92812603D02*
X42363571Y-92994032D01*
X42363571Y-92994032D02*
X42303095Y-93235937D01*
X42303095Y-93235937D02*
X42242618Y-93356889D01*
X42242618Y-93356889D02*
X42121666Y-93477842D01*
X42121666Y-93477842D02*
X41940237Y-93538318D01*
X41940237Y-93538318D02*
X41637856Y-93538318D01*
X43573095Y-93538318D02*
X42847380Y-93538318D01*
X43210237Y-93538318D02*
X43210237Y-92268318D01*
X43210237Y-92268318D02*
X43089285Y-92449746D01*
X43089285Y-92449746D02*
X42968333Y-92570699D01*
X42968333Y-92570699D02*
X42847380Y-92631175D01*
X44782619Y-93538318D02*
X44056904Y-93538318D01*
X44419761Y-93538318D02*
X44419761Y-92268318D01*
X44419761Y-92268318D02*
X44298809Y-92449746D01*
X44298809Y-92449746D02*
X44177857Y-92570699D01*
X44177857Y-92570699D02*
X44056904Y-92631175D01*
D10*
X92321142Y-99006819D02*
X91987809Y-98530628D01*
X91749714Y-99006819D02*
X91749714Y-98006819D01*
X91749714Y-98006819D02*
X92130666Y-98006819D01*
X92130666Y-98006819D02*
X92225904Y-98054438D01*
X92225904Y-98054438D02*
X92273523Y-98102057D01*
X92273523Y-98102057D02*
X92321142Y-98197295D01*
X92321142Y-98197295D02*
X92321142Y-98340152D01*
X92321142Y-98340152D02*
X92273523Y-98435390D01*
X92273523Y-98435390D02*
X92225904Y-98483009D01*
X92225904Y-98483009D02*
X92130666Y-98530628D01*
X92130666Y-98530628D02*
X91749714Y-98530628D01*
X92654476Y-98006819D02*
X93273523Y-98006819D01*
X93273523Y-98006819D02*
X92940190Y-98387771D01*
X92940190Y-98387771D02*
X93083047Y-98387771D01*
X93083047Y-98387771D02*
X93178285Y-98435390D01*
X93178285Y-98435390D02*
X93225904Y-98483009D01*
X93225904Y-98483009D02*
X93273523Y-98578247D01*
X93273523Y-98578247D02*
X93273523Y-98816342D01*
X93273523Y-98816342D02*
X93225904Y-98911580D01*
X93225904Y-98911580D02*
X93178285Y-98959200D01*
X93178285Y-98959200D02*
X93083047Y-99006819D01*
X93083047Y-99006819D02*
X92797333Y-99006819D01*
X92797333Y-99006819D02*
X92702095Y-98959200D01*
X92702095Y-98959200D02*
X92654476Y-98911580D01*
X93749714Y-99006819D02*
X93940190Y-99006819D01*
X93940190Y-99006819D02*
X94035428Y-98959200D01*
X94035428Y-98959200D02*
X94083047Y-98911580D01*
X94083047Y-98911580D02*
X94178285Y-98768723D01*
X94178285Y-98768723D02*
X94225904Y-98578247D01*
X94225904Y-98578247D02*
X94225904Y-98197295D01*
X94225904Y-98197295D02*
X94178285Y-98102057D01*
X94178285Y-98102057D02*
X94130666Y-98054438D01*
X94130666Y-98054438D02*
X94035428Y-98006819D01*
X94035428Y-98006819D02*
X93844952Y-98006819D01*
X93844952Y-98006819D02*
X93749714Y-98054438D01*
X93749714Y-98054438D02*
X93702095Y-98102057D01*
X93702095Y-98102057D02*
X93654476Y-98197295D01*
X93654476Y-98197295D02*
X93654476Y-98435390D01*
X93654476Y-98435390D02*
X93702095Y-98530628D01*
X93702095Y-98530628D02*
X93749714Y-98578247D01*
X93749714Y-98578247D02*
X93844952Y-98625866D01*
X93844952Y-98625866D02*
X94035428Y-98625866D01*
X94035428Y-98625866D02*
X94130666Y-98578247D01*
X94130666Y-98578247D02*
X94178285Y-98530628D01*
X94178285Y-98530628D02*
X94225904Y-98435390D01*
X102314476Y-114422819D02*
X102314476Y-115137104D01*
X102314476Y-115137104D02*
X102266857Y-115279961D01*
X102266857Y-115279961D02*
X102171619Y-115375200D01*
X102171619Y-115375200D02*
X102028762Y-115422819D01*
X102028762Y-115422819D02*
X101933524Y-115422819D01*
X103314476Y-115422819D02*
X102743048Y-115422819D01*
X103028762Y-115422819D02*
X103028762Y-114422819D01*
X103028762Y-114422819D02*
X102933524Y-114565676D01*
X102933524Y-114565676D02*
X102838286Y-114660914D01*
X102838286Y-114660914D02*
X102743048Y-114708533D01*
X103695429Y-114518057D02*
X103743048Y-114470438D01*
X103743048Y-114470438D02*
X103838286Y-114422819D01*
X103838286Y-114422819D02*
X104076381Y-114422819D01*
X104076381Y-114422819D02*
X104171619Y-114470438D01*
X104171619Y-114470438D02*
X104219238Y-114518057D01*
X104219238Y-114518057D02*
X104266857Y-114613295D01*
X104266857Y-114613295D02*
X104266857Y-114708533D01*
X104266857Y-114708533D02*
X104219238Y-114851390D01*
X104219238Y-114851390D02*
X103647810Y-115422819D01*
X103647810Y-115422819D02*
X104266857Y-115422819D01*
D14*
%TO.C,C12*%
X97690000Y-74153752D02*
X97690000Y-73631248D01*
X99160000Y-74153752D02*
X99160000Y-73631248D01*
%TO.C,C16*%
X127007233Y-75690000D02*
X127299767Y-75690000D01*
X127007233Y-76710000D02*
X127299767Y-76710000D01*
D13*
%TO.C,R44*%
X85534000Y-127992000D02*
X85534000Y-124992000D01*
D14*
%TO.C,R37*%
X88377500Y-121262224D02*
X88377500Y-120752776D01*
X89422500Y-121262224D02*
X89422500Y-120752776D01*
%TO.C,C27*%
X119886000Y-105009733D02*
X119886000Y-105302267D01*
X120906000Y-105009733D02*
X120906000Y-105302267D01*
D13*
%TO.C,D7*%
X113008000Y-120205000D02*
X115508000Y-120205000D01*
X115508000Y-118555000D02*
X113008000Y-118555000D01*
X115508000Y-120205000D02*
X115508000Y-118555000D01*
D14*
%TO.C,R24*%
X46213500Y-101853276D02*
X46213500Y-102362724D01*
X47258500Y-101853276D02*
X47258500Y-102362724D01*
D12*
%TO.C,U2*%
X122135000Y-100950000D02*
G75*
G02*
X121885000Y-100950000I-125000J0D01*
G01*
X121885000Y-100950000D02*
G75*
G02*
X122135000Y-100950000I125000J0D01*
G01*
D13*
%TO.C,J4*%
X140906000Y-106850000D02*
X140906000Y-116750000D01*
X140906000Y-116750000D02*
X146656000Y-116750000D01*
X143256000Y-106100000D02*
X143256000Y-106100000D01*
X143256000Y-106100000D02*
X143256000Y-106100000D01*
X143256000Y-106200000D02*
X143256000Y-106200000D01*
X146656000Y-106850000D02*
X140906000Y-106850000D01*
X146656000Y-116750000D02*
X146656000Y-106850000D01*
X143256000Y-106100000D02*
G75*
G02*
X143256000Y-106200000I0J-50000D01*
G01*
X143256000Y-106200000D02*
G75*
G02*
X143256000Y-106100000I0J50000D01*
G01*
X143256000Y-106200000D02*
G75*
G02*
X143256000Y-106100000I0J50000D01*
G01*
D14*
%TO.C,R25*%
X46721500Y-96266724D02*
X46721500Y-95757276D01*
X47766500Y-96266724D02*
X47766500Y-95757276D01*
%TO.C,R2*%
X51547500Y-74040276D02*
X51547500Y-74549724D01*
X52592500Y-74040276D02*
X52592500Y-74549724D01*
D15*
%TO.C,J3*%
X123528000Y-54754000D02*
X134488000Y-54754000D01*
X123528000Y-72754000D02*
X123528000Y-54754000D01*
X134488000Y-54754000D02*
X134488000Y-72754000D01*
X134488000Y-72754000D02*
X123528000Y-72754000D01*
D13*
X135448000Y-70504000D02*
G75*
G02*
X135348000Y-70504000I-50000J0D01*
G01*
X135348000Y-70504000D02*
G75*
G02*
X135448000Y-70504000I50000J0D01*
G01*
D14*
%TO.C,R43*%
X123429500Y-107950724D02*
X123429500Y-107441276D01*
X124474500Y-107950724D02*
X124474500Y-107441276D01*
D13*
%TO.C,D9*%
X112319000Y-116523000D02*
X112319000Y-118173000D01*
X112319000Y-118173000D02*
X114819000Y-118173000D01*
X114819000Y-116523000D02*
X112319000Y-116523000D01*
%TO.C,D2*%
X65256000Y-80073000D02*
X67756000Y-80073000D01*
X67756000Y-78423000D02*
X65256000Y-78423000D01*
X67756000Y-80073000D02*
X67756000Y-78423000D01*
D14*
%TO.C,C17*%
X121537000Y-79013267D02*
X121537000Y-78720733D01*
X122557000Y-79013267D02*
X122557000Y-78720733D01*
D13*
%TO.C,D14*%
X113675000Y-104316000D02*
X113675000Y-101766000D01*
X114925000Y-103466000D02*
X114925000Y-101766000D01*
D14*
%TO.C,R17*%
X105409276Y-81265500D02*
X105918724Y-81265500D01*
X105409276Y-82310500D02*
X105918724Y-82310500D01*
D15*
%TO.C,J8*%
X139926000Y-90024000D02*
X157926000Y-90024000D01*
X139926000Y-100984000D02*
X139926000Y-90024000D01*
X157926000Y-90024000D02*
X157926000Y-100984000D01*
X157926000Y-100984000D02*
X139926000Y-100984000D01*
D13*
X142226000Y-101894000D02*
G75*
G02*
X142126000Y-101894000I-50000J0D01*
G01*
X142126000Y-101894000D02*
G75*
G02*
X142226000Y-101894000I50000J0D01*
G01*
D14*
%TO.C,C10*%
X91565000Y-80726233D02*
X91565000Y-81018767D01*
X92585000Y-80726233D02*
X92585000Y-81018767D01*
%TO.C,R32*%
X127762724Y-99045500D02*
X127253276Y-99045500D01*
X127762724Y-100090500D02*
X127253276Y-100090500D01*
%TO.C,R22*%
X124713276Y-95489500D02*
X125222724Y-95489500D01*
X124713276Y-96534500D02*
X125222724Y-96534500D01*
%TO.C,R21*%
X107442724Y-92441500D02*
X106933276Y-92441500D01*
X107442724Y-93486500D02*
X106933276Y-93486500D01*
%TO.C,C26*%
X88390000Y-107549733D02*
X88390000Y-107842267D01*
X89410000Y-107549733D02*
X89410000Y-107842267D01*
%TO.C,R12*%
X90678724Y-83909000D02*
X90169276Y-83909000D01*
X90678724Y-84954000D02*
X90169276Y-84954000D01*
D13*
%TO.C,J5*%
X132056000Y-106850000D02*
X132056000Y-116750000D01*
X132056000Y-116750000D02*
X137806000Y-116750000D01*
X134406000Y-106100000D02*
X134406000Y-106100000D01*
X134406000Y-106100000D02*
X134406000Y-106100000D01*
X134406000Y-106200000D02*
X134406000Y-106200000D01*
X137806000Y-106850000D02*
X132056000Y-106850000D01*
X137806000Y-116750000D02*
X137806000Y-106850000D01*
X134406000Y-106100000D02*
G75*
G02*
X134406000Y-106200000I0J-50000D01*
G01*
X134406000Y-106200000D02*
G75*
G02*
X134406000Y-106100000I0J50000D01*
G01*
X134406000Y-106200000D02*
G75*
G02*
X134406000Y-106100000I0J50000D01*
G01*
D14*
%TO.C,C15*%
X122843733Y-75690000D02*
X123136267Y-75690000D01*
X122843733Y-76710000D02*
X123136267Y-76710000D01*
%TO.C,C20*%
X108982267Y-98550000D02*
X108689733Y-98550000D01*
X108982267Y-99570000D02*
X108689733Y-99570000D01*
D13*
%TO.C,D5*%
X112308000Y-124651000D02*
X112308000Y-126301000D01*
X112308000Y-126301000D02*
X114808000Y-126301000D01*
X114808000Y-124651000D02*
X112308000Y-124651000D01*
D15*
%TO.C,J7*%
X139826000Y-75724000D02*
X157826000Y-75724000D01*
X139826000Y-86684000D02*
X139826000Y-75724000D01*
X157826000Y-75724000D02*
X157826000Y-86684000D01*
X157826000Y-86684000D02*
X139826000Y-86684000D01*
D13*
X142126000Y-87594000D02*
G75*
G02*
X142026000Y-87594000I-50000J0D01*
G01*
X142026000Y-87594000D02*
G75*
G02*
X142126000Y-87594000I50000J0D01*
G01*
D12*
%TO.C,U1*%
X72955000Y-74885000D02*
G75*
G02*
X72705000Y-74885000I-125000J0D01*
G01*
X72705000Y-74885000D02*
G75*
G02*
X72955000Y-74885000I125000J0D01*
G01*
D14*
%TO.C,C2*%
X68070000Y-75698733D02*
X68070000Y-75991267D01*
X69090000Y-75698733D02*
X69090000Y-75991267D01*
%TO.C,R29*%
X51801500Y-102362724D02*
X51801500Y-101853276D01*
X52846500Y-102362724D02*
X52846500Y-101853276D01*
%TO.C,R8*%
X74675276Y-87387500D02*
X75184724Y-87387500D01*
X74675276Y-88432500D02*
X75184724Y-88432500D01*
%TO.C,C21*%
X131425733Y-102106000D02*
X131718267Y-102106000D01*
X131425733Y-103126000D02*
X131718267Y-103126000D01*
D13*
%TO.C,D12*%
X49159000Y-101258000D02*
X49159000Y-102958000D01*
X50409000Y-100558000D02*
X50409000Y-102958000D01*
D14*
%TO.C,C4*%
X74783733Y-96925000D02*
X75076267Y-96925000D01*
X74783733Y-97945000D02*
X75076267Y-97945000D01*
%TO.C,R33*%
X132841276Y-95997500D02*
X133350724Y-95997500D01*
X132841276Y-97042500D02*
X133350724Y-97042500D01*
%TO.C,R3*%
X65517500Y-73685276D02*
X65517500Y-74194724D01*
X66562500Y-73685276D02*
X66562500Y-74194724D01*
D13*
%TO.C,S2*%
X103556000Y-113352000D02*
X103556000Y-109152000D01*
X105656000Y-109152000D02*
X104656000Y-109152000D01*
X105656000Y-113352000D02*
X104656000Y-113352000D01*
X106756000Y-109152000D02*
X106756000Y-113352000D01*
X106298370Y-108346000D02*
G75*
G02*
X106191630Y-108346000I-53370J0D01*
G01*
X106191630Y-108346000D02*
G75*
G02*
X106298370Y-108346000I53370J0D01*
G01*
%TO.C,U3*%
X100795000Y-98285000D02*
G75*
G02*
X100595000Y-98285000I-100000J0D01*
G01*
X100595000Y-98285000D02*
G75*
G02*
X100795000Y-98285000I100000J0D01*
G01*
D14*
%TO.C,C9*%
X74148733Y-72160000D02*
X74441267Y-72160000D01*
X74148733Y-73180000D02*
X74441267Y-73180000D01*
D13*
%TO.C,Q3*%
X78105000Y-62939000D02*
X78105000Y-62939000D01*
X78105000Y-62939000D02*
X78105000Y-62939000D01*
X78105000Y-63039000D02*
X78105000Y-63039000D01*
X78105000Y-62939000D02*
G75*
G02*
X78105000Y-63039000I0J-50000D01*
G01*
X78105000Y-63039000D02*
G75*
G02*
X78105000Y-62939000I0J50000D01*
G01*
X78105000Y-63039000D02*
G75*
G02*
X78105000Y-62939000I0J50000D01*
G01*
D14*
%TO.C,R5*%
X75184724Y-84212500D02*
X74675276Y-84212500D01*
X75184724Y-85257500D02*
X74675276Y-85257500D01*
%TO.C,C19*%
X132949733Y-99058000D02*
X133242267Y-99058000D01*
X132949733Y-100078000D02*
X133242267Y-100078000D01*
%TO.C,R26*%
X109205500Y-84200276D02*
X109205500Y-84709724D01*
X110250500Y-84200276D02*
X110250500Y-84709724D01*
%TO.C,R41*%
X119125276Y-97521500D02*
X119634724Y-97521500D01*
X119125276Y-98566500D02*
X119634724Y-98566500D01*
%TO.C,R1*%
X46467500Y-71500276D02*
X46467500Y-72009724D01*
X47512500Y-71500276D02*
X47512500Y-72009724D01*
%TO.C,C24*%
X96373733Y-96010000D02*
X96666267Y-96010000D01*
X96373733Y-97030000D02*
X96666267Y-97030000D01*
%TO.C,R40*%
X91933500Y-107950724D02*
X91933500Y-107441276D01*
X92978500Y-107950724D02*
X92978500Y-107441276D01*
%TO.C,R15*%
X102093500Y-89661276D02*
X102093500Y-90170724D01*
X103138500Y-89661276D02*
X103138500Y-90170724D01*
D13*
%TO.C,Q5*%
X118725000Y-76134000D02*
X118725000Y-76134000D01*
X118725000Y-76134000D02*
X118725000Y-76134000D01*
X118725000Y-76234000D02*
X118725000Y-76234000D01*
X118725000Y-76134000D02*
G75*
G02*
X118725000Y-76234000I0J-50000D01*
G01*
X118725000Y-76234000D02*
G75*
G02*
X118725000Y-76134000I0J50000D01*
G01*
X118725000Y-76234000D02*
G75*
G02*
X118725000Y-76134000I0J50000D01*
G01*
D14*
%TO.C,R31*%
X51801500Y-96266724D02*
X51801500Y-95757276D01*
X52846500Y-96266724D02*
X52846500Y-95757276D01*
D13*
%TO.C,Q8*%
X134385000Y-101614000D02*
X135535000Y-101614000D01*
X135885000Y-101674000D02*
X136235000Y-101674000D01*
X135885000Y-104574000D02*
X135885000Y-101674000D01*
X136235000Y-101674000D02*
X136235000Y-104574000D01*
X136235000Y-104574000D02*
X135885000Y-104574000D01*
D14*
%TO.C,C13*%
X101500000Y-74153752D02*
X101500000Y-73631248D01*
X102970000Y-74153752D02*
X102970000Y-73631248D01*
%TO.C,C3*%
X71245000Y-81496267D02*
X71245000Y-81203733D01*
X72265000Y-81496267D02*
X72265000Y-81203733D01*
%TO.C,R20*%
X110997276Y-92441500D02*
X111506724Y-92441500D01*
X110997276Y-93486500D02*
X111506724Y-93486500D01*
D13*
%TO.C,Q7*%
X114935000Y-94086000D02*
X114935000Y-94086000D01*
X114935000Y-94186000D02*
X114935000Y-94186000D01*
X114935000Y-94186000D02*
X114935000Y-94186000D01*
X114935000Y-94086000D02*
G75*
G02*
X114935000Y-94186000I0J-50000D01*
G01*
X114935000Y-94086000D02*
G75*
G02*
X114935000Y-94186000I0J-50000D01*
G01*
X114935000Y-94186000D02*
G75*
G02*
X114935000Y-94086000I0J50000D01*
G01*
D14*
%TO.C,C6*%
X85850000Y-84601267D02*
X85850000Y-84308733D01*
X86870000Y-84601267D02*
X86870000Y-84308733D01*
D13*
%TO.C,Q4*%
X113475000Y-72110000D02*
X116395000Y-72110000D01*
X113475000Y-72810000D02*
X113475000Y-72110000D01*
X116395000Y-72110000D02*
X116395000Y-72810000D01*
X116395000Y-72810000D02*
X113475000Y-72810000D01*
X116485000Y-70760000D02*
X116485000Y-71760000D01*
D14*
%TO.C,R23*%
X114045276Y-95489500D02*
X114554724Y-95489500D01*
X114045276Y-96534500D02*
X114554724Y-96534500D01*
%TO.C,C5*%
X82040000Y-90658733D02*
X82040000Y-90951267D01*
X83060000Y-90658733D02*
X83060000Y-90951267D01*
D13*
%TO.C,J1*%
X27125000Y-65845500D02*
X41625000Y-65845500D01*
X27125000Y-74845500D02*
X27125000Y-65845500D01*
X34375000Y-74845500D02*
X27125000Y-74845500D01*
X44056000Y-70906500D02*
G75*
G02*
X43928000Y-70906500I-64000J0D01*
G01*
X43928000Y-70906500D02*
G75*
G02*
X44056000Y-70906500I64000J0D01*
G01*
D14*
%TO.C,R42*%
X117841500Y-101853276D02*
X117841500Y-102362724D01*
X118886500Y-101853276D02*
X118886500Y-102362724D01*
%TO.C,R18*%
X106157500Y-84558276D02*
X106157500Y-85067724D01*
X107202500Y-84558276D02*
X107202500Y-85067724D01*
D15*
%TO.C,Q1*%
X52126000Y-71323000D02*
X52126000Y-71323000D01*
X52126000Y-71423000D02*
X52126000Y-71423000D01*
X52126000Y-71323000D02*
G75*
G02*
X52126000Y-71423000I0J-50000D01*
G01*
X52126000Y-71423000D02*
G75*
G02*
X52126000Y-71323000I0J50000D01*
G01*
D14*
%TO.C,R9*%
X74675276Y-93947500D02*
X75184724Y-93947500D01*
X74675276Y-94992500D02*
X75184724Y-94992500D01*
D16*
%TO.C,R11*%
X93800000Y-74765000D02*
X94160000Y-74765000D01*
X94160000Y-76365000D02*
X93800000Y-76365000D01*
D13*
X96925000Y-76295000D02*
G75*
G02*
X96725000Y-76295000I-100000J0D01*
G01*
X96725000Y-76295000D02*
G75*
G02*
X96925000Y-76295000I100000J0D01*
G01*
%TO.C,D8*%
X113008000Y-122237000D02*
X115508000Y-122237000D01*
X115508000Y-120587000D02*
X113008000Y-120587000D01*
X115508000Y-122237000D02*
X115508000Y-120587000D01*
%TO.C,Q2*%
X70465000Y-62799000D02*
X70465000Y-62799000D01*
X70465000Y-62799000D02*
X70465000Y-62799000D01*
X70465000Y-62899000D02*
X70465000Y-62899000D01*
X70465000Y-62799000D02*
G75*
G02*
X70465000Y-62899000I0J-50000D01*
G01*
X70465000Y-62899000D02*
G75*
G02*
X70465000Y-62799000I0J50000D01*
G01*
X70465000Y-62899000D02*
G75*
G02*
X70465000Y-62799000I0J50000D01*
G01*
D14*
%TO.C,R27*%
X118109276Y-95489500D02*
X118618724Y-95489500D01*
X118109276Y-96534500D02*
X118618724Y-96534500D01*
%TO.C,C1*%
X46480000Y-75418733D02*
X46480000Y-75711267D01*
X47500000Y-75418733D02*
X47500000Y-75711267D01*
D13*
%TO.C,Q6*%
X109104000Y-88456000D02*
X109604000Y-88456000D01*
X109104000Y-91376000D02*
X109104000Y-88456000D01*
X109604000Y-88456000D02*
X109604000Y-91376000D01*
X109604000Y-91376000D02*
X109104000Y-91376000D01*
X111054000Y-91441000D02*
X109954000Y-91441000D01*
%TO.C,D6*%
X112308000Y-122619000D02*
X112308000Y-124269000D01*
X112308000Y-124269000D02*
X114808000Y-124269000D01*
X114808000Y-122619000D02*
X112308000Y-122619000D01*
%TO.C,S1*%
X108255000Y-81475000D02*
X108255000Y-77275000D01*
X110355000Y-77275000D02*
X109355000Y-77275000D01*
X110355000Y-81475000D02*
X109355000Y-81475000D01*
X111455000Y-77275000D02*
X111455000Y-81475000D01*
X110997370Y-76469000D02*
G75*
G02*
X110890630Y-76469000I-53370J0D01*
G01*
X110890630Y-76469000D02*
G75*
G02*
X110997370Y-76469000I53370J0D01*
G01*
%TO.C,D1*%
X56750000Y-70285000D02*
X56750000Y-70685000D01*
D15*
X57150000Y-68985000D02*
X57150000Y-68985000D01*
X57150000Y-69085000D02*
X57150000Y-69085000D01*
D13*
X57550000Y-70285000D02*
X57550000Y-70685000D01*
D15*
X57150000Y-68985000D02*
G75*
G02*
X57150000Y-69085000I0J-50000D01*
G01*
X57150000Y-69085000D02*
G75*
G02*
X57150000Y-68985000I0J50000D01*
G01*
D14*
%TO.C,R7*%
X59802500Y-70739724D02*
X59802500Y-70230276D01*
X60847500Y-70739724D02*
X60847500Y-70230276D01*
%TO.C,R13*%
X90169276Y-86703000D02*
X90678724Y-86703000D01*
X90169276Y-87748000D02*
X90678724Y-87748000D01*
%TO.C,J10*%
X92600000Y-115968000D02*
X93980000Y-115968000D01*
X92600000Y-117348000D02*
X92600000Y-115968000D01*
X92600000Y-118618000D02*
X92600000Y-121268000D01*
X92600000Y-118618000D02*
X95360000Y-118618000D01*
X92600000Y-121268000D02*
X95360000Y-121268000D01*
X95360000Y-118618000D02*
X95360000Y-121268000D01*
%TO.C,C14*%
X105310000Y-74153752D02*
X105310000Y-73631248D01*
X106780000Y-74153752D02*
X106780000Y-73631248D01*
%TO.C,R28*%
X132841276Y-92949500D02*
X133350724Y-92949500D01*
X132841276Y-93994500D02*
X133350724Y-93994500D01*
%TO.C,C23*%
X123297733Y-98042000D02*
X123590267Y-98042000D01*
X123297733Y-99062000D02*
X123590267Y-99062000D01*
%TO.C,R19*%
X103617500Y-93725276D02*
X103617500Y-94234724D01*
X104662500Y-93725276D02*
X104662500Y-94234724D01*
%TO.C,C7*%
X58955000Y-64396252D02*
X58955000Y-63873748D01*
X60425000Y-64396252D02*
X60425000Y-63873748D01*
%TO.C,R14*%
X90678724Y-89370000D02*
X90169276Y-89370000D01*
X90678724Y-90415000D02*
X90169276Y-90415000D01*
%TO.C,R6*%
X62342500Y-70739724D02*
X62342500Y-70230276D01*
X63387500Y-70739724D02*
X63387500Y-70230276D01*
%TO.C,C11*%
X78230000Y-79101733D02*
X78230000Y-79394267D01*
X79250000Y-79101733D02*
X79250000Y-79394267D01*
%TO.C,J11*%
X97172000Y-115968000D02*
X98552000Y-115968000D01*
X97172000Y-117348000D02*
X97172000Y-115968000D01*
X97172000Y-118618000D02*
X97172000Y-121268000D01*
X97172000Y-118618000D02*
X99932000Y-118618000D01*
X97172000Y-121268000D02*
X99932000Y-121268000D01*
X99932000Y-118618000D02*
X99932000Y-121268000D01*
D17*
%TO.C,J9*%
X29415000Y-118024900D02*
X29415000Y-128438900D01*
X29415000Y-128438900D02*
X39549600Y-128438900D01*
X39549600Y-118024900D02*
X29415000Y-118024900D01*
X39549600Y-128438900D02*
X39549600Y-118024900D01*
D18*
X42851600Y-115992900D02*
G75*
G02*
X42089600Y-115992900I-381000J0D01*
G01*
X42089600Y-115992900D02*
G75*
G02*
X42851600Y-115992900I381000J0D01*
G01*
D14*
%TO.C,J6*%
X36339000Y-83952000D02*
X36339000Y-81302000D01*
X39099000Y-81302000D02*
X36339000Y-81302000D01*
X39099000Y-83952000D02*
X36339000Y-83952000D01*
X39099000Y-83952000D02*
X39099000Y-81302000D01*
X39099000Y-85222000D02*
X39099000Y-86602000D01*
X39099000Y-86602000D02*
X37719000Y-86602000D01*
D13*
%TO.C,D13*%
X49159000Y-95162000D02*
X49159000Y-96862000D01*
X50409000Y-94462000D02*
X50409000Y-96862000D01*
%TO.C,J2*%
X29765000Y-94606000D02*
X29765000Y-92336000D01*
X29765000Y-95246000D02*
X29765000Y-99766000D01*
X29765000Y-100406000D02*
X29765000Y-104926000D01*
X29765000Y-105566000D02*
X29765000Y-107816000D01*
X29765000Y-107816000D02*
X38815000Y-107816000D01*
X38815000Y-92336000D02*
X29765000Y-92336000D01*
X38815000Y-107816000D02*
X38815000Y-92336000D01*
X29765000Y-95246000D02*
G75*
G02*
X29765000Y-94606000I124999J320000D01*
G01*
X29765000Y-100406000D02*
G75*
G02*
X29765000Y-99766000I124999J320000D01*
G01*
X29765000Y-105566000D02*
G75*
G02*
X29765000Y-104926000I124999J320000D01*
G01*
X36260000Y-103976000D02*
G75*
G02*
X36060000Y-103976000I-100000J0D01*
G01*
X36060000Y-103976000D02*
G75*
G02*
X36260000Y-103976000I100000J0D01*
G01*
D19*
X38715000Y-102326000D02*
X37465000Y-102326000D01*
X37465000Y-97826000D01*
X38715000Y-97826000D01*
X38715000Y-102326000D01*
G36*
X38715000Y-102326000D02*
G01*
X37465000Y-102326000D01*
X37465000Y-97826000D01*
X38715000Y-97826000D01*
X38715000Y-102326000D01*
G37*
D14*
%TO.C,R4*%
X74675276Y-81037500D02*
X75184724Y-81037500D01*
X74675276Y-82082500D02*
X75184724Y-82082500D01*
%TO.C,C8*%
X61965000Y-64396252D02*
X61965000Y-63873748D01*
X63435000Y-64396252D02*
X63435000Y-63873748D01*
D13*
%TO.C,D4*%
X82560000Y-83605000D02*
X82560000Y-85305000D01*
X83810000Y-82755000D02*
X83810000Y-85305000D01*
D14*
%TO.C,C18*%
X121537000Y-83077267D02*
X121537000Y-82784733D01*
X122557000Y-83077267D02*
X122557000Y-82784733D01*
%TO.C,R10*%
X75184724Y-90562500D02*
X74675276Y-90562500D01*
X75184724Y-91607500D02*
X74675276Y-91607500D01*
%TO.C,C28*%
X125474000Y-107549733D02*
X125474000Y-107842267D01*
X126494000Y-107549733D02*
X126494000Y-107842267D01*
D13*
%TO.C,D3*%
X65256000Y-83883000D02*
X67756000Y-83883000D01*
X67756000Y-82233000D02*
X65256000Y-82233000D01*
X67756000Y-83883000D02*
X67756000Y-82233000D01*
D14*
%TO.C,R34*%
X110086224Y-106694500D02*
X109576776Y-106694500D01*
X110086224Y-107739500D02*
X109576776Y-107739500D01*
%TO.C,R38*%
X81265500Y-121262224D02*
X81265500Y-120752776D01*
X82310500Y-121262224D02*
X82310500Y-120752776D01*
%TO.C,C22*%
X96518000Y-103778267D02*
X96518000Y-103485733D01*
X97538000Y-103778267D02*
X97538000Y-103485733D01*
%TO.C,C25*%
X96666267Y-100074000D02*
X96373733Y-100074000D01*
X96666267Y-101094000D02*
X96373733Y-101094000D01*
%TO.C,J13*%
X106316000Y-115968000D02*
X107696000Y-115968000D01*
X106316000Y-117348000D02*
X106316000Y-115968000D01*
X106316000Y-118618000D02*
X106316000Y-121268000D01*
X106316000Y-118618000D02*
X109076000Y-118618000D01*
X106316000Y-121268000D02*
X109076000Y-121268000D01*
X109076000Y-118618000D02*
X109076000Y-121268000D01*
D16*
%TO.C,L1*%
X82552000Y-68455000D02*
X82552000Y-75055000D01*
X82552000Y-75055000D02*
X83852000Y-75055000D01*
X83852000Y-68455000D02*
X82552000Y-68455000D01*
X87852000Y-68455000D02*
X89152000Y-68455000D01*
X89152000Y-68455000D02*
X89152000Y-75055000D01*
X89152000Y-75055000D02*
X87852000Y-75055000D01*
D13*
%TO.C,S3*%
X98984000Y-113352000D02*
X98984000Y-109152000D01*
X100084000Y-109152000D02*
X101084000Y-109152000D01*
X100084000Y-113352000D02*
X101084000Y-113352000D01*
X102184000Y-109152000D02*
X102184000Y-113352000D01*
X99548370Y-114158000D02*
G75*
G02*
X99441630Y-114158000I-53370J0D01*
G01*
X99441630Y-114158000D02*
G75*
G02*
X99548370Y-114158000I53370J0D01*
G01*
D14*
%TO.C,R36*%
X127253276Y-102093500D02*
X127762724Y-102093500D01*
X127253276Y-103138500D02*
X127762724Y-103138500D01*
D13*
%TO.C,R30*%
X112900000Y-98410000D02*
X112900000Y-99710000D01*
D14*
%TO.C,R16*%
X119125276Y-70597500D02*
X119634724Y-70597500D01*
X119125276Y-71642500D02*
X119634724Y-71642500D01*
%TO.C,R35*%
X114553276Y-106157500D02*
X115062724Y-106157500D01*
X114553276Y-107202500D02*
X115062724Y-107202500D01*
%TO.C,R39*%
X96368776Y-98029500D02*
X96878224Y-98029500D01*
X96368776Y-99074500D02*
X96878224Y-99074500D01*
%TO.C,J12*%
X101744000Y-115968000D02*
X103124000Y-115968000D01*
X101744000Y-117348000D02*
X101744000Y-115968000D01*
X101744000Y-118618000D02*
X101744000Y-121268000D01*
X101744000Y-118618000D02*
X104504000Y-118618000D01*
X101744000Y-121268000D02*
X104504000Y-121268000D01*
X104504000Y-118618000D02*
X104504000Y-121268000D01*
%TD*%
M02*
