%TF.GenerationSoftware,KiCad,Pcbnew,9.0.5*%
%TF.CreationDate,2026-01-13T21:54:13-06:00*%
%TF.ProjectId,STAR_BMS,53544152-5f42-44d5-932e-6b696361645f,rev?*%
%TF.SameCoordinates,Original*%
%TF.FileFunction,Copper,L2,Inr*%
%TF.FilePolarity,Positive*%
%FSLAX46Y46*%
G04 Gerber Fmt 4.6, Leading zero omitted, Abs format (unit mm)*
G04 Created by KiCad (PCBNEW 9.0.5) date 2026-01-13 21:54:13*
%MOMM*%
%LPD*%
G01*
G04 APERTURE LIST*
%TA.AperFunction,ComponentPad*%
%ADD10C,1.400000*%
%TD*%
%TA.AperFunction,ComponentPad*%
%ADD11R,2.100000X2.100000*%
%TD*%
%TA.AperFunction,ComponentPad*%
%ADD12C,2.100000*%
%TD*%
%TA.AperFunction,ComponentPad*%
%ADD13C,0.800000*%
%TD*%
%TA.AperFunction,ComponentPad*%
%ADD14C,6.400000*%
%TD*%
%TA.AperFunction,ComponentPad*%
%ADD15C,4.800000*%
%TD*%
%TA.AperFunction,ComponentPad*%
%ADD16R,1.700000X1.700000*%
%TD*%
%TA.AperFunction,ComponentPad*%
%ADD17C,1.700000*%
%TD*%
%TA.AperFunction,ComponentPad*%
%ADD18C,1.574800*%
%TD*%
%TA.AperFunction,ComponentPad*%
%ADD19C,1.650000*%
%TD*%
%TA.AperFunction,ViaPad*%
%ADD20C,0.600000*%
%TD*%
G04 APERTURE END LIST*
D10*
%TO.N,/CELL2_VP*%
%TO.C,J4*%
X143256000Y-109300000D03*
%TO.N,/CELL1_VP*%
X143256000Y-111800000D03*
%TO.N,AGND*%
X143256000Y-114300000D03*
%TD*%
D11*
%TO.N,CH_GND*%
%TO.C,J3*%
X131548000Y-70504000D03*
D12*
X131548000Y-61804000D03*
%TO.N,/PACK+*%
X126468000Y-70504000D03*
X126468000Y-61804000D03*
%TD*%
D11*
%TO.N,AGND*%
%TO.C,J8*%
X142176000Y-98044000D03*
D12*
X150876000Y-98044000D03*
%TO.N,/CELL2_VP*%
X142176000Y-92964000D03*
X150876000Y-92964000D03*
%TD*%
D13*
%TO.N,CH_GND*%
%TO.C,H1*%
X30032000Y-58340000D03*
X30734944Y-56642944D03*
X30734944Y-60037056D03*
X32432000Y-55940000D03*
D14*
X32432000Y-58340000D03*
D13*
X32432000Y-60740000D03*
X34129056Y-56642944D03*
X34129056Y-60037056D03*
X34832000Y-58340000D03*
%TD*%
D10*
%TO.N,/CELL2_VP*%
%TO.C,J5*%
X134406000Y-109300000D03*
%TO.N,/CELL1_VP*%
X134406000Y-111800000D03*
%TO.N,AGND*%
X134406000Y-114300000D03*
%TD*%
D13*
%TO.N,CH_GND*%
%TO.C,H2*%
X150499305Y-133811000D03*
X151202249Y-132113944D03*
X151202249Y-135508056D03*
X152899305Y-131411000D03*
D14*
X152899305Y-133811000D03*
D13*
X152899305Y-136211000D03*
X154596361Y-132113944D03*
X154596361Y-135508056D03*
X155299305Y-133811000D03*
%TD*%
D11*
%TO.N,AGND*%
%TO.C,J7*%
X142076000Y-83744000D03*
D12*
X150776000Y-83744000D03*
%TO.N,/CELL2_VP*%
X142076000Y-78664000D03*
X150776000Y-78664000D03*
%TD*%
D13*
%TO.N,CH_GND*%
%TO.C,H4*%
X151985000Y-58340000D03*
X152687944Y-56642944D03*
X152687944Y-60037056D03*
X154385000Y-55940000D03*
D14*
X154385000Y-58340000D03*
D13*
X154385000Y-60740000D03*
X156082056Y-56642944D03*
X156082056Y-60037056D03*
X156785000Y-58340000D03*
%TD*%
D15*
%TO.N,Net-(J1-POWER)*%
%TO.C,J1*%
X40725000Y-71045500D03*
%TO.N,CH_GND*%
X34925000Y-71045500D03*
X37725000Y-75845500D03*
%TD*%
D16*
%TO.N,GND*%
%TO.C,J10*%
X93980000Y-117348000D03*
D17*
%TO.N,Net-(J10-Pin_2)*%
X93980000Y-119888000D03*
%TD*%
D16*
%TO.N,GND*%
%TO.C,J11*%
X98552000Y-117348000D03*
D17*
%TO.N,Net-(J11-Pin_2)*%
X98552000Y-119888000D03*
%TD*%
D18*
%TO.N,CH_GND*%
%TO.C,J9*%
X42470600Y-119421900D03*
%TO.N,/BMS_SMBUS_CLK*%
X42470600Y-121961900D03*
%TO.N,/BMS_SMBUS_DATA*%
X42470600Y-124501900D03*
%TO.N,unconnected-(J9-Pad4)*%
X42470600Y-127041900D03*
%TD*%
D13*
%TO.N,CH_GND*%
%TO.C,H3*%
X30032000Y-133811000D03*
X30734944Y-132113944D03*
X30734944Y-135508056D03*
X32432000Y-131411000D03*
D14*
X32432000Y-133811000D03*
D13*
X32432000Y-136211000D03*
X34129056Y-132113944D03*
X34129056Y-135508056D03*
X34832000Y-133811000D03*
%TD*%
D16*
%TO.N,Net-(J6-Pin_1)*%
%TO.C,J6*%
X37719000Y-85222000D03*
D17*
%TO.N,CH_GND*%
X37719000Y-82682000D03*
%TD*%
D19*
%TO.N,/BTP_INT*%
%TO.C,J2*%
X35560000Y-102616000D03*
%TO.N,/BMS_SMBUS_DATA*%
X33020000Y-102616000D03*
%TO.N,CH_GND*%
X35560000Y-100076000D03*
%TO.N,/BMS_SMBUS_CLK*%
X33020000Y-100076000D03*
%TO.N,CH_GND*%
X35560000Y-97536000D03*
X33020000Y-97536000D03*
%TD*%
D16*
%TO.N,GND*%
%TO.C,J13*%
X107696000Y-117348000D03*
D17*
%TO.N,Net-(J13-Pin_2)*%
X107696000Y-119888000D03*
%TD*%
D16*
%TO.N,GND*%
%TO.C,J12*%
X103124000Y-117348000D03*
D17*
%TO.N,Net-(J12-Pin_2)*%
X103124000Y-119888000D03*
%TD*%
D20*
%TO.N,CH_GND*%
X82550000Y-98171000D03*
X63500000Y-111252000D03*
X51562000Y-60071000D03*
X99568000Y-68072000D03*
X80772000Y-55372000D03*
X99568000Y-66040000D03*
X85852000Y-59436000D03*
X46609000Y-83185000D03*
X40132000Y-113284000D03*
X46482000Y-62103000D03*
X90932000Y-61468000D03*
X58420000Y-126492000D03*
X49149000Y-79121000D03*
X68580000Y-111252000D03*
X63500000Y-124460000D03*
X40132000Y-111252000D03*
X46609000Y-79121000D03*
X66040000Y-111252000D03*
X47752000Y-113284000D03*
X55880000Y-111252000D03*
X52832000Y-109220000D03*
X60960000Y-128524000D03*
X50292000Y-113284000D03*
X54102000Y-56007000D03*
X88392000Y-55372000D03*
X85090000Y-96139000D03*
X44069000Y-85217000D03*
X76200000Y-130556000D03*
X47752000Y-115316000D03*
X53340000Y-126492000D03*
X87630000Y-98171000D03*
X43942000Y-62103000D03*
X44069000Y-79121000D03*
X51562000Y-62103000D03*
X50800000Y-130556000D03*
X49022000Y-56007000D03*
X52832000Y-111252000D03*
X58420000Y-109220000D03*
X102108000Y-66040000D03*
X73660000Y-124460000D03*
X73660000Y-128524000D03*
X85852000Y-57404000D03*
X58420000Y-111252000D03*
X71120000Y-130556000D03*
X50800000Y-128524000D03*
X80010000Y-98171000D03*
X93472000Y-55372000D03*
X55880000Y-126492000D03*
X52832000Y-113284000D03*
X42672000Y-109220000D03*
X49022000Y-58039000D03*
X80010000Y-96139000D03*
X93472000Y-61468000D03*
X60960000Y-126492000D03*
X88392000Y-61468000D03*
X76200000Y-124460000D03*
X90932000Y-59436000D03*
X50800000Y-124460000D03*
X60960000Y-130556000D03*
X51562000Y-56007000D03*
X60960000Y-115316000D03*
X56642000Y-60071000D03*
X58420000Y-115316000D03*
X46609000Y-85217000D03*
X80772000Y-57404000D03*
X50292000Y-109220000D03*
X68580000Y-113284000D03*
X42672000Y-113284000D03*
X83312000Y-61468000D03*
X80772000Y-61468000D03*
X44069000Y-83185000D03*
X54102000Y-62103000D03*
X102108000Y-64008000D03*
X102108000Y-68072000D03*
X80772000Y-59436000D03*
X45212000Y-109220000D03*
X49149000Y-81153000D03*
X102108000Y-70104000D03*
X51689000Y-85217000D03*
X51562000Y-58039000D03*
X73660000Y-130556000D03*
X54102000Y-58039000D03*
X40132000Y-109220000D03*
X48260000Y-128524000D03*
X46609000Y-81153000D03*
X54102000Y-60071000D03*
X90932000Y-55372000D03*
X93472000Y-57404000D03*
X60960000Y-124460000D03*
X42672000Y-111252000D03*
X104648000Y-70104000D03*
X48260000Y-126492000D03*
X56642000Y-62103000D03*
X85090000Y-98171000D03*
X71120000Y-124460000D03*
X80010000Y-94107000D03*
X63500000Y-130556000D03*
X83312000Y-57404000D03*
X44069000Y-81153000D03*
X50800000Y-126492000D03*
X66040000Y-130556000D03*
X66040000Y-126492000D03*
X78232000Y-76200000D03*
X66040000Y-124460000D03*
X50292000Y-111252000D03*
X68580000Y-126492000D03*
X85852000Y-55372000D03*
X83312000Y-59436000D03*
X63500000Y-128524000D03*
X55880000Y-128524000D03*
X55880000Y-113284000D03*
X40132000Y-115316000D03*
X52832000Y-115316000D03*
X99568000Y-64008000D03*
X60960000Y-109220000D03*
X43942000Y-60071000D03*
X60960000Y-113284000D03*
X55880000Y-109220000D03*
X66040000Y-113284000D03*
X58420000Y-128524000D03*
X42672000Y-115316000D03*
X43942000Y-56007000D03*
X82550000Y-94107000D03*
X47752000Y-111252000D03*
X88392000Y-57404000D03*
X55880000Y-115316000D03*
X88392000Y-59436000D03*
X76200000Y-128524000D03*
X87630000Y-96139000D03*
X58420000Y-124460000D03*
X58420000Y-130556000D03*
X104648000Y-64008000D03*
X53340000Y-128524000D03*
X45212000Y-113284000D03*
X83312000Y-55372000D03*
X66040000Y-128524000D03*
X51689000Y-81153000D03*
X47752000Y-109220000D03*
X55880000Y-130556000D03*
X63500000Y-126492000D03*
X49149000Y-85217000D03*
X45212000Y-115316000D03*
X46482000Y-58039000D03*
X104648000Y-68072000D03*
X46482000Y-56007000D03*
X63500000Y-113284000D03*
X71120000Y-128524000D03*
X63500000Y-109220000D03*
X104648000Y-66040000D03*
X49022000Y-62103000D03*
X68580000Y-109220000D03*
X46482000Y-60071000D03*
X90932000Y-57404000D03*
X71120000Y-126492000D03*
X45212000Y-111252000D03*
X73660000Y-126492000D03*
X58420000Y-113284000D03*
X49149000Y-83185000D03*
X55880000Y-124460000D03*
X48260000Y-130556000D03*
X82550000Y-96139000D03*
X87630000Y-94107000D03*
X99568000Y-70104000D03*
X93472000Y-59436000D03*
X76200000Y-126492000D03*
X85090000Y-94107000D03*
X56642000Y-58039000D03*
X68580000Y-130556000D03*
X68580000Y-128524000D03*
X60960000Y-111252000D03*
X56642000Y-56007000D03*
X43942000Y-58039000D03*
X50292000Y-115316000D03*
X68580000Y-124460000D03*
X63500000Y-115316000D03*
X48260000Y-124460000D03*
X120269000Y-72644000D03*
X53340000Y-124460000D03*
X51689000Y-79121000D03*
X49022000Y-60071000D03*
X68580000Y-115316000D03*
X85852000Y-61468000D03*
X53340000Y-130556000D03*
X51689000Y-83185000D03*
X66040000Y-115316000D03*
X66040000Y-109220000D03*
%TO.N,Net-(U1-CE)*%
X75184000Y-80264000D03*
X71628000Y-76235000D03*
%TO.N,Net-(U1-TS)*%
X72136000Y-78740000D03*
X71628000Y-94488000D03*
%TO.N,Net-(D4-A)*%
X80264000Y-76200000D03*
X81788000Y-85852000D03*
%TO.N,Net-(D4-K)*%
X83312000Y-82296000D03*
X71120000Y-74676000D03*
%TO.N,Net-(D14-K)*%
X109220000Y-97536000D03*
X98933000Y-95920000D03*
%TO.N,Net-(U3-SRN)*%
X81788000Y-118872000D03*
X94869000Y-102870000D03*
%TO.N,Net-(U3-SRP)*%
X94615000Y-104648000D03*
X88900000Y-118872000D03*
%TO.N,AGND*%
X142240000Y-119888000D03*
X123444000Y-113792000D03*
X123444000Y-119888000D03*
X121920000Y-122936000D03*
X128016000Y-124460000D03*
X142240000Y-125984000D03*
X126492000Y-121412000D03*
X108204000Y-127508000D03*
X142240000Y-129032000D03*
X121920000Y-121412000D03*
X121920000Y-124460000D03*
X140716000Y-118364000D03*
X96012000Y-127508000D03*
X128016000Y-115316000D03*
X143764000Y-122936000D03*
X140716000Y-124460000D03*
X129540000Y-116840000D03*
X91440000Y-125984000D03*
X128016000Y-122936000D03*
X123444000Y-116840000D03*
X96012000Y-125984000D03*
X142240000Y-127508000D03*
X92964000Y-127508000D03*
X121920000Y-116840000D03*
X137668000Y-124460000D03*
X126492000Y-119888000D03*
X126492000Y-116840000D03*
X126492000Y-118364000D03*
X124968000Y-121412000D03*
X142240000Y-118364000D03*
X124968000Y-115316000D03*
X108204000Y-125984000D03*
X136144000Y-129032000D03*
X128016000Y-116840000D03*
X139192000Y-127508000D03*
X129540000Y-124460000D03*
X123444000Y-124460000D03*
X139192000Y-129032000D03*
X123444000Y-118364000D03*
X94488000Y-125984000D03*
X121920000Y-118364000D03*
X140716000Y-122936000D03*
X102108000Y-125984000D03*
X143764000Y-118364000D03*
X139192000Y-122936000D03*
X137668000Y-122936000D03*
X123444000Y-122936000D03*
X128016000Y-118364000D03*
X126492000Y-122936000D03*
X142240000Y-124460000D03*
X124968000Y-119888000D03*
X105156000Y-127508000D03*
X121920000Y-113792000D03*
X136144000Y-127508000D03*
X140716000Y-125984000D03*
X142240000Y-121412000D03*
X103632000Y-125984000D03*
X121920000Y-115316000D03*
X130048000Y-98044000D03*
X137668000Y-125984000D03*
X100584000Y-125984000D03*
X126492000Y-115316000D03*
X129540000Y-113792000D03*
X129540000Y-122936000D03*
X126492000Y-113792000D03*
X121920000Y-119888000D03*
X143764000Y-129032000D03*
X142240000Y-122936000D03*
X123444000Y-121412000D03*
X137668000Y-129032000D03*
X140716000Y-129032000D03*
X136144000Y-119888000D03*
X137668000Y-118364000D03*
X129540000Y-115316000D03*
X140716000Y-127508000D03*
X97536000Y-127508000D03*
X124968000Y-124460000D03*
X139192000Y-119888000D03*
X137668000Y-127508000D03*
X124968000Y-113792000D03*
X140716000Y-121412000D03*
X124968000Y-116840000D03*
X106680000Y-125984000D03*
X124968000Y-118364000D03*
X136144000Y-122936000D03*
X129540000Y-119888000D03*
X143764000Y-119888000D03*
X129540000Y-121412000D03*
X139192000Y-125984000D03*
X129540000Y-118364000D03*
X137668000Y-119888000D03*
X136144000Y-121412000D03*
X106680000Y-127508000D03*
X136144000Y-124460000D03*
X126492000Y-124460000D03*
X143764000Y-125984000D03*
X102108000Y-127508000D03*
X124968000Y-122936000D03*
X136144000Y-125984000D03*
X139192000Y-124460000D03*
X92964000Y-125984000D03*
X128016000Y-113792000D03*
X139192000Y-118364000D03*
X99060000Y-125984000D03*
X140716000Y-119888000D03*
X103632000Y-127508000D03*
X91440000Y-127508000D03*
X100584000Y-127508000D03*
X94488000Y-127508000D03*
X136144000Y-118364000D03*
X97536000Y-125984000D03*
X128016000Y-121412000D03*
X128016000Y-119888000D03*
X123444000Y-115316000D03*
X137668000Y-121412000D03*
X99060000Y-127508000D03*
X143764000Y-127508000D03*
X143764000Y-124460000D03*
X143764000Y-121412000D03*
X139192000Y-121412000D03*
X105156000Y-125984000D03*
%TO.N,/CELL2_VP*%
X116332000Y-99568000D03*
X117348000Y-98552000D03*
X122682000Y-85471000D03*
X117348000Y-100584000D03*
X116332000Y-97536000D03*
X117348000Y-99568000D03*
X116332000Y-101600000D03*
X116332000Y-100584000D03*
X116332000Y-98552000D03*
X117348000Y-97536000D03*
X94488000Y-98552000D03*
X111633000Y-85344000D03*
%TO.N,Net-(D12-K)*%
X54864000Y-101092000D03*
X108712000Y-105664000D03*
%TO.N,Net-(U2-V1)*%
X121920000Y-105156000D03*
X125476000Y-103632000D03*
%TO.N,Net-(U3-LEDCNTLA)*%
X107315000Y-100285000D03*
X114808000Y-115824000D03*
%TO.N,Net-(U3-LEDCNTLC)*%
X106807000Y-98806000D03*
X114808000Y-112268000D03*
%TO.N,Net-(U3-LEDCNTLB)*%
X112776000Y-112268000D03*
X106770946Y-99690584D03*
%TO.N,Net-(D13-K)*%
X52324000Y-93472000D03*
X115824000Y-105156000D03*
%TO.N,Net-(J10-Pin_2)*%
X101451519Y-103720855D03*
%TO.N,/BTP_INT*%
X102314649Y-107585514D03*
X41148000Y-102616000D03*
%TO.N,Net-(J11-Pin_2)*%
X101473000Y-104902000D03*
%TO.N,/CELL1_VP*%
X93980000Y-108204000D03*
X121412000Y-108204000D03*
%TO.N,Net-(U1-HIDRV)*%
X66294000Y-61976000D03*
X74422000Y-73787000D03*
%TO.N,Net-(U1-LODRV)*%
X76200000Y-73660000D03*
X74295000Y-62230000D03*
%TO.N,Net-(J12-Pin_2)*%
X101981000Y-105791000D03*
%TO.N,Net-(J13-Pin_2)*%
X102235000Y-106553000D03*
%TO.N,Net-(U1-VFB)*%
X92456000Y-87376000D03*
X76581000Y-79375000D03*
%TO.N,Net-(U3-DSG)*%
X104521000Y-85725000D03*
X100584000Y-93726000D03*
%TO.N,Net-(U3-PCHG)*%
X100754265Y-95587735D03*
X106299000Y-95377000D03*
%TO.N,Net-(U3-CHG)*%
X99822000Y-95504000D03*
X125984000Y-93472000D03*
%TO.N,Net-(U3-FUSE)*%
X130556000Y-93472000D03*
X104902000Y-96774000D03*
%TO.N,Net-(U1-STAT)*%
X71628000Y-77216000D03*
X67056000Y-77724000D03*
%TO.N,Net-(U1-~{PG})*%
X73660000Y-79248000D03*
X69088000Y-83312000D03*
%TD*%
%TA.AperFunction,Conductor*%
%TO.N,CH_GND*%
G36*
X158827539Y-53867685D02*
G01*
X158873294Y-53920489D01*
X158884500Y-53972000D01*
X158884500Y-138052000D01*
X158864815Y-138119039D01*
X158812011Y-138164794D01*
X158760500Y-138176000D01*
X28064000Y-138176000D01*
X27996961Y-138156315D01*
X27951206Y-138103511D01*
X27940000Y-138052000D01*
X27940000Y-121860540D01*
X41182700Y-121860540D01*
X41182700Y-122063259D01*
X41203381Y-122193836D01*
X41214413Y-122263484D01*
X41277057Y-122456282D01*
X41328284Y-122556821D01*
X41369092Y-122636909D01*
X41488239Y-122800904D01*
X41631595Y-122944260D01*
X41785056Y-123055754D01*
X41795594Y-123063410D01*
X41880794Y-123106821D01*
X41909434Y-123121415D01*
X41960230Y-123169390D01*
X41977025Y-123237211D01*
X41954487Y-123303346D01*
X41909434Y-123342385D01*
X41795590Y-123400392D01*
X41631595Y-123519539D01*
X41488239Y-123662895D01*
X41369092Y-123826890D01*
X41277058Y-124007515D01*
X41214412Y-124200319D01*
X41210266Y-124226498D01*
X41182700Y-124400540D01*
X41182700Y-124603260D01*
X41214413Y-124803484D01*
X41277057Y-124996282D01*
X41365262Y-125169394D01*
X41369092Y-125176909D01*
X41488239Y-125340904D01*
X41631595Y-125484260D01*
X41755186Y-125574052D01*
X41795594Y-125603410D01*
X41880794Y-125646821D01*
X41909434Y-125661415D01*
X41960230Y-125709390D01*
X41977025Y-125777211D01*
X41954487Y-125843346D01*
X41909434Y-125882385D01*
X41795590Y-125940392D01*
X41631595Y-126059539D01*
X41488239Y-126202895D01*
X41369092Y-126366890D01*
X41277058Y-126547515D01*
X41214412Y-126740319D01*
X41191305Y-126886210D01*
X41182700Y-126940540D01*
X41182700Y-127143260D01*
X41214413Y-127343484D01*
X41242250Y-127429158D01*
X41277058Y-127536284D01*
X41369092Y-127716909D01*
X41488239Y-127880904D01*
X41631595Y-128024260D01*
X41776842Y-128129786D01*
X41795594Y-128143410D01*
X41976218Y-128235443D01*
X42169016Y-128298087D01*
X42369240Y-128329800D01*
X42369241Y-128329800D01*
X42571959Y-128329800D01*
X42571960Y-128329800D01*
X42772184Y-128298087D01*
X42964982Y-128235443D01*
X43145606Y-128143410D01*
X43237685Y-128076510D01*
X43309604Y-128024260D01*
X43309606Y-128024257D01*
X43309610Y-128024255D01*
X43452955Y-127880910D01*
X43452957Y-127880906D01*
X43452960Y-127880904D01*
X43540673Y-127760175D01*
X43572110Y-127716906D01*
X43664143Y-127536282D01*
X43726787Y-127343484D01*
X43758500Y-127143260D01*
X43758500Y-126940540D01*
X43726787Y-126740316D01*
X43664143Y-126547518D01*
X43572110Y-126366894D01*
X43564454Y-126356356D01*
X43452960Y-126202895D01*
X43309604Y-126059539D01*
X43231192Y-126002571D01*
X43231188Y-126002569D01*
X43145606Y-125940390D01*
X43076450Y-125905153D01*
X90639500Y-125905153D01*
X90639500Y-126062846D01*
X90670261Y-126217489D01*
X90670264Y-126217501D01*
X90730602Y-126363172D01*
X90730609Y-126363185D01*
X90818210Y-126494288D01*
X90818213Y-126494292D01*
X90929707Y-126605786D01*
X90985248Y-126642898D01*
X91030052Y-126696511D01*
X91038759Y-126765836D01*
X91008604Y-126828863D01*
X90985248Y-126849102D01*
X90929707Y-126886213D01*
X90818213Y-126997707D01*
X90818210Y-126997711D01*
X90730609Y-127128814D01*
X90730602Y-127128827D01*
X90670264Y-127274498D01*
X90670261Y-127274510D01*
X90639500Y-127429153D01*
X90639500Y-127586846D01*
X90670261Y-127741489D01*
X90670264Y-127741501D01*
X90730602Y-127887172D01*
X90730609Y-127887185D01*
X90818210Y-128018288D01*
X90818213Y-128018292D01*
X90929707Y-128129786D01*
X90929711Y-128129789D01*
X91060814Y-128217390D01*
X91060827Y-128217397D01*
X91187824Y-128270000D01*
X91206503Y-128277737D01*
X91308809Y-128298087D01*
X91361153Y-128308499D01*
X91361156Y-128308500D01*
X91361158Y-128308500D01*
X91518844Y-128308500D01*
X91518845Y-128308499D01*
X91673497Y-128277737D01*
X91819179Y-128217394D01*
X91950289Y-128129789D01*
X92061789Y-128018289D01*
X92098898Y-127962752D01*
X92152510Y-127917947D01*
X92221835Y-127909240D01*
X92284863Y-127939394D01*
X92305102Y-127962752D01*
X92342210Y-128018288D01*
X92342213Y-128018292D01*
X92453707Y-128129786D01*
X92453711Y-128129789D01*
X92584814Y-128217390D01*
X92584827Y-128217397D01*
X92711824Y-128270000D01*
X92730503Y-128277737D01*
X92832809Y-128298087D01*
X92885153Y-128308499D01*
X92885156Y-128308500D01*
X92885158Y-128308500D01*
X93042844Y-128308500D01*
X93042845Y-128308499D01*
X93197497Y-128277737D01*
X93343179Y-128217394D01*
X93474289Y-128129789D01*
X93585789Y-128018289D01*
X93622898Y-127962752D01*
X93676510Y-127917947D01*
X93745835Y-127909240D01*
X93808863Y-127939394D01*
X93829102Y-127962752D01*
X93866210Y-128018288D01*
X93866213Y-128018292D01*
X93977707Y-128129786D01*
X93977711Y-128129789D01*
X94108814Y-128217390D01*
X94108827Y-128217397D01*
X94235824Y-128270000D01*
X94254503Y-128277737D01*
X94356809Y-128298087D01*
X94409153Y-128308499D01*
X94409156Y-128308500D01*
X94409158Y-128308500D01*
X94566844Y-128308500D01*
X94566845Y-128308499D01*
X94721497Y-128277737D01*
X94867179Y-128217394D01*
X94998289Y-128129789D01*
X95109789Y-128018289D01*
X95146898Y-127962752D01*
X95200510Y-127917947D01*
X95269835Y-127909240D01*
X95332863Y-127939394D01*
X95353102Y-127962752D01*
X95390210Y-128018288D01*
X95390213Y-128018292D01*
X95501707Y-128129786D01*
X95501711Y-128129789D01*
X95632814Y-128217390D01*
X95632827Y-128217397D01*
X95759824Y-128270000D01*
X95778503Y-128277737D01*
X95880809Y-128298087D01*
X95933153Y-128308499D01*
X95933156Y-128308500D01*
X95933158Y-128308500D01*
X96090844Y-128308500D01*
X96090845Y-128308499D01*
X96245497Y-128277737D01*
X96391179Y-128217394D01*
X96522289Y-128129789D01*
X96633789Y-128018289D01*
X96670898Y-127962752D01*
X96724510Y-127917947D01*
X96793835Y-127909240D01*
X96856863Y-127939394D01*
X96877102Y-127962752D01*
X96914210Y-128018288D01*
X96914213Y-128018292D01*
X97025707Y-128129786D01*
X97025711Y-128129789D01*
X97156814Y-128217390D01*
X97156827Y-128217397D01*
X97283824Y-128270000D01*
X97302503Y-128277737D01*
X97404809Y-128298087D01*
X97457153Y-128308499D01*
X97457156Y-128308500D01*
X97457158Y-128308500D01*
X97614844Y-128308500D01*
X97614845Y-128308499D01*
X97769497Y-128277737D01*
X97915179Y-128217394D01*
X98046289Y-128129789D01*
X98157789Y-128018289D01*
X98194898Y-127962752D01*
X98248510Y-127917947D01*
X98317835Y-127909240D01*
X98380863Y-127939394D01*
X98401102Y-127962752D01*
X98438210Y-128018288D01*
X98438213Y-128018292D01*
X98549707Y-128129786D01*
X98549711Y-128129789D01*
X98680814Y-128217390D01*
X98680827Y-128217397D01*
X98807824Y-128270000D01*
X98826503Y-128277737D01*
X98928809Y-128298087D01*
X98981153Y-128308499D01*
X98981156Y-128308500D01*
X98981158Y-128308500D01*
X99138844Y-128308500D01*
X99138845Y-128308499D01*
X99293497Y-128277737D01*
X99439179Y-128217394D01*
X99570289Y-128129789D01*
X99681789Y-128018289D01*
X99718898Y-127962752D01*
X99772510Y-127917947D01*
X99841835Y-127909240D01*
X99904863Y-127939394D01*
X99925102Y-127962752D01*
X99962210Y-128018288D01*
X99962213Y-128018292D01*
X100073707Y-128129786D01*
X100073711Y-128129789D01*
X100204814Y-128217390D01*
X100204827Y-128217397D01*
X100331824Y-128270000D01*
X100350503Y-128277737D01*
X100452809Y-128298087D01*
X100505153Y-128308499D01*
X100505156Y-128308500D01*
X100505158Y-128308500D01*
X100662844Y-128308500D01*
X100662845Y-128308499D01*
X100817497Y-128277737D01*
X100963179Y-128217394D01*
X101094289Y-128129789D01*
X101205789Y-128018289D01*
X101242898Y-127962752D01*
X101296510Y-127917947D01*
X101365835Y-127909240D01*
X101428863Y-127939394D01*
X101449102Y-127962752D01*
X101486210Y-128018288D01*
X101486213Y-128018292D01*
X101597707Y-128129786D01*
X101597711Y-128129789D01*
X101728814Y-128217390D01*
X101728827Y-128217397D01*
X101855824Y-128270000D01*
X101874503Y-128277737D01*
X101976809Y-128298087D01*
X102029153Y-128308499D01*
X102029156Y-128308500D01*
X102029158Y-128308500D01*
X102186844Y-128308500D01*
X102186845Y-128308499D01*
X102341497Y-128277737D01*
X102487179Y-128217394D01*
X102618289Y-128129789D01*
X102729789Y-128018289D01*
X102766898Y-127962752D01*
X102820510Y-127917947D01*
X102889835Y-127909240D01*
X102952863Y-127939394D01*
X102973102Y-127962752D01*
X103010210Y-128018288D01*
X103010213Y-128018292D01*
X103121707Y-128129786D01*
X103121711Y-128129789D01*
X103252814Y-128217390D01*
X103252827Y-128217397D01*
X103379824Y-128270000D01*
X103398503Y-128277737D01*
X103500809Y-128298087D01*
X103553153Y-128308499D01*
X103553156Y-128308500D01*
X103553158Y-128308500D01*
X103710844Y-128308500D01*
X103710845Y-128308499D01*
X103865497Y-128277737D01*
X104011179Y-128217394D01*
X104142289Y-128129789D01*
X104253789Y-128018289D01*
X104290898Y-127962752D01*
X104344510Y-127917947D01*
X104413835Y-127909240D01*
X104476863Y-127939394D01*
X104497102Y-127962752D01*
X104534210Y-128018288D01*
X104534213Y-128018292D01*
X104645707Y-128129786D01*
X104645711Y-128129789D01*
X104776814Y-128217390D01*
X104776827Y-128217397D01*
X104903824Y-128270000D01*
X104922503Y-128277737D01*
X105024809Y-128298087D01*
X105077153Y-128308499D01*
X105077156Y-128308500D01*
X105077158Y-128308500D01*
X105234844Y-128308500D01*
X105234845Y-128308499D01*
X105389497Y-128277737D01*
X105535179Y-128217394D01*
X105666289Y-128129789D01*
X105777789Y-128018289D01*
X105814898Y-127962752D01*
X105868510Y-127917947D01*
X105937835Y-127909240D01*
X106000863Y-127939394D01*
X106021102Y-127962752D01*
X106058210Y-128018288D01*
X106058213Y-128018292D01*
X106169707Y-128129786D01*
X106169711Y-128129789D01*
X106300814Y-128217390D01*
X106300827Y-128217397D01*
X106427824Y-128270000D01*
X106446503Y-128277737D01*
X106548809Y-128298087D01*
X106601153Y-128308499D01*
X106601156Y-128308500D01*
X106601158Y-128308500D01*
X106758844Y-128308500D01*
X106758845Y-128308499D01*
X106913497Y-128277737D01*
X107059179Y-128217394D01*
X107190289Y-128129789D01*
X107301789Y-128018289D01*
X107338898Y-127962752D01*
X107392510Y-127917947D01*
X107461835Y-127909240D01*
X107524863Y-127939394D01*
X107545102Y-127962752D01*
X107582210Y-128018288D01*
X107582213Y-128018292D01*
X107693707Y-128129786D01*
X107693711Y-128129789D01*
X107824814Y-128217390D01*
X107824827Y-128217397D01*
X107951824Y-128270000D01*
X107970503Y-128277737D01*
X108072809Y-128298087D01*
X108125153Y-128308499D01*
X108125156Y-128308500D01*
X108125158Y-128308500D01*
X108282844Y-128308500D01*
X108282845Y-128308499D01*
X108437497Y-128277737D01*
X108583179Y-128217394D01*
X108714289Y-128129789D01*
X108825789Y-128018289D01*
X108913394Y-127887179D01*
X108973737Y-127741497D01*
X109004500Y-127586842D01*
X109004500Y-127429158D01*
X109004500Y-127429155D01*
X109004499Y-127429153D01*
X108973738Y-127274510D01*
X108973737Y-127274503D01*
X108919375Y-127143260D01*
X108913397Y-127128827D01*
X108913390Y-127128814D01*
X108825789Y-126997711D01*
X108825786Y-126997707D01*
X108714292Y-126886213D01*
X108714288Y-126886210D01*
X108658752Y-126849102D01*
X108613947Y-126795490D01*
X108605240Y-126726165D01*
X108635394Y-126663137D01*
X108658752Y-126642898D01*
X108676779Y-126630852D01*
X108714289Y-126605789D01*
X108825789Y-126494289D01*
X108913394Y-126363179D01*
X108973737Y-126217497D01*
X109004500Y-126062842D01*
X109004500Y-125905158D01*
X109004500Y-125905155D01*
X109004499Y-125905153D01*
X108994631Y-125855542D01*
X108973737Y-125750503D01*
X108950931Y-125695443D01*
X108913397Y-125604827D01*
X108913390Y-125604814D01*
X108825789Y-125473711D01*
X108825786Y-125473707D01*
X108714292Y-125362213D01*
X108714288Y-125362210D01*
X108583185Y-125274609D01*
X108583172Y-125274602D01*
X108437501Y-125214264D01*
X108437489Y-125214261D01*
X108282845Y-125183500D01*
X108282842Y-125183500D01*
X108125158Y-125183500D01*
X108125155Y-125183500D01*
X107970510Y-125214261D01*
X107970498Y-125214264D01*
X107824827Y-125274602D01*
X107824814Y-125274609D01*
X107693711Y-125362210D01*
X107693707Y-125362213D01*
X107582213Y-125473707D01*
X107545102Y-125529248D01*
X107491489Y-125574052D01*
X107422164Y-125582759D01*
X107359137Y-125552604D01*
X107338898Y-125529248D01*
X107320517Y-125501740D01*
X107301789Y-125473711D01*
X107301788Y-125473710D01*
X107301786Y-125473707D01*
X107190292Y-125362213D01*
X107190288Y-125362210D01*
X107059185Y-125274609D01*
X107059172Y-125274602D01*
X106913501Y-125214264D01*
X106913489Y-125214261D01*
X106758845Y-125183500D01*
X106758842Y-125183500D01*
X106601158Y-125183500D01*
X106601155Y-125183500D01*
X106446510Y-125214261D01*
X106446498Y-125214264D01*
X106300827Y-125274602D01*
X106300814Y-125274609D01*
X106169711Y-125362210D01*
X106169707Y-125362213D01*
X106058213Y-125473707D01*
X106021102Y-125529248D01*
X105967489Y-125574052D01*
X105898164Y-125582759D01*
X105835137Y-125552604D01*
X105814898Y-125529248D01*
X105796517Y-125501740D01*
X105777789Y-125473711D01*
X105777788Y-125473710D01*
X105777786Y-125473707D01*
X105666292Y-125362213D01*
X105666288Y-125362210D01*
X105535185Y-125274609D01*
X105535172Y-125274602D01*
X105389501Y-125214264D01*
X105389489Y-125214261D01*
X105234845Y-125183500D01*
X105234842Y-125183500D01*
X105077158Y-125183500D01*
X105077155Y-125183500D01*
X104922510Y-125214261D01*
X104922498Y-125214264D01*
X104776827Y-125274602D01*
X104776814Y-125274609D01*
X104645711Y-125362210D01*
X104645707Y-125362213D01*
X104534213Y-125473707D01*
X104497102Y-125529248D01*
X104443489Y-125574052D01*
X104374164Y-125582759D01*
X104311137Y-125552604D01*
X104290898Y-125529248D01*
X104272517Y-125501740D01*
X104253789Y-125473711D01*
X104253788Y-125473710D01*
X104253786Y-125473707D01*
X104142292Y-125362213D01*
X104142288Y-125362210D01*
X104011185Y-125274609D01*
X104011172Y-125274602D01*
X103865501Y-125214264D01*
X103865489Y-125214261D01*
X103710845Y-125183500D01*
X103710842Y-125183500D01*
X103553158Y-125183500D01*
X103553155Y-125183500D01*
X103398510Y-125214261D01*
X103398498Y-125214264D01*
X103252827Y-125274602D01*
X103252814Y-125274609D01*
X103121711Y-125362210D01*
X103121707Y-125362213D01*
X103010213Y-125473707D01*
X102973102Y-125529248D01*
X102919489Y-125574052D01*
X102850164Y-125582759D01*
X102787137Y-125552604D01*
X102766898Y-125529248D01*
X102748517Y-125501740D01*
X102729789Y-125473711D01*
X102729788Y-125473710D01*
X102729786Y-125473707D01*
X102618292Y-125362213D01*
X102618288Y-125362210D01*
X102487185Y-125274609D01*
X102487172Y-125274602D01*
X102341501Y-125214264D01*
X102341489Y-125214261D01*
X102186845Y-125183500D01*
X102186842Y-125183500D01*
X102029158Y-125183500D01*
X102029155Y-125183500D01*
X101874510Y-125214261D01*
X101874498Y-125214264D01*
X101728827Y-125274602D01*
X101728814Y-125274609D01*
X101597711Y-125362210D01*
X101597707Y-125362213D01*
X101486213Y-125473707D01*
X101449102Y-125529248D01*
X101395489Y-125574052D01*
X101326164Y-125582759D01*
X101263137Y-125552604D01*
X101242898Y-125529248D01*
X101224517Y-125501740D01*
X101205789Y-125473711D01*
X101205788Y-125473710D01*
X101205786Y-125473707D01*
X101094292Y-125362213D01*
X101094288Y-125362210D01*
X100963185Y-125274609D01*
X100963172Y-125274602D01*
X100817501Y-125214264D01*
X100817489Y-125214261D01*
X100662845Y-125183500D01*
X100662842Y-125183500D01*
X100505158Y-125183500D01*
X100505155Y-125183500D01*
X100350510Y-125214261D01*
X100350498Y-125214264D01*
X100204827Y-125274602D01*
X100204814Y-125274609D01*
X100073711Y-125362210D01*
X100073707Y-125362213D01*
X99962213Y-125473707D01*
X99925102Y-125529248D01*
X99871489Y-125574052D01*
X99802164Y-125582759D01*
X99739137Y-125552604D01*
X99718898Y-125529248D01*
X99700517Y-125501740D01*
X99681789Y-125473711D01*
X99681788Y-125473710D01*
X99681786Y-125473707D01*
X99570292Y-125362213D01*
X99570288Y-125362210D01*
X99439185Y-125274609D01*
X99439172Y-125274602D01*
X99293501Y-125214264D01*
X99293489Y-125214261D01*
X99138845Y-125183500D01*
X99138842Y-125183500D01*
X98981158Y-125183500D01*
X98981155Y-125183500D01*
X98826510Y-125214261D01*
X98826498Y-125214264D01*
X98680827Y-125274602D01*
X98680814Y-125274609D01*
X98549711Y-125362210D01*
X98549707Y-125362213D01*
X98438213Y-125473707D01*
X98401102Y-125529248D01*
X98347489Y-125574052D01*
X98278164Y-125582759D01*
X98215137Y-125552604D01*
X98194898Y-125529248D01*
X98176517Y-125501740D01*
X98157789Y-125473711D01*
X98157788Y-125473710D01*
X98157786Y-125473707D01*
X98046292Y-125362213D01*
X98046288Y-125362210D01*
X97915185Y-125274609D01*
X97915172Y-125274602D01*
X97769501Y-125214264D01*
X97769489Y-125214261D01*
X97614845Y-125183500D01*
X97614842Y-125183500D01*
X97457158Y-125183500D01*
X97457155Y-125183500D01*
X97302510Y-125214261D01*
X97302498Y-125214264D01*
X97156827Y-125274602D01*
X97156814Y-125274609D01*
X97025711Y-125362210D01*
X97025707Y-125362213D01*
X96914213Y-125473707D01*
X96877102Y-125529248D01*
X96823489Y-125574052D01*
X96754164Y-125582759D01*
X96691137Y-125552604D01*
X96670898Y-125529248D01*
X96652517Y-125501740D01*
X96633789Y-125473711D01*
X96633788Y-125473710D01*
X96633786Y-125473707D01*
X96522292Y-125362213D01*
X96522288Y-125362210D01*
X96391185Y-125274609D01*
X96391172Y-125274602D01*
X96245501Y-125214264D01*
X96245489Y-125214261D01*
X96090845Y-125183500D01*
X96090842Y-125183500D01*
X95933158Y-125183500D01*
X95933155Y-125183500D01*
X95778510Y-125214261D01*
X95778498Y-125214264D01*
X95632827Y-125274602D01*
X95632814Y-125274609D01*
X95501711Y-125362210D01*
X95501707Y-125362213D01*
X95390213Y-125473707D01*
X95353102Y-125529248D01*
X95299489Y-125574052D01*
X95230164Y-125582759D01*
X95167137Y-125552604D01*
X95146898Y-125529248D01*
X95128517Y-125501740D01*
X95109789Y-125473711D01*
X95109788Y-125473710D01*
X95109786Y-125473707D01*
X94998292Y-125362213D01*
X94998288Y-125362210D01*
X94867185Y-125274609D01*
X94867172Y-125274602D01*
X94721501Y-125214264D01*
X94721489Y-125214261D01*
X94566845Y-125183500D01*
X94566842Y-125183500D01*
X94409158Y-125183500D01*
X94409155Y-125183500D01*
X94254510Y-125214261D01*
X94254498Y-125214264D01*
X94108827Y-125274602D01*
X94108814Y-125274609D01*
X93977711Y-125362210D01*
X93977707Y-125362213D01*
X93866213Y-125473707D01*
X93829102Y-125529248D01*
X93775489Y-125574052D01*
X93706164Y-125582759D01*
X93643137Y-125552604D01*
X93622898Y-125529248D01*
X93604517Y-125501740D01*
X93585789Y-125473711D01*
X93585788Y-125473710D01*
X93585786Y-125473707D01*
X93474292Y-125362213D01*
X93474288Y-125362210D01*
X93343185Y-125274609D01*
X93343172Y-125274602D01*
X93197501Y-125214264D01*
X93197489Y-125214261D01*
X93042845Y-125183500D01*
X93042842Y-125183500D01*
X92885158Y-125183500D01*
X92885155Y-125183500D01*
X92730510Y-125214261D01*
X92730498Y-125214264D01*
X92584827Y-125274602D01*
X92584814Y-125274609D01*
X92453711Y-125362210D01*
X92453707Y-125362213D01*
X92342213Y-125473707D01*
X92305102Y-125529248D01*
X92251489Y-125574052D01*
X92182164Y-125582759D01*
X92119137Y-125552604D01*
X92098898Y-125529248D01*
X92080517Y-125501740D01*
X92061789Y-125473711D01*
X92061788Y-125473710D01*
X92061786Y-125473707D01*
X91950292Y-125362213D01*
X91950288Y-125362210D01*
X91819185Y-125274609D01*
X91819172Y-125274602D01*
X91673501Y-125214264D01*
X91673489Y-125214261D01*
X91518845Y-125183500D01*
X91518842Y-125183500D01*
X91361158Y-125183500D01*
X91361155Y-125183500D01*
X91206510Y-125214261D01*
X91206498Y-125214264D01*
X91060827Y-125274602D01*
X91060814Y-125274609D01*
X90929711Y-125362210D01*
X90929707Y-125362213D01*
X90818213Y-125473707D01*
X90818210Y-125473711D01*
X90730609Y-125604814D01*
X90730602Y-125604827D01*
X90670264Y-125750498D01*
X90670261Y-125750510D01*
X90639500Y-125905153D01*
X43076450Y-125905153D01*
X43027899Y-125880415D01*
X43024193Y-125878188D01*
X43003343Y-125855542D01*
X42980969Y-125834410D01*
X42979894Y-125830072D01*
X42976869Y-125826786D01*
X42971572Y-125796465D01*
X42964174Y-125766589D01*
X42965615Y-125762360D01*
X42964846Y-125757958D01*
X42976783Y-125729586D01*
X42986711Y-125700454D01*
X42990377Y-125697276D01*
X42991943Y-125693557D01*
X43005043Y-125684568D01*
X43031765Y-125661415D01*
X43145606Y-125603410D01*
X43247682Y-125529248D01*
X43309604Y-125484260D01*
X43309606Y-125484257D01*
X43309610Y-125484255D01*
X43452955Y-125340910D01*
X43452957Y-125340906D01*
X43452960Y-125340904D01*
X43524936Y-125241836D01*
X43572110Y-125176906D01*
X43664143Y-124996282D01*
X43726787Y-124803484D01*
X43758500Y-124603260D01*
X43758500Y-124400540D01*
X43726787Y-124200316D01*
X43664143Y-124007518D01*
X43572110Y-123826894D01*
X43538667Y-123780863D01*
X43452960Y-123662895D01*
X43309604Y-123519539D01*
X43145609Y-123400392D01*
X43145608Y-123400391D01*
X43145606Y-123400390D01*
X43031764Y-123342384D01*
X42980969Y-123294410D01*
X42964174Y-123226589D01*
X42986711Y-123160454D01*
X43031765Y-123121415D01*
X43145606Y-123063410D01*
X43237685Y-122996510D01*
X43309604Y-122944260D01*
X43309606Y-122944257D01*
X43309610Y-122944255D01*
X43452955Y-122800910D01*
X43452957Y-122800906D01*
X43452960Y-122800904D01*
X43538022Y-122683824D01*
X43572110Y-122636906D01*
X43664143Y-122456282D01*
X43726787Y-122263484D01*
X43758500Y-122063260D01*
X43758500Y-121860540D01*
X43726787Y-121660316D01*
X43664143Y-121467518D01*
X43572110Y-121286894D01*
X43512790Y-121205246D01*
X43452960Y-121122895D01*
X43309604Y-120979539D01*
X43145609Y-120860392D01*
X43145608Y-120860391D01*
X43145606Y-120860390D01*
X42964982Y-120768357D01*
X42772184Y-120705713D01*
X42772182Y-120705712D01*
X42772180Y-120705712D01*
X42632382Y-120683570D01*
X42571960Y-120674000D01*
X42369240Y-120674000D01*
X42322824Y-120681351D01*
X42169019Y-120705712D01*
X41976215Y-120768358D01*
X41795590Y-120860392D01*
X41631595Y-120979539D01*
X41488239Y-121122895D01*
X41369092Y-121286890D01*
X41277058Y-121467515D01*
X41214412Y-121660319D01*
X41182700Y-121860540D01*
X27940000Y-121860540D01*
X27940000Y-118793153D01*
X80987500Y-118793153D01*
X80987500Y-118950846D01*
X81018261Y-119105489D01*
X81018264Y-119105501D01*
X81078602Y-119251172D01*
X81078609Y-119251185D01*
X81166210Y-119382288D01*
X81166213Y-119382292D01*
X81277707Y-119493786D01*
X81277711Y-119493789D01*
X81408814Y-119581390D01*
X81408827Y-119581397D01*
X81554498Y-119641735D01*
X81554503Y-119641737D01*
X81709153Y-119672499D01*
X81709156Y-119672500D01*
X81709158Y-119672500D01*
X81866844Y-119672500D01*
X81866845Y-119672499D01*
X82021497Y-119641737D01*
X82167179Y-119581394D01*
X82298289Y-119493789D01*
X82409789Y-119382289D01*
X82497394Y-119251179D01*
X82557737Y-119105497D01*
X82588500Y-118950842D01*
X82588500Y-118793158D01*
X82588500Y-118793155D01*
X82588499Y-118793153D01*
X88099500Y-118793153D01*
X88099500Y-118950846D01*
X88130261Y-119105489D01*
X88130264Y-119105501D01*
X88190602Y-119251172D01*
X88190609Y-119251185D01*
X88278210Y-119382288D01*
X88278213Y-119382292D01*
X88389707Y-119493786D01*
X88389711Y-119493789D01*
X88520814Y-119581390D01*
X88520827Y-119581397D01*
X88666498Y-119641735D01*
X88666503Y-119641737D01*
X88821153Y-119672499D01*
X88821156Y-119672500D01*
X88821158Y-119672500D01*
X88978844Y-119672500D01*
X88978845Y-119672499D01*
X89133497Y-119641737D01*
X89279179Y-119581394D01*
X89410289Y-119493789D01*
X89521789Y-119382289D01*
X89609394Y-119251179D01*
X89669737Y-119105497D01*
X89700500Y-118950842D01*
X89700500Y-118793158D01*
X89700500Y-118793155D01*
X89700499Y-118793153D01*
X89690557Y-118743172D01*
X89669737Y-118638503D01*
X89635376Y-118555547D01*
X89609397Y-118492827D01*
X89609390Y-118492814D01*
X89521789Y-118361711D01*
X89521786Y-118361707D01*
X89410292Y-118250213D01*
X89410288Y-118250210D01*
X89279185Y-118162609D01*
X89279172Y-118162602D01*
X89133501Y-118102264D01*
X89133489Y-118102261D01*
X88978845Y-118071500D01*
X88978842Y-118071500D01*
X88821158Y-118071500D01*
X88821155Y-118071500D01*
X88666510Y-118102261D01*
X88666498Y-118102264D01*
X88520827Y-118162602D01*
X88520814Y-118162609D01*
X88389711Y-118250210D01*
X88389707Y-118250213D01*
X88278213Y-118361707D01*
X88278210Y-118361711D01*
X88190609Y-118492814D01*
X88190602Y-118492827D01*
X88130264Y-118638498D01*
X88130261Y-118638510D01*
X88099500Y-118793153D01*
X82588499Y-118793153D01*
X82578557Y-118743172D01*
X82557737Y-118638503D01*
X82523376Y-118555547D01*
X82497397Y-118492827D01*
X82497390Y-118492814D01*
X82409789Y-118361711D01*
X82409786Y-118361707D01*
X82298292Y-118250213D01*
X82298288Y-118250210D01*
X82167185Y-118162609D01*
X82167172Y-118162602D01*
X82021501Y-118102264D01*
X82021489Y-118102261D01*
X81866845Y-118071500D01*
X81866842Y-118071500D01*
X81709158Y-118071500D01*
X81709155Y-118071500D01*
X81554510Y-118102261D01*
X81554498Y-118102264D01*
X81408827Y-118162602D01*
X81408814Y-118162609D01*
X81277711Y-118250210D01*
X81277707Y-118250213D01*
X81166213Y-118361707D01*
X81166210Y-118361711D01*
X81078609Y-118492814D01*
X81078602Y-118492827D01*
X81018264Y-118638498D01*
X81018261Y-118638510D01*
X80987500Y-118793153D01*
X27940000Y-118793153D01*
X27940000Y-116450135D01*
X92629500Y-116450135D01*
X92629500Y-118245870D01*
X92629501Y-118245876D01*
X92635908Y-118305483D01*
X92686202Y-118440328D01*
X92686206Y-118440335D01*
X92772452Y-118555544D01*
X92772455Y-118555547D01*
X92887664Y-118641793D01*
X92887671Y-118641797D01*
X93019082Y-118690810D01*
X93075016Y-118732681D01*
X93099433Y-118798145D01*
X93084582Y-118866418D01*
X93063431Y-118894673D01*
X92949889Y-119008215D01*
X92824951Y-119180179D01*
X92728444Y-119369585D01*
X92662753Y-119571760D01*
X92629500Y-119781713D01*
X92629500Y-119994286D01*
X92652606Y-120140175D01*
X92662754Y-120204243D01*
X92725803Y-120398288D01*
X92728444Y-120406414D01*
X92824951Y-120595820D01*
X92949890Y-120767786D01*
X93100213Y-120918109D01*
X93272179Y-121043048D01*
X93272181Y-121043049D01*
X93272184Y-121043051D01*
X93461588Y-121139557D01*
X93663757Y-121205246D01*
X93873713Y-121238500D01*
X93873714Y-121238500D01*
X94086286Y-121238500D01*
X94086287Y-121238500D01*
X94296243Y-121205246D01*
X94498412Y-121139557D01*
X94687816Y-121043051D01*
X94709789Y-121027086D01*
X94859786Y-120918109D01*
X94859788Y-120918106D01*
X94859792Y-120918104D01*
X95010104Y-120767792D01*
X95010106Y-120767788D01*
X95010109Y-120767786D01*
X95131640Y-120600511D01*
X95135051Y-120595816D01*
X95231557Y-120406412D01*
X95297246Y-120204243D01*
X95330500Y-119994287D01*
X95330500Y-119781713D01*
X95297246Y-119571757D01*
X95231557Y-119369588D01*
X95135051Y-119180184D01*
X95135049Y-119180181D01*
X95135048Y-119180179D01*
X95010109Y-119008213D01*
X94896569Y-118894673D01*
X94863084Y-118833350D01*
X94868068Y-118763658D01*
X94909940Y-118707725D01*
X94940915Y-118690810D01*
X95072331Y-118641796D01*
X95187546Y-118555546D01*
X95273796Y-118440331D01*
X95324091Y-118305483D01*
X95330500Y-118245873D01*
X95330499Y-116450135D01*
X97201500Y-116450135D01*
X97201500Y-118245870D01*
X97201501Y-118245876D01*
X97207908Y-118305483D01*
X97258202Y-118440328D01*
X97258206Y-118440335D01*
X97344452Y-118555544D01*
X97344455Y-118555547D01*
X97459664Y-118641793D01*
X97459671Y-118641797D01*
X97591082Y-118690810D01*
X97647016Y-118732681D01*
X97671433Y-118798145D01*
X97656582Y-118866418D01*
X97635431Y-118894673D01*
X97521889Y-119008215D01*
X97396951Y-119180179D01*
X97300444Y-119369585D01*
X97234753Y-119571760D01*
X97201500Y-119781713D01*
X97201500Y-119994286D01*
X97224606Y-120140175D01*
X97234754Y-120204243D01*
X97297803Y-120398288D01*
X97300444Y-120406414D01*
X97396951Y-120595820D01*
X97521890Y-120767786D01*
X97672213Y-120918109D01*
X97844179Y-121043048D01*
X97844181Y-121043049D01*
X97844184Y-121043051D01*
X98033588Y-121139557D01*
X98235757Y-121205246D01*
X98445713Y-121238500D01*
X98445714Y-121238500D01*
X98658286Y-121238500D01*
X98658287Y-121238500D01*
X98868243Y-121205246D01*
X99070412Y-121139557D01*
X99259816Y-121043051D01*
X99281789Y-121027086D01*
X99431786Y-120918109D01*
X99431788Y-120918106D01*
X99431792Y-120918104D01*
X99582104Y-120767792D01*
X99582106Y-120767788D01*
X99582109Y-120767786D01*
X99703640Y-120600511D01*
X99707051Y-120595816D01*
X99803557Y-120406412D01*
X99869246Y-120204243D01*
X99902500Y-119994287D01*
X99902500Y-119781713D01*
X99869246Y-119571757D01*
X99803557Y-119369588D01*
X99707051Y-119180184D01*
X99707049Y-119180181D01*
X99707048Y-119180179D01*
X99582109Y-119008213D01*
X99468569Y-118894673D01*
X99435084Y-118833350D01*
X99440068Y-118763658D01*
X99481940Y-118707725D01*
X99512915Y-118690810D01*
X99644331Y-118641796D01*
X99759546Y-118555546D01*
X99845796Y-118440331D01*
X99896091Y-118305483D01*
X99902500Y-118245873D01*
X99902499Y-116450135D01*
X101773500Y-116450135D01*
X101773500Y-118245870D01*
X101773501Y-118245876D01*
X101779908Y-118305483D01*
X101830202Y-118440328D01*
X101830206Y-118440335D01*
X101916452Y-118555544D01*
X101916455Y-118555547D01*
X102031664Y-118641793D01*
X102031671Y-118641797D01*
X102163082Y-118690810D01*
X102219016Y-118732681D01*
X102243433Y-118798145D01*
X102228582Y-118866418D01*
X102207431Y-118894673D01*
X102093889Y-119008215D01*
X101968951Y-119180179D01*
X101872444Y-119369585D01*
X101806753Y-119571760D01*
X101773500Y-119781713D01*
X101773500Y-119994286D01*
X101796606Y-120140175D01*
X101806754Y-120204243D01*
X101869803Y-120398288D01*
X101872444Y-120406414D01*
X101968951Y-120595820D01*
X102093890Y-120767786D01*
X102244213Y-120918109D01*
X102416179Y-121043048D01*
X102416181Y-121043049D01*
X102416184Y-121043051D01*
X102605588Y-121139557D01*
X102807757Y-121205246D01*
X103017713Y-121238500D01*
X103017714Y-121238500D01*
X103230286Y-121238500D01*
X103230287Y-121238500D01*
X103440243Y-121205246D01*
X103642412Y-121139557D01*
X103831816Y-121043051D01*
X103853789Y-121027086D01*
X104003786Y-120918109D01*
X104003788Y-120918106D01*
X104003792Y-120918104D01*
X104154104Y-120767792D01*
X104154106Y-120767788D01*
X104154109Y-120767786D01*
X104275640Y-120600511D01*
X104279051Y-120595816D01*
X104375557Y-120406412D01*
X104441246Y-120204243D01*
X104474500Y-119994287D01*
X104474500Y-119781713D01*
X104441246Y-119571757D01*
X104375557Y-119369588D01*
X104279051Y-119180184D01*
X104279049Y-119180181D01*
X104279048Y-119180179D01*
X104154109Y-119008213D01*
X104040569Y-118894673D01*
X104007084Y-118833350D01*
X104012068Y-118763658D01*
X104053940Y-118707725D01*
X104084915Y-118690810D01*
X104216331Y-118641796D01*
X104331546Y-118555546D01*
X104417796Y-118440331D01*
X104468091Y-118305483D01*
X104474500Y-118245873D01*
X104474499Y-116450135D01*
X106345500Y-116450135D01*
X106345500Y-118245870D01*
X106345501Y-118245876D01*
X106351908Y-118305483D01*
X106402202Y-118440328D01*
X106402206Y-118440335D01*
X106488452Y-118555544D01*
X106488455Y-118555547D01*
X106603664Y-118641793D01*
X106603671Y-118641797D01*
X106735082Y-118690810D01*
X106791016Y-118732681D01*
X106815433Y-118798145D01*
X106800582Y-118866418D01*
X106779431Y-118894673D01*
X106665889Y-119008215D01*
X106540951Y-119180179D01*
X106444444Y-119369585D01*
X106378753Y-119571760D01*
X106345500Y-119781713D01*
X106345500Y-119994286D01*
X106368606Y-120140175D01*
X106378754Y-120204243D01*
X106441803Y-120398288D01*
X106444444Y-120406414D01*
X106540951Y-120595820D01*
X106665890Y-120767786D01*
X106816213Y-120918109D01*
X106988179Y-121043048D01*
X106988181Y-121043049D01*
X106988184Y-121043051D01*
X107177588Y-121139557D01*
X107379757Y-121205246D01*
X107589713Y-121238500D01*
X107589714Y-121238500D01*
X107802286Y-121238500D01*
X107802287Y-121238500D01*
X108012243Y-121205246D01*
X108214412Y-121139557D01*
X108403816Y-121043051D01*
X108425789Y-121027086D01*
X108575786Y-120918109D01*
X108575788Y-120918106D01*
X108575792Y-120918104D01*
X108726104Y-120767792D01*
X108726106Y-120767788D01*
X108726109Y-120767786D01*
X108847640Y-120600511D01*
X108851051Y-120595816D01*
X108947557Y-120406412D01*
X109013246Y-120204243D01*
X109046500Y-119994287D01*
X109046500Y-119781713D01*
X109013246Y-119571757D01*
X108947557Y-119369588D01*
X108851051Y-119180184D01*
X108851049Y-119180181D01*
X108851048Y-119180179D01*
X108726109Y-119008213D01*
X108612569Y-118894673D01*
X108579084Y-118833350D01*
X108584068Y-118763658D01*
X108625940Y-118707725D01*
X108656915Y-118690810D01*
X108788331Y-118641796D01*
X108903546Y-118555546D01*
X108989796Y-118440331D01*
X109040091Y-118305483D01*
X109046500Y-118245873D01*
X109046499Y-116450128D01*
X109040091Y-116390517D01*
X109019120Y-116334292D01*
X108989797Y-116255671D01*
X108989793Y-116255664D01*
X108903547Y-116140455D01*
X108903544Y-116140452D01*
X108788335Y-116054206D01*
X108788328Y-116054202D01*
X108653482Y-116003908D01*
X108653483Y-116003908D01*
X108593883Y-115997501D01*
X108593881Y-115997500D01*
X108593873Y-115997500D01*
X108593864Y-115997500D01*
X106798129Y-115997500D01*
X106798123Y-115997501D01*
X106738516Y-116003908D01*
X106603671Y-116054202D01*
X106603664Y-116054206D01*
X106488455Y-116140452D01*
X106488452Y-116140455D01*
X106402206Y-116255664D01*
X106402202Y-116255671D01*
X106351908Y-116390517D01*
X106345966Y-116445789D01*
X106345501Y-116450123D01*
X106345500Y-116450135D01*
X104474499Y-116450135D01*
X104474499Y-116450128D01*
X104468091Y-116390517D01*
X104447120Y-116334292D01*
X104417797Y-116255671D01*
X104417793Y-116255664D01*
X104331547Y-116140455D01*
X104331544Y-116140452D01*
X104216335Y-116054206D01*
X104216328Y-116054202D01*
X104081482Y-116003908D01*
X104081483Y-116003908D01*
X104021883Y-115997501D01*
X104021881Y-115997500D01*
X104021873Y-115997500D01*
X104021864Y-115997500D01*
X102226129Y-115997500D01*
X102226123Y-115997501D01*
X102166516Y-116003908D01*
X102031671Y-116054202D01*
X102031664Y-116054206D01*
X101916455Y-116140452D01*
X101916452Y-116140455D01*
X101830206Y-116255664D01*
X101830202Y-116255671D01*
X101779908Y-116390517D01*
X101773966Y-116445789D01*
X101773501Y-116450123D01*
X101773500Y-116450135D01*
X99902499Y-116450135D01*
X99902499Y-116450128D01*
X99896091Y-116390517D01*
X99875120Y-116334292D01*
X99845797Y-116255671D01*
X99845793Y-116255664D01*
X99759547Y-116140455D01*
X99759544Y-116140452D01*
X99644335Y-116054206D01*
X99644328Y-116054202D01*
X99509482Y-116003908D01*
X99509483Y-116003908D01*
X99449883Y-115997501D01*
X99449881Y-115997500D01*
X99449873Y-115997500D01*
X99449864Y-115997500D01*
X97654129Y-115997500D01*
X97654123Y-115997501D01*
X97594516Y-116003908D01*
X97459671Y-116054202D01*
X97459664Y-116054206D01*
X97344455Y-116140452D01*
X97344452Y-116140455D01*
X97258206Y-116255664D01*
X97258202Y-116255671D01*
X97207908Y-116390517D01*
X97201966Y-116445789D01*
X97201501Y-116450123D01*
X97201500Y-116450135D01*
X95330499Y-116450135D01*
X95330499Y-116450128D01*
X95324091Y-116390517D01*
X95303120Y-116334292D01*
X95273797Y-116255671D01*
X95273793Y-116255664D01*
X95187547Y-116140455D01*
X95187544Y-116140452D01*
X95072335Y-116054206D01*
X95072328Y-116054202D01*
X94937482Y-116003908D01*
X94937483Y-116003908D01*
X94877883Y-115997501D01*
X94877881Y-115997500D01*
X94877873Y-115997500D01*
X94877864Y-115997500D01*
X93082129Y-115997500D01*
X93082123Y-115997501D01*
X93022516Y-116003908D01*
X92887671Y-116054202D01*
X92887664Y-116054206D01*
X92772455Y-116140452D01*
X92772452Y-116140455D01*
X92686206Y-116255664D01*
X92686202Y-116255671D01*
X92635908Y-116390517D01*
X92629966Y-116445789D01*
X92629501Y-116450123D01*
X92629500Y-116450135D01*
X27940000Y-116450135D01*
X27940000Y-115745153D01*
X114007500Y-115745153D01*
X114007500Y-115902846D01*
X114038261Y-116057489D01*
X114038264Y-116057501D01*
X114098602Y-116203172D01*
X114098609Y-116203185D01*
X114186210Y-116334288D01*
X114186213Y-116334292D01*
X114297707Y-116445786D01*
X114297711Y-116445789D01*
X114428814Y-116533390D01*
X114428827Y-116533397D01*
X114574498Y-116593735D01*
X114574503Y-116593737D01*
X114729153Y-116624499D01*
X114729156Y-116624500D01*
X114729158Y-116624500D01*
X114886844Y-116624500D01*
X114886845Y-116624499D01*
X115041497Y-116593737D01*
X115187179Y-116533394D01*
X115318289Y-116445789D01*
X115429789Y-116334289D01*
X115517394Y-116203179D01*
X115577737Y-116057497D01*
X115608500Y-115902842D01*
X115608500Y-115745158D01*
X115608500Y-115745155D01*
X115608499Y-115745153D01*
X115577738Y-115590510D01*
X115577737Y-115590503D01*
X115528213Y-115470940D01*
X115517397Y-115444827D01*
X115517390Y-115444814D01*
X115429789Y-115313711D01*
X115429786Y-115313707D01*
X115318292Y-115202213D01*
X115318288Y-115202210D01*
X115187185Y-115114609D01*
X115187172Y-115114602D01*
X115041501Y-115054264D01*
X115041489Y-115054261D01*
X114886845Y-115023500D01*
X114886842Y-115023500D01*
X114729158Y-115023500D01*
X114729155Y-115023500D01*
X114574510Y-115054261D01*
X114574498Y-115054264D01*
X114428827Y-115114602D01*
X114428814Y-115114609D01*
X114297711Y-115202210D01*
X114297707Y-115202213D01*
X114186213Y-115313707D01*
X114186210Y-115313711D01*
X114098609Y-115444814D01*
X114098602Y-115444827D01*
X114038264Y-115590498D01*
X114038261Y-115590510D01*
X114007500Y-115745153D01*
X27940000Y-115745153D01*
X27940000Y-113713153D01*
X121119500Y-113713153D01*
X121119500Y-113870846D01*
X121150261Y-114025489D01*
X121150264Y-114025501D01*
X121210602Y-114171172D01*
X121210609Y-114171185D01*
X121298210Y-114302288D01*
X121298213Y-114302292D01*
X121409707Y-114413786D01*
X121465248Y-114450898D01*
X121510052Y-114504511D01*
X121518759Y-114573836D01*
X121488604Y-114636863D01*
X121465248Y-114657102D01*
X121409707Y-114694213D01*
X121298213Y-114805707D01*
X121298210Y-114805711D01*
X121210609Y-114936814D01*
X121210602Y-114936827D01*
X121150264Y-115082498D01*
X121150261Y-115082510D01*
X121119500Y-115237153D01*
X121119500Y-115394846D01*
X121150261Y-115549489D01*
X121150264Y-115549501D01*
X121210602Y-115695172D01*
X121210609Y-115695185D01*
X121298210Y-115826288D01*
X121298213Y-115826292D01*
X121409707Y-115937786D01*
X121465248Y-115974898D01*
X121510052Y-116028511D01*
X121518759Y-116097836D01*
X121488604Y-116160863D01*
X121465248Y-116181102D01*
X121409707Y-116218213D01*
X121298213Y-116329707D01*
X121298210Y-116329711D01*
X121210609Y-116460814D01*
X121210602Y-116460827D01*
X121150264Y-116606498D01*
X121150261Y-116606510D01*
X121119500Y-116761153D01*
X121119500Y-116918846D01*
X121150261Y-117073489D01*
X121150264Y-117073501D01*
X121210602Y-117219172D01*
X121210609Y-117219185D01*
X121298210Y-117350288D01*
X121298213Y-117350292D01*
X121409707Y-117461786D01*
X121465248Y-117498898D01*
X121510052Y-117552511D01*
X121518759Y-117621836D01*
X121488604Y-117684863D01*
X121465248Y-117705102D01*
X121409707Y-117742213D01*
X121298213Y-117853707D01*
X121298210Y-117853711D01*
X121210609Y-117984814D01*
X121210602Y-117984827D01*
X121150264Y-118130498D01*
X121150261Y-118130510D01*
X121119500Y-118285153D01*
X121119500Y-118442846D01*
X121150261Y-118597489D01*
X121150264Y-118597501D01*
X121210602Y-118743172D01*
X121210609Y-118743185D01*
X121298210Y-118874288D01*
X121298213Y-118874292D01*
X121409707Y-118985786D01*
X121465248Y-119022898D01*
X121510052Y-119076511D01*
X121518759Y-119145836D01*
X121488604Y-119208863D01*
X121465248Y-119229102D01*
X121409707Y-119266213D01*
X121298213Y-119377707D01*
X121298210Y-119377711D01*
X121210609Y-119508814D01*
X121210602Y-119508827D01*
X121150264Y-119654498D01*
X121150261Y-119654510D01*
X121119500Y-119809153D01*
X121119500Y-119966846D01*
X121150261Y-120121489D01*
X121150264Y-120121501D01*
X121210602Y-120267172D01*
X121210609Y-120267185D01*
X121298210Y-120398288D01*
X121298213Y-120398292D01*
X121409707Y-120509786D01*
X121465248Y-120546898D01*
X121510052Y-120600511D01*
X121518759Y-120669836D01*
X121488604Y-120732863D01*
X121465248Y-120753102D01*
X121409707Y-120790213D01*
X121298213Y-120901707D01*
X121298210Y-120901711D01*
X121210609Y-121032814D01*
X121210602Y-121032827D01*
X121150264Y-121178498D01*
X121150261Y-121178510D01*
X121119500Y-121333153D01*
X121119500Y-121490846D01*
X121150261Y-121645489D01*
X121150264Y-121645501D01*
X121210602Y-121791172D01*
X121210609Y-121791185D01*
X121298210Y-121922288D01*
X121298213Y-121922292D01*
X121409707Y-122033786D01*
X121465248Y-122070898D01*
X121510052Y-122124511D01*
X121518759Y-122193836D01*
X121488604Y-122256863D01*
X121465248Y-122277102D01*
X121409707Y-122314213D01*
X121298213Y-122425707D01*
X121298210Y-122425711D01*
X121210609Y-122556814D01*
X121210602Y-122556827D01*
X121150264Y-122702498D01*
X121150261Y-122702510D01*
X121119500Y-122857153D01*
X121119500Y-123014846D01*
X121150261Y-123169489D01*
X121150264Y-123169501D01*
X121210602Y-123315172D01*
X121210609Y-123315185D01*
X121298210Y-123446288D01*
X121298213Y-123446292D01*
X121409707Y-123557786D01*
X121465248Y-123594898D01*
X121510052Y-123648511D01*
X121518759Y-123717836D01*
X121488604Y-123780863D01*
X121465248Y-123801102D01*
X121409707Y-123838213D01*
X121298213Y-123949707D01*
X121298210Y-123949711D01*
X121210609Y-124080814D01*
X121210602Y-124080827D01*
X121150264Y-124226498D01*
X121150261Y-124226510D01*
X121119500Y-124381153D01*
X121119500Y-124538846D01*
X121150261Y-124693489D01*
X121150264Y-124693501D01*
X121210602Y-124839172D01*
X121210609Y-124839185D01*
X121298210Y-124970288D01*
X121298213Y-124970292D01*
X121409707Y-125081786D01*
X121409711Y-125081789D01*
X121540814Y-125169390D01*
X121540827Y-125169397D01*
X121667824Y-125222000D01*
X121686503Y-125229737D01*
X121841153Y-125260499D01*
X121841156Y-125260500D01*
X121841158Y-125260500D01*
X121998844Y-125260500D01*
X121998845Y-125260499D01*
X122153497Y-125229737D01*
X122299179Y-125169394D01*
X122430289Y-125081789D01*
X122541789Y-124970289D01*
X122578898Y-124914752D01*
X122632510Y-124869947D01*
X122701835Y-124861240D01*
X122764863Y-124891394D01*
X122785102Y-124914752D01*
X122822210Y-124970288D01*
X122822213Y-124970292D01*
X122933707Y-125081786D01*
X122933711Y-125081789D01*
X123064814Y-125169390D01*
X123064827Y-125169397D01*
X123191824Y-125222000D01*
X123210503Y-125229737D01*
X123365153Y-125260499D01*
X123365156Y-125260500D01*
X123365158Y-125260500D01*
X123522844Y-125260500D01*
X123522845Y-125260499D01*
X123677497Y-125229737D01*
X123823179Y-125169394D01*
X123954289Y-125081789D01*
X124065789Y-124970289D01*
X124102898Y-124914752D01*
X124156510Y-124869947D01*
X124225835Y-124861240D01*
X124288863Y-124891394D01*
X124309102Y-124914752D01*
X124346210Y-124970288D01*
X124346213Y-124970292D01*
X124457707Y-125081786D01*
X124457711Y-125081789D01*
X124588814Y-125169390D01*
X124588827Y-125169397D01*
X124715824Y-125222000D01*
X124734503Y-125229737D01*
X124889153Y-125260499D01*
X124889156Y-125260500D01*
X124889158Y-125260500D01*
X125046844Y-125260500D01*
X125046845Y-125260499D01*
X125201497Y-125229737D01*
X125347179Y-125169394D01*
X125478289Y-125081789D01*
X125589789Y-124970289D01*
X125626898Y-124914752D01*
X125680510Y-124869947D01*
X125749835Y-124861240D01*
X125812863Y-124891394D01*
X125833102Y-124914752D01*
X125870210Y-124970288D01*
X125870213Y-124970292D01*
X125981707Y-125081786D01*
X125981711Y-125081789D01*
X126112814Y-125169390D01*
X126112827Y-125169397D01*
X126239824Y-125222000D01*
X126258503Y-125229737D01*
X126413153Y-125260499D01*
X126413156Y-125260500D01*
X126413158Y-125260500D01*
X126570844Y-125260500D01*
X126570845Y-125260499D01*
X126725497Y-125229737D01*
X126871179Y-125169394D01*
X127002289Y-125081789D01*
X127113789Y-124970289D01*
X127150898Y-124914752D01*
X127204510Y-124869947D01*
X127273835Y-124861240D01*
X127336863Y-124891394D01*
X127357102Y-124914752D01*
X127394210Y-124970288D01*
X127394213Y-124970292D01*
X127505707Y-125081786D01*
X127505711Y-125081789D01*
X127636814Y-125169390D01*
X127636827Y-125169397D01*
X127763824Y-125222000D01*
X127782503Y-125229737D01*
X127937153Y-125260499D01*
X127937156Y-125260500D01*
X127937158Y-125260500D01*
X128094844Y-125260500D01*
X128094845Y-125260499D01*
X128249497Y-125229737D01*
X128395179Y-125169394D01*
X128526289Y-125081789D01*
X128637789Y-124970289D01*
X128674898Y-124914752D01*
X128728510Y-124869947D01*
X128797835Y-124861240D01*
X128860863Y-124891394D01*
X128881102Y-124914752D01*
X128918210Y-124970288D01*
X128918213Y-124970292D01*
X129029707Y-125081786D01*
X129029711Y-125081789D01*
X129160814Y-125169390D01*
X129160827Y-125169397D01*
X129287824Y-125222000D01*
X129306503Y-125229737D01*
X129461153Y-125260499D01*
X129461156Y-125260500D01*
X129461158Y-125260500D01*
X129618844Y-125260500D01*
X129618845Y-125260499D01*
X129773497Y-125229737D01*
X129919179Y-125169394D01*
X130050289Y-125081789D01*
X130161789Y-124970289D01*
X130249394Y-124839179D01*
X130309737Y-124693497D01*
X130340500Y-124538842D01*
X130340500Y-124381158D01*
X130340500Y-124381155D01*
X130340499Y-124381153D01*
X130309738Y-124226510D01*
X130309737Y-124226503D01*
X130298890Y-124200316D01*
X130249397Y-124080827D01*
X130249390Y-124080814D01*
X130161789Y-123949711D01*
X130161786Y-123949707D01*
X130050292Y-123838213D01*
X130050288Y-123838210D01*
X129994752Y-123801102D01*
X129949947Y-123747490D01*
X129941240Y-123678165D01*
X129971394Y-123615137D01*
X129994752Y-123594898D01*
X130012779Y-123582852D01*
X130050289Y-123557789D01*
X130161789Y-123446289D01*
X130249394Y-123315179D01*
X130309737Y-123169497D01*
X130340500Y-123014842D01*
X130340500Y-122857158D01*
X130340500Y-122857155D01*
X130340499Y-122857153D01*
X130309737Y-122702503D01*
X130302000Y-122683824D01*
X130249397Y-122556827D01*
X130249390Y-122556814D01*
X130161789Y-122425711D01*
X130161786Y-122425707D01*
X130050292Y-122314213D01*
X130050288Y-122314210D01*
X129994752Y-122277102D01*
X129949947Y-122223490D01*
X129941240Y-122154165D01*
X129971394Y-122091137D01*
X129994752Y-122070898D01*
X130012779Y-122058852D01*
X130050289Y-122033789D01*
X130161789Y-121922289D01*
X130249394Y-121791179D01*
X130309737Y-121645497D01*
X130340500Y-121490842D01*
X130340500Y-121333158D01*
X130340500Y-121333155D01*
X130340499Y-121333153D01*
X130321671Y-121238500D01*
X130309737Y-121178503D01*
X130293605Y-121139557D01*
X130249397Y-121032827D01*
X130249390Y-121032814D01*
X130161789Y-120901711D01*
X130161786Y-120901707D01*
X130050292Y-120790213D01*
X130050288Y-120790210D01*
X129994752Y-120753102D01*
X129949947Y-120699490D01*
X129941240Y-120630165D01*
X129971394Y-120567137D01*
X129994752Y-120546898D01*
X130012779Y-120534852D01*
X130050289Y-120509789D01*
X130161789Y-120398289D01*
X130249394Y-120267179D01*
X130309737Y-120121497D01*
X130340500Y-119966842D01*
X130340500Y-119809158D01*
X130340500Y-119809155D01*
X130340499Y-119809153D01*
X130313317Y-119672500D01*
X130309737Y-119654503D01*
X130279456Y-119581397D01*
X130249397Y-119508827D01*
X130249390Y-119508814D01*
X130161789Y-119377711D01*
X130161786Y-119377707D01*
X130050292Y-119266213D01*
X130050288Y-119266210D01*
X129994752Y-119229102D01*
X129949947Y-119175490D01*
X129941240Y-119106165D01*
X129971394Y-119043137D01*
X129994752Y-119022898D01*
X130016737Y-119008208D01*
X130050289Y-118985789D01*
X130161789Y-118874289D01*
X130249394Y-118743179D01*
X130309737Y-118597497D01*
X130340500Y-118442842D01*
X130340500Y-118285158D01*
X130340500Y-118285155D01*
X130340499Y-118285153D01*
X135343500Y-118285153D01*
X135343500Y-118442846D01*
X135374261Y-118597489D01*
X135374264Y-118597501D01*
X135434602Y-118743172D01*
X135434609Y-118743185D01*
X135522210Y-118874288D01*
X135522213Y-118874292D01*
X135633707Y-118985786D01*
X135689248Y-119022898D01*
X135734052Y-119076511D01*
X135742759Y-119145836D01*
X135712604Y-119208863D01*
X135689248Y-119229102D01*
X135633707Y-119266213D01*
X135522213Y-119377707D01*
X135522210Y-119377711D01*
X135434609Y-119508814D01*
X135434602Y-119508827D01*
X135374264Y-119654498D01*
X135374261Y-119654510D01*
X135343500Y-119809153D01*
X135343500Y-119966846D01*
X135374261Y-120121489D01*
X135374264Y-120121501D01*
X135434602Y-120267172D01*
X135434609Y-120267185D01*
X135522210Y-120398288D01*
X135522213Y-120398292D01*
X135633707Y-120509786D01*
X135689248Y-120546898D01*
X135734052Y-120600511D01*
X135742759Y-120669836D01*
X135712604Y-120732863D01*
X135689248Y-120753102D01*
X135633707Y-120790213D01*
X135522213Y-120901707D01*
X135522210Y-120901711D01*
X135434609Y-121032814D01*
X135434602Y-121032827D01*
X135374264Y-121178498D01*
X135374261Y-121178510D01*
X135343500Y-121333153D01*
X135343500Y-121490846D01*
X135374261Y-121645489D01*
X135374264Y-121645501D01*
X135434602Y-121791172D01*
X135434609Y-121791185D01*
X135522210Y-121922288D01*
X135522213Y-121922292D01*
X135633707Y-122033786D01*
X135689248Y-122070898D01*
X135734052Y-122124511D01*
X135742759Y-122193836D01*
X135712604Y-122256863D01*
X135689248Y-122277102D01*
X135633707Y-122314213D01*
X135522213Y-122425707D01*
X135522210Y-122425711D01*
X135434609Y-122556814D01*
X135434602Y-122556827D01*
X135374264Y-122702498D01*
X135374261Y-122702510D01*
X135343500Y-122857153D01*
X135343500Y-123014846D01*
X135374261Y-123169489D01*
X135374264Y-123169501D01*
X135434602Y-123315172D01*
X135434609Y-123315185D01*
X135522210Y-123446288D01*
X135522213Y-123446292D01*
X135633707Y-123557786D01*
X135689248Y-123594898D01*
X135734052Y-123648511D01*
X135742759Y-123717836D01*
X135712604Y-123780863D01*
X135689248Y-123801102D01*
X135633707Y-123838213D01*
X135522213Y-123949707D01*
X135522210Y-123949711D01*
X135434609Y-124080814D01*
X135434602Y-124080827D01*
X135374264Y-124226498D01*
X135374261Y-124226510D01*
X135343500Y-124381153D01*
X135343500Y-124538846D01*
X135374261Y-124693489D01*
X135374264Y-124693501D01*
X135434602Y-124839172D01*
X135434609Y-124839185D01*
X135522210Y-124970288D01*
X135522213Y-124970292D01*
X135633707Y-125081786D01*
X135689248Y-125118898D01*
X135734052Y-125172511D01*
X135742759Y-125241836D01*
X135712604Y-125304863D01*
X135689248Y-125325102D01*
X135633707Y-125362213D01*
X135522213Y-125473707D01*
X135522210Y-125473711D01*
X135434609Y-125604814D01*
X135434602Y-125604827D01*
X135374264Y-125750498D01*
X135374261Y-125750510D01*
X135343500Y-125905153D01*
X135343500Y-126062846D01*
X135374261Y-126217489D01*
X135374264Y-126217501D01*
X135434602Y-126363172D01*
X135434609Y-126363185D01*
X135522210Y-126494288D01*
X135522213Y-126494292D01*
X135633707Y-126605786D01*
X135689248Y-126642898D01*
X135734052Y-126696511D01*
X135742759Y-126765836D01*
X135712604Y-126828863D01*
X135689248Y-126849102D01*
X135633707Y-126886213D01*
X135522213Y-126997707D01*
X135522210Y-126997711D01*
X135434609Y-127128814D01*
X135434602Y-127128827D01*
X135374264Y-127274498D01*
X135374261Y-127274510D01*
X135343500Y-127429153D01*
X135343500Y-127586846D01*
X135374261Y-127741489D01*
X135374264Y-127741501D01*
X135434602Y-127887172D01*
X135434609Y-127887185D01*
X135522210Y-128018288D01*
X135522213Y-128018292D01*
X135633707Y-128129786D01*
X135689248Y-128166898D01*
X135734052Y-128220511D01*
X135742759Y-128289836D01*
X135712604Y-128352863D01*
X135689248Y-128373102D01*
X135633707Y-128410213D01*
X135522213Y-128521707D01*
X135522210Y-128521711D01*
X135434609Y-128652814D01*
X135434602Y-128652827D01*
X135374264Y-128798498D01*
X135374261Y-128798510D01*
X135343500Y-128953153D01*
X135343500Y-129110846D01*
X135374261Y-129265489D01*
X135374264Y-129265501D01*
X135434602Y-129411172D01*
X135434609Y-129411185D01*
X135522210Y-129542288D01*
X135522213Y-129542292D01*
X135633707Y-129653786D01*
X135633711Y-129653789D01*
X135764814Y-129741390D01*
X135764827Y-129741397D01*
X135910498Y-129801735D01*
X135910503Y-129801737D01*
X136065153Y-129832499D01*
X136065156Y-129832500D01*
X136065158Y-129832500D01*
X136222844Y-129832500D01*
X136222845Y-129832499D01*
X136377497Y-129801737D01*
X136523179Y-129741394D01*
X136654289Y-129653789D01*
X136765789Y-129542289D01*
X136802898Y-129486752D01*
X136856510Y-129441947D01*
X136925835Y-129433240D01*
X136988863Y-129463394D01*
X137009102Y-129486752D01*
X137046210Y-129542288D01*
X137046213Y-129542292D01*
X137157707Y-129653786D01*
X137157711Y-129653789D01*
X137288814Y-129741390D01*
X137288827Y-129741397D01*
X137434498Y-129801735D01*
X137434503Y-129801737D01*
X137589153Y-129832499D01*
X137589156Y-129832500D01*
X137589158Y-129832500D01*
X137746844Y-129832500D01*
X137746845Y-129832499D01*
X137901497Y-129801737D01*
X138047179Y-129741394D01*
X138178289Y-129653789D01*
X138289789Y-129542289D01*
X138326898Y-129486752D01*
X138380510Y-129441947D01*
X138449835Y-129433240D01*
X138512863Y-129463394D01*
X138533102Y-129486752D01*
X138570210Y-129542288D01*
X138570213Y-129542292D01*
X138681707Y-129653786D01*
X138681711Y-129653789D01*
X138812814Y-129741390D01*
X138812827Y-129741397D01*
X138958498Y-129801735D01*
X138958503Y-129801737D01*
X139113153Y-129832499D01*
X139113156Y-129832500D01*
X139113158Y-129832500D01*
X139270844Y-129832500D01*
X139270845Y-129832499D01*
X139425497Y-129801737D01*
X139571179Y-129741394D01*
X139702289Y-129653789D01*
X139813789Y-129542289D01*
X139850898Y-129486752D01*
X139904510Y-129441947D01*
X139973835Y-129433240D01*
X140036863Y-129463394D01*
X140057102Y-129486752D01*
X140094210Y-129542288D01*
X140094213Y-129542292D01*
X140205707Y-129653786D01*
X140205711Y-129653789D01*
X140336814Y-129741390D01*
X140336827Y-129741397D01*
X140482498Y-129801735D01*
X140482503Y-129801737D01*
X140637153Y-129832499D01*
X140637156Y-129832500D01*
X140637158Y-129832500D01*
X140794844Y-129832500D01*
X140794845Y-129832499D01*
X140949497Y-129801737D01*
X141095179Y-129741394D01*
X141226289Y-129653789D01*
X141337789Y-129542289D01*
X141374898Y-129486752D01*
X141428510Y-129441947D01*
X141497835Y-129433240D01*
X141560863Y-129463394D01*
X141581102Y-129486752D01*
X141618210Y-129542288D01*
X141618213Y-129542292D01*
X141729707Y-129653786D01*
X141729711Y-129653789D01*
X141860814Y-129741390D01*
X141860827Y-129741397D01*
X142006498Y-129801735D01*
X142006503Y-129801737D01*
X142161153Y-129832499D01*
X142161156Y-129832500D01*
X142161158Y-129832500D01*
X142318844Y-129832500D01*
X142318845Y-129832499D01*
X142473497Y-129801737D01*
X142619179Y-129741394D01*
X142750289Y-129653789D01*
X142861789Y-129542289D01*
X142898898Y-129486752D01*
X142952510Y-129441947D01*
X143021835Y-129433240D01*
X143084863Y-129463394D01*
X143105102Y-129486752D01*
X143142210Y-129542288D01*
X143142213Y-129542292D01*
X143253707Y-129653786D01*
X143253711Y-129653789D01*
X143384814Y-129741390D01*
X143384827Y-129741397D01*
X143530498Y-129801735D01*
X143530503Y-129801737D01*
X143685153Y-129832499D01*
X143685156Y-129832500D01*
X143685158Y-129832500D01*
X143842844Y-129832500D01*
X143842845Y-129832499D01*
X143997497Y-129801737D01*
X144143179Y-129741394D01*
X144274289Y-129653789D01*
X144385789Y-129542289D01*
X144473394Y-129411179D01*
X144533737Y-129265497D01*
X144564500Y-129110842D01*
X144564500Y-128953158D01*
X144564500Y-128953155D01*
X144564499Y-128953153D01*
X144533738Y-128798510D01*
X144533737Y-128798503D01*
X144526000Y-128779824D01*
X144473397Y-128652827D01*
X144473390Y-128652814D01*
X144385789Y-128521711D01*
X144385786Y-128521707D01*
X144274292Y-128410213D01*
X144274288Y-128410210D01*
X144218752Y-128373102D01*
X144173947Y-128319490D01*
X144165240Y-128250165D01*
X144195394Y-128187137D01*
X144218752Y-128166898D01*
X144236779Y-128154852D01*
X144274289Y-128129789D01*
X144385789Y-128018289D01*
X144473394Y-127887179D01*
X144533737Y-127741497D01*
X144564500Y-127586842D01*
X144564500Y-127429158D01*
X144564500Y-127429155D01*
X144564499Y-127429153D01*
X144533738Y-127274510D01*
X144533737Y-127274503D01*
X144479375Y-127143260D01*
X144473397Y-127128827D01*
X144473390Y-127128814D01*
X144385789Y-126997711D01*
X144385786Y-126997707D01*
X144274292Y-126886213D01*
X144274288Y-126886210D01*
X144218752Y-126849102D01*
X144173947Y-126795490D01*
X144165240Y-126726165D01*
X144195394Y-126663137D01*
X144218752Y-126642898D01*
X144236779Y-126630852D01*
X144274289Y-126605789D01*
X144385789Y-126494289D01*
X144473394Y-126363179D01*
X144533737Y-126217497D01*
X144564500Y-126062842D01*
X144564500Y-125905158D01*
X144564500Y-125905155D01*
X144564499Y-125905153D01*
X144554631Y-125855542D01*
X144533737Y-125750503D01*
X144510931Y-125695443D01*
X144473397Y-125604827D01*
X144473390Y-125604814D01*
X144385789Y-125473711D01*
X144385786Y-125473707D01*
X144274292Y-125362213D01*
X144274288Y-125362210D01*
X144218752Y-125325102D01*
X144173947Y-125271490D01*
X144165240Y-125202165D01*
X144195394Y-125139137D01*
X144218752Y-125118898D01*
X144236779Y-125106852D01*
X144274289Y-125081789D01*
X144385789Y-124970289D01*
X144473394Y-124839179D01*
X144533737Y-124693497D01*
X144564500Y-124538842D01*
X144564500Y-124381158D01*
X144564500Y-124381155D01*
X144564499Y-124381153D01*
X144533738Y-124226510D01*
X144533737Y-124226503D01*
X144522890Y-124200316D01*
X144473397Y-124080827D01*
X144473390Y-124080814D01*
X144385789Y-123949711D01*
X144385786Y-123949707D01*
X144274292Y-123838213D01*
X144274288Y-123838210D01*
X144218752Y-123801102D01*
X144173947Y-123747490D01*
X144165240Y-123678165D01*
X144195394Y-123615137D01*
X144218752Y-123594898D01*
X144236779Y-123582852D01*
X144274289Y-123557789D01*
X144385789Y-123446289D01*
X144473394Y-123315179D01*
X144533737Y-123169497D01*
X144564500Y-123014842D01*
X144564500Y-122857158D01*
X144564500Y-122857155D01*
X144564499Y-122857153D01*
X144533737Y-122702503D01*
X144526000Y-122683824D01*
X144473397Y-122556827D01*
X144473390Y-122556814D01*
X144385789Y-122425711D01*
X144385786Y-122425707D01*
X144274292Y-122314213D01*
X144274288Y-122314210D01*
X144218752Y-122277102D01*
X144173947Y-122223490D01*
X144165240Y-122154165D01*
X144195394Y-122091137D01*
X144218752Y-122070898D01*
X144236779Y-122058852D01*
X144274289Y-122033789D01*
X144385789Y-121922289D01*
X144473394Y-121791179D01*
X144533737Y-121645497D01*
X144564500Y-121490842D01*
X144564500Y-121333158D01*
X144564500Y-121333155D01*
X144564499Y-121333153D01*
X144545671Y-121238500D01*
X144533737Y-121178503D01*
X144517605Y-121139557D01*
X144473397Y-121032827D01*
X144473390Y-121032814D01*
X144385789Y-120901711D01*
X144385786Y-120901707D01*
X144274292Y-120790213D01*
X144274288Y-120790210D01*
X144218752Y-120753102D01*
X144173947Y-120699490D01*
X144165240Y-120630165D01*
X144195394Y-120567137D01*
X144218752Y-120546898D01*
X144236779Y-120534852D01*
X144274289Y-120509789D01*
X144385789Y-120398289D01*
X144473394Y-120267179D01*
X144533737Y-120121497D01*
X144564500Y-119966842D01*
X144564500Y-119809158D01*
X144564500Y-119809155D01*
X144564499Y-119809153D01*
X144537317Y-119672500D01*
X144533737Y-119654503D01*
X144503456Y-119581397D01*
X144473397Y-119508827D01*
X144473390Y-119508814D01*
X144385789Y-119377711D01*
X144385786Y-119377707D01*
X144274292Y-119266213D01*
X144274288Y-119266210D01*
X144218752Y-119229102D01*
X144173947Y-119175490D01*
X144165240Y-119106165D01*
X144195394Y-119043137D01*
X144218752Y-119022898D01*
X144240737Y-119008208D01*
X144274289Y-118985789D01*
X144385789Y-118874289D01*
X144473394Y-118743179D01*
X144533737Y-118597497D01*
X144564500Y-118442842D01*
X144564500Y-118285158D01*
X144564500Y-118285155D01*
X144564499Y-118285153D01*
X144557549Y-118250213D01*
X144533737Y-118130503D01*
X144522039Y-118102261D01*
X144473397Y-117984827D01*
X144473390Y-117984814D01*
X144385789Y-117853711D01*
X144385786Y-117853707D01*
X144274292Y-117742213D01*
X144274288Y-117742210D01*
X144143185Y-117654609D01*
X144143172Y-117654602D01*
X143997501Y-117594264D01*
X143997489Y-117594261D01*
X143842845Y-117563500D01*
X143842842Y-117563500D01*
X143685158Y-117563500D01*
X143685155Y-117563500D01*
X143530510Y-117594261D01*
X143530498Y-117594264D01*
X143384827Y-117654602D01*
X143384814Y-117654609D01*
X143253711Y-117742210D01*
X143253707Y-117742213D01*
X143142213Y-117853707D01*
X143105102Y-117909248D01*
X143051489Y-117954052D01*
X142982164Y-117962759D01*
X142919137Y-117932604D01*
X142898898Y-117909248D01*
X142861786Y-117853707D01*
X142750292Y-117742213D01*
X142750288Y-117742210D01*
X142619185Y-117654609D01*
X142619172Y-117654602D01*
X142473501Y-117594264D01*
X142473489Y-117594261D01*
X142318845Y-117563500D01*
X142318842Y-117563500D01*
X142161158Y-117563500D01*
X142161155Y-117563500D01*
X142006510Y-117594261D01*
X142006498Y-117594264D01*
X141860827Y-117654602D01*
X141860814Y-117654609D01*
X141729711Y-117742210D01*
X141729707Y-117742213D01*
X141618213Y-117853707D01*
X141581102Y-117909248D01*
X141527489Y-117954052D01*
X141458164Y-117962759D01*
X141395137Y-117932604D01*
X141374898Y-117909248D01*
X141337786Y-117853707D01*
X141226292Y-117742213D01*
X141226288Y-117742210D01*
X141095185Y-117654609D01*
X141095172Y-117654602D01*
X140949501Y-117594264D01*
X140949489Y-117594261D01*
X140794845Y-117563500D01*
X140794842Y-117563500D01*
X140637158Y-117563500D01*
X140637155Y-117563500D01*
X140482510Y-117594261D01*
X140482498Y-117594264D01*
X140336827Y-117654602D01*
X140336814Y-117654609D01*
X140205711Y-117742210D01*
X140205707Y-117742213D01*
X140094213Y-117853707D01*
X140057102Y-117909248D01*
X140003489Y-117954052D01*
X139934164Y-117962759D01*
X139871137Y-117932604D01*
X139850898Y-117909248D01*
X139813786Y-117853707D01*
X139702292Y-117742213D01*
X139702288Y-117742210D01*
X139571185Y-117654609D01*
X139571172Y-117654602D01*
X139425501Y-117594264D01*
X139425489Y-117594261D01*
X139270845Y-117563500D01*
X139270842Y-117563500D01*
X139113158Y-117563500D01*
X139113155Y-117563500D01*
X138958510Y-117594261D01*
X138958498Y-117594264D01*
X138812827Y-117654602D01*
X138812814Y-117654609D01*
X138681711Y-117742210D01*
X138681707Y-117742213D01*
X138570213Y-117853707D01*
X138533102Y-117909248D01*
X138479489Y-117954052D01*
X138410164Y-117962759D01*
X138347137Y-117932604D01*
X138326898Y-117909248D01*
X138289786Y-117853707D01*
X138178292Y-117742213D01*
X138178288Y-117742210D01*
X138047185Y-117654609D01*
X138047172Y-117654602D01*
X137901501Y-117594264D01*
X137901489Y-117594261D01*
X137746845Y-117563500D01*
X137746842Y-117563500D01*
X137589158Y-117563500D01*
X137589155Y-117563500D01*
X137434510Y-117594261D01*
X137434498Y-117594264D01*
X137288827Y-117654602D01*
X137288814Y-117654609D01*
X137157711Y-117742210D01*
X137157707Y-117742213D01*
X137046213Y-117853707D01*
X137009102Y-117909248D01*
X136955489Y-117954052D01*
X136886164Y-117962759D01*
X136823137Y-117932604D01*
X136802898Y-117909248D01*
X136765786Y-117853707D01*
X136654292Y-117742213D01*
X136654288Y-117742210D01*
X136523185Y-117654609D01*
X136523172Y-117654602D01*
X136377501Y-117594264D01*
X136377489Y-117594261D01*
X136222845Y-117563500D01*
X136222842Y-117563500D01*
X136065158Y-117563500D01*
X136065155Y-117563500D01*
X135910510Y-117594261D01*
X135910498Y-117594264D01*
X135764827Y-117654602D01*
X135764814Y-117654609D01*
X135633711Y-117742210D01*
X135633707Y-117742213D01*
X135522213Y-117853707D01*
X135522210Y-117853711D01*
X135434609Y-117984814D01*
X135434602Y-117984827D01*
X135374264Y-118130498D01*
X135374261Y-118130510D01*
X135343500Y-118285153D01*
X130340499Y-118285153D01*
X130333549Y-118250213D01*
X130309737Y-118130503D01*
X130298039Y-118102261D01*
X130249397Y-117984827D01*
X130249390Y-117984814D01*
X130161789Y-117853711D01*
X130161786Y-117853707D01*
X130050292Y-117742213D01*
X130050288Y-117742210D01*
X129994752Y-117705102D01*
X129949947Y-117651490D01*
X129941240Y-117582165D01*
X129971394Y-117519137D01*
X129994752Y-117498898D01*
X130012779Y-117486852D01*
X130050289Y-117461789D01*
X130161789Y-117350289D01*
X130249394Y-117219179D01*
X130309737Y-117073497D01*
X130340500Y-116918842D01*
X130340500Y-116761158D01*
X130340500Y-116761155D01*
X130340499Y-116761153D01*
X130313317Y-116624500D01*
X130309737Y-116606503D01*
X130279456Y-116533397D01*
X130249397Y-116460827D01*
X130249390Y-116460814D01*
X130161789Y-116329711D01*
X130161786Y-116329707D01*
X130050292Y-116218213D01*
X130050288Y-116218210D01*
X129994752Y-116181102D01*
X129949947Y-116127490D01*
X129941240Y-116058165D01*
X129971394Y-115995137D01*
X129994752Y-115974898D01*
X130012779Y-115962852D01*
X130050289Y-115937789D01*
X130161789Y-115826289D01*
X130249394Y-115695179D01*
X130309737Y-115549497D01*
X130340500Y-115394842D01*
X130340500Y-115237158D01*
X130340500Y-115237155D01*
X130340499Y-115237153D01*
X130333549Y-115202213D01*
X130309737Y-115082503D01*
X130298039Y-115054261D01*
X130249397Y-114936827D01*
X130249390Y-114936814D01*
X130161789Y-114805711D01*
X130161786Y-114805707D01*
X130050292Y-114694213D01*
X130050288Y-114694210D01*
X129994752Y-114657102D01*
X129949947Y-114603490D01*
X129941240Y-114534165D01*
X129971394Y-114471137D01*
X129994752Y-114450898D01*
X130012779Y-114438852D01*
X130050289Y-114413789D01*
X130161789Y-114302289D01*
X130249394Y-114171179D01*
X130309737Y-114025497D01*
X130340500Y-113870842D01*
X130340500Y-113713158D01*
X130340500Y-113713155D01*
X130340499Y-113713153D01*
X130309738Y-113558510D01*
X130309737Y-113558503D01*
X130292929Y-113517924D01*
X130249397Y-113412827D01*
X130249390Y-113412814D01*
X130161789Y-113281711D01*
X130161786Y-113281707D01*
X130050292Y-113170213D01*
X130050288Y-113170210D01*
X129919185Y-113082609D01*
X129919172Y-113082602D01*
X129773501Y-113022264D01*
X129773489Y-113022261D01*
X129618845Y-112991500D01*
X129618842Y-112991500D01*
X129461158Y-112991500D01*
X129461155Y-112991500D01*
X129306510Y-113022261D01*
X129306498Y-113022264D01*
X129160827Y-113082602D01*
X129160814Y-113082609D01*
X129029711Y-113170210D01*
X129029707Y-113170213D01*
X128918213Y-113281707D01*
X128881102Y-113337248D01*
X128827489Y-113382052D01*
X128758164Y-113390759D01*
X128695137Y-113360604D01*
X128674898Y-113337248D01*
X128637786Y-113281707D01*
X128526292Y-113170213D01*
X128526288Y-113170210D01*
X128395185Y-113082609D01*
X128395172Y-113082602D01*
X128249501Y-113022264D01*
X128249489Y-113022261D01*
X128094845Y-112991500D01*
X128094842Y-112991500D01*
X127937158Y-112991500D01*
X127937155Y-112991500D01*
X127782510Y-113022261D01*
X127782498Y-113022264D01*
X127636827Y-113082602D01*
X127636814Y-113082609D01*
X127505711Y-113170210D01*
X127505707Y-113170213D01*
X127394213Y-113281707D01*
X127357102Y-113337248D01*
X127303489Y-113382052D01*
X127234164Y-113390759D01*
X127171137Y-113360604D01*
X127150898Y-113337248D01*
X127113786Y-113281707D01*
X127002292Y-113170213D01*
X127002288Y-113170210D01*
X126871185Y-113082609D01*
X126871172Y-113082602D01*
X126725501Y-113022264D01*
X126725489Y-113022261D01*
X126570845Y-112991500D01*
X126570842Y-112991500D01*
X126413158Y-112991500D01*
X126413155Y-112991500D01*
X126258510Y-113022261D01*
X126258498Y-113022264D01*
X126112827Y-113082602D01*
X126112814Y-113082609D01*
X125981711Y-113170210D01*
X125981707Y-113170213D01*
X125870213Y-113281707D01*
X125833102Y-113337248D01*
X125779489Y-113382052D01*
X125710164Y-113390759D01*
X125647137Y-113360604D01*
X125626898Y-113337248D01*
X125589786Y-113281707D01*
X125478292Y-113170213D01*
X125478288Y-113170210D01*
X125347185Y-113082609D01*
X125347172Y-113082602D01*
X125201501Y-113022264D01*
X125201489Y-113022261D01*
X125046845Y-112991500D01*
X125046842Y-112991500D01*
X124889158Y-112991500D01*
X124889155Y-112991500D01*
X124734510Y-113022261D01*
X124734498Y-113022264D01*
X124588827Y-113082602D01*
X124588814Y-113082609D01*
X124457711Y-113170210D01*
X124457707Y-113170213D01*
X124346213Y-113281707D01*
X124309102Y-113337248D01*
X124255489Y-113382052D01*
X124186164Y-113390759D01*
X124123137Y-113360604D01*
X124102898Y-113337248D01*
X124065786Y-113281707D01*
X123954292Y-113170213D01*
X123954288Y-113170210D01*
X123823185Y-113082609D01*
X123823172Y-113082602D01*
X123677501Y-113022264D01*
X123677489Y-113022261D01*
X123522845Y-112991500D01*
X123522842Y-112991500D01*
X123365158Y-112991500D01*
X123365155Y-112991500D01*
X123210510Y-113022261D01*
X123210498Y-113022264D01*
X123064827Y-113082602D01*
X123064814Y-113082609D01*
X122933711Y-113170210D01*
X122933707Y-113170213D01*
X122822213Y-113281707D01*
X122785102Y-113337248D01*
X122731489Y-113382052D01*
X122662164Y-113390759D01*
X122599137Y-113360604D01*
X122578898Y-113337248D01*
X122541786Y-113281707D01*
X122430292Y-113170213D01*
X122430288Y-113170210D01*
X122299185Y-113082609D01*
X122299172Y-113082602D01*
X122153501Y-113022264D01*
X122153489Y-113022261D01*
X121998845Y-112991500D01*
X121998842Y-112991500D01*
X121841158Y-112991500D01*
X121841155Y-112991500D01*
X121686510Y-113022261D01*
X121686498Y-113022264D01*
X121540827Y-113082602D01*
X121540814Y-113082609D01*
X121409711Y-113170210D01*
X121409707Y-113170213D01*
X121298213Y-113281707D01*
X121298210Y-113281711D01*
X121210609Y-113412814D01*
X121210602Y-113412827D01*
X121150264Y-113558498D01*
X121150261Y-113558510D01*
X121119500Y-113713153D01*
X27940000Y-113713153D01*
X27940000Y-112189153D01*
X111975500Y-112189153D01*
X111975500Y-112346846D01*
X112006261Y-112501489D01*
X112006264Y-112501501D01*
X112066602Y-112647172D01*
X112066609Y-112647185D01*
X112154210Y-112778288D01*
X112154213Y-112778292D01*
X112265707Y-112889786D01*
X112265711Y-112889789D01*
X112396814Y-112977390D01*
X112396827Y-112977397D01*
X112537986Y-113035866D01*
X112542503Y-113037737D01*
X112675214Y-113064135D01*
X112697153Y-113068499D01*
X112697156Y-113068500D01*
X112697158Y-113068500D01*
X112854844Y-113068500D01*
X112854845Y-113068499D01*
X113009497Y-113037737D01*
X113155179Y-112977394D01*
X113286289Y-112889789D01*
X113397789Y-112778289D01*
X113485394Y-112647179D01*
X113545737Y-112501497D01*
X113576500Y-112346842D01*
X113576500Y-112189158D01*
X113576500Y-112189155D01*
X113576499Y-112189153D01*
X114007500Y-112189153D01*
X114007500Y-112346846D01*
X114038261Y-112501489D01*
X114038264Y-112501501D01*
X114098602Y-112647172D01*
X114098609Y-112647185D01*
X114186210Y-112778288D01*
X114186213Y-112778292D01*
X114297707Y-112889786D01*
X114297711Y-112889789D01*
X114428814Y-112977390D01*
X114428827Y-112977397D01*
X114569986Y-113035866D01*
X114574503Y-113037737D01*
X114707214Y-113064135D01*
X114729153Y-113068499D01*
X114729156Y-113068500D01*
X114729158Y-113068500D01*
X114886844Y-113068500D01*
X114886845Y-113068499D01*
X115041497Y-113037737D01*
X115187179Y-112977394D01*
X115318289Y-112889789D01*
X115429789Y-112778289D01*
X115517394Y-112647179D01*
X115577737Y-112501497D01*
X115608500Y-112346842D01*
X115608500Y-112189158D01*
X115608500Y-112189155D01*
X115608499Y-112189153D01*
X115577738Y-112034510D01*
X115577737Y-112034503D01*
X115519741Y-111894486D01*
X115517397Y-111888827D01*
X115517390Y-111888814D01*
X115429789Y-111757711D01*
X115429786Y-111757707D01*
X115318292Y-111646213D01*
X115318288Y-111646210D01*
X115187185Y-111558609D01*
X115187172Y-111558602D01*
X115041501Y-111498264D01*
X115041489Y-111498261D01*
X114886845Y-111467500D01*
X114886842Y-111467500D01*
X114729158Y-111467500D01*
X114729155Y-111467500D01*
X114574510Y-111498261D01*
X114574498Y-111498264D01*
X114428827Y-111558602D01*
X114428814Y-111558609D01*
X114297711Y-111646210D01*
X114297707Y-111646213D01*
X114186213Y-111757707D01*
X114186210Y-111757711D01*
X114098609Y-111888814D01*
X114098602Y-111888827D01*
X114038264Y-112034498D01*
X114038261Y-112034510D01*
X114007500Y-112189153D01*
X113576499Y-112189153D01*
X113545738Y-112034510D01*
X113545737Y-112034503D01*
X113487741Y-111894486D01*
X113485397Y-111888827D01*
X113485390Y-111888814D01*
X113397789Y-111757711D01*
X113397786Y-111757707D01*
X113286292Y-111646213D01*
X113286288Y-111646210D01*
X113155185Y-111558609D01*
X113155172Y-111558602D01*
X113009501Y-111498264D01*
X113009489Y-111498261D01*
X112854845Y-111467500D01*
X112854842Y-111467500D01*
X112697158Y-111467500D01*
X112697155Y-111467500D01*
X112542510Y-111498261D01*
X112542498Y-111498264D01*
X112396827Y-111558602D01*
X112396814Y-111558609D01*
X112265711Y-111646210D01*
X112265707Y-111646213D01*
X112154213Y-111757707D01*
X112154210Y-111757711D01*
X112066609Y-111888814D01*
X112066602Y-111888827D01*
X112006264Y-112034498D01*
X112006261Y-112034510D01*
X111975500Y-112189153D01*
X27940000Y-112189153D01*
X27940000Y-109205513D01*
X133205500Y-109205513D01*
X133205500Y-109394486D01*
X133235059Y-109581118D01*
X133293454Y-109760836D01*
X133379240Y-109929199D01*
X133490310Y-110082073D01*
X133623927Y-110215690D01*
X133776801Y-110326760D01*
X133856347Y-110367290D01*
X133945163Y-110412545D01*
X133945165Y-110412545D01*
X133945168Y-110412547D01*
X134005251Y-110432069D01*
X134062926Y-110471507D01*
X134090124Y-110535866D01*
X134078209Y-110604712D01*
X134030965Y-110656188D01*
X134005253Y-110667930D01*
X133986756Y-110673939D01*
X133945163Y-110687454D01*
X133776800Y-110773240D01*
X133689579Y-110836610D01*
X133623927Y-110884310D01*
X133623925Y-110884312D01*
X133623924Y-110884312D01*
X133490312Y-111017924D01*
X133490312Y-111017925D01*
X133490310Y-111017927D01*
X133442610Y-111083579D01*
X133379240Y-111170800D01*
X133293454Y-111339163D01*
X133235059Y-111518881D01*
X133205500Y-111705513D01*
X133205500Y-111894486D01*
X133235059Y-112081118D01*
X133293454Y-112260836D01*
X133337277Y-112346842D01*
X133379240Y-112429199D01*
X133490310Y-112582073D01*
X133623927Y-112715690D01*
X133776801Y-112826760D01*
X133856347Y-112867290D01*
X133945163Y-112912545D01*
X133945165Y-112912545D01*
X133945168Y-112912547D01*
X134005251Y-112932069D01*
X134062926Y-112971507D01*
X134090124Y-113035866D01*
X134078209Y-113104712D01*
X134030965Y-113156188D01*
X134005253Y-113167930D01*
X133998227Y-113170213D01*
X133945163Y-113187454D01*
X133776800Y-113273240D01*
X133689579Y-113336610D01*
X133623927Y-113384310D01*
X133623925Y-113384312D01*
X133623924Y-113384312D01*
X133490312Y-113517924D01*
X133490312Y-113517925D01*
X133490310Y-113517927D01*
X133460830Y-113558503D01*
X133379240Y-113670800D01*
X133293454Y-113839163D01*
X133235059Y-114018881D01*
X133205500Y-114205513D01*
X133205500Y-114394486D01*
X133235059Y-114581118D01*
X133293454Y-114760836D01*
X133344617Y-114861248D01*
X133379240Y-114929199D01*
X133490310Y-115082073D01*
X133623927Y-115215690D01*
X133776801Y-115326760D01*
X133856347Y-115367290D01*
X133945163Y-115412545D01*
X133945165Y-115412545D01*
X133945168Y-115412547D01*
X134041497Y-115443846D01*
X134124881Y-115470940D01*
X134311514Y-115500500D01*
X134311519Y-115500500D01*
X134500486Y-115500500D01*
X134687118Y-115470940D01*
X134866832Y-115412547D01*
X135035199Y-115326760D01*
X135188073Y-115215690D01*
X135321690Y-115082073D01*
X135432760Y-114929199D01*
X135518547Y-114760832D01*
X135576940Y-114581118D01*
X135584377Y-114534165D01*
X135606500Y-114394486D01*
X135606500Y-114205513D01*
X135576940Y-114018881D01*
X135528839Y-113870844D01*
X135518547Y-113839168D01*
X135518545Y-113839165D01*
X135518545Y-113839163D01*
X135432759Y-113670800D01*
X135321690Y-113517927D01*
X135188073Y-113384310D01*
X135035199Y-113273240D01*
X134866832Y-113187453D01*
X134806748Y-113167930D01*
X134749073Y-113128493D01*
X134721875Y-113064135D01*
X134733790Y-112995288D01*
X134781034Y-112943813D01*
X134806746Y-112932069D01*
X134866832Y-112912547D01*
X135035199Y-112826760D01*
X135188073Y-112715690D01*
X135321690Y-112582073D01*
X135432760Y-112429199D01*
X135518547Y-112260832D01*
X135576940Y-112081118D01*
X135584324Y-112034498D01*
X135606500Y-111894486D01*
X135606500Y-111705513D01*
X135576940Y-111518881D01*
X135518545Y-111339163D01*
X135432759Y-111170800D01*
X135321690Y-111017927D01*
X135188073Y-110884310D01*
X135035199Y-110773240D01*
X134866832Y-110687453D01*
X134806748Y-110667930D01*
X134749073Y-110628493D01*
X134721875Y-110564135D01*
X134733790Y-110495288D01*
X134781034Y-110443813D01*
X134806746Y-110432069D01*
X134866832Y-110412547D01*
X135035199Y-110326760D01*
X135188073Y-110215690D01*
X135321690Y-110082073D01*
X135432760Y-109929199D01*
X135518547Y-109760832D01*
X135576940Y-109581118D01*
X135606500Y-109394486D01*
X135606500Y-109205513D01*
X142055500Y-109205513D01*
X142055500Y-109394486D01*
X142085059Y-109581118D01*
X142143454Y-109760836D01*
X142229240Y-109929199D01*
X142340310Y-110082073D01*
X142473927Y-110215690D01*
X142626801Y-110326760D01*
X142706347Y-110367290D01*
X142795163Y-110412545D01*
X142795165Y-110412545D01*
X142795168Y-110412547D01*
X142855251Y-110432069D01*
X142912926Y-110471507D01*
X142940124Y-110535866D01*
X142928209Y-110604712D01*
X142880965Y-110656188D01*
X142855253Y-110667930D01*
X142836756Y-110673939D01*
X142795163Y-110687454D01*
X142626800Y-110773240D01*
X142539579Y-110836610D01*
X142473927Y-110884310D01*
X142473925Y-110884312D01*
X142473924Y-110884312D01*
X142340312Y-111017924D01*
X142340312Y-111017925D01*
X142340310Y-111017927D01*
X142292610Y-111083579D01*
X142229240Y-111170800D01*
X142143454Y-111339163D01*
X142085059Y-111518881D01*
X142055500Y-111705513D01*
X142055500Y-111894486D01*
X142085059Y-112081118D01*
X142143454Y-112260836D01*
X142187277Y-112346842D01*
X142229240Y-112429199D01*
X142340310Y-112582073D01*
X142473927Y-112715690D01*
X142626801Y-112826760D01*
X142706347Y-112867290D01*
X142795163Y-112912545D01*
X142795165Y-112912545D01*
X142795168Y-112912547D01*
X142855251Y-112932069D01*
X142912926Y-112971507D01*
X142940124Y-113035866D01*
X142928209Y-113104712D01*
X142880965Y-113156188D01*
X142855253Y-113167930D01*
X142848227Y-113170213D01*
X142795163Y-113187454D01*
X142626800Y-113273240D01*
X142539579Y-113336610D01*
X142473927Y-113384310D01*
X142473925Y-113384312D01*
X142473924Y-113384312D01*
X142340312Y-113517924D01*
X142340312Y-113517925D01*
X142340310Y-113517927D01*
X142310830Y-113558503D01*
X142229240Y-113670800D01*
X142143454Y-113839163D01*
X142085059Y-114018881D01*
X142055500Y-114205513D01*
X142055500Y-114394486D01*
X142085059Y-114581118D01*
X142143454Y-114760836D01*
X142194617Y-114861248D01*
X142229240Y-114929199D01*
X142340310Y-115082073D01*
X142473927Y-115215690D01*
X142626801Y-115326760D01*
X142706347Y-115367290D01*
X142795163Y-115412545D01*
X142795165Y-115412545D01*
X142795168Y-115412547D01*
X142891497Y-115443846D01*
X142974881Y-115470940D01*
X143161514Y-115500500D01*
X143161519Y-115500500D01*
X143350486Y-115500500D01*
X143537118Y-115470940D01*
X143716832Y-115412547D01*
X143885199Y-115326760D01*
X144038073Y-115215690D01*
X144171690Y-115082073D01*
X144282760Y-114929199D01*
X144368547Y-114760832D01*
X144426940Y-114581118D01*
X144434377Y-114534165D01*
X144456500Y-114394486D01*
X144456500Y-114205513D01*
X144426940Y-114018881D01*
X144378839Y-113870844D01*
X144368547Y-113839168D01*
X144368545Y-113839165D01*
X144368545Y-113839163D01*
X144282759Y-113670800D01*
X144171690Y-113517927D01*
X144038073Y-113384310D01*
X143885199Y-113273240D01*
X143716832Y-113187453D01*
X143656748Y-113167930D01*
X143599073Y-113128493D01*
X143571875Y-113064135D01*
X143583790Y-112995288D01*
X143631034Y-112943813D01*
X143656746Y-112932069D01*
X143716832Y-112912547D01*
X143885199Y-112826760D01*
X144038073Y-112715690D01*
X144171690Y-112582073D01*
X144282760Y-112429199D01*
X144368547Y-112260832D01*
X144426940Y-112081118D01*
X144434324Y-112034498D01*
X144456500Y-111894486D01*
X144456500Y-111705513D01*
X144426940Y-111518881D01*
X144368545Y-111339163D01*
X144282759Y-111170800D01*
X144171690Y-111017927D01*
X144038073Y-110884310D01*
X143885199Y-110773240D01*
X143716832Y-110687453D01*
X143656748Y-110667930D01*
X143599073Y-110628493D01*
X143571875Y-110564135D01*
X143583790Y-110495288D01*
X143631034Y-110443813D01*
X143656746Y-110432069D01*
X143716832Y-110412547D01*
X143885199Y-110326760D01*
X144038073Y-110215690D01*
X144171690Y-110082073D01*
X144282760Y-109929199D01*
X144368547Y-109760832D01*
X144426940Y-109581118D01*
X144456500Y-109394486D01*
X144456500Y-109205513D01*
X144426940Y-109018881D01*
X144368545Y-108839163D01*
X144323290Y-108750347D01*
X144282760Y-108670801D01*
X144171690Y-108517927D01*
X144038073Y-108384310D01*
X143885199Y-108273240D01*
X143716836Y-108187454D01*
X143537118Y-108129059D01*
X143350486Y-108099500D01*
X143350481Y-108099500D01*
X143161519Y-108099500D01*
X143161514Y-108099500D01*
X142974881Y-108129059D01*
X142795163Y-108187454D01*
X142626800Y-108273240D01*
X142539579Y-108336610D01*
X142473927Y-108384310D01*
X142473925Y-108384312D01*
X142473924Y-108384312D01*
X142340312Y-108517924D01*
X142340312Y-108517925D01*
X142340310Y-108517927D01*
X142292907Y-108583172D01*
X142229240Y-108670800D01*
X142143454Y-108839163D01*
X142085059Y-109018881D01*
X142055500Y-109205513D01*
X135606500Y-109205513D01*
X135576940Y-109018881D01*
X135518545Y-108839163D01*
X135473290Y-108750347D01*
X135432760Y-108670801D01*
X135321690Y-108517927D01*
X135188073Y-108384310D01*
X135035199Y-108273240D01*
X134866836Y-108187454D01*
X134687118Y-108129059D01*
X134500486Y-108099500D01*
X134500481Y-108099500D01*
X134311519Y-108099500D01*
X134311514Y-108099500D01*
X134124881Y-108129059D01*
X133945163Y-108187454D01*
X133776800Y-108273240D01*
X133689579Y-108336610D01*
X133623927Y-108384310D01*
X133623925Y-108384312D01*
X133623924Y-108384312D01*
X133490312Y-108517924D01*
X133490312Y-108517925D01*
X133490310Y-108517927D01*
X133442907Y-108583172D01*
X133379240Y-108670800D01*
X133293454Y-108839163D01*
X133235059Y-109018881D01*
X133205500Y-109205513D01*
X27940000Y-109205513D01*
X27940000Y-108125153D01*
X93179500Y-108125153D01*
X93179500Y-108282846D01*
X93210261Y-108437489D01*
X93210264Y-108437501D01*
X93270602Y-108583172D01*
X93270609Y-108583185D01*
X93358210Y-108714288D01*
X93358213Y-108714292D01*
X93469707Y-108825786D01*
X93469711Y-108825789D01*
X93600814Y-108913390D01*
X93600827Y-108913397D01*
X93746498Y-108973735D01*
X93746503Y-108973737D01*
X93901153Y-109004499D01*
X93901156Y-109004500D01*
X93901158Y-109004500D01*
X94058844Y-109004500D01*
X94058845Y-109004499D01*
X94213497Y-108973737D01*
X94359179Y-108913394D01*
X94490289Y-108825789D01*
X94601789Y-108714289D01*
X94689394Y-108583179D01*
X94749737Y-108437497D01*
X94780500Y-108282842D01*
X94780500Y-108125158D01*
X94780500Y-108125155D01*
X94780499Y-108125153D01*
X94749738Y-107970510D01*
X94749737Y-107970503D01*
X94747333Y-107964699D01*
X94689397Y-107824827D01*
X94689390Y-107824814D01*
X94601789Y-107693711D01*
X94601786Y-107693707D01*
X94490292Y-107582213D01*
X94490288Y-107582210D01*
X94359185Y-107494609D01*
X94359172Y-107494602D01*
X94213501Y-107434264D01*
X94213489Y-107434261D01*
X94058845Y-107403500D01*
X94058842Y-107403500D01*
X93901158Y-107403500D01*
X93901155Y-107403500D01*
X93746510Y-107434261D01*
X93746498Y-107434264D01*
X93600827Y-107494602D01*
X93600814Y-107494609D01*
X93469711Y-107582210D01*
X93469707Y-107582213D01*
X93358213Y-107693707D01*
X93358210Y-107693711D01*
X93270609Y-107824814D01*
X93270602Y-107824827D01*
X93210264Y-107970498D01*
X93210261Y-107970510D01*
X93179500Y-108125153D01*
X27940000Y-108125153D01*
X27940000Y-104569153D01*
X93814500Y-104569153D01*
X93814500Y-104726846D01*
X93845261Y-104881489D01*
X93845264Y-104881501D01*
X93905602Y-105027172D01*
X93905609Y-105027185D01*
X93993210Y-105158288D01*
X93993213Y-105158292D01*
X94104707Y-105269786D01*
X94104711Y-105269789D01*
X94235814Y-105357390D01*
X94235827Y-105357397D01*
X94381498Y-105417735D01*
X94381503Y-105417737D01*
X94536153Y-105448499D01*
X94536156Y-105448500D01*
X94536158Y-105448500D01*
X94693844Y-105448500D01*
X94693845Y-105448499D01*
X94848497Y-105417737D01*
X94994179Y-105357394D01*
X95125289Y-105269789D01*
X95236789Y-105158289D01*
X95324394Y-105027179D01*
X95384737Y-104881497D01*
X95415500Y-104726842D01*
X95415500Y-104569158D01*
X95415500Y-104569155D01*
X95415499Y-104569153D01*
X95408549Y-104534213D01*
X95384737Y-104414503D01*
X95365223Y-104367392D01*
X95324397Y-104268827D01*
X95324390Y-104268814D01*
X95236789Y-104137711D01*
X95236786Y-104137707D01*
X95125292Y-104026213D01*
X95125288Y-104026210D01*
X94994185Y-103938609D01*
X94994175Y-103938604D01*
X94919526Y-103907683D01*
X94865122Y-103863841D01*
X94843058Y-103797547D01*
X94860338Y-103729848D01*
X94911475Y-103682238D01*
X94942788Y-103671505D01*
X94947840Y-103670500D01*
X94947842Y-103670500D01*
X95091080Y-103642008D01*
X100651019Y-103642008D01*
X100651019Y-103799701D01*
X100681780Y-103954344D01*
X100681783Y-103954356D01*
X100742121Y-104100027D01*
X100742128Y-104100040D01*
X100829729Y-104231143D01*
X100829732Y-104231147D01*
X100834962Y-104236377D01*
X100868447Y-104297700D01*
X100863463Y-104367392D01*
X100850383Y-104392949D01*
X100763609Y-104522814D01*
X100763602Y-104522827D01*
X100703264Y-104668498D01*
X100703261Y-104668510D01*
X100672500Y-104823153D01*
X100672500Y-104980846D01*
X100703261Y-105135489D01*
X100703264Y-105135501D01*
X100763602Y-105281172D01*
X100763609Y-105281185D01*
X100851210Y-105412288D01*
X100851213Y-105412292D01*
X100962707Y-105523786D01*
X100962711Y-105523789D01*
X101093821Y-105611394D01*
X101103951Y-105615590D01*
X101158354Y-105659428D01*
X101180421Y-105725721D01*
X101180500Y-105730151D01*
X101180500Y-105869846D01*
X101211261Y-106024489D01*
X101211264Y-106024501D01*
X101271602Y-106170172D01*
X101271609Y-106170185D01*
X101359210Y-106301288D01*
X101359213Y-106301292D01*
X101403821Y-106345899D01*
X101437307Y-106407222D01*
X101437759Y-106457768D01*
X101434500Y-106474154D01*
X101434500Y-106631846D01*
X101465261Y-106786489D01*
X101465264Y-106786501D01*
X101525602Y-106932172D01*
X101525609Y-106932185D01*
X101610991Y-107059967D01*
X101631869Y-107126644D01*
X101613385Y-107194025D01*
X101610995Y-107197744D01*
X101605257Y-107206331D01*
X101605251Y-107206342D01*
X101544913Y-107352012D01*
X101544910Y-107352024D01*
X101514149Y-107506667D01*
X101514149Y-107664360D01*
X101544910Y-107819003D01*
X101544913Y-107819015D01*
X101605251Y-107964686D01*
X101605258Y-107964699D01*
X101692859Y-108095802D01*
X101692862Y-108095806D01*
X101804356Y-108207300D01*
X101804360Y-108207303D01*
X101935463Y-108294904D01*
X101935476Y-108294911D01*
X102081147Y-108355249D01*
X102081152Y-108355251D01*
X102227251Y-108384312D01*
X102235802Y-108386013D01*
X102235805Y-108386014D01*
X102235807Y-108386014D01*
X102393493Y-108386014D01*
X102393494Y-108386013D01*
X102548146Y-108355251D01*
X102693828Y-108294908D01*
X102824938Y-108207303D01*
X102907088Y-108125153D01*
X120611500Y-108125153D01*
X120611500Y-108282846D01*
X120642261Y-108437489D01*
X120642264Y-108437501D01*
X120702602Y-108583172D01*
X120702609Y-108583185D01*
X120790210Y-108714288D01*
X120790213Y-108714292D01*
X120901707Y-108825786D01*
X120901711Y-108825789D01*
X121032814Y-108913390D01*
X121032827Y-108913397D01*
X121178498Y-108973735D01*
X121178503Y-108973737D01*
X121333153Y-109004499D01*
X121333156Y-109004500D01*
X121333158Y-109004500D01*
X121490844Y-109004500D01*
X121490845Y-109004499D01*
X121645497Y-108973737D01*
X121791179Y-108913394D01*
X121922289Y-108825789D01*
X122033789Y-108714289D01*
X122121394Y-108583179D01*
X122181737Y-108437497D01*
X122212500Y-108282842D01*
X122212500Y-108125158D01*
X122212500Y-108125155D01*
X122212499Y-108125153D01*
X122181738Y-107970510D01*
X122181737Y-107970503D01*
X122179333Y-107964699D01*
X122121397Y-107824827D01*
X122121390Y-107824814D01*
X122033789Y-107693711D01*
X122033786Y-107693707D01*
X121922292Y-107582213D01*
X121922288Y-107582210D01*
X121791185Y-107494609D01*
X121791172Y-107494602D01*
X121645501Y-107434264D01*
X121645489Y-107434261D01*
X121490845Y-107403500D01*
X121490842Y-107403500D01*
X121333158Y-107403500D01*
X121333155Y-107403500D01*
X121178510Y-107434261D01*
X121178498Y-107434264D01*
X121032827Y-107494602D01*
X121032814Y-107494609D01*
X120901711Y-107582210D01*
X120901707Y-107582213D01*
X120790213Y-107693707D01*
X120790210Y-107693711D01*
X120702609Y-107824814D01*
X120702602Y-107824827D01*
X120642264Y-107970498D01*
X120642261Y-107970510D01*
X120611500Y-108125153D01*
X102907088Y-108125153D01*
X102936438Y-108095803D01*
X103024043Y-107964693D01*
X103084386Y-107819011D01*
X103115149Y-107664356D01*
X103115149Y-107506672D01*
X103115149Y-107506669D01*
X103115148Y-107506667D01*
X103084386Y-107352017D01*
X103024046Y-107206342D01*
X103024046Y-107206341D01*
X103024039Y-107206328D01*
X102938657Y-107078546D01*
X102917779Y-107011869D01*
X102936263Y-106944489D01*
X102938662Y-106940757D01*
X102944391Y-106932183D01*
X102944394Y-106932179D01*
X103004737Y-106786497D01*
X103035500Y-106631842D01*
X103035500Y-106474158D01*
X103035500Y-106474155D01*
X103035499Y-106474153D01*
X103027459Y-106433735D01*
X103004737Y-106319503D01*
X102990771Y-106285786D01*
X102944397Y-106173827D01*
X102944390Y-106173814D01*
X102856789Y-106042711D01*
X102856786Y-106042707D01*
X102812177Y-105998098D01*
X102778692Y-105936775D01*
X102778241Y-105886225D01*
X102781500Y-105869842D01*
X102781500Y-105712158D01*
X102781500Y-105712155D01*
X102781499Y-105712153D01*
X102759839Y-105603257D01*
X102756238Y-105585153D01*
X107911500Y-105585153D01*
X107911500Y-105742846D01*
X107942261Y-105897489D01*
X107942264Y-105897501D01*
X108002602Y-106043172D01*
X108002609Y-106043185D01*
X108090210Y-106174288D01*
X108090213Y-106174292D01*
X108201707Y-106285786D01*
X108201711Y-106285789D01*
X108332814Y-106373390D01*
X108332827Y-106373397D01*
X108478498Y-106433735D01*
X108478503Y-106433737D01*
X108633153Y-106464499D01*
X108633156Y-106464500D01*
X108633158Y-106464500D01*
X108790844Y-106464500D01*
X108790845Y-106464499D01*
X108945497Y-106433737D01*
X109091179Y-106373394D01*
X109222289Y-106285789D01*
X109333789Y-106174289D01*
X109421394Y-106043179D01*
X109481737Y-105897497D01*
X109512500Y-105742842D01*
X109512500Y-105585158D01*
X109512500Y-105585155D01*
X109512499Y-105585153D01*
X109485317Y-105448500D01*
X109481737Y-105430503D01*
X109451456Y-105357397D01*
X109421397Y-105284827D01*
X109421390Y-105284814D01*
X109333792Y-105153716D01*
X109333789Y-105153711D01*
X109333784Y-105153706D01*
X109333781Y-105153702D01*
X109257232Y-105077153D01*
X115023500Y-105077153D01*
X115023500Y-105234846D01*
X115054261Y-105389489D01*
X115054264Y-105389501D01*
X115114602Y-105535172D01*
X115114609Y-105535185D01*
X115202210Y-105666288D01*
X115202213Y-105666292D01*
X115313707Y-105777786D01*
X115313711Y-105777789D01*
X115444814Y-105865390D01*
X115444827Y-105865397D01*
X115590498Y-105925735D01*
X115590503Y-105925737D01*
X115745153Y-105956499D01*
X115745156Y-105956500D01*
X115745158Y-105956500D01*
X115902844Y-105956500D01*
X115902845Y-105956499D01*
X116057497Y-105925737D01*
X116192431Y-105869846D01*
X116203172Y-105865397D01*
X116203172Y-105865396D01*
X116203179Y-105865394D01*
X116334289Y-105777789D01*
X116445789Y-105666289D01*
X116533394Y-105535179D01*
X116593737Y-105389497D01*
X116624500Y-105234842D01*
X116624500Y-105077158D01*
X116624500Y-105077155D01*
X116624499Y-105077153D01*
X121119500Y-105077153D01*
X121119500Y-105234846D01*
X121150261Y-105389489D01*
X121150264Y-105389501D01*
X121210602Y-105535172D01*
X121210609Y-105535185D01*
X121298210Y-105666288D01*
X121298213Y-105666292D01*
X121409707Y-105777786D01*
X121409711Y-105777789D01*
X121540814Y-105865390D01*
X121540827Y-105865397D01*
X121686498Y-105925735D01*
X121686503Y-105925737D01*
X121841153Y-105956499D01*
X121841156Y-105956500D01*
X121841158Y-105956500D01*
X121998844Y-105956500D01*
X121998845Y-105956499D01*
X122153497Y-105925737D01*
X122288431Y-105869846D01*
X122299172Y-105865397D01*
X122299172Y-105865396D01*
X122299179Y-105865394D01*
X122430289Y-105777789D01*
X122541789Y-105666289D01*
X122629394Y-105535179D01*
X122689737Y-105389497D01*
X122720500Y-105234842D01*
X122720500Y-105077158D01*
X122720500Y-105077155D01*
X122720499Y-105077153D01*
X122713549Y-105042213D01*
X122689737Y-104922503D01*
X122672749Y-104881489D01*
X122629397Y-104776827D01*
X122629390Y-104776814D01*
X122541789Y-104645711D01*
X122541786Y-104645707D01*
X122430292Y-104534213D01*
X122430288Y-104534210D01*
X122299185Y-104446609D01*
X122299172Y-104446602D01*
X122153501Y-104386264D01*
X122153489Y-104386261D01*
X121998845Y-104355500D01*
X121998842Y-104355500D01*
X121841158Y-104355500D01*
X121841155Y-104355500D01*
X121686510Y-104386261D01*
X121686498Y-104386264D01*
X121540827Y-104446602D01*
X121540814Y-104446609D01*
X121409711Y-104534210D01*
X121409707Y-104534213D01*
X121298213Y-104645707D01*
X121298210Y-104645711D01*
X121210609Y-104776814D01*
X121210602Y-104776827D01*
X121150264Y-104922498D01*
X121150261Y-104922510D01*
X121119500Y-105077153D01*
X116624499Y-105077153D01*
X116617549Y-105042213D01*
X116593737Y-104922503D01*
X116576749Y-104881489D01*
X116533397Y-104776827D01*
X116533390Y-104776814D01*
X116445789Y-104645711D01*
X116445786Y-104645707D01*
X116334292Y-104534213D01*
X116334288Y-104534210D01*
X116203185Y-104446609D01*
X116203172Y-104446602D01*
X116057501Y-104386264D01*
X116057489Y-104386261D01*
X115902845Y-104355500D01*
X115902842Y-104355500D01*
X115745158Y-104355500D01*
X115745155Y-104355500D01*
X115590510Y-104386261D01*
X115590498Y-104386264D01*
X115444827Y-104446602D01*
X115444814Y-104446609D01*
X115313711Y-104534210D01*
X115313707Y-104534213D01*
X115202213Y-104645707D01*
X115202210Y-104645711D01*
X115114609Y-104776814D01*
X115114602Y-104776827D01*
X115054264Y-104922498D01*
X115054261Y-104922510D01*
X115023500Y-105077153D01*
X109257232Y-105077153D01*
X109222292Y-105042213D01*
X109222288Y-105042210D01*
X109091185Y-104954609D01*
X109091172Y-104954602D01*
X108945501Y-104894264D01*
X108945489Y-104894261D01*
X108790845Y-104863500D01*
X108790842Y-104863500D01*
X108633158Y-104863500D01*
X108633155Y-104863500D01*
X108478510Y-104894261D01*
X108478498Y-104894264D01*
X108332827Y-104954602D01*
X108332814Y-104954609D01*
X108201711Y-105042210D01*
X108201707Y-105042213D01*
X108090213Y-105153707D01*
X108090210Y-105153711D01*
X108002609Y-105284814D01*
X108002602Y-105284827D01*
X107942264Y-105430498D01*
X107942261Y-105430510D01*
X107911500Y-105585153D01*
X102756238Y-105585153D01*
X102750738Y-105557508D01*
X102750737Y-105557507D01*
X102750737Y-105557503D01*
X102705587Y-105448500D01*
X102690397Y-105411827D01*
X102690390Y-105411814D01*
X102602789Y-105280711D01*
X102602786Y-105280707D01*
X102491292Y-105169213D01*
X102491288Y-105169210D01*
X102360185Y-105081609D01*
X102360176Y-105081604D01*
X102350047Y-105077409D01*
X102295644Y-105033568D01*
X102273579Y-104967274D01*
X102273500Y-104962848D01*
X102273500Y-104823155D01*
X102273499Y-104823153D01*
X102264283Y-104776821D01*
X102242737Y-104668503D01*
X102233295Y-104645707D01*
X102182397Y-104522827D01*
X102182390Y-104522814D01*
X102094789Y-104391711D01*
X102094786Y-104391707D01*
X102089556Y-104386477D01*
X102056071Y-104325154D01*
X102061055Y-104255462D01*
X102074129Y-104229913D01*
X102160913Y-104100034D01*
X102221256Y-103954352D01*
X102252019Y-103799697D01*
X102252019Y-103642013D01*
X102252019Y-103642010D01*
X102237945Y-103571258D01*
X102237945Y-103571257D01*
X102234344Y-103553153D01*
X124675500Y-103553153D01*
X124675500Y-103710846D01*
X124706261Y-103865489D01*
X124706264Y-103865501D01*
X124766602Y-104011172D01*
X124766609Y-104011185D01*
X124854210Y-104142288D01*
X124854213Y-104142292D01*
X124965707Y-104253786D01*
X124965711Y-104253789D01*
X125096814Y-104341390D01*
X125096827Y-104341397D01*
X125242498Y-104401735D01*
X125242503Y-104401737D01*
X125397153Y-104432499D01*
X125397156Y-104432500D01*
X125397158Y-104432500D01*
X125554844Y-104432500D01*
X125554845Y-104432499D01*
X125709497Y-104401737D01*
X125855179Y-104341394D01*
X125986289Y-104253789D01*
X126097789Y-104142289D01*
X126185394Y-104011179D01*
X126245737Y-103865497D01*
X126276500Y-103710842D01*
X126276500Y-103553158D01*
X126276500Y-103553155D01*
X126276499Y-103553153D01*
X126263410Y-103487353D01*
X126245737Y-103398503D01*
X126215456Y-103325397D01*
X126185397Y-103252827D01*
X126185390Y-103252814D01*
X126097789Y-103121711D01*
X126097786Y-103121707D01*
X125986292Y-103010213D01*
X125986288Y-103010210D01*
X125855185Y-102922609D01*
X125855172Y-102922602D01*
X125709501Y-102862264D01*
X125709489Y-102862261D01*
X125554845Y-102831500D01*
X125554842Y-102831500D01*
X125397158Y-102831500D01*
X125397155Y-102831500D01*
X125242510Y-102862261D01*
X125242498Y-102862264D01*
X125096827Y-102922602D01*
X125096814Y-102922609D01*
X124965711Y-103010210D01*
X124965707Y-103010213D01*
X124854213Y-103121707D01*
X124854210Y-103121711D01*
X124766609Y-103252814D01*
X124766602Y-103252827D01*
X124706264Y-103398498D01*
X124706261Y-103398510D01*
X124675500Y-103553153D01*
X102234344Y-103553153D01*
X102222137Y-103491789D01*
X102221256Y-103487358D01*
X102191906Y-103416500D01*
X102160916Y-103341682D01*
X102160909Y-103341669D01*
X102073308Y-103210566D01*
X102073305Y-103210562D01*
X101961811Y-103099068D01*
X101961807Y-103099065D01*
X101830704Y-103011464D01*
X101830691Y-103011457D01*
X101685020Y-102951119D01*
X101685008Y-102951116D01*
X101530364Y-102920355D01*
X101530361Y-102920355D01*
X101372677Y-102920355D01*
X101372674Y-102920355D01*
X101218029Y-102951116D01*
X101218017Y-102951119D01*
X101072346Y-103011457D01*
X101072333Y-103011464D01*
X100941230Y-103099065D01*
X100941226Y-103099068D01*
X100829732Y-103210562D01*
X100829729Y-103210566D01*
X100742128Y-103341669D01*
X100742121Y-103341682D01*
X100681783Y-103487353D01*
X100681780Y-103487365D01*
X100651019Y-103642008D01*
X95091080Y-103642008D01*
X95102497Y-103639737D01*
X95248179Y-103579394D01*
X95287444Y-103553158D01*
X95317884Y-103532819D01*
X95342413Y-103516428D01*
X95379289Y-103491789D01*
X95490789Y-103380289D01*
X95578394Y-103249179D01*
X95638737Y-103103497D01*
X95669500Y-102948842D01*
X95669500Y-102791158D01*
X95669500Y-102791155D01*
X95669499Y-102791153D01*
X95638738Y-102636510D01*
X95638737Y-102636503D01*
X95638735Y-102636498D01*
X95578397Y-102490827D01*
X95578390Y-102490814D01*
X95490789Y-102359711D01*
X95490786Y-102359707D01*
X95379292Y-102248213D01*
X95379288Y-102248210D01*
X95248185Y-102160609D01*
X95248172Y-102160602D01*
X95102501Y-102100264D01*
X95102489Y-102100261D01*
X94947845Y-102069500D01*
X94947842Y-102069500D01*
X94790158Y-102069500D01*
X94790155Y-102069500D01*
X94635510Y-102100261D01*
X94635498Y-102100264D01*
X94489827Y-102160602D01*
X94489814Y-102160609D01*
X94358711Y-102248210D01*
X94358707Y-102248213D01*
X94247213Y-102359707D01*
X94247210Y-102359711D01*
X94159609Y-102490814D01*
X94159602Y-102490827D01*
X94099264Y-102636498D01*
X94099261Y-102636510D01*
X94068500Y-102791153D01*
X94068500Y-102948846D01*
X94099261Y-103103489D01*
X94099264Y-103103501D01*
X94159602Y-103249172D01*
X94159609Y-103249185D01*
X94247210Y-103380288D01*
X94247213Y-103380292D01*
X94358707Y-103491786D01*
X94358711Y-103491789D01*
X94489814Y-103579390D01*
X94489823Y-103579395D01*
X94564473Y-103610316D01*
X94618876Y-103654157D01*
X94640941Y-103720451D01*
X94623662Y-103788150D01*
X94572525Y-103835761D01*
X94541212Y-103846494D01*
X94381508Y-103878261D01*
X94381498Y-103878264D01*
X94235827Y-103938602D01*
X94235814Y-103938609D01*
X94104711Y-104026210D01*
X94104707Y-104026213D01*
X93993213Y-104137707D01*
X93993210Y-104137711D01*
X93905609Y-104268814D01*
X93905602Y-104268827D01*
X93845264Y-104414498D01*
X93845261Y-104414510D01*
X93814500Y-104569153D01*
X27940000Y-104569153D01*
X27940000Y-99971675D01*
X31694500Y-99971675D01*
X31694500Y-100180324D01*
X31727137Y-100386389D01*
X31791612Y-100584820D01*
X31856832Y-100712821D01*
X31886330Y-100770714D01*
X32008965Y-100939505D01*
X32156495Y-101087035D01*
X32325286Y-101209670D01*
X32347185Y-101220828D01*
X32376010Y-101235515D01*
X32426806Y-101283490D01*
X32443601Y-101351310D01*
X32421064Y-101417445D01*
X32376010Y-101456485D01*
X32325285Y-101482330D01*
X32156493Y-101604966D01*
X32008966Y-101752493D01*
X31886330Y-101921285D01*
X31791612Y-102107179D01*
X31727137Y-102305610D01*
X31694500Y-102511675D01*
X31694500Y-102720324D01*
X31727137Y-102926389D01*
X31791612Y-103124820D01*
X31856832Y-103252821D01*
X31886330Y-103310714D01*
X32008965Y-103479505D01*
X32156495Y-103627035D01*
X32325286Y-103749670D01*
X32400808Y-103788150D01*
X32511179Y-103844387D01*
X32511181Y-103844387D01*
X32511184Y-103844389D01*
X32571051Y-103863841D01*
X32709610Y-103908862D01*
X32915676Y-103941500D01*
X32915681Y-103941500D01*
X33124324Y-103941500D01*
X33330389Y-103908862D01*
X33334018Y-103907683D01*
X33528816Y-103844389D01*
X33714714Y-103749670D01*
X33883505Y-103627035D01*
X34031035Y-103479505D01*
X34153670Y-103310714D01*
X34179515Y-103259990D01*
X34227489Y-103209194D01*
X34295310Y-103192398D01*
X34361445Y-103214935D01*
X34400485Y-103259990D01*
X34426328Y-103310712D01*
X34490109Y-103398498D01*
X34548965Y-103479505D01*
X34696495Y-103627035D01*
X34865286Y-103749670D01*
X34940808Y-103788150D01*
X35051179Y-103844387D01*
X35051181Y-103844387D01*
X35051184Y-103844389D01*
X35111051Y-103863841D01*
X35249610Y-103908862D01*
X35455676Y-103941500D01*
X35455681Y-103941500D01*
X35664324Y-103941500D01*
X35870389Y-103908862D01*
X35874018Y-103907683D01*
X36068816Y-103844389D01*
X36254714Y-103749670D01*
X36423505Y-103627035D01*
X36571035Y-103479505D01*
X36693670Y-103310714D01*
X36787637Y-103126292D01*
X36788387Y-103124820D01*
X36788387Y-103124819D01*
X36788389Y-103124816D01*
X36852862Y-102926389D01*
X36853818Y-102920355D01*
X36885500Y-102720324D01*
X36885500Y-102537153D01*
X40347500Y-102537153D01*
X40347500Y-102694846D01*
X40378261Y-102849489D01*
X40378264Y-102849501D01*
X40438602Y-102995172D01*
X40438609Y-102995185D01*
X40526210Y-103126288D01*
X40526213Y-103126292D01*
X40637707Y-103237786D01*
X40637711Y-103237789D01*
X40768814Y-103325390D01*
X40768827Y-103325397D01*
X40914498Y-103385735D01*
X40914503Y-103385737D01*
X41069153Y-103416499D01*
X41069156Y-103416500D01*
X41069158Y-103416500D01*
X41226844Y-103416500D01*
X41226845Y-103416499D01*
X41381497Y-103385737D01*
X41527179Y-103325394D01*
X41658289Y-103237789D01*
X41769789Y-103126289D01*
X41857394Y-102995179D01*
X41917737Y-102849497D01*
X41948500Y-102694842D01*
X41948500Y-102537158D01*
X41948500Y-102537155D01*
X41948499Y-102537153D01*
X41939283Y-102490821D01*
X41917737Y-102382503D01*
X41887456Y-102309397D01*
X41857397Y-102236827D01*
X41857390Y-102236814D01*
X41769789Y-102105711D01*
X41769786Y-102105707D01*
X41658292Y-101994213D01*
X41658288Y-101994210D01*
X41527185Y-101906609D01*
X41527172Y-101906602D01*
X41381501Y-101846264D01*
X41381489Y-101846261D01*
X41226845Y-101815500D01*
X41226842Y-101815500D01*
X41069158Y-101815500D01*
X41069155Y-101815500D01*
X40914510Y-101846261D01*
X40914498Y-101846264D01*
X40768827Y-101906602D01*
X40768814Y-101906609D01*
X40637711Y-101994210D01*
X40637707Y-101994213D01*
X40526213Y-102105707D01*
X40526210Y-102105711D01*
X40438609Y-102236814D01*
X40438602Y-102236827D01*
X40378264Y-102382498D01*
X40378261Y-102382510D01*
X40347500Y-102537153D01*
X36885500Y-102537153D01*
X36885500Y-102511675D01*
X36852862Y-102305610D01*
X36805747Y-102160606D01*
X36788389Y-102107184D01*
X36788387Y-102107181D01*
X36788387Y-102107179D01*
X36693669Y-101921285D01*
X36683001Y-101906602D01*
X36571035Y-101752495D01*
X36423505Y-101604965D01*
X36254714Y-101482330D01*
X36193812Y-101451299D01*
X36068820Y-101387612D01*
X35870389Y-101323137D01*
X35664324Y-101290500D01*
X35664319Y-101290500D01*
X35455681Y-101290500D01*
X35455676Y-101290500D01*
X35249610Y-101323137D01*
X35051179Y-101387612D01*
X34865285Y-101482330D01*
X34696493Y-101604966D01*
X34548966Y-101752493D01*
X34426330Y-101921285D01*
X34400485Y-101972010D01*
X34352510Y-102022806D01*
X34284690Y-102039601D01*
X34218555Y-102017064D01*
X34179515Y-101972010D01*
X34153669Y-101921285D01*
X34143001Y-101906602D01*
X34031035Y-101752495D01*
X33883505Y-101604965D01*
X33768149Y-101521153D01*
X33714712Y-101482328D01*
X33663990Y-101456485D01*
X33613194Y-101408511D01*
X33596398Y-101340690D01*
X33618935Y-101274555D01*
X33663990Y-101235515D01*
X33714712Y-101209671D01*
X33714711Y-101209671D01*
X33714714Y-101209670D01*
X33883505Y-101087035D01*
X33957387Y-101013153D01*
X54063500Y-101013153D01*
X54063500Y-101170846D01*
X54094261Y-101325489D01*
X54094264Y-101325501D01*
X54154602Y-101471172D01*
X54154609Y-101471185D01*
X54242210Y-101602288D01*
X54242213Y-101602292D01*
X54353707Y-101713786D01*
X54353711Y-101713789D01*
X54484814Y-101801390D01*
X54484827Y-101801397D01*
X54630498Y-101861735D01*
X54630503Y-101861737D01*
X54785153Y-101892499D01*
X54785156Y-101892500D01*
X54785158Y-101892500D01*
X54942844Y-101892500D01*
X54942845Y-101892499D01*
X55097497Y-101861737D01*
X55243179Y-101801394D01*
X55374289Y-101713789D01*
X55485789Y-101602289D01*
X55573394Y-101471179D01*
X55633737Y-101325497D01*
X55664500Y-101170842D01*
X55664500Y-101013158D01*
X55664500Y-101013155D01*
X55664499Y-101013153D01*
X55654557Y-100963171D01*
X55633737Y-100858503D01*
X55616749Y-100817489D01*
X55573397Y-100712827D01*
X55573390Y-100712814D01*
X55485789Y-100581711D01*
X55485786Y-100581707D01*
X55374292Y-100470213D01*
X55374288Y-100470210D01*
X55243185Y-100382609D01*
X55243172Y-100382602D01*
X55097501Y-100322264D01*
X55097489Y-100322261D01*
X54942845Y-100291500D01*
X54942842Y-100291500D01*
X54785158Y-100291500D01*
X54785155Y-100291500D01*
X54630510Y-100322261D01*
X54630498Y-100322264D01*
X54484827Y-100382602D01*
X54484814Y-100382609D01*
X54353711Y-100470210D01*
X54353707Y-100470213D01*
X54242213Y-100581707D01*
X54242210Y-100581711D01*
X54154609Y-100712814D01*
X54154602Y-100712827D01*
X54094264Y-100858498D01*
X54094261Y-100858510D01*
X54063500Y-101013153D01*
X33957387Y-101013153D01*
X34031035Y-100939505D01*
X34153670Y-100770714D01*
X34248389Y-100584816D01*
X34312862Y-100386389D01*
X34313462Y-100382602D01*
X34345500Y-100180324D01*
X34345500Y-99971675D01*
X34318546Y-99801501D01*
X34312862Y-99765611D01*
X34312861Y-99765607D01*
X34312861Y-99765606D01*
X34273338Y-99643968D01*
X34262865Y-99611737D01*
X105970446Y-99611737D01*
X105970446Y-99769430D01*
X106001207Y-99924073D01*
X106001210Y-99924085D01*
X106061548Y-100069756D01*
X106061555Y-100069769D01*
X106149156Y-100200872D01*
X106149159Y-100200876D01*
X106260653Y-100312370D01*
X106260657Y-100312373D01*
X106391763Y-100399976D01*
X106391765Y-100399976D01*
X106391767Y-100399978D01*
X106471630Y-100433058D01*
X106472118Y-100433260D01*
X106526522Y-100477100D01*
X106541845Y-100513162D01*
X106543493Y-100512663D01*
X106545263Y-100518499D01*
X106605602Y-100664172D01*
X106605609Y-100664185D01*
X106693210Y-100795288D01*
X106693213Y-100795292D01*
X106804707Y-100906786D01*
X106804711Y-100906789D01*
X106935814Y-100994390D01*
X106935827Y-100994397D01*
X107081498Y-101054735D01*
X107081503Y-101054737D01*
X107236153Y-101085499D01*
X107236156Y-101085500D01*
X107236158Y-101085500D01*
X107393844Y-101085500D01*
X107393845Y-101085499D01*
X107548497Y-101054737D01*
X107694179Y-100994394D01*
X107825289Y-100906789D01*
X107936789Y-100795289D01*
X108024394Y-100664179D01*
X108084737Y-100518497D01*
X108115500Y-100363842D01*
X108115500Y-100206158D01*
X108115500Y-100206155D01*
X108115499Y-100206153D01*
X108090050Y-100078214D01*
X108084737Y-100051503D01*
X108084735Y-100051498D01*
X108024397Y-99905827D01*
X108024390Y-99905814D01*
X107936789Y-99774711D01*
X107936786Y-99774707D01*
X107825292Y-99663213D01*
X107825288Y-99663210D01*
X107694185Y-99575609D01*
X107694175Y-99575604D01*
X107613826Y-99542322D01*
X107559422Y-99498480D01*
X107546315Y-99474229D01*
X107541939Y-99463403D01*
X107540683Y-99457087D01*
X107487023Y-99327540D01*
X107486822Y-99327042D01*
X107483438Y-99292803D01*
X107479756Y-99258557D01*
X107479994Y-99257965D01*
X107479950Y-99257512D01*
X107481034Y-99255391D01*
X107498686Y-99211680D01*
X107505501Y-99201482D01*
X107516394Y-99185179D01*
X107576737Y-99039497D01*
X107607500Y-98884842D01*
X107607500Y-98727158D01*
X107607500Y-98727155D01*
X107607499Y-98727153D01*
X107576738Y-98572510D01*
X107576737Y-98572503D01*
X107569192Y-98554288D01*
X107516397Y-98426827D01*
X107516390Y-98426814D01*
X107428789Y-98295711D01*
X107428786Y-98295707D01*
X107317292Y-98184213D01*
X107317288Y-98184210D01*
X107186185Y-98096609D01*
X107186172Y-98096602D01*
X107040501Y-98036264D01*
X107040489Y-98036261D01*
X106885845Y-98005500D01*
X106885842Y-98005500D01*
X106728158Y-98005500D01*
X106728155Y-98005500D01*
X106573510Y-98036261D01*
X106573498Y-98036264D01*
X106427827Y-98096602D01*
X106427814Y-98096609D01*
X106296711Y-98184210D01*
X106296707Y-98184213D01*
X106185213Y-98295707D01*
X106185210Y-98295711D01*
X106097609Y-98426814D01*
X106097602Y-98426827D01*
X106037264Y-98572498D01*
X106037261Y-98572510D01*
X106006500Y-98727153D01*
X106006500Y-98884846D01*
X106037261Y-99039489D01*
X106037264Y-99039501D01*
X106090720Y-99168556D01*
X106098189Y-99238025D01*
X106079264Y-99284895D01*
X106061555Y-99311400D01*
X106061548Y-99311412D01*
X106001210Y-99457082D01*
X106001207Y-99457094D01*
X105970446Y-99611737D01*
X34262865Y-99611737D01*
X34262166Y-99609586D01*
X34248389Y-99567184D01*
X34248387Y-99567181D01*
X34248387Y-99567179D01*
X34153669Y-99381285D01*
X34145545Y-99370103D01*
X34031035Y-99212495D01*
X33883505Y-99064965D01*
X33714714Y-98942330D01*
X33692813Y-98931171D01*
X33528820Y-98847612D01*
X33330389Y-98783137D01*
X33124324Y-98750500D01*
X33124319Y-98750500D01*
X32915681Y-98750500D01*
X32915676Y-98750500D01*
X32709610Y-98783137D01*
X32511179Y-98847612D01*
X32325285Y-98942330D01*
X32156493Y-99064966D01*
X32008966Y-99212493D01*
X31886330Y-99381285D01*
X31791612Y-99567179D01*
X31727137Y-99765610D01*
X31694500Y-99971675D01*
X27940000Y-99971675D01*
X27940000Y-98473153D01*
X93687500Y-98473153D01*
X93687500Y-98630846D01*
X93718261Y-98785489D01*
X93718264Y-98785501D01*
X93778602Y-98931172D01*
X93778609Y-98931185D01*
X93866210Y-99062288D01*
X93866213Y-99062292D01*
X93977707Y-99173786D01*
X93977711Y-99173789D01*
X94108814Y-99261390D01*
X94108827Y-99261397D01*
X94229547Y-99311400D01*
X94254503Y-99321737D01*
X94409153Y-99352499D01*
X94409156Y-99352500D01*
X94409158Y-99352500D01*
X94566844Y-99352500D01*
X94566845Y-99352499D01*
X94721497Y-99321737D01*
X94867179Y-99261394D01*
X94998289Y-99173789D01*
X95109789Y-99062289D01*
X95197394Y-98931179D01*
X95257737Y-98785497D01*
X95288500Y-98630842D01*
X95288500Y-98473158D01*
X95288500Y-98473155D01*
X95288499Y-98473153D01*
X95279283Y-98426821D01*
X95257737Y-98318503D01*
X95227456Y-98245397D01*
X95197397Y-98172827D01*
X95197390Y-98172814D01*
X95109789Y-98041711D01*
X95109786Y-98041707D01*
X94998292Y-97930213D01*
X94998288Y-97930210D01*
X94867185Y-97842609D01*
X94867172Y-97842602D01*
X94721501Y-97782264D01*
X94721489Y-97782261D01*
X94566845Y-97751500D01*
X94566842Y-97751500D01*
X94409158Y-97751500D01*
X94409155Y-97751500D01*
X94254510Y-97782261D01*
X94254498Y-97782264D01*
X94108827Y-97842602D01*
X94108814Y-97842609D01*
X93977711Y-97930210D01*
X93977707Y-97930213D01*
X93866213Y-98041707D01*
X93866210Y-98041711D01*
X93778609Y-98172814D01*
X93778602Y-98172827D01*
X93718264Y-98318498D01*
X93718261Y-98318510D01*
X93687500Y-98473153D01*
X27940000Y-98473153D01*
X27940000Y-95841153D01*
X98132500Y-95841153D01*
X98132500Y-95998846D01*
X98163261Y-96153489D01*
X98163264Y-96153501D01*
X98223602Y-96299172D01*
X98223609Y-96299185D01*
X98311210Y-96430288D01*
X98311213Y-96430292D01*
X98422707Y-96541786D01*
X98422711Y-96541789D01*
X98553814Y-96629390D01*
X98553827Y-96629397D01*
X98699498Y-96689735D01*
X98699503Y-96689737D01*
X98841057Y-96717894D01*
X98854153Y-96720499D01*
X98854156Y-96720500D01*
X98854158Y-96720500D01*
X99011844Y-96720500D01*
X99011845Y-96720499D01*
X99139269Y-96695153D01*
X104101500Y-96695153D01*
X104101500Y-96852846D01*
X104132261Y-97007489D01*
X104132264Y-97007501D01*
X104192602Y-97153172D01*
X104192609Y-97153185D01*
X104280210Y-97284288D01*
X104280213Y-97284292D01*
X104391707Y-97395786D01*
X104391711Y-97395789D01*
X104522814Y-97483390D01*
X104522827Y-97483397D01*
X104644288Y-97533707D01*
X104668503Y-97543737D01*
X104823153Y-97574499D01*
X104823156Y-97574500D01*
X104823158Y-97574500D01*
X104980844Y-97574500D01*
X104980845Y-97574499D01*
X105135497Y-97543737D01*
X105281179Y-97483394D01*
X105320451Y-97457153D01*
X108419500Y-97457153D01*
X108419500Y-97614846D01*
X108450261Y-97769489D01*
X108450264Y-97769501D01*
X108510602Y-97915172D01*
X108510609Y-97915185D01*
X108598210Y-98046288D01*
X108598213Y-98046292D01*
X108709707Y-98157786D01*
X108709711Y-98157789D01*
X108840814Y-98245390D01*
X108840827Y-98245397D01*
X108962288Y-98295707D01*
X108986503Y-98305737D01*
X109141153Y-98336499D01*
X109141156Y-98336500D01*
X109141158Y-98336500D01*
X109298844Y-98336500D01*
X109298845Y-98336499D01*
X109453497Y-98305737D01*
X109599179Y-98245394D01*
X109730289Y-98157789D01*
X109841789Y-98046289D01*
X109929394Y-97915179D01*
X109989737Y-97769497D01*
X110020500Y-97614842D01*
X110020500Y-97457158D01*
X110020500Y-97457155D01*
X110020499Y-97457153D01*
X115531500Y-97457153D01*
X115531500Y-97614846D01*
X115562261Y-97769489D01*
X115562264Y-97769501D01*
X115622602Y-97915171D01*
X115622609Y-97915184D01*
X115632649Y-97930210D01*
X115655997Y-97965153D01*
X115662650Y-97975109D01*
X115683528Y-98041787D01*
X115665043Y-98109167D01*
X115662650Y-98112891D01*
X115622609Y-98172815D01*
X115622602Y-98172828D01*
X115562264Y-98318498D01*
X115562261Y-98318510D01*
X115531500Y-98473153D01*
X115531500Y-98630846D01*
X115562261Y-98785489D01*
X115562264Y-98785501D01*
X115622602Y-98931171D01*
X115622609Y-98931184D01*
X115662650Y-98991109D01*
X115683528Y-99057787D01*
X115665043Y-99125167D01*
X115662650Y-99128891D01*
X115622609Y-99188815D01*
X115622602Y-99188828D01*
X115562264Y-99334498D01*
X115562261Y-99334510D01*
X115531500Y-99489153D01*
X115531500Y-99646846D01*
X115562261Y-99801489D01*
X115562264Y-99801501D01*
X115622602Y-99947171D01*
X115622609Y-99947184D01*
X115662650Y-100007109D01*
X115683528Y-100073787D01*
X115665043Y-100141167D01*
X115662650Y-100144891D01*
X115622609Y-100204815D01*
X115622602Y-100204828D01*
X115562264Y-100350498D01*
X115562261Y-100350510D01*
X115531500Y-100505153D01*
X115531500Y-100662846D01*
X115562261Y-100817489D01*
X115562264Y-100817501D01*
X115622602Y-100963171D01*
X115622603Y-100963172D01*
X115622606Y-100963179D01*
X115655997Y-101013153D01*
X115662650Y-101023109D01*
X115683528Y-101089787D01*
X115665043Y-101157167D01*
X115662650Y-101160891D01*
X115622609Y-101220815D01*
X115622602Y-101220828D01*
X115562264Y-101366498D01*
X115562261Y-101366510D01*
X115531500Y-101521153D01*
X115531500Y-101678846D01*
X115562261Y-101833489D01*
X115562264Y-101833501D01*
X115622602Y-101979172D01*
X115622609Y-101979185D01*
X115710210Y-102110288D01*
X115710213Y-102110292D01*
X115821707Y-102221786D01*
X115821711Y-102221789D01*
X115952814Y-102309390D01*
X115952827Y-102309397D01*
X116074288Y-102359707D01*
X116098503Y-102369737D01*
X116253153Y-102400499D01*
X116253156Y-102400500D01*
X116253158Y-102400500D01*
X116410844Y-102400500D01*
X116410845Y-102400499D01*
X116565497Y-102369737D01*
X116711179Y-102309394D01*
X116842289Y-102221789D01*
X116953789Y-102110289D01*
X117041394Y-101979179D01*
X117044364Y-101972010D01*
X117090039Y-101861738D01*
X117101737Y-101833497D01*
X117132500Y-101678842D01*
X117132500Y-101521158D01*
X117132499Y-101521153D01*
X117132380Y-101519946D01*
X117132500Y-101519312D01*
X117132500Y-101515066D01*
X117133305Y-101515066D01*
X117145393Y-101451299D01*
X117193454Y-101400585D01*
X117261304Y-101383905D01*
X117267946Y-101384380D01*
X117269153Y-101384499D01*
X117269158Y-101384500D01*
X117269163Y-101384500D01*
X117426844Y-101384500D01*
X117426845Y-101384499D01*
X117581497Y-101353737D01*
X117727179Y-101293394D01*
X117858289Y-101205789D01*
X117969789Y-101094289D01*
X118057394Y-100963179D01*
X118117737Y-100817497D01*
X118148500Y-100662842D01*
X118148500Y-100505158D01*
X118148500Y-100505155D01*
X118148499Y-100505153D01*
X118141549Y-100470213D01*
X118117737Y-100350503D01*
X118101942Y-100312370D01*
X118057397Y-100204827D01*
X118057393Y-100204820D01*
X118054755Y-100200872D01*
X118017349Y-100144890D01*
X117996472Y-100078214D01*
X118014956Y-100010834D01*
X118017338Y-100007125D01*
X118057394Y-99947179D01*
X118117737Y-99801497D01*
X118148500Y-99646842D01*
X118148500Y-99489158D01*
X118148500Y-99489155D01*
X118148499Y-99489153D01*
X118127043Y-99381286D01*
X118117737Y-99334503D01*
X118112448Y-99321735D01*
X118057397Y-99188827D01*
X118057393Y-99188820D01*
X118054960Y-99185179D01*
X118017349Y-99128890D01*
X117996472Y-99062214D01*
X118014956Y-98994834D01*
X118017338Y-98991125D01*
X118057394Y-98931179D01*
X118117737Y-98785497D01*
X118148500Y-98630842D01*
X118148500Y-98473158D01*
X118148500Y-98473155D01*
X118148499Y-98473153D01*
X118139283Y-98426821D01*
X118117737Y-98318503D01*
X118087456Y-98245397D01*
X118057397Y-98172827D01*
X118057393Y-98172820D01*
X118052854Y-98166027D01*
X118017349Y-98112890D01*
X118011942Y-98095621D01*
X118001957Y-98080535D01*
X118001720Y-98062975D01*
X117996472Y-98046214D01*
X118001258Y-98028764D01*
X118001015Y-98010672D01*
X118013943Y-97982523D01*
X118014956Y-97978834D01*
X118015242Y-97978373D01*
X118016269Y-97976726D01*
X118024002Y-97965153D01*
X129247500Y-97965153D01*
X129247500Y-98122846D01*
X129278261Y-98277489D01*
X129278264Y-98277501D01*
X129338602Y-98423172D01*
X129338609Y-98423185D01*
X129426210Y-98554288D01*
X129426213Y-98554292D01*
X129537707Y-98665786D01*
X129537711Y-98665789D01*
X129668814Y-98753390D01*
X129668827Y-98753397D01*
X129814498Y-98813735D01*
X129814503Y-98813737D01*
X129969153Y-98844499D01*
X129969156Y-98844500D01*
X129969158Y-98844500D01*
X130126844Y-98844500D01*
X130126845Y-98844499D01*
X130281497Y-98813737D01*
X130427179Y-98753394D01*
X130558289Y-98665789D01*
X130669789Y-98554289D01*
X130757394Y-98423179D01*
X130817737Y-98277497D01*
X130848500Y-98122842D01*
X130848500Y-97965158D01*
X130848500Y-97965155D01*
X130848499Y-97965153D01*
X130841549Y-97930213D01*
X130817737Y-97810503D01*
X130800749Y-97769489D01*
X130757397Y-97664827D01*
X130757390Y-97664814D01*
X130669789Y-97533711D01*
X130669786Y-97533707D01*
X130558292Y-97422213D01*
X130558288Y-97422210D01*
X130427185Y-97334609D01*
X130427172Y-97334602D01*
X130281501Y-97274264D01*
X130281489Y-97274261D01*
X130126845Y-97243500D01*
X130126842Y-97243500D01*
X129969158Y-97243500D01*
X129969155Y-97243500D01*
X129814510Y-97274261D01*
X129814498Y-97274264D01*
X129668827Y-97334602D01*
X129668814Y-97334609D01*
X129537711Y-97422210D01*
X129537707Y-97422213D01*
X129426213Y-97533707D01*
X129426210Y-97533711D01*
X129338609Y-97664814D01*
X129338602Y-97664827D01*
X129278264Y-97810498D01*
X129278261Y-97810510D01*
X129247500Y-97965153D01*
X118024002Y-97965153D01*
X118057394Y-97915179D01*
X118117737Y-97769497D01*
X118148500Y-97614842D01*
X118148500Y-97457158D01*
X118148500Y-97457155D01*
X118148499Y-97457153D01*
X118141549Y-97422213D01*
X118117737Y-97302503D01*
X118106039Y-97274261D01*
X118057397Y-97156827D01*
X118057390Y-97156814D01*
X117969789Y-97025711D01*
X117969785Y-97025706D01*
X117890214Y-96946135D01*
X140625500Y-96946135D01*
X140625500Y-99141870D01*
X140625501Y-99141876D01*
X140631908Y-99201483D01*
X140682202Y-99336328D01*
X140682206Y-99336335D01*
X140768452Y-99451544D01*
X140768455Y-99451547D01*
X140883664Y-99537793D01*
X140883671Y-99537797D01*
X141018517Y-99588091D01*
X141018516Y-99588091D01*
X141025444Y-99588835D01*
X141078127Y-99594500D01*
X143273872Y-99594499D01*
X143333483Y-99588091D01*
X143468331Y-99537796D01*
X143583546Y-99451546D01*
X143669796Y-99336331D01*
X143720091Y-99201483D01*
X143726500Y-99141873D01*
X143726499Y-97921973D01*
X149325500Y-97921973D01*
X149325500Y-98166027D01*
X149337021Y-98238769D01*
X149352500Y-98336500D01*
X149363679Y-98407076D01*
X149439096Y-98639185D01*
X149543708Y-98844499D01*
X149549896Y-98856642D01*
X149693339Y-99054076D01*
X149693343Y-99054081D01*
X149865918Y-99226656D01*
X149865923Y-99226660D01*
X150016879Y-99336335D01*
X150063361Y-99370106D01*
X150280815Y-99480904D01*
X150512924Y-99556321D01*
X150753973Y-99594500D01*
X150753974Y-99594500D01*
X150998026Y-99594500D01*
X150998027Y-99594500D01*
X151239076Y-99556321D01*
X151471185Y-99480904D01*
X151688639Y-99370106D01*
X151886083Y-99226655D01*
X152058655Y-99054083D01*
X152202106Y-98856639D01*
X152312904Y-98639185D01*
X152388321Y-98407076D01*
X152426500Y-98166027D01*
X152426500Y-97921973D01*
X152388321Y-97680924D01*
X152312904Y-97448815D01*
X152202106Y-97231361D01*
X152145299Y-97153172D01*
X152058660Y-97033923D01*
X152058656Y-97033918D01*
X151886081Y-96861343D01*
X151886076Y-96861339D01*
X151688642Y-96717896D01*
X151688641Y-96717895D01*
X151688639Y-96717894D01*
X151471185Y-96607096D01*
X151239076Y-96531679D01*
X151239074Y-96531678D01*
X151239072Y-96531678D01*
X151038491Y-96499909D01*
X150998027Y-96493500D01*
X150753973Y-96493500D01*
X150713515Y-96499908D01*
X150512927Y-96531678D01*
X150280812Y-96607097D01*
X150063357Y-96717896D01*
X149865923Y-96861339D01*
X149865918Y-96861343D01*
X149693343Y-97033918D01*
X149693339Y-97033923D01*
X149549896Y-97231357D01*
X149439097Y-97448812D01*
X149363678Y-97680927D01*
X149347628Y-97782263D01*
X149325500Y-97921973D01*
X143726499Y-97921973D01*
X143726499Y-96946128D01*
X143720091Y-96886517D01*
X143710702Y-96861345D01*
X143669797Y-96751671D01*
X143669793Y-96751664D01*
X143583547Y-96636455D01*
X143583544Y-96636452D01*
X143468335Y-96550206D01*
X143468328Y-96550202D01*
X143333482Y-96499908D01*
X143333483Y-96499908D01*
X143273883Y-96493501D01*
X143273881Y-96493500D01*
X143273873Y-96493500D01*
X143273864Y-96493500D01*
X141078129Y-96493500D01*
X141078123Y-96493501D01*
X141018516Y-96499908D01*
X140883671Y-96550202D01*
X140883664Y-96550206D01*
X140768455Y-96636452D01*
X140768452Y-96636455D01*
X140682206Y-96751664D01*
X140682202Y-96751671D01*
X140631908Y-96886517D01*
X140628931Y-96914211D01*
X140625501Y-96946123D01*
X140625500Y-96946135D01*
X117890214Y-96946135D01*
X117858292Y-96914213D01*
X117858288Y-96914210D01*
X117727185Y-96826609D01*
X117727172Y-96826602D01*
X117581501Y-96766264D01*
X117581489Y-96766261D01*
X117426845Y-96735500D01*
X117426842Y-96735500D01*
X117269158Y-96735500D01*
X117269155Y-96735500D01*
X117114510Y-96766261D01*
X117114498Y-96766264D01*
X116968828Y-96826602D01*
X116968815Y-96826609D01*
X116908891Y-96866650D01*
X116842213Y-96887528D01*
X116774833Y-96869043D01*
X116771109Y-96866650D01*
X116711184Y-96826609D01*
X116711181Y-96826607D01*
X116711179Y-96826606D01*
X116711176Y-96826604D01*
X116711171Y-96826602D01*
X116565501Y-96766264D01*
X116565489Y-96766261D01*
X116410845Y-96735500D01*
X116410842Y-96735500D01*
X116253158Y-96735500D01*
X116253155Y-96735500D01*
X116098510Y-96766261D01*
X116098498Y-96766264D01*
X115952827Y-96826602D01*
X115952814Y-96826609D01*
X115821711Y-96914210D01*
X115821707Y-96914213D01*
X115710213Y-97025707D01*
X115710210Y-97025711D01*
X115622609Y-97156814D01*
X115622602Y-97156827D01*
X115562264Y-97302498D01*
X115562261Y-97302510D01*
X115531500Y-97457153D01*
X110020499Y-97457153D01*
X110013549Y-97422213D01*
X109989737Y-97302503D01*
X109978039Y-97274261D01*
X109929397Y-97156827D01*
X109929390Y-97156814D01*
X109841789Y-97025711D01*
X109841786Y-97025707D01*
X109730292Y-96914213D01*
X109730288Y-96914210D01*
X109599185Y-96826609D01*
X109599172Y-96826602D01*
X109453501Y-96766264D01*
X109453489Y-96766261D01*
X109298845Y-96735500D01*
X109298842Y-96735500D01*
X109141158Y-96735500D01*
X109141155Y-96735500D01*
X108986510Y-96766261D01*
X108986498Y-96766264D01*
X108840827Y-96826602D01*
X108840814Y-96826609D01*
X108709711Y-96914210D01*
X108709707Y-96914213D01*
X108598213Y-97025707D01*
X108598210Y-97025711D01*
X108510609Y-97156814D01*
X108510602Y-97156827D01*
X108450264Y-97302498D01*
X108450261Y-97302510D01*
X108419500Y-97457153D01*
X105320451Y-97457153D01*
X105412289Y-97395789D01*
X105412292Y-97395786D01*
X105444694Y-97363385D01*
X105523786Y-97284292D01*
X105523789Y-97284289D01*
X105611394Y-97153179D01*
X105671737Y-97007497D01*
X105702500Y-96852842D01*
X105702500Y-96695158D01*
X105702500Y-96695155D01*
X105702499Y-96695153D01*
X105690823Y-96636454D01*
X105671737Y-96540503D01*
X105652268Y-96493500D01*
X105611397Y-96394827D01*
X105611390Y-96394814D01*
X105523789Y-96263711D01*
X105523786Y-96263707D01*
X105412292Y-96152213D01*
X105412288Y-96152210D01*
X105281185Y-96064609D01*
X105281172Y-96064602D01*
X105135501Y-96004264D01*
X105135489Y-96004261D01*
X104980845Y-95973500D01*
X104980842Y-95973500D01*
X104823158Y-95973500D01*
X104823155Y-95973500D01*
X104668510Y-96004261D01*
X104668498Y-96004264D01*
X104522827Y-96064602D01*
X104522814Y-96064609D01*
X104391711Y-96152210D01*
X104391707Y-96152213D01*
X104280213Y-96263707D01*
X104280210Y-96263711D01*
X104192609Y-96394814D01*
X104192602Y-96394827D01*
X104132264Y-96540498D01*
X104132261Y-96540510D01*
X104101500Y-96695153D01*
X99139269Y-96695153D01*
X99166497Y-96689737D01*
X99312179Y-96629394D01*
X99345549Y-96607097D01*
X99377177Y-96585964D01*
X99398769Y-96571536D01*
X99443289Y-96541789D01*
X99554789Y-96430289D01*
X99582889Y-96388234D01*
X99605046Y-96355075D01*
X99658658Y-96310269D01*
X99727983Y-96301562D01*
X99732344Y-96302349D01*
X99743155Y-96304500D01*
X99743158Y-96304500D01*
X99900844Y-96304500D01*
X99900845Y-96304499D01*
X100055497Y-96273737D01*
X100103138Y-96254003D01*
X100169940Y-96226334D01*
X100239409Y-96218865D01*
X100286283Y-96237793D01*
X100375079Y-96297125D01*
X100375092Y-96297132D01*
X100514981Y-96355075D01*
X100520768Y-96357472D01*
X100675418Y-96388234D01*
X100675421Y-96388235D01*
X100675423Y-96388235D01*
X100833109Y-96388235D01*
X100833110Y-96388234D01*
X100987762Y-96357472D01*
X101122742Y-96301562D01*
X101133437Y-96297132D01*
X101133437Y-96297131D01*
X101133444Y-96297129D01*
X101264554Y-96209524D01*
X101376054Y-96098024D01*
X101463659Y-95966914D01*
X101524002Y-95821232D01*
X101554765Y-95666577D01*
X101554765Y-95508893D01*
X101554765Y-95508890D01*
X101554764Y-95508888D01*
X101535036Y-95409711D01*
X101524002Y-95354238D01*
X101500771Y-95298153D01*
X105498500Y-95298153D01*
X105498500Y-95455846D01*
X105529261Y-95610489D01*
X105529264Y-95610501D01*
X105589602Y-95756172D01*
X105589609Y-95756185D01*
X105677210Y-95887288D01*
X105677213Y-95887292D01*
X105788707Y-95998786D01*
X105788711Y-95998789D01*
X105919814Y-96086390D01*
X105919827Y-96086397D01*
X106065498Y-96146735D01*
X106065503Y-96146737D01*
X106220153Y-96177499D01*
X106220156Y-96177500D01*
X106220158Y-96177500D01*
X106377844Y-96177500D01*
X106377845Y-96177499D01*
X106532497Y-96146737D01*
X106650094Y-96098027D01*
X106678172Y-96086397D01*
X106678172Y-96086396D01*
X106678179Y-96086394D01*
X106809289Y-95998789D01*
X106920789Y-95887289D01*
X107008394Y-95756179D01*
X107068737Y-95610497D01*
X107099500Y-95455842D01*
X107099500Y-95298158D01*
X107099500Y-95298155D01*
X107099499Y-95298153D01*
X107082085Y-95210609D01*
X107068737Y-95143503D01*
X107037846Y-95068925D01*
X107008397Y-94997827D01*
X107008390Y-94997814D01*
X106920789Y-94866711D01*
X106920786Y-94866707D01*
X106809292Y-94755213D01*
X106809288Y-94755210D01*
X106678185Y-94667609D01*
X106678172Y-94667602D01*
X106532501Y-94607264D01*
X106532489Y-94607261D01*
X106377845Y-94576500D01*
X106377842Y-94576500D01*
X106220158Y-94576500D01*
X106220155Y-94576500D01*
X106065510Y-94607261D01*
X106065498Y-94607264D01*
X105919827Y-94667602D01*
X105919814Y-94667609D01*
X105788711Y-94755210D01*
X105788707Y-94755213D01*
X105677213Y-94866707D01*
X105677210Y-94866711D01*
X105589609Y-94997814D01*
X105589602Y-94997827D01*
X105529264Y-95143498D01*
X105529261Y-95143510D01*
X105498500Y-95298153D01*
X101500771Y-95298153D01*
X101484030Y-95257737D01*
X101463662Y-95208562D01*
X101463655Y-95208549D01*
X101376054Y-95077446D01*
X101376051Y-95077442D01*
X101264557Y-94965948D01*
X101264553Y-94965945D01*
X101133450Y-94878344D01*
X101133437Y-94878337D01*
X100987766Y-94817999D01*
X100987754Y-94817996D01*
X100833110Y-94787235D01*
X100833107Y-94787235D01*
X100675423Y-94787235D01*
X100675420Y-94787235D01*
X100520775Y-94817996D01*
X100520763Y-94817999D01*
X100406325Y-94865401D01*
X100336856Y-94872870D01*
X100289982Y-94853942D01*
X100201185Y-94794609D01*
X100201172Y-94794602D01*
X100055501Y-94734264D01*
X100055489Y-94734261D01*
X99900845Y-94703500D01*
X99900842Y-94703500D01*
X99743158Y-94703500D01*
X99743155Y-94703500D01*
X99588510Y-94734261D01*
X99588498Y-94734264D01*
X99442827Y-94794602D01*
X99442814Y-94794609D01*
X99311711Y-94882210D01*
X99311707Y-94882213D01*
X99200213Y-94993707D01*
X99200210Y-94993711D01*
X99149954Y-95068925D01*
X99096342Y-95113730D01*
X99027017Y-95122437D01*
X99022665Y-95121652D01*
X99011845Y-95119500D01*
X99011842Y-95119500D01*
X98854158Y-95119500D01*
X98854155Y-95119500D01*
X98699510Y-95150261D01*
X98699498Y-95150264D01*
X98553827Y-95210602D01*
X98553814Y-95210609D01*
X98422711Y-95298210D01*
X98422707Y-95298213D01*
X98311213Y-95409707D01*
X98311210Y-95409711D01*
X98223609Y-95540814D01*
X98223602Y-95540827D01*
X98163264Y-95686498D01*
X98163261Y-95686510D01*
X98132500Y-95841153D01*
X27940000Y-95841153D01*
X27940000Y-94409153D01*
X70827500Y-94409153D01*
X70827500Y-94566846D01*
X70858261Y-94721489D01*
X70858264Y-94721501D01*
X70918602Y-94867172D01*
X70918609Y-94867185D01*
X71006210Y-94998288D01*
X71006213Y-94998292D01*
X71117707Y-95109786D01*
X71117711Y-95109789D01*
X71248814Y-95197390D01*
X71248827Y-95197397D01*
X71394498Y-95257735D01*
X71394503Y-95257737D01*
X71549153Y-95288499D01*
X71549156Y-95288500D01*
X71549158Y-95288500D01*
X71706844Y-95288500D01*
X71706845Y-95288499D01*
X71861497Y-95257737D01*
X72007179Y-95197394D01*
X72138289Y-95109789D01*
X72249789Y-94998289D01*
X72337394Y-94867179D01*
X72338131Y-94865401D01*
X72367456Y-94794602D01*
X72397737Y-94721497D01*
X72428500Y-94566842D01*
X72428500Y-94409158D01*
X72428500Y-94409155D01*
X72428499Y-94409153D01*
X72401317Y-94272500D01*
X72397737Y-94254503D01*
X72367456Y-94181397D01*
X72337397Y-94108827D01*
X72337390Y-94108814D01*
X72249789Y-93977711D01*
X72249786Y-93977707D01*
X72138292Y-93866213D01*
X72138288Y-93866210D01*
X72007185Y-93778609D01*
X72007172Y-93778602D01*
X71951703Y-93755627D01*
X71861501Y-93718264D01*
X71861489Y-93718261D01*
X71706845Y-93687500D01*
X71706842Y-93687500D01*
X71549158Y-93687500D01*
X71549155Y-93687500D01*
X71394510Y-93718261D01*
X71394498Y-93718264D01*
X71248827Y-93778602D01*
X71248814Y-93778609D01*
X71117711Y-93866210D01*
X71117707Y-93866213D01*
X71006213Y-93977707D01*
X71006210Y-93977711D01*
X70918609Y-94108814D01*
X70918602Y-94108827D01*
X70858264Y-94254498D01*
X70858261Y-94254510D01*
X70827500Y-94409153D01*
X27940000Y-94409153D01*
X27940000Y-93393153D01*
X51523500Y-93393153D01*
X51523500Y-93550846D01*
X51554261Y-93705489D01*
X51554264Y-93705501D01*
X51614602Y-93851172D01*
X51614609Y-93851185D01*
X51702210Y-93982288D01*
X51702213Y-93982292D01*
X51813707Y-94093786D01*
X51813711Y-94093789D01*
X51944814Y-94181390D01*
X51944827Y-94181397D01*
X52090498Y-94241735D01*
X52090503Y-94241737D01*
X52245153Y-94272499D01*
X52245156Y-94272500D01*
X52245158Y-94272500D01*
X52402844Y-94272500D01*
X52402845Y-94272499D01*
X52557497Y-94241737D01*
X52703179Y-94181394D01*
X52834289Y-94093789D01*
X52945789Y-93982289D01*
X53033394Y-93851179D01*
X53093737Y-93705497D01*
X53105342Y-93647153D01*
X99783500Y-93647153D01*
X99783500Y-93804846D01*
X99814261Y-93959489D01*
X99814264Y-93959501D01*
X99874602Y-94105172D01*
X99874609Y-94105185D01*
X99962210Y-94236288D01*
X99962213Y-94236292D01*
X100073707Y-94347786D01*
X100073711Y-94347789D01*
X100204814Y-94435390D01*
X100204827Y-94435397D01*
X100303628Y-94476321D01*
X100350503Y-94495737D01*
X100505153Y-94526499D01*
X100505156Y-94526500D01*
X100505158Y-94526500D01*
X100662844Y-94526500D01*
X100662845Y-94526499D01*
X100817497Y-94495737D01*
X100963179Y-94435394D01*
X101094289Y-94347789D01*
X101205789Y-94236289D01*
X101293394Y-94105179D01*
X101353737Y-93959497D01*
X101384500Y-93804842D01*
X101384500Y-93647158D01*
X101384500Y-93647155D01*
X101384499Y-93647153D01*
X101353738Y-93492510D01*
X101353737Y-93492503D01*
X101312585Y-93393153D01*
X125183500Y-93393153D01*
X125183500Y-93550846D01*
X125214261Y-93705489D01*
X125214264Y-93705501D01*
X125274602Y-93851172D01*
X125274609Y-93851185D01*
X125362210Y-93982288D01*
X125362213Y-93982292D01*
X125473707Y-94093786D01*
X125473711Y-94093789D01*
X125604814Y-94181390D01*
X125604827Y-94181397D01*
X125750498Y-94241735D01*
X125750503Y-94241737D01*
X125905153Y-94272499D01*
X125905156Y-94272500D01*
X125905158Y-94272500D01*
X126062844Y-94272500D01*
X126062845Y-94272499D01*
X126217497Y-94241737D01*
X126363179Y-94181394D01*
X126494289Y-94093789D01*
X126605789Y-93982289D01*
X126693394Y-93851179D01*
X126753737Y-93705497D01*
X126784500Y-93550842D01*
X126784500Y-93393158D01*
X126784500Y-93393155D01*
X126784499Y-93393153D01*
X129755500Y-93393153D01*
X129755500Y-93550846D01*
X129786261Y-93705489D01*
X129786264Y-93705501D01*
X129846602Y-93851172D01*
X129846609Y-93851185D01*
X129934210Y-93982288D01*
X129934213Y-93982292D01*
X130045707Y-94093786D01*
X130045711Y-94093789D01*
X130176814Y-94181390D01*
X130176827Y-94181397D01*
X130322498Y-94241735D01*
X130322503Y-94241737D01*
X130477153Y-94272499D01*
X130477156Y-94272500D01*
X130477158Y-94272500D01*
X130634844Y-94272500D01*
X130634845Y-94272499D01*
X130789497Y-94241737D01*
X130935179Y-94181394D01*
X131066289Y-94093789D01*
X131177789Y-93982289D01*
X131265394Y-93851179D01*
X131325737Y-93705497D01*
X131356500Y-93550842D01*
X131356500Y-93393158D01*
X131356500Y-93393155D01*
X131356499Y-93393153D01*
X131347283Y-93346821D01*
X131325737Y-93238503D01*
X131270112Y-93104211D01*
X131265397Y-93092827D01*
X131265390Y-93092814D01*
X131177789Y-92961711D01*
X131177786Y-92961707D01*
X131066292Y-92850213D01*
X131066288Y-92850210D01*
X131053961Y-92841973D01*
X140625500Y-92841973D01*
X140625500Y-93086027D01*
X140637021Y-93158769D01*
X140646039Y-93215707D01*
X140663679Y-93327076D01*
X140739096Y-93559185D01*
X140813647Y-93705501D01*
X140849896Y-93776642D01*
X140993339Y-93974076D01*
X140993343Y-93974081D01*
X141165918Y-94146656D01*
X141165923Y-94146660D01*
X141314367Y-94254510D01*
X141363361Y-94290106D01*
X141580815Y-94400904D01*
X141812924Y-94476321D01*
X142053973Y-94514500D01*
X142053974Y-94514500D01*
X142298026Y-94514500D01*
X142298027Y-94514500D01*
X142539076Y-94476321D01*
X142771185Y-94400904D01*
X142988639Y-94290106D01*
X143186083Y-94146655D01*
X143358655Y-93974083D01*
X143502106Y-93776639D01*
X143612904Y-93559185D01*
X143688321Y-93327076D01*
X143726500Y-93086027D01*
X143726500Y-92841973D01*
X149325500Y-92841973D01*
X149325500Y-93086027D01*
X149337021Y-93158769D01*
X149346039Y-93215707D01*
X149363679Y-93327076D01*
X149439096Y-93559185D01*
X149513647Y-93705501D01*
X149549896Y-93776642D01*
X149693339Y-93974076D01*
X149693343Y-93974081D01*
X149865918Y-94146656D01*
X149865923Y-94146660D01*
X150014367Y-94254510D01*
X150063361Y-94290106D01*
X150280815Y-94400904D01*
X150512924Y-94476321D01*
X150753973Y-94514500D01*
X150753974Y-94514500D01*
X150998026Y-94514500D01*
X150998027Y-94514500D01*
X151239076Y-94476321D01*
X151471185Y-94400904D01*
X151688639Y-94290106D01*
X151886083Y-94146655D01*
X152058655Y-93974083D01*
X152202106Y-93776639D01*
X152312904Y-93559185D01*
X152388321Y-93327076D01*
X152426500Y-93086027D01*
X152426500Y-92841973D01*
X152388321Y-92600924D01*
X152312904Y-92368815D01*
X152202106Y-92151361D01*
X152183779Y-92126136D01*
X152058660Y-91953923D01*
X152058656Y-91953918D01*
X151886081Y-91781343D01*
X151886076Y-91781339D01*
X151688642Y-91637896D01*
X151688641Y-91637895D01*
X151688639Y-91637894D01*
X151471185Y-91527096D01*
X151239076Y-91451679D01*
X151239074Y-91451678D01*
X151239072Y-91451678D01*
X151070769Y-91425021D01*
X150998027Y-91413500D01*
X150753973Y-91413500D01*
X150698093Y-91422350D01*
X150512927Y-91451678D01*
X150280812Y-91527097D01*
X150063357Y-91637896D01*
X149865923Y-91781339D01*
X149865918Y-91781343D01*
X149693343Y-91953918D01*
X149693339Y-91953923D01*
X149549896Y-92151357D01*
X149439097Y-92368812D01*
X149363678Y-92600927D01*
X149347628Y-92702263D01*
X149325500Y-92841973D01*
X143726500Y-92841973D01*
X143688321Y-92600924D01*
X143612904Y-92368815D01*
X143502106Y-92151361D01*
X143483779Y-92126136D01*
X143358660Y-91953923D01*
X143358656Y-91953918D01*
X143186081Y-91781343D01*
X143186076Y-91781339D01*
X142988642Y-91637896D01*
X142988641Y-91637895D01*
X142988639Y-91637894D01*
X142771185Y-91527096D01*
X142539076Y-91451679D01*
X142539074Y-91451678D01*
X142539072Y-91451678D01*
X142370769Y-91425021D01*
X142298027Y-91413500D01*
X142053973Y-91413500D01*
X141998093Y-91422350D01*
X141812927Y-91451678D01*
X141580812Y-91527097D01*
X141363357Y-91637896D01*
X141165923Y-91781339D01*
X141165918Y-91781343D01*
X140993343Y-91953918D01*
X140993339Y-91953923D01*
X140849896Y-92151357D01*
X140739097Y-92368812D01*
X140663678Y-92600927D01*
X140647628Y-92702263D01*
X140625500Y-92841973D01*
X131053961Y-92841973D01*
X130935185Y-92762609D01*
X130935172Y-92762602D01*
X130789501Y-92702264D01*
X130789489Y-92702261D01*
X130634845Y-92671500D01*
X130634842Y-92671500D01*
X130477158Y-92671500D01*
X130477155Y-92671500D01*
X130322510Y-92702261D01*
X130322498Y-92702264D01*
X130176827Y-92762602D01*
X130176814Y-92762609D01*
X130045711Y-92850210D01*
X130045707Y-92850213D01*
X129934213Y-92961707D01*
X129934210Y-92961711D01*
X129846609Y-93092814D01*
X129846602Y-93092827D01*
X129786264Y-93238498D01*
X129786261Y-93238510D01*
X129755500Y-93393153D01*
X126784499Y-93393153D01*
X126775283Y-93346821D01*
X126753737Y-93238503D01*
X126698112Y-93104211D01*
X126693397Y-93092827D01*
X126693390Y-93092814D01*
X126605789Y-92961711D01*
X126605786Y-92961707D01*
X126494292Y-92850213D01*
X126494288Y-92850210D01*
X126363185Y-92762609D01*
X126363172Y-92762602D01*
X126217501Y-92702264D01*
X126217489Y-92702261D01*
X126062845Y-92671500D01*
X126062842Y-92671500D01*
X125905158Y-92671500D01*
X125905155Y-92671500D01*
X125750510Y-92702261D01*
X125750498Y-92702264D01*
X125604827Y-92762602D01*
X125604814Y-92762609D01*
X125473711Y-92850210D01*
X125473707Y-92850213D01*
X125362213Y-92961707D01*
X125362210Y-92961711D01*
X125274609Y-93092814D01*
X125274602Y-93092827D01*
X125214264Y-93238498D01*
X125214261Y-93238510D01*
X125183500Y-93393153D01*
X101312585Y-93393153D01*
X101293397Y-93346826D01*
X101293390Y-93346814D01*
X101205789Y-93215711D01*
X101205786Y-93215707D01*
X101094292Y-93104213D01*
X101094288Y-93104210D01*
X100963185Y-93016609D01*
X100963172Y-93016602D01*
X100817501Y-92956264D01*
X100817489Y-92956261D01*
X100662845Y-92925500D01*
X100662842Y-92925500D01*
X100505158Y-92925500D01*
X100505155Y-92925500D01*
X100350510Y-92956261D01*
X100350498Y-92956264D01*
X100204827Y-93016602D01*
X100204814Y-93016609D01*
X100073711Y-93104210D01*
X100073707Y-93104213D01*
X99962213Y-93215707D01*
X99962210Y-93215711D01*
X99874609Y-93346814D01*
X99874602Y-93346827D01*
X99814264Y-93492498D01*
X99814261Y-93492510D01*
X99783500Y-93647153D01*
X53105342Y-93647153D01*
X53124500Y-93550842D01*
X53124500Y-93393158D01*
X53124500Y-93393155D01*
X53124499Y-93393153D01*
X53115283Y-93346821D01*
X53093737Y-93238503D01*
X53038112Y-93104211D01*
X53033397Y-93092827D01*
X53033390Y-93092814D01*
X52945789Y-92961711D01*
X52945786Y-92961707D01*
X52834292Y-92850213D01*
X52834288Y-92850210D01*
X52703185Y-92762609D01*
X52703172Y-92762602D01*
X52557501Y-92702264D01*
X52557489Y-92702261D01*
X52402845Y-92671500D01*
X52402842Y-92671500D01*
X52245158Y-92671500D01*
X52245155Y-92671500D01*
X52090510Y-92702261D01*
X52090498Y-92702264D01*
X51944827Y-92762602D01*
X51944814Y-92762609D01*
X51813711Y-92850210D01*
X51813707Y-92850213D01*
X51702213Y-92961707D01*
X51702210Y-92961711D01*
X51614609Y-93092814D01*
X51614602Y-93092827D01*
X51554264Y-93238498D01*
X51554261Y-93238510D01*
X51523500Y-93393153D01*
X27940000Y-93393153D01*
X27940000Y-87297153D01*
X91655500Y-87297153D01*
X91655500Y-87454846D01*
X91686261Y-87609489D01*
X91686264Y-87609501D01*
X91746602Y-87755172D01*
X91746609Y-87755185D01*
X91834210Y-87886288D01*
X91834213Y-87886292D01*
X91945707Y-87997786D01*
X91945711Y-87997789D01*
X92076814Y-88085390D01*
X92076827Y-88085397D01*
X92222498Y-88145735D01*
X92222503Y-88145737D01*
X92377153Y-88176499D01*
X92377156Y-88176500D01*
X92377158Y-88176500D01*
X92534844Y-88176500D01*
X92534845Y-88176499D01*
X92689497Y-88145737D01*
X92835179Y-88085394D01*
X92966289Y-87997789D01*
X93077789Y-87886289D01*
X93165394Y-87755179D01*
X93225737Y-87609497D01*
X93256500Y-87454842D01*
X93256500Y-87297158D01*
X93256500Y-87297155D01*
X93256499Y-87297153D01*
X93225738Y-87142510D01*
X93225737Y-87142503D01*
X93225735Y-87142498D01*
X93165397Y-86996827D01*
X93165390Y-86996814D01*
X93077789Y-86865711D01*
X93077786Y-86865707D01*
X92966292Y-86754213D01*
X92966288Y-86754210D01*
X92835185Y-86666609D01*
X92835172Y-86666602D01*
X92689501Y-86606264D01*
X92689489Y-86606261D01*
X92534845Y-86575500D01*
X92534842Y-86575500D01*
X92377158Y-86575500D01*
X92377155Y-86575500D01*
X92222510Y-86606261D01*
X92222498Y-86606264D01*
X92076827Y-86666602D01*
X92076814Y-86666609D01*
X91945711Y-86754210D01*
X91945707Y-86754213D01*
X91834213Y-86865707D01*
X91834210Y-86865711D01*
X91746609Y-86996814D01*
X91746602Y-86996827D01*
X91686264Y-87142498D01*
X91686261Y-87142510D01*
X91655500Y-87297153D01*
X27940000Y-87297153D01*
X27940000Y-84324135D01*
X36368500Y-84324135D01*
X36368500Y-86119870D01*
X36368501Y-86119876D01*
X36374908Y-86179483D01*
X36425202Y-86314328D01*
X36425206Y-86314335D01*
X36511452Y-86429544D01*
X36511455Y-86429547D01*
X36626664Y-86515793D01*
X36626671Y-86515797D01*
X36761517Y-86566091D01*
X36761516Y-86566091D01*
X36768444Y-86566835D01*
X36821127Y-86572500D01*
X38616872Y-86572499D01*
X38676483Y-86566091D01*
X38811331Y-86515796D01*
X38926546Y-86429546D01*
X39012796Y-86314331D01*
X39063091Y-86179483D01*
X39069500Y-86119873D01*
X39069500Y-85773153D01*
X80987500Y-85773153D01*
X80987500Y-85930846D01*
X81018261Y-86085489D01*
X81018264Y-86085501D01*
X81078602Y-86231172D01*
X81078609Y-86231185D01*
X81166210Y-86362288D01*
X81166213Y-86362292D01*
X81277707Y-86473786D01*
X81277711Y-86473789D01*
X81408814Y-86561390D01*
X81408827Y-86561397D01*
X81554498Y-86621735D01*
X81554503Y-86621737D01*
X81709153Y-86652499D01*
X81709156Y-86652500D01*
X81709158Y-86652500D01*
X81866844Y-86652500D01*
X81866845Y-86652499D01*
X82021497Y-86621737D01*
X82140371Y-86572498D01*
X82167172Y-86561397D01*
X82167172Y-86561396D01*
X82167179Y-86561394D01*
X82298289Y-86473789D01*
X82409789Y-86362289D01*
X82497394Y-86231179D01*
X82557737Y-86085497D01*
X82588500Y-85930842D01*
X82588500Y-85773158D01*
X82588500Y-85773155D01*
X82588499Y-85773153D01*
X82566839Y-85664257D01*
X82563238Y-85646153D01*
X103720500Y-85646153D01*
X103720500Y-85803846D01*
X103751261Y-85958489D01*
X103751264Y-85958501D01*
X103811602Y-86104172D01*
X103811609Y-86104185D01*
X103899210Y-86235288D01*
X103899213Y-86235292D01*
X104010707Y-86346786D01*
X104010711Y-86346789D01*
X104141814Y-86434390D01*
X104141827Y-86434397D01*
X104287498Y-86494735D01*
X104287503Y-86494737D01*
X104442153Y-86525499D01*
X104442156Y-86525500D01*
X104442158Y-86525500D01*
X104599844Y-86525500D01*
X104599845Y-86525499D01*
X104754497Y-86494737D01*
X104900179Y-86434394D01*
X105031289Y-86346789D01*
X105142789Y-86235289D01*
X105230394Y-86104179D01*
X105290737Y-85958497D01*
X105321500Y-85803842D01*
X105321500Y-85646158D01*
X105321500Y-85646155D01*
X105321499Y-85646153D01*
X105290738Y-85491510D01*
X105290737Y-85491503D01*
X105262297Y-85422842D01*
X105230397Y-85345827D01*
X105230393Y-85345820D01*
X105227647Y-85341711D01*
X105176493Y-85265153D01*
X110832500Y-85265153D01*
X110832500Y-85422846D01*
X110863261Y-85577489D01*
X110863264Y-85577501D01*
X110923602Y-85723172D01*
X110923609Y-85723185D01*
X111011210Y-85854288D01*
X111011213Y-85854292D01*
X111122707Y-85965786D01*
X111122711Y-85965789D01*
X111253814Y-86053390D01*
X111253827Y-86053397D01*
X111376442Y-86104185D01*
X111399503Y-86113737D01*
X111554153Y-86144499D01*
X111554156Y-86144500D01*
X111554158Y-86144500D01*
X111711844Y-86144500D01*
X111711845Y-86144499D01*
X111866497Y-86113737D01*
X112012179Y-86053394D01*
X112143289Y-85965789D01*
X112254789Y-85854289D01*
X112342394Y-85723179D01*
X112402737Y-85577497D01*
X112433500Y-85422842D01*
X112433500Y-85392153D01*
X121881500Y-85392153D01*
X121881500Y-85549846D01*
X121912261Y-85704489D01*
X121912264Y-85704501D01*
X121972602Y-85850172D01*
X121972609Y-85850185D01*
X122060210Y-85981288D01*
X122060213Y-85981292D01*
X122171707Y-86092786D01*
X122171711Y-86092789D01*
X122302814Y-86180390D01*
X122302827Y-86180397D01*
X122448498Y-86240735D01*
X122448503Y-86240737D01*
X122603153Y-86271499D01*
X122603156Y-86271500D01*
X122603158Y-86271500D01*
X122760844Y-86271500D01*
X122760845Y-86271499D01*
X122915497Y-86240737D01*
X123061179Y-86180394D01*
X123192289Y-86092789D01*
X123303789Y-85981289D01*
X123391394Y-85850179D01*
X123451737Y-85704497D01*
X123482500Y-85549842D01*
X123482500Y-85392158D01*
X123482500Y-85392155D01*
X123482499Y-85392153D01*
X123473283Y-85345820D01*
X123451737Y-85237503D01*
X123428293Y-85180904D01*
X123391397Y-85091827D01*
X123391390Y-85091814D01*
X123303789Y-84960711D01*
X123303786Y-84960707D01*
X123192292Y-84849213D01*
X123192288Y-84849210D01*
X123061185Y-84761609D01*
X123061172Y-84761602D01*
X122915501Y-84701264D01*
X122915489Y-84701261D01*
X122760845Y-84670500D01*
X122760842Y-84670500D01*
X122603158Y-84670500D01*
X122603155Y-84670500D01*
X122448510Y-84701261D01*
X122448498Y-84701264D01*
X122302827Y-84761602D01*
X122302814Y-84761609D01*
X122171711Y-84849210D01*
X122171707Y-84849213D01*
X122060213Y-84960707D01*
X122060210Y-84960711D01*
X121972609Y-85091814D01*
X121972602Y-85091827D01*
X121912264Y-85237498D01*
X121912261Y-85237510D01*
X121881500Y-85392153D01*
X112433500Y-85392153D01*
X112433500Y-85265158D01*
X112433500Y-85265155D01*
X112433499Y-85265153D01*
X112431742Y-85256321D01*
X112402737Y-85110503D01*
X112386003Y-85070103D01*
X112342397Y-84964827D01*
X112342390Y-84964814D01*
X112254789Y-84833711D01*
X112254786Y-84833707D01*
X112143292Y-84722213D01*
X112143288Y-84722210D01*
X112012185Y-84634609D01*
X112012172Y-84634602D01*
X111866501Y-84574264D01*
X111866489Y-84574261D01*
X111711845Y-84543500D01*
X111711842Y-84543500D01*
X111554158Y-84543500D01*
X111554155Y-84543500D01*
X111399510Y-84574261D01*
X111399498Y-84574264D01*
X111253827Y-84634602D01*
X111253814Y-84634609D01*
X111122711Y-84722210D01*
X111122707Y-84722213D01*
X111011213Y-84833707D01*
X111011210Y-84833711D01*
X110923609Y-84964814D01*
X110923602Y-84964827D01*
X110863264Y-85110498D01*
X110863261Y-85110510D01*
X110832500Y-85265153D01*
X105176493Y-85265153D01*
X105142789Y-85214711D01*
X105142786Y-85214707D01*
X105031292Y-85103213D01*
X105031288Y-85103210D01*
X104900185Y-85015609D01*
X104900172Y-85015602D01*
X104754501Y-84955264D01*
X104754489Y-84955261D01*
X104599845Y-84924500D01*
X104599842Y-84924500D01*
X104442158Y-84924500D01*
X104442155Y-84924500D01*
X104287510Y-84955261D01*
X104287498Y-84955264D01*
X104141827Y-85015602D01*
X104141814Y-85015609D01*
X104010711Y-85103210D01*
X104010707Y-85103213D01*
X103899213Y-85214707D01*
X103899210Y-85214711D01*
X103811609Y-85345814D01*
X103811602Y-85345827D01*
X103751264Y-85491498D01*
X103751261Y-85491510D01*
X103720500Y-85646153D01*
X82563238Y-85646153D01*
X82557738Y-85618508D01*
X82557737Y-85618507D01*
X82557737Y-85618503D01*
X82529297Y-85549842D01*
X82497397Y-85472827D01*
X82497390Y-85472814D01*
X82409789Y-85341711D01*
X82409786Y-85341707D01*
X82298292Y-85230213D01*
X82298288Y-85230210D01*
X82167185Y-85142609D01*
X82167172Y-85142602D01*
X82021501Y-85082264D01*
X82021489Y-85082261D01*
X81866845Y-85051500D01*
X81866842Y-85051500D01*
X81709158Y-85051500D01*
X81709155Y-85051500D01*
X81554510Y-85082261D01*
X81554498Y-85082264D01*
X81408827Y-85142602D01*
X81408814Y-85142609D01*
X81277711Y-85230210D01*
X81277707Y-85230213D01*
X81166213Y-85341707D01*
X81166210Y-85341711D01*
X81078609Y-85472814D01*
X81078602Y-85472827D01*
X81018264Y-85618498D01*
X81018261Y-85618510D01*
X80987500Y-85773153D01*
X39069500Y-85773153D01*
X39069499Y-85214711D01*
X39069499Y-84324129D01*
X39069498Y-84324123D01*
X39069497Y-84324116D01*
X39063091Y-84264517D01*
X39012796Y-84129669D01*
X39012795Y-84129668D01*
X39012793Y-84129664D01*
X38926547Y-84014455D01*
X38926544Y-84014452D01*
X38811335Y-83928206D01*
X38811328Y-83928202D01*
X38676482Y-83877908D01*
X38676483Y-83877908D01*
X38616883Y-83871501D01*
X38616881Y-83871500D01*
X38616873Y-83871500D01*
X38616864Y-83871500D01*
X36821129Y-83871500D01*
X36821123Y-83871501D01*
X36761516Y-83877908D01*
X36626671Y-83928202D01*
X36626664Y-83928206D01*
X36511455Y-84014452D01*
X36511452Y-84014455D01*
X36425206Y-84129664D01*
X36425202Y-84129671D01*
X36374908Y-84264517D01*
X36368501Y-84324116D01*
X36368501Y-84324123D01*
X36368500Y-84324135D01*
X27940000Y-84324135D01*
X27940000Y-83233153D01*
X68287500Y-83233153D01*
X68287500Y-83390846D01*
X68318261Y-83545489D01*
X68318264Y-83545501D01*
X68378602Y-83691172D01*
X68378609Y-83691185D01*
X68466210Y-83822288D01*
X68466213Y-83822292D01*
X68577707Y-83933786D01*
X68577711Y-83933789D01*
X68708814Y-84021390D01*
X68708827Y-84021397D01*
X68854498Y-84081735D01*
X68854503Y-84081737D01*
X68981870Y-84107072D01*
X69009153Y-84112499D01*
X69009156Y-84112500D01*
X69009158Y-84112500D01*
X69166844Y-84112500D01*
X69166845Y-84112499D01*
X69321497Y-84081737D01*
X69467179Y-84021394D01*
X69598289Y-83933789D01*
X69709789Y-83822289D01*
X69797394Y-83691179D01*
X69857737Y-83545497D01*
X69888500Y-83390842D01*
X69888500Y-83233158D01*
X69888500Y-83233155D01*
X69888499Y-83233153D01*
X69861317Y-83096500D01*
X69857737Y-83078503D01*
X69827456Y-83005397D01*
X69797397Y-82932827D01*
X69797390Y-82932814D01*
X69709789Y-82801711D01*
X69709786Y-82801707D01*
X69598292Y-82690213D01*
X69598288Y-82690210D01*
X69467185Y-82602609D01*
X69467172Y-82602602D01*
X69321501Y-82542264D01*
X69321489Y-82542261D01*
X69166845Y-82511500D01*
X69166842Y-82511500D01*
X69009158Y-82511500D01*
X69009155Y-82511500D01*
X68854510Y-82542261D01*
X68854498Y-82542264D01*
X68708827Y-82602602D01*
X68708814Y-82602609D01*
X68577711Y-82690210D01*
X68577707Y-82690213D01*
X68466213Y-82801707D01*
X68466210Y-82801711D01*
X68378609Y-82932814D01*
X68378602Y-82932827D01*
X68318264Y-83078498D01*
X68318261Y-83078510D01*
X68287500Y-83233153D01*
X27940000Y-83233153D01*
X27940000Y-82217153D01*
X82511500Y-82217153D01*
X82511500Y-82374846D01*
X82542261Y-82529489D01*
X82542264Y-82529501D01*
X82602602Y-82675172D01*
X82602609Y-82675185D01*
X82690210Y-82806288D01*
X82690213Y-82806292D01*
X82801707Y-82917786D01*
X82801711Y-82917789D01*
X82932814Y-83005390D01*
X82932827Y-83005397D01*
X83078498Y-83065735D01*
X83078503Y-83065737D01*
X83233153Y-83096499D01*
X83233156Y-83096500D01*
X83233158Y-83096500D01*
X83390844Y-83096500D01*
X83390845Y-83096499D01*
X83545497Y-83065737D01*
X83691179Y-83005394D01*
X83822289Y-82917789D01*
X83933789Y-82806289D01*
X84021394Y-82675179D01*
X84033424Y-82646135D01*
X140525500Y-82646135D01*
X140525500Y-84841870D01*
X140525501Y-84841876D01*
X140531908Y-84901483D01*
X140582202Y-85036328D01*
X140582206Y-85036335D01*
X140668452Y-85151544D01*
X140668455Y-85151547D01*
X140783664Y-85237793D01*
X140783671Y-85237797D01*
X140918517Y-85288091D01*
X140918516Y-85288091D01*
X140925444Y-85288835D01*
X140978127Y-85294500D01*
X143173872Y-85294499D01*
X143233483Y-85288091D01*
X143368331Y-85237796D01*
X143483546Y-85151546D01*
X143569796Y-85036331D01*
X143620091Y-84901483D01*
X143626500Y-84841873D01*
X143626499Y-83621973D01*
X149225500Y-83621973D01*
X149225500Y-83866026D01*
X149259665Y-84081738D01*
X149263679Y-84107076D01*
X149339096Y-84339185D01*
X149443199Y-84543500D01*
X149449896Y-84556642D01*
X149593339Y-84754076D01*
X149593343Y-84754081D01*
X149765918Y-84926656D01*
X149765923Y-84926660D01*
X149916879Y-85036335D01*
X149963361Y-85070106D01*
X150180815Y-85180904D01*
X150412924Y-85256321D01*
X150653973Y-85294500D01*
X150653974Y-85294500D01*
X150898026Y-85294500D01*
X150898027Y-85294500D01*
X151139076Y-85256321D01*
X151371185Y-85180904D01*
X151588639Y-85070106D01*
X151786083Y-84926655D01*
X151958655Y-84754083D01*
X152102106Y-84556639D01*
X152212904Y-84339185D01*
X152288321Y-84107076D01*
X152326500Y-83866027D01*
X152326500Y-83621973D01*
X152288321Y-83380924D01*
X152212904Y-83148815D01*
X152102106Y-82931361D01*
X152083779Y-82906136D01*
X151958660Y-82733923D01*
X151958656Y-82733918D01*
X151786081Y-82561343D01*
X151786076Y-82561339D01*
X151588642Y-82417896D01*
X151588641Y-82417895D01*
X151588639Y-82417894D01*
X151371185Y-82307096D01*
X151139076Y-82231679D01*
X151139074Y-82231678D01*
X151139072Y-82231678D01*
X150938491Y-82199909D01*
X150898027Y-82193500D01*
X150653973Y-82193500D01*
X150613515Y-82199908D01*
X150412927Y-82231678D01*
X150180812Y-82307097D01*
X149963357Y-82417896D01*
X149765923Y-82561339D01*
X149765918Y-82561343D01*
X149593343Y-82733918D01*
X149593339Y-82733923D01*
X149449896Y-82931357D01*
X149339097Y-83148812D01*
X149263678Y-83380927D01*
X149225500Y-83621973D01*
X143626499Y-83621973D01*
X143626499Y-82646128D01*
X143620091Y-82586517D01*
X143610702Y-82561345D01*
X143569797Y-82451671D01*
X143569793Y-82451664D01*
X143483547Y-82336455D01*
X143483544Y-82336452D01*
X143368335Y-82250206D01*
X143368328Y-82250202D01*
X143233482Y-82199908D01*
X143233483Y-82199908D01*
X143173883Y-82193501D01*
X143173881Y-82193500D01*
X143173873Y-82193500D01*
X143173864Y-82193500D01*
X140978129Y-82193500D01*
X140978123Y-82193501D01*
X140918516Y-82199908D01*
X140783671Y-82250202D01*
X140783664Y-82250206D01*
X140668455Y-82336452D01*
X140668452Y-82336455D01*
X140582206Y-82451664D01*
X140582202Y-82451671D01*
X140531908Y-82586517D01*
X140525501Y-82646116D01*
X140525501Y-82646123D01*
X140525500Y-82646135D01*
X84033424Y-82646135D01*
X84051453Y-82602609D01*
X84054459Y-82595353D01*
X84054459Y-82595352D01*
X84081737Y-82529497D01*
X84112500Y-82374842D01*
X84112500Y-82217158D01*
X84112500Y-82217155D01*
X84112499Y-82217153D01*
X84081738Y-82062510D01*
X84081737Y-82062503D01*
X84081735Y-82062498D01*
X84021397Y-81916827D01*
X84021390Y-81916814D01*
X83933789Y-81785711D01*
X83933786Y-81785707D01*
X83822292Y-81674213D01*
X83822288Y-81674210D01*
X83691185Y-81586609D01*
X83691172Y-81586602D01*
X83545501Y-81526264D01*
X83545489Y-81526261D01*
X83390845Y-81495500D01*
X83390842Y-81495500D01*
X83233158Y-81495500D01*
X83233155Y-81495500D01*
X83078510Y-81526261D01*
X83078498Y-81526264D01*
X82932827Y-81586602D01*
X82932814Y-81586609D01*
X82801711Y-81674210D01*
X82801707Y-81674213D01*
X82690213Y-81785707D01*
X82690210Y-81785711D01*
X82602609Y-81916814D01*
X82602602Y-81916827D01*
X82542264Y-82062498D01*
X82542261Y-82062510D01*
X82511500Y-82217153D01*
X27940000Y-82217153D01*
X27940000Y-77645153D01*
X66255500Y-77645153D01*
X66255500Y-77802846D01*
X66286261Y-77957489D01*
X66286264Y-77957501D01*
X66346602Y-78103172D01*
X66346609Y-78103185D01*
X66434210Y-78234288D01*
X66434213Y-78234292D01*
X66545707Y-78345786D01*
X66545711Y-78345789D01*
X66676814Y-78433390D01*
X66676827Y-78433397D01*
X66822498Y-78493735D01*
X66822503Y-78493737D01*
X66977153Y-78524499D01*
X66977156Y-78524500D01*
X66977158Y-78524500D01*
X67134844Y-78524500D01*
X67134845Y-78524499D01*
X67289497Y-78493737D01*
X67435179Y-78433394D01*
X67566289Y-78345789D01*
X67677789Y-78234289D01*
X67765394Y-78103179D01*
X67825737Y-77957497D01*
X67856500Y-77802842D01*
X67856500Y-77645158D01*
X67856500Y-77645155D01*
X67856499Y-77645153D01*
X67825738Y-77490510D01*
X67825737Y-77490503D01*
X67808749Y-77449489D01*
X67765397Y-77344827D01*
X67765390Y-77344814D01*
X67677789Y-77213711D01*
X67677786Y-77213707D01*
X67566292Y-77102213D01*
X67566288Y-77102210D01*
X67435185Y-77014609D01*
X67435172Y-77014602D01*
X67289501Y-76954264D01*
X67289489Y-76954261D01*
X67134845Y-76923500D01*
X67134842Y-76923500D01*
X66977158Y-76923500D01*
X66977155Y-76923500D01*
X66822510Y-76954261D01*
X66822498Y-76954264D01*
X66676827Y-77014602D01*
X66676814Y-77014609D01*
X66545711Y-77102210D01*
X66545707Y-77102213D01*
X66434213Y-77213707D01*
X66434210Y-77213711D01*
X66346609Y-77344814D01*
X66346602Y-77344827D01*
X66286264Y-77490498D01*
X66286261Y-77490510D01*
X66255500Y-77645153D01*
X27940000Y-77645153D01*
X27940000Y-74597153D01*
X70319500Y-74597153D01*
X70319500Y-74754846D01*
X70350261Y-74909489D01*
X70350264Y-74909501D01*
X70410602Y-75055172D01*
X70410609Y-75055185D01*
X70498210Y-75186288D01*
X70498213Y-75186292D01*
X70609707Y-75297786D01*
X70609711Y-75297789D01*
X70740814Y-75385390D01*
X70740827Y-75385397D01*
X70859374Y-75434500D01*
X70886503Y-75445737D01*
X70976437Y-75463626D01*
X70991508Y-75466624D01*
X71053419Y-75499008D01*
X71087993Y-75559724D01*
X71084254Y-75629494D01*
X71054999Y-75675921D01*
X71006214Y-75724706D01*
X71006210Y-75724711D01*
X70918609Y-75855814D01*
X70918602Y-75855827D01*
X70858264Y-76001498D01*
X70858261Y-76001510D01*
X70827500Y-76156153D01*
X70827500Y-76313846D01*
X70858261Y-76468489D01*
X70858264Y-76468501D01*
X70918602Y-76614171D01*
X70918604Y-76614174D01*
X70918606Y-76614179D01*
X70918609Y-76614183D01*
X70918611Y-76614187D01*
X70946957Y-76656611D01*
X70967834Y-76723288D01*
X70949349Y-76790668D01*
X70946957Y-76794389D01*
X70918611Y-76836812D01*
X70918602Y-76836828D01*
X70858264Y-76982498D01*
X70858261Y-76982510D01*
X70827500Y-77137153D01*
X70827500Y-77294846D01*
X70858261Y-77449489D01*
X70858264Y-77449501D01*
X70918602Y-77595172D01*
X70918609Y-77595185D01*
X71006210Y-77726288D01*
X71006213Y-77726292D01*
X71117707Y-77837786D01*
X71117711Y-77837789D01*
X71248814Y-77925390D01*
X71248827Y-77925397D01*
X71320736Y-77955182D01*
X71394503Y-77985737D01*
X71470318Y-78000817D01*
X71532226Y-78033201D01*
X71566800Y-78093917D01*
X71563061Y-78163686D01*
X71533807Y-78210113D01*
X71514214Y-78229706D01*
X71514210Y-78229711D01*
X71426609Y-78360814D01*
X71426602Y-78360827D01*
X71366264Y-78506498D01*
X71366261Y-78506510D01*
X71335500Y-78661153D01*
X71335500Y-78818846D01*
X71366261Y-78973489D01*
X71366264Y-78973501D01*
X71426602Y-79119172D01*
X71426609Y-79119185D01*
X71514210Y-79250288D01*
X71514213Y-79250292D01*
X71625707Y-79361786D01*
X71625711Y-79361789D01*
X71756814Y-79449390D01*
X71756827Y-79449397D01*
X71902498Y-79509735D01*
X71902503Y-79509737D01*
X72057153Y-79540499D01*
X72057156Y-79540500D01*
X72057158Y-79540500D01*
X72214844Y-79540500D01*
X72214845Y-79540499D01*
X72369497Y-79509737D01*
X72489733Y-79459934D01*
X72515172Y-79449397D01*
X72515172Y-79449396D01*
X72515179Y-79449394D01*
X72646289Y-79361789D01*
X72665882Y-79342196D01*
X72727204Y-79308709D01*
X72796896Y-79313692D01*
X72852831Y-79355562D01*
X72875182Y-79405683D01*
X72890261Y-79481491D01*
X72890264Y-79481501D01*
X72950602Y-79627172D01*
X72950609Y-79627185D01*
X73038210Y-79758288D01*
X73038213Y-79758292D01*
X73149707Y-79869786D01*
X73149711Y-79869789D01*
X73280814Y-79957390D01*
X73280827Y-79957397D01*
X73426498Y-80017735D01*
X73426503Y-80017737D01*
X73572310Y-80046740D01*
X73581153Y-80048499D01*
X73581156Y-80048500D01*
X73581158Y-80048500D01*
X73738844Y-80048500D01*
X73738845Y-80048499D01*
X73893497Y-80017737D01*
X74039179Y-79957394D01*
X74170289Y-79869789D01*
X74259617Y-79780460D01*
X74320938Y-79746977D01*
X74390630Y-79751961D01*
X74446564Y-79793832D01*
X74470981Y-79859296D01*
X74461858Y-79915595D01*
X74414264Y-80030498D01*
X74414261Y-80030510D01*
X74383500Y-80185153D01*
X74383500Y-80342846D01*
X74414261Y-80497489D01*
X74414264Y-80497501D01*
X74474602Y-80643172D01*
X74474609Y-80643185D01*
X74562210Y-80774288D01*
X74562213Y-80774292D01*
X74673707Y-80885786D01*
X74673711Y-80885789D01*
X74804814Y-80973390D01*
X74804827Y-80973397D01*
X74950498Y-81033735D01*
X74950503Y-81033737D01*
X75105153Y-81064499D01*
X75105156Y-81064500D01*
X75105158Y-81064500D01*
X75262844Y-81064500D01*
X75262845Y-81064499D01*
X75417497Y-81033737D01*
X75563179Y-80973394D01*
X75694289Y-80885789D01*
X75805789Y-80774289D01*
X75893394Y-80643179D01*
X75953737Y-80497497D01*
X75984500Y-80342842D01*
X75984500Y-80185158D01*
X75984498Y-80185150D01*
X75984265Y-80182783D01*
X75984500Y-80181543D01*
X75984500Y-80179066D01*
X75984970Y-80179066D01*
X75997277Y-80114136D01*
X76045337Y-80063421D01*
X76113186Y-80046740D01*
X76176556Y-80067514D01*
X76201811Y-80084388D01*
X76201815Y-80084390D01*
X76201821Y-80084394D01*
X76201823Y-80084395D01*
X76201827Y-80084397D01*
X76347498Y-80144735D01*
X76347503Y-80144737D01*
X76502153Y-80175499D01*
X76502156Y-80175500D01*
X76502158Y-80175500D01*
X76659844Y-80175500D01*
X76659845Y-80175499D01*
X76814497Y-80144737D01*
X76960179Y-80084394D01*
X77091289Y-79996789D01*
X77202789Y-79885289D01*
X77290394Y-79754179D01*
X77350737Y-79608497D01*
X77381500Y-79453842D01*
X77381500Y-79296158D01*
X77381500Y-79296155D01*
X77381499Y-79296153D01*
X77374146Y-79259187D01*
X77350737Y-79141503D01*
X77341487Y-79119172D01*
X77290397Y-78995827D01*
X77290390Y-78995814D01*
X77202789Y-78864711D01*
X77202786Y-78864707D01*
X77091292Y-78753213D01*
X77091288Y-78753210D01*
X76960185Y-78665609D01*
X76960172Y-78665602D01*
X76926516Y-78651662D01*
X76814501Y-78605264D01*
X76814489Y-78605261D01*
X76659845Y-78574500D01*
X76659842Y-78574500D01*
X76502158Y-78574500D01*
X76502155Y-78574500D01*
X76347510Y-78605261D01*
X76347498Y-78605264D01*
X76201827Y-78665602D01*
X76201814Y-78665609D01*
X76070711Y-78753210D01*
X76070707Y-78753213D01*
X75959213Y-78864707D01*
X75959210Y-78864711D01*
X75871609Y-78995814D01*
X75871602Y-78995827D01*
X75811264Y-79141498D01*
X75811261Y-79141510D01*
X75780500Y-79296153D01*
X75780500Y-79453842D01*
X75780735Y-79456229D01*
X75780500Y-79457468D01*
X75780500Y-79459934D01*
X75780032Y-79459934D01*
X75767716Y-79524875D01*
X75719651Y-79575585D01*
X75651800Y-79592259D01*
X75588443Y-79571486D01*
X75563181Y-79554607D01*
X75563172Y-79554602D01*
X75417501Y-79494264D01*
X75417489Y-79494261D01*
X75262845Y-79463500D01*
X75262842Y-79463500D01*
X75105158Y-79463500D01*
X75105155Y-79463500D01*
X74950510Y-79494261D01*
X74950498Y-79494264D01*
X74804827Y-79554602D01*
X74804814Y-79554609D01*
X74673711Y-79642210D01*
X74584383Y-79731538D01*
X74523059Y-79765022D01*
X74453368Y-79760038D01*
X74397434Y-79718166D01*
X74373018Y-79652701D01*
X74382140Y-79596405D01*
X74429737Y-79481497D01*
X74460500Y-79326842D01*
X74460500Y-79169158D01*
X74460500Y-79169155D01*
X74460499Y-79169153D01*
X74429738Y-79014510D01*
X74429737Y-79014503D01*
X74412749Y-78973489D01*
X74369397Y-78868827D01*
X74369390Y-78868814D01*
X74281789Y-78737711D01*
X74281786Y-78737707D01*
X74170292Y-78626213D01*
X74170288Y-78626210D01*
X74044220Y-78541973D01*
X140525500Y-78541973D01*
X140525500Y-78786027D01*
X140530698Y-78818846D01*
X140561688Y-79014510D01*
X140563679Y-79027076D01*
X140639096Y-79259185D01*
X140743199Y-79463500D01*
X140749896Y-79476642D01*
X140893339Y-79674076D01*
X140893343Y-79674081D01*
X141065918Y-79846656D01*
X141065923Y-79846660D01*
X141119092Y-79885289D01*
X141263361Y-79990106D01*
X141480815Y-80100904D01*
X141712924Y-80176321D01*
X141953973Y-80214500D01*
X141953974Y-80214500D01*
X142198026Y-80214500D01*
X142198027Y-80214500D01*
X142439076Y-80176321D01*
X142671185Y-80100904D01*
X142888639Y-79990106D01*
X143086083Y-79846655D01*
X143258655Y-79674083D01*
X143402106Y-79476639D01*
X143512904Y-79259185D01*
X143588321Y-79027076D01*
X143626500Y-78786027D01*
X143626500Y-78541973D01*
X149225500Y-78541973D01*
X149225500Y-78786027D01*
X149230698Y-78818846D01*
X149261688Y-79014510D01*
X149263679Y-79027076D01*
X149339096Y-79259185D01*
X149443199Y-79463500D01*
X149449896Y-79476642D01*
X149593339Y-79674076D01*
X149593343Y-79674081D01*
X149765918Y-79846656D01*
X149765923Y-79846660D01*
X149819092Y-79885289D01*
X149963361Y-79990106D01*
X150180815Y-80100904D01*
X150412924Y-80176321D01*
X150653973Y-80214500D01*
X150653974Y-80214500D01*
X150898026Y-80214500D01*
X150898027Y-80214500D01*
X151139076Y-80176321D01*
X151371185Y-80100904D01*
X151588639Y-79990106D01*
X151786083Y-79846655D01*
X151958655Y-79674083D01*
X152102106Y-79476639D01*
X152212904Y-79259185D01*
X152288321Y-79027076D01*
X152326500Y-78786027D01*
X152326500Y-78541973D01*
X152288321Y-78300924D01*
X152212904Y-78068815D01*
X152102106Y-77851361D01*
X152066858Y-77802846D01*
X151958660Y-77653923D01*
X151958656Y-77653918D01*
X151786081Y-77481343D01*
X151786076Y-77481339D01*
X151588642Y-77337896D01*
X151588641Y-77337895D01*
X151588639Y-77337894D01*
X151371185Y-77227096D01*
X151139076Y-77151679D01*
X151139074Y-77151678D01*
X151139072Y-77151678D01*
X150970769Y-77125021D01*
X150898027Y-77113500D01*
X150653973Y-77113500D01*
X150598093Y-77122350D01*
X150412927Y-77151678D01*
X150180812Y-77227097D01*
X149963357Y-77337896D01*
X149765923Y-77481339D01*
X149765918Y-77481343D01*
X149593343Y-77653918D01*
X149593339Y-77653923D01*
X149449896Y-77851357D01*
X149339097Y-78068812D01*
X149263678Y-78300927D01*
X149256573Y-78345786D01*
X149225500Y-78541973D01*
X143626500Y-78541973D01*
X143588321Y-78300924D01*
X143512904Y-78068815D01*
X143402106Y-77851361D01*
X143366858Y-77802846D01*
X143258660Y-77653923D01*
X143258656Y-77653918D01*
X143086081Y-77481343D01*
X143086076Y-77481339D01*
X142888642Y-77337896D01*
X142888641Y-77337895D01*
X142888639Y-77337894D01*
X142671185Y-77227096D01*
X142439076Y-77151679D01*
X142439074Y-77151678D01*
X142439072Y-77151678D01*
X142270769Y-77125021D01*
X142198027Y-77113500D01*
X141953973Y-77113500D01*
X141898093Y-77122350D01*
X141712927Y-77151678D01*
X141480812Y-77227097D01*
X141263357Y-77337896D01*
X141065923Y-77481339D01*
X141065918Y-77481343D01*
X140893343Y-77653918D01*
X140893339Y-77653923D01*
X140749896Y-77851357D01*
X140639097Y-78068812D01*
X140563678Y-78300927D01*
X140556573Y-78345786D01*
X140525500Y-78541973D01*
X74044220Y-78541973D01*
X74039185Y-78538609D01*
X74039172Y-78538602D01*
X73893501Y-78478264D01*
X73893489Y-78478261D01*
X73738845Y-78447500D01*
X73738842Y-78447500D01*
X73581158Y-78447500D01*
X73581155Y-78447500D01*
X73426510Y-78478261D01*
X73426498Y-78478264D01*
X73280827Y-78538602D01*
X73280814Y-78538609D01*
X73149711Y-78626210D01*
X73149706Y-78626214D01*
X73130113Y-78645807D01*
X73068790Y-78679291D01*
X72999098Y-78674305D01*
X72943165Y-78632432D01*
X72920817Y-78582319D01*
X72905737Y-78506503D01*
X72894039Y-78478261D01*
X72845397Y-78360827D01*
X72845390Y-78360814D01*
X72757789Y-78229711D01*
X72757786Y-78229707D01*
X72646292Y-78118213D01*
X72646288Y-78118210D01*
X72515185Y-78030609D01*
X72515172Y-78030602D01*
X72369501Y-77970264D01*
X72369491Y-77970261D01*
X72293683Y-77955182D01*
X72231772Y-77922797D01*
X72197198Y-77862081D01*
X72200938Y-77792312D01*
X72230196Y-77745882D01*
X72249787Y-77726291D01*
X72249789Y-77726289D01*
X72337394Y-77595179D01*
X72397737Y-77449497D01*
X72428500Y-77294842D01*
X72428500Y-77137158D01*
X72428500Y-77137155D01*
X72428499Y-77137153D01*
X72421549Y-77102213D01*
X72397737Y-76982503D01*
X72386039Y-76954261D01*
X72337396Y-76836825D01*
X72337394Y-76836822D01*
X72337394Y-76836821D01*
X72309042Y-76794389D01*
X72288164Y-76727715D01*
X72306648Y-76660334D01*
X72309028Y-76656631D01*
X72337394Y-76614179D01*
X72397737Y-76468497D01*
X72428500Y-76313842D01*
X72428500Y-76156158D01*
X72428500Y-76156155D01*
X72428499Y-76156153D01*
X72425139Y-76139257D01*
X72421538Y-76121153D01*
X79463500Y-76121153D01*
X79463500Y-76278846D01*
X79494261Y-76433489D01*
X79494264Y-76433501D01*
X79554602Y-76579172D01*
X79554609Y-76579185D01*
X79642210Y-76710288D01*
X79642213Y-76710292D01*
X79753707Y-76821786D01*
X79753711Y-76821789D01*
X79884814Y-76909390D01*
X79884827Y-76909397D01*
X80030498Y-76969735D01*
X80030503Y-76969737D01*
X80185153Y-77000499D01*
X80185156Y-77000500D01*
X80185158Y-77000500D01*
X80342844Y-77000500D01*
X80342845Y-77000499D01*
X80497497Y-76969737D01*
X80643179Y-76909394D01*
X80774289Y-76821789D01*
X80885789Y-76710289D01*
X80973394Y-76579179D01*
X81033737Y-76433497D01*
X81064500Y-76278842D01*
X81064500Y-76121158D01*
X81064500Y-76121155D01*
X81064499Y-76121153D01*
X81033738Y-75966510D01*
X81033737Y-75966503D01*
X80987894Y-75855827D01*
X80973397Y-75820827D01*
X80973390Y-75820814D01*
X80885789Y-75689711D01*
X80885786Y-75689707D01*
X80774292Y-75578213D01*
X80774288Y-75578210D01*
X80643185Y-75490609D01*
X80643172Y-75490602D01*
X80497501Y-75430264D01*
X80497489Y-75430261D01*
X80342845Y-75399500D01*
X80342842Y-75399500D01*
X80185158Y-75399500D01*
X80185155Y-75399500D01*
X80030510Y-75430261D01*
X80030498Y-75430264D01*
X79884827Y-75490602D01*
X79884814Y-75490609D01*
X79753711Y-75578210D01*
X79753707Y-75578213D01*
X79642213Y-75689707D01*
X79642210Y-75689711D01*
X79554609Y-75820814D01*
X79554602Y-75820827D01*
X79494264Y-75966498D01*
X79494261Y-75966510D01*
X79463500Y-76121153D01*
X72421538Y-76121153D01*
X72397738Y-76001508D01*
X72397737Y-76001507D01*
X72397737Y-76001503D01*
X72383238Y-75966498D01*
X72337397Y-75855827D01*
X72337390Y-75855814D01*
X72249789Y-75724711D01*
X72249786Y-75724707D01*
X72138292Y-75613213D01*
X72138288Y-75613210D01*
X72007185Y-75525609D01*
X72007172Y-75525602D01*
X71861501Y-75465264D01*
X71861491Y-75465261D01*
X71756490Y-75444375D01*
X71694579Y-75411990D01*
X71660005Y-75351274D01*
X71663745Y-75281505D01*
X71693002Y-75235076D01*
X71741786Y-75186292D01*
X71741789Y-75186289D01*
X71829394Y-75055179D01*
X71889737Y-74909497D01*
X71920500Y-74754842D01*
X71920500Y-74597158D01*
X71920500Y-74597155D01*
X71920499Y-74597153D01*
X71900457Y-74496397D01*
X71889737Y-74442503D01*
X71859456Y-74369397D01*
X71829397Y-74296827D01*
X71829390Y-74296814D01*
X71741789Y-74165711D01*
X71741786Y-74165707D01*
X71630292Y-74054213D01*
X71630288Y-74054210D01*
X71499185Y-73966609D01*
X71499172Y-73966602D01*
X71353501Y-73906264D01*
X71353489Y-73906261D01*
X71198845Y-73875500D01*
X71198842Y-73875500D01*
X71041158Y-73875500D01*
X71041155Y-73875500D01*
X70886510Y-73906261D01*
X70886498Y-73906264D01*
X70740827Y-73966602D01*
X70740814Y-73966609D01*
X70609711Y-74054210D01*
X70609707Y-74054213D01*
X70498213Y-74165707D01*
X70498210Y-74165711D01*
X70410609Y-74296814D01*
X70410602Y-74296827D01*
X70350264Y-74442498D01*
X70350261Y-74442510D01*
X70319500Y-74597153D01*
X27940000Y-74597153D01*
X27940000Y-70882606D01*
X37824500Y-70882606D01*
X37824500Y-71208393D01*
X37860974Y-71532104D01*
X37860976Y-71532120D01*
X37933467Y-71849726D01*
X37933471Y-71849738D01*
X38041066Y-72157225D01*
X38182413Y-72450734D01*
X38182415Y-72450737D01*
X38355739Y-72726581D01*
X38558857Y-72981283D01*
X38789217Y-73211643D01*
X39043919Y-73414761D01*
X39319763Y-73588085D01*
X39613278Y-73729435D01*
X39844217Y-73810244D01*
X39920761Y-73837028D01*
X39920773Y-73837032D01*
X40238383Y-73909524D01*
X40562106Y-73945999D01*
X40562107Y-73946000D01*
X40562111Y-73946000D01*
X40887893Y-73946000D01*
X40887893Y-73945999D01*
X41211617Y-73909524D01*
X41529227Y-73837032D01*
X41836722Y-73729435D01*
X41880914Y-73708153D01*
X73621500Y-73708153D01*
X73621500Y-73865846D01*
X73652261Y-74020489D01*
X73652264Y-74020501D01*
X73712602Y-74166172D01*
X73712609Y-74166185D01*
X73800210Y-74297288D01*
X73800213Y-74297292D01*
X73911707Y-74408786D01*
X73911711Y-74408789D01*
X74042814Y-74496390D01*
X74042827Y-74496397D01*
X74188498Y-74556735D01*
X74188503Y-74556737D01*
X74343153Y-74587499D01*
X74343156Y-74587500D01*
X74343158Y-74587500D01*
X74500844Y-74587500D01*
X74500845Y-74587499D01*
X74655497Y-74556737D01*
X74801179Y-74496394D01*
X74932289Y-74408789D01*
X75043789Y-74297289D01*
X75131394Y-74166179D01*
X75191737Y-74020497D01*
X75206439Y-73946583D01*
X75238823Y-73884674D01*
X75299539Y-73850100D01*
X75369308Y-73853839D01*
X75425980Y-73894705D01*
X75442617Y-73923324D01*
X75490602Y-74039172D01*
X75490609Y-74039185D01*
X75578210Y-74170288D01*
X75578213Y-74170292D01*
X75689707Y-74281786D01*
X75689711Y-74281789D01*
X75820814Y-74369390D01*
X75820827Y-74369397D01*
X75966498Y-74429735D01*
X75966503Y-74429737D01*
X76121153Y-74460499D01*
X76121156Y-74460500D01*
X76121158Y-74460500D01*
X76278844Y-74460500D01*
X76278845Y-74460499D01*
X76433497Y-74429737D01*
X76579179Y-74369394D01*
X76710289Y-74281789D01*
X76821789Y-74170289D01*
X76909394Y-74039179D01*
X76969737Y-73893497D01*
X77000500Y-73738842D01*
X77000500Y-73581158D01*
X77000500Y-73581155D01*
X77000499Y-73581153D01*
X76969738Y-73426510D01*
X76969738Y-73426508D01*
X76969737Y-73426503D01*
X76961996Y-73407814D01*
X76909397Y-73280827D01*
X76909390Y-73280814D01*
X76821789Y-73149711D01*
X76821786Y-73149707D01*
X76710292Y-73038213D01*
X76710288Y-73038210D01*
X76579185Y-72950609D01*
X76579172Y-72950602D01*
X76433501Y-72890264D01*
X76433489Y-72890261D01*
X76278845Y-72859500D01*
X76278842Y-72859500D01*
X76121158Y-72859500D01*
X76121155Y-72859500D01*
X75966510Y-72890261D01*
X75966498Y-72890264D01*
X75820827Y-72950602D01*
X75820814Y-72950609D01*
X75689711Y-73038210D01*
X75689707Y-73038213D01*
X75578213Y-73149707D01*
X75578210Y-73149711D01*
X75490609Y-73280814D01*
X75490602Y-73280827D01*
X75430264Y-73426498D01*
X75430261Y-73426508D01*
X75415560Y-73500415D01*
X75383175Y-73562326D01*
X75322459Y-73596900D01*
X75252689Y-73593159D01*
X75196017Y-73552293D01*
X75179382Y-73523675D01*
X75131397Y-73407827D01*
X75131390Y-73407814D01*
X75043789Y-73276711D01*
X75043786Y-73276707D01*
X74932292Y-73165213D01*
X74932288Y-73165210D01*
X74801185Y-73077609D01*
X74801172Y-73077602D01*
X74655501Y-73017264D01*
X74655489Y-73017261D01*
X74500845Y-72986500D01*
X74500842Y-72986500D01*
X74343158Y-72986500D01*
X74343155Y-72986500D01*
X74188510Y-73017261D01*
X74188498Y-73017264D01*
X74042827Y-73077602D01*
X74042814Y-73077609D01*
X73911711Y-73165210D01*
X73911707Y-73165213D01*
X73800213Y-73276707D01*
X73800210Y-73276711D01*
X73712609Y-73407814D01*
X73712602Y-73407827D01*
X73652264Y-73553498D01*
X73652261Y-73553510D01*
X73621500Y-73708153D01*
X41880914Y-73708153D01*
X42111933Y-73596900D01*
X42125543Y-73590346D01*
X42125543Y-73590345D01*
X42130237Y-73588085D01*
X42406081Y-73414761D01*
X42660783Y-73211643D01*
X42891143Y-72981283D01*
X43058838Y-72771000D01*
X81915000Y-72771000D01*
X89662000Y-72771000D01*
X89662000Y-70739000D01*
X81915000Y-70739000D01*
X81915000Y-72771000D01*
X43058838Y-72771000D01*
X43094261Y-72726581D01*
X43267585Y-72450737D01*
X43408935Y-72157222D01*
X43516532Y-71849727D01*
X43589024Y-71532117D01*
X43625500Y-71208389D01*
X43625500Y-70882611D01*
X43589024Y-70558883D01*
X43548646Y-70381973D01*
X124917500Y-70381973D01*
X124917500Y-70626027D01*
X124955679Y-70867076D01*
X124960725Y-70882607D01*
X125031097Y-71099187D01*
X125141896Y-71316642D01*
X125285339Y-71514076D01*
X125285343Y-71514081D01*
X125457918Y-71686656D01*
X125457923Y-71686660D01*
X125630136Y-71811779D01*
X125655361Y-71830106D01*
X125872815Y-71940904D01*
X126104924Y-72016321D01*
X126345973Y-72054500D01*
X126345974Y-72054500D01*
X126590026Y-72054500D01*
X126590027Y-72054500D01*
X126831076Y-72016321D01*
X127063185Y-71940904D01*
X127280639Y-71830106D01*
X127478083Y-71686655D01*
X127650655Y-71514083D01*
X127794106Y-71316639D01*
X127904904Y-71099185D01*
X127980321Y-70867076D01*
X128018500Y-70626027D01*
X128018500Y-70381973D01*
X127980321Y-70140924D01*
X127904904Y-69908815D01*
X127794106Y-69691361D01*
X127756981Y-69640263D01*
X127650660Y-69493923D01*
X127650656Y-69493918D01*
X127478081Y-69321343D01*
X127478076Y-69321339D01*
X127280642Y-69177896D01*
X127280641Y-69177895D01*
X127280639Y-69177894D01*
X127063185Y-69067096D01*
X126831076Y-68991679D01*
X126831074Y-68991678D01*
X126831072Y-68991678D01*
X126662769Y-68965021D01*
X126590027Y-68953500D01*
X126345973Y-68953500D01*
X126290093Y-68962350D01*
X126104927Y-68991678D01*
X125872812Y-69067097D01*
X125655357Y-69177896D01*
X125457923Y-69321339D01*
X125457918Y-69321343D01*
X125285343Y-69493918D01*
X125285339Y-69493923D01*
X125141896Y-69691357D01*
X125031097Y-69908812D01*
X124955678Y-70140927D01*
X124939787Y-70241261D01*
X124917500Y-70381973D01*
X43548646Y-70381973D01*
X43516532Y-70241273D01*
X43408935Y-69933778D01*
X43267585Y-69640263D01*
X43094261Y-69364419D01*
X42891143Y-69109717D01*
X42660783Y-68879357D01*
X42406081Y-68676239D01*
X42130237Y-68502915D01*
X42130234Y-68502913D01*
X41836725Y-68361566D01*
X41529238Y-68253971D01*
X41529226Y-68253967D01*
X41211620Y-68181476D01*
X41211604Y-68181474D01*
X40887893Y-68145000D01*
X40887889Y-68145000D01*
X40562111Y-68145000D01*
X40562107Y-68145000D01*
X40238395Y-68181474D01*
X40238379Y-68181476D01*
X39920773Y-68253967D01*
X39920761Y-68253971D01*
X39613274Y-68361566D01*
X39319765Y-68502913D01*
X39043920Y-68676238D01*
X38789217Y-68879356D01*
X38558856Y-69109717D01*
X38355738Y-69364420D01*
X38182413Y-69640265D01*
X38041066Y-69933774D01*
X37933471Y-70241261D01*
X37933467Y-70241273D01*
X37860976Y-70558879D01*
X37860974Y-70558895D01*
X37824500Y-70882606D01*
X27940000Y-70882606D01*
X27940000Y-61897153D01*
X65493500Y-61897153D01*
X65493500Y-62054846D01*
X65524261Y-62209489D01*
X65524264Y-62209501D01*
X65584602Y-62355172D01*
X65584609Y-62355185D01*
X65672210Y-62486288D01*
X65672213Y-62486292D01*
X65783707Y-62597786D01*
X65783711Y-62597789D01*
X65914814Y-62685390D01*
X65914827Y-62685397D01*
X66060498Y-62745735D01*
X66060503Y-62745737D01*
X66215153Y-62776499D01*
X66215156Y-62776500D01*
X66215158Y-62776500D01*
X66372844Y-62776500D01*
X66372845Y-62776499D01*
X66527497Y-62745737D01*
X66673179Y-62685394D01*
X66804289Y-62597789D01*
X66915789Y-62486289D01*
X67003394Y-62355179D01*
X67063737Y-62209497D01*
X67072176Y-62167072D01*
X67075343Y-62151153D01*
X73494500Y-62151153D01*
X73494500Y-62308846D01*
X73525261Y-62463489D01*
X73525264Y-62463501D01*
X73585602Y-62609172D01*
X73585609Y-62609185D01*
X73673210Y-62740288D01*
X73673213Y-62740292D01*
X73784707Y-62851786D01*
X73784711Y-62851789D01*
X73915814Y-62939390D01*
X73915827Y-62939397D01*
X74029920Y-62986655D01*
X74061503Y-62999737D01*
X74216153Y-63030499D01*
X74216156Y-63030500D01*
X74216158Y-63030500D01*
X74373844Y-63030500D01*
X74373845Y-63030499D01*
X74528497Y-62999737D01*
X74674179Y-62939394D01*
X74805289Y-62851789D01*
X74916789Y-62740289D01*
X75004394Y-62609179D01*
X75064737Y-62463497D01*
X75095500Y-62308842D01*
X75095500Y-62151158D01*
X75095500Y-62151155D01*
X75095499Y-62151153D01*
X75064738Y-61996510D01*
X75064737Y-61996503D01*
X75035545Y-61926026D01*
X75004397Y-61850827D01*
X75004390Y-61850814D01*
X74934350Y-61745992D01*
X74916789Y-61719711D01*
X74916786Y-61719707D01*
X74879052Y-61681973D01*
X124917500Y-61681973D01*
X124917500Y-61926026D01*
X124953157Y-62151158D01*
X124955679Y-62167076D01*
X125031096Y-62399185D01*
X125138089Y-62609172D01*
X125141896Y-62616642D01*
X125285339Y-62814076D01*
X125285343Y-62814081D01*
X125457918Y-62986656D01*
X125457923Y-62986660D01*
X125630136Y-63111779D01*
X125655361Y-63130106D01*
X125872815Y-63240904D01*
X126104924Y-63316321D01*
X126345973Y-63354500D01*
X126345974Y-63354500D01*
X126590026Y-63354500D01*
X126590027Y-63354500D01*
X126831076Y-63316321D01*
X127063185Y-63240904D01*
X127280639Y-63130106D01*
X127478083Y-62986655D01*
X127650655Y-62814083D01*
X127794106Y-62616639D01*
X127904904Y-62399185D01*
X127980321Y-62167076D01*
X128018500Y-61926027D01*
X128018500Y-61681973D01*
X127980321Y-61440924D01*
X127904904Y-61208815D01*
X127794106Y-60991361D01*
X127775779Y-60966136D01*
X127650660Y-60793923D01*
X127650656Y-60793918D01*
X127478081Y-60621343D01*
X127478076Y-60621339D01*
X127280642Y-60477896D01*
X127280641Y-60477895D01*
X127280639Y-60477894D01*
X127063185Y-60367096D01*
X126831076Y-60291679D01*
X126831074Y-60291678D01*
X126831072Y-60291678D01*
X126662769Y-60265021D01*
X126590027Y-60253500D01*
X126345973Y-60253500D01*
X126290093Y-60262350D01*
X126104927Y-60291678D01*
X125872812Y-60367097D01*
X125655357Y-60477896D01*
X125457923Y-60621339D01*
X125457918Y-60621343D01*
X125285343Y-60793918D01*
X125285339Y-60793923D01*
X125141896Y-60991357D01*
X125031097Y-61208812D01*
X124955678Y-61440927D01*
X124917500Y-61681973D01*
X74879052Y-61681973D01*
X74805292Y-61608213D01*
X74805288Y-61608210D01*
X74674185Y-61520609D01*
X74674172Y-61520602D01*
X74528501Y-61460264D01*
X74528489Y-61460261D01*
X74373845Y-61429500D01*
X74373842Y-61429500D01*
X74216158Y-61429500D01*
X74216155Y-61429500D01*
X74061510Y-61460261D01*
X74061498Y-61460264D01*
X73915827Y-61520602D01*
X73915814Y-61520609D01*
X73784711Y-61608210D01*
X73784707Y-61608213D01*
X73673213Y-61719707D01*
X73673210Y-61719711D01*
X73585609Y-61850814D01*
X73585602Y-61850827D01*
X73525264Y-61996498D01*
X73525261Y-61996510D01*
X73494500Y-62151153D01*
X67075343Y-62151153D01*
X67081366Y-62120874D01*
X67081366Y-62120873D01*
X67094499Y-62054846D01*
X67094500Y-62054844D01*
X67094500Y-61897155D01*
X67094499Y-61897153D01*
X67085283Y-61850821D01*
X67063737Y-61742503D01*
X67008112Y-61608211D01*
X67003397Y-61596827D01*
X67003390Y-61596814D01*
X66915789Y-61465711D01*
X66915786Y-61465707D01*
X66804292Y-61354213D01*
X66804288Y-61354210D01*
X66673185Y-61266609D01*
X66673172Y-61266602D01*
X66527501Y-61206264D01*
X66527489Y-61206261D01*
X66372845Y-61175500D01*
X66372842Y-61175500D01*
X66215158Y-61175500D01*
X66215155Y-61175500D01*
X66060510Y-61206261D01*
X66060498Y-61206264D01*
X65914827Y-61266602D01*
X65914814Y-61266609D01*
X65783711Y-61354210D01*
X65783707Y-61354213D01*
X65672213Y-61465707D01*
X65672210Y-61465711D01*
X65584609Y-61596814D01*
X65584602Y-61596827D01*
X65524264Y-61742498D01*
X65524261Y-61742510D01*
X65493500Y-61897153D01*
X27940000Y-61897153D01*
X27940000Y-53972000D01*
X27959685Y-53904961D01*
X28012489Y-53859206D01*
X28064000Y-53848000D01*
X158760500Y-53848000D01*
X158827539Y-53867685D01*
G37*
%TD.AperFunction*%
%TD*%
M02*
