M48
; DRILL file {KiCad 9.0.5} date 2025-10-24T18:48:23-0500
; FORMAT={-:-/ absolute / metric / decimal}
; #@! TF.CreationDate,2025-10-24T18:48:23-05:00
; #@! TF.GenerationSoftware,Kicad,Pcbnew,9.0.5
; #@! TF.FileFunction,Plated,1,2,PTH
FMAT,2
METRIC
; #@! TA.AperFunction,Plated,PTH,ViaDrill
T1C0.300
; #@! TA.AperFunction,Plated,PTH,ComponentDrill
T2C1.100
; #@! TA.AperFunction,Plated,PTH,ComponentDrill
T3C2.500
%
G90
G05
T1
X133.0Y-91.0
X136.0Y-100.5
X137.062Y-79.675
X146.5Y-86.5
X147.0Y-100.5
X147.5Y-85.5
X148.5Y-82.0
X150.062Y-88.675
X158.25Y-87.25
T2
X133.022Y-93.095
X133.022Y-95.635
X133.022Y-98.175
X135.562Y-93.095
X135.562Y-95.635
X135.562Y-98.175
X147.062Y-96.175
X147.062Y-98.715
X149.602Y-96.175
X149.602Y-98.715
X152.142Y-96.175
X152.142Y-98.715
X154.682Y-96.175
X154.682Y-98.715
T3
X126.5Y-76.0
X126.5Y-106.5
X163.0Y-76.0
X163.0Y-106.5
M30
