%TF.GenerationSoftware,KiCad,Pcbnew,9.0.5*%
%TF.CreationDate,2025-10-24T18:43:04-05:00*%
%TF.ProjectId,STAR_GATE_DRIVER,53544152-5f47-4415-9445-5f4452495645,rev?*%
%TF.SameCoordinates,Original*%
%TF.FileFunction,Copper,L1,Top*%
%TF.FilePolarity,Positive*%
%FSLAX46Y46*%
G04 Gerber Fmt 4.6, Leading zero omitted, Abs format (unit mm)*
G04 Created by KiCad (PCBNEW 9.0.5) date 2025-10-24 18:43:04*
%MOMM*%
%LPD*%
G01*
G04 APERTURE LIST*
G04 Aperture macros list*
%AMRoundRect*
0 Rectangle with rounded corners*
0 $1 Rounding radius*
0 $2 $3 $4 $5 $6 $7 $8 $9 X,Y pos of 4 corners*
0 Add a 4 corners polygon primitive as box body*
4,1,4,$2,$3,$4,$5,$6,$7,$8,$9,$2,$3,0*
0 Add four circle primitives for the rounded corners*
1,1,$1+$1,$2,$3*
1,1,$1+$1,$4,$5*
1,1,$1+$1,$6,$7*
1,1,$1+$1,$8,$9*
0 Add four rect primitives between the rounded corners*
20,1,$1+$1,$2,$3,$4,$5,0*
20,1,$1+$1,$4,$5,$6,$7,0*
20,1,$1+$1,$6,$7,$8,$9,0*
20,1,$1+$1,$8,$9,$2,$3,0*%
G04 Aperture macros list end*
%ADD10C,0.100000*%
%ADD11C,0.150000*%
%ADD12C,0.300000*%
%ADD13C,0.400000*%
%TA.AperFunction,ComponentPad*%
%ADD14C,5.000000*%
%TD*%
%TA.AperFunction,ComponentPad*%
%ADD15C,1.650000*%
%TD*%
%TA.AperFunction,SMDPad,CuDef*%
%ADD16RoundRect,0.237500X-0.250000X-0.237500X0.250000X-0.237500X0.250000X0.237500X-0.250000X0.237500X0*%
%TD*%
%TA.AperFunction,SMDPad,CuDef*%
%ADD17RoundRect,0.237500X0.250000X0.237500X-0.250000X0.237500X-0.250000X-0.237500X0.250000X-0.237500X0*%
%TD*%
%TA.AperFunction,SMDPad,CuDef*%
%ADD18R,1.475000X0.450000*%
%TD*%
%TA.AperFunction,SMDPad,CuDef*%
%ADD19RoundRect,0.237500X0.237500X-0.250000X0.237500X0.250000X-0.237500X0.250000X-0.237500X-0.250000X0*%
%TD*%
%TA.AperFunction,SMDPad,CuDef*%
%ADD20RoundRect,0.237500X-0.237500X0.300000X-0.237500X-0.300000X0.237500X-0.300000X0.237500X0.300000X0*%
%TD*%
%TA.AperFunction,SMDPad,CuDef*%
%ADD21RoundRect,0.237500X-0.300000X-0.237500X0.300000X-0.237500X0.300000X0.237500X-0.300000X0.237500X0*%
%TD*%
%TA.AperFunction,SMDPad,CuDef*%
%ADD22RoundRect,0.237500X0.300000X0.237500X-0.300000X0.237500X-0.300000X-0.237500X0.300000X-0.237500X0*%
%TD*%
%TA.AperFunction,ViaPad*%
%ADD23C,0.600000*%
%TD*%
%TA.AperFunction,Conductor*%
%ADD24C,0.200000*%
%TD*%
G04 APERTURE END LIST*
D10*
D11*
X177002200Y-166007200D02*
X285002200Y-166007200D01*
X285002200Y-198007200D01*
X177002200Y-198007200D01*
X177002200Y-166007200D01*
D10*
D11*
X10000000Y-10000000D02*
X287002200Y-10000000D01*
X287002200Y-200007200D01*
X10000000Y-200007200D01*
X10000000Y-10000000D01*
D10*
D11*
X12000000Y-12000000D02*
X285002200Y-12000000D01*
X285002200Y-198007200D01*
X12000000Y-198007200D01*
X12000000Y-12000000D01*
D10*
D11*
X60000000Y-12000000D02*
X60000000Y-10000000D01*
D10*
D11*
X110000000Y-12000000D02*
X110000000Y-10000000D01*
D10*
D11*
X160000000Y-12000000D02*
X160000000Y-10000000D01*
D10*
D11*
X210000000Y-12000000D02*
X210000000Y-10000000D01*
D10*
D11*
X260000000Y-12000000D02*
X260000000Y-10000000D01*
D10*
D11*
X36089160Y-11593604D02*
X35346303Y-11593604D01*
X35717731Y-11593604D02*
X35717731Y-10293604D01*
X35717731Y-10293604D02*
X35593922Y-10479319D01*
X35593922Y-10479319D02*
X35470112Y-10603128D01*
X35470112Y-10603128D02*
X35346303Y-10665033D01*
D10*
D11*
X85346303Y-10417414D02*
X85408207Y-10355509D01*
X85408207Y-10355509D02*
X85532017Y-10293604D01*
X85532017Y-10293604D02*
X85841541Y-10293604D01*
X85841541Y-10293604D02*
X85965350Y-10355509D01*
X85965350Y-10355509D02*
X86027255Y-10417414D01*
X86027255Y-10417414D02*
X86089160Y-10541223D01*
X86089160Y-10541223D02*
X86089160Y-10665033D01*
X86089160Y-10665033D02*
X86027255Y-10850747D01*
X86027255Y-10850747D02*
X85284398Y-11593604D01*
X85284398Y-11593604D02*
X86089160Y-11593604D01*
D10*
D11*
X135284398Y-10293604D02*
X136089160Y-10293604D01*
X136089160Y-10293604D02*
X135655826Y-10788842D01*
X135655826Y-10788842D02*
X135841541Y-10788842D01*
X135841541Y-10788842D02*
X135965350Y-10850747D01*
X135965350Y-10850747D02*
X136027255Y-10912652D01*
X136027255Y-10912652D02*
X136089160Y-11036461D01*
X136089160Y-11036461D02*
X136089160Y-11345985D01*
X136089160Y-11345985D02*
X136027255Y-11469795D01*
X136027255Y-11469795D02*
X135965350Y-11531700D01*
X135965350Y-11531700D02*
X135841541Y-11593604D01*
X135841541Y-11593604D02*
X135470112Y-11593604D01*
X135470112Y-11593604D02*
X135346303Y-11531700D01*
X135346303Y-11531700D02*
X135284398Y-11469795D01*
D10*
D11*
X185965350Y-10726938D02*
X185965350Y-11593604D01*
X185655826Y-10231700D02*
X185346303Y-11160271D01*
X185346303Y-11160271D02*
X186151064Y-11160271D01*
D10*
D11*
X236027255Y-10293604D02*
X235408207Y-10293604D01*
X235408207Y-10293604D02*
X235346303Y-10912652D01*
X235346303Y-10912652D02*
X235408207Y-10850747D01*
X235408207Y-10850747D02*
X235532017Y-10788842D01*
X235532017Y-10788842D02*
X235841541Y-10788842D01*
X235841541Y-10788842D02*
X235965350Y-10850747D01*
X235965350Y-10850747D02*
X236027255Y-10912652D01*
X236027255Y-10912652D02*
X236089160Y-11036461D01*
X236089160Y-11036461D02*
X236089160Y-11345985D01*
X236089160Y-11345985D02*
X236027255Y-11469795D01*
X236027255Y-11469795D02*
X235965350Y-11531700D01*
X235965350Y-11531700D02*
X235841541Y-11593604D01*
X235841541Y-11593604D02*
X235532017Y-11593604D01*
X235532017Y-11593604D02*
X235408207Y-11531700D01*
X235408207Y-11531700D02*
X235346303Y-11469795D01*
D10*
D11*
X285965350Y-10293604D02*
X285717731Y-10293604D01*
X285717731Y-10293604D02*
X285593922Y-10355509D01*
X285593922Y-10355509D02*
X285532017Y-10417414D01*
X285532017Y-10417414D02*
X285408207Y-10603128D01*
X285408207Y-10603128D02*
X285346303Y-10850747D01*
X285346303Y-10850747D02*
X285346303Y-11345985D01*
X285346303Y-11345985D02*
X285408207Y-11469795D01*
X285408207Y-11469795D02*
X285470112Y-11531700D01*
X285470112Y-11531700D02*
X285593922Y-11593604D01*
X285593922Y-11593604D02*
X285841541Y-11593604D01*
X285841541Y-11593604D02*
X285965350Y-11531700D01*
X285965350Y-11531700D02*
X286027255Y-11469795D01*
X286027255Y-11469795D02*
X286089160Y-11345985D01*
X286089160Y-11345985D02*
X286089160Y-11036461D01*
X286089160Y-11036461D02*
X286027255Y-10912652D01*
X286027255Y-10912652D02*
X285965350Y-10850747D01*
X285965350Y-10850747D02*
X285841541Y-10788842D01*
X285841541Y-10788842D02*
X285593922Y-10788842D01*
X285593922Y-10788842D02*
X285470112Y-10850747D01*
X285470112Y-10850747D02*
X285408207Y-10912652D01*
X285408207Y-10912652D02*
X285346303Y-11036461D01*
D10*
D11*
X60000000Y-198007200D02*
X60000000Y-200007200D01*
D10*
D11*
X110000000Y-198007200D02*
X110000000Y-200007200D01*
D10*
D11*
X160000000Y-198007200D02*
X160000000Y-200007200D01*
D10*
D11*
X210000000Y-198007200D02*
X210000000Y-200007200D01*
D10*
D11*
X260000000Y-198007200D02*
X260000000Y-200007200D01*
D10*
D11*
X36089160Y-199600804D02*
X35346303Y-199600804D01*
X35717731Y-199600804D02*
X35717731Y-198300804D01*
X35717731Y-198300804D02*
X35593922Y-198486519D01*
X35593922Y-198486519D02*
X35470112Y-198610328D01*
X35470112Y-198610328D02*
X35346303Y-198672233D01*
D10*
D11*
X85346303Y-198424614D02*
X85408207Y-198362709D01*
X85408207Y-198362709D02*
X85532017Y-198300804D01*
X85532017Y-198300804D02*
X85841541Y-198300804D01*
X85841541Y-198300804D02*
X85965350Y-198362709D01*
X85965350Y-198362709D02*
X86027255Y-198424614D01*
X86027255Y-198424614D02*
X86089160Y-198548423D01*
X86089160Y-198548423D02*
X86089160Y-198672233D01*
X86089160Y-198672233D02*
X86027255Y-198857947D01*
X86027255Y-198857947D02*
X85284398Y-199600804D01*
X85284398Y-199600804D02*
X86089160Y-199600804D01*
D10*
D11*
X135284398Y-198300804D02*
X136089160Y-198300804D01*
X136089160Y-198300804D02*
X135655826Y-198796042D01*
X135655826Y-198796042D02*
X135841541Y-198796042D01*
X135841541Y-198796042D02*
X135965350Y-198857947D01*
X135965350Y-198857947D02*
X136027255Y-198919852D01*
X136027255Y-198919852D02*
X136089160Y-199043661D01*
X136089160Y-199043661D02*
X136089160Y-199353185D01*
X136089160Y-199353185D02*
X136027255Y-199476995D01*
X136027255Y-199476995D02*
X135965350Y-199538900D01*
X135965350Y-199538900D02*
X135841541Y-199600804D01*
X135841541Y-199600804D02*
X135470112Y-199600804D01*
X135470112Y-199600804D02*
X135346303Y-199538900D01*
X135346303Y-199538900D02*
X135284398Y-199476995D01*
D10*
D11*
X185965350Y-198734138D02*
X185965350Y-199600804D01*
X185655826Y-198238900D02*
X185346303Y-199167471D01*
X185346303Y-199167471D02*
X186151064Y-199167471D01*
D10*
D11*
X236027255Y-198300804D02*
X235408207Y-198300804D01*
X235408207Y-198300804D02*
X235346303Y-198919852D01*
X235346303Y-198919852D02*
X235408207Y-198857947D01*
X235408207Y-198857947D02*
X235532017Y-198796042D01*
X235532017Y-198796042D02*
X235841541Y-198796042D01*
X235841541Y-198796042D02*
X235965350Y-198857947D01*
X235965350Y-198857947D02*
X236027255Y-198919852D01*
X236027255Y-198919852D02*
X236089160Y-199043661D01*
X236089160Y-199043661D02*
X236089160Y-199353185D01*
X236089160Y-199353185D02*
X236027255Y-199476995D01*
X236027255Y-199476995D02*
X235965350Y-199538900D01*
X235965350Y-199538900D02*
X235841541Y-199600804D01*
X235841541Y-199600804D02*
X235532017Y-199600804D01*
X235532017Y-199600804D02*
X235408207Y-199538900D01*
X235408207Y-199538900D02*
X235346303Y-199476995D01*
D10*
D11*
X285965350Y-198300804D02*
X285717731Y-198300804D01*
X285717731Y-198300804D02*
X285593922Y-198362709D01*
X285593922Y-198362709D02*
X285532017Y-198424614D01*
X285532017Y-198424614D02*
X285408207Y-198610328D01*
X285408207Y-198610328D02*
X285346303Y-198857947D01*
X285346303Y-198857947D02*
X285346303Y-199353185D01*
X285346303Y-199353185D02*
X285408207Y-199476995D01*
X285408207Y-199476995D02*
X285470112Y-199538900D01*
X285470112Y-199538900D02*
X285593922Y-199600804D01*
X285593922Y-199600804D02*
X285841541Y-199600804D01*
X285841541Y-199600804D02*
X285965350Y-199538900D01*
X285965350Y-199538900D02*
X286027255Y-199476995D01*
X286027255Y-199476995D02*
X286089160Y-199353185D01*
X286089160Y-199353185D02*
X286089160Y-199043661D01*
X286089160Y-199043661D02*
X286027255Y-198919852D01*
X286027255Y-198919852D02*
X285965350Y-198857947D01*
X285965350Y-198857947D02*
X285841541Y-198796042D01*
X285841541Y-198796042D02*
X285593922Y-198796042D01*
X285593922Y-198796042D02*
X285470112Y-198857947D01*
X285470112Y-198857947D02*
X285408207Y-198919852D01*
X285408207Y-198919852D02*
X285346303Y-199043661D01*
D10*
D11*
X10000000Y-60000000D02*
X12000000Y-60000000D01*
D10*
D11*
X10000000Y-110000000D02*
X12000000Y-110000000D01*
D10*
D11*
X10000000Y-160000000D02*
X12000000Y-160000000D01*
D10*
D11*
X10690476Y-35222176D02*
X11309523Y-35222176D01*
X10566666Y-35593604D02*
X10999999Y-34293604D01*
X10999999Y-34293604D02*
X11433333Y-35593604D01*
D10*
D11*
X11092857Y-84912652D02*
X11278571Y-84974557D01*
X11278571Y-84974557D02*
X11340476Y-85036461D01*
X11340476Y-85036461D02*
X11402380Y-85160271D01*
X11402380Y-85160271D02*
X11402380Y-85345985D01*
X11402380Y-85345985D02*
X11340476Y-85469795D01*
X11340476Y-85469795D02*
X11278571Y-85531700D01*
X11278571Y-85531700D02*
X11154761Y-85593604D01*
X11154761Y-85593604D02*
X10659523Y-85593604D01*
X10659523Y-85593604D02*
X10659523Y-84293604D01*
X10659523Y-84293604D02*
X11092857Y-84293604D01*
X11092857Y-84293604D02*
X11216666Y-84355509D01*
X11216666Y-84355509D02*
X11278571Y-84417414D01*
X11278571Y-84417414D02*
X11340476Y-84541223D01*
X11340476Y-84541223D02*
X11340476Y-84665033D01*
X11340476Y-84665033D02*
X11278571Y-84788842D01*
X11278571Y-84788842D02*
X11216666Y-84850747D01*
X11216666Y-84850747D02*
X11092857Y-84912652D01*
X11092857Y-84912652D02*
X10659523Y-84912652D01*
D10*
D11*
X11402380Y-135469795D02*
X11340476Y-135531700D01*
X11340476Y-135531700D02*
X11154761Y-135593604D01*
X11154761Y-135593604D02*
X11030952Y-135593604D01*
X11030952Y-135593604D02*
X10845238Y-135531700D01*
X10845238Y-135531700D02*
X10721428Y-135407890D01*
X10721428Y-135407890D02*
X10659523Y-135284080D01*
X10659523Y-135284080D02*
X10597619Y-135036461D01*
X10597619Y-135036461D02*
X10597619Y-134850747D01*
X10597619Y-134850747D02*
X10659523Y-134603128D01*
X10659523Y-134603128D02*
X10721428Y-134479319D01*
X10721428Y-134479319D02*
X10845238Y-134355509D01*
X10845238Y-134355509D02*
X11030952Y-134293604D01*
X11030952Y-134293604D02*
X11154761Y-134293604D01*
X11154761Y-134293604D02*
X11340476Y-134355509D01*
X11340476Y-134355509D02*
X11402380Y-134417414D01*
D10*
D11*
X10659523Y-185593604D02*
X10659523Y-184293604D01*
X10659523Y-184293604D02*
X10969047Y-184293604D01*
X10969047Y-184293604D02*
X11154761Y-184355509D01*
X11154761Y-184355509D02*
X11278571Y-184479319D01*
X11278571Y-184479319D02*
X11340476Y-184603128D01*
X11340476Y-184603128D02*
X11402380Y-184850747D01*
X11402380Y-184850747D02*
X11402380Y-185036461D01*
X11402380Y-185036461D02*
X11340476Y-185284080D01*
X11340476Y-185284080D02*
X11278571Y-185407890D01*
X11278571Y-185407890D02*
X11154761Y-185531700D01*
X11154761Y-185531700D02*
X10969047Y-185593604D01*
X10969047Y-185593604D02*
X10659523Y-185593604D01*
D10*
D11*
X287002200Y-60000000D02*
X285002200Y-60000000D01*
D10*
D11*
X287002200Y-110000000D02*
X285002200Y-110000000D01*
D10*
D11*
X287002200Y-160000000D02*
X285002200Y-160000000D01*
D10*
D11*
X285692676Y-35222176D02*
X286311723Y-35222176D01*
X285568866Y-35593604D02*
X286002199Y-34293604D01*
X286002199Y-34293604D02*
X286435533Y-35593604D01*
D10*
D11*
X286095057Y-84912652D02*
X286280771Y-84974557D01*
X286280771Y-84974557D02*
X286342676Y-85036461D01*
X286342676Y-85036461D02*
X286404580Y-85160271D01*
X286404580Y-85160271D02*
X286404580Y-85345985D01*
X286404580Y-85345985D02*
X286342676Y-85469795D01*
X286342676Y-85469795D02*
X286280771Y-85531700D01*
X286280771Y-85531700D02*
X286156961Y-85593604D01*
X286156961Y-85593604D02*
X285661723Y-85593604D01*
X285661723Y-85593604D02*
X285661723Y-84293604D01*
X285661723Y-84293604D02*
X286095057Y-84293604D01*
X286095057Y-84293604D02*
X286218866Y-84355509D01*
X286218866Y-84355509D02*
X286280771Y-84417414D01*
X286280771Y-84417414D02*
X286342676Y-84541223D01*
X286342676Y-84541223D02*
X286342676Y-84665033D01*
X286342676Y-84665033D02*
X286280771Y-84788842D01*
X286280771Y-84788842D02*
X286218866Y-84850747D01*
X286218866Y-84850747D02*
X286095057Y-84912652D01*
X286095057Y-84912652D02*
X285661723Y-84912652D01*
D10*
D11*
X286404580Y-135469795D02*
X286342676Y-135531700D01*
X286342676Y-135531700D02*
X286156961Y-135593604D01*
X286156961Y-135593604D02*
X286033152Y-135593604D01*
X286033152Y-135593604D02*
X285847438Y-135531700D01*
X285847438Y-135531700D02*
X285723628Y-135407890D01*
X285723628Y-135407890D02*
X285661723Y-135284080D01*
X285661723Y-135284080D02*
X285599819Y-135036461D01*
X285599819Y-135036461D02*
X285599819Y-134850747D01*
X285599819Y-134850747D02*
X285661723Y-134603128D01*
X285661723Y-134603128D02*
X285723628Y-134479319D01*
X285723628Y-134479319D02*
X285847438Y-134355509D01*
X285847438Y-134355509D02*
X286033152Y-134293604D01*
X286033152Y-134293604D02*
X286156961Y-134293604D01*
X286156961Y-134293604D02*
X286342676Y-134355509D01*
X286342676Y-134355509D02*
X286404580Y-134417414D01*
D10*
D11*
X285661723Y-185593604D02*
X285661723Y-184293604D01*
X285661723Y-184293604D02*
X285971247Y-184293604D01*
X285971247Y-184293604D02*
X286156961Y-184355509D01*
X286156961Y-184355509D02*
X286280771Y-184479319D01*
X286280771Y-184479319D02*
X286342676Y-184603128D01*
X286342676Y-184603128D02*
X286404580Y-184850747D01*
X286404580Y-184850747D02*
X286404580Y-185036461D01*
X286404580Y-185036461D02*
X286342676Y-185284080D01*
X286342676Y-185284080D02*
X286280771Y-185407890D01*
X286280771Y-185407890D02*
X286156961Y-185531700D01*
X286156961Y-185531700D02*
X285971247Y-185593604D01*
X285971247Y-185593604D02*
X285661723Y-185593604D01*
D10*
D11*
X200458026Y-193793328D02*
X200458026Y-192293328D01*
X200458026Y-192293328D02*
X200815169Y-192293328D01*
X200815169Y-192293328D02*
X201029455Y-192364757D01*
X201029455Y-192364757D02*
X201172312Y-192507614D01*
X201172312Y-192507614D02*
X201243741Y-192650471D01*
X201243741Y-192650471D02*
X201315169Y-192936185D01*
X201315169Y-192936185D02*
X201315169Y-193150471D01*
X201315169Y-193150471D02*
X201243741Y-193436185D01*
X201243741Y-193436185D02*
X201172312Y-193579042D01*
X201172312Y-193579042D02*
X201029455Y-193721900D01*
X201029455Y-193721900D02*
X200815169Y-193793328D01*
X200815169Y-193793328D02*
X200458026Y-193793328D01*
X202600884Y-193793328D02*
X202600884Y-193007614D01*
X202600884Y-193007614D02*
X202529455Y-192864757D01*
X202529455Y-192864757D02*
X202386598Y-192793328D01*
X202386598Y-192793328D02*
X202100884Y-192793328D01*
X202100884Y-192793328D02*
X201958026Y-192864757D01*
X202600884Y-193721900D02*
X202458026Y-193793328D01*
X202458026Y-193793328D02*
X202100884Y-193793328D01*
X202100884Y-193793328D02*
X201958026Y-193721900D01*
X201958026Y-193721900D02*
X201886598Y-193579042D01*
X201886598Y-193579042D02*
X201886598Y-193436185D01*
X201886598Y-193436185D02*
X201958026Y-193293328D01*
X201958026Y-193293328D02*
X202100884Y-193221900D01*
X202100884Y-193221900D02*
X202458026Y-193221900D01*
X202458026Y-193221900D02*
X202600884Y-193150471D01*
X203100884Y-192793328D02*
X203672312Y-192793328D01*
X203315169Y-192293328D02*
X203315169Y-193579042D01*
X203315169Y-193579042D02*
X203386598Y-193721900D01*
X203386598Y-193721900D02*
X203529455Y-193793328D01*
X203529455Y-193793328D02*
X203672312Y-193793328D01*
X204743741Y-193721900D02*
X204600884Y-193793328D01*
X204600884Y-193793328D02*
X204315170Y-193793328D01*
X204315170Y-193793328D02*
X204172312Y-193721900D01*
X204172312Y-193721900D02*
X204100884Y-193579042D01*
X204100884Y-193579042D02*
X204100884Y-193007614D01*
X204100884Y-193007614D02*
X204172312Y-192864757D01*
X204172312Y-192864757D02*
X204315170Y-192793328D01*
X204315170Y-192793328D02*
X204600884Y-192793328D01*
X204600884Y-192793328D02*
X204743741Y-192864757D01*
X204743741Y-192864757D02*
X204815170Y-193007614D01*
X204815170Y-193007614D02*
X204815170Y-193150471D01*
X204815170Y-193150471D02*
X204100884Y-193293328D01*
X205458026Y-193650471D02*
X205529455Y-193721900D01*
X205529455Y-193721900D02*
X205458026Y-193793328D01*
X205458026Y-193793328D02*
X205386598Y-193721900D01*
X205386598Y-193721900D02*
X205458026Y-193650471D01*
X205458026Y-193650471D02*
X205458026Y-193793328D01*
X205458026Y-192864757D02*
X205529455Y-192936185D01*
X205529455Y-192936185D02*
X205458026Y-193007614D01*
X205458026Y-193007614D02*
X205386598Y-192936185D01*
X205386598Y-192936185D02*
X205458026Y-192864757D01*
X205458026Y-192864757D02*
X205458026Y-193007614D01*
D10*
D11*
X177002200Y-194507200D02*
X285002200Y-194507200D01*
D10*
D11*
X178458026Y-196593328D02*
X178458026Y-195093328D01*
X179315169Y-196593328D02*
X178672312Y-195736185D01*
X179315169Y-195093328D02*
X178458026Y-195950471D01*
X179958026Y-196593328D02*
X179958026Y-195593328D01*
X179958026Y-195093328D02*
X179886598Y-195164757D01*
X179886598Y-195164757D02*
X179958026Y-195236185D01*
X179958026Y-195236185D02*
X180029455Y-195164757D01*
X180029455Y-195164757D02*
X179958026Y-195093328D01*
X179958026Y-195093328D02*
X179958026Y-195236185D01*
X181529455Y-196450471D02*
X181458027Y-196521900D01*
X181458027Y-196521900D02*
X181243741Y-196593328D01*
X181243741Y-196593328D02*
X181100884Y-196593328D01*
X181100884Y-196593328D02*
X180886598Y-196521900D01*
X180886598Y-196521900D02*
X180743741Y-196379042D01*
X180743741Y-196379042D02*
X180672312Y-196236185D01*
X180672312Y-196236185D02*
X180600884Y-195950471D01*
X180600884Y-195950471D02*
X180600884Y-195736185D01*
X180600884Y-195736185D02*
X180672312Y-195450471D01*
X180672312Y-195450471D02*
X180743741Y-195307614D01*
X180743741Y-195307614D02*
X180886598Y-195164757D01*
X180886598Y-195164757D02*
X181100884Y-195093328D01*
X181100884Y-195093328D02*
X181243741Y-195093328D01*
X181243741Y-195093328D02*
X181458027Y-195164757D01*
X181458027Y-195164757D02*
X181529455Y-195236185D01*
X182815170Y-196593328D02*
X182815170Y-195807614D01*
X182815170Y-195807614D02*
X182743741Y-195664757D01*
X182743741Y-195664757D02*
X182600884Y-195593328D01*
X182600884Y-195593328D02*
X182315170Y-195593328D01*
X182315170Y-195593328D02*
X182172312Y-195664757D01*
X182815170Y-196521900D02*
X182672312Y-196593328D01*
X182672312Y-196593328D02*
X182315170Y-196593328D01*
X182315170Y-196593328D02*
X182172312Y-196521900D01*
X182172312Y-196521900D02*
X182100884Y-196379042D01*
X182100884Y-196379042D02*
X182100884Y-196236185D01*
X182100884Y-196236185D02*
X182172312Y-196093328D01*
X182172312Y-196093328D02*
X182315170Y-196021900D01*
X182315170Y-196021900D02*
X182672312Y-196021900D01*
X182672312Y-196021900D02*
X182815170Y-195950471D01*
X184172313Y-196593328D02*
X184172313Y-195093328D01*
X184172313Y-196521900D02*
X184029455Y-196593328D01*
X184029455Y-196593328D02*
X183743741Y-196593328D01*
X183743741Y-196593328D02*
X183600884Y-196521900D01*
X183600884Y-196521900D02*
X183529455Y-196450471D01*
X183529455Y-196450471D02*
X183458027Y-196307614D01*
X183458027Y-196307614D02*
X183458027Y-195879042D01*
X183458027Y-195879042D02*
X183529455Y-195736185D01*
X183529455Y-195736185D02*
X183600884Y-195664757D01*
X183600884Y-195664757D02*
X183743741Y-195593328D01*
X183743741Y-195593328D02*
X184029455Y-195593328D01*
X184029455Y-195593328D02*
X184172313Y-195664757D01*
X186029455Y-195807614D02*
X186529455Y-195807614D01*
X186743741Y-196593328D02*
X186029455Y-196593328D01*
X186029455Y-196593328D02*
X186029455Y-195093328D01*
X186029455Y-195093328D02*
X186743741Y-195093328D01*
X187386598Y-196450471D02*
X187458027Y-196521900D01*
X187458027Y-196521900D02*
X187386598Y-196593328D01*
X187386598Y-196593328D02*
X187315170Y-196521900D01*
X187315170Y-196521900D02*
X187386598Y-196450471D01*
X187386598Y-196450471D02*
X187386598Y-196593328D01*
X188100884Y-196593328D02*
X188100884Y-195093328D01*
X188100884Y-195093328D02*
X188458027Y-195093328D01*
X188458027Y-195093328D02*
X188672313Y-195164757D01*
X188672313Y-195164757D02*
X188815170Y-195307614D01*
X188815170Y-195307614D02*
X188886599Y-195450471D01*
X188886599Y-195450471D02*
X188958027Y-195736185D01*
X188958027Y-195736185D02*
X188958027Y-195950471D01*
X188958027Y-195950471D02*
X188886599Y-196236185D01*
X188886599Y-196236185D02*
X188815170Y-196379042D01*
X188815170Y-196379042D02*
X188672313Y-196521900D01*
X188672313Y-196521900D02*
X188458027Y-196593328D01*
X188458027Y-196593328D02*
X188100884Y-196593328D01*
X189600884Y-196450471D02*
X189672313Y-196521900D01*
X189672313Y-196521900D02*
X189600884Y-196593328D01*
X189600884Y-196593328D02*
X189529456Y-196521900D01*
X189529456Y-196521900D02*
X189600884Y-196450471D01*
X189600884Y-196450471D02*
X189600884Y-196593328D01*
X190243742Y-196164757D02*
X190958028Y-196164757D01*
X190100885Y-196593328D02*
X190600885Y-195093328D01*
X190600885Y-195093328D02*
X191100885Y-196593328D01*
X191600884Y-196450471D02*
X191672313Y-196521900D01*
X191672313Y-196521900D02*
X191600884Y-196593328D01*
X191600884Y-196593328D02*
X191529456Y-196521900D01*
X191529456Y-196521900D02*
X191600884Y-196450471D01*
X191600884Y-196450471D02*
X191600884Y-196593328D01*
X193529456Y-196593328D02*
X193815170Y-196593328D01*
X193815170Y-196593328D02*
X193958027Y-196521900D01*
X193958027Y-196521900D02*
X194029456Y-196450471D01*
X194029456Y-196450471D02*
X194172313Y-196236185D01*
X194172313Y-196236185D02*
X194243742Y-195950471D01*
X194243742Y-195950471D02*
X194243742Y-195379042D01*
X194243742Y-195379042D02*
X194172313Y-195236185D01*
X194172313Y-195236185D02*
X194100885Y-195164757D01*
X194100885Y-195164757D02*
X193958027Y-195093328D01*
X193958027Y-195093328D02*
X193672313Y-195093328D01*
X193672313Y-195093328D02*
X193529456Y-195164757D01*
X193529456Y-195164757D02*
X193458027Y-195236185D01*
X193458027Y-195236185D02*
X193386599Y-195379042D01*
X193386599Y-195379042D02*
X193386599Y-195736185D01*
X193386599Y-195736185D02*
X193458027Y-195879042D01*
X193458027Y-195879042D02*
X193529456Y-195950471D01*
X193529456Y-195950471D02*
X193672313Y-196021900D01*
X193672313Y-196021900D02*
X193958027Y-196021900D01*
X193958027Y-196021900D02*
X194100885Y-195950471D01*
X194100885Y-195950471D02*
X194172313Y-195879042D01*
X194172313Y-195879042D02*
X194243742Y-195736185D01*
X194886598Y-196450471D02*
X194958027Y-196521900D01*
X194958027Y-196521900D02*
X194886598Y-196593328D01*
X194886598Y-196593328D02*
X194815170Y-196521900D01*
X194815170Y-196521900D02*
X194886598Y-196450471D01*
X194886598Y-196450471D02*
X194886598Y-196593328D01*
X195886599Y-195093328D02*
X196029456Y-195093328D01*
X196029456Y-195093328D02*
X196172313Y-195164757D01*
X196172313Y-195164757D02*
X196243742Y-195236185D01*
X196243742Y-195236185D02*
X196315170Y-195379042D01*
X196315170Y-195379042D02*
X196386599Y-195664757D01*
X196386599Y-195664757D02*
X196386599Y-196021900D01*
X196386599Y-196021900D02*
X196315170Y-196307614D01*
X196315170Y-196307614D02*
X196243742Y-196450471D01*
X196243742Y-196450471D02*
X196172313Y-196521900D01*
X196172313Y-196521900D02*
X196029456Y-196593328D01*
X196029456Y-196593328D02*
X195886599Y-196593328D01*
X195886599Y-196593328D02*
X195743742Y-196521900D01*
X195743742Y-196521900D02*
X195672313Y-196450471D01*
X195672313Y-196450471D02*
X195600884Y-196307614D01*
X195600884Y-196307614D02*
X195529456Y-196021900D01*
X195529456Y-196021900D02*
X195529456Y-195664757D01*
X195529456Y-195664757D02*
X195600884Y-195379042D01*
X195600884Y-195379042D02*
X195672313Y-195236185D01*
X195672313Y-195236185D02*
X195743742Y-195164757D01*
X195743742Y-195164757D02*
X195886599Y-195093328D01*
X197029455Y-196450471D02*
X197100884Y-196521900D01*
X197100884Y-196521900D02*
X197029455Y-196593328D01*
X197029455Y-196593328D02*
X196958027Y-196521900D01*
X196958027Y-196521900D02*
X197029455Y-196450471D01*
X197029455Y-196450471D02*
X197029455Y-196593328D01*
X198458027Y-195093328D02*
X197743741Y-195093328D01*
X197743741Y-195093328D02*
X197672313Y-195807614D01*
X197672313Y-195807614D02*
X197743741Y-195736185D01*
X197743741Y-195736185D02*
X197886599Y-195664757D01*
X197886599Y-195664757D02*
X198243741Y-195664757D01*
X198243741Y-195664757D02*
X198386599Y-195736185D01*
X198386599Y-195736185D02*
X198458027Y-195807614D01*
X198458027Y-195807614D02*
X198529456Y-195950471D01*
X198529456Y-195950471D02*
X198529456Y-196307614D01*
X198529456Y-196307614D02*
X198458027Y-196450471D01*
X198458027Y-196450471D02*
X198386599Y-196521900D01*
X198386599Y-196521900D02*
X198243741Y-196593328D01*
X198243741Y-196593328D02*
X197886599Y-196593328D01*
X197886599Y-196593328D02*
X197743741Y-196521900D01*
X197743741Y-196521900D02*
X197672313Y-196450471D01*
D10*
D11*
X177002200Y-191507200D02*
X285002200Y-191507200D01*
D10*
D12*
X264413853Y-193785528D02*
X263913853Y-193071242D01*
X263556710Y-193785528D02*
X263556710Y-192285528D01*
X263556710Y-192285528D02*
X264128139Y-192285528D01*
X264128139Y-192285528D02*
X264270996Y-192356957D01*
X264270996Y-192356957D02*
X264342425Y-192428385D01*
X264342425Y-192428385D02*
X264413853Y-192571242D01*
X264413853Y-192571242D02*
X264413853Y-192785528D01*
X264413853Y-192785528D02*
X264342425Y-192928385D01*
X264342425Y-192928385D02*
X264270996Y-192999814D01*
X264270996Y-192999814D02*
X264128139Y-193071242D01*
X264128139Y-193071242D02*
X263556710Y-193071242D01*
X265628139Y-193714100D02*
X265485282Y-193785528D01*
X265485282Y-193785528D02*
X265199568Y-193785528D01*
X265199568Y-193785528D02*
X265056710Y-193714100D01*
X265056710Y-193714100D02*
X264985282Y-193571242D01*
X264985282Y-193571242D02*
X264985282Y-192999814D01*
X264985282Y-192999814D02*
X265056710Y-192856957D01*
X265056710Y-192856957D02*
X265199568Y-192785528D01*
X265199568Y-192785528D02*
X265485282Y-192785528D01*
X265485282Y-192785528D02*
X265628139Y-192856957D01*
X265628139Y-192856957D02*
X265699568Y-192999814D01*
X265699568Y-192999814D02*
X265699568Y-193142671D01*
X265699568Y-193142671D02*
X264985282Y-193285528D01*
X266199567Y-192785528D02*
X266556710Y-193785528D01*
X266556710Y-193785528D02*
X266913853Y-192785528D01*
X267485281Y-193642671D02*
X267556710Y-193714100D01*
X267556710Y-193714100D02*
X267485281Y-193785528D01*
X267485281Y-193785528D02*
X267413853Y-193714100D01*
X267413853Y-193714100D02*
X267485281Y-193642671D01*
X267485281Y-193642671D02*
X267485281Y-193785528D01*
X267485281Y-192856957D02*
X267556710Y-192928385D01*
X267556710Y-192928385D02*
X267485281Y-192999814D01*
X267485281Y-192999814D02*
X267413853Y-192928385D01*
X267413853Y-192928385D02*
X267485281Y-192856957D01*
X267485281Y-192856957D02*
X267485281Y-192999814D01*
D10*
D11*
X178386598Y-193721900D02*
X178600884Y-193793328D01*
X178600884Y-193793328D02*
X178958026Y-193793328D01*
X178958026Y-193793328D02*
X179100884Y-193721900D01*
X179100884Y-193721900D02*
X179172312Y-193650471D01*
X179172312Y-193650471D02*
X179243741Y-193507614D01*
X179243741Y-193507614D02*
X179243741Y-193364757D01*
X179243741Y-193364757D02*
X179172312Y-193221900D01*
X179172312Y-193221900D02*
X179100884Y-193150471D01*
X179100884Y-193150471D02*
X178958026Y-193079042D01*
X178958026Y-193079042D02*
X178672312Y-193007614D01*
X178672312Y-193007614D02*
X178529455Y-192936185D01*
X178529455Y-192936185D02*
X178458026Y-192864757D01*
X178458026Y-192864757D02*
X178386598Y-192721900D01*
X178386598Y-192721900D02*
X178386598Y-192579042D01*
X178386598Y-192579042D02*
X178458026Y-192436185D01*
X178458026Y-192436185D02*
X178529455Y-192364757D01*
X178529455Y-192364757D02*
X178672312Y-192293328D01*
X178672312Y-192293328D02*
X179029455Y-192293328D01*
X179029455Y-192293328D02*
X179243741Y-192364757D01*
X179886597Y-193793328D02*
X179886597Y-192793328D01*
X179886597Y-192293328D02*
X179815169Y-192364757D01*
X179815169Y-192364757D02*
X179886597Y-192436185D01*
X179886597Y-192436185D02*
X179958026Y-192364757D01*
X179958026Y-192364757D02*
X179886597Y-192293328D01*
X179886597Y-192293328D02*
X179886597Y-192436185D01*
X180458026Y-192793328D02*
X181243741Y-192793328D01*
X181243741Y-192793328D02*
X180458026Y-193793328D01*
X180458026Y-193793328D02*
X181243741Y-193793328D01*
X182386598Y-193721900D02*
X182243741Y-193793328D01*
X182243741Y-193793328D02*
X181958027Y-193793328D01*
X181958027Y-193793328D02*
X181815169Y-193721900D01*
X181815169Y-193721900D02*
X181743741Y-193579042D01*
X181743741Y-193579042D02*
X181743741Y-193007614D01*
X181743741Y-193007614D02*
X181815169Y-192864757D01*
X181815169Y-192864757D02*
X181958027Y-192793328D01*
X181958027Y-192793328D02*
X182243741Y-192793328D01*
X182243741Y-192793328D02*
X182386598Y-192864757D01*
X182386598Y-192864757D02*
X182458027Y-193007614D01*
X182458027Y-193007614D02*
X182458027Y-193150471D01*
X182458027Y-193150471D02*
X181743741Y-193293328D01*
X183100883Y-193650471D02*
X183172312Y-193721900D01*
X183172312Y-193721900D02*
X183100883Y-193793328D01*
X183100883Y-193793328D02*
X183029455Y-193721900D01*
X183029455Y-193721900D02*
X183100883Y-193650471D01*
X183100883Y-193650471D02*
X183100883Y-193793328D01*
X183100883Y-192864757D02*
X183172312Y-192936185D01*
X183172312Y-192936185D02*
X183100883Y-193007614D01*
X183100883Y-193007614D02*
X183029455Y-192936185D01*
X183029455Y-192936185D02*
X183100883Y-192864757D01*
X183100883Y-192864757D02*
X183100883Y-193007614D01*
X184886598Y-193364757D02*
X185600884Y-193364757D01*
X184743741Y-193793328D02*
X185243741Y-192293328D01*
X185243741Y-192293328D02*
X185743741Y-193793328D01*
X186886598Y-192793328D02*
X186886598Y-193793328D01*
X186529455Y-192221900D02*
X186172312Y-193293328D01*
X186172312Y-193293328D02*
X187100883Y-193293328D01*
D10*
D11*
X263458026Y-196593328D02*
X263458026Y-195093328D01*
X264815170Y-196593328D02*
X264815170Y-195093328D01*
X264815170Y-196521900D02*
X264672312Y-196593328D01*
X264672312Y-196593328D02*
X264386598Y-196593328D01*
X264386598Y-196593328D02*
X264243741Y-196521900D01*
X264243741Y-196521900D02*
X264172312Y-196450471D01*
X264172312Y-196450471D02*
X264100884Y-196307614D01*
X264100884Y-196307614D02*
X264100884Y-195879042D01*
X264100884Y-195879042D02*
X264172312Y-195736185D01*
X264172312Y-195736185D02*
X264243741Y-195664757D01*
X264243741Y-195664757D02*
X264386598Y-195593328D01*
X264386598Y-195593328D02*
X264672312Y-195593328D01*
X264672312Y-195593328D02*
X264815170Y-195664757D01*
X265529455Y-196450471D02*
X265600884Y-196521900D01*
X265600884Y-196521900D02*
X265529455Y-196593328D01*
X265529455Y-196593328D02*
X265458027Y-196521900D01*
X265458027Y-196521900D02*
X265529455Y-196450471D01*
X265529455Y-196450471D02*
X265529455Y-196593328D01*
X265529455Y-195664757D02*
X265600884Y-195736185D01*
X265600884Y-195736185D02*
X265529455Y-195807614D01*
X265529455Y-195807614D02*
X265458027Y-195736185D01*
X265458027Y-195736185D02*
X265529455Y-195664757D01*
X265529455Y-195664757D02*
X265529455Y-195807614D01*
X268172313Y-196593328D02*
X267315170Y-196593328D01*
X267743741Y-196593328D02*
X267743741Y-195093328D01*
X267743741Y-195093328D02*
X267600884Y-195307614D01*
X267600884Y-195307614D02*
X267458027Y-195450471D01*
X267458027Y-195450471D02*
X267315170Y-195521900D01*
X269886598Y-195021900D02*
X268600884Y-196950471D01*
X270458027Y-196593328D02*
X270743741Y-196593328D01*
X270743741Y-196593328D02*
X270886598Y-196521900D01*
X270886598Y-196521900D02*
X270958027Y-196450471D01*
X270958027Y-196450471D02*
X271100884Y-196236185D01*
X271100884Y-196236185D02*
X271172313Y-195950471D01*
X271172313Y-195950471D02*
X271172313Y-195379042D01*
X271172313Y-195379042D02*
X271100884Y-195236185D01*
X271100884Y-195236185D02*
X271029456Y-195164757D01*
X271029456Y-195164757D02*
X270886598Y-195093328D01*
X270886598Y-195093328D02*
X270600884Y-195093328D01*
X270600884Y-195093328D02*
X270458027Y-195164757D01*
X270458027Y-195164757D02*
X270386598Y-195236185D01*
X270386598Y-195236185D02*
X270315170Y-195379042D01*
X270315170Y-195379042D02*
X270315170Y-195736185D01*
X270315170Y-195736185D02*
X270386598Y-195879042D01*
X270386598Y-195879042D02*
X270458027Y-195950471D01*
X270458027Y-195950471D02*
X270600884Y-196021900D01*
X270600884Y-196021900D02*
X270886598Y-196021900D01*
X270886598Y-196021900D02*
X271029456Y-195950471D01*
X271029456Y-195950471D02*
X271100884Y-195879042D01*
X271100884Y-195879042D02*
X271172313Y-195736185D01*
D10*
D11*
X177002200Y-187507200D02*
X285002200Y-187507200D01*
D10*
D13*
X178693928Y-188211638D02*
X179836785Y-188211638D01*
X179015357Y-190211638D02*
X179265357Y-188211638D01*
X180253452Y-190211638D02*
X180420119Y-188878304D01*
X180503452Y-188211638D02*
X180396309Y-188306876D01*
X180396309Y-188306876D02*
X180479643Y-188402114D01*
X180479643Y-188402114D02*
X180586786Y-188306876D01*
X180586786Y-188306876D02*
X180503452Y-188211638D01*
X180503452Y-188211638D02*
X180479643Y-188402114D01*
X181086786Y-188878304D02*
X181848690Y-188878304D01*
X181455833Y-188211638D02*
X181241548Y-189925923D01*
X181241548Y-189925923D02*
X181312976Y-190116400D01*
X181312976Y-190116400D02*
X181491548Y-190211638D01*
X181491548Y-190211638D02*
X181682024Y-190211638D01*
X182634405Y-190211638D02*
X182455833Y-190116400D01*
X182455833Y-190116400D02*
X182384405Y-189925923D01*
X182384405Y-189925923D02*
X182598690Y-188211638D01*
X184170119Y-190116400D02*
X183967738Y-190211638D01*
X183967738Y-190211638D02*
X183586785Y-190211638D01*
X183586785Y-190211638D02*
X183408214Y-190116400D01*
X183408214Y-190116400D02*
X183336785Y-189925923D01*
X183336785Y-189925923D02*
X183432024Y-189164019D01*
X183432024Y-189164019D02*
X183551071Y-188973542D01*
X183551071Y-188973542D02*
X183753452Y-188878304D01*
X183753452Y-188878304D02*
X184134404Y-188878304D01*
X184134404Y-188878304D02*
X184312976Y-188973542D01*
X184312976Y-188973542D02*
X184384404Y-189164019D01*
X184384404Y-189164019D02*
X184360595Y-189354495D01*
X184360595Y-189354495D02*
X183384404Y-189544971D01*
X185134405Y-190021161D02*
X185217738Y-190116400D01*
X185217738Y-190116400D02*
X185110595Y-190211638D01*
X185110595Y-190211638D02*
X185027262Y-190116400D01*
X185027262Y-190116400D02*
X185134405Y-190021161D01*
X185134405Y-190021161D02*
X185110595Y-190211638D01*
X185265357Y-188973542D02*
X185348690Y-189068780D01*
X185348690Y-189068780D02*
X185241548Y-189164019D01*
X185241548Y-189164019D02*
X185158214Y-189068780D01*
X185158214Y-189068780D02*
X185265357Y-188973542D01*
X185265357Y-188973542D02*
X185241548Y-189164019D01*
D10*
D11*
X178958026Y-185607614D02*
X178458026Y-185607614D01*
X178458026Y-186393328D02*
X178458026Y-184893328D01*
X178458026Y-184893328D02*
X179172312Y-184893328D01*
X179743740Y-186393328D02*
X179743740Y-185393328D01*
X179743740Y-184893328D02*
X179672312Y-184964757D01*
X179672312Y-184964757D02*
X179743740Y-185036185D01*
X179743740Y-185036185D02*
X179815169Y-184964757D01*
X179815169Y-184964757D02*
X179743740Y-184893328D01*
X179743740Y-184893328D02*
X179743740Y-185036185D01*
X180672312Y-186393328D02*
X180529455Y-186321900D01*
X180529455Y-186321900D02*
X180458026Y-186179042D01*
X180458026Y-186179042D02*
X180458026Y-184893328D01*
X181815169Y-186321900D02*
X181672312Y-186393328D01*
X181672312Y-186393328D02*
X181386598Y-186393328D01*
X181386598Y-186393328D02*
X181243740Y-186321900D01*
X181243740Y-186321900D02*
X181172312Y-186179042D01*
X181172312Y-186179042D02*
X181172312Y-185607614D01*
X181172312Y-185607614D02*
X181243740Y-185464757D01*
X181243740Y-185464757D02*
X181386598Y-185393328D01*
X181386598Y-185393328D02*
X181672312Y-185393328D01*
X181672312Y-185393328D02*
X181815169Y-185464757D01*
X181815169Y-185464757D02*
X181886598Y-185607614D01*
X181886598Y-185607614D02*
X181886598Y-185750471D01*
X181886598Y-185750471D02*
X181172312Y-185893328D01*
X182529454Y-186250471D02*
X182600883Y-186321900D01*
X182600883Y-186321900D02*
X182529454Y-186393328D01*
X182529454Y-186393328D02*
X182458026Y-186321900D01*
X182458026Y-186321900D02*
X182529454Y-186250471D01*
X182529454Y-186250471D02*
X182529454Y-186393328D01*
X182529454Y-185464757D02*
X182600883Y-185536185D01*
X182600883Y-185536185D02*
X182529454Y-185607614D01*
X182529454Y-185607614D02*
X182458026Y-185536185D01*
X182458026Y-185536185D02*
X182529454Y-185464757D01*
X182529454Y-185464757D02*
X182529454Y-185607614D01*
X184315169Y-186321900D02*
X184529455Y-186393328D01*
X184529455Y-186393328D02*
X184886597Y-186393328D01*
X184886597Y-186393328D02*
X185029455Y-186321900D01*
X185029455Y-186321900D02*
X185100883Y-186250471D01*
X185100883Y-186250471D02*
X185172312Y-186107614D01*
X185172312Y-186107614D02*
X185172312Y-185964757D01*
X185172312Y-185964757D02*
X185100883Y-185821900D01*
X185100883Y-185821900D02*
X185029455Y-185750471D01*
X185029455Y-185750471D02*
X184886597Y-185679042D01*
X184886597Y-185679042D02*
X184600883Y-185607614D01*
X184600883Y-185607614D02*
X184458026Y-185536185D01*
X184458026Y-185536185D02*
X184386597Y-185464757D01*
X184386597Y-185464757D02*
X184315169Y-185321900D01*
X184315169Y-185321900D02*
X184315169Y-185179042D01*
X184315169Y-185179042D02*
X184386597Y-185036185D01*
X184386597Y-185036185D02*
X184458026Y-184964757D01*
X184458026Y-184964757D02*
X184600883Y-184893328D01*
X184600883Y-184893328D02*
X184958026Y-184893328D01*
X184958026Y-184893328D02*
X185172312Y-184964757D01*
X185600883Y-184893328D02*
X186458026Y-184893328D01*
X186029454Y-186393328D02*
X186029454Y-184893328D01*
X186886597Y-185964757D02*
X187600883Y-185964757D01*
X186743740Y-186393328D02*
X187243740Y-184893328D01*
X187243740Y-184893328D02*
X187743740Y-186393328D01*
X189100882Y-186393328D02*
X188600882Y-185679042D01*
X188243739Y-186393328D02*
X188243739Y-184893328D01*
X188243739Y-184893328D02*
X188815168Y-184893328D01*
X188815168Y-184893328D02*
X188958025Y-184964757D01*
X188958025Y-184964757D02*
X189029454Y-185036185D01*
X189029454Y-185036185D02*
X189100882Y-185179042D01*
X189100882Y-185179042D02*
X189100882Y-185393328D01*
X189100882Y-185393328D02*
X189029454Y-185536185D01*
X189029454Y-185536185D02*
X188958025Y-185607614D01*
X188958025Y-185607614D02*
X188815168Y-185679042D01*
X188815168Y-185679042D02*
X188243739Y-185679042D01*
X189386597Y-186536185D02*
X190529454Y-186536185D01*
X191672311Y-184964757D02*
X191529454Y-184893328D01*
X191529454Y-184893328D02*
X191315168Y-184893328D01*
X191315168Y-184893328D02*
X191100882Y-184964757D01*
X191100882Y-184964757D02*
X190958025Y-185107614D01*
X190958025Y-185107614D02*
X190886596Y-185250471D01*
X190886596Y-185250471D02*
X190815168Y-185536185D01*
X190815168Y-185536185D02*
X190815168Y-185750471D01*
X190815168Y-185750471D02*
X190886596Y-186036185D01*
X190886596Y-186036185D02*
X190958025Y-186179042D01*
X190958025Y-186179042D02*
X191100882Y-186321900D01*
X191100882Y-186321900D02*
X191315168Y-186393328D01*
X191315168Y-186393328D02*
X191458025Y-186393328D01*
X191458025Y-186393328D02*
X191672311Y-186321900D01*
X191672311Y-186321900D02*
X191743739Y-186250471D01*
X191743739Y-186250471D02*
X191743739Y-185750471D01*
X191743739Y-185750471D02*
X191458025Y-185750471D01*
X192315168Y-185964757D02*
X193029454Y-185964757D01*
X192172311Y-186393328D02*
X192672311Y-184893328D01*
X192672311Y-184893328D02*
X193172311Y-186393328D01*
X193458025Y-184893328D02*
X194315168Y-184893328D01*
X193886596Y-186393328D02*
X193886596Y-184893328D01*
X194815167Y-185607614D02*
X195315167Y-185607614D01*
X195529453Y-186393328D02*
X194815167Y-186393328D01*
X194815167Y-186393328D02*
X194815167Y-184893328D01*
X194815167Y-184893328D02*
X195529453Y-184893328D01*
X195815168Y-186536185D02*
X196958025Y-186536185D01*
X197315167Y-186393328D02*
X197315167Y-184893328D01*
X197315167Y-184893328D02*
X197672310Y-184893328D01*
X197672310Y-184893328D02*
X197886596Y-184964757D01*
X197886596Y-184964757D02*
X198029453Y-185107614D01*
X198029453Y-185107614D02*
X198100882Y-185250471D01*
X198100882Y-185250471D02*
X198172310Y-185536185D01*
X198172310Y-185536185D02*
X198172310Y-185750471D01*
X198172310Y-185750471D02*
X198100882Y-186036185D01*
X198100882Y-186036185D02*
X198029453Y-186179042D01*
X198029453Y-186179042D02*
X197886596Y-186321900D01*
X197886596Y-186321900D02*
X197672310Y-186393328D01*
X197672310Y-186393328D02*
X197315167Y-186393328D01*
X199672310Y-186393328D02*
X199172310Y-185679042D01*
X198815167Y-186393328D02*
X198815167Y-184893328D01*
X198815167Y-184893328D02*
X199386596Y-184893328D01*
X199386596Y-184893328D02*
X199529453Y-184964757D01*
X199529453Y-184964757D02*
X199600882Y-185036185D01*
X199600882Y-185036185D02*
X199672310Y-185179042D01*
X199672310Y-185179042D02*
X199672310Y-185393328D01*
X199672310Y-185393328D02*
X199600882Y-185536185D01*
X199600882Y-185536185D02*
X199529453Y-185607614D01*
X199529453Y-185607614D02*
X199386596Y-185679042D01*
X199386596Y-185679042D02*
X198815167Y-185679042D01*
X200315167Y-186393328D02*
X200315167Y-184893328D01*
X200815168Y-184893328D02*
X201315168Y-186393328D01*
X201315168Y-186393328D02*
X201815168Y-184893328D01*
X202315167Y-185607614D02*
X202815167Y-185607614D01*
X203029453Y-186393328D02*
X202315167Y-186393328D01*
X202315167Y-186393328D02*
X202315167Y-184893328D01*
X202315167Y-184893328D02*
X203029453Y-184893328D01*
X204529453Y-186393328D02*
X204029453Y-185679042D01*
X203672310Y-186393328D02*
X203672310Y-184893328D01*
X203672310Y-184893328D02*
X204243739Y-184893328D01*
X204243739Y-184893328D02*
X204386596Y-184964757D01*
X204386596Y-184964757D02*
X204458025Y-185036185D01*
X204458025Y-185036185D02*
X204529453Y-185179042D01*
X204529453Y-185179042D02*
X204529453Y-185393328D01*
X204529453Y-185393328D02*
X204458025Y-185536185D01*
X204458025Y-185536185D02*
X204386596Y-185607614D01*
X204386596Y-185607614D02*
X204243739Y-185679042D01*
X204243739Y-185679042D02*
X203672310Y-185679042D01*
X205172310Y-186250471D02*
X205243739Y-186321900D01*
X205243739Y-186321900D02*
X205172310Y-186393328D01*
X205172310Y-186393328D02*
X205100882Y-186321900D01*
X205100882Y-186321900D02*
X205172310Y-186250471D01*
X205172310Y-186250471D02*
X205172310Y-186393328D01*
X205886596Y-186393328D02*
X205886596Y-184893328D01*
X206029454Y-185821900D02*
X206458025Y-186393328D01*
X206458025Y-185393328D02*
X205886596Y-185964757D01*
X207100882Y-186393328D02*
X207100882Y-185393328D01*
X207100882Y-184893328D02*
X207029454Y-184964757D01*
X207029454Y-184964757D02*
X207100882Y-185036185D01*
X207100882Y-185036185D02*
X207172311Y-184964757D01*
X207172311Y-184964757D02*
X207100882Y-184893328D01*
X207100882Y-184893328D02*
X207100882Y-185036185D01*
X208458026Y-186321900D02*
X208315168Y-186393328D01*
X208315168Y-186393328D02*
X208029454Y-186393328D01*
X208029454Y-186393328D02*
X207886597Y-186321900D01*
X207886597Y-186321900D02*
X207815168Y-186250471D01*
X207815168Y-186250471D02*
X207743740Y-186107614D01*
X207743740Y-186107614D02*
X207743740Y-185679042D01*
X207743740Y-185679042D02*
X207815168Y-185536185D01*
X207815168Y-185536185D02*
X207886597Y-185464757D01*
X207886597Y-185464757D02*
X208029454Y-185393328D01*
X208029454Y-185393328D02*
X208315168Y-185393328D01*
X208315168Y-185393328D02*
X208458026Y-185464757D01*
X209743740Y-186393328D02*
X209743740Y-185607614D01*
X209743740Y-185607614D02*
X209672311Y-185464757D01*
X209672311Y-185464757D02*
X209529454Y-185393328D01*
X209529454Y-185393328D02*
X209243740Y-185393328D01*
X209243740Y-185393328D02*
X209100882Y-185464757D01*
X209743740Y-186321900D02*
X209600882Y-186393328D01*
X209600882Y-186393328D02*
X209243740Y-186393328D01*
X209243740Y-186393328D02*
X209100882Y-186321900D01*
X209100882Y-186321900D02*
X209029454Y-186179042D01*
X209029454Y-186179042D02*
X209029454Y-186036185D01*
X209029454Y-186036185D02*
X209100882Y-185893328D01*
X209100882Y-185893328D02*
X209243740Y-185821900D01*
X209243740Y-185821900D02*
X209600882Y-185821900D01*
X209600882Y-185821900D02*
X209743740Y-185750471D01*
X211100883Y-186393328D02*
X211100883Y-184893328D01*
X211100883Y-186321900D02*
X210958025Y-186393328D01*
X210958025Y-186393328D02*
X210672311Y-186393328D01*
X210672311Y-186393328D02*
X210529454Y-186321900D01*
X210529454Y-186321900D02*
X210458025Y-186250471D01*
X210458025Y-186250471D02*
X210386597Y-186107614D01*
X210386597Y-186107614D02*
X210386597Y-185679042D01*
X210386597Y-185679042D02*
X210458025Y-185536185D01*
X210458025Y-185536185D02*
X210529454Y-185464757D01*
X210529454Y-185464757D02*
X210672311Y-185393328D01*
X210672311Y-185393328D02*
X210958025Y-185393328D01*
X210958025Y-185393328D02*
X211100883Y-185464757D01*
X211458026Y-186536185D02*
X212600883Y-186536185D01*
X212958025Y-185393328D02*
X212958025Y-186893328D01*
X212958025Y-185464757D02*
X213100883Y-185393328D01*
X213100883Y-185393328D02*
X213386597Y-185393328D01*
X213386597Y-185393328D02*
X213529454Y-185464757D01*
X213529454Y-185464757D02*
X213600883Y-185536185D01*
X213600883Y-185536185D02*
X213672311Y-185679042D01*
X213672311Y-185679042D02*
X213672311Y-186107614D01*
X213672311Y-186107614D02*
X213600883Y-186250471D01*
X213600883Y-186250471D02*
X213529454Y-186321900D01*
X213529454Y-186321900D02*
X213386597Y-186393328D01*
X213386597Y-186393328D02*
X213100883Y-186393328D01*
X213100883Y-186393328D02*
X212958025Y-186321900D01*
X214958026Y-186321900D02*
X214815168Y-186393328D01*
X214815168Y-186393328D02*
X214529454Y-186393328D01*
X214529454Y-186393328D02*
X214386597Y-186321900D01*
X214386597Y-186321900D02*
X214315168Y-186250471D01*
X214315168Y-186250471D02*
X214243740Y-186107614D01*
X214243740Y-186107614D02*
X214243740Y-185679042D01*
X214243740Y-185679042D02*
X214315168Y-185536185D01*
X214315168Y-185536185D02*
X214386597Y-185464757D01*
X214386597Y-185464757D02*
X214529454Y-185393328D01*
X214529454Y-185393328D02*
X214815168Y-185393328D01*
X214815168Y-185393328D02*
X214958026Y-185464757D01*
X215600882Y-186393328D02*
X215600882Y-184893328D01*
X215600882Y-185464757D02*
X215743740Y-185393328D01*
X215743740Y-185393328D02*
X216029454Y-185393328D01*
X216029454Y-185393328D02*
X216172311Y-185464757D01*
X216172311Y-185464757D02*
X216243740Y-185536185D01*
X216243740Y-185536185D02*
X216315168Y-185679042D01*
X216315168Y-185679042D02*
X216315168Y-186107614D01*
X216315168Y-186107614D02*
X216243740Y-186250471D01*
X216243740Y-186250471D02*
X216172311Y-186321900D01*
X216172311Y-186321900D02*
X216029454Y-186393328D01*
X216029454Y-186393328D02*
X215743740Y-186393328D01*
X215743740Y-186393328D02*
X215600882Y-186321900D01*
D10*
D11*
X177002200Y-181507200D02*
X285002200Y-181507200D01*
D10*
D11*
X178386598Y-183621900D02*
X178600884Y-183693328D01*
X178600884Y-183693328D02*
X178958026Y-183693328D01*
X178958026Y-183693328D02*
X179100884Y-183621900D01*
X179100884Y-183621900D02*
X179172312Y-183550471D01*
X179172312Y-183550471D02*
X179243741Y-183407614D01*
X179243741Y-183407614D02*
X179243741Y-183264757D01*
X179243741Y-183264757D02*
X179172312Y-183121900D01*
X179172312Y-183121900D02*
X179100884Y-183050471D01*
X179100884Y-183050471D02*
X178958026Y-182979042D01*
X178958026Y-182979042D02*
X178672312Y-182907614D01*
X178672312Y-182907614D02*
X178529455Y-182836185D01*
X178529455Y-182836185D02*
X178458026Y-182764757D01*
X178458026Y-182764757D02*
X178386598Y-182621900D01*
X178386598Y-182621900D02*
X178386598Y-182479042D01*
X178386598Y-182479042D02*
X178458026Y-182336185D01*
X178458026Y-182336185D02*
X178529455Y-182264757D01*
X178529455Y-182264757D02*
X178672312Y-182193328D01*
X178672312Y-182193328D02*
X179029455Y-182193328D01*
X179029455Y-182193328D02*
X179243741Y-182264757D01*
X179886597Y-183693328D02*
X179886597Y-182193328D01*
X180529455Y-183693328D02*
X180529455Y-182907614D01*
X180529455Y-182907614D02*
X180458026Y-182764757D01*
X180458026Y-182764757D02*
X180315169Y-182693328D01*
X180315169Y-182693328D02*
X180100883Y-182693328D01*
X180100883Y-182693328D02*
X179958026Y-182764757D01*
X179958026Y-182764757D02*
X179886597Y-182836185D01*
X181815169Y-183621900D02*
X181672312Y-183693328D01*
X181672312Y-183693328D02*
X181386598Y-183693328D01*
X181386598Y-183693328D02*
X181243740Y-183621900D01*
X181243740Y-183621900D02*
X181172312Y-183479042D01*
X181172312Y-183479042D02*
X181172312Y-182907614D01*
X181172312Y-182907614D02*
X181243740Y-182764757D01*
X181243740Y-182764757D02*
X181386598Y-182693328D01*
X181386598Y-182693328D02*
X181672312Y-182693328D01*
X181672312Y-182693328D02*
X181815169Y-182764757D01*
X181815169Y-182764757D02*
X181886598Y-182907614D01*
X181886598Y-182907614D02*
X181886598Y-183050471D01*
X181886598Y-183050471D02*
X181172312Y-183193328D01*
X183100883Y-183621900D02*
X182958026Y-183693328D01*
X182958026Y-183693328D02*
X182672312Y-183693328D01*
X182672312Y-183693328D02*
X182529454Y-183621900D01*
X182529454Y-183621900D02*
X182458026Y-183479042D01*
X182458026Y-183479042D02*
X182458026Y-182907614D01*
X182458026Y-182907614D02*
X182529454Y-182764757D01*
X182529454Y-182764757D02*
X182672312Y-182693328D01*
X182672312Y-182693328D02*
X182958026Y-182693328D01*
X182958026Y-182693328D02*
X183100883Y-182764757D01*
X183100883Y-182764757D02*
X183172312Y-182907614D01*
X183172312Y-182907614D02*
X183172312Y-183050471D01*
X183172312Y-183050471D02*
X182458026Y-183193328D01*
X183600883Y-182693328D02*
X184172311Y-182693328D01*
X183815168Y-182193328D02*
X183815168Y-183479042D01*
X183815168Y-183479042D02*
X183886597Y-183621900D01*
X183886597Y-183621900D02*
X184029454Y-183693328D01*
X184029454Y-183693328D02*
X184172311Y-183693328D01*
X184672311Y-183550471D02*
X184743740Y-183621900D01*
X184743740Y-183621900D02*
X184672311Y-183693328D01*
X184672311Y-183693328D02*
X184600883Y-183621900D01*
X184600883Y-183621900D02*
X184672311Y-183550471D01*
X184672311Y-183550471D02*
X184672311Y-183693328D01*
X184672311Y-182764757D02*
X184743740Y-182836185D01*
X184743740Y-182836185D02*
X184672311Y-182907614D01*
X184672311Y-182907614D02*
X184600883Y-182836185D01*
X184600883Y-182836185D02*
X184672311Y-182764757D01*
X184672311Y-182764757D02*
X184672311Y-182907614D01*
D10*
D11*
X197002200Y-191507200D02*
X197002200Y-194507200D01*
D10*
D11*
X261002200Y-191507200D02*
X261002200Y-198007200D01*
D14*
%TO.P,REF\u002A\u002A,1*%
%TO.N,GND*%
X163000000Y-106500000D03*
%TD*%
%TO.P,REF\u002A\u002A,1*%
%TO.N,GND*%
X163000000Y-76000000D03*
%TD*%
%TO.P,REF\u002A\u002A,1*%
%TO.N,GND*%
X126500000Y-76000000D03*
%TD*%
%TO.P,REF\u002A\u002A,1*%
%TO.N,GND*%
X126500000Y-106500000D03*
%TD*%
D15*
%TO.P,J1,2*%
%TO.N,AFE_DSG_EN*%
X147062000Y-96175000D03*
%TO.P,J1,1*%
%TO.N,GND*%
X147062000Y-98715000D03*
%TO.P,J1,4*%
%TO.N,AFE_PACK+*%
X149602000Y-96175000D03*
%TO.P,J1,3*%
%TO.N,AFE_CHG_EN*%
X149602000Y-98715000D03*
%TO.P,J1,6*%
%TO.N,AFE_DSG*%
X152142000Y-96175000D03*
%TO.P,J1,5*%
%TO.N,AFE_BATT+*%
X152142000Y-98715000D03*
%TO.P,J1,7*%
%TO.N,AFE_PCHG*%
X154682000Y-98715000D03*
%TO.P,J1,8*%
%TO.N,AFE_CHG*%
X154682000Y-96175000D03*
%TD*%
D16*
%TO.P,R6,2*%
%TO.N,AFE_DSG*%
X156974500Y-84175000D03*
%TO.P,R6,1*%
%TO.N,Net-(U1-DSG)*%
X155149500Y-84175000D03*
%TD*%
D17*
%TO.P,R2,2*%
%TO.N,Net-(U1-PACK)*%
X155149500Y-88175000D03*
%TO.P,R2,1*%
%TO.N,AFE_PACK+*%
X156974500Y-88175000D03*
%TD*%
D18*
%TO.P,U1,1,VDDCP*%
%TO.N,Net-(U1-VDDCP)*%
X144124000Y-82900000D03*
%TO.P,U1,2,BAT*%
%TO.N,Net-(U1-BAT)*%
X144124000Y-83550000D03*
%TO.P,U1,3,NC*%
%TO.N,unconnected-(U1-NC-Pad3)*%
X144124000Y-84200000D03*
%TO.P,U1,4,CHG_EN*%
%TO.N,AFE_CHG_EN*%
X144124000Y-84850000D03*
%TO.P,U1,5,CP_EN*%
%TO.N,FUEL_GUAGE_CP_EN*%
X144124000Y-85500000D03*
%TO.P,U1,6,DSG_EN*%
%TO.N,AFE_DSG_EN*%
X144124000Y-86150000D03*
%TO.P,U1,7,PMON_EN*%
%TO.N,FUEL_GUAGE_PMON_EN*%
X144124000Y-86800000D03*
%TO.P,U1,8,PCHG_EN*%
%TO.N,FUEL_GUAGE_PCHG_EN*%
X144124000Y-87450000D03*
%TO.P,U1,9,VSS*%
%TO.N,GND*%
X150000000Y-87450000D03*
%TO.P,U1,10,PACKDIV*%
%TO.N,FUEL_GUAGE_PACKDIV*%
X150000000Y-86800000D03*
%TO.P,U1,11,PACK*%
%TO.N,Net-(U1-PACK)*%
X150000000Y-86150000D03*
%TO.P,U1,12,DSG*%
%TO.N,Net-(U1-DSG)*%
X150000000Y-85500000D03*
%TO.P,U1,13,NC*%
%TO.N,unconnected-(U1-NC-Pad13)*%
X150000000Y-84850000D03*
%TO.P,U1,14,PCHG*%
%TO.N,Net-(U1-PCHG)*%
X150000000Y-84200000D03*
%TO.P,U1,15,NC*%
%TO.N,unconnected-(U1-NC-Pad15)*%
X150000000Y-83550000D03*
%TO.P,U1,16,CHG*%
%TO.N,Net-(U1-CHG)*%
X150000000Y-82900000D03*
%TD*%
D17*
%TO.P,R5,1*%
%TO.N,Net-(U1-CHG)*%
X149974500Y-80675000D03*
%TO.P,R5,2*%
%TO.N,AFE_CHG*%
X148149500Y-80675000D03*
%TD*%
D16*
%TO.P,R4,1*%
%TO.N,Net-(U1-PCHG)*%
X153149500Y-82175000D03*
%TO.P,R4,2*%
%TO.N,AFE_PCHG*%
X154974500Y-82175000D03*
%TD*%
D19*
%TO.P,R3,1*%
%TO.N,Net-(U1-PACK)*%
X153062000Y-86175000D03*
%TO.P,R3,2*%
%TO.N,Net-(U1-DSG)*%
X153062000Y-84350000D03*
%TD*%
D17*
%TO.P,R1,1*%
%TO.N,Net-(U1-BAT)*%
X139062000Y-83175000D03*
%TO.P,R1,2*%
%TO.N,AFE_BATT+*%
X137237000Y-83175000D03*
%TD*%
D20*
%TO.P,C3,1*%
%TO.N,Net-(U1-VDDCP)*%
X141062000Y-81450000D03*
%TO.P,C3,2*%
%TO.N,Net-(U1-BAT)*%
X141062000Y-83175000D03*
%TD*%
D21*
%TO.P,C2,1*%
%TO.N,Net-(U1-PACK)*%
X155199500Y-86175000D03*
%TO.P,C2,2*%
%TO.N,GND*%
X156924500Y-86175000D03*
%TD*%
D22*
%TO.P,C1,1*%
%TO.N,Net-(U1-BAT)*%
X139062000Y-81175000D03*
%TO.P,C1,2*%
%TO.N,GND*%
X137337000Y-81175000D03*
%TD*%
D15*
%TO.P,J2,2*%
%TO.N,FUEL_GUAGE_PCHG_EN*%
X135562000Y-93095000D03*
%TO.P,J2,1*%
%TO.N,GND*%
X133022000Y-93095000D03*
%TO.P,J2,4*%
%TO.N,FUEL_GUAGE_PACKDIV*%
X135562000Y-95635000D03*
%TO.P,J2,3*%
%TO.N,FUEL_GUAGE_PMON_EN*%
X133022000Y-95635000D03*
%TO.P,J2,6*%
%TO.N,GND*%
X135562000Y-98175000D03*
%TO.P,J2,5*%
%TO.N,FUEL_GUAGE_CP_EN*%
X133022000Y-98175000D03*
%TD*%
D23*
%TO.N,AFE_CHG_EN*%
X147500000Y-85500000D03*
%TO.N,FUEL_GUAGE_PACKDIV*%
X146500000Y-86500000D03*
%TO.N,AFE_CHG*%
X148500000Y-82000000D03*
%TO.N,GND*%
X147000000Y-100500000D03*
X136000000Y-100500000D03*
X133000000Y-91000000D03*
X158250000Y-87250000D03*
X150062000Y-88675000D03*
X137062000Y-79675000D03*
%TD*%
D24*
%TO.N,GND*%
X157175000Y-86175000D02*
X156924500Y-86175000D01*
X158250000Y-87250000D02*
X157175000Y-86175000D01*
%TO.N,AFE_PCHG*%
X160000000Y-93397000D02*
X160000000Y-85944866D01*
X156230134Y-82175000D02*
X154974500Y-82175000D01*
X154682000Y-98715000D02*
X160000000Y-93397000D01*
X160000000Y-85944866D02*
X156230134Y-82175000D01*
%TO.N,AFE_DSG*%
X157411943Y-84175000D02*
X156974500Y-84175000D01*
X159500000Y-88817000D02*
X159500000Y-86263057D01*
X152142000Y-96175000D02*
X159500000Y-88817000D01*
X159500000Y-86263057D02*
X157411943Y-84175000D01*
%TO.N,AFE_CHG_EN*%
X146850000Y-84850000D02*
X144124000Y-84850000D01*
X147500000Y-85500000D02*
X146850000Y-84850000D01*
%TO.N,FUEL_GUAGE_PACKDIV*%
X146800000Y-86800000D02*
X150000000Y-86800000D01*
X146500000Y-86500000D02*
X146800000Y-86800000D01*
%TO.N,AFE_CHG*%
X148149500Y-81649500D02*
X148500000Y-82000000D01*
X148149500Y-80675000D02*
X148149500Y-81649500D01*
%TO.N,AFE_BATT+*%
X136325000Y-83175000D02*
X137237000Y-83175000D01*
X131495000Y-98240405D02*
X131495000Y-88005000D01*
X134355595Y-101101000D02*
X131495000Y-98240405D01*
X149756000Y-101101000D02*
X134355595Y-101101000D01*
X131495000Y-88005000D02*
X136325000Y-83175000D01*
X152142000Y-98715000D02*
X149756000Y-101101000D01*
%TO.N,FUEL_GUAGE_CP_EN*%
X131896000Y-91254057D02*
X137650057Y-85500000D01*
X131896000Y-97049000D02*
X131896000Y-91254057D01*
X133022000Y-98175000D02*
X131896000Y-97049000D01*
X137650057Y-85500000D02*
X144124000Y-85500000D01*
%TO.N,FUEL_GUAGE_PMON_EN*%
X134148000Y-94509000D02*
X134148000Y-92916595D01*
X133022000Y-95635000D02*
X134148000Y-94509000D01*
X134148000Y-92916595D02*
X140264595Y-86800000D01*
X140264595Y-86800000D02*
X144124000Y-86800000D01*
%TO.N,AFE_PACK+*%
X156974500Y-88802500D02*
X156974500Y-88175000D01*
X149602000Y-96175000D02*
X156974500Y-88802500D01*
%TO.N,AFE_DSG_EN*%
X145150000Y-86150000D02*
X144124000Y-86150000D01*
X147062000Y-88062000D02*
X145150000Y-86150000D01*
X147062000Y-96175000D02*
X147062000Y-88062000D01*
%TO.N,GND*%
X147062000Y-100438000D02*
X147000000Y-100500000D01*
X147062000Y-98715000D02*
X147062000Y-100438000D01*
X135562000Y-100062000D02*
X136000000Y-100500000D01*
X135562000Y-98175000D02*
X135562000Y-100062000D01*
X133022000Y-91022000D02*
X133000000Y-91000000D01*
X133022000Y-93095000D02*
X133022000Y-91022000D01*
%TO.N,Net-(U1-CHG)*%
X149974500Y-82874500D02*
X150000000Y-82900000D01*
X149974500Y-80675000D02*
X149974500Y-82874500D01*
%TO.N,Net-(U1-PCHG)*%
X151124500Y-84200000D02*
X150000000Y-84200000D01*
X153149500Y-82175000D02*
X151124500Y-84200000D01*
%TO.N,Net-(U1-DSG)*%
X155149500Y-84175000D02*
X153237000Y-84175000D01*
X153237000Y-84175000D02*
X153062000Y-84350000D01*
%TO.N,Net-(U1-PACK)*%
X155149500Y-88175000D02*
X155149500Y-86225000D01*
X155149500Y-86225000D02*
X155199500Y-86175000D01*
X155199500Y-86175000D02*
X153062000Y-86175000D01*
%TO.N,Net-(U1-DSG)*%
X151912000Y-85500000D02*
X150000000Y-85500000D01*
X153062000Y-84350000D02*
X151912000Y-85500000D01*
%TO.N,Net-(U1-PACK)*%
X152537000Y-86150000D02*
X150000000Y-86150000D01*
X152562000Y-86175000D02*
X152537000Y-86150000D01*
X153062000Y-86175000D02*
X152562000Y-86175000D01*
%TO.N,GND*%
X150000000Y-88613000D02*
X150062000Y-88675000D01*
X150000000Y-87450000D02*
X150000000Y-88613000D01*
X137337000Y-79950000D02*
X137062000Y-79675000D01*
X137337000Y-81175000D02*
X137337000Y-79950000D01*
%TO.N,Net-(U1-BAT)*%
X139062000Y-81175000D02*
X139062000Y-83175000D01*
X141062000Y-83175000D02*
X139062000Y-83175000D01*
%TO.N,Net-(U1-VDDCP)*%
X142512000Y-82900000D02*
X141062000Y-81450000D01*
X144124000Y-82900000D02*
X142512000Y-82900000D01*
%TO.N,Net-(U1-BAT)*%
X141062000Y-83175000D02*
X141437000Y-83550000D01*
X141437000Y-83550000D02*
X144124000Y-83550000D01*
%TO.N,FUEL_GUAGE_PCHG_EN*%
X144124000Y-87450000D02*
X142550000Y-87450000D01*
X136905000Y-93095000D02*
X135562000Y-93095000D01*
X142550000Y-87450000D02*
X136905000Y-93095000D01*
%TD*%
%TA.AperFunction,Conductor*%
%TO.N,GND*%
G36*
X145567201Y-87416883D02*
G01*
X145573680Y-87422915D01*
X146425181Y-88274416D01*
X146458666Y-88335739D01*
X146461500Y-88362097D01*
X146461500Y-94917337D01*
X146441815Y-94984376D01*
X146393798Y-95027820D01*
X146367299Y-95041322D01*
X146367290Y-95041327D01*
X146367286Y-95041330D01*
X146198495Y-95163965D01*
X146198493Y-95163967D01*
X146198492Y-95163967D01*
X146050966Y-95311493D01*
X145928330Y-95480285D01*
X145833612Y-95666179D01*
X145769137Y-95864610D01*
X145736500Y-96070675D01*
X145736500Y-96279324D01*
X145769137Y-96485389D01*
X145833612Y-96683820D01*
X145902485Y-96818990D01*
X145928330Y-96869714D01*
X146050965Y-97038505D01*
X146198495Y-97186035D01*
X146311022Y-97267791D01*
X146367287Y-97308671D01*
X146418561Y-97334796D01*
X146469358Y-97382770D01*
X146486153Y-97450591D01*
X146463616Y-97516726D01*
X146418563Y-97555765D01*
X146367555Y-97581755D01*
X146318180Y-97617627D01*
X146891766Y-98191212D01*
X146849708Y-98202482D01*
X146724292Y-98274890D01*
X146621890Y-98377292D01*
X146549482Y-98502708D01*
X146538212Y-98544765D01*
X145964627Y-97971180D01*
X145928757Y-98020552D01*
X145834075Y-98206372D01*
X145769626Y-98404727D01*
X145737000Y-98610720D01*
X145737000Y-98819279D01*
X145769626Y-99025272D01*
X145834075Y-99223627D01*
X145928759Y-99409451D01*
X145964627Y-99458818D01*
X145964627Y-99458819D01*
X146538212Y-98885234D01*
X146549482Y-98927292D01*
X146621890Y-99052708D01*
X146724292Y-99155110D01*
X146849708Y-99227518D01*
X146891765Y-99238787D01*
X146318179Y-99812371D01*
X146318180Y-99812372D01*
X146367543Y-99848236D01*
X146367556Y-99848244D01*
X146553372Y-99942924D01*
X146751727Y-100007373D01*
X146957721Y-100040000D01*
X147166279Y-100040000D01*
X147372272Y-100007373D01*
X147570627Y-99942924D01*
X147756451Y-99848240D01*
X147805818Y-99812372D01*
X147805818Y-99812371D01*
X147232234Y-99238787D01*
X147274292Y-99227518D01*
X147399708Y-99155110D01*
X147502110Y-99052708D01*
X147574518Y-98927292D01*
X147585787Y-98885234D01*
X148159371Y-99458818D01*
X148159372Y-99458818D01*
X148195242Y-99409449D01*
X148195242Y-99409448D01*
X148221233Y-99358438D01*
X148269206Y-99307642D01*
X148337027Y-99290846D01*
X148403162Y-99313383D01*
X148442203Y-99358437D01*
X148468330Y-99409714D01*
X148590965Y-99578505D01*
X148738495Y-99726035D01*
X148907286Y-99848670D01*
X148995116Y-99893421D01*
X149093179Y-99943387D01*
X149093181Y-99943387D01*
X149093184Y-99943389D01*
X149191048Y-99975187D01*
X149291610Y-100007862D01*
X149497676Y-100040500D01*
X149667903Y-100040500D01*
X149734942Y-100060185D01*
X149780697Y-100112989D01*
X149790641Y-100182147D01*
X149761616Y-100245703D01*
X149755584Y-100252181D01*
X149543584Y-100464181D01*
X149482261Y-100497666D01*
X149455903Y-100500500D01*
X134655692Y-100500500D01*
X134588653Y-100480815D01*
X134568011Y-100464181D01*
X133635867Y-99532037D01*
X133602382Y-99470714D01*
X133607366Y-99401022D01*
X133649238Y-99345089D01*
X133667254Y-99333871D01*
X133716712Y-99308671D01*
X133716711Y-99308671D01*
X133716714Y-99308670D01*
X133885505Y-99186035D01*
X134033035Y-99038505D01*
X134155670Y-98869714D01*
X134181796Y-98818437D01*
X134229769Y-98767642D01*
X134297590Y-98750846D01*
X134363725Y-98773383D01*
X134402766Y-98818437D01*
X134428759Y-98869451D01*
X134464627Y-98918818D01*
X134464627Y-98918819D01*
X135038212Y-98345234D01*
X135049482Y-98387292D01*
X135121890Y-98512708D01*
X135224292Y-98615110D01*
X135349708Y-98687518D01*
X135391765Y-98698787D01*
X134818179Y-99272371D01*
X134818180Y-99272372D01*
X134867543Y-99308236D01*
X134867556Y-99308244D01*
X135053372Y-99402924D01*
X135251727Y-99467373D01*
X135457721Y-99500000D01*
X135666279Y-99500000D01*
X135872272Y-99467373D01*
X136070627Y-99402924D01*
X136256451Y-99308240D01*
X136305818Y-99272372D01*
X136305818Y-99272371D01*
X135732234Y-98698787D01*
X135774292Y-98687518D01*
X135899708Y-98615110D01*
X136002110Y-98512708D01*
X136074518Y-98387292D01*
X136085787Y-98345234D01*
X136659371Y-98918818D01*
X136659372Y-98918818D01*
X136695240Y-98869451D01*
X136789924Y-98683625D01*
X136827647Y-98567530D01*
X136827647Y-98567529D01*
X136854373Y-98485272D01*
X136887000Y-98279279D01*
X136887000Y-98070720D01*
X136854373Y-97864727D01*
X136789924Y-97666372D01*
X136695244Y-97480556D01*
X136695236Y-97480543D01*
X136659372Y-97431180D01*
X136659371Y-97431179D01*
X136085787Y-98004764D01*
X136074518Y-97962708D01*
X136002110Y-97837292D01*
X135899708Y-97734890D01*
X135774292Y-97662482D01*
X135732233Y-97651212D01*
X136305819Y-97077627D01*
X136256451Y-97041759D01*
X136205437Y-97015766D01*
X136154641Y-96967791D01*
X136137846Y-96899970D01*
X136160384Y-96833835D01*
X136205438Y-96794796D01*
X136256712Y-96768671D01*
X136256711Y-96768671D01*
X136256714Y-96768670D01*
X136425505Y-96646035D01*
X136573035Y-96498505D01*
X136695670Y-96329714D01*
X136790389Y-96143816D01*
X136854862Y-95945389D01*
X136867656Y-95864610D01*
X136887500Y-95739324D01*
X136887500Y-95530675D01*
X136854862Y-95324610D01*
X136822187Y-95224047D01*
X136790389Y-95126184D01*
X136790387Y-95126181D01*
X136790387Y-95126179D01*
X136740270Y-95027820D01*
X136695670Y-94940286D01*
X136573035Y-94771495D01*
X136425505Y-94623965D01*
X136369241Y-94583086D01*
X136256712Y-94501328D01*
X136205990Y-94475485D01*
X136155194Y-94427511D01*
X136138398Y-94359690D01*
X136160935Y-94293555D01*
X136205990Y-94254515D01*
X136256712Y-94228671D01*
X136256711Y-94228671D01*
X136256714Y-94228670D01*
X136425505Y-94106035D01*
X136573035Y-93958505D01*
X136695670Y-93789714D01*
X136707897Y-93765717D01*
X136709176Y-93763207D01*
X136757150Y-93712411D01*
X136819661Y-93695501D01*
X136984054Y-93695501D01*
X136984057Y-93695501D01*
X137136785Y-93654577D01*
X137224705Y-93603816D01*
X137273716Y-93575520D01*
X137385520Y-93463716D01*
X137385520Y-93463714D01*
X137395724Y-93453511D01*
X137395727Y-93453506D01*
X142762417Y-88086819D01*
X142789344Y-88072115D01*
X142815163Y-88055523D01*
X142821363Y-88054631D01*
X142823740Y-88053334D01*
X142850098Y-88050500D01*
X143011665Y-88050500D01*
X143078704Y-88070185D01*
X143085976Y-88075233D01*
X143101453Y-88086819D01*
X143143573Y-88118350D01*
X143144168Y-88118795D01*
X143144171Y-88118797D01*
X143279017Y-88169091D01*
X143279016Y-88169091D01*
X143285944Y-88169835D01*
X143338627Y-88175500D01*
X144909372Y-88175499D01*
X144968983Y-88169091D01*
X145103831Y-88118796D01*
X145219046Y-88032546D01*
X145305296Y-87917331D01*
X145355591Y-87782483D01*
X145362000Y-87722873D01*
X145361999Y-87510595D01*
X145381683Y-87443557D01*
X145434487Y-87397802D01*
X145503645Y-87387858D01*
X145567201Y-87416883D01*
G37*
%TD.AperFunction*%
%TA.AperFunction,Conductor*%
G36*
X148403445Y-96773935D02*
G01*
X148442485Y-96818990D01*
X148468328Y-96869712D01*
X148550086Y-96982241D01*
X148590965Y-97038505D01*
X148738495Y-97186035D01*
X148907286Y-97308670D01*
X148954271Y-97332610D01*
X148958010Y-97334515D01*
X149008806Y-97382490D01*
X149025601Y-97450310D01*
X149003064Y-97516445D01*
X148958010Y-97555485D01*
X148907285Y-97581330D01*
X148738493Y-97703966D01*
X148590966Y-97851493D01*
X148468328Y-98020288D01*
X148442202Y-98071563D01*
X148394227Y-98122358D01*
X148326406Y-98139153D01*
X148260272Y-98116615D01*
X148221233Y-98071561D01*
X148195247Y-98020561D01*
X148195236Y-98020543D01*
X148159372Y-97971180D01*
X148159371Y-97971179D01*
X147585787Y-98544764D01*
X147574518Y-98502708D01*
X147502110Y-98377292D01*
X147399708Y-98274890D01*
X147274292Y-98202482D01*
X147232233Y-98191212D01*
X147805819Y-97617627D01*
X147756451Y-97581759D01*
X147705437Y-97555766D01*
X147654641Y-97507791D01*
X147637846Y-97439970D01*
X147660384Y-97373835D01*
X147705438Y-97334796D01*
X147751174Y-97311493D01*
X147756714Y-97308670D01*
X147925505Y-97186035D01*
X148073035Y-97038505D01*
X148195670Y-96869714D01*
X148221515Y-96818990D01*
X148269489Y-96768194D01*
X148337310Y-96751398D01*
X148403445Y-96773935D01*
G37*
%TD.AperFunction*%
%TA.AperFunction,Conductor*%
G36*
X134363445Y-96233935D02*
G01*
X134402485Y-96278990D01*
X134428328Y-96329712D01*
X134510086Y-96442241D01*
X134550965Y-96498505D01*
X134698495Y-96646035D01*
X134811022Y-96727791D01*
X134867287Y-96768671D01*
X134918561Y-96794796D01*
X134969358Y-96842770D01*
X134986153Y-96910591D01*
X134963616Y-96976726D01*
X134918563Y-97015765D01*
X134867555Y-97041755D01*
X134818180Y-97077627D01*
X135391766Y-97651212D01*
X135349708Y-97662482D01*
X135224292Y-97734890D01*
X135121890Y-97837292D01*
X135049482Y-97962708D01*
X135038212Y-98004765D01*
X134464627Y-97431180D01*
X134428755Y-97480555D01*
X134402765Y-97531563D01*
X134354790Y-97582358D01*
X134286969Y-97599153D01*
X134220834Y-97576615D01*
X134181796Y-97531561D01*
X134155671Y-97480287D01*
X134114791Y-97424022D01*
X134033035Y-97311495D01*
X133885505Y-97163965D01*
X133766672Y-97077627D01*
X133716712Y-97041328D01*
X133665990Y-97015485D01*
X133615194Y-96967511D01*
X133598398Y-96899690D01*
X133620935Y-96833555D01*
X133665990Y-96794515D01*
X133716712Y-96768671D01*
X133716711Y-96768671D01*
X133716714Y-96768670D01*
X133885505Y-96646035D01*
X134033035Y-96498505D01*
X134155670Y-96329714D01*
X134181515Y-96278990D01*
X134229489Y-96228194D01*
X134297310Y-96211398D01*
X134363445Y-96233935D01*
G37*
%TD.AperFunction*%
%TA.AperFunction,Conductor*%
G36*
X152156007Y-86770185D02*
G01*
X152194506Y-86809403D01*
X152241657Y-86885846D01*
X152241659Y-86885849D01*
X152241660Y-86885850D01*
X152363650Y-87007840D01*
X152510484Y-87098408D01*
X152674247Y-87152674D01*
X152775323Y-87163000D01*
X153348676Y-87162999D01*
X153348684Y-87162998D01*
X153348687Y-87162998D01*
X153404030Y-87157344D01*
X153449753Y-87152674D01*
X153613516Y-87098408D01*
X153760350Y-87007840D01*
X153882340Y-86885850D01*
X153914072Y-86834404D01*
X153921658Y-86827580D01*
X153925898Y-86818297D01*
X153947198Y-86804608D01*
X153966020Y-86787679D01*
X153977655Y-86785034D01*
X153984676Y-86780523D01*
X154019611Y-86775500D01*
X154187099Y-86775500D01*
X154254138Y-86795185D01*
X154292638Y-86834404D01*
X154316467Y-86873038D01*
X154316660Y-86873350D01*
X154438650Y-86995340D01*
X154490097Y-87027072D01*
X154496920Y-87034657D01*
X154506203Y-87038897D01*
X154519889Y-87060193D01*
X154536821Y-87079017D01*
X154539465Y-87090655D01*
X154543977Y-87097675D01*
X154549000Y-87132610D01*
X154549000Y-87217388D01*
X154529315Y-87284427D01*
X154490098Y-87322926D01*
X154438650Y-87354659D01*
X154316661Y-87476648D01*
X154226093Y-87623481D01*
X154226091Y-87623486D01*
X154217471Y-87649499D01*
X154171826Y-87787247D01*
X154171826Y-87787248D01*
X154171825Y-87787248D01*
X154161500Y-87888315D01*
X154161500Y-88461669D01*
X154161501Y-88461687D01*
X154171825Y-88562752D01*
X154226092Y-88726515D01*
X154226093Y-88726518D01*
X154260395Y-88782129D01*
X154316660Y-88873350D01*
X154438650Y-88995340D01*
X154585484Y-89085908D01*
X154749247Y-89140174D01*
X154850323Y-89150500D01*
X155448676Y-89150499D01*
X155467906Y-89148534D01*
X155536597Y-89161302D01*
X155587483Y-89209182D01*
X155604405Y-89276971D01*
X155581991Y-89343148D01*
X155568190Y-89359573D01*
X150066682Y-94861081D01*
X150005359Y-94894566D01*
X149940683Y-94891331D01*
X149912390Y-94882138D01*
X149706324Y-94849500D01*
X149706319Y-94849500D01*
X149497681Y-94849500D01*
X149497676Y-94849500D01*
X149291610Y-94882137D01*
X149093179Y-94946612D01*
X148907285Y-95041330D01*
X148738493Y-95163966D01*
X148590966Y-95311493D01*
X148468330Y-95480285D01*
X148442485Y-95531010D01*
X148394510Y-95581806D01*
X148326690Y-95598601D01*
X148260555Y-95576064D01*
X148221515Y-95531010D01*
X148195669Y-95480285D01*
X148082564Y-95324611D01*
X148073035Y-95311495D01*
X147925505Y-95163965D01*
X147756714Y-95041330D01*
X147756705Y-95041325D01*
X147756700Y-95041322D01*
X147730202Y-95027820D01*
X147679407Y-94979844D01*
X147662500Y-94917337D01*
X147662500Y-87982945D01*
X147662500Y-87982943D01*
X147621577Y-87830216D01*
X147596769Y-87787247D01*
X147542524Y-87693290D01*
X147542521Y-87693286D01*
X147542520Y-87693284D01*
X147461417Y-87612181D01*
X147427933Y-87550857D01*
X147432917Y-87481166D01*
X147474789Y-87425232D01*
X147540254Y-87400816D01*
X147549099Y-87400500D01*
X148887665Y-87400500D01*
X148908910Y-87406738D01*
X148930998Y-87408318D01*
X148950434Y-87418931D01*
X148954704Y-87420185D01*
X148961975Y-87425233D01*
X148997375Y-87451733D01*
X149039247Y-87507666D01*
X149044231Y-87577358D01*
X149010746Y-87638681D01*
X148949423Y-87672166D01*
X148923065Y-87675000D01*
X148762500Y-87675000D01*
X148762500Y-87722844D01*
X148768901Y-87782372D01*
X148768903Y-87782379D01*
X148819145Y-87917086D01*
X148819149Y-87917093D01*
X148905309Y-88032187D01*
X148905312Y-88032190D01*
X149020406Y-88118350D01*
X149020413Y-88118354D01*
X149155120Y-88168596D01*
X149155127Y-88168598D01*
X149214655Y-88174999D01*
X149214672Y-88175000D01*
X149775000Y-88175000D01*
X149775000Y-87649499D01*
X149777550Y-87640813D01*
X149776262Y-87631852D01*
X149787240Y-87607811D01*
X149794685Y-87582460D01*
X149801525Y-87576532D01*
X149805287Y-87568296D01*
X149827521Y-87554006D01*
X149847489Y-87536705D01*
X149858003Y-87534417D01*
X149864065Y-87530522D01*
X149898996Y-87525499D01*
X150101001Y-87525499D01*
X150168039Y-87545184D01*
X150213794Y-87597988D01*
X150225000Y-87649499D01*
X150225000Y-88175000D01*
X150785328Y-88175000D01*
X150785344Y-88174999D01*
X150844872Y-88168598D01*
X150844879Y-88168596D01*
X150979586Y-88118354D01*
X150979593Y-88118350D01*
X151094687Y-88032190D01*
X151094690Y-88032187D01*
X151180850Y-87917093D01*
X151180854Y-87917086D01*
X151231096Y-87782379D01*
X151231098Y-87782372D01*
X151237499Y-87722844D01*
X151237500Y-87722827D01*
X151237500Y-87675000D01*
X151076935Y-87675000D01*
X151009896Y-87655315D01*
X150964141Y-87602511D01*
X150954197Y-87533353D01*
X150983222Y-87469797D01*
X151002624Y-87451734D01*
X151070640Y-87400816D01*
X151095046Y-87382546D01*
X151181296Y-87267331D01*
X151231591Y-87132483D01*
X151238000Y-87072873D01*
X151237999Y-86874499D01*
X151257683Y-86807461D01*
X151310487Y-86761706D01*
X151361999Y-86750500D01*
X152088968Y-86750500D01*
X152156007Y-86770185D01*
G37*
%TD.AperFunction*%
%TA.AperFunction,Conductor*%
G36*
X158156300Y-85771216D02*
G01*
X158172722Y-85785015D01*
X158199453Y-85811745D01*
X158863181Y-86475473D01*
X158896666Y-86536796D01*
X158899500Y-86563154D01*
X158899500Y-88516902D01*
X158879815Y-88583941D01*
X158863181Y-88604583D01*
X152606682Y-94861081D01*
X152545359Y-94894566D01*
X152480683Y-94891331D01*
X152452390Y-94882138D01*
X152246324Y-94849500D01*
X152246319Y-94849500D01*
X152076096Y-94849500D01*
X152009057Y-94829815D01*
X151963302Y-94777011D01*
X151953358Y-94707853D01*
X151982383Y-94644297D01*
X151988415Y-94637819D01*
X153318942Y-93307292D01*
X157343213Y-89283021D01*
X157343216Y-89283020D01*
X157455020Y-89171216D01*
X157478990Y-89129696D01*
X157487534Y-89120143D01*
X157506760Y-89108207D01*
X157523140Y-89092589D01*
X157533761Y-89088124D01*
X157538506Y-89085911D01*
X157538516Y-89085908D01*
X157685350Y-88995340D01*
X157807340Y-88873350D01*
X157897908Y-88726516D01*
X157952174Y-88562753D01*
X157962500Y-88461677D01*
X157962499Y-87888324D01*
X157952174Y-87787247D01*
X157897908Y-87623484D01*
X157807340Y-87476650D01*
X157685350Y-87354660D01*
X157685346Y-87354657D01*
X157564704Y-87280244D01*
X157517979Y-87228297D01*
X157506758Y-87159334D01*
X157534601Y-87095252D01*
X157564704Y-87069167D01*
X157685039Y-86994943D01*
X157806944Y-86873038D01*
X157806947Y-86873034D01*
X157897448Y-86726311D01*
X157897453Y-86726300D01*
X157951680Y-86562652D01*
X157961999Y-86461654D01*
X157962000Y-86461641D01*
X157962000Y-86425000D01*
X157048500Y-86425000D01*
X156981461Y-86405315D01*
X156935706Y-86352511D01*
X156924500Y-86301000D01*
X156924500Y-86049000D01*
X156944185Y-85981961D01*
X156996989Y-85936206D01*
X157048500Y-85925000D01*
X157961999Y-85925000D01*
X157961999Y-85888360D01*
X157961998Y-85888357D01*
X157961687Y-85885306D01*
X157974454Y-85816612D01*
X158022333Y-85765726D01*
X158090122Y-85748803D01*
X158156300Y-85771216D01*
G37*
%TD.AperFunction*%
%TA.AperFunction,Conductor*%
G36*
X139883006Y-86120185D02*
G01*
X139928761Y-86172989D01*
X139938705Y-86242147D01*
X139909680Y-86305703D01*
X139901399Y-86313506D01*
X139901626Y-86313733D01*
X133667481Y-92547877D01*
X133667475Y-92547885D01*
X133629028Y-92614479D01*
X133629028Y-92614480D01*
X133588423Y-92684810D01*
X133547499Y-92837538D01*
X133547499Y-92837540D01*
X133547499Y-92871692D01*
X133539168Y-92900062D01*
X133534518Y-92882708D01*
X133462110Y-92757292D01*
X133359708Y-92654890D01*
X133234292Y-92582482D01*
X133192233Y-92571212D01*
X133765819Y-91997627D01*
X133716451Y-91961759D01*
X133530627Y-91867075D01*
X133332272Y-91802626D01*
X133126279Y-91770000D01*
X132917721Y-91770000D01*
X132711728Y-91802625D01*
X132658817Y-91819817D01*
X132630693Y-91820619D01*
X132602853Y-91824623D01*
X132596241Y-91821603D01*
X132588975Y-91821811D01*
X132564886Y-91807284D01*
X132539297Y-91795598D01*
X132535366Y-91789482D01*
X132529143Y-91785729D01*
X132516732Y-91760487D01*
X132501523Y-91736820D01*
X132500045Y-91726546D01*
X132498316Y-91723028D01*
X132496500Y-91701885D01*
X132496500Y-91554154D01*
X132516185Y-91487115D01*
X132532819Y-91466473D01*
X137862473Y-86136819D01*
X137923796Y-86103334D01*
X137950154Y-86100500D01*
X139815967Y-86100500D01*
X139883006Y-86120185D01*
G37*
%TD.AperFunction*%
%TA.AperFunction,Conductor*%
G36*
X165942539Y-73020185D02*
G01*
X165988294Y-73072989D01*
X165999500Y-73124500D01*
X165999500Y-109375500D01*
X165979815Y-109442539D01*
X165927011Y-109488294D01*
X165875500Y-109499500D01*
X123624500Y-109499500D01*
X123557461Y-109479815D01*
X123511706Y-109427011D01*
X123500500Y-109375500D01*
X123500500Y-98319459D01*
X130894498Y-98319459D01*
X130894499Y-98319462D01*
X130935423Y-98472190D01*
X130943040Y-98485383D01*
X130943042Y-98485391D01*
X130943045Y-98485390D01*
X130967965Y-98528553D01*
X131014479Y-98609119D01*
X131014481Y-98609122D01*
X131133349Y-98727990D01*
X131133355Y-98727995D01*
X133870734Y-101465374D01*
X133870744Y-101465385D01*
X133875074Y-101469715D01*
X133875075Y-101469716D01*
X133986879Y-101581520D01*
X134073690Y-101631639D01*
X134073692Y-101631641D01*
X134123808Y-101660576D01*
X134123810Y-101660577D01*
X134276537Y-101701500D01*
X134276538Y-101701500D01*
X149669331Y-101701500D01*
X149669347Y-101701501D01*
X149676943Y-101701501D01*
X149835054Y-101701501D01*
X149835057Y-101701501D01*
X149987785Y-101660577D01*
X150037904Y-101631639D01*
X150124716Y-101581520D01*
X150236520Y-101469716D01*
X150236520Y-101469714D01*
X150246728Y-101459507D01*
X150246729Y-101459504D01*
X151677318Y-100028916D01*
X151738639Y-99995433D01*
X151803317Y-99998669D01*
X151831603Y-100007860D01*
X151831606Y-100007860D01*
X151831611Y-100007862D01*
X151927051Y-100022978D01*
X152037676Y-100040500D01*
X152037681Y-100040500D01*
X152246324Y-100040500D01*
X152452389Y-100007862D01*
X152490641Y-99995433D01*
X152650816Y-99943389D01*
X152836714Y-99848670D01*
X153005505Y-99726035D01*
X153153035Y-99578505D01*
X153275670Y-99409714D01*
X153301515Y-99358990D01*
X153349489Y-99308194D01*
X153417310Y-99291398D01*
X153483445Y-99313935D01*
X153522485Y-99358990D01*
X153548328Y-99409712D01*
X153613927Y-99500000D01*
X153670965Y-99578505D01*
X153818495Y-99726035D01*
X153987286Y-99848670D01*
X154075116Y-99893421D01*
X154173179Y-99943387D01*
X154173181Y-99943387D01*
X154173184Y-99943389D01*
X154271048Y-99975187D01*
X154371610Y-100007862D01*
X154577676Y-100040500D01*
X154577681Y-100040500D01*
X154786324Y-100040500D01*
X154992389Y-100007862D01*
X155030641Y-99995433D01*
X155190816Y-99943389D01*
X155376714Y-99848670D01*
X155545505Y-99726035D01*
X155693035Y-99578505D01*
X155815670Y-99409714D01*
X155910389Y-99223816D01*
X155974862Y-99025389D01*
X155991741Y-98918818D01*
X156007500Y-98819324D01*
X156007500Y-98610675D01*
X155974880Y-98404727D01*
X155974862Y-98404611D01*
X155974860Y-98404606D01*
X155974860Y-98404603D01*
X155965669Y-98376317D01*
X155963672Y-98306476D01*
X155995916Y-98250318D01*
X160480520Y-93765716D01*
X160559577Y-93628784D01*
X160600501Y-93476057D01*
X160600501Y-93317942D01*
X160600501Y-93310347D01*
X160600500Y-93310329D01*
X160600500Y-86033926D01*
X160600501Y-86033913D01*
X160600501Y-85865810D01*
X160593116Y-85838250D01*
X160559577Y-85713082D01*
X160507848Y-85623484D01*
X160480524Y-85576156D01*
X160480518Y-85576148D01*
X156717724Y-81813355D01*
X156717722Y-81813352D01*
X156598851Y-81694481D01*
X156598850Y-81694480D01*
X156512038Y-81644360D01*
X156512038Y-81644359D01*
X156512034Y-81644358D01*
X156461919Y-81615423D01*
X156309191Y-81574499D01*
X156151077Y-81574499D01*
X156143481Y-81574499D01*
X156143465Y-81574500D01*
X155936901Y-81574500D01*
X155869862Y-81554815D01*
X155831362Y-81515596D01*
X155807340Y-81476650D01*
X155685351Y-81354661D01*
X155685350Y-81354660D01*
X155538516Y-81264092D01*
X155374753Y-81209826D01*
X155374751Y-81209825D01*
X155273678Y-81199500D01*
X154675330Y-81199500D01*
X154675312Y-81199501D01*
X154574247Y-81209825D01*
X154410484Y-81264092D01*
X154410481Y-81264093D01*
X154263648Y-81354661D01*
X154149681Y-81468629D01*
X154088358Y-81502114D01*
X154018666Y-81497130D01*
X153974319Y-81468629D01*
X153860351Y-81354661D01*
X153860350Y-81354660D01*
X153713516Y-81264092D01*
X153549753Y-81209826D01*
X153549751Y-81209825D01*
X153448678Y-81199500D01*
X152850330Y-81199500D01*
X152850312Y-81199501D01*
X152749247Y-81209825D01*
X152585484Y-81264092D01*
X152585481Y-81264093D01*
X152438648Y-81354661D01*
X152316661Y-81476648D01*
X152226093Y-81623481D01*
X152226091Y-81623486D01*
X152219174Y-81644360D01*
X152171826Y-81787247D01*
X152171826Y-81787248D01*
X152171825Y-81787248D01*
X152161500Y-81888315D01*
X152161500Y-82262402D01*
X152141815Y-82329441D01*
X152125181Y-82350083D01*
X151449680Y-83025583D01*
X151388357Y-83059068D01*
X151318665Y-83054084D01*
X151262732Y-83012212D01*
X151238315Y-82946748D01*
X151237999Y-82937917D01*
X151237999Y-82627128D01*
X151231591Y-82567517D01*
X151231002Y-82565939D01*
X151181297Y-82432671D01*
X151181293Y-82432664D01*
X151095047Y-82317455D01*
X151095044Y-82317452D01*
X150979835Y-82231206D01*
X150979828Y-82231202D01*
X150844982Y-82180908D01*
X150844983Y-82180908D01*
X150785383Y-82174501D01*
X150785381Y-82174500D01*
X150785373Y-82174500D01*
X150785365Y-82174500D01*
X150699000Y-82174500D01*
X150631961Y-82154815D01*
X150586206Y-82102011D01*
X150575000Y-82050500D01*
X150575000Y-81632610D01*
X150594685Y-81565571D01*
X150633901Y-81527073D01*
X150685350Y-81495340D01*
X150807340Y-81373350D01*
X150897908Y-81226516D01*
X150952174Y-81062753D01*
X150962500Y-80961677D01*
X150962499Y-80388324D01*
X150960523Y-80368984D01*
X150952174Y-80287247D01*
X150944653Y-80264551D01*
X150897908Y-80123484D01*
X150807340Y-79976650D01*
X150685350Y-79854660D01*
X150538516Y-79764092D01*
X150374753Y-79709826D01*
X150374751Y-79709825D01*
X150273678Y-79699500D01*
X149675330Y-79699500D01*
X149675312Y-79699501D01*
X149574247Y-79709825D01*
X149410484Y-79764092D01*
X149410481Y-79764093D01*
X149263648Y-79854661D01*
X149149681Y-79968629D01*
X149088358Y-80002114D01*
X149018666Y-79997130D01*
X148974319Y-79968629D01*
X148860351Y-79854661D01*
X148860350Y-79854660D01*
X148713516Y-79764092D01*
X148549753Y-79709826D01*
X148549751Y-79709825D01*
X148448678Y-79699500D01*
X147850330Y-79699500D01*
X147850312Y-79699501D01*
X147749247Y-79709825D01*
X147585484Y-79764092D01*
X147585481Y-79764093D01*
X147438648Y-79854661D01*
X147316661Y-79976648D01*
X147226093Y-80123481D01*
X147226092Y-80123484D01*
X147171826Y-80287247D01*
X147171826Y-80287248D01*
X147171825Y-80287248D01*
X147161500Y-80388315D01*
X147161500Y-80961669D01*
X147161501Y-80961687D01*
X147171825Y-81062752D01*
X147190146Y-81118039D01*
X147220561Y-81209826D01*
X147226092Y-81226515D01*
X147226093Y-81226518D01*
X147249268Y-81264091D01*
X147316660Y-81373350D01*
X147438650Y-81495340D01*
X147490095Y-81527071D01*
X147536820Y-81579018D01*
X147548999Y-81632610D01*
X147548999Y-81728554D01*
X147548998Y-81728554D01*
X147588119Y-81874555D01*
X147589923Y-81881285D01*
X147612820Y-81920943D01*
X147668980Y-82018216D01*
X147676037Y-82025273D01*
X147683810Y-82038107D01*
X147689069Y-82057961D01*
X147698911Y-82075985D01*
X147699362Y-82078151D01*
X147730261Y-82233491D01*
X147730264Y-82233501D01*
X147790602Y-82379172D01*
X147790609Y-82379185D01*
X147878210Y-82510288D01*
X147878213Y-82510292D01*
X147989707Y-82621786D01*
X147989711Y-82621789D01*
X148120814Y-82709390D01*
X148120827Y-82709397D01*
X148237998Y-82757930D01*
X148266503Y-82769737D01*
X148417498Y-82799772D01*
X148421153Y-82800499D01*
X148421156Y-82800500D01*
X148421158Y-82800500D01*
X148578844Y-82800500D01*
X148613808Y-82793545D01*
X148683399Y-82799772D01*
X148738577Y-82842634D01*
X148761822Y-82908524D01*
X148762000Y-82915162D01*
X148762000Y-83172868D01*
X148762001Y-83172878D01*
X148766179Y-83211745D01*
X148766179Y-83238250D01*
X148762000Y-83277122D01*
X148762000Y-83822869D01*
X148762001Y-83822878D01*
X148766179Y-83861745D01*
X148766179Y-83888250D01*
X148762000Y-83927122D01*
X148762000Y-84472869D01*
X148762001Y-84472878D01*
X148766179Y-84511745D01*
X148766179Y-84538250D01*
X148762000Y-84577122D01*
X148762000Y-85122869D01*
X148762001Y-85122878D01*
X148766179Y-85161745D01*
X148766179Y-85188250D01*
X148762000Y-85227122D01*
X148762000Y-85772869D01*
X148762001Y-85772878D01*
X148766179Y-85811745D01*
X148766179Y-85838250D01*
X148762000Y-85877122D01*
X148762000Y-85877127D01*
X148762000Y-86033926D01*
X148762001Y-86075499D01*
X148742317Y-86142539D01*
X148689513Y-86188294D01*
X148638001Y-86199500D01*
X148227350Y-86199500D01*
X148160311Y-86179815D01*
X148114556Y-86127011D01*
X148104612Y-86057853D01*
X148124248Y-86006609D01*
X148209390Y-85879185D01*
X148209390Y-85879184D01*
X148209394Y-85879179D01*
X148269737Y-85733497D01*
X148300500Y-85578842D01*
X148300500Y-85421158D01*
X148300500Y-85421155D01*
X148300499Y-85421153D01*
X148296104Y-85399057D01*
X148269737Y-85266503D01*
X148253425Y-85227122D01*
X148209397Y-85120827D01*
X148209390Y-85120814D01*
X148121789Y-84989711D01*
X148121786Y-84989707D01*
X148010292Y-84878213D01*
X148010288Y-84878210D01*
X147879185Y-84790609D01*
X147879172Y-84790602D01*
X147733501Y-84730264D01*
X147733491Y-84730261D01*
X147578149Y-84699361D01*
X147516238Y-84666976D01*
X147514660Y-84665425D01*
X147337590Y-84488355D01*
X147337588Y-84488352D01*
X147218717Y-84369481D01*
X147218716Y-84369480D01*
X147131904Y-84319360D01*
X147131904Y-84319359D01*
X147131900Y-84319358D01*
X147081785Y-84290423D01*
X146929057Y-84249499D01*
X146770943Y-84249499D01*
X146763347Y-84249499D01*
X146763331Y-84249500D01*
X145486000Y-84249500D01*
X145418961Y-84229815D01*
X145373206Y-84177011D01*
X145362000Y-84125501D01*
X145361999Y-83927128D01*
X145361998Y-83927111D01*
X145357820Y-83888253D01*
X145357820Y-83861745D01*
X145362000Y-83822873D01*
X145361999Y-83277128D01*
X145361999Y-83277127D01*
X145361998Y-83277111D01*
X145357820Y-83238253D01*
X145357820Y-83211745D01*
X145362000Y-83172873D01*
X145361999Y-82627128D01*
X145355591Y-82567517D01*
X145355002Y-82565939D01*
X145305297Y-82432671D01*
X145305293Y-82432664D01*
X145219047Y-82317455D01*
X145219044Y-82317452D01*
X145103835Y-82231206D01*
X145103828Y-82231202D01*
X144968982Y-82180908D01*
X144968983Y-82180908D01*
X144909383Y-82174501D01*
X144909381Y-82174500D01*
X144909373Y-82174500D01*
X144909364Y-82174500D01*
X143338629Y-82174500D01*
X143338623Y-82174501D01*
X143279016Y-82180908D01*
X143144171Y-82231202D01*
X143144168Y-82231204D01*
X143085976Y-82274767D01*
X143065228Y-82282505D01*
X143046600Y-82294477D01*
X143024681Y-82297628D01*
X143020511Y-82299184D01*
X143011665Y-82299500D01*
X142812098Y-82299500D01*
X142745059Y-82279815D01*
X142724417Y-82263181D01*
X142073818Y-81612582D01*
X142040333Y-81551259D01*
X142037499Y-81524901D01*
X142037499Y-81100830D01*
X142037498Y-81100813D01*
X142027174Y-80999747D01*
X142002405Y-80925000D01*
X141972908Y-80835984D01*
X141882340Y-80689150D01*
X141760350Y-80567160D01*
X141614121Y-80476965D01*
X141613518Y-80476593D01*
X141613513Y-80476591D01*
X141612069Y-80476112D01*
X141449753Y-80422326D01*
X141449751Y-80422325D01*
X141348678Y-80412000D01*
X140775330Y-80412000D01*
X140775312Y-80412001D01*
X140674247Y-80422325D01*
X140510484Y-80476592D01*
X140510481Y-80476593D01*
X140363651Y-80567159D01*
X140245238Y-80685572D01*
X140183915Y-80719056D01*
X140114223Y-80714072D01*
X140058290Y-80672200D01*
X140039851Y-80636893D01*
X140035475Y-80623688D01*
X140035408Y-80623484D01*
X139944840Y-80476650D01*
X139822850Y-80354660D01*
X139713556Y-80287247D01*
X139676018Y-80264093D01*
X139676013Y-80264091D01*
X139674569Y-80263612D01*
X139512253Y-80209826D01*
X139512251Y-80209825D01*
X139411178Y-80199500D01*
X138712830Y-80199500D01*
X138712812Y-80199501D01*
X138611747Y-80209825D01*
X138447984Y-80264092D01*
X138447981Y-80264093D01*
X138301148Y-80354661D01*
X138286825Y-80368984D01*
X138225501Y-80402468D01*
X138155809Y-80397482D01*
X138111465Y-80368982D01*
X138097538Y-80355055D01*
X138097534Y-80355052D01*
X137950811Y-80264551D01*
X137950800Y-80264546D01*
X137787152Y-80210319D01*
X137686154Y-80200000D01*
X137587000Y-80200000D01*
X137587000Y-81051000D01*
X137567315Y-81118039D01*
X137514511Y-81163794D01*
X137463000Y-81175000D01*
X137337000Y-81175000D01*
X137337000Y-81301000D01*
X137317315Y-81368039D01*
X137264511Y-81413794D01*
X137213000Y-81425000D01*
X136299501Y-81425000D01*
X136299501Y-81461654D01*
X136309819Y-81562652D01*
X136364046Y-81726300D01*
X136364051Y-81726311D01*
X136454552Y-81873034D01*
X136454555Y-81873038D01*
X136576461Y-81994944D01*
X136576465Y-81994947D01*
X136671795Y-82053748D01*
X136718520Y-82105696D01*
X136729741Y-82174658D01*
X136701898Y-82238740D01*
X136671795Y-82264824D01*
X136526153Y-82354657D01*
X136526149Y-82354660D01*
X136404160Y-82476649D01*
X136404157Y-82476653D01*
X136380137Y-82515596D01*
X136328189Y-82562321D01*
X136274599Y-82574499D01*
X136245943Y-82574499D01*
X136169579Y-82594961D01*
X136093214Y-82615423D01*
X136093209Y-82615426D01*
X135956290Y-82694475D01*
X135956282Y-82694481D01*
X131014479Y-87636284D01*
X130993764Y-87672166D01*
X130980881Y-87694480D01*
X130935423Y-87773215D01*
X130894499Y-87925943D01*
X130894499Y-88084057D01*
X130894499Y-88084059D01*
X130894500Y-88094053D01*
X130894500Y-98153735D01*
X130894499Y-98153753D01*
X130894499Y-98319459D01*
X130894498Y-98319459D01*
X123500500Y-98319459D01*
X123500500Y-80888345D01*
X136299500Y-80888345D01*
X136299500Y-80925000D01*
X137087000Y-80925000D01*
X137087000Y-80199999D01*
X136987860Y-80200000D01*
X136987844Y-80200001D01*
X136886847Y-80210319D01*
X136723199Y-80264546D01*
X136723188Y-80264551D01*
X136576465Y-80355052D01*
X136576461Y-80355055D01*
X136454555Y-80476961D01*
X136454552Y-80476965D01*
X136364051Y-80623688D01*
X136364046Y-80623699D01*
X136309819Y-80787347D01*
X136299500Y-80888345D01*
X123500500Y-80888345D01*
X123500500Y-73124500D01*
X123520185Y-73057461D01*
X123572989Y-73011706D01*
X123624500Y-73000500D01*
X165875500Y-73000500D01*
X165942539Y-73020185D01*
G37*
%TD.AperFunction*%
%TD*%
M02*
