%TF.GenerationSoftware,KiCad,Pcbnew,9.0.5*%
%TF.CreationDate,2025-10-24T18:43:04-05:00*%
%TF.ProjectId,STAR_GATE_DRIVER,53544152-5f47-4415-9445-5f4452495645,rev?*%
%TF.SameCoordinates,Original*%
%TF.FileFunction,Copper,L2,Bot*%
%TF.FilePolarity,Positive*%
%FSLAX46Y46*%
G04 Gerber Fmt 4.6, Leading zero omitted, Abs format (unit mm)*
G04 Created by KiCad (PCBNEW 9.0.5) date 2025-10-24 18:43:04*
%MOMM*%
%LPD*%
G01*
G04 APERTURE LIST*
%ADD10C,0.100000*%
%ADD11C,0.150000*%
%ADD12C,0.300000*%
%ADD13C,0.400000*%
%TA.AperFunction,ComponentPad*%
%ADD14C,5.000000*%
%TD*%
%TA.AperFunction,ComponentPad*%
%ADD15C,1.650000*%
%TD*%
%TA.AperFunction,ViaPad*%
%ADD16C,0.600000*%
%TD*%
%TA.AperFunction,Conductor*%
%ADD17C,0.200000*%
%TD*%
G04 APERTURE END LIST*
D10*
D11*
X177002200Y-166007200D02*
X285002200Y-166007200D01*
X285002200Y-198007200D01*
X177002200Y-198007200D01*
X177002200Y-166007200D01*
D10*
D11*
X10000000Y-10000000D02*
X287002200Y-10000000D01*
X287002200Y-200007200D01*
X10000000Y-200007200D01*
X10000000Y-10000000D01*
D10*
D11*
X12000000Y-12000000D02*
X285002200Y-12000000D01*
X285002200Y-198007200D01*
X12000000Y-198007200D01*
X12000000Y-12000000D01*
D10*
D11*
X60000000Y-12000000D02*
X60000000Y-10000000D01*
D10*
D11*
X110000000Y-12000000D02*
X110000000Y-10000000D01*
D10*
D11*
X160000000Y-12000000D02*
X160000000Y-10000000D01*
D10*
D11*
X210000000Y-12000000D02*
X210000000Y-10000000D01*
D10*
D11*
X260000000Y-12000000D02*
X260000000Y-10000000D01*
D10*
D11*
X36089160Y-11593604D02*
X35346303Y-11593604D01*
X35717731Y-11593604D02*
X35717731Y-10293604D01*
X35717731Y-10293604D02*
X35593922Y-10479319D01*
X35593922Y-10479319D02*
X35470112Y-10603128D01*
X35470112Y-10603128D02*
X35346303Y-10665033D01*
D10*
D11*
X85346303Y-10417414D02*
X85408207Y-10355509D01*
X85408207Y-10355509D02*
X85532017Y-10293604D01*
X85532017Y-10293604D02*
X85841541Y-10293604D01*
X85841541Y-10293604D02*
X85965350Y-10355509D01*
X85965350Y-10355509D02*
X86027255Y-10417414D01*
X86027255Y-10417414D02*
X86089160Y-10541223D01*
X86089160Y-10541223D02*
X86089160Y-10665033D01*
X86089160Y-10665033D02*
X86027255Y-10850747D01*
X86027255Y-10850747D02*
X85284398Y-11593604D01*
X85284398Y-11593604D02*
X86089160Y-11593604D01*
D10*
D11*
X135284398Y-10293604D02*
X136089160Y-10293604D01*
X136089160Y-10293604D02*
X135655826Y-10788842D01*
X135655826Y-10788842D02*
X135841541Y-10788842D01*
X135841541Y-10788842D02*
X135965350Y-10850747D01*
X135965350Y-10850747D02*
X136027255Y-10912652D01*
X136027255Y-10912652D02*
X136089160Y-11036461D01*
X136089160Y-11036461D02*
X136089160Y-11345985D01*
X136089160Y-11345985D02*
X136027255Y-11469795D01*
X136027255Y-11469795D02*
X135965350Y-11531700D01*
X135965350Y-11531700D02*
X135841541Y-11593604D01*
X135841541Y-11593604D02*
X135470112Y-11593604D01*
X135470112Y-11593604D02*
X135346303Y-11531700D01*
X135346303Y-11531700D02*
X135284398Y-11469795D01*
D10*
D11*
X185965350Y-10726938D02*
X185965350Y-11593604D01*
X185655826Y-10231700D02*
X185346303Y-11160271D01*
X185346303Y-11160271D02*
X186151064Y-11160271D01*
D10*
D11*
X236027255Y-10293604D02*
X235408207Y-10293604D01*
X235408207Y-10293604D02*
X235346303Y-10912652D01*
X235346303Y-10912652D02*
X235408207Y-10850747D01*
X235408207Y-10850747D02*
X235532017Y-10788842D01*
X235532017Y-10788842D02*
X235841541Y-10788842D01*
X235841541Y-10788842D02*
X235965350Y-10850747D01*
X235965350Y-10850747D02*
X236027255Y-10912652D01*
X236027255Y-10912652D02*
X236089160Y-11036461D01*
X236089160Y-11036461D02*
X236089160Y-11345985D01*
X236089160Y-11345985D02*
X236027255Y-11469795D01*
X236027255Y-11469795D02*
X235965350Y-11531700D01*
X235965350Y-11531700D02*
X235841541Y-11593604D01*
X235841541Y-11593604D02*
X235532017Y-11593604D01*
X235532017Y-11593604D02*
X235408207Y-11531700D01*
X235408207Y-11531700D02*
X235346303Y-11469795D01*
D10*
D11*
X285965350Y-10293604D02*
X285717731Y-10293604D01*
X285717731Y-10293604D02*
X285593922Y-10355509D01*
X285593922Y-10355509D02*
X285532017Y-10417414D01*
X285532017Y-10417414D02*
X285408207Y-10603128D01*
X285408207Y-10603128D02*
X285346303Y-10850747D01*
X285346303Y-10850747D02*
X285346303Y-11345985D01*
X285346303Y-11345985D02*
X285408207Y-11469795D01*
X285408207Y-11469795D02*
X285470112Y-11531700D01*
X285470112Y-11531700D02*
X285593922Y-11593604D01*
X285593922Y-11593604D02*
X285841541Y-11593604D01*
X285841541Y-11593604D02*
X285965350Y-11531700D01*
X285965350Y-11531700D02*
X286027255Y-11469795D01*
X286027255Y-11469795D02*
X286089160Y-11345985D01*
X286089160Y-11345985D02*
X286089160Y-11036461D01*
X286089160Y-11036461D02*
X286027255Y-10912652D01*
X286027255Y-10912652D02*
X285965350Y-10850747D01*
X285965350Y-10850747D02*
X285841541Y-10788842D01*
X285841541Y-10788842D02*
X285593922Y-10788842D01*
X285593922Y-10788842D02*
X285470112Y-10850747D01*
X285470112Y-10850747D02*
X285408207Y-10912652D01*
X285408207Y-10912652D02*
X285346303Y-11036461D01*
D10*
D11*
X60000000Y-198007200D02*
X60000000Y-200007200D01*
D10*
D11*
X110000000Y-198007200D02*
X110000000Y-200007200D01*
D10*
D11*
X160000000Y-198007200D02*
X160000000Y-200007200D01*
D10*
D11*
X210000000Y-198007200D02*
X210000000Y-200007200D01*
D10*
D11*
X260000000Y-198007200D02*
X260000000Y-200007200D01*
D10*
D11*
X36089160Y-199600804D02*
X35346303Y-199600804D01*
X35717731Y-199600804D02*
X35717731Y-198300804D01*
X35717731Y-198300804D02*
X35593922Y-198486519D01*
X35593922Y-198486519D02*
X35470112Y-198610328D01*
X35470112Y-198610328D02*
X35346303Y-198672233D01*
D10*
D11*
X85346303Y-198424614D02*
X85408207Y-198362709D01*
X85408207Y-198362709D02*
X85532017Y-198300804D01*
X85532017Y-198300804D02*
X85841541Y-198300804D01*
X85841541Y-198300804D02*
X85965350Y-198362709D01*
X85965350Y-198362709D02*
X86027255Y-198424614D01*
X86027255Y-198424614D02*
X86089160Y-198548423D01*
X86089160Y-198548423D02*
X86089160Y-198672233D01*
X86089160Y-198672233D02*
X86027255Y-198857947D01*
X86027255Y-198857947D02*
X85284398Y-199600804D01*
X85284398Y-199600804D02*
X86089160Y-199600804D01*
D10*
D11*
X135284398Y-198300804D02*
X136089160Y-198300804D01*
X136089160Y-198300804D02*
X135655826Y-198796042D01*
X135655826Y-198796042D02*
X135841541Y-198796042D01*
X135841541Y-198796042D02*
X135965350Y-198857947D01*
X135965350Y-198857947D02*
X136027255Y-198919852D01*
X136027255Y-198919852D02*
X136089160Y-199043661D01*
X136089160Y-199043661D02*
X136089160Y-199353185D01*
X136089160Y-199353185D02*
X136027255Y-199476995D01*
X136027255Y-199476995D02*
X135965350Y-199538900D01*
X135965350Y-199538900D02*
X135841541Y-199600804D01*
X135841541Y-199600804D02*
X135470112Y-199600804D01*
X135470112Y-199600804D02*
X135346303Y-199538900D01*
X135346303Y-199538900D02*
X135284398Y-199476995D01*
D10*
D11*
X185965350Y-198734138D02*
X185965350Y-199600804D01*
X185655826Y-198238900D02*
X185346303Y-199167471D01*
X185346303Y-199167471D02*
X186151064Y-199167471D01*
D10*
D11*
X236027255Y-198300804D02*
X235408207Y-198300804D01*
X235408207Y-198300804D02*
X235346303Y-198919852D01*
X235346303Y-198919852D02*
X235408207Y-198857947D01*
X235408207Y-198857947D02*
X235532017Y-198796042D01*
X235532017Y-198796042D02*
X235841541Y-198796042D01*
X235841541Y-198796042D02*
X235965350Y-198857947D01*
X235965350Y-198857947D02*
X236027255Y-198919852D01*
X236027255Y-198919852D02*
X236089160Y-199043661D01*
X236089160Y-199043661D02*
X236089160Y-199353185D01*
X236089160Y-199353185D02*
X236027255Y-199476995D01*
X236027255Y-199476995D02*
X235965350Y-199538900D01*
X235965350Y-199538900D02*
X235841541Y-199600804D01*
X235841541Y-199600804D02*
X235532017Y-199600804D01*
X235532017Y-199600804D02*
X235408207Y-199538900D01*
X235408207Y-199538900D02*
X235346303Y-199476995D01*
D10*
D11*
X285965350Y-198300804D02*
X285717731Y-198300804D01*
X285717731Y-198300804D02*
X285593922Y-198362709D01*
X285593922Y-198362709D02*
X285532017Y-198424614D01*
X285532017Y-198424614D02*
X285408207Y-198610328D01*
X285408207Y-198610328D02*
X285346303Y-198857947D01*
X285346303Y-198857947D02*
X285346303Y-199353185D01*
X285346303Y-199353185D02*
X285408207Y-199476995D01*
X285408207Y-199476995D02*
X285470112Y-199538900D01*
X285470112Y-199538900D02*
X285593922Y-199600804D01*
X285593922Y-199600804D02*
X285841541Y-199600804D01*
X285841541Y-199600804D02*
X285965350Y-199538900D01*
X285965350Y-199538900D02*
X286027255Y-199476995D01*
X286027255Y-199476995D02*
X286089160Y-199353185D01*
X286089160Y-199353185D02*
X286089160Y-199043661D01*
X286089160Y-199043661D02*
X286027255Y-198919852D01*
X286027255Y-198919852D02*
X285965350Y-198857947D01*
X285965350Y-198857947D02*
X285841541Y-198796042D01*
X285841541Y-198796042D02*
X285593922Y-198796042D01*
X285593922Y-198796042D02*
X285470112Y-198857947D01*
X285470112Y-198857947D02*
X285408207Y-198919852D01*
X285408207Y-198919852D02*
X285346303Y-199043661D01*
D10*
D11*
X10000000Y-60000000D02*
X12000000Y-60000000D01*
D10*
D11*
X10000000Y-110000000D02*
X12000000Y-110000000D01*
D10*
D11*
X10000000Y-160000000D02*
X12000000Y-160000000D01*
D10*
D11*
X10690476Y-35222176D02*
X11309523Y-35222176D01*
X10566666Y-35593604D02*
X10999999Y-34293604D01*
X10999999Y-34293604D02*
X11433333Y-35593604D01*
D10*
D11*
X11092857Y-84912652D02*
X11278571Y-84974557D01*
X11278571Y-84974557D02*
X11340476Y-85036461D01*
X11340476Y-85036461D02*
X11402380Y-85160271D01*
X11402380Y-85160271D02*
X11402380Y-85345985D01*
X11402380Y-85345985D02*
X11340476Y-85469795D01*
X11340476Y-85469795D02*
X11278571Y-85531700D01*
X11278571Y-85531700D02*
X11154761Y-85593604D01*
X11154761Y-85593604D02*
X10659523Y-85593604D01*
X10659523Y-85593604D02*
X10659523Y-84293604D01*
X10659523Y-84293604D02*
X11092857Y-84293604D01*
X11092857Y-84293604D02*
X11216666Y-84355509D01*
X11216666Y-84355509D02*
X11278571Y-84417414D01*
X11278571Y-84417414D02*
X11340476Y-84541223D01*
X11340476Y-84541223D02*
X11340476Y-84665033D01*
X11340476Y-84665033D02*
X11278571Y-84788842D01*
X11278571Y-84788842D02*
X11216666Y-84850747D01*
X11216666Y-84850747D02*
X11092857Y-84912652D01*
X11092857Y-84912652D02*
X10659523Y-84912652D01*
D10*
D11*
X11402380Y-135469795D02*
X11340476Y-135531700D01*
X11340476Y-135531700D02*
X11154761Y-135593604D01*
X11154761Y-135593604D02*
X11030952Y-135593604D01*
X11030952Y-135593604D02*
X10845238Y-135531700D01*
X10845238Y-135531700D02*
X10721428Y-135407890D01*
X10721428Y-135407890D02*
X10659523Y-135284080D01*
X10659523Y-135284080D02*
X10597619Y-135036461D01*
X10597619Y-135036461D02*
X10597619Y-134850747D01*
X10597619Y-134850747D02*
X10659523Y-134603128D01*
X10659523Y-134603128D02*
X10721428Y-134479319D01*
X10721428Y-134479319D02*
X10845238Y-134355509D01*
X10845238Y-134355509D02*
X11030952Y-134293604D01*
X11030952Y-134293604D02*
X11154761Y-134293604D01*
X11154761Y-134293604D02*
X11340476Y-134355509D01*
X11340476Y-134355509D02*
X11402380Y-134417414D01*
D10*
D11*
X10659523Y-185593604D02*
X10659523Y-184293604D01*
X10659523Y-184293604D02*
X10969047Y-184293604D01*
X10969047Y-184293604D02*
X11154761Y-184355509D01*
X11154761Y-184355509D02*
X11278571Y-184479319D01*
X11278571Y-184479319D02*
X11340476Y-184603128D01*
X11340476Y-184603128D02*
X11402380Y-184850747D01*
X11402380Y-184850747D02*
X11402380Y-185036461D01*
X11402380Y-185036461D02*
X11340476Y-185284080D01*
X11340476Y-185284080D02*
X11278571Y-185407890D01*
X11278571Y-185407890D02*
X11154761Y-185531700D01*
X11154761Y-185531700D02*
X10969047Y-185593604D01*
X10969047Y-185593604D02*
X10659523Y-185593604D01*
D10*
D11*
X287002200Y-60000000D02*
X285002200Y-60000000D01*
D10*
D11*
X287002200Y-110000000D02*
X285002200Y-110000000D01*
D10*
D11*
X287002200Y-160000000D02*
X285002200Y-160000000D01*
D10*
D11*
X285692676Y-35222176D02*
X286311723Y-35222176D01*
X285568866Y-35593604D02*
X286002199Y-34293604D01*
X286002199Y-34293604D02*
X286435533Y-35593604D01*
D10*
D11*
X286095057Y-84912652D02*
X286280771Y-84974557D01*
X286280771Y-84974557D02*
X286342676Y-85036461D01*
X286342676Y-85036461D02*
X286404580Y-85160271D01*
X286404580Y-85160271D02*
X286404580Y-85345985D01*
X286404580Y-85345985D02*
X286342676Y-85469795D01*
X286342676Y-85469795D02*
X286280771Y-85531700D01*
X286280771Y-85531700D02*
X286156961Y-85593604D01*
X286156961Y-85593604D02*
X285661723Y-85593604D01*
X285661723Y-85593604D02*
X285661723Y-84293604D01*
X285661723Y-84293604D02*
X286095057Y-84293604D01*
X286095057Y-84293604D02*
X286218866Y-84355509D01*
X286218866Y-84355509D02*
X286280771Y-84417414D01*
X286280771Y-84417414D02*
X286342676Y-84541223D01*
X286342676Y-84541223D02*
X286342676Y-84665033D01*
X286342676Y-84665033D02*
X286280771Y-84788842D01*
X286280771Y-84788842D02*
X286218866Y-84850747D01*
X286218866Y-84850747D02*
X286095057Y-84912652D01*
X286095057Y-84912652D02*
X285661723Y-84912652D01*
D10*
D11*
X286404580Y-135469795D02*
X286342676Y-135531700D01*
X286342676Y-135531700D02*
X286156961Y-135593604D01*
X286156961Y-135593604D02*
X286033152Y-135593604D01*
X286033152Y-135593604D02*
X285847438Y-135531700D01*
X285847438Y-135531700D02*
X285723628Y-135407890D01*
X285723628Y-135407890D02*
X285661723Y-135284080D01*
X285661723Y-135284080D02*
X285599819Y-135036461D01*
X285599819Y-135036461D02*
X285599819Y-134850747D01*
X285599819Y-134850747D02*
X285661723Y-134603128D01*
X285661723Y-134603128D02*
X285723628Y-134479319D01*
X285723628Y-134479319D02*
X285847438Y-134355509D01*
X285847438Y-134355509D02*
X286033152Y-134293604D01*
X286033152Y-134293604D02*
X286156961Y-134293604D01*
X286156961Y-134293604D02*
X286342676Y-134355509D01*
X286342676Y-134355509D02*
X286404580Y-134417414D01*
D10*
D11*
X285661723Y-185593604D02*
X285661723Y-184293604D01*
X285661723Y-184293604D02*
X285971247Y-184293604D01*
X285971247Y-184293604D02*
X286156961Y-184355509D01*
X286156961Y-184355509D02*
X286280771Y-184479319D01*
X286280771Y-184479319D02*
X286342676Y-184603128D01*
X286342676Y-184603128D02*
X286404580Y-184850747D01*
X286404580Y-184850747D02*
X286404580Y-185036461D01*
X286404580Y-185036461D02*
X286342676Y-185284080D01*
X286342676Y-185284080D02*
X286280771Y-185407890D01*
X286280771Y-185407890D02*
X286156961Y-185531700D01*
X286156961Y-185531700D02*
X285971247Y-185593604D01*
X285971247Y-185593604D02*
X285661723Y-185593604D01*
D10*
D11*
X200458026Y-193793328D02*
X200458026Y-192293328D01*
X200458026Y-192293328D02*
X200815169Y-192293328D01*
X200815169Y-192293328D02*
X201029455Y-192364757D01*
X201029455Y-192364757D02*
X201172312Y-192507614D01*
X201172312Y-192507614D02*
X201243741Y-192650471D01*
X201243741Y-192650471D02*
X201315169Y-192936185D01*
X201315169Y-192936185D02*
X201315169Y-193150471D01*
X201315169Y-193150471D02*
X201243741Y-193436185D01*
X201243741Y-193436185D02*
X201172312Y-193579042D01*
X201172312Y-193579042D02*
X201029455Y-193721900D01*
X201029455Y-193721900D02*
X200815169Y-193793328D01*
X200815169Y-193793328D02*
X200458026Y-193793328D01*
X202600884Y-193793328D02*
X202600884Y-193007614D01*
X202600884Y-193007614D02*
X202529455Y-192864757D01*
X202529455Y-192864757D02*
X202386598Y-192793328D01*
X202386598Y-192793328D02*
X202100884Y-192793328D01*
X202100884Y-192793328D02*
X201958026Y-192864757D01*
X202600884Y-193721900D02*
X202458026Y-193793328D01*
X202458026Y-193793328D02*
X202100884Y-193793328D01*
X202100884Y-193793328D02*
X201958026Y-193721900D01*
X201958026Y-193721900D02*
X201886598Y-193579042D01*
X201886598Y-193579042D02*
X201886598Y-193436185D01*
X201886598Y-193436185D02*
X201958026Y-193293328D01*
X201958026Y-193293328D02*
X202100884Y-193221900D01*
X202100884Y-193221900D02*
X202458026Y-193221900D01*
X202458026Y-193221900D02*
X202600884Y-193150471D01*
X203100884Y-192793328D02*
X203672312Y-192793328D01*
X203315169Y-192293328D02*
X203315169Y-193579042D01*
X203315169Y-193579042D02*
X203386598Y-193721900D01*
X203386598Y-193721900D02*
X203529455Y-193793328D01*
X203529455Y-193793328D02*
X203672312Y-193793328D01*
X204743741Y-193721900D02*
X204600884Y-193793328D01*
X204600884Y-193793328D02*
X204315170Y-193793328D01*
X204315170Y-193793328D02*
X204172312Y-193721900D01*
X204172312Y-193721900D02*
X204100884Y-193579042D01*
X204100884Y-193579042D02*
X204100884Y-193007614D01*
X204100884Y-193007614D02*
X204172312Y-192864757D01*
X204172312Y-192864757D02*
X204315170Y-192793328D01*
X204315170Y-192793328D02*
X204600884Y-192793328D01*
X204600884Y-192793328D02*
X204743741Y-192864757D01*
X204743741Y-192864757D02*
X204815170Y-193007614D01*
X204815170Y-193007614D02*
X204815170Y-193150471D01*
X204815170Y-193150471D02*
X204100884Y-193293328D01*
X205458026Y-193650471D02*
X205529455Y-193721900D01*
X205529455Y-193721900D02*
X205458026Y-193793328D01*
X205458026Y-193793328D02*
X205386598Y-193721900D01*
X205386598Y-193721900D02*
X205458026Y-193650471D01*
X205458026Y-193650471D02*
X205458026Y-193793328D01*
X205458026Y-192864757D02*
X205529455Y-192936185D01*
X205529455Y-192936185D02*
X205458026Y-193007614D01*
X205458026Y-193007614D02*
X205386598Y-192936185D01*
X205386598Y-192936185D02*
X205458026Y-192864757D01*
X205458026Y-192864757D02*
X205458026Y-193007614D01*
D10*
D11*
X177002200Y-194507200D02*
X285002200Y-194507200D01*
D10*
D11*
X178458026Y-196593328D02*
X178458026Y-195093328D01*
X179315169Y-196593328D02*
X178672312Y-195736185D01*
X179315169Y-195093328D02*
X178458026Y-195950471D01*
X179958026Y-196593328D02*
X179958026Y-195593328D01*
X179958026Y-195093328D02*
X179886598Y-195164757D01*
X179886598Y-195164757D02*
X179958026Y-195236185D01*
X179958026Y-195236185D02*
X180029455Y-195164757D01*
X180029455Y-195164757D02*
X179958026Y-195093328D01*
X179958026Y-195093328D02*
X179958026Y-195236185D01*
X181529455Y-196450471D02*
X181458027Y-196521900D01*
X181458027Y-196521900D02*
X181243741Y-196593328D01*
X181243741Y-196593328D02*
X181100884Y-196593328D01*
X181100884Y-196593328D02*
X180886598Y-196521900D01*
X180886598Y-196521900D02*
X180743741Y-196379042D01*
X180743741Y-196379042D02*
X180672312Y-196236185D01*
X180672312Y-196236185D02*
X180600884Y-195950471D01*
X180600884Y-195950471D02*
X180600884Y-195736185D01*
X180600884Y-195736185D02*
X180672312Y-195450471D01*
X180672312Y-195450471D02*
X180743741Y-195307614D01*
X180743741Y-195307614D02*
X180886598Y-195164757D01*
X180886598Y-195164757D02*
X181100884Y-195093328D01*
X181100884Y-195093328D02*
X181243741Y-195093328D01*
X181243741Y-195093328D02*
X181458027Y-195164757D01*
X181458027Y-195164757D02*
X181529455Y-195236185D01*
X182815170Y-196593328D02*
X182815170Y-195807614D01*
X182815170Y-195807614D02*
X182743741Y-195664757D01*
X182743741Y-195664757D02*
X182600884Y-195593328D01*
X182600884Y-195593328D02*
X182315170Y-195593328D01*
X182315170Y-195593328D02*
X182172312Y-195664757D01*
X182815170Y-196521900D02*
X182672312Y-196593328D01*
X182672312Y-196593328D02*
X182315170Y-196593328D01*
X182315170Y-196593328D02*
X182172312Y-196521900D01*
X182172312Y-196521900D02*
X182100884Y-196379042D01*
X182100884Y-196379042D02*
X182100884Y-196236185D01*
X182100884Y-196236185D02*
X182172312Y-196093328D01*
X182172312Y-196093328D02*
X182315170Y-196021900D01*
X182315170Y-196021900D02*
X182672312Y-196021900D01*
X182672312Y-196021900D02*
X182815170Y-195950471D01*
X184172313Y-196593328D02*
X184172313Y-195093328D01*
X184172313Y-196521900D02*
X184029455Y-196593328D01*
X184029455Y-196593328D02*
X183743741Y-196593328D01*
X183743741Y-196593328D02*
X183600884Y-196521900D01*
X183600884Y-196521900D02*
X183529455Y-196450471D01*
X183529455Y-196450471D02*
X183458027Y-196307614D01*
X183458027Y-196307614D02*
X183458027Y-195879042D01*
X183458027Y-195879042D02*
X183529455Y-195736185D01*
X183529455Y-195736185D02*
X183600884Y-195664757D01*
X183600884Y-195664757D02*
X183743741Y-195593328D01*
X183743741Y-195593328D02*
X184029455Y-195593328D01*
X184029455Y-195593328D02*
X184172313Y-195664757D01*
X186029455Y-195807614D02*
X186529455Y-195807614D01*
X186743741Y-196593328D02*
X186029455Y-196593328D01*
X186029455Y-196593328D02*
X186029455Y-195093328D01*
X186029455Y-195093328D02*
X186743741Y-195093328D01*
X187386598Y-196450471D02*
X187458027Y-196521900D01*
X187458027Y-196521900D02*
X187386598Y-196593328D01*
X187386598Y-196593328D02*
X187315170Y-196521900D01*
X187315170Y-196521900D02*
X187386598Y-196450471D01*
X187386598Y-196450471D02*
X187386598Y-196593328D01*
X188100884Y-196593328D02*
X188100884Y-195093328D01*
X188100884Y-195093328D02*
X188458027Y-195093328D01*
X188458027Y-195093328D02*
X188672313Y-195164757D01*
X188672313Y-195164757D02*
X188815170Y-195307614D01*
X188815170Y-195307614D02*
X188886599Y-195450471D01*
X188886599Y-195450471D02*
X188958027Y-195736185D01*
X188958027Y-195736185D02*
X188958027Y-195950471D01*
X188958027Y-195950471D02*
X188886599Y-196236185D01*
X188886599Y-196236185D02*
X188815170Y-196379042D01*
X188815170Y-196379042D02*
X188672313Y-196521900D01*
X188672313Y-196521900D02*
X188458027Y-196593328D01*
X188458027Y-196593328D02*
X188100884Y-196593328D01*
X189600884Y-196450471D02*
X189672313Y-196521900D01*
X189672313Y-196521900D02*
X189600884Y-196593328D01*
X189600884Y-196593328D02*
X189529456Y-196521900D01*
X189529456Y-196521900D02*
X189600884Y-196450471D01*
X189600884Y-196450471D02*
X189600884Y-196593328D01*
X190243742Y-196164757D02*
X190958028Y-196164757D01*
X190100885Y-196593328D02*
X190600885Y-195093328D01*
X190600885Y-195093328D02*
X191100885Y-196593328D01*
X191600884Y-196450471D02*
X191672313Y-196521900D01*
X191672313Y-196521900D02*
X191600884Y-196593328D01*
X191600884Y-196593328D02*
X191529456Y-196521900D01*
X191529456Y-196521900D02*
X191600884Y-196450471D01*
X191600884Y-196450471D02*
X191600884Y-196593328D01*
X193529456Y-196593328D02*
X193815170Y-196593328D01*
X193815170Y-196593328D02*
X193958027Y-196521900D01*
X193958027Y-196521900D02*
X194029456Y-196450471D01*
X194029456Y-196450471D02*
X194172313Y-196236185D01*
X194172313Y-196236185D02*
X194243742Y-195950471D01*
X194243742Y-195950471D02*
X194243742Y-195379042D01*
X194243742Y-195379042D02*
X194172313Y-195236185D01*
X194172313Y-195236185D02*
X194100885Y-195164757D01*
X194100885Y-195164757D02*
X193958027Y-195093328D01*
X193958027Y-195093328D02*
X193672313Y-195093328D01*
X193672313Y-195093328D02*
X193529456Y-195164757D01*
X193529456Y-195164757D02*
X193458027Y-195236185D01*
X193458027Y-195236185D02*
X193386599Y-195379042D01*
X193386599Y-195379042D02*
X193386599Y-195736185D01*
X193386599Y-195736185D02*
X193458027Y-195879042D01*
X193458027Y-195879042D02*
X193529456Y-195950471D01*
X193529456Y-195950471D02*
X193672313Y-196021900D01*
X193672313Y-196021900D02*
X193958027Y-196021900D01*
X193958027Y-196021900D02*
X194100885Y-195950471D01*
X194100885Y-195950471D02*
X194172313Y-195879042D01*
X194172313Y-195879042D02*
X194243742Y-195736185D01*
X194886598Y-196450471D02*
X194958027Y-196521900D01*
X194958027Y-196521900D02*
X194886598Y-196593328D01*
X194886598Y-196593328D02*
X194815170Y-196521900D01*
X194815170Y-196521900D02*
X194886598Y-196450471D01*
X194886598Y-196450471D02*
X194886598Y-196593328D01*
X195886599Y-195093328D02*
X196029456Y-195093328D01*
X196029456Y-195093328D02*
X196172313Y-195164757D01*
X196172313Y-195164757D02*
X196243742Y-195236185D01*
X196243742Y-195236185D02*
X196315170Y-195379042D01*
X196315170Y-195379042D02*
X196386599Y-195664757D01*
X196386599Y-195664757D02*
X196386599Y-196021900D01*
X196386599Y-196021900D02*
X196315170Y-196307614D01*
X196315170Y-196307614D02*
X196243742Y-196450471D01*
X196243742Y-196450471D02*
X196172313Y-196521900D01*
X196172313Y-196521900D02*
X196029456Y-196593328D01*
X196029456Y-196593328D02*
X195886599Y-196593328D01*
X195886599Y-196593328D02*
X195743742Y-196521900D01*
X195743742Y-196521900D02*
X195672313Y-196450471D01*
X195672313Y-196450471D02*
X195600884Y-196307614D01*
X195600884Y-196307614D02*
X195529456Y-196021900D01*
X195529456Y-196021900D02*
X195529456Y-195664757D01*
X195529456Y-195664757D02*
X195600884Y-195379042D01*
X195600884Y-195379042D02*
X195672313Y-195236185D01*
X195672313Y-195236185D02*
X195743742Y-195164757D01*
X195743742Y-195164757D02*
X195886599Y-195093328D01*
X197029455Y-196450471D02*
X197100884Y-196521900D01*
X197100884Y-196521900D02*
X197029455Y-196593328D01*
X197029455Y-196593328D02*
X196958027Y-196521900D01*
X196958027Y-196521900D02*
X197029455Y-196450471D01*
X197029455Y-196450471D02*
X197029455Y-196593328D01*
X198458027Y-195093328D02*
X197743741Y-195093328D01*
X197743741Y-195093328D02*
X197672313Y-195807614D01*
X197672313Y-195807614D02*
X197743741Y-195736185D01*
X197743741Y-195736185D02*
X197886599Y-195664757D01*
X197886599Y-195664757D02*
X198243741Y-195664757D01*
X198243741Y-195664757D02*
X198386599Y-195736185D01*
X198386599Y-195736185D02*
X198458027Y-195807614D01*
X198458027Y-195807614D02*
X198529456Y-195950471D01*
X198529456Y-195950471D02*
X198529456Y-196307614D01*
X198529456Y-196307614D02*
X198458027Y-196450471D01*
X198458027Y-196450471D02*
X198386599Y-196521900D01*
X198386599Y-196521900D02*
X198243741Y-196593328D01*
X198243741Y-196593328D02*
X197886599Y-196593328D01*
X197886599Y-196593328D02*
X197743741Y-196521900D01*
X197743741Y-196521900D02*
X197672313Y-196450471D01*
D10*
D11*
X177002200Y-191507200D02*
X285002200Y-191507200D01*
D10*
D12*
X264413853Y-193785528D02*
X263913853Y-193071242D01*
X263556710Y-193785528D02*
X263556710Y-192285528D01*
X263556710Y-192285528D02*
X264128139Y-192285528D01*
X264128139Y-192285528D02*
X264270996Y-192356957D01*
X264270996Y-192356957D02*
X264342425Y-192428385D01*
X264342425Y-192428385D02*
X264413853Y-192571242D01*
X264413853Y-192571242D02*
X264413853Y-192785528D01*
X264413853Y-192785528D02*
X264342425Y-192928385D01*
X264342425Y-192928385D02*
X264270996Y-192999814D01*
X264270996Y-192999814D02*
X264128139Y-193071242D01*
X264128139Y-193071242D02*
X263556710Y-193071242D01*
X265628139Y-193714100D02*
X265485282Y-193785528D01*
X265485282Y-193785528D02*
X265199568Y-193785528D01*
X265199568Y-193785528D02*
X265056710Y-193714100D01*
X265056710Y-193714100D02*
X264985282Y-193571242D01*
X264985282Y-193571242D02*
X264985282Y-192999814D01*
X264985282Y-192999814D02*
X265056710Y-192856957D01*
X265056710Y-192856957D02*
X265199568Y-192785528D01*
X265199568Y-192785528D02*
X265485282Y-192785528D01*
X265485282Y-192785528D02*
X265628139Y-192856957D01*
X265628139Y-192856957D02*
X265699568Y-192999814D01*
X265699568Y-192999814D02*
X265699568Y-193142671D01*
X265699568Y-193142671D02*
X264985282Y-193285528D01*
X266199567Y-192785528D02*
X266556710Y-193785528D01*
X266556710Y-193785528D02*
X266913853Y-192785528D01*
X267485281Y-193642671D02*
X267556710Y-193714100D01*
X267556710Y-193714100D02*
X267485281Y-193785528D01*
X267485281Y-193785528D02*
X267413853Y-193714100D01*
X267413853Y-193714100D02*
X267485281Y-193642671D01*
X267485281Y-193642671D02*
X267485281Y-193785528D01*
X267485281Y-192856957D02*
X267556710Y-192928385D01*
X267556710Y-192928385D02*
X267485281Y-192999814D01*
X267485281Y-192999814D02*
X267413853Y-192928385D01*
X267413853Y-192928385D02*
X267485281Y-192856957D01*
X267485281Y-192856957D02*
X267485281Y-192999814D01*
D10*
D11*
X178386598Y-193721900D02*
X178600884Y-193793328D01*
X178600884Y-193793328D02*
X178958026Y-193793328D01*
X178958026Y-193793328D02*
X179100884Y-193721900D01*
X179100884Y-193721900D02*
X179172312Y-193650471D01*
X179172312Y-193650471D02*
X179243741Y-193507614D01*
X179243741Y-193507614D02*
X179243741Y-193364757D01*
X179243741Y-193364757D02*
X179172312Y-193221900D01*
X179172312Y-193221900D02*
X179100884Y-193150471D01*
X179100884Y-193150471D02*
X178958026Y-193079042D01*
X178958026Y-193079042D02*
X178672312Y-193007614D01*
X178672312Y-193007614D02*
X178529455Y-192936185D01*
X178529455Y-192936185D02*
X178458026Y-192864757D01*
X178458026Y-192864757D02*
X178386598Y-192721900D01*
X178386598Y-192721900D02*
X178386598Y-192579042D01*
X178386598Y-192579042D02*
X178458026Y-192436185D01*
X178458026Y-192436185D02*
X178529455Y-192364757D01*
X178529455Y-192364757D02*
X178672312Y-192293328D01*
X178672312Y-192293328D02*
X179029455Y-192293328D01*
X179029455Y-192293328D02*
X179243741Y-192364757D01*
X179886597Y-193793328D02*
X179886597Y-192793328D01*
X179886597Y-192293328D02*
X179815169Y-192364757D01*
X179815169Y-192364757D02*
X179886597Y-192436185D01*
X179886597Y-192436185D02*
X179958026Y-192364757D01*
X179958026Y-192364757D02*
X179886597Y-192293328D01*
X179886597Y-192293328D02*
X179886597Y-192436185D01*
X180458026Y-192793328D02*
X181243741Y-192793328D01*
X181243741Y-192793328D02*
X180458026Y-193793328D01*
X180458026Y-193793328D02*
X181243741Y-193793328D01*
X182386598Y-193721900D02*
X182243741Y-193793328D01*
X182243741Y-193793328D02*
X181958027Y-193793328D01*
X181958027Y-193793328D02*
X181815169Y-193721900D01*
X181815169Y-193721900D02*
X181743741Y-193579042D01*
X181743741Y-193579042D02*
X181743741Y-193007614D01*
X181743741Y-193007614D02*
X181815169Y-192864757D01*
X181815169Y-192864757D02*
X181958027Y-192793328D01*
X181958027Y-192793328D02*
X182243741Y-192793328D01*
X182243741Y-192793328D02*
X182386598Y-192864757D01*
X182386598Y-192864757D02*
X182458027Y-193007614D01*
X182458027Y-193007614D02*
X182458027Y-193150471D01*
X182458027Y-193150471D02*
X181743741Y-193293328D01*
X183100883Y-193650471D02*
X183172312Y-193721900D01*
X183172312Y-193721900D02*
X183100883Y-193793328D01*
X183100883Y-193793328D02*
X183029455Y-193721900D01*
X183029455Y-193721900D02*
X183100883Y-193650471D01*
X183100883Y-193650471D02*
X183100883Y-193793328D01*
X183100883Y-192864757D02*
X183172312Y-192936185D01*
X183172312Y-192936185D02*
X183100883Y-193007614D01*
X183100883Y-193007614D02*
X183029455Y-192936185D01*
X183029455Y-192936185D02*
X183100883Y-192864757D01*
X183100883Y-192864757D02*
X183100883Y-193007614D01*
X184886598Y-193364757D02*
X185600884Y-193364757D01*
X184743741Y-193793328D02*
X185243741Y-192293328D01*
X185243741Y-192293328D02*
X185743741Y-193793328D01*
X186886598Y-192793328D02*
X186886598Y-193793328D01*
X186529455Y-192221900D02*
X186172312Y-193293328D01*
X186172312Y-193293328D02*
X187100883Y-193293328D01*
D10*
D11*
X263458026Y-196593328D02*
X263458026Y-195093328D01*
X264815170Y-196593328D02*
X264815170Y-195093328D01*
X264815170Y-196521900D02*
X264672312Y-196593328D01*
X264672312Y-196593328D02*
X264386598Y-196593328D01*
X264386598Y-196593328D02*
X264243741Y-196521900D01*
X264243741Y-196521900D02*
X264172312Y-196450471D01*
X264172312Y-196450471D02*
X264100884Y-196307614D01*
X264100884Y-196307614D02*
X264100884Y-195879042D01*
X264100884Y-195879042D02*
X264172312Y-195736185D01*
X264172312Y-195736185D02*
X264243741Y-195664757D01*
X264243741Y-195664757D02*
X264386598Y-195593328D01*
X264386598Y-195593328D02*
X264672312Y-195593328D01*
X264672312Y-195593328D02*
X264815170Y-195664757D01*
X265529455Y-196450471D02*
X265600884Y-196521900D01*
X265600884Y-196521900D02*
X265529455Y-196593328D01*
X265529455Y-196593328D02*
X265458027Y-196521900D01*
X265458027Y-196521900D02*
X265529455Y-196450471D01*
X265529455Y-196450471D02*
X265529455Y-196593328D01*
X265529455Y-195664757D02*
X265600884Y-195736185D01*
X265600884Y-195736185D02*
X265529455Y-195807614D01*
X265529455Y-195807614D02*
X265458027Y-195736185D01*
X265458027Y-195736185D02*
X265529455Y-195664757D01*
X265529455Y-195664757D02*
X265529455Y-195807614D01*
X267315170Y-195236185D02*
X267386598Y-195164757D01*
X267386598Y-195164757D02*
X267529456Y-195093328D01*
X267529456Y-195093328D02*
X267886598Y-195093328D01*
X267886598Y-195093328D02*
X268029456Y-195164757D01*
X268029456Y-195164757D02*
X268100884Y-195236185D01*
X268100884Y-195236185D02*
X268172313Y-195379042D01*
X268172313Y-195379042D02*
X268172313Y-195521900D01*
X268172313Y-195521900D02*
X268100884Y-195736185D01*
X268100884Y-195736185D02*
X267243741Y-196593328D01*
X267243741Y-196593328D02*
X268172313Y-196593328D01*
X269886598Y-195021900D02*
X268600884Y-196950471D01*
X270458027Y-196593328D02*
X270743741Y-196593328D01*
X270743741Y-196593328D02*
X270886598Y-196521900D01*
X270886598Y-196521900D02*
X270958027Y-196450471D01*
X270958027Y-196450471D02*
X271100884Y-196236185D01*
X271100884Y-196236185D02*
X271172313Y-195950471D01*
X271172313Y-195950471D02*
X271172313Y-195379042D01*
X271172313Y-195379042D02*
X271100884Y-195236185D01*
X271100884Y-195236185D02*
X271029456Y-195164757D01*
X271029456Y-195164757D02*
X270886598Y-195093328D01*
X270886598Y-195093328D02*
X270600884Y-195093328D01*
X270600884Y-195093328D02*
X270458027Y-195164757D01*
X270458027Y-195164757D02*
X270386598Y-195236185D01*
X270386598Y-195236185D02*
X270315170Y-195379042D01*
X270315170Y-195379042D02*
X270315170Y-195736185D01*
X270315170Y-195736185D02*
X270386598Y-195879042D01*
X270386598Y-195879042D02*
X270458027Y-195950471D01*
X270458027Y-195950471D02*
X270600884Y-196021900D01*
X270600884Y-196021900D02*
X270886598Y-196021900D01*
X270886598Y-196021900D02*
X271029456Y-195950471D01*
X271029456Y-195950471D02*
X271100884Y-195879042D01*
X271100884Y-195879042D02*
X271172313Y-195736185D01*
D10*
D11*
X177002200Y-187507200D02*
X285002200Y-187507200D01*
D10*
D13*
X178693928Y-188211638D02*
X179836785Y-188211638D01*
X179015357Y-190211638D02*
X179265357Y-188211638D01*
X180253452Y-190211638D02*
X180420119Y-188878304D01*
X180503452Y-188211638D02*
X180396309Y-188306876D01*
X180396309Y-188306876D02*
X180479643Y-188402114D01*
X180479643Y-188402114D02*
X180586786Y-188306876D01*
X180586786Y-188306876D02*
X180503452Y-188211638D01*
X180503452Y-188211638D02*
X180479643Y-188402114D01*
X181086786Y-188878304D02*
X181848690Y-188878304D01*
X181455833Y-188211638D02*
X181241548Y-189925923D01*
X181241548Y-189925923D02*
X181312976Y-190116400D01*
X181312976Y-190116400D02*
X181491548Y-190211638D01*
X181491548Y-190211638D02*
X181682024Y-190211638D01*
X182634405Y-190211638D02*
X182455833Y-190116400D01*
X182455833Y-190116400D02*
X182384405Y-189925923D01*
X182384405Y-189925923D02*
X182598690Y-188211638D01*
X184170119Y-190116400D02*
X183967738Y-190211638D01*
X183967738Y-190211638D02*
X183586785Y-190211638D01*
X183586785Y-190211638D02*
X183408214Y-190116400D01*
X183408214Y-190116400D02*
X183336785Y-189925923D01*
X183336785Y-189925923D02*
X183432024Y-189164019D01*
X183432024Y-189164019D02*
X183551071Y-188973542D01*
X183551071Y-188973542D02*
X183753452Y-188878304D01*
X183753452Y-188878304D02*
X184134404Y-188878304D01*
X184134404Y-188878304D02*
X184312976Y-188973542D01*
X184312976Y-188973542D02*
X184384404Y-189164019D01*
X184384404Y-189164019D02*
X184360595Y-189354495D01*
X184360595Y-189354495D02*
X183384404Y-189544971D01*
X185134405Y-190021161D02*
X185217738Y-190116400D01*
X185217738Y-190116400D02*
X185110595Y-190211638D01*
X185110595Y-190211638D02*
X185027262Y-190116400D01*
X185027262Y-190116400D02*
X185134405Y-190021161D01*
X185134405Y-190021161D02*
X185110595Y-190211638D01*
X185265357Y-188973542D02*
X185348690Y-189068780D01*
X185348690Y-189068780D02*
X185241548Y-189164019D01*
X185241548Y-189164019D02*
X185158214Y-189068780D01*
X185158214Y-189068780D02*
X185265357Y-188973542D01*
X185265357Y-188973542D02*
X185241548Y-189164019D01*
D10*
D11*
X178958026Y-185607614D02*
X178458026Y-185607614D01*
X178458026Y-186393328D02*
X178458026Y-184893328D01*
X178458026Y-184893328D02*
X179172312Y-184893328D01*
X179743740Y-186393328D02*
X179743740Y-185393328D01*
X179743740Y-184893328D02*
X179672312Y-184964757D01*
X179672312Y-184964757D02*
X179743740Y-185036185D01*
X179743740Y-185036185D02*
X179815169Y-184964757D01*
X179815169Y-184964757D02*
X179743740Y-184893328D01*
X179743740Y-184893328D02*
X179743740Y-185036185D01*
X180672312Y-186393328D02*
X180529455Y-186321900D01*
X180529455Y-186321900D02*
X180458026Y-186179042D01*
X180458026Y-186179042D02*
X180458026Y-184893328D01*
X181815169Y-186321900D02*
X181672312Y-186393328D01*
X181672312Y-186393328D02*
X181386598Y-186393328D01*
X181386598Y-186393328D02*
X181243740Y-186321900D01*
X181243740Y-186321900D02*
X181172312Y-186179042D01*
X181172312Y-186179042D02*
X181172312Y-185607614D01*
X181172312Y-185607614D02*
X181243740Y-185464757D01*
X181243740Y-185464757D02*
X181386598Y-185393328D01*
X181386598Y-185393328D02*
X181672312Y-185393328D01*
X181672312Y-185393328D02*
X181815169Y-185464757D01*
X181815169Y-185464757D02*
X181886598Y-185607614D01*
X181886598Y-185607614D02*
X181886598Y-185750471D01*
X181886598Y-185750471D02*
X181172312Y-185893328D01*
X182529454Y-186250471D02*
X182600883Y-186321900D01*
X182600883Y-186321900D02*
X182529454Y-186393328D01*
X182529454Y-186393328D02*
X182458026Y-186321900D01*
X182458026Y-186321900D02*
X182529454Y-186250471D01*
X182529454Y-186250471D02*
X182529454Y-186393328D01*
X182529454Y-185464757D02*
X182600883Y-185536185D01*
X182600883Y-185536185D02*
X182529454Y-185607614D01*
X182529454Y-185607614D02*
X182458026Y-185536185D01*
X182458026Y-185536185D02*
X182529454Y-185464757D01*
X182529454Y-185464757D02*
X182529454Y-185607614D01*
X184315169Y-186321900D02*
X184529455Y-186393328D01*
X184529455Y-186393328D02*
X184886597Y-186393328D01*
X184886597Y-186393328D02*
X185029455Y-186321900D01*
X185029455Y-186321900D02*
X185100883Y-186250471D01*
X185100883Y-186250471D02*
X185172312Y-186107614D01*
X185172312Y-186107614D02*
X185172312Y-185964757D01*
X185172312Y-185964757D02*
X185100883Y-185821900D01*
X185100883Y-185821900D02*
X185029455Y-185750471D01*
X185029455Y-185750471D02*
X184886597Y-185679042D01*
X184886597Y-185679042D02*
X184600883Y-185607614D01*
X184600883Y-185607614D02*
X184458026Y-185536185D01*
X184458026Y-185536185D02*
X184386597Y-185464757D01*
X184386597Y-185464757D02*
X184315169Y-185321900D01*
X184315169Y-185321900D02*
X184315169Y-185179042D01*
X184315169Y-185179042D02*
X184386597Y-185036185D01*
X184386597Y-185036185D02*
X184458026Y-184964757D01*
X184458026Y-184964757D02*
X184600883Y-184893328D01*
X184600883Y-184893328D02*
X184958026Y-184893328D01*
X184958026Y-184893328D02*
X185172312Y-184964757D01*
X185600883Y-184893328D02*
X186458026Y-184893328D01*
X186029454Y-186393328D02*
X186029454Y-184893328D01*
X186886597Y-185964757D02*
X187600883Y-185964757D01*
X186743740Y-186393328D02*
X187243740Y-184893328D01*
X187243740Y-184893328D02*
X187743740Y-186393328D01*
X189100882Y-186393328D02*
X188600882Y-185679042D01*
X188243739Y-186393328D02*
X188243739Y-184893328D01*
X188243739Y-184893328D02*
X188815168Y-184893328D01*
X188815168Y-184893328D02*
X188958025Y-184964757D01*
X188958025Y-184964757D02*
X189029454Y-185036185D01*
X189029454Y-185036185D02*
X189100882Y-185179042D01*
X189100882Y-185179042D02*
X189100882Y-185393328D01*
X189100882Y-185393328D02*
X189029454Y-185536185D01*
X189029454Y-185536185D02*
X188958025Y-185607614D01*
X188958025Y-185607614D02*
X188815168Y-185679042D01*
X188815168Y-185679042D02*
X188243739Y-185679042D01*
X189386597Y-186536185D02*
X190529454Y-186536185D01*
X191672311Y-184964757D02*
X191529454Y-184893328D01*
X191529454Y-184893328D02*
X191315168Y-184893328D01*
X191315168Y-184893328D02*
X191100882Y-184964757D01*
X191100882Y-184964757D02*
X190958025Y-185107614D01*
X190958025Y-185107614D02*
X190886596Y-185250471D01*
X190886596Y-185250471D02*
X190815168Y-185536185D01*
X190815168Y-185536185D02*
X190815168Y-185750471D01*
X190815168Y-185750471D02*
X190886596Y-186036185D01*
X190886596Y-186036185D02*
X190958025Y-186179042D01*
X190958025Y-186179042D02*
X191100882Y-186321900D01*
X191100882Y-186321900D02*
X191315168Y-186393328D01*
X191315168Y-186393328D02*
X191458025Y-186393328D01*
X191458025Y-186393328D02*
X191672311Y-186321900D01*
X191672311Y-186321900D02*
X191743739Y-186250471D01*
X191743739Y-186250471D02*
X191743739Y-185750471D01*
X191743739Y-185750471D02*
X191458025Y-185750471D01*
X192315168Y-185964757D02*
X193029454Y-185964757D01*
X192172311Y-186393328D02*
X192672311Y-184893328D01*
X192672311Y-184893328D02*
X193172311Y-186393328D01*
X193458025Y-184893328D02*
X194315168Y-184893328D01*
X193886596Y-186393328D02*
X193886596Y-184893328D01*
X194815167Y-185607614D02*
X195315167Y-185607614D01*
X195529453Y-186393328D02*
X194815167Y-186393328D01*
X194815167Y-186393328D02*
X194815167Y-184893328D01*
X194815167Y-184893328D02*
X195529453Y-184893328D01*
X195815168Y-186536185D02*
X196958025Y-186536185D01*
X197315167Y-186393328D02*
X197315167Y-184893328D01*
X197315167Y-184893328D02*
X197672310Y-184893328D01*
X197672310Y-184893328D02*
X197886596Y-184964757D01*
X197886596Y-184964757D02*
X198029453Y-185107614D01*
X198029453Y-185107614D02*
X198100882Y-185250471D01*
X198100882Y-185250471D02*
X198172310Y-185536185D01*
X198172310Y-185536185D02*
X198172310Y-185750471D01*
X198172310Y-185750471D02*
X198100882Y-186036185D01*
X198100882Y-186036185D02*
X198029453Y-186179042D01*
X198029453Y-186179042D02*
X197886596Y-186321900D01*
X197886596Y-186321900D02*
X197672310Y-186393328D01*
X197672310Y-186393328D02*
X197315167Y-186393328D01*
X199672310Y-186393328D02*
X199172310Y-185679042D01*
X198815167Y-186393328D02*
X198815167Y-184893328D01*
X198815167Y-184893328D02*
X199386596Y-184893328D01*
X199386596Y-184893328D02*
X199529453Y-184964757D01*
X199529453Y-184964757D02*
X199600882Y-185036185D01*
X199600882Y-185036185D02*
X199672310Y-185179042D01*
X199672310Y-185179042D02*
X199672310Y-185393328D01*
X199672310Y-185393328D02*
X199600882Y-185536185D01*
X199600882Y-185536185D02*
X199529453Y-185607614D01*
X199529453Y-185607614D02*
X199386596Y-185679042D01*
X199386596Y-185679042D02*
X198815167Y-185679042D01*
X200315167Y-186393328D02*
X200315167Y-184893328D01*
X200815168Y-184893328D02*
X201315168Y-186393328D01*
X201315168Y-186393328D02*
X201815168Y-184893328D01*
X202315167Y-185607614D02*
X202815167Y-185607614D01*
X203029453Y-186393328D02*
X202315167Y-186393328D01*
X202315167Y-186393328D02*
X202315167Y-184893328D01*
X202315167Y-184893328D02*
X203029453Y-184893328D01*
X204529453Y-186393328D02*
X204029453Y-185679042D01*
X203672310Y-186393328D02*
X203672310Y-184893328D01*
X203672310Y-184893328D02*
X204243739Y-184893328D01*
X204243739Y-184893328D02*
X204386596Y-184964757D01*
X204386596Y-184964757D02*
X204458025Y-185036185D01*
X204458025Y-185036185D02*
X204529453Y-185179042D01*
X204529453Y-185179042D02*
X204529453Y-185393328D01*
X204529453Y-185393328D02*
X204458025Y-185536185D01*
X204458025Y-185536185D02*
X204386596Y-185607614D01*
X204386596Y-185607614D02*
X204243739Y-185679042D01*
X204243739Y-185679042D02*
X203672310Y-185679042D01*
X205172310Y-186250471D02*
X205243739Y-186321900D01*
X205243739Y-186321900D02*
X205172310Y-186393328D01*
X205172310Y-186393328D02*
X205100882Y-186321900D01*
X205100882Y-186321900D02*
X205172310Y-186250471D01*
X205172310Y-186250471D02*
X205172310Y-186393328D01*
X205886596Y-186393328D02*
X205886596Y-184893328D01*
X206029454Y-185821900D02*
X206458025Y-186393328D01*
X206458025Y-185393328D02*
X205886596Y-185964757D01*
X207100882Y-186393328D02*
X207100882Y-185393328D01*
X207100882Y-184893328D02*
X207029454Y-184964757D01*
X207029454Y-184964757D02*
X207100882Y-185036185D01*
X207100882Y-185036185D02*
X207172311Y-184964757D01*
X207172311Y-184964757D02*
X207100882Y-184893328D01*
X207100882Y-184893328D02*
X207100882Y-185036185D01*
X208458026Y-186321900D02*
X208315168Y-186393328D01*
X208315168Y-186393328D02*
X208029454Y-186393328D01*
X208029454Y-186393328D02*
X207886597Y-186321900D01*
X207886597Y-186321900D02*
X207815168Y-186250471D01*
X207815168Y-186250471D02*
X207743740Y-186107614D01*
X207743740Y-186107614D02*
X207743740Y-185679042D01*
X207743740Y-185679042D02*
X207815168Y-185536185D01*
X207815168Y-185536185D02*
X207886597Y-185464757D01*
X207886597Y-185464757D02*
X208029454Y-185393328D01*
X208029454Y-185393328D02*
X208315168Y-185393328D01*
X208315168Y-185393328D02*
X208458026Y-185464757D01*
X209743740Y-186393328D02*
X209743740Y-185607614D01*
X209743740Y-185607614D02*
X209672311Y-185464757D01*
X209672311Y-185464757D02*
X209529454Y-185393328D01*
X209529454Y-185393328D02*
X209243740Y-185393328D01*
X209243740Y-185393328D02*
X209100882Y-185464757D01*
X209743740Y-186321900D02*
X209600882Y-186393328D01*
X209600882Y-186393328D02*
X209243740Y-186393328D01*
X209243740Y-186393328D02*
X209100882Y-186321900D01*
X209100882Y-186321900D02*
X209029454Y-186179042D01*
X209029454Y-186179042D02*
X209029454Y-186036185D01*
X209029454Y-186036185D02*
X209100882Y-185893328D01*
X209100882Y-185893328D02*
X209243740Y-185821900D01*
X209243740Y-185821900D02*
X209600882Y-185821900D01*
X209600882Y-185821900D02*
X209743740Y-185750471D01*
X211100883Y-186393328D02*
X211100883Y-184893328D01*
X211100883Y-186321900D02*
X210958025Y-186393328D01*
X210958025Y-186393328D02*
X210672311Y-186393328D01*
X210672311Y-186393328D02*
X210529454Y-186321900D01*
X210529454Y-186321900D02*
X210458025Y-186250471D01*
X210458025Y-186250471D02*
X210386597Y-186107614D01*
X210386597Y-186107614D02*
X210386597Y-185679042D01*
X210386597Y-185679042D02*
X210458025Y-185536185D01*
X210458025Y-185536185D02*
X210529454Y-185464757D01*
X210529454Y-185464757D02*
X210672311Y-185393328D01*
X210672311Y-185393328D02*
X210958025Y-185393328D01*
X210958025Y-185393328D02*
X211100883Y-185464757D01*
X211458026Y-186536185D02*
X212600883Y-186536185D01*
X212958025Y-185393328D02*
X212958025Y-186893328D01*
X212958025Y-185464757D02*
X213100883Y-185393328D01*
X213100883Y-185393328D02*
X213386597Y-185393328D01*
X213386597Y-185393328D02*
X213529454Y-185464757D01*
X213529454Y-185464757D02*
X213600883Y-185536185D01*
X213600883Y-185536185D02*
X213672311Y-185679042D01*
X213672311Y-185679042D02*
X213672311Y-186107614D01*
X213672311Y-186107614D02*
X213600883Y-186250471D01*
X213600883Y-186250471D02*
X213529454Y-186321900D01*
X213529454Y-186321900D02*
X213386597Y-186393328D01*
X213386597Y-186393328D02*
X213100883Y-186393328D01*
X213100883Y-186393328D02*
X212958025Y-186321900D01*
X214958026Y-186321900D02*
X214815168Y-186393328D01*
X214815168Y-186393328D02*
X214529454Y-186393328D01*
X214529454Y-186393328D02*
X214386597Y-186321900D01*
X214386597Y-186321900D02*
X214315168Y-186250471D01*
X214315168Y-186250471D02*
X214243740Y-186107614D01*
X214243740Y-186107614D02*
X214243740Y-185679042D01*
X214243740Y-185679042D02*
X214315168Y-185536185D01*
X214315168Y-185536185D02*
X214386597Y-185464757D01*
X214386597Y-185464757D02*
X214529454Y-185393328D01*
X214529454Y-185393328D02*
X214815168Y-185393328D01*
X214815168Y-185393328D02*
X214958026Y-185464757D01*
X215600882Y-186393328D02*
X215600882Y-184893328D01*
X215600882Y-185464757D02*
X215743740Y-185393328D01*
X215743740Y-185393328D02*
X216029454Y-185393328D01*
X216029454Y-185393328D02*
X216172311Y-185464757D01*
X216172311Y-185464757D02*
X216243740Y-185536185D01*
X216243740Y-185536185D02*
X216315168Y-185679042D01*
X216315168Y-185679042D02*
X216315168Y-186107614D01*
X216315168Y-186107614D02*
X216243740Y-186250471D01*
X216243740Y-186250471D02*
X216172311Y-186321900D01*
X216172311Y-186321900D02*
X216029454Y-186393328D01*
X216029454Y-186393328D02*
X215743740Y-186393328D01*
X215743740Y-186393328D02*
X215600882Y-186321900D01*
D10*
D11*
X177002200Y-181507200D02*
X285002200Y-181507200D01*
D10*
D11*
X178386598Y-183621900D02*
X178600884Y-183693328D01*
X178600884Y-183693328D02*
X178958026Y-183693328D01*
X178958026Y-183693328D02*
X179100884Y-183621900D01*
X179100884Y-183621900D02*
X179172312Y-183550471D01*
X179172312Y-183550471D02*
X179243741Y-183407614D01*
X179243741Y-183407614D02*
X179243741Y-183264757D01*
X179243741Y-183264757D02*
X179172312Y-183121900D01*
X179172312Y-183121900D02*
X179100884Y-183050471D01*
X179100884Y-183050471D02*
X178958026Y-182979042D01*
X178958026Y-182979042D02*
X178672312Y-182907614D01*
X178672312Y-182907614D02*
X178529455Y-182836185D01*
X178529455Y-182836185D02*
X178458026Y-182764757D01*
X178458026Y-182764757D02*
X178386598Y-182621900D01*
X178386598Y-182621900D02*
X178386598Y-182479042D01*
X178386598Y-182479042D02*
X178458026Y-182336185D01*
X178458026Y-182336185D02*
X178529455Y-182264757D01*
X178529455Y-182264757D02*
X178672312Y-182193328D01*
X178672312Y-182193328D02*
X179029455Y-182193328D01*
X179029455Y-182193328D02*
X179243741Y-182264757D01*
X179886597Y-183693328D02*
X179886597Y-182193328D01*
X180529455Y-183693328D02*
X180529455Y-182907614D01*
X180529455Y-182907614D02*
X180458026Y-182764757D01*
X180458026Y-182764757D02*
X180315169Y-182693328D01*
X180315169Y-182693328D02*
X180100883Y-182693328D01*
X180100883Y-182693328D02*
X179958026Y-182764757D01*
X179958026Y-182764757D02*
X179886597Y-182836185D01*
X181815169Y-183621900D02*
X181672312Y-183693328D01*
X181672312Y-183693328D02*
X181386598Y-183693328D01*
X181386598Y-183693328D02*
X181243740Y-183621900D01*
X181243740Y-183621900D02*
X181172312Y-183479042D01*
X181172312Y-183479042D02*
X181172312Y-182907614D01*
X181172312Y-182907614D02*
X181243740Y-182764757D01*
X181243740Y-182764757D02*
X181386598Y-182693328D01*
X181386598Y-182693328D02*
X181672312Y-182693328D01*
X181672312Y-182693328D02*
X181815169Y-182764757D01*
X181815169Y-182764757D02*
X181886598Y-182907614D01*
X181886598Y-182907614D02*
X181886598Y-183050471D01*
X181886598Y-183050471D02*
X181172312Y-183193328D01*
X183100883Y-183621900D02*
X182958026Y-183693328D01*
X182958026Y-183693328D02*
X182672312Y-183693328D01*
X182672312Y-183693328D02*
X182529454Y-183621900D01*
X182529454Y-183621900D02*
X182458026Y-183479042D01*
X182458026Y-183479042D02*
X182458026Y-182907614D01*
X182458026Y-182907614D02*
X182529454Y-182764757D01*
X182529454Y-182764757D02*
X182672312Y-182693328D01*
X182672312Y-182693328D02*
X182958026Y-182693328D01*
X182958026Y-182693328D02*
X183100883Y-182764757D01*
X183100883Y-182764757D02*
X183172312Y-182907614D01*
X183172312Y-182907614D02*
X183172312Y-183050471D01*
X183172312Y-183050471D02*
X182458026Y-183193328D01*
X183600883Y-182693328D02*
X184172311Y-182693328D01*
X183815168Y-182193328D02*
X183815168Y-183479042D01*
X183815168Y-183479042D02*
X183886597Y-183621900D01*
X183886597Y-183621900D02*
X184029454Y-183693328D01*
X184029454Y-183693328D02*
X184172311Y-183693328D01*
X184672311Y-183550471D02*
X184743740Y-183621900D01*
X184743740Y-183621900D02*
X184672311Y-183693328D01*
X184672311Y-183693328D02*
X184600883Y-183621900D01*
X184600883Y-183621900D02*
X184672311Y-183550471D01*
X184672311Y-183550471D02*
X184672311Y-183693328D01*
X184672311Y-182764757D02*
X184743740Y-182836185D01*
X184743740Y-182836185D02*
X184672311Y-182907614D01*
X184672311Y-182907614D02*
X184600883Y-182836185D01*
X184600883Y-182836185D02*
X184672311Y-182764757D01*
X184672311Y-182764757D02*
X184672311Y-182907614D01*
D10*
D11*
X197002200Y-191507200D02*
X197002200Y-194507200D01*
D10*
D11*
X261002200Y-191507200D02*
X261002200Y-198007200D01*
D14*
%TO.P,REF\u002A\u002A,1*%
%TO.N,GND*%
X163000000Y-106500000D03*
%TD*%
%TO.P,REF\u002A\u002A,1*%
%TO.N,GND*%
X163000000Y-76000000D03*
%TD*%
%TO.P,REF\u002A\u002A,1*%
%TO.N,GND*%
X126500000Y-76000000D03*
%TD*%
%TO.P,REF\u002A\u002A,1*%
%TO.N,GND*%
X126500000Y-106500000D03*
%TD*%
D15*
%TO.P,J1,2*%
%TO.N,AFE_DSG_EN*%
X147062000Y-96175000D03*
%TO.P,J1,1*%
%TO.N,GND*%
X147062000Y-98715000D03*
%TO.P,J1,4*%
%TO.N,AFE_PACK+*%
X149602000Y-96175000D03*
%TO.P,J1,3*%
%TO.N,AFE_CHG_EN*%
X149602000Y-98715000D03*
%TO.P,J1,6*%
%TO.N,AFE_DSG*%
X152142000Y-96175000D03*
%TO.P,J1,5*%
%TO.N,AFE_BATT+*%
X152142000Y-98715000D03*
%TO.P,J1,7*%
%TO.N,AFE_PCHG*%
X154682000Y-98715000D03*
%TO.P,J1,8*%
%TO.N,AFE_CHG*%
X154682000Y-96175000D03*
%TD*%
%TO.P,J2,2*%
%TO.N,FUEL_GUAGE_PCHG_EN*%
X135562000Y-93095000D03*
%TO.P,J2,1*%
%TO.N,GND*%
X133022000Y-93095000D03*
%TO.P,J2,4*%
%TO.N,FUEL_GUAGE_PACKDIV*%
X135562000Y-95635000D03*
%TO.P,J2,3*%
%TO.N,FUEL_GUAGE_PMON_EN*%
X133022000Y-95635000D03*
%TO.P,J2,6*%
%TO.N,GND*%
X135562000Y-98175000D03*
%TO.P,J2,5*%
%TO.N,FUEL_GUAGE_CP_EN*%
X133022000Y-98175000D03*
%TD*%
D16*
%TO.N,AFE_CHG_EN*%
X147500000Y-85500000D03*
%TO.N,FUEL_GUAGE_PACKDIV*%
X146500000Y-86500000D03*
%TO.N,AFE_CHG*%
X148500000Y-82000000D03*
%TO.N,GND*%
X147000000Y-100500000D03*
X136000000Y-100500000D03*
X133000000Y-91000000D03*
X158250000Y-87250000D03*
X150062000Y-88675000D03*
X137062000Y-79675000D03*
%TD*%
D17*
%TO.N,AFE_CHG_EN*%
X148188000Y-90248100D02*
X147500000Y-89560100D01*
X147500000Y-89560100D02*
X147500000Y-85500000D01*
X148188000Y-97301000D02*
X148188000Y-90248100D01*
X149602000Y-98715000D02*
X148188000Y-97301000D01*
%TO.N,FUEL_GUAGE_PACKDIV*%
X137365000Y-95635000D02*
X146500000Y-86500000D01*
X135562000Y-95635000D02*
X137365000Y-95635000D01*
%TO.N,AFE_CHG*%
X148500000Y-89993000D02*
X148500000Y-82000000D01*
X154682000Y-96175000D02*
X148500000Y-89993000D01*
%TD*%
%TA.AperFunction,Conductor*%
%TO.N,GND*%
G36*
X134363445Y-96233935D02*
G01*
X134402485Y-96278990D01*
X134428328Y-96329712D01*
X134510086Y-96442241D01*
X134550965Y-96498505D01*
X134698495Y-96646035D01*
X134811022Y-96727791D01*
X134867287Y-96768671D01*
X134918561Y-96794796D01*
X134969358Y-96842770D01*
X134986153Y-96910591D01*
X134963616Y-96976726D01*
X134918563Y-97015765D01*
X134867555Y-97041755D01*
X134818180Y-97077627D01*
X135391766Y-97651212D01*
X135349708Y-97662482D01*
X135224292Y-97734890D01*
X135121890Y-97837292D01*
X135049482Y-97962708D01*
X135038212Y-98004765D01*
X134464627Y-97431180D01*
X134428755Y-97480555D01*
X134402765Y-97531563D01*
X134354790Y-97582358D01*
X134286969Y-97599153D01*
X134220834Y-97576615D01*
X134181796Y-97531561D01*
X134155671Y-97480287D01*
X134114791Y-97424022D01*
X134033035Y-97311495D01*
X133885505Y-97163965D01*
X133766672Y-97077627D01*
X133716712Y-97041328D01*
X133665990Y-97015485D01*
X133615194Y-96967511D01*
X133598398Y-96899690D01*
X133620935Y-96833555D01*
X133665990Y-96794515D01*
X133716712Y-96768671D01*
X133716711Y-96768671D01*
X133716714Y-96768670D01*
X133885505Y-96646035D01*
X134033035Y-96498505D01*
X134155670Y-96329714D01*
X134181515Y-96278990D01*
X134229489Y-96228194D01*
X134297310Y-96211398D01*
X134363445Y-96233935D01*
G37*
%TD.AperFunction*%
%TA.AperFunction,Conductor*%
G36*
X134119371Y-93838818D02*
G01*
X134119372Y-93838818D01*
X134155242Y-93789449D01*
X134155242Y-93789448D01*
X134181233Y-93738438D01*
X134229206Y-93687642D01*
X134297027Y-93670846D01*
X134363162Y-93693383D01*
X134402203Y-93738437D01*
X134428330Y-93789714D01*
X134550965Y-93958505D01*
X134698495Y-94106035D01*
X134867286Y-94228670D01*
X134914271Y-94252610D01*
X134918010Y-94254515D01*
X134968806Y-94302490D01*
X134985601Y-94370310D01*
X134963064Y-94436445D01*
X134918010Y-94475485D01*
X134867285Y-94501330D01*
X134698493Y-94623966D01*
X134550966Y-94771493D01*
X134428330Y-94940285D01*
X134402485Y-94991010D01*
X134354510Y-95041806D01*
X134286690Y-95058601D01*
X134220555Y-95036064D01*
X134181515Y-94991010D01*
X134169177Y-94966795D01*
X134155670Y-94940286D01*
X134033035Y-94771495D01*
X133885505Y-94623965D01*
X133716714Y-94501330D01*
X133665990Y-94475485D01*
X133665437Y-94475203D01*
X133614641Y-94427228D01*
X133597846Y-94359407D01*
X133620384Y-94293272D01*
X133665438Y-94254233D01*
X133716448Y-94228242D01*
X133716449Y-94228242D01*
X133765818Y-94192372D01*
X133765818Y-94192371D01*
X133192234Y-93618787D01*
X133234292Y-93607518D01*
X133359708Y-93535110D01*
X133462110Y-93432708D01*
X133534518Y-93307292D01*
X133545787Y-93265234D01*
X134119371Y-93838818D01*
G37*
%TD.AperFunction*%
%TA.AperFunction,Conductor*%
G36*
X165942539Y-73020185D02*
G01*
X165988294Y-73072989D01*
X165999500Y-73124500D01*
X165999500Y-109375500D01*
X165979815Y-109442539D01*
X165927011Y-109488294D01*
X165875500Y-109499500D01*
X123624500Y-109499500D01*
X123557461Y-109479815D01*
X123511706Y-109427011D01*
X123500500Y-109375500D01*
X123500500Y-95530675D01*
X131696500Y-95530675D01*
X131696500Y-95739324D01*
X131729137Y-95945389D01*
X131793612Y-96143820D01*
X131862655Y-96279324D01*
X131888330Y-96329714D01*
X132010965Y-96498505D01*
X132158495Y-96646035D01*
X132327286Y-96768670D01*
X132374271Y-96792610D01*
X132378010Y-96794515D01*
X132428806Y-96842490D01*
X132445601Y-96910310D01*
X132423064Y-96976445D01*
X132378010Y-97015485D01*
X132327285Y-97041330D01*
X132158493Y-97163966D01*
X132010966Y-97311493D01*
X131888330Y-97480285D01*
X131793612Y-97666179D01*
X131729137Y-97864610D01*
X131696500Y-98070675D01*
X131696500Y-98279324D01*
X131729137Y-98485389D01*
X131793612Y-98683820D01*
X131862655Y-98819324D01*
X131888330Y-98869714D01*
X132010965Y-99038505D01*
X132158495Y-99186035D01*
X132327286Y-99308670D01*
X132415116Y-99353421D01*
X132513179Y-99403387D01*
X132513181Y-99403387D01*
X132513184Y-99403389D01*
X132619545Y-99437948D01*
X132711610Y-99467862D01*
X132917676Y-99500500D01*
X132917681Y-99500500D01*
X133126324Y-99500500D01*
X133332389Y-99467862D01*
X133360220Y-99458819D01*
X133530816Y-99403389D01*
X133716714Y-99308670D01*
X133885505Y-99186035D01*
X134033035Y-99038505D01*
X134155670Y-98869714D01*
X134181796Y-98818437D01*
X134229769Y-98767642D01*
X134297590Y-98750846D01*
X134363725Y-98773383D01*
X134402766Y-98818437D01*
X134428759Y-98869451D01*
X134464627Y-98918818D01*
X134464627Y-98918819D01*
X135038212Y-98345234D01*
X135049482Y-98387292D01*
X135121890Y-98512708D01*
X135224292Y-98615110D01*
X135349708Y-98687518D01*
X135391765Y-98698787D01*
X134818179Y-99272371D01*
X134818180Y-99272372D01*
X134867543Y-99308236D01*
X134867556Y-99308244D01*
X135053372Y-99402924D01*
X135251727Y-99467373D01*
X135457721Y-99500000D01*
X135666279Y-99500000D01*
X135872272Y-99467373D01*
X136070627Y-99402924D01*
X136256451Y-99308240D01*
X136305818Y-99272372D01*
X136305818Y-99272371D01*
X135732234Y-98698787D01*
X135774292Y-98687518D01*
X135899708Y-98615110D01*
X136002110Y-98512708D01*
X136074518Y-98387292D01*
X136085787Y-98345234D01*
X136659371Y-98918818D01*
X136659372Y-98918818D01*
X136695240Y-98869451D01*
X136789924Y-98683625D01*
X136827647Y-98567530D01*
X136827647Y-98567529D01*
X136854373Y-98485272D01*
X136887000Y-98279279D01*
X136887000Y-98070720D01*
X136854373Y-97864727D01*
X136789924Y-97666372D01*
X136695244Y-97480556D01*
X136695236Y-97480543D01*
X136659372Y-97431180D01*
X136659371Y-97431179D01*
X136085787Y-98004764D01*
X136074518Y-97962708D01*
X136002110Y-97837292D01*
X135899708Y-97734890D01*
X135774292Y-97662482D01*
X135732233Y-97651212D01*
X136305819Y-97077627D01*
X136256451Y-97041759D01*
X136205437Y-97015766D01*
X136154641Y-96967791D01*
X136137846Y-96899970D01*
X136160384Y-96833835D01*
X136205438Y-96794796D01*
X136256712Y-96768671D01*
X136256711Y-96768671D01*
X136256714Y-96768670D01*
X136425505Y-96646035D01*
X136573035Y-96498505D01*
X136695670Y-96329714D01*
X136709177Y-96303205D01*
X136757152Y-96252409D01*
X136819662Y-96235500D01*
X137278331Y-96235500D01*
X137278347Y-96235501D01*
X137285943Y-96235501D01*
X137444054Y-96235501D01*
X137444057Y-96235501D01*
X137596785Y-96194577D01*
X137684705Y-96143816D01*
X137733716Y-96115520D01*
X137845520Y-96003716D01*
X137845520Y-96003714D01*
X137855724Y-95993511D01*
X137855727Y-95993506D01*
X146514662Y-87334572D01*
X146530887Y-87325713D01*
X146544102Y-87312783D01*
X146574282Y-87302017D01*
X146575983Y-87301089D01*
X146577303Y-87300809D01*
X146578802Y-87300500D01*
X146578842Y-87300500D01*
X146733497Y-87269737D01*
X146738930Y-87267486D01*
X146750462Y-87265109D01*
X146773939Y-87267045D01*
X146797359Y-87264497D01*
X146808115Y-87269863D01*
X146820095Y-87270852D01*
X146838799Y-87285173D01*
X146859878Y-87295691D01*
X146866024Y-87306020D01*
X146875570Y-87313329D01*
X146883563Y-87335492D01*
X146895608Y-87355734D01*
X146898164Y-87375982D01*
X146899273Y-87379055D01*
X146898808Y-87381082D01*
X146899500Y-87386555D01*
X146899500Y-89473430D01*
X146899499Y-89473448D01*
X146899499Y-89639154D01*
X146899498Y-89639154D01*
X146940423Y-89791885D01*
X146969358Y-89842000D01*
X146969359Y-89842004D01*
X146969360Y-89842004D01*
X147019479Y-89928814D01*
X147019481Y-89928817D01*
X147138349Y-90047685D01*
X147138355Y-90047690D01*
X147551181Y-90460516D01*
X147584666Y-90521839D01*
X147587500Y-90548197D01*
X147587500Y-94781360D01*
X147567815Y-94848399D01*
X147515011Y-94894154D01*
X147445853Y-94904098D01*
X147425182Y-94899291D01*
X147372391Y-94882138D01*
X147166324Y-94849500D01*
X147166319Y-94849500D01*
X146957681Y-94849500D01*
X146957676Y-94849500D01*
X146751610Y-94882137D01*
X146553179Y-94946612D01*
X146367285Y-95041330D01*
X146198493Y-95163966D01*
X146050966Y-95311493D01*
X145928330Y-95480285D01*
X145833612Y-95666179D01*
X145769137Y-95864610D01*
X145736500Y-96070675D01*
X145736500Y-96279324D01*
X145769137Y-96485389D01*
X145833612Y-96683820D01*
X145902485Y-96818990D01*
X145928330Y-96869714D01*
X146050965Y-97038505D01*
X146198495Y-97186035D01*
X146311022Y-97267791D01*
X146367287Y-97308671D01*
X146418561Y-97334796D01*
X146469358Y-97382770D01*
X146486153Y-97450591D01*
X146463616Y-97516726D01*
X146418563Y-97555765D01*
X146367555Y-97581755D01*
X146318180Y-97617627D01*
X146891766Y-98191212D01*
X146849708Y-98202482D01*
X146724292Y-98274890D01*
X146621890Y-98377292D01*
X146549482Y-98502708D01*
X146538212Y-98544765D01*
X145964627Y-97971180D01*
X145928757Y-98020552D01*
X145834075Y-98206372D01*
X145769626Y-98404727D01*
X145737000Y-98610720D01*
X145737000Y-98819279D01*
X145769626Y-99025272D01*
X145834075Y-99223627D01*
X145928759Y-99409451D01*
X145964627Y-99458818D01*
X145964627Y-99458819D01*
X146538212Y-98885234D01*
X146549482Y-98927292D01*
X146621890Y-99052708D01*
X146724292Y-99155110D01*
X146849708Y-99227518D01*
X146891765Y-99238787D01*
X146318179Y-99812371D01*
X146318180Y-99812372D01*
X146367543Y-99848236D01*
X146367556Y-99848244D01*
X146553372Y-99942924D01*
X146751727Y-100007373D01*
X146957721Y-100040000D01*
X147166279Y-100040000D01*
X147372272Y-100007373D01*
X147570627Y-99942924D01*
X147756451Y-99848240D01*
X147805818Y-99812372D01*
X147805818Y-99812371D01*
X147232234Y-99238787D01*
X147274292Y-99227518D01*
X147399708Y-99155110D01*
X147502110Y-99052708D01*
X147574518Y-98927292D01*
X147585787Y-98885233D01*
X148159371Y-99458818D01*
X148159372Y-99458818D01*
X148195242Y-99409449D01*
X148195242Y-99409448D01*
X148221233Y-99358438D01*
X148269206Y-99307642D01*
X148337027Y-99290846D01*
X148403162Y-99313383D01*
X148442203Y-99358437D01*
X148468330Y-99409714D01*
X148590965Y-99578505D01*
X148738495Y-99726035D01*
X148907286Y-99848670D01*
X148995116Y-99893421D01*
X149093179Y-99943387D01*
X149093181Y-99943387D01*
X149093184Y-99943389D01*
X149199545Y-99977948D01*
X149291610Y-100007862D01*
X149497676Y-100040500D01*
X149497681Y-100040500D01*
X149706324Y-100040500D01*
X149912389Y-100007862D01*
X149913894Y-100007373D01*
X150110816Y-99943389D01*
X150296714Y-99848670D01*
X150465505Y-99726035D01*
X150613035Y-99578505D01*
X150735670Y-99409714D01*
X150761515Y-99358990D01*
X150809489Y-99308194D01*
X150877310Y-99291398D01*
X150943445Y-99313935D01*
X150982485Y-99358990D01*
X151008328Y-99409712D01*
X151090086Y-99522241D01*
X151130965Y-99578505D01*
X151278495Y-99726035D01*
X151447286Y-99848670D01*
X151535116Y-99893421D01*
X151633179Y-99943387D01*
X151633181Y-99943387D01*
X151633184Y-99943389D01*
X151739545Y-99977948D01*
X151831610Y-100007862D01*
X152037676Y-100040500D01*
X152037681Y-100040500D01*
X152246324Y-100040500D01*
X152452389Y-100007862D01*
X152453894Y-100007373D01*
X152650816Y-99943389D01*
X152836714Y-99848670D01*
X153005505Y-99726035D01*
X153153035Y-99578505D01*
X153275670Y-99409714D01*
X153301515Y-99358990D01*
X153349489Y-99308194D01*
X153417310Y-99291398D01*
X153483445Y-99313935D01*
X153522485Y-99358990D01*
X153548328Y-99409712D01*
X153630086Y-99522241D01*
X153670965Y-99578505D01*
X153818495Y-99726035D01*
X153987286Y-99848670D01*
X154075116Y-99893421D01*
X154173179Y-99943387D01*
X154173181Y-99943387D01*
X154173184Y-99943389D01*
X154279545Y-99977948D01*
X154371610Y-100007862D01*
X154577676Y-100040500D01*
X154577681Y-100040500D01*
X154786324Y-100040500D01*
X154992389Y-100007862D01*
X154993894Y-100007373D01*
X155190816Y-99943389D01*
X155376714Y-99848670D01*
X155545505Y-99726035D01*
X155693035Y-99578505D01*
X155815670Y-99409714D01*
X155910389Y-99223816D01*
X155974862Y-99025389D01*
X155991741Y-98918818D01*
X156007500Y-98819324D01*
X156007500Y-98610675D01*
X155974862Y-98404610D01*
X155910387Y-98206179D01*
X155841344Y-98070675D01*
X155815670Y-98020286D01*
X155693035Y-97851495D01*
X155545505Y-97703965D01*
X155426672Y-97617627D01*
X155376712Y-97581328D01*
X155325990Y-97555485D01*
X155275194Y-97507511D01*
X155258398Y-97439690D01*
X155280935Y-97373555D01*
X155325990Y-97334515D01*
X155371170Y-97311495D01*
X155376714Y-97308670D01*
X155545505Y-97186035D01*
X155693035Y-97038505D01*
X155815670Y-96869714D01*
X155910389Y-96683816D01*
X155974862Y-96485389D01*
X156007500Y-96279324D01*
X156007500Y-96070675D01*
X155974862Y-95864610D01*
X155934152Y-95739319D01*
X155910389Y-95666184D01*
X155910387Y-95666181D01*
X155910387Y-95666179D01*
X155815669Y-95480285D01*
X155702564Y-95324611D01*
X155693035Y-95311495D01*
X155545505Y-95163965D01*
X155376714Y-95041330D01*
X155353451Y-95029477D01*
X155190820Y-94946612D01*
X154992389Y-94882137D01*
X154786324Y-94849500D01*
X154786319Y-94849500D01*
X154577681Y-94849500D01*
X154577676Y-94849500D01*
X154371610Y-94882138D01*
X154343313Y-94891332D01*
X154273472Y-94893326D01*
X154217316Y-94861081D01*
X149136819Y-89780584D01*
X149103334Y-89719261D01*
X149100500Y-89692903D01*
X149100500Y-82579765D01*
X149120185Y-82512726D01*
X149121398Y-82510874D01*
X149209390Y-82379185D01*
X149209390Y-82379184D01*
X149209394Y-82379179D01*
X149269737Y-82233497D01*
X149300500Y-82078842D01*
X149300500Y-81921158D01*
X149300500Y-81921155D01*
X149300499Y-81921153D01*
X149269738Y-81766510D01*
X149269737Y-81766503D01*
X149269735Y-81766498D01*
X149209397Y-81620827D01*
X149209390Y-81620814D01*
X149121789Y-81489711D01*
X149121786Y-81489707D01*
X149010292Y-81378213D01*
X149010288Y-81378210D01*
X148879185Y-81290609D01*
X148879172Y-81290602D01*
X148733501Y-81230264D01*
X148733489Y-81230261D01*
X148578845Y-81199500D01*
X148578842Y-81199500D01*
X148421158Y-81199500D01*
X148421155Y-81199500D01*
X148266510Y-81230261D01*
X148266498Y-81230264D01*
X148120827Y-81290602D01*
X148120814Y-81290609D01*
X147989711Y-81378210D01*
X147989707Y-81378213D01*
X147878213Y-81489707D01*
X147878210Y-81489711D01*
X147790609Y-81620814D01*
X147790602Y-81620827D01*
X147730264Y-81766498D01*
X147730261Y-81766510D01*
X147699500Y-81921153D01*
X147699500Y-82078846D01*
X147730261Y-82233489D01*
X147730264Y-82233501D01*
X147790602Y-82379172D01*
X147790609Y-82379185D01*
X147878602Y-82510874D01*
X147899480Y-82577551D01*
X147899500Y-82579765D01*
X147899500Y-84613444D01*
X147879815Y-84680483D01*
X147827011Y-84726238D01*
X147757853Y-84736182D01*
X147739575Y-84731202D01*
X147739324Y-84732031D01*
X147733500Y-84730264D01*
X147733497Y-84730263D01*
X147733492Y-84730262D01*
X147733489Y-84730261D01*
X147578845Y-84699500D01*
X147578842Y-84699500D01*
X147421158Y-84699500D01*
X147421155Y-84699500D01*
X147266510Y-84730261D01*
X147266498Y-84730264D01*
X147120827Y-84790602D01*
X147120814Y-84790609D01*
X146989711Y-84878210D01*
X146989707Y-84878213D01*
X146878213Y-84989707D01*
X146878210Y-84989711D01*
X146790609Y-85120814D01*
X146790602Y-85120827D01*
X146730264Y-85266498D01*
X146730261Y-85266510D01*
X146699500Y-85421153D01*
X146699500Y-85575500D01*
X146679815Y-85642539D01*
X146627011Y-85688294D01*
X146575500Y-85699500D01*
X146421155Y-85699500D01*
X146266510Y-85730261D01*
X146266498Y-85730264D01*
X146120827Y-85790602D01*
X146120814Y-85790609D01*
X145989711Y-85878210D01*
X145989707Y-85878213D01*
X145878213Y-85989707D01*
X145878210Y-85989711D01*
X145790609Y-86120814D01*
X145790602Y-86120827D01*
X145730264Y-86266498D01*
X145730261Y-86266508D01*
X145699361Y-86421850D01*
X145666976Y-86483761D01*
X145665425Y-86485339D01*
X137152584Y-94998181D01*
X137125656Y-95012884D01*
X137099838Y-95029477D01*
X137093637Y-95030368D01*
X137091261Y-95031666D01*
X137064903Y-95034500D01*
X136819662Y-95034500D01*
X136752623Y-95014815D01*
X136709177Y-94966795D01*
X136706683Y-94961901D01*
X136695670Y-94940286D01*
X136573035Y-94771495D01*
X136425505Y-94623965D01*
X136369241Y-94583086D01*
X136256712Y-94501328D01*
X136205990Y-94475485D01*
X136155194Y-94427511D01*
X136138398Y-94359690D01*
X136160935Y-94293555D01*
X136205990Y-94254515D01*
X136256712Y-94228671D01*
X136256711Y-94228671D01*
X136256714Y-94228670D01*
X136425505Y-94106035D01*
X136573035Y-93958505D01*
X136695670Y-93789714D01*
X136790389Y-93603816D01*
X136854862Y-93405389D01*
X136870399Y-93307292D01*
X136887500Y-93199324D01*
X136887500Y-92990675D01*
X136854862Y-92784610D01*
X136790387Y-92586179D01*
X136695810Y-92400561D01*
X136695670Y-92400286D01*
X136573035Y-92231495D01*
X136425505Y-92083965D01*
X136256714Y-91961330D01*
X136070820Y-91866612D01*
X135872389Y-91802137D01*
X135666324Y-91769500D01*
X135666319Y-91769500D01*
X135457681Y-91769500D01*
X135457676Y-91769500D01*
X135251610Y-91802137D01*
X135053179Y-91866612D01*
X134867285Y-91961330D01*
X134698493Y-92083966D01*
X134550966Y-92231493D01*
X134428328Y-92400288D01*
X134402202Y-92451563D01*
X134354227Y-92502358D01*
X134286406Y-92519153D01*
X134220272Y-92496615D01*
X134181233Y-92451561D01*
X134155247Y-92400561D01*
X134155236Y-92400543D01*
X134119372Y-92351180D01*
X134119371Y-92351179D01*
X133545787Y-92924764D01*
X133534518Y-92882708D01*
X133462110Y-92757292D01*
X133359708Y-92654890D01*
X133234292Y-92582482D01*
X133192233Y-92571212D01*
X133765819Y-91997627D01*
X133716451Y-91961759D01*
X133530627Y-91867075D01*
X133332272Y-91802626D01*
X133126279Y-91770000D01*
X132917721Y-91770000D01*
X132711727Y-91802626D01*
X132513372Y-91867075D01*
X132327552Y-91961757D01*
X132278180Y-91997627D01*
X132851766Y-92571212D01*
X132809708Y-92582482D01*
X132684292Y-92654890D01*
X132581890Y-92757292D01*
X132509482Y-92882708D01*
X132498212Y-92924765D01*
X131924627Y-92351180D01*
X131888757Y-92400552D01*
X131794075Y-92586372D01*
X131729626Y-92784727D01*
X131697000Y-92990720D01*
X131697000Y-93199279D01*
X131729626Y-93405272D01*
X131794075Y-93603627D01*
X131888759Y-93789451D01*
X131924627Y-93838818D01*
X131924627Y-93838819D01*
X132498212Y-93265234D01*
X132509482Y-93307292D01*
X132581890Y-93432708D01*
X132684292Y-93535110D01*
X132809708Y-93607518D01*
X132851765Y-93618787D01*
X132278179Y-94192371D01*
X132278180Y-94192372D01*
X132327543Y-94228236D01*
X132327561Y-94228247D01*
X132378561Y-94254233D01*
X132429358Y-94302207D01*
X132446153Y-94370028D01*
X132423616Y-94436163D01*
X132378563Y-94475202D01*
X132327288Y-94501328D01*
X132158493Y-94623966D01*
X132010966Y-94771493D01*
X131888330Y-94940285D01*
X131793612Y-95126179D01*
X131729137Y-95324610D01*
X131696500Y-95530675D01*
X123500500Y-95530675D01*
X123500500Y-73124500D01*
X123520185Y-73057461D01*
X123572989Y-73011706D01*
X123624500Y-73000500D01*
X165875500Y-73000500D01*
X165942539Y-73020185D01*
G37*
%TD.AperFunction*%
%TD*%
M02*
