#VRML V2.0 utf8
# META "generator" "CAD Exchanger 3.8.1 (cadexchanger.com)"
DEF __1 Transform {
  children [
    DEF C-5-534998-6 Group {
      children [
        DEF C-5-534998-6_1 Shape {
          appearance DEF __4 Appearance {
            material DEF __5 Material {
              ambientIntensity 0.25
              shininess 0
            }
          }
          geometry DEF __6 IndexedFaceSet {
            solid FALSE
            coord Coordinate {
              point [
                0.00453270606325 -0.0022098 0,
                0.00562729393675 -0.0022098 0,
                0.00562729393675 -0.0025146 0,
                0.00762 -0.0025146 0,
                0.00762 0.0025146 0,
                0.00562729393675 0.0025146 0,
                0.00562729393675 0.0022098 0,
                0.00453270606325 0.0022098 0,
                0.00453270606325 0.0025146 0,
                0.00308729393675 0.0025146 0,
                0.00308729393675 0.0022098 0,
                0.00199270606325 0.0022098 0,
                0.00199270606325 0.0025146 0,
                0.000547293936748 0.0025146 0,
                0.000547293936748 0.0022098 0,
                -0.000547293936748 0.0022098 0,
                -0.000547293936748 0.0025146 0,
                -0.00199270606325 0.0025146 0,
                -0.00199270606325 0.0022098 0,
                -0.00308729393675 0.0022098 0,
                -0.00308729393675 0.0025146 0,
                -0.00453270606325 0.0025146 0,
                -0.00453270606325 0.0022098 0,
                -0.00562729393675 0.0022098 0,
                -0.00562729393675 0.0025146 0,
                -0.00762 0.0025146 0,
                -0.00762 -0.0025146 0,
                -0.00562729393675 -0.0025146 0,
                -0.00562729393675 -0.0022098 0,
                -0.00453270606325 -0.0022098 0,
                -0.00453270606325 -0.0025146 0,
                -0.00308729393675 -0.0025146 0,
                -0.00308729393675 -0.0022098 0,
                -0.00199270606325 -0.0022098 0,
                -0.00199270606325 -0.0025146 0,
                -0.000547293936748 -0.0025146 0,
                -0.000547293936748 -0.0022098 0,
                0.000547293936748 -0.0022098 0,
                0.000547293936748 -0.0025146 0,
                0.00199270606325 -0.0025146 0,
                0.00199270606325 -0.0022098 0,
                0.00308729393675 -0.0022098 0,
                0.00308729393675 -0.0025146 0,
                0.00453270606325 -0.0025146 0,
                -0.005969 0.00136906 0,
                -0.005969 0.00117094 0,
                -0.006731 0.00117094 0,
                -0.006731 0.00136906 0,
                -0.005969 -0.00117094 0,
                -0.005969 -0.00136906 0,
                -0.006731 -0.00136906 0,
                -0.006731 -0.00117094 0,
                -0.003429 0.00136906 0,
                -0.003429 0.00117094 0,
                -0.004191 0.00117094 0,
                -0.004191 0.00136906 0,
                -0.003429 -0.00117094 0,
                -0.003429 -0.00136906 0,
                -0.004191 -0.00136906 0,
                -0.004191 -0.00117094 0,
                -0.000889 0.00136906 0,
                -0.000889 0.00117094 0,
                -0.001651 0.00117094 0,
                -0.001651 0.00136906 0,
                -0.000889 -0.00117094 0,
                -0.000889 -0.00136906 0,
                -0.001651 -0.00136906 0,
                -0.001651 -0.00117094 0,
                0.001651 0.00136906 0,
                0.001651 0.00117094 0,
                0.000889 0.00117094 0,
                0.000889 0.00136906 0,
                0.001651 -0.00117094 0,
                0.001651 -0.00136906 0,
                0.000889 -0.00136906 0,
                0.000889 -0.00117094 0,
                0.004191 0.00136906 0,
                0.004191 0.00117094 0,
                0.003429 0.00117094 0,
                0.003429 0.00136906 0,
                0.004191 -0.00117094 0,
                0.004191 -0.00136906 0,
                0.003429 -0.00136906 0,
                0.003429 -0.00117094 0,
                0.006731 0.00136906 0,
                0.006731 0.00117094 0,
                0.005969 0.00117094 0,
                0.005969 0.00136906 0,
                0.006731 -0.00117094 0,
                0.006731 -0.00136906 0,
                0.005969 -0.00136906 0,
                0.005969 -0.00117094 0,
                0.005334 -0.0022098 -0.000508,
                0.004826 -0.0022098 -0.000508,
                0.005334 -0.0025146 -0.000508,
                0.004826 -0.0025146 -0.000508,
                0.002794 -0.0025146 -0.000508,
                0.002286 -0.0025146 -0.000508,
                0.000254 -0.0025146 -0.000508,
                -0.000254 -0.0025146 -0.000508,
                -0.002286 -0.0025146 -0.000508,
                -0.002794 -0.0025146 -0.000508,
                -0.004826 -0.0025146 -0.000508,
                -0.005334 -0.0025146 -0.000508,
                -0.00762 -0.0025146 0.006223,
                0.00762 -0.0025146 0.006223,
                0.002794 -0.0022098 -0.000508,
                0.002286 -0.0022098 -0.000508,
                0.000254 -0.0022098 -0.000508,
                -0.000254 -0.0022098 -0.000508,
                -0.002286 -0.0022098 -0.000508,
                -0.002794 -0.0022098 -0.000508,
                -0.004826 -0.0022098 -0.000508,
                -0.005334 -0.0022098 -0.000508,
                -0.00762 0.0025146 0.006223,
                0.004826 0.0025146 -0.000508,
                0.005334 0.0025146 -0.000508,
                0.00762 0.0025146 0.006223,
                -0.005334 0.0025146 -0.000508,
                -0.004826 0.0025146 -0.000508,
                -0.002794 0.0025146 -0.000508,
                -0.002286 0.0025146 -0.000508,
                -0.000254 0.0025146 -0.000508,
                0.000254 0.0025146 -0.000508,
                0.002286 0.0025146 -0.000508,
                0.002794 0.0025146 -0.000508,
                0.004826 0.0022098 -0.000508,
                0.005334 0.0022098 -0.000508,
                -0.0052578 0.0023622 0.006223,
                -0.0052578 0.0001778 0.006223,
                -0.0074422 0.0023622 0.006223,
                -0.0074422 0.0001778 0.006223,
                -0.0052578 -0.0001778 0.006223,
                -0.0052578 -0.0023622 0.006223,
                -0.0074422 -0.0001778 0.006223,
                -0.0074422 -0.0023622 0.006223,
                -0.0027178 0.0023622 0.006223,
                -0.0027178 0.0001778 0.006223,
                -0.0049022 0.0023622 0.006223,
                -0.0049022 0.0001778 0.006223,
                -0.0027178 -0.0001778 0.006223,
                -0.0027178 -0.0023622 0.006223,
                -0.0049022 -0.0001778 0.006223,
                -0.0049022 -0.0023622 0.006223,
                -0.0001778 0.0023622 0.006223,
                -0.0001778 0.0001778 0.006223,
                -0.0023622 0.0023622 0.006223,
                -0.0023622 0.0001778 0.006223,
                -0.0001778 -0.0001778 0.006223,
                -0.0001778 -0.0023622 0.006223,
                -0.0023622 -0.0001778 0.006223,
                -0.0023622 -0.0023622 0.006223,
                0.0023622 0.0023622 0.006223,
                0.0023622 0.0001778 0.006223,
                0.0001778 0.0023622 0.006223,
                0.0001778 0.0001778 0.006223,
                0.0023622 -0.0001778 0.006223,
                0.0023622 -0.0023622 0.006223,
                0.0001778 -0.0001778 0.006223,
                0.0001778 -0.0023622 0.006223,
                0.0049022 0.0023622 0.006223,
                0.0049022 0.0001778 0.006223,
                0.0027178 0.0023622 0.006223,
                0.0027178 0.0001778 0.006223,
                0.0049022 -0.0001778 0.006223,
                0.0049022 -0.0023622 0.006223,
                0.0027178 -0.0001778 0.006223,
                0.0027178 -0.0023622 0.006223,
                0.0074422 0.0023622 0.006223,
                0.0074422 0.0001778 0.006223,
                0.0052578 0.0023622 0.006223,
                0.0052578 0.0001778 0.006223,
                0.0074422 -0.0001778 0.006223,
                0.0074422 -0.0023622 0.006223,
                0.0052578 -0.0001778 0.006223,
                0.0052578 -0.0023622 0.006223,
                -0.0057658 0.0008128 0.005588,
                -0.0057658 0.0017272 0.005588,
                -0.0069342 0.0008128 0.005588,
                -0.0069342 0.0017272 0.005588,
                -0.0069342 0.0017272 0.0051816,
                -0.0069342 0.0008128 0.0051816,
                -0.0057658 0.0017272 0.0051816,
                -0.0057658 0.0008128 0.0051816,
                -0.0069342 -0.0008128 0.0051816,
                -0.0069342 -0.0017272 0.0051816,
                -0.0057658 -0.0008128 0.0051816,
                -0.0057658 -0.0017272 0.0051816,
                -0.0069342 -0.0017272 0.005588,
                -0.0069342 -0.0008128 0.005588,
                -0.0057658 -0.0017272 0.005588,
                -0.0057658 -0.0008128 0.005588,
                -0.0032258 0.0008128 0.005588,
                -0.0032258 0.0017272 0.005588,
                -0.0043942 0.0008128 0.005588,
                -0.0043942 0.0017272 0.005588,
                -0.0032258 0.0017272 0.0051816,
                -0.0043942 0.0017272 0.0051816,
                -0.0032258 0.0008128 0.0051816,
                -0.0043942 0.0008128 0.0051816,
                -0.0043942 -0.0008128 0.0051816,
                -0.0043942 -0.0017272 0.0051816,
                -0.0032258 -0.0008128 0.0051816,
                -0.0032258 -0.0017272 0.0051816,
                -0.0043942 -0.0017272 0.005588,
                -0.0043942 -0.0008128 0.005588,
                -0.0032258 -0.0008128 0.005588,
                -0.0032258 -0.0017272 0.005588,
                -0.0006858 0.0008128 0.005588,
                -0.0006858 0.0017272 0.005588,
                -0.0018542 0.0008128 0.005588,
                -0.0018542 0.0017272 0.005588,
                -0.0006858 0.0017272 0.0051816,
                -0.0018542 0.0017272 0.0051816,
                -0.0006858 0.0008128 0.0051816,
                -0.0018542 0.0008128 0.0051816,
                -0.0018542 -0.0008128 0.0051816,
                -0.0018542 -0.0017272 0.0051816,
                -0.0006858 -0.0008128 0.0051816,
                -0.0006858 -0.0017272 0.0051816,
                -0.0018542 -0.0017272 0.005588,
                -0.0018542 -0.0008128 0.005588,
                -0.0006858 -0.0008128 0.005588,
                -0.0006858 -0.0017272 0.005588,
                0.0018542 0.0008128 0.005588,
                0.0018542 0.0017272 0.005588,
                0.0006858 0.0008128 0.005588,
                0.0006858 0.0017272 0.005588,
                0.0018542 0.0017272 0.0051816,
                0.0006858 0.0017272 0.0051816,
                0.0018542 0.0008128 0.0051816,
                0.0006858 0.0008128 0.0051816,
                0.0006858 -0.0008128 0.0051816,
                0.0006858 -0.0017272 0.0051816,
                0.0018542 -0.0008128 0.0051816,
                0.0018542 -0.0017272 0.0051816,
                0.0006858 -0.0017272 0.005588,
                0.0006858 -0.0008128 0.005588,
                0.0018542 -0.0008128 0.005588,
                0.0018542 -0.0017272 0.005588,
                0.0043942 0.0008128 0.005588,
                0.0043942 0.0017272 0.005588,
                0.0032258 0.0008128 0.005588,
                0.0032258 0.0017272 0.005588,
                0.0043942 0.0017272 0.0051816,
                0.0032258 0.0017272 0.0051816,
                0.0043942 0.0008128 0.0051816,
                0.0032258 0.0008128 0.0051816,
                0.0032258 -0.0008128 0.0051816,
                0.0032258 -0.0017272 0.0051816,
                0.0043942 -0.0008128 0.0051816,
                0.0043942 -0.0017272 0.0051816,
                0.0032258 -0.0017272 0.005588,
                0.0032258 -0.0008128 0.005588,
                0.0043942 -0.0008128 0.005588,
                0.0043942 -0.0017272 0.005588,
                0.0069342 0.0008128 0.005588,
                0.0069342 0.0017272 0.005588,
                0.0057658 0.0008128 0.005588,
                0.0057658 0.0017272 0.005588,
                0.0069342 0.0017272 0.0051816,
                0.0057658 0.0017272 0.0051816,
                0.0069342 0.0008128 0.0051816,
                0.0057658 0.0008128 0.0051816,
                0.0057658 -0.0008128 0.0051816,
                0.0057658 -0.0017272 0.0051816,
                0.0069342 -0.0008128 0.0051816,
                0.0069342 -0.0017272 0.0051816,
                0.0057658 -0.0017272 0.005588,
                0.0057658 -0.0008128 0.005588,
                0.0069342 -0.0008128 0.005588,
                0.0069342 -0.0017272 0.005588,
                -0.005334 0.0022098 -0.000508,
                -0.004826 0.0022098 -0.000508,
                -0.002794 0.0022098 -0.000508,
                -0.002286 0.0022098 -0.000508,
                -0.000254 0.0022098 -0.000508,
                0.000254 0.0022098 -0.000508,
                0.002286 0.0022098 -0.000508,
                0.002794 0.0022098 -0.000508,
                -0.005969 0.00136906 -0.003683,
                -0.005969 0.00117094 -0.003683,
                -0.006731 0.00136906 -0.003683,
                -0.006731 0.00117094 -0.003683,
                -0.005969 -0.00117094 -0.003683,
                -0.005969 -0.00136906 -0.003683,
                -0.006731 -0.00117094 -0.003683,
                -0.006731 -0.00136906 -0.003683,
                -0.003429 0.00136906 -0.003683,
                -0.003429 0.00117094 -0.003683,
                -0.004191 0.00136906 -0.003683,
                -0.004191 0.00117094 -0.003683,
                -0.003429 -0.00117094 -0.003683,
                -0.003429 -0.00136906 -0.003683,
                -0.004191 -0.00117094 -0.003683,
                -0.004191 -0.00136906 -0.003683,
                -0.000889 0.00136906 -0.003683,
                -0.000889 0.00117094 -0.003683,
                -0.001651 0.00136906 -0.003683,
                -0.001651 0.00117094 -0.003683,
                -0.000889 -0.00117094 -0.003683,
                -0.000889 -0.00136906 -0.003683,
                -0.001651 -0.00117094 -0.003683,
                -0.001651 -0.00136906 -0.003683,
                0.001651 0.00136906 -0.003683,
                0.001651 0.00117094 -0.003683,
                0.000889 0.00136906 -0.003683,
                0.000889 0.00117094 -0.003683,
                0.001651 -0.00117094 -0.003683,
                0.001651 -0.00136906 -0.003683,
                0.000889 -0.00117094 -0.003683,
                0.000889 -0.00136906 -0.003683,
                0.004191 0.00136906 -0.003683,
                0.004191 0.00117094 -0.003683,
                0.003429 0.00136906 -0.003683,
                0.003429 0.00117094 -0.003683,
                0.004191 -0.00117094 -0.003683,
                0.004191 -0.00136906 -0.003683,
                0.003429 -0.00117094 -0.003683,
                0.003429 -0.00136906 -0.003683,
                0.006731 0.00136906 -0.003683,
                0.006731 0.00117094 -0.003683,
                0.005969 0.00136906 -0.003683,
                0.005969 0.00117094 -0.003683,
                0.006731 -0.00117094 -0.003683,
                0.006731 -0.00136906 -0.003683,
                0.005969 -0.00117094 -0.003683,
                0.005969 -0.00136906 -0.003683

              ]
            }
            normal Normal {
              vector [
                -0 -0 -1,
                -0 -0 -1,
                -0 -0 -1,
                -0 -0 -1,
                -0 -0 -1,
                -0 -0 -1,
                -0 -0 -1,
                -0 -0 -1,
                -0 -0 -1,
                -0 -0 -1,
                -0 -0 -1,
                -0 -0 -1,
                -0 -0 -1,
                -0 -0 -1,
                -0 -0 -1,
                -0 -0 -1,
                -0 -0 -1,
                -0 -0 -1,
                -0 -0 -1,
                -0 -0 -1,
                -0 -0 -1,
                -0 -0 -1,
                -0 -0 -1,
                -0 -0 -1,
                -0 -0 -1,
                -0 -0 -1,
                -0 -0 -1,
                -0 -0 -1,
                -0 -0 -1,
                -0 -0 -1,
                -0 -0 -1,
                -0 -0 -1,
                -0 -0 -1,
                -0 -0 -1,
                -0 -0 -1,
                -0 -0 -1,
                -0 -0 -1,
                -0 -0 -1,
                -0 -0 -1,
                -0 -0 -1,
                -0 -0 -1,
                -0 -0 -1,
                -0 -0 -1,
                -0 -0 -1,
                -0 -0 -1,
                -0 -0 -1,
                -0 -0 -1,
                -0 -0 -1,
                -0 -0 -1,
                -0 -0 -1,
                -0 -0 -1,
                -0 -0 -1,
                -0 -0 -1,
                -0 -0 -1,
                -0 -0 -1,
                -0 -0 -1,
                -0 -0 -1,
                -0 -0 -1,
                -0 -0 -1,
                -0 -0 -1,
                -0 -0 -1,
                -0 -0 -1,
                -0 -0 -1,
                -0 -0 -1,
                -0 -0 -1,
                -0 -0 -1,
                -0 -0 -1,
                -0 -0 -1,
                -0 -0 -1,
                -0 -0 -1,
                -0 -0 -1,
                -0 -0 -1,
                -0 -0 -1,
                -0 -0 -1,
                -0 -0 -1,
                -0 -0 -1,
                -0 -0 -1,
                -0 -0 -1,
                -0 -0 -1,
                -0 -0 -1,
                -0 -0 -1,
                -0 -0 -1,
                -0 -0 -1,
                -0 -0 -1,
                -0 -0 -1,
                -0 -0 -1,
                -0 -0 -1,
                -0 -0 -1,
                -0 -0 -1,
                -0 -0 -1,
                -0 -0 -1,
                -0 -0 -1,
                0 1 0,
                0 1 0,
                0 1 0,
                0 1 0,
                0.86602539 -0 -0.5,
                0.86602539 -0 -0.5,
                0.86602539 -0 -0.5,
                0.86602539 -0 -0.5,
                0 -1 0,
                0 -1 0,
                0 -1 0,
                0 -1 0,
                0 -1 0,
                0 -1 0,
                0 -1 0,
                0 -1 0,
                0 -1 0,
                0 -1 0,
                0 -1 0,
                0 -1 0,
                0 -1 0,
                0 -1 0,
                0 -1 0,
                0 -1 0,
                0 -1 0,
                0 -1 0,
                0 -1 0,
                0 -1 0,
                0 -1 0,
                0 -1 0,
                0 -1 0,
                0 -1 0,
                -0 -0 -1,
                -0 -0 -1,
                -0 -0 -1,
                -0 -0 -1,
                -0.86602539 -0 -0.5,
                -0.86602539 -0 -0.5,
                -0.86602539 -0 -0.5,
                -0.86602539 -0 -0.5,
                0.86602539 -0 -0.5,
                0.86602539 -0 -0.5,
                0.86602539 -0 -0.5,
                0.86602539 -0 -0.5,
                0 1 0,
                0 1 0,
                0 1 0,
                0 1 0,
                -0.86602539 -0 -0.5,
                -0.86602539 -0 -0.5,
                -0.86602539 -0 -0.5,
                -0.86602539 -0 -0.5,
                -0 -0 -1,
                -0 -0 -1,
                -0 -0 -1,
                -0 -0 -1,
                0.86602539 -0 -0.5,
                0.86602539 -0 -0.5,
                0.86602539 -0 -0.5,
                0.86602539 -0 -0.5,
                0 1 0,
                0 1 0,
                0 1 0,
                0 1 0,
                -0.86602539 -0 -0.5,
                -0.86602539 -0 -0.5,
                -0.86602539 -0 -0.5,
                -0.86602539 -0 -0.5,
                -0 -0 -1,
                -0 -0 -1,
                -0 -0 -1,
                -0 -0 -1,
                0.86602539 -0 -0.5,
                0.86602539 -0 -0.5,
                0.86602539 -0 -0.5,
                0.86602539 -0 -0.5,
                0 1 0,
                0 1 0,
                0 1 0,
                0 1 0,
                -0.86602539 -0 -0.5,
                -0.86602539 -0 -0.5,
                -0.86602539 -0 -0.5,
                -0.86602539 -0 -0.5,
                -0 -0 -1,
                -0 -0 -1,
                -0 -0 -1,
                -0 -0 -1,
                0.86602539 -0 -0.5,
                0.86602539 -0 -0.5,
                0.86602539 -0 -0.5,
                0.86602539 -0 -0.5,
                0 1 0,
                0 1 0,
                0 1 0,
                0 1 0,
                -0.86602539 -0 -0.5,
                -0.86602539 -0 -0.5,
                -0.86602539 -0 -0.5,
                -0.86602539 -0 -0.5,
                -0 -0 -1,
                -0 -0 -1,
                -0 -0 -1,
                -0 -0 -1,
                -1 0 0,
                -1 0 0,
                -1 0 0,
                -1 0 0,
                0 1 0,
                0 1 0,
                0 1 0,
                0 1 0,
                0 1 0,
                0 1 0,
                0 1 0,
                0 1 0,
                0 1 0,
                0 1 0,
                0 1 0,
                0 1 0,
                0 1 0,
                0 1 0,
                0 1 0,
                0 1 0,
                0 1 0,
                0 1 0,
                0 1 0,
                0 1 0,
                0 1 0,
                0 1 0,
                0 1 0,
                0 1 0,
                -0.86602539 0 -0.5,
                -0.86602539 0 -0.5,
                -0.86602539 0 -0.5,
                -0.86602539 0 -0.5,
                -0 -1 -0,
                -0 -1 -0,
                -0 -1 -0,
                -0 -1 -0,
                0.86602539 0 -0.5,
                0.86602539 0 -0.5,
                0.86602539 0 -0.5,
                0.86602539 0 -0.5,
                0 0 -1,
                0 0 -1,
                0 0 -1,
                0 0 -1,
                1 0 0,
                1 0 0,
                1 0 0,
                1 0 0,
                0 0 1,
                0 0 1,
                0 0 1,
                0 0 1,
                0 0 1,
                0 0 1,
                0 0 1,
                0 0 1,
                0 0 1,
                0 0 1,
                0 0 1,
                0 0 1,
                0 0 1,
                0 0 1,
                0 0 1,
                0 0 1,
                0 0 1,
                0 0 1,
                0 0 1,
                0 0 1,
                0 0 1,
                0 0 1,
                0 0 1,
                0 0 1,
                0 0 1,
                0 0 1,
                0 0 1,
                0 0 1,
                0 0 1,
                0 0 1,
                0 0 1,
                0 0 1,
                0 0 1,
                0 0 1,
                0 0 1,
                0 0 1,
                0 0 1,
                0 0 1,
                0 0 1,
                0 0 1,
                0 0 1,
                0 0 1,
                0 0 1,
                0 0 1,
                0 0 1,
                0 0 1,
                0 0 1,
                0 0 1,
                0 0 1,
                0 0 1,
                0 0 1,
                0 0 1,
                -0.78086883 0 0.62469506,
                -0.78086883 0 0.62469506,
                -0.78086883 0 0.62469506,
                -0.78086883 0 0.62469506,
                0 0.70710677 0.70710677,
                0 0.70710677 0.70710677,
                0 0.70710677 0.70710677,
                0 0.70710677 0.70710677,
                0.78086883 0 0.62469506,
                0.78086883 0 0.62469506,
                0.78086883 0 0.62469506,
                0.78086883 0 0.62469506,
                1 -0 -0,
                1 -0 -0,
                1 -0 -0,
                1 -0 -0,
                -0 -1 -0,
                -0 -1 -0,
                -0 -1 -0,
                -0 -1 -0,
                0 -0.70710677 0.70710677,
                0 -0.70710677 0.70710677,
                0 -0.70710677 0.70710677,
                0 -0.70710677 0.70710677,
                -1 -0 -0,
                -1 -0 -0,
                -1 -0 -0,
                -1 -0 -0,
                -0 1 -0,
                -0 1 -0,
                -0 1 -0,
                -0 1 -0,
                0 0 1,
                0 0 1,
                0 0 1,
                0 0 1,
                0 0 1,
                0 0 1,
                0 0 1,
                0 0 1,
                1 -0 -0,
                1 -0 -0,
                1 -0 -0,
                1 -0 -0,
                0.78086883 0 0.62469506,
                0.78086883 0 0.62469506,
                0.78086883 0 0.62469506,
                0.78086883 0 0.62469506,
                0 0.70710677 0.70710677,
                0 0.70710677 0.70710677,
                0 0.70710677 0.70710677,
                0 0.70710677 0.70710677,
                -0 1 -0,
                -0 1 -0,
                -0 1 -0,
                -0 1 -0,
                -1 -0 -0,
                -1 -0 -0,
                -1 -0 -0,
                -1 -0 -0,
                -0.78086883 0 0.62469506,
                -0.78086883 0 0.62469506,
                -0.78086883 0 0.62469506,
                -0.78086883 0 0.62469506,
                0 -0.70710677 0.70710677,
                0 -0.70710677 0.70710677,
                0 -0.70710677 0.70710677,
                0 -0.70710677 0.70710677,
                -0 -1 -0,
                -0 -1 -0,
                -0 -1 -0,
                -0 -1 -0,
                -0.78086883 0 0.62469506,
                -0.78086883 0 0.62469506,
                -0.78086883 0 0.62469506,
                -0.78086883 0 0.62469506,
                0 0.70710677 0.70710677,
                0 0.70710677 0.70710677,
                0 0.70710677 0.70710677,
                0 0.70710677 0.70710677,
                0.78086883 0 0.62469506,
                0.78086883 0 0.62469506,
                0.78086883 0 0.62469506,
                0.78086883 0 0.62469506,
                0 -0.70710677 0.70710677,
                0 -0.70710677 0.70710677,
                0 -0.70710677 0.70710677,
                0 -0.70710677 0.70710677,
                -0 -1 -0,
                -0 -1 -0,
                -0 -1 -0,
                -0 -1 -0,
                -1 -0 -0,
                -1 -0 -0,
                -1 -0 -0,
                -1 -0 -0,
                -0 1 -0,
                -0 1 -0,
                -0 1 -0,
                -0 1 -0,
                1 -0 -0,
                1 -0 -0,
                1 -0 -0,
                1 -0 -0,
                0 0 1,
                0 0 1,
                0 0 1,
                0 0 1,
                0 0 1,
                0 0 1,
                0 0 1,
                0 0 1,
                1 -0 -0,
                1 -0 -0,
                1 -0 -0,
                1 -0 -0,
                0.78086883 0 0.62469506,
                0.78086883 0 0.62469506,
                0.78086883 0 0.62469506,
                0.78086883 0 0.62469506,
                0 -0.70710677 0.70710677,
                0 -0.70710677 0.70710677,
                0 -0.70710677 0.70710677,
                0 -0.70710677 0.70710677,
                -0.78086883 0 0.62469506,
                -0.78086883 0 0.62469506,
                -0.78086883 0 0.62469506,
                -0.78086883 0 0.62469506,
                0 0.70710677 0.70710677,
                0 0.70710677 0.70710677,
                0 0.70710677 0.70710677,
                0 0.70710677 0.70710677,
                -0 1 -0,
                -0 1 -0,
                -0 1 -0,
                -0 1 -0,
                -1 -0 -0,
                -1 -0 -0,
                -1 -0 -0,
                -1 -0 -0,
                -0 -1 -0,
                -0 -1 -0,
                -0 -1 -0,
                -0 -1 -0,
                -0.78086883 0 0.62469506,
                -0.78086883 0 0.62469506,
                -0.78086883 0 0.62469506,
                -0.78086883 0 0.62469506,
                0 0.70710677 0.70710677,
                0 0.70710677 0.70710677,
                0 0.70710677 0.70710677,
                0 0.70710677 0.70710677,
                0.78086883 0 0.62469506,
                0.78086883 0 0.62469506,
                0.78086883 0 0.62469506,
                0.78086883 0 0.62469506,
                0 -0.70710677 0.70710677,
                0 -0.70710677 0.70710677,
                0 -0.70710677 0.70710677,
                0 -0.70710677 0.70710677,
                -0 -1 -0,
                -0 -1 -0,
                -0 -1 -0,
                -0 -1 -0,
                -1 -0 -0,
                -1 -0 -0,
                -1 -0 -0,
                -1 -0 -0,
                -0 1 -0,
                -0 1 -0,
                -0 1 -0,
                -0 1 -0,
                1 -0 -0,
                1 -0 -0,
                1 -0 -0,
                1 -0 -0,
                0 0 1,
                0 0 1,
                0 0 1,
                0 0 1,
                0 0 1,
                0 0 1,
                0 0 1,
                0 0 1,
                1 -0 -0,
                1 -0 -0,
                1 -0 -0,
                1 -0 -0,
                0.78086883 0 0.62469506,
                0.78086883 0 0.62469506,
                0.78086883 0 0.62469506,
                0.78086883 0 0.62469506,
                0 -0.70710677 0.70710677,
                0 -0.70710677 0.70710677,
                0 -0.70710677 0.70710677,
                0 -0.70710677 0.70710677,
                -0.78086883 0 0.62469506,
                -0.78086883 0 0.62469506,
                -0.78086883 0 0.62469506,
                -0.78086883 0 0.62469506,
                0 0.70710677 0.70710677,
                0 0.70710677 0.70710677,
                0 0.70710677 0.70710677,
                0 0.70710677 0.70710677,
                -0 1 -0,
                -0 1 -0,
                -0 1 -0,
                -0 1 -0,
                -1 -0 -0,
                -1 -0 -0,
                -1 -0 -0,
                -1 -0 -0,
                -0 -1 -0,
                -0 -1 -0,
                -0 -1 -0,
                -0 -1 -0,
                -0.78086883 0 0.62469506,
                -0.78086883 0 0.62469506,
                -0.78086883 0 0.62469506,
                -0.78086883 0 0.62469506,
                0 0.70710677 0.70710677,
                0 0.70710677 0.70710677,
                0 0.70710677 0.70710677,
                0 0.70710677 0.70710677,
                0.78086883 0 0.62469506,
                0.78086883 0 0.62469506,
                0.78086883 0 0.62469506,
                0.78086883 0 0.62469506,
                0 -0.70710677 0.70710677,
                0 -0.70710677 0.70710677,
                0 -0.70710677 0.70710677,
                0 -0.70710677 0.70710677,
                -0 -1 -0,
                -0 -1 -0,
                -0 -1 -0,
                -0 -1 -0,
                -1 -0 -0,
                -1 -0 -0,
                -1 -0 -0,
                -1 -0 -0,
                -0 1 -0,
                -0 1 -0,
                -0 1 -0,
                -0 1 -0,
                1 -0 -0,
                1 -0 -0,
                1 -0 -0,
                1 -0 -0,
                0 0 1,
                0 0 1,
                0 0 1,
                0 0 1,
                0 0 1,
                0 0 1,
                0 0 1,
                0 0 1,
                1 -0 -0,
                1 -0 -0,
                1 -0 -0,
                1 -0 -0,
                0.78086883 0 0.62469506,
                0.78086883 0 0.62469506,
                0.78086883 0 0.62469506,
                0.78086883 0 0.62469506,
                0 -0.70710677 0.70710677,
                0 -0.70710677 0.70710677,
                0 -0.70710677 0.70710677,
                0 -0.70710677 0.70710677,
                -0.78086883 0 0.62469506,
                -0.78086883 0 0.62469506,
                -0.78086883 0 0.62469506,
                -0.78086883 0 0.62469506,
                0 0.70710677 0.70710677,
                0 0.70710677 0.70710677,
                0 0.70710677 0.70710677,
                0 0.70710677 0.70710677,
                -0 1 -0,
                -0 1 -0,
                -0 1 -0,
                -0 1 -0,
                -1 -0 -0,
                -1 -0 -0,
                -1 -0 -0,
                -1 -0 -0,
                -0 -1 -0,
                -0 -1 -0,
                -0 -1 -0,
                -0 -1 -0,
                -0.78086883 0 0.62469506,
                -0.78086883 0 0.62469506,
                -0.78086883 0 0.62469506,
                -0.78086883 0 0.62469506,
                0 0.70710677 0.70710677,
                0 0.70710677 0.70710677,
                0 0.70710677 0.70710677,
                0 0.70710677 0.70710677,
                0.78086883 0 0.62469506,
                0.78086883 0 0.62469506,
                0.78086883 0 0.62469506,
                0.78086883 0 0.62469506,
                0 -0.70710677 0.70710677,
                0 -0.70710677 0.70710677,
                0 -0.70710677 0.70710677,
                0 -0.70710677 0.70710677,
                -0 -1 -0,
                -0 -1 -0,
                -0 -1 -0,
                -0 -1 -0,
                -1 -0 -0,
                -1 -0 -0,
                -1 -0 -0,
                -1 -0 -0,
                -0 1 -0,
                -0 1 -0,
                -0 1 -0,
                -0 1 -0,
                1 -0 -0,
                1 -0 -0,
                1 -0 -0,
                1 -0 -0,
                0 0 1,
                0 0 1,
                0 0 1,
                0 0 1,
                0 0 1,
                0 0 1,
                0 0 1,
                0 0 1,
                1 -0 -0,
                1 -0 -0,
                1 -0 -0,
                1 -0 -0,
                0.78086883 0 0.62469506,
                0.78086883 0 0.62469506,
                0.78086883 0 0.62469506,
                0.78086883 0 0.62469506,
                0 -0.70710677 0.70710677,
                0 -0.70710677 0.70710677,
                0 -0.70710677 0.70710677,
                0 -0.70710677 0.70710677,
                -0.78086883 0 0.62469506,
                -0.78086883 0 0.62469506,
                -0.78086883 0 0.62469506,
                -0.78086883 0 0.62469506,
                0 0.70710677 0.70710677,
                0 0.70710677 0.70710677,
                0 0.70710677 0.70710677,
                0 0.70710677 0.70710677,
                -0 1 -0,
                -0 1 -0,
                -0 1 -0,
                -0 1 -0,
                -1 -0 -0,
                -1 -0 -0,
                -1 -0 -0,
                -1 -0 -0,
                -0 -1 -0,
                -0 -1 -0,
                -0 -1 -0,
                -0 -1 -0,
                -0.78086883 0 0.62469506,
                -0.78086883 0 0.62469506,
                -0.78086883 0 0.62469506,
                -0.78086883 0 0.62469506,
                0 0.70710677 0.70710677,
                0 0.70710677 0.70710677,
                0 0.70710677 0.70710677,
                0 0.70710677 0.70710677,
                0.78086883 0 0.62469506,
                0.78086883 0 0.62469506,
                0.78086883 0 0.62469506,
                0.78086883 0 0.62469506,
                0 -0.70710677 0.70710677,
                0 -0.70710677 0.70710677,
                0 -0.70710677 0.70710677,
                0 -0.70710677 0.70710677,
                -0 -1 -0,
                -0 -1 -0,
                -0 -1 -0,
                -0 -1 -0,
                -1 -0 -0,
                -1 -0 -0,
                -1 -0 -0,
                -1 -0 -0,
                -0 1 -0,
                -0 1 -0,
                -0 1 -0,
                -0 1 -0,
                1 -0 -0,
                1 -0 -0,
                1 -0 -0,
                1 -0 -0,
                0 0 1,
                0 0 1,
                0 0 1,
                0 0 1,
                0 0 1,
                0 0 1,
                0 0 1,
                0 0 1,
                1 -0 -0,
                1 -0 -0,
                1 -0 -0,
                1 -0 -0,
                0.78086883 0 0.62469506,
                0.78086883 0 0.62469506,
                0.78086883 0 0.62469506,
                0.78086883 0 0.62469506,
                0 -0.70710677 0.70710677,
                0 -0.70710677 0.70710677,
                0 -0.70710677 0.70710677,
                0 -0.70710677 0.70710677,
                -0.78086883 0 0.62469506,
                -0.78086883 0 0.62469506,
                -0.78086883 0 0.62469506,
                -0.78086883 0 0.62469506,
                0 0.70710677 0.70710677,
                0 0.70710677 0.70710677,
                0 0.70710677 0.70710677,
                0 0.70710677 0.70710677,
                -0 1 -0,
                -0 1 -0,
                -0 1 -0,
                -0 1 -0,
                -1 -0 -0,
                -1 -0 -0,
                -1 -0 -0,
                -1 -0 -0,
                -0 -1 -0,
                -0 -1 -0,
                -0 -1 -0,
                -0 -1 -0,
                -0.86602539 0 -0.5,
                -0.86602539 0 -0.5,
                -0.86602539 0 -0.5,
                -0.86602539 0 -0.5,
                -0 -1 -0,
                -0 -1 -0,
                -0 -1 -0,
                -0 -1 -0,
                0.86602539 0 -0.5,
                0.86602539 0 -0.5,
                0.86602539 0 -0.5,
                0.86602539 0 -0.5,
                0 0 -1,
                0 0 -1,
                0 0 -1,
                0 0 -1,
                -0.86602539 0 -0.5,
                -0.86602539 0 -0.5,
                -0.86602539 0 -0.5,
                -0.86602539 0 -0.5,
                -0 -1 -0,
                -0 -1 -0,
                -0 -1 -0,
                -0 -1 -0,
                0.86602539 0 -0.5,
                0.86602539 0 -0.5,
                0.86602539 0 -0.5,
                0.86602539 0 -0.5,
                0 0 -1,
                0 0 -1,
                0 0 -1,
                0 0 -1,
                -0.86602539 0 -0.5,
                -0.86602539 0 -0.5,
                -0.86602539 0 -0.5,
                -0.86602539 0 -0.5,
                -0 -1 -0,
                -0 -1 -0,
                -0 -1 -0,
                -0 -1 -0,
                0.86602539 0 -0.5,
                0.86602539 0 -0.5,
                0.86602539 0 -0.5,
                0.86602539 0 -0.5,
                0 0 -1,
                0 0 -1,
                0 0 -1,
                0 0 -1,
                -0.86602539 0 -0.5,
                -0.86602539 0 -0.5,
                -0.86602539 0 -0.5,
                -0.86602539 0 -0.5,
                -0 -1 -0,
                -0 -1 -0,
                -0 -1 -0,
                -0 -1 -0,
                0.86602539 0 -0.5,
                0.86602539 0 -0.5,
                0.86602539 0 -0.5,
                0.86602539 0 -0.5,
                0 0 -1,
                0 0 -1,
                0 0 -1,
                0 0 -1,
                1 0 0,
                1 0 0,
                1 0 0,
                1 0 0,
                0 1 0,
                0 1 0,
                0 1 0,
                0 1 0,
                -1 0 0,
                -1 0 0,
                -1 0 0,
                -1 0 0,
                0 -1 0,
                0 -1 0,
                0 -1 0,
                0 -1 0,
                0 0 -1,
                0 0 -1,
                0 0 -1,
                0 0 -1,
                0 0 -1,
                0 0 -1,
                0 0 -1,
                0 0 -1,
                1 0 0,
                1 0 0,
                1 0 0,
                1 0 0,
                0 1 0,
                0 1 0,
                0 1 0,
                0 1 0,
                -1 0 0,
                -1 0 0,
                -1 0 0,
                -1 0 0,
                0 -1 0,
                0 -1 0,
                0 -1 0,
                0 -1 0,
                1 0 0,
                1 0 0,
                1 0 0,
                1 0 0,
                0 1 0,
                0 1 0,
                0 1 0,
                0 1 0,
                -1 0 0,
                -1 0 0,
                -1 0 0,
                -1 0 0,
                0 -1 0,
                0 -1 0,
                0 -1 0,
                0 -1 0,
                0 0 -1,
                0 0 -1,
                0 0 -1,
                0 0 -1,
                0 0 -1,
                0 0 -1,
                0 0 -1,
                0 0 -1,
                1 0 0,
                1 0 0,
                1 0 0,
                1 0 0,
                0 1 0,
                0 1 0,
                0 1 0,
                0 1 0,
                -1 0 0,
                -1 0 0,
                -1 0 0,
                -1 0 0,
                0 -1 0,
                0 -1 0,
                0 -1 0,
                0 -1 0,
                1 0 0,
                1 0 0,
                1 0 0,
                1 0 0,
                0 1 0,
                0 1 0,
                0 1 0,
                0 1 0,
                -1 0 0,
                -1 0 0,
                -1 0 0,
                -1 0 0,
                0 -1 0,
                0 -1 0,
                0 -1 0,
                0 -1 0,
                0 0 -1,
                0 0 -1,
                0 0 -1,
                0 0 -1,
                0 0 -1,
                0 0 -1,
                0 0 -1,
                0 0 -1,
                1 0 0,
                1 0 0,
                1 0 0,
                1 0 0,
                0 1 0,
                0 1 0,
                0 1 0,
                0 1 0,
                -1 0 0,
                -1 0 0,
                -1 0 0,
                -1 0 0,
                0 -1 0,
                0 -1 0,
                0 -1 0,
                0 -1 0,
                1 0 0,
                1 0 0,
                1 0 0,
                1 0 0,
                0 1 0,
                0 1 0,
                0 1 0,
                0 1 0,
                -1 0 0,
                -1 0 0,
                -1 0 0,
                -1 0 0,
                0 -1 0,
                0 -1 0,
                0 -1 0,
                0 -1 0,
                0 0 -1,
                0 0 -1,
                0 0 -1,
                0 0 -1,
                0 0 -1,
                0 0 -1,
                0 0 -1,
                0 0 -1,
                1 0 0,
                1 0 0,
                1 0 0,
                1 0 0,
                0 1 0,
                0 1 0,
                0 1 0,
                0 1 0,
                -1 0 0,
                -1 0 0,
                -1 0 0,
                -1 0 0,
                0 -1 0,
                0 -1 0,
                0 -1 0,
                0 -1 0,
                1 0 0,
                1 0 0,
                1 0 0,
                1 0 0,
                0 1 0,
                0 1 0,
                0 1 0,
                0 1 0,
                -1 0 0,
                -1 0 0,
                -1 0 0,
                -1 0 0,
                0 -1 0,
                0 -1 0,
                0 -1 0,
                0 -1 0,
                0 0 -1,
                0 0 -1,
                0 0 -1,
                0 0 -1,
                0 0 -1,
                0 0 -1,
                0 0 -1,
                0 0 -1,
                1 0 0,
                1 0 0,
                1 0 0,
                1 0 0,
                0 1 0,
                0 1 0,
                0 1 0,
                0 1 0,
                -1 0 0,
                -1 0 0,
                -1 0 0,
                -1 0 0,
                0 -1 0,
                0 -1 0,
                0 -1 0,
                0 -1 0,
                1 0 0,
                1 0 0,
                1 0 0,
                1 0 0,
                0 1 0,
                0 1 0,
                0 1 0,
                0 1 0,
                -1 0 0,
                -1 0 0,
                -1 0 0,
                -1 0 0,
                0 -1 0,
                0 -1 0,
                0 -1 0,
                0 -1 0,
                0 0 -1,
                0 0 -1,
                0 0 -1,
                0 0 -1,
                0 0 -1,
                0 0 -1,
                0 0 -1,
                0 0 -1,
                1 0 0,
                1 0 0,
                1 0 0,
                1 0 0,
                0 1 0,
                0 1 0,
                0 1 0,
                0 1 0,
                -1 0 0,
                -1 0 0,
                -1 0 0,
                -1 0 0,
                0 -1 0,
                0 -1 0,
                0 -1 0,
                0 -1 0

              ]
            }
            coordIndex [
              81 1 0 -1 
              89 2 1 -1 
              86 85 88 -1 
              84 5 4 -1 
              41 0 42 -1 
              9 8 7 -1 
              10 9 7 -1 
              40 39 37 -1 
              13 12 11 -1 
              14 13 11 -1 
              68 11 10 -1 
              17 16 15 -1 
              18 17 15 -1 
              52 19 18 -1 
              21 20 19 -1 
              22 21 19 -1 
              47 24 23 -1 
              29 28 49 -1 
              50 27 26 -1 
              44 23 22 -1 
              33 32 57 -1 
              63 52 18 -1 
              31 30 29 -1 
              32 31 29 -1 
              60 15 14 -1 
              36 35 33 -1 
              78 77 80 -1 
              35 34 33 -1 
              71 60 14 -1 
              37 36 65 -1 
              39 38 37 -1 
              79 68 10 -1 
              41 40 73 -1 
              43 42 0 -1 
              47 23 44 -1 
              51 46 48 -1 
              55 44 22 -1 
              46 26 25 -1 
              54 45 44 -1 
              47 25 24 -1 
              47 46 25 -1 
              49 28 50 -1 
              48 46 45 -1 
              50 28 27 -1 
              49 48 58 -1 
              51 26 46 -1 
              51 50 26 -1 
              52 22 19 -1 
              54 48 45 -1 
              59 58 48 -1 
              54 53 56 -1 
              55 22 52 -1 
              55 54 44 -1 
              57 29 58 -1 
              62 53 52 -1 
              57 32 29 -1 
              57 56 66 -1 
              58 29 49 -1 
              59 54 56 -1 
              59 48 54 -1 
              60 18 15 -1 
              62 56 53 -1 
              67 66 56 -1 
              62 61 64 -1 
              63 18 60 -1 
              63 62 52 -1 
              65 33 66 -1 
              70 61 60 -1 
              65 36 33 -1 
              65 64 74 -1 
              66 33 57 -1 
              67 62 64 -1 
              67 56 62 -1 
              68 14 11 -1 
              70 64 61 -1 
              75 74 64 -1 
              70 69 72 -1 
              71 14 68 -1 
              71 70 60 -1 
              73 37 74 -1 
              73 40 37 -1 
              73 72 82 -1 
              74 37 65 -1 
              75 70 72 -1 
              75 64 70 -1 
              76 7 6 -1 
              76 10 7 -1 
              83 82 72 -1 
              87 76 6 -1 
              78 69 68 -1 
              78 72 69 -1 
              79 10 76 -1 
              79 78 68 -1 
              81 41 82 -1 
              81 0 41 -1 
              81 80 90 -1 
              82 41 73 -1 
              83 78 80 -1 
              83 72 78 -1 
              85 4 3 -1 
              84 6 5 -1 
              91 90 80 -1 
              85 84 4 -1 
              86 77 76 -1 
              86 80 77 -1 
              87 6 84 -1 
              87 86 76 -1 
              89 1 90 -1 
              88 85 3 -1 
              89 3 2 -1 
              89 88 3 -1 
              90 1 81 -1 
              91 86 88 -1 
              91 80 86 -1 
              0 1 92 -1 
              0 92 93 -1 
              1 94 92 -1 
              1 2 94 -1 
              31 104 30 -1 
              27 104 26 -1 
              30 104 27 -1 
              102 27 103 -1 
              35 105 104 -1 
              30 27 102 -1 
              35 104 34 -1 
              100 31 101 -1 
              34 104 31 -1 
              34 31 100 -1 
              38 35 98 -1 
              42 39 96 -1 
              98 35 99 -1 
              38 105 35 -1 
              39 105 38 -1 
              96 39 97 -1 
              2 3 105 -1 
              42 105 39 -1 
              43 105 42 -1 
              94 43 95 -1 
              2 105 43 -1 
              2 43 94 -1 
              92 94 95 -1 
              93 92 95 -1 
              93 43 0 -1 
              93 95 43 -1 
              41 96 106 -1 
              41 42 96 -1 
              40 41 106 -1 
              40 106 107 -1 
              107 39 40 -1 
              107 97 39 -1 
              106 96 97 -1 
              107 106 97 -1 
              37 98 108 -1 
              37 38 98 -1 
              36 37 108 -1 
              36 108 109 -1 
              109 35 36 -1 
              109 99 35 -1 
              108 98 99 -1 
              109 108 99 -1 
              33 100 110 -1 
              33 34 100 -1 
              32 33 110 -1 
              32 110 111 -1 
              111 31 32 -1 
              111 101 31 -1 
              110 100 101 -1 
              111 110 101 -1 
              29 102 112 -1 
              29 30 102 -1 
              28 29 112 -1 
              28 112 113 -1 
              113 27 28 -1 
              113 103 27 -1 
              112 102 103 -1 
              113 112 103 -1 
              114 26 104 -1 
              25 26 114 -1 
              114 117 13 -1 
              124 9 125 -1 
              12 9 124 -1 
              117 9 12 -1 
              117 12 13 -1 
              122 13 123 -1 
              16 13 122 -1 
              114 13 16 -1 
              114 16 17 -1 
              120 17 121 -1 
              20 17 120 -1 
              114 17 20 -1 
              114 20 21 -1 
              118 21 119 -1 
              24 21 118 -1 
              114 21 24 -1 
              114 24 25 -1 
              8 9 117 -1 
              5 117 4 -1 
              115 5 116 -1 
              8 117 5 -1 
              8 5 115 -1 
              7 115 126 -1 
              8 115 7 -1 
              126 127 6 -1 
              7 126 6 -1 
              127 5 6 -1 
              116 5 127 -1 
              126 116 127 -1 
              115 116 126 -1 
              105 4 117 -1 
              3 4 105 -1 
              134 129 131 -1 
              131 130 114 -1 
              143 132 133 -1 
              131 114 104 -1 
              144 117 114 -1 
              128 114 130 -1 
              143 133 104 -1 
              134 131 104 -1 
              135 104 133 -1 
              134 104 135 -1 
              132 129 134 -1 
              151 140 141 -1 
              139 138 128 -1 
              139 128 129 -1 
              139 129 132 -1 
              138 114 128 -1 
              136 114 138 -1 
              151 141 104 -1 
              143 104 141 -1 
              142 132 143 -1 
              142 137 139 -1 
              142 139 132 -1 
              148 145 150 -1 
              140 137 142 -1 
              159 148 149 -1 
              147 146 136 -1 
              147 136 137 -1 
              147 137 140 -1 
              146 114 136 -1 
              144 114 146 -1 
              149 104 105 -1 
              151 104 149 -1 
              150 140 151 -1 
              150 145 147 -1 
              150 147 140 -1 
              158 153 155 -1 
              167 156 157 -1 
              155 154 144 -1 
              155 144 145 -1 
              155 145 148 -1 
              154 117 144 -1 
              152 117 154 -1 
              159 149 105 -1 
              159 105 157 -1 
              158 155 148 -1 
              158 148 159 -1 
              156 153 158 -1 
              163 162 152 -1 
              163 152 153 -1 
              163 153 156 -1 
              162 117 152 -1 
              160 117 162 -1 
              167 157 105 -1 
              175 164 165 -1 
              167 105 165 -1 
              166 156 167 -1 
              166 161 163 -1 
              166 163 156 -1 
              172 173 105 -1 
              164 161 166 -1 
              169 105 117 -1 
              171 160 161 -1 
              171 161 164 -1 
              170 117 160 -1 
              170 160 171 -1 
              168 169 117 -1 
              168 117 170 -1 
              175 165 105 -1 
              175 105 173 -1 
              174 164 175 -1 
              174 169 171 -1 
              174 171 164 -1 
              172 105 169 -1 
              172 169 174 -1 
              176 128 177 -1 
              129 128 176 -1 
              178 129 176 -1 
              131 129 178 -1 
              130 131 179 -1 
              178 179 131 -1 
              180 178 181 -1 
              180 179 178 -1 
              182 179 180 -1 
              182 177 179 -1 
              128 130 177 -1 
              179 177 130 -1 
              183 177 182 -1 
              183 176 177 -1 
              181 176 183 -1 
              181 178 176 -1 
              182 181 183 -1 
              180 181 182 -1 
              186 185 187 -1 
              184 185 186 -1 
              184 188 185 -1 
              184 189 188 -1 
              134 135 189 -1 
              188 189 135 -1 
              188 133 190 -1 
              135 133 188 -1 
              185 190 187 -1 
              185 188 190 -1 
              187 191 186 -1 
              187 190 191 -1 
              190 132 191 -1 
              133 132 190 -1 
              132 134 191 -1 
              189 191 134 -1 
              186 189 184 -1 
              186 191 189 -1 
              193 137 136 -1 
              192 137 193 -1 
              192 139 137 -1 
              194 139 192 -1 
              194 138 139 -1 
              195 138 194 -1 
              136 195 193 -1 
              138 195 136 -1 
              196 195 197 -1 
              196 193 195 -1 
              198 193 196 -1 
              198 192 193 -1 
              199 192 198 -1 
              199 194 192 -1 
              197 194 199 -1 
              197 195 194 -1 
              196 199 198 -1 
              197 199 196 -1 
              202 201 203 -1 
              200 201 202 -1 
              200 204 201 -1 
              200 205 204 -1 
              204 142 143 -1 
              205 142 204 -1 
              140 205 206 -1 
              142 205 140 -1 
              206 141 140 -1 
              207 141 206 -1 
              207 143 141 -1 
              204 143 207 -1 
              201 207 203 -1 
              201 204 207 -1 
              203 206 202 -1 
              203 207 206 -1 
              202 205 200 -1 
              202 206 205 -1 
              209 145 144 -1 
              208 145 209 -1 
              208 147 145 -1 
              210 147 208 -1 
              210 146 147 -1 
              211 146 210 -1 
              144 211 209 -1 
              146 211 144 -1 
              212 211 213 -1 
              212 209 211 -1 
              214 209 212 -1 
              214 208 209 -1 
              215 208 214 -1 
              215 210 208 -1 
              213 210 215 -1 
              213 211 210 -1 
              212 215 214 -1 
              213 215 212 -1 
              218 217 219 -1 
              216 217 218 -1 
              216 220 217 -1 
              216 221 220 -1 
              220 150 151 -1 
              221 150 220 -1 
              148 221 222 -1 
              150 221 148 -1 
              222 149 148 -1 
              223 149 222 -1 
              223 151 149 -1 
              220 151 223 -1 
              217 223 219 -1 
              217 220 223 -1 
              219 222 218 -1 
              219 223 222 -1 
              218 221 216 -1 
              218 222 221 -1 
              225 153 152 -1 
              224 153 225 -1 
              224 155 153 -1 
              226 155 224 -1 
              226 154 155 -1 
              227 154 226 -1 
              152 227 225 -1 
              154 227 152 -1 
              228 227 229 -1 
              228 225 227 -1 
              230 225 228 -1 
              230 224 225 -1 
              231 224 230 -1 
              231 226 224 -1 
              229 226 231 -1 
              229 227 226 -1 
              228 231 230 -1 
              229 231 228 -1 
              234 233 235 -1 
              232 233 234 -1 
              232 236 233 -1 
              232 237 236 -1 
              236 158 159 -1 
              237 158 236 -1 
              156 237 238 -1 
              158 237 156 -1 
              238 157 156 -1 
              239 157 238 -1 
              239 159 157 -1 
              236 159 239 -1 
              233 239 235 -1 
              233 236 239 -1 
              235 238 234 -1 
              235 239 238 -1 
              234 237 232 -1 
              234 238 237 -1 
              241 161 160 -1 
              240 161 241 -1 
              240 163 161 -1 
              242 163 240 -1 
              242 162 163 -1 
              243 162 242 -1 
              160 243 241 -1 
              162 243 160 -1 
              244 243 245 -1 
              244 241 243 -1 
              246 241 244 -1 
              246 240 241 -1 
              247 240 246 -1 
              247 242 240 -1 
              245 242 247 -1 
              245 243 242 -1 
              244 247 246 -1 
              245 247 244 -1 
              250 249 251 -1 
              248 249 250 -1 
              248 252 249 -1 
              248 253 252 -1 
              252 166 167 -1 
              253 166 252 -1 
              164 253 254 -1 
              166 253 164 -1 
              254 165 164 -1 
              255 165 254 -1 
              255 167 165 -1 
              252 167 255 -1 
              249 255 251 -1 
              249 252 255 -1 
              251 254 250 -1 
              251 255 254 -1 
              250 253 248 -1 
              250 254 253 -1 
              257 169 168 -1 
              256 169 257 -1 
              256 171 169 -1 
              258 171 256 -1 
              258 170 171 -1 
              259 170 258 -1 
              168 259 257 -1 
              170 259 168 -1 
              260 259 261 -1 
              260 257 259 -1 
              262 257 260 -1 
              262 256 257 -1 
              263 256 262 -1 
              263 258 256 -1 
              261 258 263 -1 
              261 259 258 -1 
              260 263 262 -1 
              261 263 260 -1 
              266 265 267 -1 
              264 265 266 -1 
              264 268 265 -1 
              264 269 268 -1 
              268 174 175 -1 
              269 174 268 -1 
              172 269 270 -1 
              174 269 172 -1 
              270 173 172 -1 
              271 173 270 -1 
              271 175 173 -1 
              268 175 271 -1 
              265 271 267 -1 
              265 268 271 -1 
              267 270 266 -1 
              267 271 270 -1 
              266 269 264 -1 
              266 270 269 -1 
              272 23 24 -1 
              272 24 118 -1 
              273 22 23 -1 
              272 273 23 -1 
              119 22 273 -1 
              21 22 119 -1 
              272 119 273 -1 
              118 119 272 -1 
              19 120 274 -1 
              20 120 19 -1 
              274 275 18 -1 
              19 274 18 -1 
              275 17 18 -1 
              121 17 275 -1 
              274 121 275 -1 
              120 121 274 -1 
              15 122 276 -1 
              16 122 15 -1 
              276 277 14 -1 
              15 276 14 -1 
              277 13 14 -1 
              123 13 277 -1 
              276 123 277 -1 
              122 123 276 -1 
              11 124 278 -1 
              12 124 11 -1 
              278 279 10 -1 
              11 278 10 -1 
              279 9 10 -1 
              125 9 279 -1 
              278 125 279 -1 
              124 125 278 -1 
              280 45 281 -1 
              44 45 280 -1 
              282 44 280 -1 
              47 44 282 -1 
              283 47 282 -1 
              46 47 283 -1 
              281 46 283 -1 
              45 46 281 -1 
              282 281 283 -1 
              280 281 282 -1 
              286 285 287 -1 
              284 285 286 -1 
              284 49 285 -1 
              48 49 284 -1 
              286 48 284 -1 
              51 48 286 -1 
              287 51 286 -1 
              50 51 287 -1 
              285 50 287 -1 
              49 50 285 -1 
              288 53 289 -1 
              52 53 288 -1 
              290 52 288 -1 
              55 52 290 -1 
              291 55 290 -1 
              54 55 291 -1 
              289 54 291 -1 
              53 54 289 -1 
              290 289 291 -1 
              288 289 290 -1 
              294 293 295 -1 
              292 293 294 -1 
              292 57 293 -1 
              56 57 292 -1 
              294 56 292 -1 
              59 56 294 -1 
              295 59 294 -1 
              58 59 295 -1 
              293 58 295 -1 
              57 58 293 -1 
              296 61 297 -1 
              60 61 296 -1 
              298 60 296 -1 
              63 60 298 -1 
              299 63 298 -1 
              62 63 299 -1 
              297 62 299 -1 
              61 62 297 -1 
              298 297 299 -1 
              296 297 298 -1 
              302 301 303 -1 
              300 301 302 -1 
              300 65 301 -1 
              64 65 300 -1 
              302 64 300 -1 
              67 64 302 -1 
              303 67 302 -1 
              66 67 303 -1 
              301 66 303 -1 
              65 66 301 -1 
              304 69 305 -1 
              68 69 304 -1 
              306 68 304 -1 
              71 68 306 -1 
              307 71 306 -1 
              70 71 307 -1 
              305 70 307 -1 
              69 70 305 -1 
              306 305 307 -1 
              304 305 306 -1 
              310 309 311 -1 
              308 309 310 -1 
              308 73 309 -1 
              72 73 308 -1 
              310 72 308 -1 
              75 72 310 -1 
              311 75 310 -1 
              74 75 311 -1 
              309 74 311 -1 
              73 74 309 -1 
              312 77 313 -1 
              76 77 312 -1 
              314 76 312 -1 
              79 76 314 -1 
              315 79 314 -1 
              78 79 315 -1 
              313 78 315 -1 
              77 78 313 -1 
              314 313 315 -1 
              312 313 314 -1 
              318 317 319 -1 
              316 317 318 -1 
              316 81 317 -1 
              80 81 316 -1 
              318 80 316 -1 
              83 80 318 -1 
              319 83 318 -1 
              82 83 319 -1 
              317 82 319 -1 
              81 82 317 -1 
              320 85 321 -1 
              84 85 320 -1 
              322 84 320 -1 
              87 84 322 -1 
              323 87 322 -1 
              86 87 323 -1 
              321 86 323 -1 
              85 86 321 -1 
              322 321 323 -1 
              320 321 322 -1 
              326 325 327 -1 
              324 325 326 -1 
              324 89 325 -1 
              88 89 324 -1 
              326 88 324 -1 
              91 88 326 -1 
              327 91 326 -1 
              90 91 327 -1 
              325 90 327 -1 
              89 90 325 -1 
            ]
            normalIndex [
              81 1 0 -1 
              89 2 1 -1 
              86 85 88 -1 
              84 5 4 -1 
              41 0 42 -1 
              9 8 7 -1 
              10 9 7 -1 
              40 39 37 -1 
              13 12 11 -1 
              14 13 11 -1 
              68 11 10 -1 
              17 16 15 -1 
              18 17 15 -1 
              52 19 18 -1 
              21 20 19 -1 
              22 21 19 -1 
              47 24 23 -1 
              29 28 49 -1 
              50 27 26 -1 
              44 23 22 -1 
              33 32 57 -1 
              63 52 18 -1 
              31 30 29 -1 
              32 31 29 -1 
              60 15 14 -1 
              36 35 33 -1 
              78 77 80 -1 
              35 34 33 -1 
              71 60 14 -1 
              37 36 65 -1 
              39 38 37 -1 
              79 68 10 -1 
              41 40 73 -1 
              43 42 0 -1 
              47 23 44 -1 
              51 46 48 -1 
              55 44 22 -1 
              46 26 25 -1 
              54 45 44 -1 
              47 25 24 -1 
              47 46 25 -1 
              49 28 50 -1 
              48 46 45 -1 
              50 28 27 -1 
              49 48 58 -1 
              51 26 46 -1 
              51 50 26 -1 
              52 22 19 -1 
              54 48 45 -1 
              59 58 48 -1 
              54 53 56 -1 
              55 22 52 -1 
              55 54 44 -1 
              57 29 58 -1 
              62 53 52 -1 
              57 32 29 -1 
              57 56 66 -1 
              58 29 49 -1 
              59 54 56 -1 
              59 48 54 -1 
              60 18 15 -1 
              62 56 53 -1 
              67 66 56 -1 
              62 61 64 -1 
              63 18 60 -1 
              63 62 52 -1 
              65 33 66 -1 
              70 61 60 -1 
              65 36 33 -1 
              65 64 74 -1 
              66 33 57 -1 
              67 62 64 -1 
              67 56 62 -1 
              68 14 11 -1 
              70 64 61 -1 
              75 74 64 -1 
              70 69 72 -1 
              71 14 68 -1 
              71 70 60 -1 
              73 37 74 -1 
              73 40 37 -1 
              73 72 82 -1 
              74 37 65 -1 
              75 70 72 -1 
              75 64 70 -1 
              76 7 6 -1 
              76 10 7 -1 
              83 82 72 -1 
              87 76 6 -1 
              78 69 68 -1 
              78 72 69 -1 
              79 10 76 -1 
              79 78 68 -1 
              81 41 82 -1 
              81 0 41 -1 
              81 80 90 -1 
              82 41 73 -1 
              83 78 80 -1 
              83 72 78 -1 
              85 4 3 -1 
              84 6 5 -1 
              91 90 80 -1 
              85 84 4 -1 
              86 77 76 -1 
              86 80 77 -1 
              87 6 84 -1 
              87 86 76 -1 
              89 1 90 -1 
              88 85 3 -1 
              89 3 2 -1 
              89 88 3 -1 
              90 1 81 -1 
              91 86 88 -1 
              91 80 86 -1 
              94 95 92 -1 
              94 92 93 -1 
              98 96 99 -1 
              98 97 96 -1 
              108 102 107 -1 
              104 102 103 -1 
              107 102 104 -1 
              106 104 105 -1 
              112 101 102 -1 
              107 104 106 -1 
              112 102 111 -1 
              110 108 109 -1 
              111 102 108 -1 
              111 108 110 -1 
              115 112 114 -1 
              119 116 118 -1 
              114 112 113 -1 
              115 101 112 -1 
              116 101 115 -1 
              118 116 117 -1 
              123 100 101 -1 
              119 101 116 -1 
              120 101 119 -1 
              122 120 121 -1 
              123 101 120 -1 
              123 120 122 -1 
              126 125 124 -1 
              127 126 124 -1 
              130 128 131 -1 
              130 129 128 -1 
              134 132 135 -1 
              134 133 132 -1 
              138 139 136 -1 
              138 136 137 -1 
              142 140 143 -1 
              142 141 140 -1 
              146 145 144 -1 
              147 146 144 -1 
              150 148 151 -1 
              150 149 148 -1 
              154 155 152 -1 
              154 152 153 -1 
              158 156 159 -1 
              158 157 156 -1 
              162 161 160 -1 
              163 162 160 -1 
              166 164 167 -1 
              166 165 164 -1 
              170 171 168 -1 
              170 168 169 -1 
              174 172 175 -1 
              174 173 172 -1 
              178 177 176 -1 
              179 178 176 -1 
              182 180 183 -1 
              182 181 180 -1 
              186 187 184 -1 
              186 184 185 -1 
              190 188 191 -1 
              190 189 188 -1 
              194 193 192 -1 
              195 194 192 -1 
              198 196 197 -1 
              199 196 198 -1 
              217 218 204 -1 
              202 200 201 -1 
              203 200 202 -1 
              218 200 203 -1 
              218 203 204 -1 
              206 204 205 -1 
              207 204 206 -1 
              217 204 207 -1 
              217 207 208 -1 
              210 208 209 -1 
              211 208 210 -1 
              217 208 211 -1 
              217 211 212 -1 
              214 212 213 -1 
              215 212 214 -1 
              217 212 215 -1 
              217 215 216 -1 
              223 200 218 -1 
              220 218 219 -1 
              222 220 221 -1 
              223 218 220 -1 
              223 220 222 -1 
              226 224 225 -1 
              227 224 226 -1 
              230 229 228 -1 
              231 230 228 -1 
              234 232 233 -1 
              235 232 234 -1 
              238 236 237 -1 
              239 236 238 -1 
              242 240 241 -1 
              243 240 242 -1 
              254 248 249 -1 
              249 250 247 -1 
              261 255 252 -1 
              249 247 244 -1 
              267 246 247 -1 
              251 247 250 -1 
              261 252 244 -1 
              254 249 244 -1 
              253 244 252 -1 
              254 244 253 -1 
              255 248 254 -1 
              269 263 260 -1 
              257 258 251 -1 
              257 251 248 -1 
              257 248 255 -1 
              258 247 251 -1 
              259 247 258 -1 
              269 260 244 -1 
              261 244 260 -1 
              262 255 261 -1 
              262 256 257 -1 
              262 257 255 -1 
              271 264 270 -1 
              263 256 262 -1 
              277 271 268 -1 
              265 266 259 -1 
              265 259 256 -1 
              265 256 263 -1 
              266 247 259 -1 
              267 247 266 -1 
              268 244 245 -1 
              269 244 268 -1 
              270 263 269 -1 
              270 264 265 -1 
              270 265 263 -1 
              278 272 273 -1 
              285 279 276 -1 
              273 274 267 -1 
              273 267 264 -1 
              273 264 271 -1 
              274 246 267 -1 
              275 246 274 -1 
              277 268 245 -1 
              277 245 276 -1 
              278 273 271 -1 
              278 271 277 -1 
              279 272 278 -1 
              281 282 275 -1 
              281 275 272 -1 
              281 272 279 -1 
              282 246 275 -1 
              283 246 282 -1 
              285 276 245 -1 
              293 287 284 -1 
              285 245 284 -1 
              286 279 285 -1 
              286 280 281 -1 
              286 281 279 -1 
              295 292 245 -1 
              287 280 286 -1 
              288 245 246 -1 
              289 283 280 -1 
              289 280 287 -1 
              290 246 283 -1 
              290 283 289 -1 
              291 288 246 -1 
              291 246 290 -1 
              293 284 245 -1 
              293 245 292 -1 
              294 287 293 -1 
              294 288 289 -1 
              294 289 287 -1 
              295 245 288 -1 
              295 288 294 -1 
              298 296 297 -1 
              299 296 298 -1 
              302 300 301 -1 
              303 300 302 -1 
              305 306 304 -1 
              307 304 306 -1 
              310 308 311 -1 
              310 309 308 -1 
              314 312 315 -1 
              314 313 312 -1 
              317 318 316 -1 
              319 316 318 -1 
              322 320 323 -1 
              322 321 320 -1 
              326 324 327 -1 
              326 325 324 -1 
              330 328 329 -1 
              331 328 330 -1 
              334 332 333 -1 
              335 332 334 -1 
              338 336 339 -1 
              338 337 336 -1 
              341 342 340 -1 
              343 340 342 -1 
              346 344 345 -1 
              347 344 346 -1 
              350 348 351 -1 
              350 349 348 -1 
              354 352 355 -1 
              354 353 352 -1 
              358 356 357 -1 
              359 356 358 -1 
              361 362 360 -1 
              363 360 362 -1 
              366 364 367 -1 
              366 365 364 -1 
              370 368 369 -1 
              371 368 370 -1 
              374 372 373 -1 
              375 372 374 -1 
              378 376 377 -1 
              379 376 378 -1 
              382 380 381 -1 
              383 380 382 -1 
              386 384 387 -1 
              386 385 384 -1 
              390 388 391 -1 
              390 389 388 -1 
              394 392 395 -1 
              394 393 392 -1 
              398 396 399 -1 
              398 397 396 -1 
              402 400 401 -1 
              403 400 402 -1 
              406 404 405 -1 
              407 404 406 -1 
              410 408 411 -1 
              410 409 408 -1 
              414 412 413 -1 
              415 412 414 -1 
              418 416 417 -1 
              419 416 418 -1 
              422 420 421 -1 
              423 420 422 -1 
              426 424 425 -1 
              427 424 426 -1 
              430 428 431 -1 
              430 429 428 -1 
              434 432 435 -1 
              434 433 432 -1 
              438 436 439 -1 
              438 437 436 -1 
              442 440 441 -1 
              443 440 442 -1 
              446 444 445 -1 
              447 444 446 -1 
              450 448 449 -1 
              451 448 450 -1 
              454 452 453 -1 
              455 452 454 -1 
              458 456 459 -1 
              458 457 456 -1 
              462 460 463 -1 
              462 461 460 -1 
              466 464 467 -1 
              466 465 464 -1 
              470 468 471 -1 
              470 469 468 -1 
              474 472 473 -1 
              475 472 474 -1 
              478 476 477 -1 
              479 476 478 -1 
              482 480 483 -1 
              482 481 480 -1 
              486 484 485 -1 
              487 484 486 -1 
              490 488 489 -1 
              491 488 490 -1 
              494 492 493 -1 
              495 492 494 -1 
              498 496 497 -1 
              499 496 498 -1 
              502 500 503 -1 
              502 501 500 -1 
              506 504 507 -1 
              506 505 504 -1 
              510 508 511 -1 
              510 509 508 -1 
              514 512 513 -1 
              515 512 514 -1 
              518 516 517 -1 
              519 516 518 -1 
              522 520 521 -1 
              523 520 522 -1 
              526 524 525 -1 
              527 524 526 -1 
              530 528 531 -1 
              530 529 528 -1 
              534 532 535 -1 
              534 533 532 -1 
              538 536 539 -1 
              538 537 536 -1 
              542 540 543 -1 
              542 541 540 -1 
              546 544 545 -1 
              547 544 546 -1 
              550 548 549 -1 
              551 548 550 -1 
              554 552 555 -1 
              554 553 552 -1 
              558 556 557 -1 
              559 556 558 -1 
              562 560 561 -1 
              563 560 562 -1 
              566 564 565 -1 
              567 564 566 -1 
              570 568 569 -1 
              571 568 570 -1 
              574 572 575 -1 
              574 573 572 -1 
              578 576 579 -1 
              578 577 576 -1 
              582 580 583 -1 
              582 581 580 -1 
              586 584 585 -1 
              587 584 586 -1 
              590 588 589 -1 
              591 588 590 -1 
              594 592 593 -1 
              595 592 594 -1 
              598 596 597 -1 
              599 596 598 -1 
              602 600 603 -1 
              602 601 600 -1 
              606 604 607 -1 
              606 605 604 -1 
              610 608 611 -1 
              610 609 608 -1 
              614 612 615 -1 
              614 613 612 -1 
              618 616 617 -1 
              619 616 618 -1 
              622 620 621 -1 
              623 620 622 -1 
              626 624 627 -1 
              626 625 624 -1 
              630 628 629 -1 
              631 628 630 -1 
              634 632 633 -1 
              635 632 634 -1 
              638 636 637 -1 
              639 636 638 -1 
              642 640 641 -1 
              643 640 642 -1 
              646 644 647 -1 
              646 645 644 -1 
              650 648 651 -1 
              650 649 648 -1 
              654 652 655 -1 
              654 653 652 -1 
              658 656 657 -1 
              659 656 658 -1 
              662 660 661 -1 
              663 660 662 -1 
              666 664 665 -1 
              667 664 666 -1 
              670 668 669 -1 
              671 668 670 -1 
              674 672 675 -1 
              674 673 672 -1 
              678 676 679 -1 
              678 677 676 -1 
              682 680 683 -1 
              682 681 680 -1 
              686 684 687 -1 
              686 685 684 -1 
              690 688 689 -1 
              691 688 690 -1 
              694 692 693 -1 
              695 692 694 -1 
              698 696 699 -1 
              698 697 696 -1 
              702 700 701 -1 
              703 700 702 -1 
              706 704 705 -1 
              707 704 706 -1 
              710 708 709 -1 
              711 708 710 -1 
              714 712 713 -1 
              715 712 714 -1 
              718 716 719 -1 
              718 717 716 -1 
              722 720 723 -1 
              722 721 720 -1 
              726 724 727 -1 
              726 725 724 -1 
              730 731 728 -1 
              730 728 729 -1 
              734 733 732 -1 
              735 734 732 -1 
              738 736 737 -1 
              739 736 738 -1 
              742 740 741 -1 
              743 740 742 -1 
              746 744 745 -1 
              747 744 746 -1 
              750 749 748 -1 
              751 750 748 -1 
              754 752 753 -1 
              755 752 754 -1 
              758 756 757 -1 
              759 756 758 -1 
              762 760 761 -1 
              763 760 762 -1 
              766 765 764 -1 
              767 766 764 -1 
              770 768 769 -1 
              771 768 770 -1 
              774 772 773 -1 
              775 772 774 -1 
              778 776 777 -1 
              779 776 778 -1 
              782 781 780 -1 
              783 782 780 -1 
              786 784 785 -1 
              787 784 786 -1 
              790 788 789 -1 
              791 788 790 -1 
              794 792 793 -1 
              795 792 794 -1 
              798 796 797 -1 
              799 796 798 -1 
              802 800 801 -1 
              803 800 802 -1 
              806 804 805 -1 
              807 804 806 -1 
              810 808 809 -1 
              811 808 810 -1 
              814 812 813 -1 
              815 812 814 -1 
              818 816 817 -1 
              819 816 818 -1 
              822 820 821 -1 
              823 820 822 -1 
              826 824 825 -1 
              827 824 826 -1 
              830 828 829 -1 
              831 828 830 -1 
              834 832 833 -1 
              835 832 834 -1 
              838 836 837 -1 
              839 836 838 -1 
              842 840 841 -1 
              843 840 842 -1 
              846 844 845 -1 
              847 844 846 -1 
              850 848 849 -1 
              851 848 850 -1 
              854 852 853 -1 
              855 852 854 -1 
              858 856 857 -1 
              859 856 858 -1 
              862 860 861 -1 
              863 860 862 -1 
              866 864 865 -1 
              867 864 866 -1 
              870 868 869 -1 
              871 868 870 -1 
              874 872 873 -1 
              875 872 874 -1 
              878 876 877 -1 
              879 876 878 -1 
              882 880 881 -1 
              883 880 882 -1 
              886 884 885 -1 
              887 884 886 -1 
              890 888 889 -1 
              891 888 890 -1 
              894 892 893 -1 
              895 892 894 -1 
              898 896 897 -1 
              899 896 898 -1 
              902 900 901 -1 
              903 900 902 -1 
              906 904 905 -1 
              907 904 906 -1 
              910 908 909 -1 
              911 908 910 -1 
              914 912 913 -1 
              915 912 914 -1 
              918 916 917 -1 
              919 916 918 -1 
              922 920 921 -1 
              923 920 922 -1 
              926 924 925 -1 
              927 924 926 -1 
              930 928 929 -1 
              931 928 930 -1 
              934 932 933 -1 
              935 932 934 -1 
              938 936 937 -1 
              939 936 938 -1 
              942 940 941 -1 
              943 940 942 -1 
              946 944 945 -1 
              947 944 946 -1 
              950 948 949 -1 
              951 948 950 -1 
              954 952 953 -1 
              955 952 954 -1 
              958 956 957 -1 
              959 956 958 -1 
              962 960 961 -1 
              963 960 962 -1 
              966 964 965 -1 
              967 964 966 -1 
              970 968 969 -1 
              971 968 970 -1 
              974 972 973 -1 
              975 972 974 -1 
              978 976 977 -1 
              979 976 978 -1 
              982 980 981 -1 
              983 980 982 -1 
              986 984 985 -1 
              987 984 986 -1 
              990 988 989 -1 
              991 988 990 -1 
              994 992 993 -1 
              995 992 994 -1 
              998 996 997 -1 
              999 996 998 -1 
              1002 1000 1001 -1 
              1003 1000 1002 -1 
              1006 1004 1005 -1 
              1007 1004 1006 -1 
              1010 1008 1009 -1 
              1011 1008 1010 -1 
              1014 1012 1013 -1 
              1015 1012 1014 -1 
              1018 1016 1017 -1 
              1019 1016 1018 -1 
              1022 1020 1021 -1 
              1023 1020 1022 -1 
              1026 1024 1025 -1 
              1027 1024 1026 -1 
              1030 1028 1029 -1 
              1031 1028 1030 -1 
            ]
          }
        }
      ]
    }
  ]
}
