%TF.GenerationSoftware,KiCad,Pcbnew,9.0.7*%
%TF.CreationDate,2026-02-11T16:46:02-06:00*%
%TF.ProjectId,TOM_MCU_144Pin,544f4d5f-4d43-4555-9f31-343450696e2e,rev?*%
%TF.SameCoordinates,Original*%
%TF.FileFunction,Soldermask,Top*%
%TF.FilePolarity,Negative*%
%FSLAX46Y46*%
G04 Gerber Fmt 4.6, Leading zero omitted, Abs format (unit mm)*
G04 Created by KiCad (PCBNEW 9.0.7) date 2026-02-11 16:46:02*
%MOMM*%
%LPD*%
G01*
G04 APERTURE LIST*
G04 Aperture macros list*
%AMRoundRect*
0 Rectangle with rounded corners*
0 $1 Rounding radius*
0 $2 $3 $4 $5 $6 $7 $8 $9 X,Y pos of 4 corners*
0 Add a 4 corners polygon primitive as box body*
4,1,4,$2,$3,$4,$5,$6,$7,$8,$9,$2,$3,0*
0 Add four circle primitives for the rounded corners*
1,1,$1+$1,$2,$3*
1,1,$1+$1,$4,$5*
1,1,$1+$1,$6,$7*
1,1,$1+$1,$8,$9*
0 Add four rect primitives between the rounded corners*
20,1,$1+$1,$2,$3,$4,$5,0*
20,1,$1+$1,$4,$5,$6,$7,0*
20,1,$1+$1,$6,$7,$8,$9,0*
20,1,$1+$1,$8,$9,$2,$3,0*%
G04 Aperture macros list end*
%ADD10C,0.010000*%
%ADD11RoundRect,0.262900X0.262900X-0.275400X0.262900X0.275400X-0.262900X0.275400X-0.262900X-0.275400X0*%
%ADD12RoundRect,0.262900X0.325400X0.262900X-0.325400X0.262900X-0.325400X-0.262900X0.325400X-0.262900X0*%
%ADD13RoundRect,0.262900X0.275400X0.262900X-0.275400X0.262900X-0.275400X-0.262900X0.275400X-0.262900X0*%
%ADD14RoundRect,0.262900X-0.262900X0.275400X-0.262900X-0.275400X0.262900X-0.275400X0.262900X0.275400X0*%
%ADD15RoundRect,0.271617X0.366683X0.504183X-0.366683X0.504183X-0.366683X-0.504183X0.366683X-0.504183X0*%
%ADD16RoundRect,0.262900X-0.275400X-0.262900X0.275400X-0.262900X0.275400X0.262900X-0.275400X0.262900X0*%
%ADD17C,1.631600*%
%ADD18RoundRect,0.050800X-0.850000X-0.850000X0.850000X-0.850000X0.850000X0.850000X-0.850000X0.850000X0*%
%ADD19C,1.801600*%
%ADD20RoundRect,0.050800X-0.675000X-0.700000X0.675000X-0.700000X0.675000X0.700000X-0.675000X0.700000X0*%
%ADD21RoundRect,0.050800X0.650000X0.650000X-0.650000X0.650000X-0.650000X-0.650000X0.650000X-0.650000X0*%
%ADD22C,1.401600*%
%ADD23RoundRect,0.262900X-0.325400X-0.262900X0.325400X-0.262900X0.325400X0.262900X-0.325400X0.262900X0*%
%ADD24RoundRect,0.050800X0.675000X0.700000X-0.675000X0.700000X-0.675000X-0.700000X0.675000X-0.700000X0*%
%ADD25RoundRect,0.271617X0.504183X-0.366683X0.504183X0.366683X-0.504183X0.366683X-0.504183X-0.366683X0*%
%ADD26C,0.751600*%
%ADD27RoundRect,0.050800X-0.300000X-0.575000X0.300000X-0.575000X0.300000X0.575000X-0.300000X0.575000X0*%
%ADD28RoundRect,0.050800X-0.150000X-0.575000X0.150000X-0.575000X0.150000X0.575000X-0.150000X0.575000X0*%
%ADD29RoundRect,0.050800X0.775000X-0.625000X0.775000X0.625000X-0.775000X0.625000X-0.775000X-0.625000X0*%
%ADD30RoundRect,0.050800X0.775000X-0.750000X0.775000X0.750000X-0.775000X0.750000X-0.775000X-0.750000X0*%
%ADD31RoundRect,0.050800X0.175000X0.300000X-0.175000X0.300000X-0.175000X-0.300000X0.175000X-0.300000X0*%
%ADD32RoundRect,0.050800X0.850000X-0.550000X0.850000X0.550000X-0.850000X0.550000X-0.850000X-0.550000X0*%
%ADD33RoundRect,0.262900X0.262900X-0.325400X0.262900X0.325400X-0.262900X0.325400X-0.262900X-0.325400X0*%
%ADD34RoundRect,0.050800X0.475000X-0.350000X0.475000X0.350000X-0.475000X0.350000X-0.475000X-0.350000X0*%
%ADD35C,3.501600*%
%ADD36C,6.101600*%
%ADD37C,1.201600*%
%ADD38RoundRect,0.050800X0.475000X1.375000X-0.475000X1.375000X-0.475000X-1.375000X0.475000X-1.375000X0*%
%ADD39RoundRect,0.050800X1.625000X-1.375000X1.625000X1.375000X-1.625000X1.375000X-1.625000X-1.375000X0*%
%ADD40RoundRect,0.050800X0.350000X0.475000X-0.350000X0.475000X-0.350000X-0.475000X0.350000X-0.475000X0*%
%ADD41RoundRect,0.050800X-0.525000X0.325000X-0.525000X-0.325000X0.525000X-0.325000X0.525000X0.325000X0*%
%ADD42RoundRect,0.271617X-0.366683X-0.504183X0.366683X-0.504183X0.366683X0.504183X-0.366683X0.504183X0*%
%ADD43RoundRect,0.050800X0.850000X0.850000X-0.850000X0.850000X-0.850000X-0.850000X0.850000X-0.850000X0*%
%ADD44RoundRect,0.262900X-0.262900X0.325400X-0.262900X-0.325400X0.262900X-0.325400X0.262900X0.325400X0*%
%ADD45RoundRect,0.050800X0.460000X0.565000X-0.460000X0.565000X-0.460000X-0.565000X0.460000X-0.565000X0*%
%ADD46RoundRect,0.050800X-0.300000X0.175000X-0.300000X-0.175000X0.300000X-0.175000X0.300000X0.175000X0*%
%ADD47RoundRect,0.050800X0.550000X0.850000X-0.550000X0.850000X-0.550000X-0.850000X0.550000X-0.850000X0*%
%ADD48RoundRect,0.050800X0.737500X-0.150000X0.737500X0.150000X-0.737500X0.150000X-0.737500X-0.150000X0*%
%ADD49RoundRect,0.050800X-0.150000X-0.737500X0.150000X-0.737500X0.150000X0.737500X-0.150000X0.737500X0*%
%ADD50RoundRect,0.050800X0.887500X-0.225000X0.887500X0.225000X-0.887500X0.225000X-0.887500X-0.225000X0*%
%ADD51RoundRect,0.050800X0.800000X-0.625000X0.800000X0.625000X-0.800000X0.625000X-0.800000X-0.625000X0*%
G04 APERTURE END LIST*
D10*
%TO.C,J5*%
X164826000Y-30533000D02*
X163454000Y-30533000D01*
X163454000Y-25351000D01*
X164826000Y-25351000D01*
X164826000Y-30533000D01*
G36*
X164826000Y-30533000D02*
G01*
X163454000Y-30533000D01*
X163454000Y-25351000D01*
X164826000Y-25351000D01*
X164826000Y-30533000D01*
G37*
X164826000Y-37391000D02*
X163454000Y-37391000D01*
X163454000Y-32209000D01*
X164826000Y-32209000D01*
X164826000Y-37391000D01*
G36*
X164826000Y-37391000D02*
G01*
X163454000Y-37391000D01*
X163454000Y-32209000D01*
X164826000Y-32209000D01*
X164826000Y-37391000D01*
G37*
X167366000Y-30533000D02*
X165994000Y-30533000D01*
X165994000Y-25351000D01*
X167366000Y-25351000D01*
X167366000Y-30533000D01*
G36*
X167366000Y-30533000D02*
G01*
X165994000Y-30533000D01*
X165994000Y-25351000D01*
X167366000Y-25351000D01*
X167366000Y-30533000D01*
G37*
X167366000Y-37391000D02*
X165994000Y-37391000D01*
X165994000Y-32209000D01*
X167366000Y-32209000D01*
X167366000Y-37391000D01*
G36*
X167366000Y-37391000D02*
G01*
X165994000Y-37391000D01*
X165994000Y-32209000D01*
X167366000Y-32209000D01*
X167366000Y-37391000D01*
G37*
X169906000Y-30533000D02*
X168534000Y-30533000D01*
X168534000Y-25351000D01*
X169906000Y-25351000D01*
X169906000Y-30533000D01*
G36*
X169906000Y-30533000D02*
G01*
X168534000Y-30533000D01*
X168534000Y-25351000D01*
X169906000Y-25351000D01*
X169906000Y-30533000D01*
G37*
X169906000Y-37391000D02*
X168534000Y-37391000D01*
X168534000Y-32209000D01*
X169906000Y-32209000D01*
X169906000Y-37391000D01*
G36*
X169906000Y-37391000D02*
G01*
X168534000Y-37391000D01*
X168534000Y-32209000D01*
X169906000Y-32209000D01*
X169906000Y-37391000D01*
G37*
X172446000Y-30533000D02*
X171074000Y-30533000D01*
X171074000Y-25351000D01*
X172446000Y-25351000D01*
X172446000Y-30533000D01*
G36*
X172446000Y-30533000D02*
G01*
X171074000Y-30533000D01*
X171074000Y-25351000D01*
X172446000Y-25351000D01*
X172446000Y-30533000D01*
G37*
X172446000Y-37391000D02*
X171074000Y-37391000D01*
X171074000Y-32209000D01*
X172446000Y-32209000D01*
X172446000Y-37391000D01*
G36*
X172446000Y-37391000D02*
G01*
X171074000Y-37391000D01*
X171074000Y-32209000D01*
X172446000Y-32209000D01*
X172446000Y-37391000D01*
G37*
X174986000Y-30533000D02*
X173614000Y-30533000D01*
X173614000Y-25351000D01*
X174986000Y-25351000D01*
X174986000Y-30533000D01*
G36*
X174986000Y-30533000D02*
G01*
X173614000Y-30533000D01*
X173614000Y-25351000D01*
X174986000Y-25351000D01*
X174986000Y-30533000D01*
G37*
X174986000Y-37391000D02*
X173614000Y-37391000D01*
X173614000Y-32209000D01*
X174986000Y-32209000D01*
X174986000Y-37391000D01*
G36*
X174986000Y-37391000D02*
G01*
X173614000Y-37391000D01*
X173614000Y-32209000D01*
X174986000Y-32209000D01*
X174986000Y-37391000D01*
G37*
X177526000Y-30533000D02*
X176154000Y-30533000D01*
X176154000Y-25351000D01*
X177526000Y-25351000D01*
X177526000Y-30533000D01*
G36*
X177526000Y-30533000D02*
G01*
X176154000Y-30533000D01*
X176154000Y-25351000D01*
X177526000Y-25351000D01*
X177526000Y-30533000D01*
G37*
X177526000Y-37391000D02*
X176154000Y-37391000D01*
X176154000Y-32209000D01*
X177526000Y-32209000D01*
X177526000Y-37391000D01*
G36*
X177526000Y-37391000D02*
G01*
X176154000Y-37391000D01*
X176154000Y-32209000D01*
X177526000Y-32209000D01*
X177526000Y-37391000D01*
G37*
X180066000Y-30533000D02*
X178694000Y-30533000D01*
X178694000Y-25351000D01*
X180066000Y-25351000D01*
X180066000Y-30533000D01*
G36*
X180066000Y-30533000D02*
G01*
X178694000Y-30533000D01*
X178694000Y-25351000D01*
X180066000Y-25351000D01*
X180066000Y-30533000D01*
G37*
X180066000Y-37391000D02*
X178694000Y-37391000D01*
X178694000Y-32209000D01*
X180066000Y-32209000D01*
X180066000Y-37391000D01*
G36*
X180066000Y-37391000D02*
G01*
X178694000Y-37391000D01*
X178694000Y-32209000D01*
X180066000Y-32209000D01*
X180066000Y-37391000D01*
G37*
%TD*%
D11*
%TO.C,R8*%
X132100000Y-124125000D03*
X132100000Y-122300000D03*
%TD*%
D12*
%TO.C,C68*%
X124962500Y-105857000D03*
X123237500Y-105857000D03*
%TD*%
D13*
%TO.C,R21*%
X154412500Y-105500000D03*
X152587500Y-105500000D03*
%TD*%
%TO.C,R24*%
X154412500Y-110300000D03*
X152587500Y-110300000D03*
%TD*%
D11*
%TO.C,R1*%
X138800000Y-117325000D03*
X138800000Y-115500000D03*
%TD*%
D14*
%TO.C,R6*%
X131270000Y-96177500D03*
X131270000Y-98002500D03*
%TD*%
D15*
%TO.C,C51*%
X152075000Y-96800000D03*
X150000000Y-96800000D03*
%TD*%
D16*
%TO.C,FB1*%
X122887500Y-115200000D03*
X124712500Y-115200000D03*
%TD*%
D17*
%TO.C,TP15*%
X161640000Y-44100000D03*
%TD*%
D18*
%TO.C,J6*%
X134300000Y-23520000D03*
D19*
X134300000Y-26060000D03*
X134300000Y-28600000D03*
X134300000Y-31140000D03*
X134300000Y-33680000D03*
X134300000Y-36220000D03*
X134300000Y-38760000D03*
X134300000Y-41300000D03*
X134300000Y-43840000D03*
X134300000Y-46380000D03*
X134300000Y-48920000D03*
X134300000Y-51460000D03*
X134300000Y-54000000D03*
X134300000Y-56540000D03*
X134300000Y-59080000D03*
%TD*%
D18*
%TO.C,J10*%
X116300000Y-63640000D03*
D19*
X116300000Y-66180000D03*
X116300000Y-68720000D03*
X116300000Y-71260000D03*
X116300000Y-73800000D03*
X116300000Y-76340000D03*
X116300000Y-78880000D03*
X116300000Y-81420000D03*
X116300000Y-83960000D03*
X116300000Y-86500000D03*
X116300000Y-89040000D03*
X116300000Y-91580000D03*
X116300000Y-94120000D03*
X116300000Y-96660000D03*
X116300000Y-99200000D03*
%TD*%
D11*
%TO.C,R25*%
X172000000Y-123800000D03*
X172000000Y-121975000D03*
%TD*%
D20*
%TO.C,D6*%
X164350000Y-118900000D03*
X166700000Y-118900000D03*
%TD*%
D17*
%TO.C,TP2*%
X180880000Y-44042000D03*
%TD*%
D21*
%TO.C,SW1*%
X146470000Y-102190000D03*
D22*
X143930000Y-102190000D03*
X143930000Y-109810000D03*
X146470000Y-109810000D03*
%TD*%
D17*
%TO.C,TP18*%
X177600000Y-55200000D03*
%TD*%
D23*
%TO.C,C60*%
X180375000Y-97100000D03*
X182100000Y-97100000D03*
%TD*%
D12*
%TO.C,C53*%
X181900000Y-121900000D03*
X180175000Y-121900000D03*
%TD*%
D11*
%TO.C,R26*%
X170000000Y-97025000D03*
X170000000Y-95200000D03*
%TD*%
D12*
%TO.C,C65*%
X177387500Y-95560000D03*
X175662500Y-95560000D03*
%TD*%
D24*
%TO.C,D5*%
X138850000Y-119400000D03*
X136500000Y-119400000D03*
%TD*%
D25*
%TO.C,C64*%
X177200000Y-80275000D03*
X177200000Y-78200000D03*
%TD*%
D12*
%TO.C,C55*%
X177237500Y-126100000D03*
X175512500Y-126100000D03*
%TD*%
D11*
%TO.C,R32*%
X171280000Y-50442000D03*
X171280000Y-48617000D03*
%TD*%
D26*
%TO.C,J4*%
X160195000Y-124400000D03*
X166195000Y-124400000D03*
D27*
X159995000Y-123125000D03*
X160795000Y-123125000D03*
D28*
X161945000Y-123125000D03*
X162945000Y-123125000D03*
X163445000Y-123125000D03*
X164445000Y-123125000D03*
D27*
X166395000Y-123125000D03*
X165595000Y-123125000D03*
D28*
X164945000Y-123125000D03*
X163945000Y-123125000D03*
X162445000Y-123125000D03*
X161445000Y-123125000D03*
D29*
X158100000Y-123775000D03*
X168290000Y-123775000D03*
D30*
X168290000Y-127700000D03*
X158100000Y-127700000D03*
%TD*%
D13*
%TO.C,R16*%
X154412500Y-103900000D03*
X152587500Y-103900000D03*
%TD*%
D31*
%TO.C,U3*%
X127450000Y-115450000D03*
X128100000Y-115450000D03*
X128750000Y-115450000D03*
X128750000Y-113350000D03*
X128100000Y-113350000D03*
X127450000Y-113350000D03*
D32*
X128100000Y-114400000D03*
%TD*%
D11*
%TO.C,R11*%
X154500000Y-124200000D03*
X154500000Y-122375000D03*
%TD*%
D13*
%TO.C,R30*%
X177025000Y-105600000D03*
X175200000Y-105600000D03*
%TD*%
D33*
%TO.C,C62*%
X179400000Y-80300000D03*
X179400000Y-78575000D03*
%TD*%
D34*
%TO.C,D1*%
X128870000Y-102402500D03*
X128870000Y-100602500D03*
%TD*%
D18*
%TO.C,J9*%
X137467500Y-102330000D03*
D19*
X137467500Y-104870000D03*
X137467500Y-107410000D03*
%TD*%
D17*
%TO.C,TP4*%
X163200000Y-55200000D03*
%TD*%
D18*
%TO.C,J7*%
X191700000Y-32240000D03*
D19*
X191700000Y-34780000D03*
X191700000Y-37320000D03*
X191700000Y-39860000D03*
X191700000Y-42400000D03*
X191700000Y-44940000D03*
X191700000Y-47480000D03*
X191700000Y-50020000D03*
X191700000Y-52560000D03*
X191700000Y-55100000D03*
X191700000Y-57640000D03*
X191700000Y-60180000D03*
X191700000Y-62720000D03*
X191700000Y-65260000D03*
X191700000Y-67800000D03*
%TD*%
D23*
%TO.C,C57*%
X175175000Y-107500000D03*
X176900000Y-107500000D03*
%TD*%
D35*
%TO.C,H1*%
X192400000Y-23300000D03*
D36*
X192400000Y-23300000D03*
%TD*%
D37*
%TO.C,U2*%
X132670000Y-106895000D03*
X131400000Y-106895000D03*
X130130000Y-106895000D03*
%TD*%
D17*
%TO.C,TP3*%
X166480000Y-44042000D03*
%TD*%
D38*
%TO.C,U5*%
X175200000Y-90300000D03*
X177500000Y-90300000D03*
X179800000Y-90300000D03*
D39*
X177500000Y-85100000D03*
%TD*%
D14*
%TO.C,R19*%
X161480000Y-48629500D03*
X161480000Y-50454500D03*
%TD*%
D11*
%TO.C,R17*%
X166380000Y-50254500D03*
X166380000Y-48429500D03*
%TD*%
D13*
%TO.C,R20*%
X154412500Y-102300000D03*
X152587500Y-102300000D03*
%TD*%
D40*
%TO.C,D10*%
X159787500Y-98500000D03*
X157987500Y-98500000D03*
%TD*%
D15*
%TO.C,C52*%
X152075000Y-93950000D03*
X150000000Y-93950000D03*
%TD*%
D41*
%TO.C,S1*%
X126205000Y-103587000D03*
X122055000Y-103587000D03*
X126205000Y-101437000D03*
X122055000Y-101437000D03*
%TD*%
D18*
%TO.C,J1*%
X127900000Y-23420000D03*
D19*
X127900000Y-25960000D03*
X127900000Y-28500000D03*
X127900000Y-31040000D03*
X127900000Y-33580000D03*
X127900000Y-36120000D03*
X127900000Y-38660000D03*
X127900000Y-41200000D03*
X127900000Y-43740000D03*
X127900000Y-46280000D03*
X127900000Y-48820000D03*
X127900000Y-51360000D03*
X127900000Y-53900000D03*
X127900000Y-56440000D03*
X127900000Y-58980000D03*
%TD*%
D13*
%TO.C,R23*%
X154412500Y-108700000D03*
X152587500Y-108700000D03*
%TD*%
D14*
%TO.C,R5*%
X133570000Y-96177500D03*
X133570000Y-98002500D03*
%TD*%
D42*
%TO.C,C58*%
X180200000Y-110700000D03*
X182275000Y-110700000D03*
%TD*%
D43*
%TO.C,J13*%
X140100000Y-58900000D03*
D19*
X140100000Y-56360000D03*
X140100000Y-53820000D03*
X140100000Y-51280000D03*
X140100000Y-48740000D03*
X140100000Y-46200000D03*
X140100000Y-43660000D03*
X140100000Y-41120000D03*
X140100000Y-38580000D03*
X140100000Y-36040000D03*
X140100000Y-33500000D03*
X140100000Y-30960000D03*
X140100000Y-28420000D03*
X140100000Y-25880000D03*
X140100000Y-23340000D03*
%TD*%
D18*
%TO.C,J11*%
X191700000Y-71560000D03*
D19*
X191700000Y-74100000D03*
X191700000Y-76640000D03*
X191700000Y-79180000D03*
X191700000Y-81720000D03*
X191700000Y-84260000D03*
X191700000Y-86800000D03*
X191700000Y-89340000D03*
X191700000Y-91880000D03*
X191700000Y-94420000D03*
X191700000Y-96960000D03*
X191700000Y-99500000D03*
X191700000Y-102040000D03*
X191700000Y-104580000D03*
X191700000Y-107120000D03*
%TD*%
D26*
%TO.C,J3*%
X137705000Y-124400000D03*
X143705000Y-124400000D03*
D27*
X137505000Y-123125000D03*
X138305000Y-123125000D03*
D28*
X139455000Y-123125000D03*
X140455000Y-123125000D03*
X140955000Y-123125000D03*
X141955000Y-123125000D03*
D27*
X143905000Y-123125000D03*
X143105000Y-123125000D03*
D28*
X142455000Y-123125000D03*
X141455000Y-123125000D03*
X139955000Y-123125000D03*
X138955000Y-123125000D03*
D29*
X135610000Y-123775000D03*
X145800000Y-123775000D03*
D30*
X145800000Y-127700000D03*
X135610000Y-127700000D03*
%TD*%
D13*
%TO.C,R28*%
X164112500Y-98200000D03*
X162287500Y-98200000D03*
%TD*%
D42*
%TO.C,C59*%
X178475000Y-103400000D03*
X180550000Y-103400000D03*
%TD*%
D13*
%TO.C,R29*%
X164112500Y-96500000D03*
X162287500Y-96500000D03*
%TD*%
D15*
%TO.C,C67*%
X125037500Y-107957000D03*
X122962500Y-107957000D03*
%TD*%
D11*
%TO.C,R2*%
X141500000Y-117325000D03*
X141500000Y-115500000D03*
%TD*%
D12*
%TO.C,C63*%
X177325000Y-93760000D03*
X175600000Y-93760000D03*
%TD*%
%TO.C,C56*%
X177237500Y-124000000D03*
X175512500Y-124000000D03*
%TD*%
D33*
%TO.C,C18*%
X133167500Y-83432500D03*
X133167500Y-81707500D03*
%TD*%
D11*
%TO.C,R15*%
X172000000Y-110325000D03*
X172000000Y-108500000D03*
%TD*%
D16*
%TO.C,FB2*%
X180125000Y-119800000D03*
X181950000Y-119800000D03*
%TD*%
D35*
%TO.C,H3*%
X116800000Y-125200000D03*
D36*
X116800000Y-125200000D03*
%TD*%
D20*
%TO.C,D4*%
X141650000Y-119400000D03*
X144000000Y-119400000D03*
%TD*%
D12*
%TO.C,C46*%
X124487500Y-123100000D03*
X122762500Y-123100000D03*
%TD*%
D17*
%TO.C,TP14*%
X185680000Y-44042000D03*
%TD*%
%TO.C,TP17*%
X156880000Y-44142000D03*
%TD*%
%TO.C,TP1*%
X182400000Y-55200000D03*
%TD*%
D40*
%TO.C,D11*%
X159787500Y-96300000D03*
X157987500Y-96300000D03*
%TD*%
D23*
%TO.C,C66*%
X175037500Y-112300000D03*
X176762500Y-112300000D03*
%TD*%
D33*
%TO.C,C12*%
X129767500Y-83432500D03*
X129767500Y-81707500D03*
%TD*%
D18*
%TO.C,J12*%
X121900000Y-23580000D03*
D19*
X121900000Y-26120000D03*
X121900000Y-28660000D03*
X121900000Y-31200000D03*
X121900000Y-33740000D03*
X121900000Y-36280000D03*
X121900000Y-38820000D03*
X121900000Y-41360000D03*
X121900000Y-43900000D03*
X121900000Y-46440000D03*
X121900000Y-48980000D03*
X121900000Y-51520000D03*
X121900000Y-54060000D03*
X121900000Y-56600000D03*
X121900000Y-59140000D03*
%TD*%
D11*
%TO.C,R35*%
X119500000Y-103557000D03*
X119500000Y-101732000D03*
%TD*%
D44*
%TO.C,C19*%
X134967500Y-81682500D03*
X134967500Y-83407500D03*
%TD*%
D14*
%TO.C,R7*%
X128870000Y-96177500D03*
X128870000Y-98002500D03*
%TD*%
D18*
%TO.C,J14*%
X187300000Y-71680000D03*
D19*
X187300000Y-74220000D03*
X187300000Y-76760000D03*
X187300000Y-79300000D03*
X187300000Y-81840000D03*
X187300000Y-84380000D03*
X187300000Y-86920000D03*
X187300000Y-89460000D03*
X187300000Y-92000000D03*
X187300000Y-94540000D03*
X187300000Y-97080000D03*
X187300000Y-99620000D03*
X187300000Y-102160000D03*
X187300000Y-104700000D03*
X187300000Y-107240000D03*
%TD*%
D12*
%TO.C,C50*%
X124775000Y-111360000D03*
X123050000Y-111360000D03*
%TD*%
D45*
%TO.C,D8*%
X183300000Y-114300000D03*
X179800000Y-114300000D03*
%TD*%
D24*
%TO.C,D7*%
X161375000Y-118900000D03*
X159025000Y-118900000D03*
%TD*%
D13*
%TO.C,R22*%
X154412500Y-107100000D03*
X152587500Y-107100000D03*
%TD*%
D14*
%TO.C,R3*%
X131467500Y-81595000D03*
X131467500Y-83420000D03*
%TD*%
D11*
%TO.C,R27*%
X168100000Y-96950000D03*
X168100000Y-95125000D03*
%TD*%
D17*
%TO.C,TP5*%
X172800000Y-55200000D03*
%TD*%
D11*
%TO.C,R12*%
X149400000Y-124112500D03*
X149400000Y-122287500D03*
%TD*%
%TO.C,R14*%
X176080000Y-50354500D03*
X176080000Y-48529500D03*
%TD*%
D46*
%TO.C,U4*%
X177487500Y-117850000D03*
X177487500Y-117200000D03*
X177487500Y-116550000D03*
X175387500Y-116550000D03*
X175387500Y-117200000D03*
X175387500Y-117850000D03*
D47*
X176437500Y-117200000D03*
%TD*%
D12*
%TO.C,C49*%
X124562500Y-117200000D03*
X122837500Y-117200000D03*
%TD*%
D34*
%TO.C,D3*%
X133570000Y-102402500D03*
X133570000Y-100602500D03*
%TD*%
D12*
%TO.C,C54*%
X177237500Y-121900000D03*
X175512500Y-121900000D03*
%TD*%
D48*
%TO.C,U1*%
X144462000Y-69574500D03*
X144462000Y-70074500D03*
X144462000Y-70574500D03*
X144462000Y-71074500D03*
X144462000Y-71574500D03*
X144462000Y-72074500D03*
X144462000Y-72574500D03*
X144462000Y-73074500D03*
X144462000Y-73574500D03*
X144462000Y-74074500D03*
X144462000Y-74574500D03*
X144462000Y-75074500D03*
X144462000Y-75574500D03*
X144462000Y-76074500D03*
X144462000Y-76574500D03*
X144462000Y-77074500D03*
X144462000Y-77574500D03*
X144462000Y-78074500D03*
X144462000Y-78574500D03*
X144462000Y-79074500D03*
X144462000Y-79574500D03*
X144462000Y-80074500D03*
X144462000Y-80574500D03*
X144462000Y-81074500D03*
X144462000Y-81574500D03*
X144462000Y-82074500D03*
X144462000Y-82574500D03*
X144462000Y-83074500D03*
X144462000Y-83574500D03*
X144462000Y-84074500D03*
X144462000Y-84574500D03*
X144462000Y-85074500D03*
X144462000Y-85574500D03*
X144462000Y-86074500D03*
X144462000Y-86574500D03*
X144462000Y-87074500D03*
D49*
X146450000Y-89062500D03*
X146950000Y-89062500D03*
X147450000Y-89062500D03*
X147950000Y-89062500D03*
X148450000Y-89062500D03*
X148950000Y-89062500D03*
X149450000Y-89062500D03*
X149950000Y-89062500D03*
X150450000Y-89062500D03*
X150950000Y-89062500D03*
X151450000Y-89062500D03*
X151950000Y-89062500D03*
X152450000Y-89062500D03*
X152950000Y-89062500D03*
X153450000Y-89062500D03*
X153950000Y-89062500D03*
X154450000Y-89062500D03*
X154950000Y-89062500D03*
X155450000Y-89062500D03*
X155950000Y-89062500D03*
X156450000Y-89062500D03*
X156950000Y-89062500D03*
X157450000Y-89062500D03*
X157950000Y-89062500D03*
X158450000Y-89062500D03*
X158950000Y-89062500D03*
X159450000Y-89062500D03*
X159950000Y-89062500D03*
X160450000Y-89062500D03*
X160950000Y-89062500D03*
X161450000Y-89062500D03*
X161950000Y-89062500D03*
X162450000Y-89062500D03*
X162950000Y-89062500D03*
X163450000Y-89062500D03*
X163950000Y-89062500D03*
D48*
X165938000Y-87074500D03*
X165938000Y-86574500D03*
X165938000Y-86074500D03*
X165938000Y-85574500D03*
X165938000Y-85074500D03*
X165938000Y-84574500D03*
X165938000Y-84074500D03*
X165938000Y-83574500D03*
X165938000Y-83074500D03*
X165938000Y-82574500D03*
X165938000Y-82074500D03*
X165938000Y-81574500D03*
X165938000Y-81074500D03*
X165938000Y-80574500D03*
X165938000Y-80074500D03*
X165938000Y-79574500D03*
X165938000Y-79074500D03*
X165938000Y-78574500D03*
X165938000Y-78074500D03*
X165938000Y-77574500D03*
X165938000Y-77074500D03*
X165938000Y-76574500D03*
X165938000Y-76074500D03*
X165938000Y-75574500D03*
X165938000Y-75074500D03*
X165938000Y-74574500D03*
X165938000Y-74074500D03*
X165938000Y-73574500D03*
X165938000Y-73074500D03*
X165938000Y-72574500D03*
X165938000Y-72074500D03*
X165938000Y-71574500D03*
X165938000Y-71074500D03*
X165938000Y-70574500D03*
X165938000Y-70074500D03*
X165938000Y-69574500D03*
D49*
X163950000Y-67586500D03*
X163450000Y-67586500D03*
X162950000Y-67586500D03*
X162450000Y-67586500D03*
X161950000Y-67586500D03*
X161450000Y-67586500D03*
X160950000Y-67586500D03*
X160450000Y-67586500D03*
X159950000Y-67586500D03*
X159450000Y-67586500D03*
X158950000Y-67586500D03*
X158450000Y-67586500D03*
X157950000Y-67586500D03*
X157450000Y-67586500D03*
X156950000Y-67586500D03*
X156450000Y-67586500D03*
X155950000Y-67586500D03*
X155450000Y-67586500D03*
X154950000Y-67586500D03*
X154450000Y-67586500D03*
X153950000Y-67586500D03*
X153450000Y-67586500D03*
X152950000Y-67586500D03*
X152450000Y-67586500D03*
X151950000Y-67586500D03*
X151450000Y-67586500D03*
X150950000Y-67586500D03*
X150450000Y-67586500D03*
X149950000Y-67586500D03*
X149450000Y-67586500D03*
X148950000Y-67586500D03*
X148450000Y-67586500D03*
X147950000Y-67586500D03*
X147450000Y-67586500D03*
X146950000Y-67586500D03*
X146450000Y-67586500D03*
%TD*%
D11*
%TO.C,R9*%
X132100000Y-119387500D03*
X132100000Y-117562500D03*
%TD*%
%TO.C,R13*%
X180880000Y-50254500D03*
X180880000Y-48429500D03*
%TD*%
D13*
%TO.C,R33*%
X143950000Y-94600000D03*
X142125000Y-94600000D03*
%TD*%
D23*
%TO.C,C61*%
X180400000Y-95360000D03*
X182125000Y-95360000D03*
%TD*%
D17*
%TO.C,TP13*%
X171280000Y-44042000D03*
%TD*%
D14*
%TO.C,R4*%
X145100000Y-113575000D03*
X145100000Y-115400000D03*
%TD*%
D17*
%TO.C,TP16*%
X176080000Y-44042000D03*
%TD*%
D45*
%TO.C,D9*%
X183437500Y-108300000D03*
X179937500Y-108300000D03*
%TD*%
D17*
%TO.C,TP12*%
X168000000Y-55200000D03*
%TD*%
D12*
%TO.C,C48*%
X124462500Y-119400000D03*
X122737500Y-119400000D03*
%TD*%
D50*
%TO.C,U6*%
X159724000Y-102750000D03*
X159724000Y-103400000D03*
X159724000Y-104050000D03*
X159724000Y-104700000D03*
X159724000Y-105350000D03*
X159724000Y-106000000D03*
X159724000Y-106650000D03*
X159724000Y-107300000D03*
X159724000Y-107950000D03*
X159724000Y-108600000D03*
X159724000Y-109250000D03*
X159724000Y-109900000D03*
X159724000Y-110550000D03*
X159724000Y-111200000D03*
X166800000Y-111200000D03*
X166800000Y-110550000D03*
X166800000Y-109900000D03*
X166800000Y-109250000D03*
X166800000Y-108600000D03*
X166800000Y-107950000D03*
X166800000Y-107300000D03*
X166800000Y-106650000D03*
X166800000Y-106000000D03*
X166800000Y-105350000D03*
X166800000Y-104700000D03*
X166800000Y-104050000D03*
X166800000Y-103400000D03*
X166800000Y-102750000D03*
%TD*%
D12*
%TO.C,C47*%
X124462500Y-121300000D03*
X122737500Y-121300000D03*
%TD*%
D16*
%TO.C,R31*%
X179887500Y-105600000D03*
X181712500Y-105600000D03*
%TD*%
D34*
%TO.C,D2*%
X131270000Y-102402500D03*
X131270000Y-100602500D03*
%TD*%
D13*
%TO.C,R34*%
X139450000Y-97100000D03*
X137625000Y-97100000D03*
%TD*%
D43*
%TO.C,J2*%
X116100000Y-58900000D03*
D19*
X116100000Y-56360000D03*
X116100000Y-53820000D03*
X116100000Y-51280000D03*
X116100000Y-48740000D03*
X116100000Y-46200000D03*
X116100000Y-43660000D03*
X116100000Y-41120000D03*
X116100000Y-38580000D03*
X116100000Y-36040000D03*
X116100000Y-33500000D03*
X116100000Y-30960000D03*
X116100000Y-28420000D03*
X116100000Y-25880000D03*
X116100000Y-23340000D03*
%TD*%
D51*
%TO.C,Y1*%
X130600000Y-89500000D03*
X134300000Y-89500000D03*
X134300000Y-87300000D03*
X130600000Y-87300000D03*
%TD*%
D35*
%TO.C,H4*%
X191800000Y-125100000D03*
D36*
X191800000Y-125100000D03*
%TD*%
D11*
%TO.C,R10*%
X132100000Y-115812500D03*
X132100000Y-113987500D03*
%TD*%
%TO.C,R18*%
X156780000Y-50354500D03*
X156780000Y-48529500D03*
%TD*%
D18*
%TO.C,J8*%
X119100000Y-107700000D03*
D19*
X119100000Y-110240000D03*
X119100000Y-112780000D03*
%TD*%
M02*
