%TF.GenerationSoftware,KiCad,Pcbnew,9.0.7*%
%TF.CreationDate,2026-02-11T16:46:02-06:00*%
%TF.ProjectId,TOM_MCU_144Pin,544f4d5f-4d43-4555-9f31-343450696e2e,rev?*%
%TF.SameCoordinates,Original*%
%TF.FileFunction,Paste,Bot*%
%TF.FilePolarity,Positive*%
%FSLAX46Y46*%
G04 Gerber Fmt 4.6, Leading zero omitted, Abs format (unit mm)*
G04 Created by KiCad (PCBNEW 9.0.7) date 2026-02-11 16:46:02*
%MOMM*%
%LPD*%
G01*
G04 APERTURE LIST*
G04 Aperture macros list*
%AMRoundRect*
0 Rectangle with rounded corners*
0 $1 Rounding radius*
0 $2 $3 $4 $5 $6 $7 $8 $9 X,Y pos of 4 corners*
0 Add a 4 corners polygon primitive as box body*
4,1,4,$2,$3,$4,$5,$6,$7,$8,$9,$2,$3,0*
0 Add four circle primitives for the rounded corners*
1,1,$1+$1,$2,$3*
1,1,$1+$1,$4,$5*
1,1,$1+$1,$6,$7*
1,1,$1+$1,$8,$9*
0 Add four rect primitives between the rounded corners*
20,1,$1+$1,$2,$3,$4,$5,0*
20,1,$1+$1,$4,$5,$6,$7,0*
20,1,$1+$1,$6,$7,$8,$9,0*
20,1,$1+$1,$8,$9,$2,$3,0*%
G04 Aperture macros list end*
%ADD10RoundRect,0.237500X-0.237500X0.300000X-0.237500X-0.300000X0.237500X-0.300000X0.237500X0.300000X0*%
%ADD11RoundRect,0.237500X-0.300000X-0.237500X0.300000X-0.237500X0.300000X0.237500X-0.300000X0.237500X0*%
%ADD12RoundRect,0.250000X0.337500X0.475000X-0.337500X0.475000X-0.337500X-0.475000X0.337500X-0.475000X0*%
%ADD13RoundRect,0.237500X0.237500X-0.300000X0.237500X0.300000X-0.237500X0.300000X-0.237500X-0.300000X0*%
%ADD14RoundRect,0.237500X0.300000X0.237500X-0.300000X0.237500X-0.300000X-0.237500X0.300000X-0.237500X0*%
%ADD15RoundRect,0.250000X-0.337500X-0.475000X0.337500X-0.475000X0.337500X0.475000X-0.337500X0.475000X0*%
%ADD16RoundRect,0.250000X0.475000X-0.337500X0.475000X0.337500X-0.475000X0.337500X-0.475000X-0.337500X0*%
G04 APERTURE END LIST*
D10*
%TO.C,C27*%
X148950000Y-70287500D03*
X148950000Y-72012500D03*
%TD*%
D11*
%TO.C,C40*%
X147175000Y-77787500D03*
X148900000Y-77787500D03*
%TD*%
D10*
%TO.C,C45*%
X147250000Y-70287500D03*
X147250000Y-72012500D03*
%TD*%
D11*
%TO.C,C34*%
X147150000Y-74587500D03*
X148875000Y-74587500D03*
%TD*%
D10*
%TO.C,C21*%
X160850000Y-70262500D03*
X160850000Y-71987500D03*
%TD*%
D11*
%TO.C,C9*%
X138637500Y-67900000D03*
X140362500Y-67900000D03*
%TD*%
D12*
%TO.C,C35*%
X163100000Y-80100000D03*
X161025000Y-80100000D03*
%TD*%
D13*
%TO.C,C28*%
X156450000Y-86687500D03*
X156450000Y-84962500D03*
%TD*%
D11*
%TO.C,C22*%
X147187500Y-80987500D03*
X148912500Y-80987500D03*
%TD*%
D14*
%TO.C,C38*%
X162950000Y-84587500D03*
X161225000Y-84587500D03*
%TD*%
D11*
%TO.C,C7*%
X138637500Y-69600000D03*
X140362500Y-69600000D03*
%TD*%
D15*
%TO.C,C23*%
X156625000Y-77500000D03*
X158700000Y-77500000D03*
%TD*%
D10*
%TO.C,C41*%
X159050000Y-70262500D03*
X159050000Y-71987500D03*
%TD*%
D12*
%TO.C,C15*%
X153637500Y-77600000D03*
X151562500Y-77600000D03*
%TD*%
D15*
%TO.C,C5*%
X138362500Y-65800000D03*
X140437500Y-65800000D03*
%TD*%
D16*
%TO.C,C20*%
X158800000Y-86600000D03*
X158800000Y-84525000D03*
%TD*%
D12*
%TO.C,C26*%
X163000000Y-82500000D03*
X160925000Y-82500000D03*
%TD*%
D15*
%TO.C,C32*%
X156625000Y-75300000D03*
X158700000Y-75300000D03*
%TD*%
D10*
%TO.C,C44*%
X162750000Y-70262500D03*
X162750000Y-71987500D03*
%TD*%
D11*
%TO.C,C30*%
X147150000Y-76187500D03*
X148875000Y-76187500D03*
%TD*%
%TO.C,C10*%
X138637500Y-74700000D03*
X140362500Y-74700000D03*
%TD*%
D13*
%TO.C,C33*%
X150350000Y-86650000D03*
X150350000Y-84925000D03*
%TD*%
%TO.C,C25*%
X152150000Y-86650000D03*
X152150000Y-84925000D03*
%TD*%
D10*
%TO.C,C24*%
X157400000Y-70287500D03*
X157400000Y-72012500D03*
%TD*%
D11*
%TO.C,C17*%
X147187500Y-79387500D03*
X148912500Y-79387500D03*
%TD*%
D15*
%TO.C,C8*%
X138362500Y-63590000D03*
X140437500Y-63590000D03*
%TD*%
D12*
%TO.C,C3*%
X153637500Y-79900000D03*
X151562500Y-79900000D03*
%TD*%
D14*
%TO.C,C37*%
X163100000Y-77800000D03*
X161375000Y-77800000D03*
%TD*%
D10*
%TO.C,C1*%
X151300000Y-70337500D03*
X151300000Y-72062500D03*
%TD*%
D12*
%TO.C,C29*%
X153625000Y-75300000D03*
X151550000Y-75300000D03*
%TD*%
D11*
%TO.C,C6*%
X138637500Y-71300000D03*
X140362500Y-71300000D03*
%TD*%
D10*
%TO.C,C13*%
X146700000Y-62137500D03*
X146700000Y-63862500D03*
%TD*%
D11*
%TO.C,C42*%
X147187500Y-82587500D03*
X148912500Y-82587500D03*
%TD*%
D10*
%TO.C,C2*%
X153000000Y-70337500D03*
X153000000Y-72062500D03*
%TD*%
D14*
%TO.C,C36*%
X163062500Y-76100000D03*
X161337500Y-76100000D03*
%TD*%
D10*
%TO.C,C43*%
X155600000Y-70262500D03*
X155600000Y-71987500D03*
%TD*%
D11*
%TO.C,C4*%
X138637500Y-73000000D03*
X140362500Y-73000000D03*
%TD*%
D14*
%TO.C,C31*%
X163062500Y-74400000D03*
X161337500Y-74400000D03*
%TD*%
%TO.C,C39*%
X162950000Y-86287500D03*
X161225000Y-86287500D03*
%TD*%
D13*
%TO.C,C16*%
X154550000Y-86687500D03*
X154550000Y-84962500D03*
%TD*%
D10*
%TO.C,C14*%
X148400000Y-62137500D03*
X148400000Y-63862500D03*
%TD*%
D12*
%TO.C,C11*%
X153700000Y-82100000D03*
X151625000Y-82100000D03*
%TD*%
M02*
