%TF.GenerationSoftware,KiCad,Pcbnew,9.0.5*%
%TF.CreationDate,2026-01-14T15:13:40-06:00*%
%TF.ProjectId,STAR_BMS,53544152-5f42-44d5-932e-6b696361645f,V1.0.0*%
%TF.SameCoordinates,Original*%
%TF.FileFunction,Drillmap*%
%TF.FilePolarity,Positive*%
%FSLAX45Y45*%
G04 Gerber Fmt 4.5, Leading zero omitted, Abs format (unit mm)*
G04 Created by KiCad (PCBNEW 9.0.5) date 2026-01-14 15:13:40*
%MOMM*%
%LPD*%
G01*
G04 APERTURE LIST*
%ADD10C,0.050000*%
%ADD11C,0.200000*%
%ADD12C,0.100000*%
%ADD13C,0.106680*%
%ADD14C,0.110000*%
%ADD15C,0.140000*%
%ADD16C,0.320000*%
G04 APERTURE END LIST*
D10*
X2743200Y-5334000D02*
X15938500Y-5334000D01*
X15938500Y-13881100D01*
X2743200Y-13881100D01*
X2743200Y-5334000D01*
D11*
D12*
X3998200Y-10907000D02*
X4028200Y-10937000D01*
X4028200Y-10907000D02*
X3998200Y-10937000D01*
X3998200Y-11110200D02*
X4028200Y-11140200D01*
X4028200Y-11110200D02*
X3998200Y-11140200D01*
X3998200Y-11313400D02*
X4028200Y-11343400D01*
X4028200Y-11313400D02*
X3998200Y-11343400D01*
X3998200Y-11516600D02*
X4028200Y-11546600D01*
X4028200Y-11516600D02*
X3998200Y-11546600D01*
X4099800Y-10246600D02*
X4129800Y-10276600D01*
X4129800Y-10246600D02*
X4099800Y-10276600D01*
X4252200Y-10907000D02*
X4282200Y-10937000D01*
X4282200Y-10907000D02*
X4252200Y-10937000D01*
X4252200Y-11110200D02*
X4282200Y-11140200D01*
X4282200Y-11110200D02*
X4252200Y-11140200D01*
X4252200Y-11313400D02*
X4282200Y-11343400D01*
X4282200Y-11313400D02*
X4252200Y-11343400D01*
X4252200Y-11516600D02*
X4282200Y-11546600D01*
X4282200Y-11516600D02*
X4252200Y-11546600D01*
X4379200Y-5585700D02*
X4409200Y-5615700D01*
X4409200Y-5585700D02*
X4379200Y-5615700D01*
X4379200Y-5788900D02*
X4409200Y-5818900D01*
X4409200Y-5788900D02*
X4379200Y-5818900D01*
X4379200Y-5992100D02*
X4409200Y-6022100D01*
X4409200Y-5992100D02*
X4379200Y-6022100D01*
X4379200Y-6195300D02*
X4409200Y-6225300D01*
X4409200Y-6195300D02*
X4379200Y-6225300D01*
X4391900Y-7897100D02*
X4421900Y-7927100D01*
X4421900Y-7897100D02*
X4391900Y-7927100D01*
X4391900Y-8100300D02*
X4421900Y-8130300D01*
X4421900Y-8100300D02*
X4391900Y-8130300D01*
X4391900Y-8303500D02*
X4421900Y-8333500D01*
X4421900Y-8303500D02*
X4391900Y-8333500D01*
X4391900Y-8506700D02*
X4421900Y-8536700D01*
X4421900Y-8506700D02*
X4391900Y-8536700D01*
X4506200Y-10907000D02*
X4536200Y-10937000D01*
X4536200Y-10907000D02*
X4506200Y-10937000D01*
X4506200Y-11110200D02*
X4536200Y-11140200D01*
X4536200Y-11110200D02*
X4506200Y-11140200D01*
X4506200Y-11313400D02*
X4536200Y-11343400D01*
X4536200Y-11313400D02*
X4506200Y-11343400D01*
X4506200Y-11516600D02*
X4536200Y-11546600D01*
X4536200Y-11516600D02*
X4506200Y-11546600D01*
X4633200Y-5585700D02*
X4663200Y-5615700D01*
X4663200Y-5585700D02*
X4633200Y-5615700D01*
X4633200Y-5788900D02*
X4663200Y-5818900D01*
X4663200Y-5788900D02*
X4633200Y-5818900D01*
X4633200Y-5992100D02*
X4663200Y-6022100D01*
X4663200Y-5992100D02*
X4633200Y-6022100D01*
X4633200Y-6195300D02*
X4663200Y-6225300D01*
X4663200Y-6195300D02*
X4633200Y-6225300D01*
X4645900Y-7897100D02*
X4675900Y-7927100D01*
X4675900Y-7897100D02*
X4645900Y-7927100D01*
X4645900Y-8100300D02*
X4675900Y-8130300D01*
X4675900Y-8100300D02*
X4645900Y-8130300D01*
X4645900Y-8303500D02*
X4675900Y-8333500D01*
X4675900Y-8303500D02*
X4645900Y-8333500D01*
X4645900Y-8506700D02*
X4675900Y-8536700D01*
X4675900Y-8506700D02*
X4645900Y-8536700D01*
X4760200Y-10907000D02*
X4790200Y-10937000D01*
X4790200Y-10907000D02*
X4760200Y-10937000D01*
X4760200Y-11110200D02*
X4790200Y-11140200D01*
X4790200Y-11110200D02*
X4760200Y-11140200D01*
X4760200Y-11313400D02*
X4790200Y-11343400D01*
X4790200Y-11313400D02*
X4760200Y-11343400D01*
X4760200Y-11516600D02*
X4790200Y-11546600D01*
X4790200Y-11516600D02*
X4760200Y-11546600D01*
X4811000Y-12431000D02*
X4841000Y-12461000D01*
X4841000Y-12431000D02*
X4811000Y-12461000D01*
X4811000Y-12634200D02*
X4841000Y-12664200D01*
X4841000Y-12634200D02*
X4811000Y-12664200D01*
X4811000Y-12837400D02*
X4841000Y-12867400D01*
X4841000Y-12837400D02*
X4811000Y-12867400D01*
X4811000Y-13040600D02*
X4841000Y-13070600D01*
X4841000Y-13040600D02*
X4811000Y-13070600D01*
X4887200Y-5585700D02*
X4917200Y-5615700D01*
X4917200Y-5585700D02*
X4887200Y-5615700D01*
X4887200Y-5788900D02*
X4917200Y-5818900D01*
X4917200Y-5788900D02*
X4887200Y-5818900D01*
X4887200Y-5992100D02*
X4917200Y-6022100D01*
X4917200Y-5992100D02*
X4887200Y-6022100D01*
X4887200Y-6195300D02*
X4917200Y-6225300D01*
X4917200Y-6195300D02*
X4887200Y-6225300D01*
X4899900Y-7897100D02*
X4929900Y-7927100D01*
X4929900Y-7897100D02*
X4899900Y-7927100D01*
X4899900Y-8100300D02*
X4929900Y-8130300D01*
X4929900Y-8100300D02*
X4899900Y-8130300D01*
X4899900Y-8303500D02*
X4929900Y-8333500D01*
X4929900Y-8303500D02*
X4899900Y-8333500D01*
X4899900Y-8506700D02*
X4929900Y-8536700D01*
X4929900Y-8506700D02*
X4899900Y-8536700D01*
X5014200Y-10907000D02*
X5044200Y-10937000D01*
X5044200Y-10907000D02*
X5014200Y-10937000D01*
X5014200Y-11110200D02*
X5044200Y-11140200D01*
X5044200Y-11110200D02*
X5014200Y-11140200D01*
X5014200Y-11313400D02*
X5044200Y-11343400D01*
X5044200Y-11313400D02*
X5014200Y-11343400D01*
X5014200Y-11516600D02*
X5044200Y-11546600D01*
X5044200Y-11516600D02*
X5014200Y-11546600D01*
X5065000Y-12431000D02*
X5095000Y-12461000D01*
X5095000Y-12431000D02*
X5065000Y-12461000D01*
X5065000Y-12634200D02*
X5095000Y-12664200D01*
X5095000Y-12634200D02*
X5065000Y-12664200D01*
X5065000Y-12837400D02*
X5095000Y-12867400D01*
X5095000Y-12837400D02*
X5065000Y-12867400D01*
X5065000Y-13040600D02*
X5095000Y-13070600D01*
X5095000Y-13040600D02*
X5065000Y-13070600D01*
X5141200Y-5585700D02*
X5171200Y-5615700D01*
X5171200Y-5585700D02*
X5141200Y-5615700D01*
X5141200Y-5788900D02*
X5171200Y-5818900D01*
X5171200Y-5788900D02*
X5141200Y-5818900D01*
X5141200Y-5992100D02*
X5171200Y-6022100D01*
X5171200Y-5992100D02*
X5141200Y-6022100D01*
X5141200Y-6195300D02*
X5171200Y-6225300D01*
X5171200Y-6195300D02*
X5141200Y-6225300D01*
X5153900Y-7897100D02*
X5183900Y-7927100D01*
X5183900Y-7897100D02*
X5153900Y-7927100D01*
X5153900Y-8100300D02*
X5183900Y-8130300D01*
X5183900Y-8100300D02*
X5153900Y-8130300D01*
X5153900Y-8303500D02*
X5183900Y-8333500D01*
X5183900Y-8303500D02*
X5153900Y-8333500D01*
X5153900Y-8506700D02*
X5183900Y-8536700D01*
X5183900Y-8506700D02*
X5153900Y-8536700D01*
X5268200Y-10907000D02*
X5298200Y-10937000D01*
X5298200Y-10907000D02*
X5268200Y-10937000D01*
X5268200Y-11110200D02*
X5298200Y-11140200D01*
X5298200Y-11110200D02*
X5268200Y-11140200D01*
X5268200Y-11313400D02*
X5298200Y-11343400D01*
X5298200Y-11313400D02*
X5268200Y-11343400D01*
X5268200Y-11516600D02*
X5298200Y-11546600D01*
X5298200Y-11516600D02*
X5268200Y-11546600D01*
X5319000Y-12431000D02*
X5349000Y-12461000D01*
X5349000Y-12431000D02*
X5319000Y-12461000D01*
X5319000Y-12634200D02*
X5349000Y-12664200D01*
X5349000Y-12634200D02*
X5319000Y-12664200D01*
X5319000Y-12837400D02*
X5349000Y-12867400D01*
X5349000Y-12837400D02*
X5319000Y-12867400D01*
X5319000Y-13040600D02*
X5349000Y-13070600D01*
X5349000Y-13040600D02*
X5319000Y-13070600D01*
X5395000Y-9495000D02*
X5425000Y-9525000D01*
X5425000Y-9495000D02*
X5395000Y-9525000D01*
X5395200Y-5585700D02*
X5425200Y-5615700D01*
X5425200Y-5585700D02*
X5395200Y-5615700D01*
X5395200Y-5788900D02*
X5425200Y-5818900D01*
X5425200Y-5788900D02*
X5395200Y-5818900D01*
X5395200Y-5992100D02*
X5425200Y-6022100D01*
X5425200Y-5992100D02*
X5395200Y-6022100D01*
X5395200Y-6195300D02*
X5425200Y-6225300D01*
X5425200Y-6195300D02*
X5395200Y-6225300D01*
X5471400Y-10094200D02*
X5501400Y-10124200D01*
X5501400Y-10094200D02*
X5471400Y-10124200D01*
X5573000Y-10907000D02*
X5603000Y-10937000D01*
X5603000Y-10907000D02*
X5573000Y-10937000D01*
X5573000Y-11110200D02*
X5603000Y-11140200D01*
X5603000Y-11110200D02*
X5573000Y-11140200D01*
X5573000Y-11313400D02*
X5603000Y-11343400D01*
X5603000Y-11313400D02*
X5573000Y-11343400D01*
X5573000Y-11516600D02*
X5603000Y-11546600D01*
X5603000Y-11516600D02*
X5573000Y-11546600D01*
X5573000Y-12431000D02*
X5603000Y-12461000D01*
X5603000Y-12431000D02*
X5573000Y-12461000D01*
X5573000Y-12634200D02*
X5603000Y-12664200D01*
X5603000Y-12634200D02*
X5573000Y-12664200D01*
X5573000Y-12837400D02*
X5603000Y-12867400D01*
X5603000Y-12837400D02*
X5573000Y-12867400D01*
X5573000Y-13040600D02*
X5603000Y-13070600D01*
X5603000Y-13040600D02*
X5573000Y-13070600D01*
X5649200Y-5585700D02*
X5679200Y-5615700D01*
X5679200Y-5585700D02*
X5649200Y-5615700D01*
X5649200Y-5788900D02*
X5679200Y-5818900D01*
X5679200Y-5788900D02*
X5649200Y-5818900D01*
X5649200Y-5992100D02*
X5679200Y-6022100D01*
X5679200Y-5992100D02*
X5649200Y-6022100D01*
X5649200Y-6195300D02*
X5679200Y-6225300D01*
X5679200Y-6195300D02*
X5649200Y-6225300D01*
X5827000Y-10907000D02*
X5857000Y-10937000D01*
X5857000Y-10907000D02*
X5827000Y-10937000D01*
X5827000Y-11110200D02*
X5857000Y-11140200D01*
X5857000Y-11110200D02*
X5827000Y-11140200D01*
X5827000Y-11313400D02*
X5857000Y-11343400D01*
X5857000Y-11313400D02*
X5827000Y-11343400D01*
X5827000Y-11516600D02*
X5857000Y-11546600D01*
X5857000Y-11516600D02*
X5827000Y-11546600D01*
X5827000Y-12431000D02*
X5857000Y-12461000D01*
X5857000Y-12431000D02*
X5827000Y-12461000D01*
X5827000Y-12634200D02*
X5857000Y-12664200D01*
X5857000Y-12634200D02*
X5827000Y-12664200D01*
X5827000Y-12837400D02*
X5857000Y-12867400D01*
X5857000Y-12837400D02*
X5827000Y-12867400D01*
X5827000Y-13040600D02*
X5857000Y-13070600D01*
X5857000Y-13040600D02*
X5827000Y-13070600D01*
X6081000Y-10907000D02*
X6111000Y-10937000D01*
X6111000Y-10907000D02*
X6081000Y-10937000D01*
X6081000Y-11110200D02*
X6111000Y-11140200D01*
X6111000Y-11110200D02*
X6081000Y-11140200D01*
X6081000Y-11313400D02*
X6111000Y-11343400D01*
X6111000Y-11313400D02*
X6081000Y-11343400D01*
X6081000Y-11516600D02*
X6111000Y-11546600D01*
X6111000Y-11516600D02*
X6081000Y-11546600D01*
X6081000Y-12431000D02*
X6111000Y-12461000D01*
X6111000Y-12431000D02*
X6081000Y-12461000D01*
X6081000Y-12634200D02*
X6111000Y-12664200D01*
X6111000Y-12634200D02*
X6081000Y-12664200D01*
X6081000Y-12837400D02*
X6111000Y-12867400D01*
X6111000Y-12837400D02*
X6081000Y-12867400D01*
X6081000Y-13040600D02*
X6111000Y-13070600D01*
X6111000Y-13040600D02*
X6081000Y-13070600D01*
X6335000Y-10907000D02*
X6365000Y-10937000D01*
X6365000Y-10907000D02*
X6335000Y-10937000D01*
X6335000Y-11110200D02*
X6365000Y-11140200D01*
X6365000Y-11110200D02*
X6335000Y-11140200D01*
X6335000Y-11313400D02*
X6365000Y-11343400D01*
X6365000Y-11313400D02*
X6335000Y-11343400D01*
X6335000Y-11516600D02*
X6365000Y-11546600D01*
X6365000Y-11516600D02*
X6335000Y-11546600D01*
X6335000Y-12431000D02*
X6365000Y-12461000D01*
X6365000Y-12431000D02*
X6335000Y-12461000D01*
X6335000Y-12634200D02*
X6365000Y-12664200D01*
X6365000Y-12634200D02*
X6335000Y-12664200D01*
X6335000Y-12837400D02*
X6365000Y-12867400D01*
X6365000Y-12837400D02*
X6335000Y-12867400D01*
X6335000Y-13040600D02*
X6365000Y-13070600D01*
X6365000Y-13040600D02*
X6335000Y-13070600D01*
X6589000Y-10907000D02*
X6619000Y-10937000D01*
X6619000Y-10907000D02*
X6589000Y-10937000D01*
X6589000Y-11110200D02*
X6619000Y-11140200D01*
X6619000Y-11110200D02*
X6589000Y-11140200D01*
X6589000Y-11313400D02*
X6619000Y-11343400D01*
X6619000Y-11313400D02*
X6589000Y-11343400D01*
X6589000Y-11516600D02*
X6619000Y-11546600D01*
X6619000Y-11516600D02*
X6589000Y-11546600D01*
X6589000Y-12431000D02*
X6619000Y-12461000D01*
X6619000Y-12431000D02*
X6589000Y-12461000D01*
X6589000Y-12634200D02*
X6619000Y-12664200D01*
X6619000Y-12634200D02*
X6589000Y-12664200D01*
X6589000Y-12837400D02*
X6619000Y-12867400D01*
X6619000Y-12837400D02*
X6589000Y-12867400D01*
X6589000Y-13040600D02*
X6619000Y-13070600D01*
X6619000Y-13040600D02*
X6589000Y-13070600D01*
X6614400Y-6182600D02*
X6644400Y-6212600D01*
X6644400Y-6182600D02*
X6614400Y-6212600D01*
X6690600Y-7757400D02*
X6720600Y-7787400D01*
X6720600Y-7757400D02*
X6690600Y-7787400D01*
X6843000Y-10907000D02*
X6873000Y-10937000D01*
X6873000Y-10907000D02*
X6843000Y-10937000D01*
X6843000Y-11110200D02*
X6873000Y-11140200D01*
X6873000Y-11110200D02*
X6843000Y-11140200D01*
X6843000Y-11313400D02*
X6873000Y-11343400D01*
X6873000Y-11313400D02*
X6843000Y-11343400D01*
X6843000Y-11516600D02*
X6873000Y-11546600D01*
X6873000Y-11516600D02*
X6843000Y-11546600D01*
X6843000Y-12431000D02*
X6873000Y-12461000D01*
X6873000Y-12431000D02*
X6843000Y-12461000D01*
X6843000Y-12634200D02*
X6873000Y-12664200D01*
X6873000Y-12634200D02*
X6843000Y-12664200D01*
X6843000Y-12837400D02*
X6873000Y-12867400D01*
X6873000Y-12837400D02*
X6843000Y-12867400D01*
X6843000Y-13040600D02*
X6873000Y-13070600D01*
X6873000Y-13040600D02*
X6843000Y-13070600D01*
X6893800Y-8316200D02*
X6923800Y-8346200D01*
X6923800Y-8316200D02*
X6893800Y-8346200D01*
X7097000Y-7452600D02*
X7127000Y-7482600D01*
X7127000Y-7452600D02*
X7097000Y-7482600D01*
X7097000Y-12431000D02*
X7127000Y-12461000D01*
X7127000Y-12431000D02*
X7097000Y-12461000D01*
X7097000Y-12634200D02*
X7127000Y-12664200D01*
X7127000Y-12634200D02*
X7097000Y-12664200D01*
X7097000Y-12837400D02*
X7127000Y-12867400D01*
X7127000Y-12837400D02*
X7097000Y-12867400D01*
X7097000Y-13040600D02*
X7127000Y-13070600D01*
X7127000Y-13040600D02*
X7097000Y-13070600D01*
X7147800Y-7608500D02*
X7177800Y-7638500D01*
X7177800Y-7608500D02*
X7147800Y-7638500D01*
X7147800Y-7706600D02*
X7177800Y-7736600D01*
X7177800Y-7706600D02*
X7147800Y-7736600D01*
X7147800Y-9433800D02*
X7177800Y-9463800D01*
X7177800Y-9433800D02*
X7147800Y-9463800D01*
X7198600Y-7859000D02*
X7228600Y-7889000D01*
X7228600Y-7859000D02*
X7198600Y-7889000D01*
X7351000Y-7909800D02*
X7381000Y-7939800D01*
X7381000Y-7909800D02*
X7351000Y-7939800D01*
X7351000Y-12431000D02*
X7381000Y-12461000D01*
X7381000Y-12431000D02*
X7351000Y-12461000D01*
X7351000Y-12634200D02*
X7381000Y-12664200D01*
X7381000Y-12634200D02*
X7351000Y-12664200D01*
X7351000Y-12837400D02*
X7381000Y-12867400D01*
X7381000Y-12837400D02*
X7351000Y-12867400D01*
X7351000Y-13040600D02*
X7381000Y-13070600D01*
X7381000Y-13040600D02*
X7351000Y-13070600D01*
X7414500Y-6208000D02*
X7444500Y-6238000D01*
X7444500Y-6208000D02*
X7414500Y-6238000D01*
X7427200Y-7363700D02*
X7457200Y-7393700D01*
X7457200Y-7363700D02*
X7427200Y-7393700D01*
X7503400Y-8011400D02*
X7533400Y-8041400D01*
X7533400Y-8011400D02*
X7503400Y-8041400D01*
X7605000Y-7351000D02*
X7635000Y-7381000D01*
X7635000Y-7351000D02*
X7605000Y-7381000D01*
X7605000Y-12431000D02*
X7635000Y-12461000D01*
X7635000Y-12431000D02*
X7605000Y-12461000D01*
X7605000Y-12634200D02*
X7635000Y-12664200D01*
X7635000Y-12634200D02*
X7605000Y-12664200D01*
X7605000Y-12837400D02*
X7635000Y-12867400D01*
X7635000Y-12837400D02*
X7605000Y-12867400D01*
X7605000Y-13040600D02*
X7635000Y-13070600D01*
X7635000Y-13040600D02*
X7605000Y-13070600D01*
X7643100Y-7922500D02*
X7673100Y-7952500D01*
X7673100Y-7922500D02*
X7643100Y-7952500D01*
X7808200Y-7605000D02*
X7838200Y-7635000D01*
X7838200Y-7605000D02*
X7808200Y-7635000D01*
X7986000Y-9395700D02*
X8016000Y-9425700D01*
X8016000Y-9395700D02*
X7986000Y-9425700D01*
X7986000Y-9598900D02*
X8016000Y-9628900D01*
X8016000Y-9598900D02*
X7986000Y-9628900D01*
X7986000Y-9802100D02*
X8016000Y-9832100D01*
X8016000Y-9802100D02*
X7986000Y-9832100D01*
X8011400Y-7605000D02*
X8041400Y-7635000D01*
X8041400Y-7605000D02*
X8011400Y-7635000D01*
X8062200Y-5522200D02*
X8092200Y-5552200D01*
X8092200Y-5522200D02*
X8062200Y-5552200D01*
X8062200Y-5725400D02*
X8092200Y-5755400D01*
X8092200Y-5725400D02*
X8062200Y-5755400D01*
X8062200Y-5928600D02*
X8092200Y-5958600D01*
X8092200Y-5928600D02*
X8062200Y-5958600D01*
X8062200Y-6131800D02*
X8092200Y-6161800D01*
X8092200Y-6131800D02*
X8062200Y-6161800D01*
X8163800Y-8570200D02*
X8193800Y-8600200D01*
X8193800Y-8570200D02*
X8163800Y-8600200D01*
X8240000Y-9395700D02*
X8270000Y-9425700D01*
X8270000Y-9395700D02*
X8240000Y-9425700D01*
X8240000Y-9598900D02*
X8270000Y-9628900D01*
X8270000Y-9598900D02*
X8240000Y-9628900D01*
X8240000Y-9802100D02*
X8270000Y-9832100D01*
X8270000Y-9802100D02*
X8240000Y-9832100D01*
X8305000Y-11995000D02*
X8335000Y-12025000D01*
X8335000Y-11995000D02*
X8305000Y-12025000D01*
X8316200Y-5522200D02*
X8346200Y-5552200D01*
X8346200Y-5522200D02*
X8316200Y-5552200D01*
X8316200Y-5725400D02*
X8346200Y-5755400D01*
X8346200Y-5725400D02*
X8316200Y-5755400D01*
X8316200Y-5928600D02*
X8346200Y-5958600D01*
X8346200Y-5928600D02*
X8316200Y-5958600D01*
X8316200Y-6131800D02*
X8346200Y-6161800D01*
X8346200Y-6131800D02*
X8316200Y-6161800D01*
X8316200Y-8214600D02*
X8346200Y-8244600D01*
X8346200Y-8214600D02*
X8316200Y-8244600D01*
X8494000Y-9395700D02*
X8524000Y-9425700D01*
X8524000Y-9395700D02*
X8494000Y-9425700D01*
X8494000Y-9598900D02*
X8524000Y-9628900D01*
X8524000Y-9598900D02*
X8494000Y-9628900D01*
X8494000Y-9802100D02*
X8524000Y-9832100D01*
X8524000Y-9802100D02*
X8494000Y-9832100D01*
X8570200Y-5522200D02*
X8600200Y-5552200D01*
X8600200Y-5522200D02*
X8570200Y-5552200D01*
X8570200Y-5725400D02*
X8600200Y-5755400D01*
X8600200Y-5725400D02*
X8570200Y-5755400D01*
X8570200Y-5928600D02*
X8600200Y-5958600D01*
X8600200Y-5928600D02*
X8570200Y-5958600D01*
X8570200Y-6131800D02*
X8600200Y-6161800D01*
X8600200Y-6131800D02*
X8570200Y-6161800D01*
X8748000Y-9395700D02*
X8778000Y-9425700D01*
X8778000Y-9395700D02*
X8748000Y-9425700D01*
X8748000Y-9598900D02*
X8778000Y-9628900D01*
X8778000Y-9598900D02*
X8748000Y-9628900D01*
X8748000Y-9802100D02*
X8778000Y-9832100D01*
X8778000Y-9802100D02*
X8748000Y-9832100D01*
X8824200Y-5522200D02*
X8854200Y-5552200D01*
X8854200Y-5522200D02*
X8824200Y-5552200D01*
X8824200Y-5725400D02*
X8854200Y-5755400D01*
X8854200Y-5725400D02*
X8824200Y-5755400D01*
X8824200Y-5928600D02*
X8854200Y-5958600D01*
X8854200Y-5928600D02*
X8824200Y-5958600D01*
X8824200Y-6131800D02*
X8854200Y-6161800D01*
X8854200Y-6131800D02*
X8824200Y-6161800D01*
X9045000Y-11995000D02*
X9075000Y-12025000D01*
X9075000Y-11995000D02*
X9045000Y-12025000D01*
X9078200Y-5522200D02*
X9108200Y-5552200D01*
X9108200Y-5522200D02*
X9078200Y-5552200D01*
X9078200Y-5725400D02*
X9108200Y-5755400D01*
X9108200Y-5725400D02*
X9078200Y-5755400D01*
X9078200Y-5928600D02*
X9108200Y-5958600D01*
X9108200Y-5928600D02*
X9078200Y-5958600D01*
X9078200Y-6131800D02*
X9108200Y-6161800D01*
X9108200Y-6131800D02*
X9078200Y-6161800D01*
X9129000Y-12583400D02*
X9159000Y-12613400D01*
X9159000Y-12583400D02*
X9129000Y-12613400D01*
X9129000Y-12735800D02*
X9159000Y-12765800D01*
X9159000Y-12735800D02*
X9129000Y-12765800D01*
X9230600Y-8722600D02*
X9260600Y-8752600D01*
X9260600Y-8722600D02*
X9230600Y-8752600D01*
X9281400Y-12583400D02*
X9311400Y-12613400D01*
X9311400Y-12583400D02*
X9281400Y-12613400D01*
X9281400Y-12735800D02*
X9311400Y-12765800D01*
X9311400Y-12735800D02*
X9281400Y-12765800D01*
X9332200Y-5522200D02*
X9362200Y-5552200D01*
X9362200Y-5522200D02*
X9332200Y-5552200D01*
X9332200Y-5725400D02*
X9362200Y-5755400D01*
X9362200Y-5725400D02*
X9332200Y-5755400D01*
X9332200Y-5928600D02*
X9362200Y-5958600D01*
X9362200Y-5928600D02*
X9332200Y-5958600D01*
X9332200Y-6131800D02*
X9362200Y-6161800D01*
X9362200Y-6131800D02*
X9332200Y-6161800D01*
X9383000Y-10805400D02*
X9413000Y-10835400D01*
X9413000Y-10805400D02*
X9383000Y-10835400D01*
X9433800Y-9840200D02*
X9463800Y-9870200D01*
X9463800Y-9840200D02*
X9433800Y-9870200D01*
X9433800Y-12583400D02*
X9463800Y-12613400D01*
X9463800Y-12583400D02*
X9433800Y-12613400D01*
X9433800Y-12735800D02*
X9463800Y-12765800D01*
X9463800Y-12735800D02*
X9433800Y-12765800D01*
X9446500Y-10449800D02*
X9476500Y-10479800D01*
X9476500Y-10449800D02*
X9446500Y-10479800D01*
X9471900Y-10272000D02*
X9501900Y-10302000D01*
X9501900Y-10272000D02*
X9471900Y-10302000D01*
X9586200Y-12583400D02*
X9616200Y-12613400D01*
X9616200Y-12583400D02*
X9586200Y-12613400D01*
X9586200Y-12735800D02*
X9616200Y-12765800D01*
X9616200Y-12735800D02*
X9586200Y-12765800D01*
X9738600Y-12583400D02*
X9768600Y-12613400D01*
X9768600Y-12583400D02*
X9738600Y-12613400D01*
X9738600Y-12735800D02*
X9768600Y-12765800D01*
X9768600Y-12735800D02*
X9738600Y-12765800D01*
X9878300Y-9577000D02*
X9908300Y-9607000D01*
X9908300Y-9577000D02*
X9878300Y-9607000D01*
X9891000Y-12583400D02*
X9921000Y-12613400D01*
X9921000Y-12583400D02*
X9891000Y-12613400D01*
X9891000Y-12735800D02*
X9921000Y-12765800D01*
X9921000Y-12735800D02*
X9891000Y-12765800D01*
X9941800Y-6385800D02*
X9971800Y-6415800D01*
X9971800Y-6385800D02*
X9941800Y-6415800D01*
X9941800Y-6589000D02*
X9971800Y-6619000D01*
X9971800Y-6589000D02*
X9941800Y-6619000D01*
X9941800Y-6792200D02*
X9971800Y-6822200D01*
X9971800Y-6792200D02*
X9941800Y-6822200D01*
X9941800Y-6995400D02*
X9971800Y-7025400D01*
X9971800Y-6995400D02*
X9941800Y-7025400D01*
X9967200Y-9535400D02*
X9997200Y-9565400D01*
X9997200Y-9535400D02*
X9967200Y-9565400D01*
X10043400Y-9357600D02*
X10073400Y-9387600D01*
X10073400Y-9357600D02*
X10043400Y-9387600D01*
X10043400Y-12583400D02*
X10073400Y-12613400D01*
X10073400Y-12583400D02*
X10043400Y-12613400D01*
X10043400Y-12735800D02*
X10073400Y-12765800D01*
X10073400Y-12735800D02*
X10043400Y-12765800D01*
X10060427Y-9543774D02*
X10090427Y-9573774D01*
X10090427Y-9543774D02*
X10060427Y-9573774D01*
X10130152Y-10357086D02*
X10160152Y-10387086D01*
X10160152Y-10357086D02*
X10130152Y-10387086D01*
X10132300Y-10475200D02*
X10162300Y-10505200D01*
X10162300Y-10475200D02*
X10132300Y-10505200D01*
X10183100Y-10564100D02*
X10213100Y-10594100D01*
X10213100Y-10564100D02*
X10183100Y-10594100D01*
X10195800Y-6385800D02*
X10225800Y-6415800D01*
X10225800Y-6385800D02*
X10195800Y-6415800D01*
X10195800Y-6589000D02*
X10225800Y-6619000D01*
X10225800Y-6589000D02*
X10195800Y-6619000D01*
X10195800Y-6792200D02*
X10225800Y-6822200D01*
X10225800Y-6792200D02*
X10195800Y-6822200D01*
X10195800Y-6995400D02*
X10225800Y-7025400D01*
X10225800Y-6995400D02*
X10195800Y-7025400D01*
X10195800Y-12583400D02*
X10225800Y-12613400D01*
X10225800Y-12583400D02*
X10195800Y-12613400D01*
X10195800Y-12735800D02*
X10225800Y-12765800D01*
X10225800Y-12735800D02*
X10195800Y-12765800D01*
X10208500Y-10640300D02*
X10238500Y-10670300D01*
X10238500Y-10640300D02*
X10208500Y-10670300D01*
X10216465Y-10743551D02*
X10246465Y-10773551D01*
X10246465Y-10743551D02*
X10216465Y-10773551D01*
X10348200Y-12583400D02*
X10378200Y-12613400D01*
X10378200Y-12583400D02*
X10348200Y-12613400D01*
X10348200Y-12735800D02*
X10378200Y-12765800D01*
X10378200Y-12735800D02*
X10348200Y-12765800D01*
X10437100Y-8557500D02*
X10467100Y-8587500D01*
X10467100Y-8557500D02*
X10437100Y-8587500D01*
X10449800Y-6385800D02*
X10479800Y-6415800D01*
X10479800Y-6385800D02*
X10449800Y-6415800D01*
X10449800Y-6589000D02*
X10479800Y-6619000D01*
X10479800Y-6589000D02*
X10449800Y-6619000D01*
X10449800Y-6792200D02*
X10479800Y-6822200D01*
X10479800Y-6792200D02*
X10449800Y-6822200D01*
X10449800Y-6995400D02*
X10479800Y-7025400D01*
X10479800Y-6995400D02*
X10449800Y-7025400D01*
X10475200Y-9662400D02*
X10505200Y-9692400D01*
X10505200Y-9662400D02*
X10475200Y-9692400D01*
X10500600Y-12583400D02*
X10530600Y-12613400D01*
X10530600Y-12583400D02*
X10500600Y-12613400D01*
X10500600Y-12735800D02*
X10530600Y-12765800D01*
X10530600Y-12735800D02*
X10500600Y-12765800D01*
X10614900Y-9522700D02*
X10644900Y-9552700D01*
X10644900Y-9522700D02*
X10614900Y-9552700D01*
X10653000Y-12583400D02*
X10683000Y-12613400D01*
X10683000Y-12583400D02*
X10653000Y-12613400D01*
X10653000Y-12735800D02*
X10683000Y-12765800D01*
X10683000Y-12735800D02*
X10653000Y-12765800D01*
X10662095Y-9954058D02*
X10692095Y-9984058D01*
X10692095Y-9954058D02*
X10662095Y-9984058D01*
X10665700Y-9865600D02*
X10695700Y-9895600D01*
X10695700Y-9865600D02*
X10665700Y-9895600D01*
X10716500Y-10013500D02*
X10746500Y-10043500D01*
X10746500Y-10013500D02*
X10716500Y-10043500D01*
X10805400Y-12583400D02*
X10835400Y-12613400D01*
X10835400Y-12583400D02*
X10805400Y-12613400D01*
X10805400Y-12735800D02*
X10835400Y-12765800D01*
X10835400Y-12735800D02*
X10805400Y-12765800D01*
X10856200Y-10551400D02*
X10886200Y-10581400D01*
X10886200Y-10551400D02*
X10856200Y-10581400D01*
X10907000Y-9738600D02*
X10937000Y-9768600D01*
X10937000Y-9738600D02*
X10907000Y-9768600D01*
X11148300Y-8519400D02*
X11178300Y-8549400D01*
X11178300Y-8519400D02*
X11148300Y-8549400D01*
X11262600Y-11211800D02*
X11292600Y-11241800D01*
X11292600Y-11211800D02*
X11262600Y-11241800D01*
X11465800Y-11211800D02*
X11495800Y-11241800D01*
X11495800Y-11211800D02*
X11465800Y-11241800D01*
X11465800Y-11567400D02*
X11495800Y-11597400D01*
X11495800Y-11567400D02*
X11465800Y-11597400D01*
X11567400Y-10500600D02*
X11597400Y-10530600D01*
X11597400Y-10500600D02*
X11567400Y-10530600D01*
X11618200Y-9738600D02*
X11648200Y-9768600D01*
X11648200Y-9738600D02*
X11618200Y-9768600D01*
X11618200Y-9840200D02*
X11648200Y-9870200D01*
X11648200Y-9840200D02*
X11618200Y-9870200D01*
X11618200Y-9941800D02*
X11648200Y-9971800D01*
X11648200Y-9941800D02*
X11618200Y-9971800D01*
X11618200Y-10043400D02*
X11648200Y-10073400D01*
X11648200Y-10043400D02*
X11618200Y-10073400D01*
X11618200Y-10145000D02*
X11648200Y-10175000D01*
X11648200Y-10145000D02*
X11618200Y-10175000D01*
X11719800Y-9738600D02*
X11749800Y-9768600D01*
X11749800Y-9738600D02*
X11719800Y-9768600D01*
X11719800Y-9840200D02*
X11749800Y-9870200D01*
X11749800Y-9840200D02*
X11719800Y-9870200D01*
X11719800Y-9941800D02*
X11749800Y-9971800D01*
X11749800Y-9941800D02*
X11719800Y-9971800D01*
X11719800Y-10043400D02*
X11749800Y-10073400D01*
X11749800Y-10043400D02*
X11719800Y-10073400D01*
X12011900Y-7249400D02*
X12041900Y-7279400D01*
X12041900Y-7249400D02*
X12011900Y-7279400D01*
X12126200Y-10805400D02*
X12156200Y-10835400D01*
X12156200Y-10805400D02*
X12126200Y-10835400D01*
X12176200Y-12076200D02*
X12206200Y-12106200D01*
X12206200Y-12076200D02*
X12176200Y-12106200D01*
X12176200Y-12228600D02*
X12206200Y-12258600D01*
X12206200Y-12228600D02*
X12176200Y-12258600D01*
X12176200Y-12381000D02*
X12206200Y-12411000D01*
X12206200Y-12381000D02*
X12176200Y-12411000D01*
X12176200Y-12533400D02*
X12206200Y-12563400D01*
X12206200Y-12533400D02*
X12176200Y-12563400D01*
X12177000Y-10500600D02*
X12207000Y-10530600D01*
X12207000Y-10500600D02*
X12177000Y-10530600D01*
X12183000Y-11470200D02*
X12213000Y-11500200D01*
X12213000Y-11470200D02*
X12183000Y-11500200D01*
X12183000Y-11622600D02*
X12213000Y-11652600D01*
X12213000Y-11622600D02*
X12183000Y-11652600D01*
X12183000Y-11775000D02*
X12213000Y-11805000D01*
X12213000Y-11775000D02*
X12183000Y-11805000D01*
X12183000Y-11927400D02*
X12213000Y-11957400D01*
X12213000Y-11927400D02*
X12183000Y-11957400D01*
X12253200Y-8532100D02*
X12283200Y-8562100D01*
X12283200Y-8532100D02*
X12253200Y-8562100D01*
X12328600Y-12076200D02*
X12358600Y-12106200D01*
X12358600Y-12076200D02*
X12328600Y-12106200D01*
X12328600Y-12228600D02*
X12358600Y-12258600D01*
X12358600Y-12228600D02*
X12328600Y-12258600D01*
X12328600Y-12381000D02*
X12358600Y-12411000D01*
X12358600Y-12381000D02*
X12328600Y-12411000D01*
X12328600Y-12533400D02*
X12358600Y-12563400D01*
X12358600Y-12533400D02*
X12328600Y-12563400D01*
X12335400Y-11470200D02*
X12365400Y-11500200D01*
X12365400Y-11470200D02*
X12335400Y-11500200D01*
X12335400Y-11622600D02*
X12365400Y-11652600D01*
X12365400Y-11622600D02*
X12335400Y-11652600D01*
X12335400Y-11775000D02*
X12365400Y-11805000D01*
X12365400Y-11775000D02*
X12335400Y-11805000D01*
X12335400Y-11927400D02*
X12365400Y-11957400D01*
X12365400Y-11927400D02*
X12335400Y-11957400D01*
X12481000Y-12076200D02*
X12511000Y-12106200D01*
X12511000Y-12076200D02*
X12481000Y-12106200D01*
X12481000Y-12228600D02*
X12511000Y-12258600D01*
X12511000Y-12228600D02*
X12481000Y-12258600D01*
X12481000Y-12381000D02*
X12511000Y-12411000D01*
X12511000Y-12381000D02*
X12481000Y-12411000D01*
X12481000Y-12533400D02*
X12511000Y-12563400D01*
X12511000Y-12533400D02*
X12481000Y-12563400D01*
X12487800Y-11470200D02*
X12517800Y-11500200D01*
X12517800Y-11470200D02*
X12487800Y-11500200D01*
X12487800Y-11622600D02*
X12517800Y-11652600D01*
X12517800Y-11622600D02*
X12487800Y-11652600D01*
X12487800Y-11775000D02*
X12517800Y-11805000D01*
X12517800Y-11775000D02*
X12487800Y-11805000D01*
X12487800Y-11927400D02*
X12517800Y-11957400D01*
X12517800Y-11927400D02*
X12487800Y-11957400D01*
X12532600Y-10348200D02*
X12562600Y-10378200D01*
X12562600Y-10348200D02*
X12532600Y-10378200D01*
X12583400Y-9332200D02*
X12613400Y-9362200D01*
X12613400Y-9332200D02*
X12583400Y-9362200D01*
X12633400Y-12076200D02*
X12663400Y-12106200D01*
X12663400Y-12076200D02*
X12633400Y-12106200D01*
X12633400Y-12228600D02*
X12663400Y-12258600D01*
X12663400Y-12228600D02*
X12633400Y-12258600D01*
X12633400Y-12381000D02*
X12663400Y-12411000D01*
X12663400Y-12381000D02*
X12633400Y-12411000D01*
X12633400Y-12533400D02*
X12663400Y-12563400D01*
X12663400Y-12533400D02*
X12633400Y-12563400D01*
X12640200Y-11470200D02*
X12670200Y-11500200D01*
X12670200Y-11470200D02*
X12640200Y-11500200D01*
X12640200Y-11622600D02*
X12670200Y-11652600D01*
X12670200Y-11622600D02*
X12640200Y-11652600D01*
X12640200Y-11775000D02*
X12670200Y-11805000D01*
X12670200Y-11775000D02*
X12640200Y-11805000D01*
X12640200Y-11927400D02*
X12670200Y-11957400D01*
X12670200Y-11927400D02*
X12640200Y-11957400D01*
X12785800Y-12076200D02*
X12815800Y-12106200D01*
X12815800Y-12076200D02*
X12785800Y-12106200D01*
X12785800Y-12228600D02*
X12815800Y-12258600D01*
X12815800Y-12228600D02*
X12785800Y-12258600D01*
X12785800Y-12381000D02*
X12815800Y-12411000D01*
X12815800Y-12381000D02*
X12785800Y-12411000D01*
X12785800Y-12533400D02*
X12815800Y-12563400D01*
X12815800Y-12533400D02*
X12785800Y-12563400D01*
X12792600Y-11470200D02*
X12822600Y-11500200D01*
X12822600Y-11470200D02*
X12792600Y-11500200D01*
X12792600Y-11622600D02*
X12822600Y-11652600D01*
X12822600Y-11622600D02*
X12792600Y-11652600D01*
X12792600Y-11775000D02*
X12822600Y-11805000D01*
X12822600Y-11775000D02*
X12792600Y-11805000D01*
X12792600Y-11927400D02*
X12822600Y-11957400D01*
X12822600Y-11927400D02*
X12792600Y-11957400D01*
X12938200Y-12076200D02*
X12968200Y-12106200D01*
X12968200Y-12076200D02*
X12938200Y-12106200D01*
X12938200Y-12228600D02*
X12968200Y-12258600D01*
X12968200Y-12228600D02*
X12938200Y-12258600D01*
X12938200Y-12381000D02*
X12968200Y-12411000D01*
X12968200Y-12381000D02*
X12938200Y-12411000D01*
X12938200Y-12533400D02*
X12968200Y-12563400D01*
X12968200Y-12533400D02*
X12938200Y-12563400D01*
X12945000Y-11470200D02*
X12975000Y-11500200D01*
X12975000Y-11470200D02*
X12945000Y-11500200D01*
X12945000Y-11622600D02*
X12975000Y-11652600D01*
X12975000Y-11622600D02*
X12945000Y-11652600D01*
X12945000Y-11775000D02*
X12975000Y-11805000D01*
X12975000Y-11775000D02*
X12945000Y-11805000D01*
X12945000Y-11927400D02*
X12975000Y-11957400D01*
X12975000Y-11927400D02*
X12945000Y-11957400D01*
X12989800Y-9789400D02*
X13019800Y-9819400D01*
X13019800Y-9789400D02*
X12989800Y-9819400D01*
X13040600Y-9332200D02*
X13070600Y-9362200D01*
X13070600Y-9332200D02*
X13040600Y-9362200D01*
X13590200Y-11980200D02*
X13620200Y-12010200D01*
X13620200Y-11980200D02*
X13590200Y-12010200D01*
X13590200Y-12132600D02*
X13620200Y-12162600D01*
X13620200Y-12132600D02*
X13590200Y-12162600D01*
X13590200Y-12285000D02*
X13620200Y-12315000D01*
X13620200Y-12285000D02*
X13590200Y-12315000D01*
X13590200Y-12437400D02*
X13620200Y-12467400D01*
X13620200Y-12437400D02*
X13590200Y-12467400D01*
X13599400Y-11821400D02*
X13629400Y-11851400D01*
X13629400Y-11821400D02*
X13599400Y-11851400D01*
X13599400Y-12888200D02*
X13629400Y-12918200D01*
X13629400Y-12888200D02*
X13599400Y-12918200D01*
X13600200Y-12570200D02*
X13630200Y-12600200D01*
X13630200Y-12570200D02*
X13600200Y-12600200D01*
X13600200Y-12722600D02*
X13630200Y-12752600D01*
X13630200Y-12722600D02*
X13600200Y-12752600D01*
X13742600Y-11980200D02*
X13772600Y-12010200D01*
X13772600Y-11980200D02*
X13742600Y-12010200D01*
X13742600Y-12132600D02*
X13772600Y-12162600D01*
X13772600Y-12132600D02*
X13742600Y-12162600D01*
X13742600Y-12285000D02*
X13772600Y-12315000D01*
X13772600Y-12285000D02*
X13742600Y-12315000D01*
X13742600Y-12437400D02*
X13772600Y-12467400D01*
X13772600Y-12437400D02*
X13742600Y-12467400D01*
X13751800Y-11821400D02*
X13781800Y-11851400D01*
X13781800Y-11821400D02*
X13751800Y-11851400D01*
X13751800Y-12888200D02*
X13781800Y-12918200D01*
X13781800Y-12888200D02*
X13751800Y-12918200D01*
X13752600Y-12570200D02*
X13782600Y-12600200D01*
X13782600Y-12570200D02*
X13752600Y-12600200D01*
X13752600Y-12722600D02*
X13782600Y-12752600D01*
X13782600Y-12722600D02*
X13752600Y-12752600D01*
X13895000Y-11980200D02*
X13925000Y-12010200D01*
X13925000Y-11980200D02*
X13895000Y-12010200D01*
X13895000Y-12132600D02*
X13925000Y-12162600D01*
X13925000Y-12132600D02*
X13895000Y-12162600D01*
X13895000Y-12285000D02*
X13925000Y-12315000D01*
X13925000Y-12285000D02*
X13895000Y-12315000D01*
X13895000Y-12437400D02*
X13925000Y-12467400D01*
X13925000Y-12437400D02*
X13895000Y-12467400D01*
X13904200Y-11821400D02*
X13934200Y-11851400D01*
X13934200Y-11821400D02*
X13904200Y-11851400D01*
X13904200Y-12888200D02*
X13934200Y-12918200D01*
X13934200Y-12888200D02*
X13904200Y-12918200D01*
X13905000Y-12570200D02*
X13935000Y-12600200D01*
X13935000Y-12570200D02*
X13905000Y-12600200D01*
X13905000Y-12722600D02*
X13935000Y-12752600D01*
X13935000Y-12722600D02*
X13905000Y-12752600D01*
X14047400Y-11980200D02*
X14077400Y-12010200D01*
X14077400Y-11980200D02*
X14047400Y-12010200D01*
X14047400Y-12132600D02*
X14077400Y-12162600D01*
X14077400Y-12132600D02*
X14047400Y-12162600D01*
X14047400Y-12285000D02*
X14077400Y-12315000D01*
X14077400Y-12285000D02*
X14047400Y-12315000D01*
X14047400Y-12437400D02*
X14077400Y-12467400D01*
X14077400Y-12437400D02*
X14047400Y-12467400D01*
X14056600Y-11821400D02*
X14086600Y-11851400D01*
X14086600Y-11821400D02*
X14056600Y-11851400D01*
X14056600Y-12888200D02*
X14086600Y-12918200D01*
X14086600Y-12888200D02*
X14056600Y-12918200D01*
X14057400Y-12570200D02*
X14087400Y-12600200D01*
X14087400Y-12570200D02*
X14057400Y-12600200D01*
X14057400Y-12722600D02*
X14087400Y-12752600D01*
X14087400Y-12722600D02*
X14057400Y-12752600D01*
X14199800Y-11980200D02*
X14229800Y-12010200D01*
X14229800Y-11980200D02*
X14199800Y-12010200D01*
X14199800Y-12132600D02*
X14229800Y-12162600D01*
X14229800Y-12132600D02*
X14199800Y-12162600D01*
X14199800Y-12285000D02*
X14229800Y-12315000D01*
X14229800Y-12285000D02*
X14199800Y-12315000D01*
X14199800Y-12437400D02*
X14229800Y-12467400D01*
X14229800Y-12437400D02*
X14199800Y-12467400D01*
X14209000Y-11821400D02*
X14239000Y-11851400D01*
X14239000Y-11821400D02*
X14209000Y-11851400D01*
X14209000Y-12888200D02*
X14239000Y-12918200D01*
X14239000Y-12888200D02*
X14209000Y-12918200D01*
X14209800Y-12570200D02*
X14239800Y-12600200D01*
X14239800Y-12570200D02*
X14209800Y-12600200D01*
X14209800Y-12722600D02*
X14239800Y-12752600D01*
X14239800Y-12722600D02*
X14209800Y-12752600D01*
X14352200Y-11980200D02*
X14382200Y-12010200D01*
X14382200Y-11980200D02*
X14352200Y-12010200D01*
X14352200Y-12132600D02*
X14382200Y-12162600D01*
X14382200Y-12132600D02*
X14352200Y-12162600D01*
X14352200Y-12285000D02*
X14382200Y-12315000D01*
X14382200Y-12285000D02*
X14352200Y-12315000D01*
X14352200Y-12437400D02*
X14382200Y-12467400D01*
X14382200Y-12437400D02*
X14352200Y-12467400D01*
X14361400Y-11821400D02*
X14391400Y-11851400D01*
X14391400Y-11821400D02*
X14361400Y-11851400D01*
X14361400Y-12888200D02*
X14391400Y-12918200D01*
X14391400Y-12888200D02*
X14361400Y-12918200D01*
X14362200Y-12570200D02*
X14392200Y-12600200D01*
X14392200Y-12570200D02*
X14362200Y-12600200D01*
X14362200Y-12722600D02*
X14392200Y-12752600D01*
X14392200Y-12722600D02*
X14362200Y-12752600D01*
X3028200Y-5834000D02*
G75*
G02*
X2978200Y-5834000I-25000J0D01*
G01*
X2978200Y-5834000D02*
G75*
G02*
X3028200Y-5834000I25000J0D01*
G01*
X3028200Y-13381100D02*
G75*
G02*
X2978200Y-13381100I-25000J0D01*
G01*
X2978200Y-13381100D02*
G75*
G02*
X3028200Y-13381100I25000J0D01*
G01*
X3098494Y-5664294D02*
G75*
G02*
X3048494Y-5664294I-25000J0D01*
G01*
X3048494Y-5664294D02*
G75*
G02*
X3098494Y-5664294I25000J0D01*
G01*
X3098494Y-6003706D02*
G75*
G02*
X3048494Y-6003706I-25000J0D01*
G01*
X3048494Y-6003706D02*
G75*
G02*
X3098494Y-6003706I25000J0D01*
G01*
X3098494Y-13211394D02*
G75*
G02*
X3048494Y-13211394I-25000J0D01*
G01*
X3048494Y-13211394D02*
G75*
G02*
X3098494Y-13211394I25000J0D01*
G01*
X3098494Y-13550806D02*
G75*
G02*
X3048494Y-13550806I-25000J0D01*
G01*
X3048494Y-13550806D02*
G75*
G02*
X3098494Y-13550806I25000J0D01*
G01*
X3268200Y-5594000D02*
G75*
G02*
X3218200Y-5594000I-25000J0D01*
G01*
X3218200Y-5594000D02*
G75*
G02*
X3268200Y-5594000I25000J0D01*
G01*
X3268200Y-6074000D02*
G75*
G02*
X3218200Y-6074000I-25000J0D01*
G01*
X3218200Y-6074000D02*
G75*
G02*
X3268200Y-6074000I25000J0D01*
G01*
X3268200Y-13141100D02*
G75*
G02*
X3218200Y-13141100I-25000J0D01*
G01*
X3218200Y-13141100D02*
G75*
G02*
X3268200Y-13141100I25000J0D01*
G01*
X3268200Y-13621100D02*
G75*
G02*
X3218200Y-13621100I-25000J0D01*
G01*
X3218200Y-13621100D02*
G75*
G02*
X3268200Y-13621100I25000J0D01*
G01*
X3437906Y-5664294D02*
G75*
G02*
X3387906Y-5664294I-25000J0D01*
G01*
X3387906Y-5664294D02*
G75*
G02*
X3437906Y-5664294I25000J0D01*
G01*
X3437906Y-6003706D02*
G75*
G02*
X3387906Y-6003706I-25000J0D01*
G01*
X3387906Y-6003706D02*
G75*
G02*
X3437906Y-6003706I25000J0D01*
G01*
X3437906Y-13211394D02*
G75*
G02*
X3387906Y-13211394I-25000J0D01*
G01*
X3387906Y-13211394D02*
G75*
G02*
X3437906Y-13211394I25000J0D01*
G01*
X3437906Y-13550806D02*
G75*
G02*
X3387906Y-13550806I-25000J0D01*
G01*
X3387906Y-13550806D02*
G75*
G02*
X3437906Y-13550806I25000J0D01*
G01*
X3508200Y-5834000D02*
G75*
G02*
X3458200Y-5834000I-25000J0D01*
G01*
X3458200Y-5834000D02*
G75*
G02*
X3508200Y-5834000I25000J0D01*
G01*
X3508200Y-13381100D02*
G75*
G02*
X3458200Y-13381100I-25000J0D01*
G01*
X3458200Y-13381100D02*
G75*
G02*
X3508200Y-13381100I25000J0D01*
G01*
X15074930Y-13381100D02*
G75*
G02*
X15024930Y-13381100I-25000J0D01*
G01*
X15024930Y-13381100D02*
G75*
G02*
X15074930Y-13381100I25000J0D01*
G01*
X15145225Y-13211394D02*
G75*
G02*
X15095225Y-13211394I-25000J0D01*
G01*
X15095225Y-13211394D02*
G75*
G02*
X15145225Y-13211394I25000J0D01*
G01*
X15145225Y-13550806D02*
G75*
G02*
X15095225Y-13550806I-25000J0D01*
G01*
X15095225Y-13550806D02*
G75*
G02*
X15145225Y-13550806I25000J0D01*
G01*
X15223500Y-5834000D02*
G75*
G02*
X15173500Y-5834000I-25000J0D01*
G01*
X15173500Y-5834000D02*
G75*
G02*
X15223500Y-5834000I25000J0D01*
G01*
X15293794Y-5664294D02*
G75*
G02*
X15243794Y-5664294I-25000J0D01*
G01*
X15243794Y-5664294D02*
G75*
G02*
X15293794Y-5664294I25000J0D01*
G01*
X15293794Y-6003706D02*
G75*
G02*
X15243794Y-6003706I-25000J0D01*
G01*
X15243794Y-6003706D02*
G75*
G02*
X15293794Y-6003706I25000J0D01*
G01*
X15314930Y-13141100D02*
G75*
G02*
X15264930Y-13141100I-25000J0D01*
G01*
X15264930Y-13141100D02*
G75*
G02*
X15314930Y-13141100I25000J0D01*
G01*
X15314930Y-13621100D02*
G75*
G02*
X15264930Y-13621100I-25000J0D01*
G01*
X15264930Y-13621100D02*
G75*
G02*
X15314930Y-13621100I25000J0D01*
G01*
X15463500Y-5594000D02*
G75*
G02*
X15413500Y-5594000I-25000J0D01*
G01*
X15413500Y-5594000D02*
G75*
G02*
X15463500Y-5594000I25000J0D01*
G01*
X15463500Y-6074000D02*
G75*
G02*
X15413500Y-6074000I-25000J0D01*
G01*
X15413500Y-6074000D02*
G75*
G02*
X15463500Y-6074000I25000J0D01*
G01*
X15484636Y-13211394D02*
G75*
G02*
X15434636Y-13211394I-25000J0D01*
G01*
X15434636Y-13211394D02*
G75*
G02*
X15484636Y-13211394I25000J0D01*
G01*
X15484636Y-13550806D02*
G75*
G02*
X15434636Y-13550806I-25000J0D01*
G01*
X15434636Y-13550806D02*
G75*
G02*
X15484636Y-13550806I25000J0D01*
G01*
X15554930Y-13381100D02*
G75*
G02*
X15504930Y-13381100I-25000J0D01*
G01*
X15504930Y-13381100D02*
G75*
G02*
X15554930Y-13381100I25000J0D01*
G01*
X15633206Y-5664294D02*
G75*
G02*
X15583206Y-5664294I-25000J0D01*
G01*
X15583206Y-5664294D02*
G75*
G02*
X15633206Y-5664294I25000J0D01*
G01*
X15633206Y-6003706D02*
G75*
G02*
X15583206Y-6003706I-25000J0D01*
G01*
X15583206Y-6003706D02*
G75*
G02*
X15633206Y-6003706I25000J0D01*
G01*
X15703500Y-5834000D02*
G75*
G02*
X15653500Y-5834000I-25000J0D01*
G01*
X15653500Y-5834000D02*
G75*
G02*
X15703500Y-5834000I25000J0D01*
G01*
X13440600Y-10885000D02*
X13440600Y-10975000D01*
X13395600Y-10930000D02*
X13485600Y-10930000D01*
X13440600Y-11135000D02*
X13440600Y-11225000D01*
X13395600Y-11180000D02*
X13485600Y-11180000D01*
X13440600Y-11385000D02*
X13440600Y-11475000D01*
X13395600Y-11430000D02*
X13485600Y-11430000D01*
X14325600Y-10885000D02*
X14325600Y-10975000D01*
X14280600Y-10930000D02*
X14370600Y-10930000D01*
X14325600Y-11135000D02*
X14325600Y-11225000D01*
X14280600Y-11180000D02*
X14370600Y-11180000D01*
X14325600Y-11385000D02*
X14325600Y-11475000D01*
X14280600Y-11430000D02*
X14370600Y-11430000D01*
X3807256Y-8303556D02*
X3807256Y-8232844D01*
X3736544Y-8232844D01*
X3736544Y-8303556D01*
X3807256Y-8303556D01*
X3807256Y-8557556D02*
X3807256Y-8486844D01*
X3736544Y-8486844D01*
X3736544Y-8557556D01*
X3807256Y-8557556D01*
X9433356Y-11770156D02*
X9433356Y-11699444D01*
X9362644Y-11699444D01*
X9362644Y-11770156D01*
X9433356Y-11770156D01*
X9433356Y-12024156D02*
X9433356Y-11953444D01*
X9362644Y-11953444D01*
X9362644Y-12024156D01*
X9433356Y-12024156D01*
X9890556Y-11770156D02*
X9890556Y-11699444D01*
X9819844Y-11699444D01*
X9819844Y-11770156D01*
X9890556Y-11770156D01*
X9890556Y-12024156D02*
X9890556Y-11953444D01*
X9819844Y-11953444D01*
X9819844Y-12024156D01*
X9890556Y-12024156D01*
X10347756Y-11770156D02*
X10347756Y-11699444D01*
X10277044Y-11699444D01*
X10277044Y-11770156D01*
X10347756Y-11770156D01*
X10347756Y-12024156D02*
X10347756Y-11953444D01*
X10277044Y-11953444D01*
X10277044Y-12024156D01*
X10347756Y-12024156D01*
X10804956Y-11770156D02*
X10804956Y-11699444D01*
X10734244Y-11699444D01*
X10734244Y-11770156D01*
X10804956Y-11770156D01*
X10804956Y-12024156D02*
X10804956Y-11953444D01*
X10734244Y-11953444D01*
X10734244Y-12024156D01*
X10804956Y-12024156D01*
D13*
X4247060Y-11995530D02*
X4300400Y-11942190D01*
X4247060Y-11888850D01*
X4193720Y-11942190D01*
X4247060Y-11995530D01*
X4247060Y-12249530D02*
X4300400Y-12196190D01*
X4247060Y-12142850D01*
X4193720Y-12196190D01*
X4247060Y-12249530D01*
X4247060Y-12503530D02*
X4300400Y-12450190D01*
X4247060Y-12396850D01*
X4193720Y-12450190D01*
X4247060Y-12503530D01*
X4247060Y-12757530D02*
X4300400Y-12704190D01*
X4247060Y-12650850D01*
X4193720Y-12704190D01*
X4247060Y-12757530D01*
D14*
X3247000Y-9698600D02*
X3357000Y-9808600D01*
X3357000Y-9698600D02*
X3247000Y-9808600D01*
X3357000Y-9753600D02*
G75*
G02*
X3247000Y-9753600I-55000J0D01*
G01*
X3247000Y-9753600D02*
G75*
G02*
X3357000Y-9753600I55000J0D01*
G01*
X3247000Y-9952600D02*
X3357000Y-10062600D01*
X3357000Y-9952600D02*
X3247000Y-10062600D01*
X3357000Y-10007600D02*
G75*
G02*
X3247000Y-10007600I-55000J0D01*
G01*
X3247000Y-10007600D02*
G75*
G02*
X3357000Y-10007600I55000J0D01*
G01*
X3247000Y-10206600D02*
X3357000Y-10316600D01*
X3357000Y-10206600D02*
X3247000Y-10316600D01*
X3357000Y-10261600D02*
G75*
G02*
X3247000Y-10261600I-55000J0D01*
G01*
X3247000Y-10261600D02*
G75*
G02*
X3357000Y-10261600I55000J0D01*
G01*
X3501000Y-9698600D02*
X3611000Y-9808600D01*
X3611000Y-9698600D02*
X3501000Y-9808600D01*
X3611000Y-9753600D02*
G75*
G02*
X3501000Y-9753600I-55000J0D01*
G01*
X3501000Y-9753600D02*
G75*
G02*
X3611000Y-9753600I55000J0D01*
G01*
X3501000Y-9952600D02*
X3611000Y-10062600D01*
X3611000Y-9952600D02*
X3501000Y-10062600D01*
X3611000Y-10007600D02*
G75*
G02*
X3501000Y-10007600I-55000J0D01*
G01*
X3501000Y-10007600D02*
G75*
G02*
X3611000Y-10007600I55000J0D01*
G01*
X3501000Y-10206600D02*
X3611000Y-10316600D01*
X3611000Y-10206600D02*
X3501000Y-10316600D01*
X3611000Y-10261600D02*
G75*
G02*
X3501000Y-10261600I-55000J0D01*
G01*
X3501000Y-10261600D02*
G75*
G02*
X3611000Y-10261600I55000J0D01*
G01*
D15*
X12576800Y-6110400D02*
X12716800Y-6250400D01*
X12716800Y-6110400D02*
X12576800Y-6250400D01*
X12646800Y-6110400D02*
X12646800Y-6250400D01*
X12576800Y-6180400D02*
X12716800Y-6180400D01*
X12576800Y-6980400D02*
X12716800Y-7120400D01*
X12716800Y-6980400D02*
X12576800Y-7120400D01*
X12646800Y-6980400D02*
X12646800Y-7120400D01*
X12576800Y-7050400D02*
X12716800Y-7050400D01*
X13084800Y-6110400D02*
X13224800Y-6250400D01*
X13224800Y-6110400D02*
X13084800Y-6250400D01*
X13154800Y-6110400D02*
X13154800Y-6250400D01*
X13084800Y-6180400D02*
X13224800Y-6180400D01*
X13084800Y-6980400D02*
X13224800Y-7120400D01*
X13224800Y-6980400D02*
X13084800Y-7120400D01*
X13154800Y-6980400D02*
X13154800Y-7120400D01*
X13084800Y-7050400D02*
X13224800Y-7050400D01*
X14137600Y-7796400D02*
X14277600Y-7936400D01*
X14277600Y-7796400D02*
X14137600Y-7936400D01*
X14207600Y-7796400D02*
X14207600Y-7936400D01*
X14137600Y-7866400D02*
X14277600Y-7866400D01*
X14137600Y-8304400D02*
X14277600Y-8444400D01*
X14277600Y-8304400D02*
X14137600Y-8444400D01*
X14207600Y-8304400D02*
X14207600Y-8444400D01*
X14137600Y-8374400D02*
X14277600Y-8374400D01*
X14147600Y-9226400D02*
X14287600Y-9366400D01*
X14287600Y-9226400D02*
X14147600Y-9366400D01*
X14217600Y-9226400D02*
X14217600Y-9366400D01*
X14147600Y-9296400D02*
X14287600Y-9296400D01*
X14147600Y-9734400D02*
X14287600Y-9874400D01*
X14287600Y-9734400D02*
X14147600Y-9874400D01*
X14217600Y-9734400D02*
X14217600Y-9874400D01*
X14147600Y-9804400D02*
X14287600Y-9804400D01*
X15007600Y-7796400D02*
X15147600Y-7936400D01*
X15147600Y-7796400D02*
X15007600Y-7936400D01*
X15077600Y-7796400D02*
X15077600Y-7936400D01*
X15007600Y-7866400D02*
X15147600Y-7866400D01*
X15007600Y-8304400D02*
X15147600Y-8444400D01*
X15147600Y-8304400D02*
X15007600Y-8444400D01*
X15077600Y-8304400D02*
X15077600Y-8444400D01*
X15007600Y-8374400D02*
X15147600Y-8374400D01*
X15017600Y-9226400D02*
X15157600Y-9366400D01*
X15157600Y-9226400D02*
X15017600Y-9366400D01*
X15087600Y-9226400D02*
X15087600Y-9366400D01*
X15017600Y-9296400D02*
X15157600Y-9296400D01*
X15017600Y-9734400D02*
X15157600Y-9874400D01*
X15157600Y-9734400D02*
X15017600Y-9874400D01*
X15087600Y-9734400D02*
X15087600Y-9874400D01*
X15017600Y-9804400D02*
X15157600Y-9804400D01*
D16*
X3083200Y-5674000D02*
X3403200Y-5994000D01*
X3403200Y-5674000D02*
X3083200Y-5994000D01*
X3356338Y-5947138D02*
X3356338Y-5720862D01*
X3130062Y-5720862D01*
X3130062Y-5947138D01*
X3356338Y-5947138D01*
X3083200Y-13221100D02*
X3403200Y-13541100D01*
X3403200Y-13221100D02*
X3083200Y-13541100D01*
X3356338Y-13494238D02*
X3356338Y-13267962D01*
X3130062Y-13267962D01*
X3130062Y-13494238D01*
X3356338Y-13494238D01*
X3332500Y-6944550D02*
X3652500Y-7264550D01*
X3652500Y-6944550D02*
X3332500Y-7264550D01*
X3605638Y-7217688D02*
X3605638Y-6991412D01*
X3379362Y-6991412D01*
X3379362Y-7217688D01*
X3605638Y-7217688D01*
X3612500Y-7424550D02*
X3932500Y-7744550D01*
X3932500Y-7424550D02*
X3612500Y-7744550D01*
X3885638Y-7697688D02*
X3885638Y-7471412D01*
X3659362Y-7471412D01*
X3659362Y-7697688D01*
X3885638Y-7697688D01*
X3912500Y-6944550D02*
X4232500Y-7264550D01*
X4232500Y-6944550D02*
X3912500Y-7264550D01*
X4185638Y-7217688D02*
X4185638Y-6991412D01*
X3959362Y-6991412D01*
X3959362Y-7217688D01*
X4185638Y-7217688D01*
X15129930Y-13221100D02*
X15449930Y-13541100D01*
X15449930Y-13221100D02*
X15129930Y-13541100D01*
X15403069Y-13494238D02*
X15403069Y-13267962D01*
X15176792Y-13267962D01*
X15176792Y-13494238D01*
X15403069Y-13494238D01*
X15278500Y-5674000D02*
X15598500Y-5994000D01*
X15598500Y-5674000D02*
X15278500Y-5994000D01*
X15551638Y-5947138D02*
X15551638Y-5720862D01*
X15325362Y-5720862D01*
X15325362Y-5947138D01*
X15551638Y-5947138D01*
D11*
X3001477Y-14195084D02*
X3001477Y-13995084D01*
X3001477Y-13995084D02*
X3049096Y-13995084D01*
X3049096Y-13995084D02*
X3077667Y-14004608D01*
X3077667Y-14004608D02*
X3096715Y-14023655D01*
X3096715Y-14023655D02*
X3106239Y-14042703D01*
X3106239Y-14042703D02*
X3115762Y-14080798D01*
X3115762Y-14080798D02*
X3115762Y-14109369D01*
X3115762Y-14109369D02*
X3106239Y-14147465D01*
X3106239Y-14147465D02*
X3096715Y-14166512D01*
X3096715Y-14166512D02*
X3077667Y-14185560D01*
X3077667Y-14185560D02*
X3049096Y-14195084D01*
X3049096Y-14195084D02*
X3001477Y-14195084D01*
X3201477Y-14195084D02*
X3201477Y-14061750D01*
X3201477Y-14099846D02*
X3211001Y-14080798D01*
X3211001Y-14080798D02*
X3220524Y-14071274D01*
X3220524Y-14071274D02*
X3239572Y-14061750D01*
X3239572Y-14061750D02*
X3258620Y-14061750D01*
X3325286Y-14195084D02*
X3325286Y-14061750D01*
X3325286Y-13995084D02*
X3315762Y-14004608D01*
X3315762Y-14004608D02*
X3325286Y-14014131D01*
X3325286Y-14014131D02*
X3334810Y-14004608D01*
X3334810Y-14004608D02*
X3325286Y-13995084D01*
X3325286Y-13995084D02*
X3325286Y-14014131D01*
X3449096Y-14195084D02*
X3430048Y-14185560D01*
X3430048Y-14185560D02*
X3420524Y-14166512D01*
X3420524Y-14166512D02*
X3420524Y-13995084D01*
X3553858Y-14195084D02*
X3534810Y-14185560D01*
X3534810Y-14185560D02*
X3525286Y-14166512D01*
X3525286Y-14166512D02*
X3525286Y-13995084D01*
X3782429Y-14195084D02*
X3782429Y-13995084D01*
X3782429Y-13995084D02*
X3849096Y-14137941D01*
X3849096Y-14137941D02*
X3915762Y-13995084D01*
X3915762Y-13995084D02*
X3915762Y-14195084D01*
X4096715Y-14195084D02*
X4096715Y-14090322D01*
X4096715Y-14090322D02*
X4087191Y-14071274D01*
X4087191Y-14071274D02*
X4068143Y-14061750D01*
X4068143Y-14061750D02*
X4030048Y-14061750D01*
X4030048Y-14061750D02*
X4011001Y-14071274D01*
X4096715Y-14185560D02*
X4077667Y-14195084D01*
X4077667Y-14195084D02*
X4030048Y-14195084D01*
X4030048Y-14195084D02*
X4011001Y-14185560D01*
X4011001Y-14185560D02*
X4001477Y-14166512D01*
X4001477Y-14166512D02*
X4001477Y-14147465D01*
X4001477Y-14147465D02*
X4011001Y-14128417D01*
X4011001Y-14128417D02*
X4030048Y-14118893D01*
X4030048Y-14118893D02*
X4077667Y-14118893D01*
X4077667Y-14118893D02*
X4096715Y-14109369D01*
X4191953Y-14061750D02*
X4191953Y-14261750D01*
X4191953Y-14071274D02*
X4211001Y-14061750D01*
X4211001Y-14061750D02*
X4249096Y-14061750D01*
X4249096Y-14061750D02*
X4268144Y-14071274D01*
X4268144Y-14071274D02*
X4277667Y-14080798D01*
X4277667Y-14080798D02*
X4287191Y-14099846D01*
X4287191Y-14099846D02*
X4287191Y-14156988D01*
X4287191Y-14156988D02*
X4277667Y-14176036D01*
X4277667Y-14176036D02*
X4268144Y-14185560D01*
X4268144Y-14185560D02*
X4249096Y-14195084D01*
X4249096Y-14195084D02*
X4211001Y-14195084D01*
X4211001Y-14195084D02*
X4191953Y-14185560D01*
X4372905Y-14176036D02*
X4382429Y-14185560D01*
X4382429Y-14185560D02*
X4372905Y-14195084D01*
X4372905Y-14195084D02*
X4363382Y-14185560D01*
X4363382Y-14185560D02*
X4372905Y-14176036D01*
X4372905Y-14176036D02*
X4372905Y-14195084D01*
X4372905Y-14071274D02*
X4382429Y-14080798D01*
X4382429Y-14080798D02*
X4372905Y-14090322D01*
X4372905Y-14090322D02*
X4363382Y-14080798D01*
X4363382Y-14080798D02*
X4372905Y-14071274D01*
X4372905Y-14071274D02*
X4372905Y-14090322D01*
D12*
X2710700Y-14508600D02*
X2740700Y-14538600D01*
X2740700Y-14508600D02*
X2710700Y-14538600D01*
D11*
X3039572Y-14415084D02*
X3058620Y-14415084D01*
X3058620Y-14415084D02*
X3077667Y-14424608D01*
X3077667Y-14424608D02*
X3087191Y-14434131D01*
X3087191Y-14434131D02*
X3096715Y-14453179D01*
X3096715Y-14453179D02*
X3106239Y-14491274D01*
X3106239Y-14491274D02*
X3106239Y-14538893D01*
X3106239Y-14538893D02*
X3096715Y-14576988D01*
X3096715Y-14576988D02*
X3087191Y-14596036D01*
X3087191Y-14596036D02*
X3077667Y-14605560D01*
X3077667Y-14605560D02*
X3058620Y-14615084D01*
X3058620Y-14615084D02*
X3039572Y-14615084D01*
X3039572Y-14615084D02*
X3020524Y-14605560D01*
X3020524Y-14605560D02*
X3011001Y-14596036D01*
X3011001Y-14596036D02*
X3001477Y-14576988D01*
X3001477Y-14576988D02*
X2991953Y-14538893D01*
X2991953Y-14538893D02*
X2991953Y-14491274D01*
X2991953Y-14491274D02*
X3001477Y-14453179D01*
X3001477Y-14453179D02*
X3011001Y-14434131D01*
X3011001Y-14434131D02*
X3020524Y-14424608D01*
X3020524Y-14424608D02*
X3039572Y-14415084D01*
X3191953Y-14596036D02*
X3201477Y-14605560D01*
X3201477Y-14605560D02*
X3191953Y-14615084D01*
X3191953Y-14615084D02*
X3182429Y-14605560D01*
X3182429Y-14605560D02*
X3191953Y-14596036D01*
X3191953Y-14596036D02*
X3191953Y-14615084D01*
X3268143Y-14415084D02*
X3391953Y-14415084D01*
X3391953Y-14415084D02*
X3325286Y-14491274D01*
X3325286Y-14491274D02*
X3353858Y-14491274D01*
X3353858Y-14491274D02*
X3372905Y-14500798D01*
X3372905Y-14500798D02*
X3382429Y-14510322D01*
X3382429Y-14510322D02*
X3391953Y-14529369D01*
X3391953Y-14529369D02*
X3391953Y-14576988D01*
X3391953Y-14576988D02*
X3382429Y-14596036D01*
X3382429Y-14596036D02*
X3372905Y-14605560D01*
X3372905Y-14605560D02*
X3353858Y-14615084D01*
X3353858Y-14615084D02*
X3296715Y-14615084D01*
X3296715Y-14615084D02*
X3277667Y-14605560D01*
X3277667Y-14605560D02*
X3268143Y-14596036D01*
X3515762Y-14415084D02*
X3534810Y-14415084D01*
X3534810Y-14415084D02*
X3553858Y-14424608D01*
X3553858Y-14424608D02*
X3563382Y-14434131D01*
X3563382Y-14434131D02*
X3572905Y-14453179D01*
X3572905Y-14453179D02*
X3582429Y-14491274D01*
X3582429Y-14491274D02*
X3582429Y-14538893D01*
X3582429Y-14538893D02*
X3572905Y-14576988D01*
X3572905Y-14576988D02*
X3563382Y-14596036D01*
X3563382Y-14596036D02*
X3553858Y-14605560D01*
X3553858Y-14605560D02*
X3534810Y-14615084D01*
X3534810Y-14615084D02*
X3515762Y-14615084D01*
X3515762Y-14615084D02*
X3496715Y-14605560D01*
X3496715Y-14605560D02*
X3487191Y-14596036D01*
X3487191Y-14596036D02*
X3477667Y-14576988D01*
X3477667Y-14576988D02*
X3468143Y-14538893D01*
X3468143Y-14538893D02*
X3468143Y-14491274D01*
X3468143Y-14491274D02*
X3477667Y-14453179D01*
X3477667Y-14453179D02*
X3487191Y-14434131D01*
X3487191Y-14434131D02*
X3496715Y-14424608D01*
X3496715Y-14424608D02*
X3515762Y-14415084D01*
X3706239Y-14415084D02*
X3725286Y-14415084D01*
X3725286Y-14415084D02*
X3744334Y-14424608D01*
X3744334Y-14424608D02*
X3753858Y-14434131D01*
X3753858Y-14434131D02*
X3763382Y-14453179D01*
X3763382Y-14453179D02*
X3772905Y-14491274D01*
X3772905Y-14491274D02*
X3772905Y-14538893D01*
X3772905Y-14538893D02*
X3763382Y-14576988D01*
X3763382Y-14576988D02*
X3753858Y-14596036D01*
X3753858Y-14596036D02*
X3744334Y-14605560D01*
X3744334Y-14605560D02*
X3725286Y-14615084D01*
X3725286Y-14615084D02*
X3706239Y-14615084D01*
X3706239Y-14615084D02*
X3687191Y-14605560D01*
X3687191Y-14605560D02*
X3677667Y-14596036D01*
X3677667Y-14596036D02*
X3668143Y-14576988D01*
X3668143Y-14576988D02*
X3658620Y-14538893D01*
X3658620Y-14538893D02*
X3658620Y-14491274D01*
X3658620Y-14491274D02*
X3668143Y-14453179D01*
X3668143Y-14453179D02*
X3677667Y-14434131D01*
X3677667Y-14434131D02*
X3687191Y-14424608D01*
X3687191Y-14424608D02*
X3706239Y-14415084D01*
X3858620Y-14615084D02*
X3858620Y-14481750D01*
X3858620Y-14500798D02*
X3868143Y-14491274D01*
X3868143Y-14491274D02*
X3887191Y-14481750D01*
X3887191Y-14481750D02*
X3915763Y-14481750D01*
X3915763Y-14481750D02*
X3934810Y-14491274D01*
X3934810Y-14491274D02*
X3944334Y-14510322D01*
X3944334Y-14510322D02*
X3944334Y-14615084D01*
X3944334Y-14510322D02*
X3953858Y-14491274D01*
X3953858Y-14491274D02*
X3972905Y-14481750D01*
X3972905Y-14481750D02*
X4001477Y-14481750D01*
X4001477Y-14481750D02*
X4020524Y-14491274D01*
X4020524Y-14491274D02*
X4030048Y-14510322D01*
X4030048Y-14510322D02*
X4030048Y-14615084D01*
X4125286Y-14615084D02*
X4125286Y-14481750D01*
X4125286Y-14500798D02*
X4134810Y-14491274D01*
X4134810Y-14491274D02*
X4153858Y-14481750D01*
X4153858Y-14481750D02*
X4182429Y-14481750D01*
X4182429Y-14481750D02*
X4201477Y-14491274D01*
X4201477Y-14491274D02*
X4211001Y-14510322D01*
X4211001Y-14510322D02*
X4211001Y-14615084D01*
X4211001Y-14510322D02*
X4220525Y-14491274D01*
X4220525Y-14491274D02*
X4239572Y-14481750D01*
X4239572Y-14481750D02*
X4268144Y-14481750D01*
X4268144Y-14481750D02*
X4287191Y-14491274D01*
X4287191Y-14491274D02*
X4296715Y-14510322D01*
X4296715Y-14510322D02*
X4296715Y-14615084D01*
X4687191Y-14405560D02*
X4515763Y-14662703D01*
X4944334Y-14415084D02*
X4963382Y-14415084D01*
X4963382Y-14415084D02*
X4982429Y-14424608D01*
X4982429Y-14424608D02*
X4991953Y-14434131D01*
X4991953Y-14434131D02*
X5001477Y-14453179D01*
X5001477Y-14453179D02*
X5011001Y-14491274D01*
X5011001Y-14491274D02*
X5011001Y-14538893D01*
X5011001Y-14538893D02*
X5001477Y-14576988D01*
X5001477Y-14576988D02*
X4991953Y-14596036D01*
X4991953Y-14596036D02*
X4982429Y-14605560D01*
X4982429Y-14605560D02*
X4963382Y-14615084D01*
X4963382Y-14615084D02*
X4944334Y-14615084D01*
X4944334Y-14615084D02*
X4925287Y-14605560D01*
X4925287Y-14605560D02*
X4915763Y-14596036D01*
X4915763Y-14596036D02*
X4906239Y-14576988D01*
X4906239Y-14576988D02*
X4896715Y-14538893D01*
X4896715Y-14538893D02*
X4896715Y-14491274D01*
X4896715Y-14491274D02*
X4906239Y-14453179D01*
X4906239Y-14453179D02*
X4915763Y-14434131D01*
X4915763Y-14434131D02*
X4925287Y-14424608D01*
X4925287Y-14424608D02*
X4944334Y-14415084D01*
X5096715Y-14596036D02*
X5106239Y-14605560D01*
X5106239Y-14605560D02*
X5096715Y-14615084D01*
X5096715Y-14615084D02*
X5087191Y-14605560D01*
X5087191Y-14605560D02*
X5096715Y-14596036D01*
X5096715Y-14596036D02*
X5096715Y-14615084D01*
X5230048Y-14415084D02*
X5249096Y-14415084D01*
X5249096Y-14415084D02*
X5268144Y-14424608D01*
X5268144Y-14424608D02*
X5277668Y-14434131D01*
X5277668Y-14434131D02*
X5287191Y-14453179D01*
X5287191Y-14453179D02*
X5296715Y-14491274D01*
X5296715Y-14491274D02*
X5296715Y-14538893D01*
X5296715Y-14538893D02*
X5287191Y-14576988D01*
X5287191Y-14576988D02*
X5277668Y-14596036D01*
X5277668Y-14596036D02*
X5268144Y-14605560D01*
X5268144Y-14605560D02*
X5249096Y-14615084D01*
X5249096Y-14615084D02*
X5230048Y-14615084D01*
X5230048Y-14615084D02*
X5211001Y-14605560D01*
X5211001Y-14605560D02*
X5201477Y-14596036D01*
X5201477Y-14596036D02*
X5191953Y-14576988D01*
X5191953Y-14576988D02*
X5182429Y-14538893D01*
X5182429Y-14538893D02*
X5182429Y-14491274D01*
X5182429Y-14491274D02*
X5191953Y-14453179D01*
X5191953Y-14453179D02*
X5201477Y-14434131D01*
X5201477Y-14434131D02*
X5211001Y-14424608D01*
X5211001Y-14424608D02*
X5230048Y-14415084D01*
X5487191Y-14615084D02*
X5372906Y-14615084D01*
X5430048Y-14615084D02*
X5430048Y-14415084D01*
X5430048Y-14415084D02*
X5411001Y-14443655D01*
X5411001Y-14443655D02*
X5391953Y-14462703D01*
X5391953Y-14462703D02*
X5372906Y-14472227D01*
X5677667Y-14615084D02*
X5563382Y-14615084D01*
X5620525Y-14615084D02*
X5620525Y-14415084D01*
X5620525Y-14415084D02*
X5601477Y-14443655D01*
X5601477Y-14443655D02*
X5582429Y-14462703D01*
X5582429Y-14462703D02*
X5563382Y-14472227D01*
X5791953Y-14500798D02*
X5772906Y-14491274D01*
X5772906Y-14491274D02*
X5763382Y-14481750D01*
X5763382Y-14481750D02*
X5753858Y-14462703D01*
X5753858Y-14462703D02*
X5753858Y-14453179D01*
X5753858Y-14453179D02*
X5763382Y-14434131D01*
X5763382Y-14434131D02*
X5772906Y-14424608D01*
X5772906Y-14424608D02*
X5791953Y-14415084D01*
X5791953Y-14415084D02*
X5830048Y-14415084D01*
X5830048Y-14415084D02*
X5849096Y-14424608D01*
X5849096Y-14424608D02*
X5858620Y-14434131D01*
X5858620Y-14434131D02*
X5868144Y-14453179D01*
X5868144Y-14453179D02*
X5868144Y-14462703D01*
X5868144Y-14462703D02*
X5858620Y-14481750D01*
X5858620Y-14481750D02*
X5849096Y-14491274D01*
X5849096Y-14491274D02*
X5830048Y-14500798D01*
X5830048Y-14500798D02*
X5791953Y-14500798D01*
X5791953Y-14500798D02*
X5772906Y-14510322D01*
X5772906Y-14510322D02*
X5763382Y-14519846D01*
X5763382Y-14519846D02*
X5753858Y-14538893D01*
X5753858Y-14538893D02*
X5753858Y-14576988D01*
X5753858Y-14576988D02*
X5763382Y-14596036D01*
X5763382Y-14596036D02*
X5772906Y-14605560D01*
X5772906Y-14605560D02*
X5791953Y-14615084D01*
X5791953Y-14615084D02*
X5830048Y-14615084D01*
X5830048Y-14615084D02*
X5849096Y-14605560D01*
X5849096Y-14605560D02*
X5858620Y-14596036D01*
X5858620Y-14596036D02*
X5868144Y-14576988D01*
X5868144Y-14576988D02*
X5868144Y-14538893D01*
X5868144Y-14538893D02*
X5858620Y-14519846D01*
X5858620Y-14519846D02*
X5849096Y-14510322D01*
X5849096Y-14510322D02*
X5830048Y-14500798D01*
X5944334Y-14415084D02*
X5944334Y-14453179D01*
X6020525Y-14415084D02*
X6020525Y-14453179D01*
X6315763Y-14691274D02*
X6306239Y-14681750D01*
X6306239Y-14681750D02*
X6287191Y-14653179D01*
X6287191Y-14653179D02*
X6277668Y-14634131D01*
X6277668Y-14634131D02*
X6268144Y-14605560D01*
X6268144Y-14605560D02*
X6258620Y-14557941D01*
X6258620Y-14557941D02*
X6258620Y-14519846D01*
X6258620Y-14519846D02*
X6268144Y-14472227D01*
X6268144Y-14472227D02*
X6277668Y-14443655D01*
X6277668Y-14443655D02*
X6287191Y-14424608D01*
X6287191Y-14424608D02*
X6306239Y-14396036D01*
X6306239Y-14396036D02*
X6315763Y-14386512D01*
X6372906Y-14415084D02*
X6496715Y-14415084D01*
X6496715Y-14415084D02*
X6430048Y-14491274D01*
X6430048Y-14491274D02*
X6458620Y-14491274D01*
X6458620Y-14491274D02*
X6477668Y-14500798D01*
X6477668Y-14500798D02*
X6487191Y-14510322D01*
X6487191Y-14510322D02*
X6496715Y-14529369D01*
X6496715Y-14529369D02*
X6496715Y-14576988D01*
X6496715Y-14576988D02*
X6487191Y-14596036D01*
X6487191Y-14596036D02*
X6477668Y-14605560D01*
X6477668Y-14605560D02*
X6458620Y-14615084D01*
X6458620Y-14615084D02*
X6401477Y-14615084D01*
X6401477Y-14615084D02*
X6382429Y-14605560D01*
X6382429Y-14605560D02*
X6372906Y-14596036D01*
X6563382Y-14415084D02*
X6696715Y-14415084D01*
X6696715Y-14415084D02*
X6611001Y-14615084D01*
X6877668Y-14615084D02*
X6763382Y-14615084D01*
X6820525Y-14615084D02*
X6820525Y-14415084D01*
X6820525Y-14415084D02*
X6801477Y-14443655D01*
X6801477Y-14443655D02*
X6782429Y-14462703D01*
X6782429Y-14462703D02*
X6763382Y-14472227D01*
X7115763Y-14615084D02*
X7115763Y-14415084D01*
X7201477Y-14615084D02*
X7201477Y-14510322D01*
X7201477Y-14510322D02*
X7191953Y-14491274D01*
X7191953Y-14491274D02*
X7172906Y-14481750D01*
X7172906Y-14481750D02*
X7144334Y-14481750D01*
X7144334Y-14481750D02*
X7125287Y-14491274D01*
X7125287Y-14491274D02*
X7115763Y-14500798D01*
X7325287Y-14615084D02*
X7306239Y-14605560D01*
X7306239Y-14605560D02*
X7296715Y-14596036D01*
X7296715Y-14596036D02*
X7287191Y-14576988D01*
X7287191Y-14576988D02*
X7287191Y-14519846D01*
X7287191Y-14519846D02*
X7296715Y-14500798D01*
X7296715Y-14500798D02*
X7306239Y-14491274D01*
X7306239Y-14491274D02*
X7325287Y-14481750D01*
X7325287Y-14481750D02*
X7353858Y-14481750D01*
X7353858Y-14481750D02*
X7372906Y-14491274D01*
X7372906Y-14491274D02*
X7382430Y-14500798D01*
X7382430Y-14500798D02*
X7391953Y-14519846D01*
X7391953Y-14519846D02*
X7391953Y-14576988D01*
X7391953Y-14576988D02*
X7382430Y-14596036D01*
X7382430Y-14596036D02*
X7372906Y-14605560D01*
X7372906Y-14605560D02*
X7353858Y-14615084D01*
X7353858Y-14615084D02*
X7325287Y-14615084D01*
X7506239Y-14615084D02*
X7487191Y-14605560D01*
X7487191Y-14605560D02*
X7477668Y-14586512D01*
X7477668Y-14586512D02*
X7477668Y-14415084D01*
X7658620Y-14605560D02*
X7639572Y-14615084D01*
X7639572Y-14615084D02*
X7601477Y-14615084D01*
X7601477Y-14615084D02*
X7582430Y-14605560D01*
X7582430Y-14605560D02*
X7572906Y-14586512D01*
X7572906Y-14586512D02*
X7572906Y-14510322D01*
X7572906Y-14510322D02*
X7582430Y-14491274D01*
X7582430Y-14491274D02*
X7601477Y-14481750D01*
X7601477Y-14481750D02*
X7639572Y-14481750D01*
X7639572Y-14481750D02*
X7658620Y-14491274D01*
X7658620Y-14491274D02*
X7668144Y-14510322D01*
X7668144Y-14510322D02*
X7668144Y-14529369D01*
X7668144Y-14529369D02*
X7572906Y-14548417D01*
X7744334Y-14605560D02*
X7763382Y-14615084D01*
X7763382Y-14615084D02*
X7801477Y-14615084D01*
X7801477Y-14615084D02*
X7820525Y-14605560D01*
X7820525Y-14605560D02*
X7830049Y-14586512D01*
X7830049Y-14586512D02*
X7830049Y-14576988D01*
X7830049Y-14576988D02*
X7820525Y-14557941D01*
X7820525Y-14557941D02*
X7801477Y-14548417D01*
X7801477Y-14548417D02*
X7772906Y-14548417D01*
X7772906Y-14548417D02*
X7753858Y-14538893D01*
X7753858Y-14538893D02*
X7744334Y-14519846D01*
X7744334Y-14519846D02*
X7744334Y-14510322D01*
X7744334Y-14510322D02*
X7753858Y-14491274D01*
X7753858Y-14491274D02*
X7772906Y-14481750D01*
X7772906Y-14481750D02*
X7801477Y-14481750D01*
X7801477Y-14481750D02*
X7820525Y-14491274D01*
X7896715Y-14691274D02*
X7906239Y-14681750D01*
X7906239Y-14681750D02*
X7925287Y-14653179D01*
X7925287Y-14653179D02*
X7934811Y-14634131D01*
X7934811Y-14634131D02*
X7944334Y-14605560D01*
X7944334Y-14605560D02*
X7953858Y-14557941D01*
X7953858Y-14557941D02*
X7953858Y-14519846D01*
X7953858Y-14519846D02*
X7944334Y-14472227D01*
X7944334Y-14472227D02*
X7934811Y-14443655D01*
X7934811Y-14443655D02*
X7925287Y-14424608D01*
X7925287Y-14424608D02*
X7906239Y-14396036D01*
X7906239Y-14396036D02*
X7896715Y-14386512D01*
D12*
X2740700Y-14787600D02*
G75*
G02*
X2690700Y-14787600I-25000J0D01*
G01*
X2690700Y-14787600D02*
G75*
G02*
X2740700Y-14787600I25000J0D01*
G01*
D11*
X3039572Y-14679084D02*
X3058620Y-14679084D01*
X3058620Y-14679084D02*
X3077667Y-14688608D01*
X3077667Y-14688608D02*
X3087191Y-14698131D01*
X3087191Y-14698131D02*
X3096715Y-14717179D01*
X3096715Y-14717179D02*
X3106239Y-14755274D01*
X3106239Y-14755274D02*
X3106239Y-14802893D01*
X3106239Y-14802893D02*
X3096715Y-14840988D01*
X3096715Y-14840988D02*
X3087191Y-14860036D01*
X3087191Y-14860036D02*
X3077667Y-14869560D01*
X3077667Y-14869560D02*
X3058620Y-14879084D01*
X3058620Y-14879084D02*
X3039572Y-14879084D01*
X3039572Y-14879084D02*
X3020524Y-14869560D01*
X3020524Y-14869560D02*
X3011001Y-14860036D01*
X3011001Y-14860036D02*
X3001477Y-14840988D01*
X3001477Y-14840988D02*
X2991953Y-14802893D01*
X2991953Y-14802893D02*
X2991953Y-14755274D01*
X2991953Y-14755274D02*
X3001477Y-14717179D01*
X3001477Y-14717179D02*
X3011001Y-14698131D01*
X3011001Y-14698131D02*
X3020524Y-14688608D01*
X3020524Y-14688608D02*
X3039572Y-14679084D01*
X3191953Y-14860036D02*
X3201477Y-14869560D01*
X3201477Y-14869560D02*
X3191953Y-14879084D01*
X3191953Y-14879084D02*
X3182429Y-14869560D01*
X3182429Y-14869560D02*
X3191953Y-14860036D01*
X3191953Y-14860036D02*
X3191953Y-14879084D01*
X3382429Y-14679084D02*
X3287191Y-14679084D01*
X3287191Y-14679084D02*
X3277667Y-14774322D01*
X3277667Y-14774322D02*
X3287191Y-14764798D01*
X3287191Y-14764798D02*
X3306239Y-14755274D01*
X3306239Y-14755274D02*
X3353858Y-14755274D01*
X3353858Y-14755274D02*
X3372905Y-14764798D01*
X3372905Y-14764798D02*
X3382429Y-14774322D01*
X3382429Y-14774322D02*
X3391953Y-14793369D01*
X3391953Y-14793369D02*
X3391953Y-14840988D01*
X3391953Y-14840988D02*
X3382429Y-14860036D01*
X3382429Y-14860036D02*
X3372905Y-14869560D01*
X3372905Y-14869560D02*
X3353858Y-14879084D01*
X3353858Y-14879084D02*
X3306239Y-14879084D01*
X3306239Y-14879084D02*
X3287191Y-14869560D01*
X3287191Y-14869560D02*
X3277667Y-14860036D01*
X3515762Y-14679084D02*
X3534810Y-14679084D01*
X3534810Y-14679084D02*
X3553858Y-14688608D01*
X3553858Y-14688608D02*
X3563382Y-14698131D01*
X3563382Y-14698131D02*
X3572905Y-14717179D01*
X3572905Y-14717179D02*
X3582429Y-14755274D01*
X3582429Y-14755274D02*
X3582429Y-14802893D01*
X3582429Y-14802893D02*
X3572905Y-14840988D01*
X3572905Y-14840988D02*
X3563382Y-14860036D01*
X3563382Y-14860036D02*
X3553858Y-14869560D01*
X3553858Y-14869560D02*
X3534810Y-14879084D01*
X3534810Y-14879084D02*
X3515762Y-14879084D01*
X3515762Y-14879084D02*
X3496715Y-14869560D01*
X3496715Y-14869560D02*
X3487191Y-14860036D01*
X3487191Y-14860036D02*
X3477667Y-14840988D01*
X3477667Y-14840988D02*
X3468143Y-14802893D01*
X3468143Y-14802893D02*
X3468143Y-14755274D01*
X3468143Y-14755274D02*
X3477667Y-14717179D01*
X3477667Y-14717179D02*
X3487191Y-14698131D01*
X3487191Y-14698131D02*
X3496715Y-14688608D01*
X3496715Y-14688608D02*
X3515762Y-14679084D01*
X3706239Y-14679084D02*
X3725286Y-14679084D01*
X3725286Y-14679084D02*
X3744334Y-14688608D01*
X3744334Y-14688608D02*
X3753858Y-14698131D01*
X3753858Y-14698131D02*
X3763382Y-14717179D01*
X3763382Y-14717179D02*
X3772905Y-14755274D01*
X3772905Y-14755274D02*
X3772905Y-14802893D01*
X3772905Y-14802893D02*
X3763382Y-14840988D01*
X3763382Y-14840988D02*
X3753858Y-14860036D01*
X3753858Y-14860036D02*
X3744334Y-14869560D01*
X3744334Y-14869560D02*
X3725286Y-14879084D01*
X3725286Y-14879084D02*
X3706239Y-14879084D01*
X3706239Y-14879084D02*
X3687191Y-14869560D01*
X3687191Y-14869560D02*
X3677667Y-14860036D01*
X3677667Y-14860036D02*
X3668143Y-14840988D01*
X3668143Y-14840988D02*
X3658620Y-14802893D01*
X3658620Y-14802893D02*
X3658620Y-14755274D01*
X3658620Y-14755274D02*
X3668143Y-14717179D01*
X3668143Y-14717179D02*
X3677667Y-14698131D01*
X3677667Y-14698131D02*
X3687191Y-14688608D01*
X3687191Y-14688608D02*
X3706239Y-14679084D01*
X3858620Y-14879084D02*
X3858620Y-14745750D01*
X3858620Y-14764798D02*
X3868143Y-14755274D01*
X3868143Y-14755274D02*
X3887191Y-14745750D01*
X3887191Y-14745750D02*
X3915763Y-14745750D01*
X3915763Y-14745750D02*
X3934810Y-14755274D01*
X3934810Y-14755274D02*
X3944334Y-14774322D01*
X3944334Y-14774322D02*
X3944334Y-14879084D01*
X3944334Y-14774322D02*
X3953858Y-14755274D01*
X3953858Y-14755274D02*
X3972905Y-14745750D01*
X3972905Y-14745750D02*
X4001477Y-14745750D01*
X4001477Y-14745750D02*
X4020524Y-14755274D01*
X4020524Y-14755274D02*
X4030048Y-14774322D01*
X4030048Y-14774322D02*
X4030048Y-14879084D01*
X4125286Y-14879084D02*
X4125286Y-14745750D01*
X4125286Y-14764798D02*
X4134810Y-14755274D01*
X4134810Y-14755274D02*
X4153858Y-14745750D01*
X4153858Y-14745750D02*
X4182429Y-14745750D01*
X4182429Y-14745750D02*
X4201477Y-14755274D01*
X4201477Y-14755274D02*
X4211001Y-14774322D01*
X4211001Y-14774322D02*
X4211001Y-14879084D01*
X4211001Y-14774322D02*
X4220525Y-14755274D01*
X4220525Y-14755274D02*
X4239572Y-14745750D01*
X4239572Y-14745750D02*
X4268144Y-14745750D01*
X4268144Y-14745750D02*
X4287191Y-14755274D01*
X4287191Y-14755274D02*
X4296715Y-14774322D01*
X4296715Y-14774322D02*
X4296715Y-14879084D01*
X4687191Y-14669560D02*
X4515763Y-14926703D01*
X4944334Y-14679084D02*
X4963382Y-14679084D01*
X4963382Y-14679084D02*
X4982429Y-14688608D01*
X4982429Y-14688608D02*
X4991953Y-14698131D01*
X4991953Y-14698131D02*
X5001477Y-14717179D01*
X5001477Y-14717179D02*
X5011001Y-14755274D01*
X5011001Y-14755274D02*
X5011001Y-14802893D01*
X5011001Y-14802893D02*
X5001477Y-14840988D01*
X5001477Y-14840988D02*
X4991953Y-14860036D01*
X4991953Y-14860036D02*
X4982429Y-14869560D01*
X4982429Y-14869560D02*
X4963382Y-14879084D01*
X4963382Y-14879084D02*
X4944334Y-14879084D01*
X4944334Y-14879084D02*
X4925287Y-14869560D01*
X4925287Y-14869560D02*
X4915763Y-14860036D01*
X4915763Y-14860036D02*
X4906239Y-14840988D01*
X4906239Y-14840988D02*
X4896715Y-14802893D01*
X4896715Y-14802893D02*
X4896715Y-14755274D01*
X4896715Y-14755274D02*
X4906239Y-14717179D01*
X4906239Y-14717179D02*
X4915763Y-14698131D01*
X4915763Y-14698131D02*
X4925287Y-14688608D01*
X4925287Y-14688608D02*
X4944334Y-14679084D01*
X5096715Y-14860036D02*
X5106239Y-14869560D01*
X5106239Y-14869560D02*
X5096715Y-14879084D01*
X5096715Y-14879084D02*
X5087191Y-14869560D01*
X5087191Y-14869560D02*
X5096715Y-14860036D01*
X5096715Y-14860036D02*
X5096715Y-14879084D01*
X5230048Y-14679084D02*
X5249096Y-14679084D01*
X5249096Y-14679084D02*
X5268144Y-14688608D01*
X5268144Y-14688608D02*
X5277668Y-14698131D01*
X5277668Y-14698131D02*
X5287191Y-14717179D01*
X5287191Y-14717179D02*
X5296715Y-14755274D01*
X5296715Y-14755274D02*
X5296715Y-14802893D01*
X5296715Y-14802893D02*
X5287191Y-14840988D01*
X5287191Y-14840988D02*
X5277668Y-14860036D01*
X5277668Y-14860036D02*
X5268144Y-14869560D01*
X5268144Y-14869560D02*
X5249096Y-14879084D01*
X5249096Y-14879084D02*
X5230048Y-14879084D01*
X5230048Y-14879084D02*
X5211001Y-14869560D01*
X5211001Y-14869560D02*
X5201477Y-14860036D01*
X5201477Y-14860036D02*
X5191953Y-14840988D01*
X5191953Y-14840988D02*
X5182429Y-14802893D01*
X5182429Y-14802893D02*
X5182429Y-14755274D01*
X5182429Y-14755274D02*
X5191953Y-14717179D01*
X5191953Y-14717179D02*
X5201477Y-14698131D01*
X5201477Y-14698131D02*
X5211001Y-14688608D01*
X5211001Y-14688608D02*
X5230048Y-14679084D01*
X5487191Y-14879084D02*
X5372906Y-14879084D01*
X5430048Y-14879084D02*
X5430048Y-14679084D01*
X5430048Y-14679084D02*
X5411001Y-14707655D01*
X5411001Y-14707655D02*
X5391953Y-14726703D01*
X5391953Y-14726703D02*
X5372906Y-14736227D01*
X5582429Y-14879084D02*
X5620525Y-14879084D01*
X5620525Y-14879084D02*
X5639572Y-14869560D01*
X5639572Y-14869560D02*
X5649096Y-14860036D01*
X5649096Y-14860036D02*
X5668144Y-14831465D01*
X5668144Y-14831465D02*
X5677667Y-14793369D01*
X5677667Y-14793369D02*
X5677667Y-14717179D01*
X5677667Y-14717179D02*
X5668144Y-14698131D01*
X5668144Y-14698131D02*
X5658620Y-14688608D01*
X5658620Y-14688608D02*
X5639572Y-14679084D01*
X5639572Y-14679084D02*
X5601477Y-14679084D01*
X5601477Y-14679084D02*
X5582429Y-14688608D01*
X5582429Y-14688608D02*
X5572906Y-14698131D01*
X5572906Y-14698131D02*
X5563382Y-14717179D01*
X5563382Y-14717179D02*
X5563382Y-14764798D01*
X5563382Y-14764798D02*
X5572906Y-14783846D01*
X5572906Y-14783846D02*
X5582429Y-14793369D01*
X5582429Y-14793369D02*
X5601477Y-14802893D01*
X5601477Y-14802893D02*
X5639572Y-14802893D01*
X5639572Y-14802893D02*
X5658620Y-14793369D01*
X5658620Y-14793369D02*
X5668144Y-14783846D01*
X5668144Y-14783846D02*
X5677667Y-14764798D01*
X5744334Y-14679084D02*
X5877667Y-14679084D01*
X5877667Y-14679084D02*
X5791953Y-14879084D01*
X5944334Y-14679084D02*
X5944334Y-14717179D01*
X6020525Y-14679084D02*
X6020525Y-14717179D01*
X6315763Y-14955274D02*
X6306239Y-14945750D01*
X6306239Y-14945750D02*
X6287191Y-14917179D01*
X6287191Y-14917179D02*
X6277668Y-14898131D01*
X6277668Y-14898131D02*
X6268144Y-14869560D01*
X6268144Y-14869560D02*
X6258620Y-14821941D01*
X6258620Y-14821941D02*
X6258620Y-14783846D01*
X6258620Y-14783846D02*
X6268144Y-14736227D01*
X6268144Y-14736227D02*
X6277668Y-14707655D01*
X6277668Y-14707655D02*
X6287191Y-14688608D01*
X6287191Y-14688608D02*
X6306239Y-14660036D01*
X6306239Y-14660036D02*
X6315763Y-14650512D01*
X6372906Y-14679084D02*
X6496715Y-14679084D01*
X6496715Y-14679084D02*
X6430048Y-14755274D01*
X6430048Y-14755274D02*
X6458620Y-14755274D01*
X6458620Y-14755274D02*
X6477668Y-14764798D01*
X6477668Y-14764798D02*
X6487191Y-14774322D01*
X6487191Y-14774322D02*
X6496715Y-14793369D01*
X6496715Y-14793369D02*
X6496715Y-14840988D01*
X6496715Y-14840988D02*
X6487191Y-14860036D01*
X6487191Y-14860036D02*
X6477668Y-14869560D01*
X6477668Y-14869560D02*
X6458620Y-14879084D01*
X6458620Y-14879084D02*
X6401477Y-14879084D01*
X6401477Y-14879084D02*
X6382429Y-14869560D01*
X6382429Y-14869560D02*
X6372906Y-14860036D01*
X6572906Y-14698131D02*
X6582429Y-14688608D01*
X6582429Y-14688608D02*
X6601477Y-14679084D01*
X6601477Y-14679084D02*
X6649096Y-14679084D01*
X6649096Y-14679084D02*
X6668144Y-14688608D01*
X6668144Y-14688608D02*
X6677668Y-14698131D01*
X6677668Y-14698131D02*
X6687191Y-14717179D01*
X6687191Y-14717179D02*
X6687191Y-14736227D01*
X6687191Y-14736227D02*
X6677668Y-14764798D01*
X6677668Y-14764798D02*
X6563382Y-14879084D01*
X6563382Y-14879084D02*
X6687191Y-14879084D01*
X6925287Y-14879084D02*
X6925287Y-14679084D01*
X7011001Y-14879084D02*
X7011001Y-14774322D01*
X7011001Y-14774322D02*
X7001477Y-14755274D01*
X7001477Y-14755274D02*
X6982430Y-14745750D01*
X6982430Y-14745750D02*
X6953858Y-14745750D01*
X6953858Y-14745750D02*
X6934810Y-14755274D01*
X6934810Y-14755274D02*
X6925287Y-14764798D01*
X7134810Y-14879084D02*
X7115763Y-14869560D01*
X7115763Y-14869560D02*
X7106239Y-14860036D01*
X7106239Y-14860036D02*
X7096715Y-14840988D01*
X7096715Y-14840988D02*
X7096715Y-14783846D01*
X7096715Y-14783846D02*
X7106239Y-14764798D01*
X7106239Y-14764798D02*
X7115763Y-14755274D01*
X7115763Y-14755274D02*
X7134810Y-14745750D01*
X7134810Y-14745750D02*
X7163382Y-14745750D01*
X7163382Y-14745750D02*
X7182430Y-14755274D01*
X7182430Y-14755274D02*
X7191953Y-14764798D01*
X7191953Y-14764798D02*
X7201477Y-14783846D01*
X7201477Y-14783846D02*
X7201477Y-14840988D01*
X7201477Y-14840988D02*
X7191953Y-14860036D01*
X7191953Y-14860036D02*
X7182430Y-14869560D01*
X7182430Y-14869560D02*
X7163382Y-14879084D01*
X7163382Y-14879084D02*
X7134810Y-14879084D01*
X7315763Y-14879084D02*
X7296715Y-14869560D01*
X7296715Y-14869560D02*
X7287191Y-14850512D01*
X7287191Y-14850512D02*
X7287191Y-14679084D01*
X7468144Y-14869560D02*
X7449096Y-14879084D01*
X7449096Y-14879084D02*
X7411001Y-14879084D01*
X7411001Y-14879084D02*
X7391953Y-14869560D01*
X7391953Y-14869560D02*
X7382430Y-14850512D01*
X7382430Y-14850512D02*
X7382430Y-14774322D01*
X7382430Y-14774322D02*
X7391953Y-14755274D01*
X7391953Y-14755274D02*
X7411001Y-14745750D01*
X7411001Y-14745750D02*
X7449096Y-14745750D01*
X7449096Y-14745750D02*
X7468144Y-14755274D01*
X7468144Y-14755274D02*
X7477668Y-14774322D01*
X7477668Y-14774322D02*
X7477668Y-14793369D01*
X7477668Y-14793369D02*
X7382430Y-14812417D01*
X7553858Y-14869560D02*
X7572906Y-14879084D01*
X7572906Y-14879084D02*
X7611001Y-14879084D01*
X7611001Y-14879084D02*
X7630049Y-14869560D01*
X7630049Y-14869560D02*
X7639572Y-14850512D01*
X7639572Y-14850512D02*
X7639572Y-14840988D01*
X7639572Y-14840988D02*
X7630049Y-14821941D01*
X7630049Y-14821941D02*
X7611001Y-14812417D01*
X7611001Y-14812417D02*
X7582430Y-14812417D01*
X7582430Y-14812417D02*
X7563382Y-14802893D01*
X7563382Y-14802893D02*
X7553858Y-14783846D01*
X7553858Y-14783846D02*
X7553858Y-14774322D01*
X7553858Y-14774322D02*
X7563382Y-14755274D01*
X7563382Y-14755274D02*
X7582430Y-14745750D01*
X7582430Y-14745750D02*
X7611001Y-14745750D01*
X7611001Y-14745750D02*
X7630049Y-14755274D01*
X7706239Y-14955274D02*
X7715763Y-14945750D01*
X7715763Y-14945750D02*
X7734811Y-14917179D01*
X7734811Y-14917179D02*
X7744334Y-14898131D01*
X7744334Y-14898131D02*
X7753858Y-14869560D01*
X7753858Y-14869560D02*
X7763382Y-14821941D01*
X7763382Y-14821941D02*
X7763382Y-14783846D01*
X7763382Y-14783846D02*
X7753858Y-14736227D01*
X7753858Y-14736227D02*
X7744334Y-14707655D01*
X7744334Y-14707655D02*
X7734811Y-14688608D01*
X7734811Y-14688608D02*
X7715763Y-14660036D01*
X7715763Y-14660036D02*
X7706239Y-14650512D01*
D12*
X2695700Y-15006600D02*
X2695700Y-15096600D01*
X2650700Y-15051600D02*
X2740700Y-15051600D01*
D11*
X3039572Y-14943084D02*
X3058620Y-14943084D01*
X3058620Y-14943084D02*
X3077667Y-14952608D01*
X3077667Y-14952608D02*
X3087191Y-14962131D01*
X3087191Y-14962131D02*
X3096715Y-14981179D01*
X3096715Y-14981179D02*
X3106239Y-15019274D01*
X3106239Y-15019274D02*
X3106239Y-15066893D01*
X3106239Y-15066893D02*
X3096715Y-15104988D01*
X3096715Y-15104988D02*
X3087191Y-15124036D01*
X3087191Y-15124036D02*
X3077667Y-15133560D01*
X3077667Y-15133560D02*
X3058620Y-15143084D01*
X3058620Y-15143084D02*
X3039572Y-15143084D01*
X3039572Y-15143084D02*
X3020524Y-15133560D01*
X3020524Y-15133560D02*
X3011001Y-15124036D01*
X3011001Y-15124036D02*
X3001477Y-15104988D01*
X3001477Y-15104988D02*
X2991953Y-15066893D01*
X2991953Y-15066893D02*
X2991953Y-15019274D01*
X2991953Y-15019274D02*
X3001477Y-14981179D01*
X3001477Y-14981179D02*
X3011001Y-14962131D01*
X3011001Y-14962131D02*
X3020524Y-14952608D01*
X3020524Y-14952608D02*
X3039572Y-14943084D01*
X3191953Y-15124036D02*
X3201477Y-15133560D01*
X3201477Y-15133560D02*
X3191953Y-15143084D01*
X3191953Y-15143084D02*
X3182429Y-15133560D01*
X3182429Y-15133560D02*
X3191953Y-15124036D01*
X3191953Y-15124036D02*
X3191953Y-15143084D01*
X3296715Y-15143084D02*
X3334810Y-15143084D01*
X3334810Y-15143084D02*
X3353858Y-15133560D01*
X3353858Y-15133560D02*
X3363382Y-15124036D01*
X3363382Y-15124036D02*
X3382429Y-15095465D01*
X3382429Y-15095465D02*
X3391953Y-15057369D01*
X3391953Y-15057369D02*
X3391953Y-14981179D01*
X3391953Y-14981179D02*
X3382429Y-14962131D01*
X3382429Y-14962131D02*
X3372905Y-14952608D01*
X3372905Y-14952608D02*
X3353858Y-14943084D01*
X3353858Y-14943084D02*
X3315762Y-14943084D01*
X3315762Y-14943084D02*
X3296715Y-14952608D01*
X3296715Y-14952608D02*
X3287191Y-14962131D01*
X3287191Y-14962131D02*
X3277667Y-14981179D01*
X3277667Y-14981179D02*
X3277667Y-15028798D01*
X3277667Y-15028798D02*
X3287191Y-15047846D01*
X3287191Y-15047846D02*
X3296715Y-15057369D01*
X3296715Y-15057369D02*
X3315762Y-15066893D01*
X3315762Y-15066893D02*
X3353858Y-15066893D01*
X3353858Y-15066893D02*
X3372905Y-15057369D01*
X3372905Y-15057369D02*
X3382429Y-15047846D01*
X3382429Y-15047846D02*
X3391953Y-15028798D01*
X3515762Y-14943084D02*
X3534810Y-14943084D01*
X3534810Y-14943084D02*
X3553858Y-14952608D01*
X3553858Y-14952608D02*
X3563382Y-14962131D01*
X3563382Y-14962131D02*
X3572905Y-14981179D01*
X3572905Y-14981179D02*
X3582429Y-15019274D01*
X3582429Y-15019274D02*
X3582429Y-15066893D01*
X3582429Y-15066893D02*
X3572905Y-15104988D01*
X3572905Y-15104988D02*
X3563382Y-15124036D01*
X3563382Y-15124036D02*
X3553858Y-15133560D01*
X3553858Y-15133560D02*
X3534810Y-15143084D01*
X3534810Y-15143084D02*
X3515762Y-15143084D01*
X3515762Y-15143084D02*
X3496715Y-15133560D01*
X3496715Y-15133560D02*
X3487191Y-15124036D01*
X3487191Y-15124036D02*
X3477667Y-15104988D01*
X3477667Y-15104988D02*
X3468143Y-15066893D01*
X3468143Y-15066893D02*
X3468143Y-15019274D01*
X3468143Y-15019274D02*
X3477667Y-14981179D01*
X3477667Y-14981179D02*
X3487191Y-14962131D01*
X3487191Y-14962131D02*
X3496715Y-14952608D01*
X3496715Y-14952608D02*
X3515762Y-14943084D01*
X3706239Y-14943084D02*
X3725286Y-14943084D01*
X3725286Y-14943084D02*
X3744334Y-14952608D01*
X3744334Y-14952608D02*
X3753858Y-14962131D01*
X3753858Y-14962131D02*
X3763382Y-14981179D01*
X3763382Y-14981179D02*
X3772905Y-15019274D01*
X3772905Y-15019274D02*
X3772905Y-15066893D01*
X3772905Y-15066893D02*
X3763382Y-15104988D01*
X3763382Y-15104988D02*
X3753858Y-15124036D01*
X3753858Y-15124036D02*
X3744334Y-15133560D01*
X3744334Y-15133560D02*
X3725286Y-15143084D01*
X3725286Y-15143084D02*
X3706239Y-15143084D01*
X3706239Y-15143084D02*
X3687191Y-15133560D01*
X3687191Y-15133560D02*
X3677667Y-15124036D01*
X3677667Y-15124036D02*
X3668143Y-15104988D01*
X3668143Y-15104988D02*
X3658620Y-15066893D01*
X3658620Y-15066893D02*
X3658620Y-15019274D01*
X3658620Y-15019274D02*
X3668143Y-14981179D01*
X3668143Y-14981179D02*
X3677667Y-14962131D01*
X3677667Y-14962131D02*
X3687191Y-14952608D01*
X3687191Y-14952608D02*
X3706239Y-14943084D01*
X3858620Y-15143084D02*
X3858620Y-15009750D01*
X3858620Y-15028798D02*
X3868143Y-15019274D01*
X3868143Y-15019274D02*
X3887191Y-15009750D01*
X3887191Y-15009750D02*
X3915763Y-15009750D01*
X3915763Y-15009750D02*
X3934810Y-15019274D01*
X3934810Y-15019274D02*
X3944334Y-15038322D01*
X3944334Y-15038322D02*
X3944334Y-15143084D01*
X3944334Y-15038322D02*
X3953858Y-15019274D01*
X3953858Y-15019274D02*
X3972905Y-15009750D01*
X3972905Y-15009750D02*
X4001477Y-15009750D01*
X4001477Y-15009750D02*
X4020524Y-15019274D01*
X4020524Y-15019274D02*
X4030048Y-15038322D01*
X4030048Y-15038322D02*
X4030048Y-15143084D01*
X4125286Y-15143084D02*
X4125286Y-15009750D01*
X4125286Y-15028798D02*
X4134810Y-15019274D01*
X4134810Y-15019274D02*
X4153858Y-15009750D01*
X4153858Y-15009750D02*
X4182429Y-15009750D01*
X4182429Y-15009750D02*
X4201477Y-15019274D01*
X4201477Y-15019274D02*
X4211001Y-15038322D01*
X4211001Y-15038322D02*
X4211001Y-15143084D01*
X4211001Y-15038322D02*
X4220525Y-15019274D01*
X4220525Y-15019274D02*
X4239572Y-15009750D01*
X4239572Y-15009750D02*
X4268144Y-15009750D01*
X4268144Y-15009750D02*
X4287191Y-15019274D01*
X4287191Y-15019274D02*
X4296715Y-15038322D01*
X4296715Y-15038322D02*
X4296715Y-15143084D01*
X4687191Y-14933560D02*
X4515763Y-15190703D01*
X4944334Y-14943084D02*
X4963382Y-14943084D01*
X4963382Y-14943084D02*
X4982429Y-14952608D01*
X4982429Y-14952608D02*
X4991953Y-14962131D01*
X4991953Y-14962131D02*
X5001477Y-14981179D01*
X5001477Y-14981179D02*
X5011001Y-15019274D01*
X5011001Y-15019274D02*
X5011001Y-15066893D01*
X5011001Y-15066893D02*
X5001477Y-15104988D01*
X5001477Y-15104988D02*
X4991953Y-15124036D01*
X4991953Y-15124036D02*
X4982429Y-15133560D01*
X4982429Y-15133560D02*
X4963382Y-15143084D01*
X4963382Y-15143084D02*
X4944334Y-15143084D01*
X4944334Y-15143084D02*
X4925287Y-15133560D01*
X4925287Y-15133560D02*
X4915763Y-15124036D01*
X4915763Y-15124036D02*
X4906239Y-15104988D01*
X4906239Y-15104988D02*
X4896715Y-15066893D01*
X4896715Y-15066893D02*
X4896715Y-15019274D01*
X4896715Y-15019274D02*
X4906239Y-14981179D01*
X4906239Y-14981179D02*
X4915763Y-14962131D01*
X4915763Y-14962131D02*
X4925287Y-14952608D01*
X4925287Y-14952608D02*
X4944334Y-14943084D01*
X5096715Y-15124036D02*
X5106239Y-15133560D01*
X5106239Y-15133560D02*
X5096715Y-15143084D01*
X5096715Y-15143084D02*
X5087191Y-15133560D01*
X5087191Y-15133560D02*
X5096715Y-15124036D01*
X5096715Y-15124036D02*
X5096715Y-15143084D01*
X5230048Y-14943084D02*
X5249096Y-14943084D01*
X5249096Y-14943084D02*
X5268144Y-14952608D01*
X5268144Y-14952608D02*
X5277668Y-14962131D01*
X5277668Y-14962131D02*
X5287191Y-14981179D01*
X5287191Y-14981179D02*
X5296715Y-15019274D01*
X5296715Y-15019274D02*
X5296715Y-15066893D01*
X5296715Y-15066893D02*
X5287191Y-15104988D01*
X5287191Y-15104988D02*
X5277668Y-15124036D01*
X5277668Y-15124036D02*
X5268144Y-15133560D01*
X5268144Y-15133560D02*
X5249096Y-15143084D01*
X5249096Y-15143084D02*
X5230048Y-15143084D01*
X5230048Y-15143084D02*
X5211001Y-15133560D01*
X5211001Y-15133560D02*
X5201477Y-15124036D01*
X5201477Y-15124036D02*
X5191953Y-15104988D01*
X5191953Y-15104988D02*
X5182429Y-15066893D01*
X5182429Y-15066893D02*
X5182429Y-15019274D01*
X5182429Y-15019274D02*
X5191953Y-14981179D01*
X5191953Y-14981179D02*
X5201477Y-14962131D01*
X5201477Y-14962131D02*
X5211001Y-14952608D01*
X5211001Y-14952608D02*
X5230048Y-14943084D01*
X5363382Y-14943084D02*
X5487191Y-14943084D01*
X5487191Y-14943084D02*
X5420525Y-15019274D01*
X5420525Y-15019274D02*
X5449096Y-15019274D01*
X5449096Y-15019274D02*
X5468144Y-15028798D01*
X5468144Y-15028798D02*
X5477668Y-15038322D01*
X5477668Y-15038322D02*
X5487191Y-15057369D01*
X5487191Y-15057369D02*
X5487191Y-15104988D01*
X5487191Y-15104988D02*
X5477668Y-15124036D01*
X5477668Y-15124036D02*
X5468144Y-15133560D01*
X5468144Y-15133560D02*
X5449096Y-15143084D01*
X5449096Y-15143084D02*
X5391953Y-15143084D01*
X5391953Y-15143084D02*
X5372906Y-15133560D01*
X5372906Y-15133560D02*
X5363382Y-15124036D01*
X5668144Y-14943084D02*
X5572906Y-14943084D01*
X5572906Y-14943084D02*
X5563382Y-15038322D01*
X5563382Y-15038322D02*
X5572906Y-15028798D01*
X5572906Y-15028798D02*
X5591953Y-15019274D01*
X5591953Y-15019274D02*
X5639572Y-15019274D01*
X5639572Y-15019274D02*
X5658620Y-15028798D01*
X5658620Y-15028798D02*
X5668144Y-15038322D01*
X5668144Y-15038322D02*
X5677667Y-15057369D01*
X5677667Y-15057369D02*
X5677667Y-15104988D01*
X5677667Y-15104988D02*
X5668144Y-15124036D01*
X5668144Y-15124036D02*
X5658620Y-15133560D01*
X5658620Y-15133560D02*
X5639572Y-15143084D01*
X5639572Y-15143084D02*
X5591953Y-15143084D01*
X5591953Y-15143084D02*
X5572906Y-15133560D01*
X5572906Y-15133560D02*
X5563382Y-15124036D01*
X5849096Y-15009750D02*
X5849096Y-15143084D01*
X5801477Y-14933560D02*
X5753858Y-15076417D01*
X5753858Y-15076417D02*
X5877667Y-15076417D01*
X5944334Y-14943084D02*
X5944334Y-14981179D01*
X6020525Y-14943084D02*
X6020525Y-14981179D01*
X6315763Y-15219274D02*
X6306239Y-15209750D01*
X6306239Y-15209750D02*
X6287191Y-15181179D01*
X6287191Y-15181179D02*
X6277668Y-15162131D01*
X6277668Y-15162131D02*
X6268144Y-15133560D01*
X6268144Y-15133560D02*
X6258620Y-15085941D01*
X6258620Y-15085941D02*
X6258620Y-15047846D01*
X6258620Y-15047846D02*
X6268144Y-15000227D01*
X6268144Y-15000227D02*
X6277668Y-14971655D01*
X6277668Y-14971655D02*
X6287191Y-14952608D01*
X6287191Y-14952608D02*
X6306239Y-14924036D01*
X6306239Y-14924036D02*
X6315763Y-14914512D01*
X6477668Y-14943084D02*
X6439572Y-14943084D01*
X6439572Y-14943084D02*
X6420525Y-14952608D01*
X6420525Y-14952608D02*
X6411001Y-14962131D01*
X6411001Y-14962131D02*
X6391953Y-14990703D01*
X6391953Y-14990703D02*
X6382429Y-15028798D01*
X6382429Y-15028798D02*
X6382429Y-15104988D01*
X6382429Y-15104988D02*
X6391953Y-15124036D01*
X6391953Y-15124036D02*
X6401477Y-15133560D01*
X6401477Y-15133560D02*
X6420525Y-15143084D01*
X6420525Y-15143084D02*
X6458620Y-15143084D01*
X6458620Y-15143084D02*
X6477668Y-15133560D01*
X6477668Y-15133560D02*
X6487191Y-15124036D01*
X6487191Y-15124036D02*
X6496715Y-15104988D01*
X6496715Y-15104988D02*
X6496715Y-15057369D01*
X6496715Y-15057369D02*
X6487191Y-15038322D01*
X6487191Y-15038322D02*
X6477668Y-15028798D01*
X6477668Y-15028798D02*
X6458620Y-15019274D01*
X6458620Y-15019274D02*
X6420525Y-15019274D01*
X6420525Y-15019274D02*
X6401477Y-15028798D01*
X6401477Y-15028798D02*
X6391953Y-15038322D01*
X6391953Y-15038322D02*
X6382429Y-15057369D01*
X6734810Y-15143084D02*
X6734810Y-14943084D01*
X6820525Y-15143084D02*
X6820525Y-15038322D01*
X6820525Y-15038322D02*
X6811001Y-15019274D01*
X6811001Y-15019274D02*
X6791953Y-15009750D01*
X6791953Y-15009750D02*
X6763382Y-15009750D01*
X6763382Y-15009750D02*
X6744334Y-15019274D01*
X6744334Y-15019274D02*
X6734810Y-15028798D01*
X6944334Y-15143084D02*
X6925287Y-15133560D01*
X6925287Y-15133560D02*
X6915763Y-15124036D01*
X6915763Y-15124036D02*
X6906239Y-15104988D01*
X6906239Y-15104988D02*
X6906239Y-15047846D01*
X6906239Y-15047846D02*
X6915763Y-15028798D01*
X6915763Y-15028798D02*
X6925287Y-15019274D01*
X6925287Y-15019274D02*
X6944334Y-15009750D01*
X6944334Y-15009750D02*
X6972906Y-15009750D01*
X6972906Y-15009750D02*
X6991953Y-15019274D01*
X6991953Y-15019274D02*
X7001477Y-15028798D01*
X7001477Y-15028798D02*
X7011001Y-15047846D01*
X7011001Y-15047846D02*
X7011001Y-15104988D01*
X7011001Y-15104988D02*
X7001477Y-15124036D01*
X7001477Y-15124036D02*
X6991953Y-15133560D01*
X6991953Y-15133560D02*
X6972906Y-15143084D01*
X6972906Y-15143084D02*
X6944334Y-15143084D01*
X7125287Y-15143084D02*
X7106239Y-15133560D01*
X7106239Y-15133560D02*
X7096715Y-15114512D01*
X7096715Y-15114512D02*
X7096715Y-14943084D01*
X7277668Y-15133560D02*
X7258620Y-15143084D01*
X7258620Y-15143084D02*
X7220525Y-15143084D01*
X7220525Y-15143084D02*
X7201477Y-15133560D01*
X7201477Y-15133560D02*
X7191953Y-15114512D01*
X7191953Y-15114512D02*
X7191953Y-15038322D01*
X7191953Y-15038322D02*
X7201477Y-15019274D01*
X7201477Y-15019274D02*
X7220525Y-15009750D01*
X7220525Y-15009750D02*
X7258620Y-15009750D01*
X7258620Y-15009750D02*
X7277668Y-15019274D01*
X7277668Y-15019274D02*
X7287191Y-15038322D01*
X7287191Y-15038322D02*
X7287191Y-15057369D01*
X7287191Y-15057369D02*
X7191953Y-15076417D01*
X7363382Y-15133560D02*
X7382430Y-15143084D01*
X7382430Y-15143084D02*
X7420525Y-15143084D01*
X7420525Y-15143084D02*
X7439572Y-15133560D01*
X7439572Y-15133560D02*
X7449096Y-15114512D01*
X7449096Y-15114512D02*
X7449096Y-15104988D01*
X7449096Y-15104988D02*
X7439572Y-15085941D01*
X7439572Y-15085941D02*
X7420525Y-15076417D01*
X7420525Y-15076417D02*
X7391953Y-15076417D01*
X7391953Y-15076417D02*
X7372906Y-15066893D01*
X7372906Y-15066893D02*
X7363382Y-15047846D01*
X7363382Y-15047846D02*
X7363382Y-15038322D01*
X7363382Y-15038322D02*
X7372906Y-15019274D01*
X7372906Y-15019274D02*
X7391953Y-15009750D01*
X7391953Y-15009750D02*
X7420525Y-15009750D01*
X7420525Y-15009750D02*
X7439572Y-15019274D01*
X7515763Y-15219274D02*
X7525287Y-15209750D01*
X7525287Y-15209750D02*
X7544334Y-15181179D01*
X7544334Y-15181179D02*
X7553858Y-15162131D01*
X7553858Y-15162131D02*
X7563382Y-15133560D01*
X7563382Y-15133560D02*
X7572906Y-15085941D01*
X7572906Y-15085941D02*
X7572906Y-15047846D01*
X7572906Y-15047846D02*
X7563382Y-15000227D01*
X7563382Y-15000227D02*
X7553858Y-14971655D01*
X7553858Y-14971655D02*
X7544334Y-14952608D01*
X7544334Y-14952608D02*
X7525287Y-14924036D01*
X7525287Y-14924036D02*
X7515763Y-14914512D01*
D12*
X2726056Y-15350956D02*
X2726056Y-15280244D01*
X2655344Y-15280244D01*
X2655344Y-15350956D01*
X2726056Y-15350956D01*
D11*
X3106239Y-15407084D02*
X2991953Y-15407084D01*
X3049096Y-15407084D02*
X3049096Y-15207084D01*
X3049096Y-15207084D02*
X3030048Y-15235655D01*
X3030048Y-15235655D02*
X3011001Y-15254703D01*
X3011001Y-15254703D02*
X2991953Y-15264227D01*
X3191953Y-15388036D02*
X3201477Y-15397560D01*
X3201477Y-15397560D02*
X3191953Y-15407084D01*
X3191953Y-15407084D02*
X3182429Y-15397560D01*
X3182429Y-15397560D02*
X3191953Y-15388036D01*
X3191953Y-15388036D02*
X3191953Y-15407084D01*
X3325286Y-15207084D02*
X3344334Y-15207084D01*
X3344334Y-15207084D02*
X3363382Y-15216608D01*
X3363382Y-15216608D02*
X3372905Y-15226131D01*
X3372905Y-15226131D02*
X3382429Y-15245179D01*
X3382429Y-15245179D02*
X3391953Y-15283274D01*
X3391953Y-15283274D02*
X3391953Y-15330893D01*
X3391953Y-15330893D02*
X3382429Y-15368988D01*
X3382429Y-15368988D02*
X3372905Y-15388036D01*
X3372905Y-15388036D02*
X3363382Y-15397560D01*
X3363382Y-15397560D02*
X3344334Y-15407084D01*
X3344334Y-15407084D02*
X3325286Y-15407084D01*
X3325286Y-15407084D02*
X3306239Y-15397560D01*
X3306239Y-15397560D02*
X3296715Y-15388036D01*
X3296715Y-15388036D02*
X3287191Y-15368988D01*
X3287191Y-15368988D02*
X3277667Y-15330893D01*
X3277667Y-15330893D02*
X3277667Y-15283274D01*
X3277667Y-15283274D02*
X3287191Y-15245179D01*
X3287191Y-15245179D02*
X3296715Y-15226131D01*
X3296715Y-15226131D02*
X3306239Y-15216608D01*
X3306239Y-15216608D02*
X3325286Y-15207084D01*
X3515762Y-15207084D02*
X3534810Y-15207084D01*
X3534810Y-15207084D02*
X3553858Y-15216608D01*
X3553858Y-15216608D02*
X3563382Y-15226131D01*
X3563382Y-15226131D02*
X3572905Y-15245179D01*
X3572905Y-15245179D02*
X3582429Y-15283274D01*
X3582429Y-15283274D02*
X3582429Y-15330893D01*
X3582429Y-15330893D02*
X3572905Y-15368988D01*
X3572905Y-15368988D02*
X3563382Y-15388036D01*
X3563382Y-15388036D02*
X3553858Y-15397560D01*
X3553858Y-15397560D02*
X3534810Y-15407084D01*
X3534810Y-15407084D02*
X3515762Y-15407084D01*
X3515762Y-15407084D02*
X3496715Y-15397560D01*
X3496715Y-15397560D02*
X3487191Y-15388036D01*
X3487191Y-15388036D02*
X3477667Y-15368988D01*
X3477667Y-15368988D02*
X3468143Y-15330893D01*
X3468143Y-15330893D02*
X3468143Y-15283274D01*
X3468143Y-15283274D02*
X3477667Y-15245179D01*
X3477667Y-15245179D02*
X3487191Y-15226131D01*
X3487191Y-15226131D02*
X3496715Y-15216608D01*
X3496715Y-15216608D02*
X3515762Y-15207084D01*
X3706239Y-15207084D02*
X3725286Y-15207084D01*
X3725286Y-15207084D02*
X3744334Y-15216608D01*
X3744334Y-15216608D02*
X3753858Y-15226131D01*
X3753858Y-15226131D02*
X3763382Y-15245179D01*
X3763382Y-15245179D02*
X3772905Y-15283274D01*
X3772905Y-15283274D02*
X3772905Y-15330893D01*
X3772905Y-15330893D02*
X3763382Y-15368988D01*
X3763382Y-15368988D02*
X3753858Y-15388036D01*
X3753858Y-15388036D02*
X3744334Y-15397560D01*
X3744334Y-15397560D02*
X3725286Y-15407084D01*
X3725286Y-15407084D02*
X3706239Y-15407084D01*
X3706239Y-15407084D02*
X3687191Y-15397560D01*
X3687191Y-15397560D02*
X3677667Y-15388036D01*
X3677667Y-15388036D02*
X3668143Y-15368988D01*
X3668143Y-15368988D02*
X3658620Y-15330893D01*
X3658620Y-15330893D02*
X3658620Y-15283274D01*
X3658620Y-15283274D02*
X3668143Y-15245179D01*
X3668143Y-15245179D02*
X3677667Y-15226131D01*
X3677667Y-15226131D02*
X3687191Y-15216608D01*
X3687191Y-15216608D02*
X3706239Y-15207084D01*
X3858620Y-15407084D02*
X3858620Y-15273750D01*
X3858620Y-15292798D02*
X3868143Y-15283274D01*
X3868143Y-15283274D02*
X3887191Y-15273750D01*
X3887191Y-15273750D02*
X3915763Y-15273750D01*
X3915763Y-15273750D02*
X3934810Y-15283274D01*
X3934810Y-15283274D02*
X3944334Y-15302322D01*
X3944334Y-15302322D02*
X3944334Y-15407084D01*
X3944334Y-15302322D02*
X3953858Y-15283274D01*
X3953858Y-15283274D02*
X3972905Y-15273750D01*
X3972905Y-15273750D02*
X4001477Y-15273750D01*
X4001477Y-15273750D02*
X4020524Y-15283274D01*
X4020524Y-15283274D02*
X4030048Y-15302322D01*
X4030048Y-15302322D02*
X4030048Y-15407084D01*
X4125286Y-15407084D02*
X4125286Y-15273750D01*
X4125286Y-15292798D02*
X4134810Y-15283274D01*
X4134810Y-15283274D02*
X4153858Y-15273750D01*
X4153858Y-15273750D02*
X4182429Y-15273750D01*
X4182429Y-15273750D02*
X4201477Y-15283274D01*
X4201477Y-15283274D02*
X4211001Y-15302322D01*
X4211001Y-15302322D02*
X4211001Y-15407084D01*
X4211001Y-15302322D02*
X4220525Y-15283274D01*
X4220525Y-15283274D02*
X4239572Y-15273750D01*
X4239572Y-15273750D02*
X4268144Y-15273750D01*
X4268144Y-15273750D02*
X4287191Y-15283274D01*
X4287191Y-15283274D02*
X4296715Y-15302322D01*
X4296715Y-15302322D02*
X4296715Y-15407084D01*
X4687191Y-15197560D02*
X4515763Y-15454703D01*
X4944334Y-15207084D02*
X4963382Y-15207084D01*
X4963382Y-15207084D02*
X4982429Y-15216608D01*
X4982429Y-15216608D02*
X4991953Y-15226131D01*
X4991953Y-15226131D02*
X5001477Y-15245179D01*
X5001477Y-15245179D02*
X5011001Y-15283274D01*
X5011001Y-15283274D02*
X5011001Y-15330893D01*
X5011001Y-15330893D02*
X5001477Y-15368988D01*
X5001477Y-15368988D02*
X4991953Y-15388036D01*
X4991953Y-15388036D02*
X4982429Y-15397560D01*
X4982429Y-15397560D02*
X4963382Y-15407084D01*
X4963382Y-15407084D02*
X4944334Y-15407084D01*
X4944334Y-15407084D02*
X4925287Y-15397560D01*
X4925287Y-15397560D02*
X4915763Y-15388036D01*
X4915763Y-15388036D02*
X4906239Y-15368988D01*
X4906239Y-15368988D02*
X4896715Y-15330893D01*
X4896715Y-15330893D02*
X4896715Y-15283274D01*
X4896715Y-15283274D02*
X4906239Y-15245179D01*
X4906239Y-15245179D02*
X4915763Y-15226131D01*
X4915763Y-15226131D02*
X4925287Y-15216608D01*
X4925287Y-15216608D02*
X4944334Y-15207084D01*
X5096715Y-15388036D02*
X5106239Y-15397560D01*
X5106239Y-15397560D02*
X5096715Y-15407084D01*
X5096715Y-15407084D02*
X5087191Y-15397560D01*
X5087191Y-15397560D02*
X5096715Y-15388036D01*
X5096715Y-15388036D02*
X5096715Y-15407084D01*
X5230048Y-15207084D02*
X5249096Y-15207084D01*
X5249096Y-15207084D02*
X5268144Y-15216608D01*
X5268144Y-15216608D02*
X5277668Y-15226131D01*
X5277668Y-15226131D02*
X5287191Y-15245179D01*
X5287191Y-15245179D02*
X5296715Y-15283274D01*
X5296715Y-15283274D02*
X5296715Y-15330893D01*
X5296715Y-15330893D02*
X5287191Y-15368988D01*
X5287191Y-15368988D02*
X5277668Y-15388036D01*
X5277668Y-15388036D02*
X5268144Y-15397560D01*
X5268144Y-15397560D02*
X5249096Y-15407084D01*
X5249096Y-15407084D02*
X5230048Y-15407084D01*
X5230048Y-15407084D02*
X5211001Y-15397560D01*
X5211001Y-15397560D02*
X5201477Y-15388036D01*
X5201477Y-15388036D02*
X5191953Y-15368988D01*
X5191953Y-15368988D02*
X5182429Y-15330893D01*
X5182429Y-15330893D02*
X5182429Y-15283274D01*
X5182429Y-15283274D02*
X5191953Y-15245179D01*
X5191953Y-15245179D02*
X5201477Y-15226131D01*
X5201477Y-15226131D02*
X5211001Y-15216608D01*
X5211001Y-15216608D02*
X5230048Y-15207084D01*
X5363382Y-15207084D02*
X5487191Y-15207084D01*
X5487191Y-15207084D02*
X5420525Y-15283274D01*
X5420525Y-15283274D02*
X5449096Y-15283274D01*
X5449096Y-15283274D02*
X5468144Y-15292798D01*
X5468144Y-15292798D02*
X5477668Y-15302322D01*
X5477668Y-15302322D02*
X5487191Y-15321369D01*
X5487191Y-15321369D02*
X5487191Y-15368988D01*
X5487191Y-15368988D02*
X5477668Y-15388036D01*
X5477668Y-15388036D02*
X5468144Y-15397560D01*
X5468144Y-15397560D02*
X5449096Y-15407084D01*
X5449096Y-15407084D02*
X5391953Y-15407084D01*
X5391953Y-15407084D02*
X5372906Y-15397560D01*
X5372906Y-15397560D02*
X5363382Y-15388036D01*
X5582429Y-15407084D02*
X5620525Y-15407084D01*
X5620525Y-15407084D02*
X5639572Y-15397560D01*
X5639572Y-15397560D02*
X5649096Y-15388036D01*
X5649096Y-15388036D02*
X5668144Y-15359465D01*
X5668144Y-15359465D02*
X5677667Y-15321369D01*
X5677667Y-15321369D02*
X5677667Y-15245179D01*
X5677667Y-15245179D02*
X5668144Y-15226131D01*
X5668144Y-15226131D02*
X5658620Y-15216608D01*
X5658620Y-15216608D02*
X5639572Y-15207084D01*
X5639572Y-15207084D02*
X5601477Y-15207084D01*
X5601477Y-15207084D02*
X5582429Y-15216608D01*
X5582429Y-15216608D02*
X5572906Y-15226131D01*
X5572906Y-15226131D02*
X5563382Y-15245179D01*
X5563382Y-15245179D02*
X5563382Y-15292798D01*
X5563382Y-15292798D02*
X5572906Y-15311846D01*
X5572906Y-15311846D02*
X5582429Y-15321369D01*
X5582429Y-15321369D02*
X5601477Y-15330893D01*
X5601477Y-15330893D02*
X5639572Y-15330893D01*
X5639572Y-15330893D02*
X5658620Y-15321369D01*
X5658620Y-15321369D02*
X5668144Y-15311846D01*
X5668144Y-15311846D02*
X5677667Y-15292798D01*
X5849096Y-15273750D02*
X5849096Y-15407084D01*
X5801477Y-15197560D02*
X5753858Y-15340417D01*
X5753858Y-15340417D02*
X5877667Y-15340417D01*
X5944334Y-15207084D02*
X5944334Y-15245179D01*
X6020525Y-15207084D02*
X6020525Y-15245179D01*
X6315763Y-15483274D02*
X6306239Y-15473750D01*
X6306239Y-15473750D02*
X6287191Y-15445179D01*
X6287191Y-15445179D02*
X6277668Y-15426131D01*
X6277668Y-15426131D02*
X6268144Y-15397560D01*
X6268144Y-15397560D02*
X6258620Y-15349941D01*
X6258620Y-15349941D02*
X6258620Y-15311846D01*
X6258620Y-15311846D02*
X6268144Y-15264227D01*
X6268144Y-15264227D02*
X6277668Y-15235655D01*
X6277668Y-15235655D02*
X6287191Y-15216608D01*
X6287191Y-15216608D02*
X6306239Y-15188036D01*
X6306239Y-15188036D02*
X6315763Y-15178512D01*
X6496715Y-15407084D02*
X6382429Y-15407084D01*
X6439572Y-15407084D02*
X6439572Y-15207084D01*
X6439572Y-15207084D02*
X6420525Y-15235655D01*
X6420525Y-15235655D02*
X6401477Y-15254703D01*
X6401477Y-15254703D02*
X6382429Y-15264227D01*
X6620525Y-15207084D02*
X6639572Y-15207084D01*
X6639572Y-15207084D02*
X6658620Y-15216608D01*
X6658620Y-15216608D02*
X6668144Y-15226131D01*
X6668144Y-15226131D02*
X6677668Y-15245179D01*
X6677668Y-15245179D02*
X6687191Y-15283274D01*
X6687191Y-15283274D02*
X6687191Y-15330893D01*
X6687191Y-15330893D02*
X6677668Y-15368988D01*
X6677668Y-15368988D02*
X6668144Y-15388036D01*
X6668144Y-15388036D02*
X6658620Y-15397560D01*
X6658620Y-15397560D02*
X6639572Y-15407084D01*
X6639572Y-15407084D02*
X6620525Y-15407084D01*
X6620525Y-15407084D02*
X6601477Y-15397560D01*
X6601477Y-15397560D02*
X6591953Y-15388036D01*
X6591953Y-15388036D02*
X6582429Y-15368988D01*
X6582429Y-15368988D02*
X6572906Y-15330893D01*
X6572906Y-15330893D02*
X6572906Y-15283274D01*
X6572906Y-15283274D02*
X6582429Y-15245179D01*
X6582429Y-15245179D02*
X6591953Y-15226131D01*
X6591953Y-15226131D02*
X6601477Y-15216608D01*
X6601477Y-15216608D02*
X6620525Y-15207084D01*
X6925287Y-15407084D02*
X6925287Y-15207084D01*
X7011001Y-15407084D02*
X7011001Y-15302322D01*
X7011001Y-15302322D02*
X7001477Y-15283274D01*
X7001477Y-15283274D02*
X6982430Y-15273750D01*
X6982430Y-15273750D02*
X6953858Y-15273750D01*
X6953858Y-15273750D02*
X6934810Y-15283274D01*
X6934810Y-15283274D02*
X6925287Y-15292798D01*
X7134810Y-15407084D02*
X7115763Y-15397560D01*
X7115763Y-15397560D02*
X7106239Y-15388036D01*
X7106239Y-15388036D02*
X7096715Y-15368988D01*
X7096715Y-15368988D02*
X7096715Y-15311846D01*
X7096715Y-15311846D02*
X7106239Y-15292798D01*
X7106239Y-15292798D02*
X7115763Y-15283274D01*
X7115763Y-15283274D02*
X7134810Y-15273750D01*
X7134810Y-15273750D02*
X7163382Y-15273750D01*
X7163382Y-15273750D02*
X7182430Y-15283274D01*
X7182430Y-15283274D02*
X7191953Y-15292798D01*
X7191953Y-15292798D02*
X7201477Y-15311846D01*
X7201477Y-15311846D02*
X7201477Y-15368988D01*
X7201477Y-15368988D02*
X7191953Y-15388036D01*
X7191953Y-15388036D02*
X7182430Y-15397560D01*
X7182430Y-15397560D02*
X7163382Y-15407084D01*
X7163382Y-15407084D02*
X7134810Y-15407084D01*
X7315763Y-15407084D02*
X7296715Y-15397560D01*
X7296715Y-15397560D02*
X7287191Y-15378512D01*
X7287191Y-15378512D02*
X7287191Y-15207084D01*
X7468144Y-15397560D02*
X7449096Y-15407084D01*
X7449096Y-15407084D02*
X7411001Y-15407084D01*
X7411001Y-15407084D02*
X7391953Y-15397560D01*
X7391953Y-15397560D02*
X7382430Y-15378512D01*
X7382430Y-15378512D02*
X7382430Y-15302322D01*
X7382430Y-15302322D02*
X7391953Y-15283274D01*
X7391953Y-15283274D02*
X7411001Y-15273750D01*
X7411001Y-15273750D02*
X7449096Y-15273750D01*
X7449096Y-15273750D02*
X7468144Y-15283274D01*
X7468144Y-15283274D02*
X7477668Y-15302322D01*
X7477668Y-15302322D02*
X7477668Y-15321369D01*
X7477668Y-15321369D02*
X7382430Y-15340417D01*
X7553858Y-15397560D02*
X7572906Y-15407084D01*
X7572906Y-15407084D02*
X7611001Y-15407084D01*
X7611001Y-15407084D02*
X7630049Y-15397560D01*
X7630049Y-15397560D02*
X7639572Y-15378512D01*
X7639572Y-15378512D02*
X7639572Y-15368988D01*
X7639572Y-15368988D02*
X7630049Y-15349941D01*
X7630049Y-15349941D02*
X7611001Y-15340417D01*
X7611001Y-15340417D02*
X7582430Y-15340417D01*
X7582430Y-15340417D02*
X7563382Y-15330893D01*
X7563382Y-15330893D02*
X7553858Y-15311846D01*
X7553858Y-15311846D02*
X7553858Y-15302322D01*
X7553858Y-15302322D02*
X7563382Y-15283274D01*
X7563382Y-15283274D02*
X7582430Y-15273750D01*
X7582430Y-15273750D02*
X7611001Y-15273750D01*
X7611001Y-15273750D02*
X7630049Y-15283274D01*
X7706239Y-15483274D02*
X7715763Y-15473750D01*
X7715763Y-15473750D02*
X7734811Y-15445179D01*
X7734811Y-15445179D02*
X7744334Y-15426131D01*
X7744334Y-15426131D02*
X7753858Y-15397560D01*
X7753858Y-15397560D02*
X7763382Y-15349941D01*
X7763382Y-15349941D02*
X7763382Y-15311846D01*
X7763382Y-15311846D02*
X7753858Y-15264227D01*
X7753858Y-15264227D02*
X7744334Y-15235655D01*
X7744334Y-15235655D02*
X7734811Y-15216608D01*
X7734811Y-15216608D02*
X7715763Y-15188036D01*
X7715763Y-15188036D02*
X7706239Y-15178512D01*
D13*
X2687360Y-15632940D02*
X2740700Y-15579600D01*
X2687360Y-15526260D01*
X2634020Y-15579600D01*
X2687360Y-15632940D01*
D11*
X3106239Y-15671084D02*
X2991953Y-15671084D01*
X3049096Y-15671084D02*
X3049096Y-15471084D01*
X3049096Y-15471084D02*
X3030048Y-15499655D01*
X3030048Y-15499655D02*
X3011001Y-15518703D01*
X3011001Y-15518703D02*
X2991953Y-15528227D01*
X3191953Y-15652036D02*
X3201477Y-15661560D01*
X3201477Y-15661560D02*
X3191953Y-15671084D01*
X3191953Y-15671084D02*
X3182429Y-15661560D01*
X3182429Y-15661560D02*
X3191953Y-15652036D01*
X3191953Y-15652036D02*
X3191953Y-15671084D01*
X3325286Y-15471084D02*
X3344334Y-15471084D01*
X3344334Y-15471084D02*
X3363382Y-15480608D01*
X3363382Y-15480608D02*
X3372905Y-15490131D01*
X3372905Y-15490131D02*
X3382429Y-15509179D01*
X3382429Y-15509179D02*
X3391953Y-15547274D01*
X3391953Y-15547274D02*
X3391953Y-15594893D01*
X3391953Y-15594893D02*
X3382429Y-15632988D01*
X3382429Y-15632988D02*
X3372905Y-15652036D01*
X3372905Y-15652036D02*
X3363382Y-15661560D01*
X3363382Y-15661560D02*
X3344334Y-15671084D01*
X3344334Y-15671084D02*
X3325286Y-15671084D01*
X3325286Y-15671084D02*
X3306239Y-15661560D01*
X3306239Y-15661560D02*
X3296715Y-15652036D01*
X3296715Y-15652036D02*
X3287191Y-15632988D01*
X3287191Y-15632988D02*
X3277667Y-15594893D01*
X3277667Y-15594893D02*
X3277667Y-15547274D01*
X3277667Y-15547274D02*
X3287191Y-15509179D01*
X3287191Y-15509179D02*
X3296715Y-15490131D01*
X3296715Y-15490131D02*
X3306239Y-15480608D01*
X3306239Y-15480608D02*
X3325286Y-15471084D01*
X3563382Y-15471084D02*
X3525286Y-15471084D01*
X3525286Y-15471084D02*
X3506239Y-15480608D01*
X3506239Y-15480608D02*
X3496715Y-15490131D01*
X3496715Y-15490131D02*
X3477667Y-15518703D01*
X3477667Y-15518703D02*
X3468143Y-15556798D01*
X3468143Y-15556798D02*
X3468143Y-15632988D01*
X3468143Y-15632988D02*
X3477667Y-15652036D01*
X3477667Y-15652036D02*
X3487191Y-15661560D01*
X3487191Y-15661560D02*
X3506239Y-15671084D01*
X3506239Y-15671084D02*
X3544334Y-15671084D01*
X3544334Y-15671084D02*
X3563382Y-15661560D01*
X3563382Y-15661560D02*
X3572905Y-15652036D01*
X3572905Y-15652036D02*
X3582429Y-15632988D01*
X3582429Y-15632988D02*
X3582429Y-15585369D01*
X3582429Y-15585369D02*
X3572905Y-15566322D01*
X3572905Y-15566322D02*
X3563382Y-15556798D01*
X3563382Y-15556798D02*
X3544334Y-15547274D01*
X3544334Y-15547274D02*
X3506239Y-15547274D01*
X3506239Y-15547274D02*
X3487191Y-15556798D01*
X3487191Y-15556798D02*
X3477667Y-15566322D01*
X3477667Y-15566322D02*
X3468143Y-15585369D01*
X3649096Y-15471084D02*
X3782429Y-15471084D01*
X3782429Y-15471084D02*
X3696715Y-15671084D01*
X3858620Y-15671084D02*
X3858620Y-15537750D01*
X3858620Y-15556798D02*
X3868143Y-15547274D01*
X3868143Y-15547274D02*
X3887191Y-15537750D01*
X3887191Y-15537750D02*
X3915763Y-15537750D01*
X3915763Y-15537750D02*
X3934810Y-15547274D01*
X3934810Y-15547274D02*
X3944334Y-15566322D01*
X3944334Y-15566322D02*
X3944334Y-15671084D01*
X3944334Y-15566322D02*
X3953858Y-15547274D01*
X3953858Y-15547274D02*
X3972905Y-15537750D01*
X3972905Y-15537750D02*
X4001477Y-15537750D01*
X4001477Y-15537750D02*
X4020524Y-15547274D01*
X4020524Y-15547274D02*
X4030048Y-15566322D01*
X4030048Y-15566322D02*
X4030048Y-15671084D01*
X4125286Y-15671084D02*
X4125286Y-15537750D01*
X4125286Y-15556798D02*
X4134810Y-15547274D01*
X4134810Y-15547274D02*
X4153858Y-15537750D01*
X4153858Y-15537750D02*
X4182429Y-15537750D01*
X4182429Y-15537750D02*
X4201477Y-15547274D01*
X4201477Y-15547274D02*
X4211001Y-15566322D01*
X4211001Y-15566322D02*
X4211001Y-15671084D01*
X4211001Y-15566322D02*
X4220525Y-15547274D01*
X4220525Y-15547274D02*
X4239572Y-15537750D01*
X4239572Y-15537750D02*
X4268144Y-15537750D01*
X4268144Y-15537750D02*
X4287191Y-15547274D01*
X4287191Y-15547274D02*
X4296715Y-15566322D01*
X4296715Y-15566322D02*
X4296715Y-15671084D01*
X4687191Y-15461560D02*
X4515763Y-15718703D01*
X4944334Y-15471084D02*
X4963382Y-15471084D01*
X4963382Y-15471084D02*
X4982429Y-15480608D01*
X4982429Y-15480608D02*
X4991953Y-15490131D01*
X4991953Y-15490131D02*
X5001477Y-15509179D01*
X5001477Y-15509179D02*
X5011001Y-15547274D01*
X5011001Y-15547274D02*
X5011001Y-15594893D01*
X5011001Y-15594893D02*
X5001477Y-15632988D01*
X5001477Y-15632988D02*
X4991953Y-15652036D01*
X4991953Y-15652036D02*
X4982429Y-15661560D01*
X4982429Y-15661560D02*
X4963382Y-15671084D01*
X4963382Y-15671084D02*
X4944334Y-15671084D01*
X4944334Y-15671084D02*
X4925287Y-15661560D01*
X4925287Y-15661560D02*
X4915763Y-15652036D01*
X4915763Y-15652036D02*
X4906239Y-15632988D01*
X4906239Y-15632988D02*
X4896715Y-15594893D01*
X4896715Y-15594893D02*
X4896715Y-15547274D01*
X4896715Y-15547274D02*
X4906239Y-15509179D01*
X4906239Y-15509179D02*
X4915763Y-15490131D01*
X4915763Y-15490131D02*
X4925287Y-15480608D01*
X4925287Y-15480608D02*
X4944334Y-15471084D01*
X5096715Y-15652036D02*
X5106239Y-15661560D01*
X5106239Y-15661560D02*
X5096715Y-15671084D01*
X5096715Y-15671084D02*
X5087191Y-15661560D01*
X5087191Y-15661560D02*
X5096715Y-15652036D01*
X5096715Y-15652036D02*
X5096715Y-15671084D01*
X5230048Y-15471084D02*
X5249096Y-15471084D01*
X5249096Y-15471084D02*
X5268144Y-15480608D01*
X5268144Y-15480608D02*
X5277668Y-15490131D01*
X5277668Y-15490131D02*
X5287191Y-15509179D01*
X5287191Y-15509179D02*
X5296715Y-15547274D01*
X5296715Y-15547274D02*
X5296715Y-15594893D01*
X5296715Y-15594893D02*
X5287191Y-15632988D01*
X5287191Y-15632988D02*
X5277668Y-15652036D01*
X5277668Y-15652036D02*
X5268144Y-15661560D01*
X5268144Y-15661560D02*
X5249096Y-15671084D01*
X5249096Y-15671084D02*
X5230048Y-15671084D01*
X5230048Y-15671084D02*
X5211001Y-15661560D01*
X5211001Y-15661560D02*
X5201477Y-15652036D01*
X5201477Y-15652036D02*
X5191953Y-15632988D01*
X5191953Y-15632988D02*
X5182429Y-15594893D01*
X5182429Y-15594893D02*
X5182429Y-15547274D01*
X5182429Y-15547274D02*
X5191953Y-15509179D01*
X5191953Y-15509179D02*
X5201477Y-15490131D01*
X5201477Y-15490131D02*
X5211001Y-15480608D01*
X5211001Y-15480608D02*
X5230048Y-15471084D01*
X5468144Y-15537750D02*
X5468144Y-15671084D01*
X5420525Y-15461560D02*
X5372906Y-15604417D01*
X5372906Y-15604417D02*
X5496715Y-15604417D01*
X5563382Y-15490131D02*
X5572906Y-15480608D01*
X5572906Y-15480608D02*
X5591953Y-15471084D01*
X5591953Y-15471084D02*
X5639572Y-15471084D01*
X5639572Y-15471084D02*
X5658620Y-15480608D01*
X5658620Y-15480608D02*
X5668144Y-15490131D01*
X5668144Y-15490131D02*
X5677667Y-15509179D01*
X5677667Y-15509179D02*
X5677667Y-15528227D01*
X5677667Y-15528227D02*
X5668144Y-15556798D01*
X5668144Y-15556798D02*
X5553858Y-15671084D01*
X5553858Y-15671084D02*
X5677667Y-15671084D01*
X5801477Y-15471084D02*
X5820525Y-15471084D01*
X5820525Y-15471084D02*
X5839572Y-15480608D01*
X5839572Y-15480608D02*
X5849096Y-15490131D01*
X5849096Y-15490131D02*
X5858620Y-15509179D01*
X5858620Y-15509179D02*
X5868144Y-15547274D01*
X5868144Y-15547274D02*
X5868144Y-15594893D01*
X5868144Y-15594893D02*
X5858620Y-15632988D01*
X5858620Y-15632988D02*
X5849096Y-15652036D01*
X5849096Y-15652036D02*
X5839572Y-15661560D01*
X5839572Y-15661560D02*
X5820525Y-15671084D01*
X5820525Y-15671084D02*
X5801477Y-15671084D01*
X5801477Y-15671084D02*
X5782429Y-15661560D01*
X5782429Y-15661560D02*
X5772906Y-15652036D01*
X5772906Y-15652036D02*
X5763382Y-15632988D01*
X5763382Y-15632988D02*
X5753858Y-15594893D01*
X5753858Y-15594893D02*
X5753858Y-15547274D01*
X5753858Y-15547274D02*
X5763382Y-15509179D01*
X5763382Y-15509179D02*
X5772906Y-15490131D01*
X5772906Y-15490131D02*
X5782429Y-15480608D01*
X5782429Y-15480608D02*
X5801477Y-15471084D01*
X5944334Y-15471084D02*
X5944334Y-15509179D01*
X6020525Y-15471084D02*
X6020525Y-15509179D01*
X6315763Y-15747274D02*
X6306239Y-15737750D01*
X6306239Y-15737750D02*
X6287191Y-15709179D01*
X6287191Y-15709179D02*
X6277668Y-15690131D01*
X6277668Y-15690131D02*
X6268144Y-15661560D01*
X6268144Y-15661560D02*
X6258620Y-15613941D01*
X6258620Y-15613941D02*
X6258620Y-15575846D01*
X6258620Y-15575846D02*
X6268144Y-15528227D01*
X6268144Y-15528227D02*
X6277668Y-15499655D01*
X6277668Y-15499655D02*
X6287191Y-15480608D01*
X6287191Y-15480608D02*
X6306239Y-15452036D01*
X6306239Y-15452036D02*
X6315763Y-15442512D01*
X6477668Y-15537750D02*
X6477668Y-15671084D01*
X6430048Y-15461560D02*
X6382429Y-15604417D01*
X6382429Y-15604417D02*
X6506239Y-15604417D01*
X6734810Y-15671084D02*
X6734810Y-15471084D01*
X6820525Y-15671084D02*
X6820525Y-15566322D01*
X6820525Y-15566322D02*
X6811001Y-15547274D01*
X6811001Y-15547274D02*
X6791953Y-15537750D01*
X6791953Y-15537750D02*
X6763382Y-15537750D01*
X6763382Y-15537750D02*
X6744334Y-15547274D01*
X6744334Y-15547274D02*
X6734810Y-15556798D01*
X6944334Y-15671084D02*
X6925287Y-15661560D01*
X6925287Y-15661560D02*
X6915763Y-15652036D01*
X6915763Y-15652036D02*
X6906239Y-15632988D01*
X6906239Y-15632988D02*
X6906239Y-15575846D01*
X6906239Y-15575846D02*
X6915763Y-15556798D01*
X6915763Y-15556798D02*
X6925287Y-15547274D01*
X6925287Y-15547274D02*
X6944334Y-15537750D01*
X6944334Y-15537750D02*
X6972906Y-15537750D01*
X6972906Y-15537750D02*
X6991953Y-15547274D01*
X6991953Y-15547274D02*
X7001477Y-15556798D01*
X7001477Y-15556798D02*
X7011001Y-15575846D01*
X7011001Y-15575846D02*
X7011001Y-15632988D01*
X7011001Y-15632988D02*
X7001477Y-15652036D01*
X7001477Y-15652036D02*
X6991953Y-15661560D01*
X6991953Y-15661560D02*
X6972906Y-15671084D01*
X6972906Y-15671084D02*
X6944334Y-15671084D01*
X7125287Y-15671084D02*
X7106239Y-15661560D01*
X7106239Y-15661560D02*
X7096715Y-15642512D01*
X7096715Y-15642512D02*
X7096715Y-15471084D01*
X7277668Y-15661560D02*
X7258620Y-15671084D01*
X7258620Y-15671084D02*
X7220525Y-15671084D01*
X7220525Y-15671084D02*
X7201477Y-15661560D01*
X7201477Y-15661560D02*
X7191953Y-15642512D01*
X7191953Y-15642512D02*
X7191953Y-15566322D01*
X7191953Y-15566322D02*
X7201477Y-15547274D01*
X7201477Y-15547274D02*
X7220525Y-15537750D01*
X7220525Y-15537750D02*
X7258620Y-15537750D01*
X7258620Y-15537750D02*
X7277668Y-15547274D01*
X7277668Y-15547274D02*
X7287191Y-15566322D01*
X7287191Y-15566322D02*
X7287191Y-15585369D01*
X7287191Y-15585369D02*
X7191953Y-15604417D01*
X7363382Y-15661560D02*
X7382430Y-15671084D01*
X7382430Y-15671084D02*
X7420525Y-15671084D01*
X7420525Y-15671084D02*
X7439572Y-15661560D01*
X7439572Y-15661560D02*
X7449096Y-15642512D01*
X7449096Y-15642512D02*
X7449096Y-15632988D01*
X7449096Y-15632988D02*
X7439572Y-15613941D01*
X7439572Y-15613941D02*
X7420525Y-15604417D01*
X7420525Y-15604417D02*
X7391953Y-15604417D01*
X7391953Y-15604417D02*
X7372906Y-15594893D01*
X7372906Y-15594893D02*
X7363382Y-15575846D01*
X7363382Y-15575846D02*
X7363382Y-15566322D01*
X7363382Y-15566322D02*
X7372906Y-15547274D01*
X7372906Y-15547274D02*
X7391953Y-15537750D01*
X7391953Y-15537750D02*
X7420525Y-15537750D01*
X7420525Y-15537750D02*
X7439572Y-15547274D01*
X7515763Y-15747274D02*
X7525287Y-15737750D01*
X7525287Y-15737750D02*
X7544334Y-15709179D01*
X7544334Y-15709179D02*
X7553858Y-15690131D01*
X7553858Y-15690131D02*
X7563382Y-15661560D01*
X7563382Y-15661560D02*
X7572906Y-15613941D01*
X7572906Y-15613941D02*
X7572906Y-15575846D01*
X7572906Y-15575846D02*
X7563382Y-15528227D01*
X7563382Y-15528227D02*
X7553858Y-15499655D01*
X7553858Y-15499655D02*
X7544334Y-15480608D01*
X7544334Y-15480608D02*
X7525287Y-15452036D01*
X7525287Y-15452036D02*
X7515763Y-15442512D01*
D14*
X2630700Y-15788600D02*
X2740700Y-15898600D01*
X2740700Y-15788600D02*
X2630700Y-15898600D01*
X2740700Y-15843600D02*
G75*
G02*
X2630700Y-15843600I-55000J0D01*
G01*
X2630700Y-15843600D02*
G75*
G02*
X2740700Y-15843600I55000J0D01*
G01*
D11*
X3106239Y-15935084D02*
X2991953Y-15935084D01*
X3049096Y-15935084D02*
X3049096Y-15735084D01*
X3049096Y-15735084D02*
X3030048Y-15763655D01*
X3030048Y-15763655D02*
X3011001Y-15782703D01*
X3011001Y-15782703D02*
X2991953Y-15792227D01*
X3191953Y-15916036D02*
X3201477Y-15925560D01*
X3201477Y-15925560D02*
X3191953Y-15935084D01*
X3191953Y-15935084D02*
X3182429Y-15925560D01*
X3182429Y-15925560D02*
X3191953Y-15916036D01*
X3191953Y-15916036D02*
X3191953Y-15935084D01*
X3391953Y-15935084D02*
X3277667Y-15935084D01*
X3334810Y-15935084D02*
X3334810Y-15735084D01*
X3334810Y-15735084D02*
X3315762Y-15763655D01*
X3315762Y-15763655D02*
X3296715Y-15782703D01*
X3296715Y-15782703D02*
X3277667Y-15792227D01*
X3515762Y-15735084D02*
X3534810Y-15735084D01*
X3534810Y-15735084D02*
X3553858Y-15744608D01*
X3553858Y-15744608D02*
X3563382Y-15754131D01*
X3563382Y-15754131D02*
X3572905Y-15773179D01*
X3572905Y-15773179D02*
X3582429Y-15811274D01*
X3582429Y-15811274D02*
X3582429Y-15858893D01*
X3582429Y-15858893D02*
X3572905Y-15896988D01*
X3572905Y-15896988D02*
X3563382Y-15916036D01*
X3563382Y-15916036D02*
X3553858Y-15925560D01*
X3553858Y-15925560D02*
X3534810Y-15935084D01*
X3534810Y-15935084D02*
X3515762Y-15935084D01*
X3515762Y-15935084D02*
X3496715Y-15925560D01*
X3496715Y-15925560D02*
X3487191Y-15916036D01*
X3487191Y-15916036D02*
X3477667Y-15896988D01*
X3477667Y-15896988D02*
X3468143Y-15858893D01*
X3468143Y-15858893D02*
X3468143Y-15811274D01*
X3468143Y-15811274D02*
X3477667Y-15773179D01*
X3477667Y-15773179D02*
X3487191Y-15754131D01*
X3487191Y-15754131D02*
X3496715Y-15744608D01*
X3496715Y-15744608D02*
X3515762Y-15735084D01*
X3706239Y-15735084D02*
X3725286Y-15735084D01*
X3725286Y-15735084D02*
X3744334Y-15744608D01*
X3744334Y-15744608D02*
X3753858Y-15754131D01*
X3753858Y-15754131D02*
X3763382Y-15773179D01*
X3763382Y-15773179D02*
X3772905Y-15811274D01*
X3772905Y-15811274D02*
X3772905Y-15858893D01*
X3772905Y-15858893D02*
X3763382Y-15896988D01*
X3763382Y-15896988D02*
X3753858Y-15916036D01*
X3753858Y-15916036D02*
X3744334Y-15925560D01*
X3744334Y-15925560D02*
X3725286Y-15935084D01*
X3725286Y-15935084D02*
X3706239Y-15935084D01*
X3706239Y-15935084D02*
X3687191Y-15925560D01*
X3687191Y-15925560D02*
X3677667Y-15916036D01*
X3677667Y-15916036D02*
X3668143Y-15896988D01*
X3668143Y-15896988D02*
X3658620Y-15858893D01*
X3658620Y-15858893D02*
X3658620Y-15811274D01*
X3658620Y-15811274D02*
X3668143Y-15773179D01*
X3668143Y-15773179D02*
X3677667Y-15754131D01*
X3677667Y-15754131D02*
X3687191Y-15744608D01*
X3687191Y-15744608D02*
X3706239Y-15735084D01*
X3858620Y-15935084D02*
X3858620Y-15801750D01*
X3858620Y-15820798D02*
X3868143Y-15811274D01*
X3868143Y-15811274D02*
X3887191Y-15801750D01*
X3887191Y-15801750D02*
X3915763Y-15801750D01*
X3915763Y-15801750D02*
X3934810Y-15811274D01*
X3934810Y-15811274D02*
X3944334Y-15830322D01*
X3944334Y-15830322D02*
X3944334Y-15935084D01*
X3944334Y-15830322D02*
X3953858Y-15811274D01*
X3953858Y-15811274D02*
X3972905Y-15801750D01*
X3972905Y-15801750D02*
X4001477Y-15801750D01*
X4001477Y-15801750D02*
X4020524Y-15811274D01*
X4020524Y-15811274D02*
X4030048Y-15830322D01*
X4030048Y-15830322D02*
X4030048Y-15935084D01*
X4125286Y-15935084D02*
X4125286Y-15801750D01*
X4125286Y-15820798D02*
X4134810Y-15811274D01*
X4134810Y-15811274D02*
X4153858Y-15801750D01*
X4153858Y-15801750D02*
X4182429Y-15801750D01*
X4182429Y-15801750D02*
X4201477Y-15811274D01*
X4201477Y-15811274D02*
X4211001Y-15830322D01*
X4211001Y-15830322D02*
X4211001Y-15935084D01*
X4211001Y-15830322D02*
X4220525Y-15811274D01*
X4220525Y-15811274D02*
X4239572Y-15801750D01*
X4239572Y-15801750D02*
X4268144Y-15801750D01*
X4268144Y-15801750D02*
X4287191Y-15811274D01*
X4287191Y-15811274D02*
X4296715Y-15830322D01*
X4296715Y-15830322D02*
X4296715Y-15935084D01*
X4687191Y-15725560D02*
X4515763Y-15982703D01*
X4944334Y-15735084D02*
X4963382Y-15735084D01*
X4963382Y-15735084D02*
X4982429Y-15744608D01*
X4982429Y-15744608D02*
X4991953Y-15754131D01*
X4991953Y-15754131D02*
X5001477Y-15773179D01*
X5001477Y-15773179D02*
X5011001Y-15811274D01*
X5011001Y-15811274D02*
X5011001Y-15858893D01*
X5011001Y-15858893D02*
X5001477Y-15896988D01*
X5001477Y-15896988D02*
X4991953Y-15916036D01*
X4991953Y-15916036D02*
X4982429Y-15925560D01*
X4982429Y-15925560D02*
X4963382Y-15935084D01*
X4963382Y-15935084D02*
X4944334Y-15935084D01*
X4944334Y-15935084D02*
X4925287Y-15925560D01*
X4925287Y-15925560D02*
X4915763Y-15916036D01*
X4915763Y-15916036D02*
X4906239Y-15896988D01*
X4906239Y-15896988D02*
X4896715Y-15858893D01*
X4896715Y-15858893D02*
X4896715Y-15811274D01*
X4896715Y-15811274D02*
X4906239Y-15773179D01*
X4906239Y-15773179D02*
X4915763Y-15754131D01*
X4915763Y-15754131D02*
X4925287Y-15744608D01*
X4925287Y-15744608D02*
X4944334Y-15735084D01*
X5096715Y-15916036D02*
X5106239Y-15925560D01*
X5106239Y-15925560D02*
X5096715Y-15935084D01*
X5096715Y-15935084D02*
X5087191Y-15925560D01*
X5087191Y-15925560D02*
X5096715Y-15916036D01*
X5096715Y-15916036D02*
X5096715Y-15935084D01*
X5230048Y-15735084D02*
X5249096Y-15735084D01*
X5249096Y-15735084D02*
X5268144Y-15744608D01*
X5268144Y-15744608D02*
X5277668Y-15754131D01*
X5277668Y-15754131D02*
X5287191Y-15773179D01*
X5287191Y-15773179D02*
X5296715Y-15811274D01*
X5296715Y-15811274D02*
X5296715Y-15858893D01*
X5296715Y-15858893D02*
X5287191Y-15896988D01*
X5287191Y-15896988D02*
X5277668Y-15916036D01*
X5277668Y-15916036D02*
X5268144Y-15925560D01*
X5268144Y-15925560D02*
X5249096Y-15935084D01*
X5249096Y-15935084D02*
X5230048Y-15935084D01*
X5230048Y-15935084D02*
X5211001Y-15925560D01*
X5211001Y-15925560D02*
X5201477Y-15916036D01*
X5201477Y-15916036D02*
X5191953Y-15896988D01*
X5191953Y-15896988D02*
X5182429Y-15858893D01*
X5182429Y-15858893D02*
X5182429Y-15811274D01*
X5182429Y-15811274D02*
X5191953Y-15773179D01*
X5191953Y-15773179D02*
X5201477Y-15754131D01*
X5201477Y-15754131D02*
X5211001Y-15744608D01*
X5211001Y-15744608D02*
X5230048Y-15735084D01*
X5468144Y-15801750D02*
X5468144Y-15935084D01*
X5420525Y-15725560D02*
X5372906Y-15868417D01*
X5372906Y-15868417D02*
X5496715Y-15868417D01*
X5553858Y-15735084D02*
X5677667Y-15735084D01*
X5677667Y-15735084D02*
X5611001Y-15811274D01*
X5611001Y-15811274D02*
X5639572Y-15811274D01*
X5639572Y-15811274D02*
X5658620Y-15820798D01*
X5658620Y-15820798D02*
X5668144Y-15830322D01*
X5668144Y-15830322D02*
X5677667Y-15849369D01*
X5677667Y-15849369D02*
X5677667Y-15896988D01*
X5677667Y-15896988D02*
X5668144Y-15916036D01*
X5668144Y-15916036D02*
X5658620Y-15925560D01*
X5658620Y-15925560D02*
X5639572Y-15935084D01*
X5639572Y-15935084D02*
X5582429Y-15935084D01*
X5582429Y-15935084D02*
X5563382Y-15925560D01*
X5563382Y-15925560D02*
X5553858Y-15916036D01*
X5744334Y-15735084D02*
X5868144Y-15735084D01*
X5868144Y-15735084D02*
X5801477Y-15811274D01*
X5801477Y-15811274D02*
X5830048Y-15811274D01*
X5830048Y-15811274D02*
X5849096Y-15820798D01*
X5849096Y-15820798D02*
X5858620Y-15830322D01*
X5858620Y-15830322D02*
X5868144Y-15849369D01*
X5868144Y-15849369D02*
X5868144Y-15896988D01*
X5868144Y-15896988D02*
X5858620Y-15916036D01*
X5858620Y-15916036D02*
X5849096Y-15925560D01*
X5849096Y-15925560D02*
X5830048Y-15935084D01*
X5830048Y-15935084D02*
X5772906Y-15935084D01*
X5772906Y-15935084D02*
X5753858Y-15925560D01*
X5753858Y-15925560D02*
X5744334Y-15916036D01*
X5944334Y-15735084D02*
X5944334Y-15773179D01*
X6020525Y-15735084D02*
X6020525Y-15773179D01*
X6315763Y-16011274D02*
X6306239Y-16001750D01*
X6306239Y-16001750D02*
X6287191Y-15973179D01*
X6287191Y-15973179D02*
X6277668Y-15954131D01*
X6277668Y-15954131D02*
X6268144Y-15925560D01*
X6268144Y-15925560D02*
X6258620Y-15877941D01*
X6258620Y-15877941D02*
X6258620Y-15839846D01*
X6258620Y-15839846D02*
X6268144Y-15792227D01*
X6268144Y-15792227D02*
X6277668Y-15763655D01*
X6277668Y-15763655D02*
X6287191Y-15744608D01*
X6287191Y-15744608D02*
X6306239Y-15716036D01*
X6306239Y-15716036D02*
X6315763Y-15706512D01*
X6477668Y-15735084D02*
X6439572Y-15735084D01*
X6439572Y-15735084D02*
X6420525Y-15744608D01*
X6420525Y-15744608D02*
X6411001Y-15754131D01*
X6411001Y-15754131D02*
X6391953Y-15782703D01*
X6391953Y-15782703D02*
X6382429Y-15820798D01*
X6382429Y-15820798D02*
X6382429Y-15896988D01*
X6382429Y-15896988D02*
X6391953Y-15916036D01*
X6391953Y-15916036D02*
X6401477Y-15925560D01*
X6401477Y-15925560D02*
X6420525Y-15935084D01*
X6420525Y-15935084D02*
X6458620Y-15935084D01*
X6458620Y-15935084D02*
X6477668Y-15925560D01*
X6477668Y-15925560D02*
X6487191Y-15916036D01*
X6487191Y-15916036D02*
X6496715Y-15896988D01*
X6496715Y-15896988D02*
X6496715Y-15849369D01*
X6496715Y-15849369D02*
X6487191Y-15830322D01*
X6487191Y-15830322D02*
X6477668Y-15820798D01*
X6477668Y-15820798D02*
X6458620Y-15811274D01*
X6458620Y-15811274D02*
X6420525Y-15811274D01*
X6420525Y-15811274D02*
X6401477Y-15820798D01*
X6401477Y-15820798D02*
X6391953Y-15830322D01*
X6391953Y-15830322D02*
X6382429Y-15849369D01*
X6734810Y-15935084D02*
X6734810Y-15735084D01*
X6820525Y-15935084D02*
X6820525Y-15830322D01*
X6820525Y-15830322D02*
X6811001Y-15811274D01*
X6811001Y-15811274D02*
X6791953Y-15801750D01*
X6791953Y-15801750D02*
X6763382Y-15801750D01*
X6763382Y-15801750D02*
X6744334Y-15811274D01*
X6744334Y-15811274D02*
X6734810Y-15820798D01*
X6944334Y-15935084D02*
X6925287Y-15925560D01*
X6925287Y-15925560D02*
X6915763Y-15916036D01*
X6915763Y-15916036D02*
X6906239Y-15896988D01*
X6906239Y-15896988D02*
X6906239Y-15839846D01*
X6906239Y-15839846D02*
X6915763Y-15820798D01*
X6915763Y-15820798D02*
X6925287Y-15811274D01*
X6925287Y-15811274D02*
X6944334Y-15801750D01*
X6944334Y-15801750D02*
X6972906Y-15801750D01*
X6972906Y-15801750D02*
X6991953Y-15811274D01*
X6991953Y-15811274D02*
X7001477Y-15820798D01*
X7001477Y-15820798D02*
X7011001Y-15839846D01*
X7011001Y-15839846D02*
X7011001Y-15896988D01*
X7011001Y-15896988D02*
X7001477Y-15916036D01*
X7001477Y-15916036D02*
X6991953Y-15925560D01*
X6991953Y-15925560D02*
X6972906Y-15935084D01*
X6972906Y-15935084D02*
X6944334Y-15935084D01*
X7125287Y-15935084D02*
X7106239Y-15925560D01*
X7106239Y-15925560D02*
X7096715Y-15906512D01*
X7096715Y-15906512D02*
X7096715Y-15735084D01*
X7277668Y-15925560D02*
X7258620Y-15935084D01*
X7258620Y-15935084D02*
X7220525Y-15935084D01*
X7220525Y-15935084D02*
X7201477Y-15925560D01*
X7201477Y-15925560D02*
X7191953Y-15906512D01*
X7191953Y-15906512D02*
X7191953Y-15830322D01*
X7191953Y-15830322D02*
X7201477Y-15811274D01*
X7201477Y-15811274D02*
X7220525Y-15801750D01*
X7220525Y-15801750D02*
X7258620Y-15801750D01*
X7258620Y-15801750D02*
X7277668Y-15811274D01*
X7277668Y-15811274D02*
X7287191Y-15830322D01*
X7287191Y-15830322D02*
X7287191Y-15849369D01*
X7287191Y-15849369D02*
X7191953Y-15868417D01*
X7363382Y-15925560D02*
X7382430Y-15935084D01*
X7382430Y-15935084D02*
X7420525Y-15935084D01*
X7420525Y-15935084D02*
X7439572Y-15925560D01*
X7439572Y-15925560D02*
X7449096Y-15906512D01*
X7449096Y-15906512D02*
X7449096Y-15896988D01*
X7449096Y-15896988D02*
X7439572Y-15877941D01*
X7439572Y-15877941D02*
X7420525Y-15868417D01*
X7420525Y-15868417D02*
X7391953Y-15868417D01*
X7391953Y-15868417D02*
X7372906Y-15858893D01*
X7372906Y-15858893D02*
X7363382Y-15839846D01*
X7363382Y-15839846D02*
X7363382Y-15830322D01*
X7363382Y-15830322D02*
X7372906Y-15811274D01*
X7372906Y-15811274D02*
X7391953Y-15801750D01*
X7391953Y-15801750D02*
X7420525Y-15801750D01*
X7420525Y-15801750D02*
X7439572Y-15811274D01*
X7515763Y-16011274D02*
X7525287Y-16001750D01*
X7525287Y-16001750D02*
X7544334Y-15973179D01*
X7544334Y-15973179D02*
X7553858Y-15954131D01*
X7553858Y-15954131D02*
X7563382Y-15925560D01*
X7563382Y-15925560D02*
X7572906Y-15877941D01*
X7572906Y-15877941D02*
X7572906Y-15839846D01*
X7572906Y-15839846D02*
X7563382Y-15792227D01*
X7563382Y-15792227D02*
X7553858Y-15763655D01*
X7553858Y-15763655D02*
X7544334Y-15744608D01*
X7544334Y-15744608D02*
X7525287Y-15716036D01*
X7525287Y-15716036D02*
X7515763Y-15706512D01*
D15*
X2600700Y-16037600D02*
X2740700Y-16177600D01*
X2740700Y-16037600D02*
X2600700Y-16177600D01*
X2670700Y-16037600D02*
X2670700Y-16177600D01*
X2600700Y-16107600D02*
X2740700Y-16107600D01*
D11*
X3106239Y-16199084D02*
X2991953Y-16199084D01*
X3049096Y-16199084D02*
X3049096Y-15999084D01*
X3049096Y-15999084D02*
X3030048Y-16027655D01*
X3030048Y-16027655D02*
X3011001Y-16046703D01*
X3011001Y-16046703D02*
X2991953Y-16056227D01*
X3191953Y-16180036D02*
X3201477Y-16189560D01*
X3201477Y-16189560D02*
X3191953Y-16199084D01*
X3191953Y-16199084D02*
X3182429Y-16189560D01*
X3182429Y-16189560D02*
X3191953Y-16180036D01*
X3191953Y-16180036D02*
X3191953Y-16199084D01*
X3372905Y-16065750D02*
X3372905Y-16199084D01*
X3325286Y-15989560D02*
X3277667Y-16132417D01*
X3277667Y-16132417D02*
X3401477Y-16132417D01*
X3515762Y-15999084D02*
X3534810Y-15999084D01*
X3534810Y-15999084D02*
X3553858Y-16008608D01*
X3553858Y-16008608D02*
X3563382Y-16018131D01*
X3563382Y-16018131D02*
X3572905Y-16037179D01*
X3572905Y-16037179D02*
X3582429Y-16075274D01*
X3582429Y-16075274D02*
X3582429Y-16122893D01*
X3582429Y-16122893D02*
X3572905Y-16160988D01*
X3572905Y-16160988D02*
X3563382Y-16180036D01*
X3563382Y-16180036D02*
X3553858Y-16189560D01*
X3553858Y-16189560D02*
X3534810Y-16199084D01*
X3534810Y-16199084D02*
X3515762Y-16199084D01*
X3515762Y-16199084D02*
X3496715Y-16189560D01*
X3496715Y-16189560D02*
X3487191Y-16180036D01*
X3487191Y-16180036D02*
X3477667Y-16160988D01*
X3477667Y-16160988D02*
X3468143Y-16122893D01*
X3468143Y-16122893D02*
X3468143Y-16075274D01*
X3468143Y-16075274D02*
X3477667Y-16037179D01*
X3477667Y-16037179D02*
X3487191Y-16018131D01*
X3487191Y-16018131D02*
X3496715Y-16008608D01*
X3496715Y-16008608D02*
X3515762Y-15999084D01*
X3706239Y-15999084D02*
X3725286Y-15999084D01*
X3725286Y-15999084D02*
X3744334Y-16008608D01*
X3744334Y-16008608D02*
X3753858Y-16018131D01*
X3753858Y-16018131D02*
X3763382Y-16037179D01*
X3763382Y-16037179D02*
X3772905Y-16075274D01*
X3772905Y-16075274D02*
X3772905Y-16122893D01*
X3772905Y-16122893D02*
X3763382Y-16160988D01*
X3763382Y-16160988D02*
X3753858Y-16180036D01*
X3753858Y-16180036D02*
X3744334Y-16189560D01*
X3744334Y-16189560D02*
X3725286Y-16199084D01*
X3725286Y-16199084D02*
X3706239Y-16199084D01*
X3706239Y-16199084D02*
X3687191Y-16189560D01*
X3687191Y-16189560D02*
X3677667Y-16180036D01*
X3677667Y-16180036D02*
X3668143Y-16160988D01*
X3668143Y-16160988D02*
X3658620Y-16122893D01*
X3658620Y-16122893D02*
X3658620Y-16075274D01*
X3658620Y-16075274D02*
X3668143Y-16037179D01*
X3668143Y-16037179D02*
X3677667Y-16018131D01*
X3677667Y-16018131D02*
X3687191Y-16008608D01*
X3687191Y-16008608D02*
X3706239Y-15999084D01*
X3858620Y-16199084D02*
X3858620Y-16065750D01*
X3858620Y-16084798D02*
X3868143Y-16075274D01*
X3868143Y-16075274D02*
X3887191Y-16065750D01*
X3887191Y-16065750D02*
X3915763Y-16065750D01*
X3915763Y-16065750D02*
X3934810Y-16075274D01*
X3934810Y-16075274D02*
X3944334Y-16094322D01*
X3944334Y-16094322D02*
X3944334Y-16199084D01*
X3944334Y-16094322D02*
X3953858Y-16075274D01*
X3953858Y-16075274D02*
X3972905Y-16065750D01*
X3972905Y-16065750D02*
X4001477Y-16065750D01*
X4001477Y-16065750D02*
X4020524Y-16075274D01*
X4020524Y-16075274D02*
X4030048Y-16094322D01*
X4030048Y-16094322D02*
X4030048Y-16199084D01*
X4125286Y-16199084D02*
X4125286Y-16065750D01*
X4125286Y-16084798D02*
X4134810Y-16075274D01*
X4134810Y-16075274D02*
X4153858Y-16065750D01*
X4153858Y-16065750D02*
X4182429Y-16065750D01*
X4182429Y-16065750D02*
X4201477Y-16075274D01*
X4201477Y-16075274D02*
X4211001Y-16094322D01*
X4211001Y-16094322D02*
X4211001Y-16199084D01*
X4211001Y-16094322D02*
X4220525Y-16075274D01*
X4220525Y-16075274D02*
X4239572Y-16065750D01*
X4239572Y-16065750D02*
X4268144Y-16065750D01*
X4268144Y-16065750D02*
X4287191Y-16075274D01*
X4287191Y-16075274D02*
X4296715Y-16094322D01*
X4296715Y-16094322D02*
X4296715Y-16199084D01*
X4687191Y-15989560D02*
X4515763Y-16246703D01*
X4944334Y-15999084D02*
X4963382Y-15999084D01*
X4963382Y-15999084D02*
X4982429Y-16008608D01*
X4982429Y-16008608D02*
X4991953Y-16018131D01*
X4991953Y-16018131D02*
X5001477Y-16037179D01*
X5001477Y-16037179D02*
X5011001Y-16075274D01*
X5011001Y-16075274D02*
X5011001Y-16122893D01*
X5011001Y-16122893D02*
X5001477Y-16160988D01*
X5001477Y-16160988D02*
X4991953Y-16180036D01*
X4991953Y-16180036D02*
X4982429Y-16189560D01*
X4982429Y-16189560D02*
X4963382Y-16199084D01*
X4963382Y-16199084D02*
X4944334Y-16199084D01*
X4944334Y-16199084D02*
X4925287Y-16189560D01*
X4925287Y-16189560D02*
X4915763Y-16180036D01*
X4915763Y-16180036D02*
X4906239Y-16160988D01*
X4906239Y-16160988D02*
X4896715Y-16122893D01*
X4896715Y-16122893D02*
X4896715Y-16075274D01*
X4896715Y-16075274D02*
X4906239Y-16037179D01*
X4906239Y-16037179D02*
X4915763Y-16018131D01*
X4915763Y-16018131D02*
X4925287Y-16008608D01*
X4925287Y-16008608D02*
X4944334Y-15999084D01*
X5096715Y-16180036D02*
X5106239Y-16189560D01*
X5106239Y-16189560D02*
X5096715Y-16199084D01*
X5096715Y-16199084D02*
X5087191Y-16189560D01*
X5087191Y-16189560D02*
X5096715Y-16180036D01*
X5096715Y-16180036D02*
X5096715Y-16199084D01*
X5230048Y-15999084D02*
X5249096Y-15999084D01*
X5249096Y-15999084D02*
X5268144Y-16008608D01*
X5268144Y-16008608D02*
X5277668Y-16018131D01*
X5277668Y-16018131D02*
X5287191Y-16037179D01*
X5287191Y-16037179D02*
X5296715Y-16075274D01*
X5296715Y-16075274D02*
X5296715Y-16122893D01*
X5296715Y-16122893D02*
X5287191Y-16160988D01*
X5287191Y-16160988D02*
X5277668Y-16180036D01*
X5277668Y-16180036D02*
X5268144Y-16189560D01*
X5268144Y-16189560D02*
X5249096Y-16199084D01*
X5249096Y-16199084D02*
X5230048Y-16199084D01*
X5230048Y-16199084D02*
X5211001Y-16189560D01*
X5211001Y-16189560D02*
X5201477Y-16180036D01*
X5201477Y-16180036D02*
X5191953Y-16160988D01*
X5191953Y-16160988D02*
X5182429Y-16122893D01*
X5182429Y-16122893D02*
X5182429Y-16075274D01*
X5182429Y-16075274D02*
X5191953Y-16037179D01*
X5191953Y-16037179D02*
X5201477Y-16018131D01*
X5201477Y-16018131D02*
X5211001Y-16008608D01*
X5211001Y-16008608D02*
X5230048Y-15999084D01*
X5477668Y-15999084D02*
X5382429Y-15999084D01*
X5382429Y-15999084D02*
X5372906Y-16094322D01*
X5372906Y-16094322D02*
X5382429Y-16084798D01*
X5382429Y-16084798D02*
X5401477Y-16075274D01*
X5401477Y-16075274D02*
X5449096Y-16075274D01*
X5449096Y-16075274D02*
X5468144Y-16084798D01*
X5468144Y-16084798D02*
X5477668Y-16094322D01*
X5477668Y-16094322D02*
X5487191Y-16113369D01*
X5487191Y-16113369D02*
X5487191Y-16160988D01*
X5487191Y-16160988D02*
X5477668Y-16180036D01*
X5477668Y-16180036D02*
X5468144Y-16189560D01*
X5468144Y-16189560D02*
X5449096Y-16199084D01*
X5449096Y-16199084D02*
X5401477Y-16199084D01*
X5401477Y-16199084D02*
X5382429Y-16189560D01*
X5382429Y-16189560D02*
X5372906Y-16180036D01*
X5668144Y-15999084D02*
X5572906Y-15999084D01*
X5572906Y-15999084D02*
X5563382Y-16094322D01*
X5563382Y-16094322D02*
X5572906Y-16084798D01*
X5572906Y-16084798D02*
X5591953Y-16075274D01*
X5591953Y-16075274D02*
X5639572Y-16075274D01*
X5639572Y-16075274D02*
X5658620Y-16084798D01*
X5658620Y-16084798D02*
X5668144Y-16094322D01*
X5668144Y-16094322D02*
X5677667Y-16113369D01*
X5677667Y-16113369D02*
X5677667Y-16160988D01*
X5677667Y-16160988D02*
X5668144Y-16180036D01*
X5668144Y-16180036D02*
X5658620Y-16189560D01*
X5658620Y-16189560D02*
X5639572Y-16199084D01*
X5639572Y-16199084D02*
X5591953Y-16199084D01*
X5591953Y-16199084D02*
X5572906Y-16189560D01*
X5572906Y-16189560D02*
X5563382Y-16180036D01*
X5868144Y-16199084D02*
X5753858Y-16199084D01*
X5811001Y-16199084D02*
X5811001Y-15999084D01*
X5811001Y-15999084D02*
X5791953Y-16027655D01*
X5791953Y-16027655D02*
X5772906Y-16046703D01*
X5772906Y-16046703D02*
X5753858Y-16056227D01*
X5944334Y-15999084D02*
X5944334Y-16037179D01*
X6020525Y-15999084D02*
X6020525Y-16037179D01*
X6315763Y-16275274D02*
X6306239Y-16265750D01*
X6306239Y-16265750D02*
X6287191Y-16237179D01*
X6287191Y-16237179D02*
X6277668Y-16218131D01*
X6277668Y-16218131D02*
X6268144Y-16189560D01*
X6268144Y-16189560D02*
X6258620Y-16141941D01*
X6258620Y-16141941D02*
X6258620Y-16103846D01*
X6258620Y-16103846D02*
X6268144Y-16056227D01*
X6268144Y-16056227D02*
X6277668Y-16027655D01*
X6277668Y-16027655D02*
X6287191Y-16008608D01*
X6287191Y-16008608D02*
X6306239Y-15980036D01*
X6306239Y-15980036D02*
X6315763Y-15970512D01*
X6496715Y-16199084D02*
X6382429Y-16199084D01*
X6439572Y-16199084D02*
X6439572Y-15999084D01*
X6439572Y-15999084D02*
X6420525Y-16027655D01*
X6420525Y-16027655D02*
X6401477Y-16046703D01*
X6401477Y-16046703D02*
X6382429Y-16056227D01*
X6572906Y-16018131D02*
X6582429Y-16008608D01*
X6582429Y-16008608D02*
X6601477Y-15999084D01*
X6601477Y-15999084D02*
X6649096Y-15999084D01*
X6649096Y-15999084D02*
X6668144Y-16008608D01*
X6668144Y-16008608D02*
X6677668Y-16018131D01*
X6677668Y-16018131D02*
X6687191Y-16037179D01*
X6687191Y-16037179D02*
X6687191Y-16056227D01*
X6687191Y-16056227D02*
X6677668Y-16084798D01*
X6677668Y-16084798D02*
X6563382Y-16199084D01*
X6563382Y-16199084D02*
X6687191Y-16199084D01*
X6925287Y-16199084D02*
X6925287Y-15999084D01*
X7011001Y-16199084D02*
X7011001Y-16094322D01*
X7011001Y-16094322D02*
X7001477Y-16075274D01*
X7001477Y-16075274D02*
X6982430Y-16065750D01*
X6982430Y-16065750D02*
X6953858Y-16065750D01*
X6953858Y-16065750D02*
X6934810Y-16075274D01*
X6934810Y-16075274D02*
X6925287Y-16084798D01*
X7134810Y-16199084D02*
X7115763Y-16189560D01*
X7115763Y-16189560D02*
X7106239Y-16180036D01*
X7106239Y-16180036D02*
X7096715Y-16160988D01*
X7096715Y-16160988D02*
X7096715Y-16103846D01*
X7096715Y-16103846D02*
X7106239Y-16084798D01*
X7106239Y-16084798D02*
X7115763Y-16075274D01*
X7115763Y-16075274D02*
X7134810Y-16065750D01*
X7134810Y-16065750D02*
X7163382Y-16065750D01*
X7163382Y-16065750D02*
X7182430Y-16075274D01*
X7182430Y-16075274D02*
X7191953Y-16084798D01*
X7191953Y-16084798D02*
X7201477Y-16103846D01*
X7201477Y-16103846D02*
X7201477Y-16160988D01*
X7201477Y-16160988D02*
X7191953Y-16180036D01*
X7191953Y-16180036D02*
X7182430Y-16189560D01*
X7182430Y-16189560D02*
X7163382Y-16199084D01*
X7163382Y-16199084D02*
X7134810Y-16199084D01*
X7315763Y-16199084D02*
X7296715Y-16189560D01*
X7296715Y-16189560D02*
X7287191Y-16170512D01*
X7287191Y-16170512D02*
X7287191Y-15999084D01*
X7468144Y-16189560D02*
X7449096Y-16199084D01*
X7449096Y-16199084D02*
X7411001Y-16199084D01*
X7411001Y-16199084D02*
X7391953Y-16189560D01*
X7391953Y-16189560D02*
X7382430Y-16170512D01*
X7382430Y-16170512D02*
X7382430Y-16094322D01*
X7382430Y-16094322D02*
X7391953Y-16075274D01*
X7391953Y-16075274D02*
X7411001Y-16065750D01*
X7411001Y-16065750D02*
X7449096Y-16065750D01*
X7449096Y-16065750D02*
X7468144Y-16075274D01*
X7468144Y-16075274D02*
X7477668Y-16094322D01*
X7477668Y-16094322D02*
X7477668Y-16113369D01*
X7477668Y-16113369D02*
X7382430Y-16132417D01*
X7553858Y-16189560D02*
X7572906Y-16199084D01*
X7572906Y-16199084D02*
X7611001Y-16199084D01*
X7611001Y-16199084D02*
X7630049Y-16189560D01*
X7630049Y-16189560D02*
X7639572Y-16170512D01*
X7639572Y-16170512D02*
X7639572Y-16160988D01*
X7639572Y-16160988D02*
X7630049Y-16141941D01*
X7630049Y-16141941D02*
X7611001Y-16132417D01*
X7611001Y-16132417D02*
X7582430Y-16132417D01*
X7582430Y-16132417D02*
X7563382Y-16122893D01*
X7563382Y-16122893D02*
X7553858Y-16103846D01*
X7553858Y-16103846D02*
X7553858Y-16094322D01*
X7553858Y-16094322D02*
X7563382Y-16075274D01*
X7563382Y-16075274D02*
X7582430Y-16065750D01*
X7582430Y-16065750D02*
X7611001Y-16065750D01*
X7611001Y-16065750D02*
X7630049Y-16075274D01*
X7706239Y-16275274D02*
X7715763Y-16265750D01*
X7715763Y-16265750D02*
X7734811Y-16237179D01*
X7734811Y-16237179D02*
X7744334Y-16218131D01*
X7744334Y-16218131D02*
X7753858Y-16189560D01*
X7753858Y-16189560D02*
X7763382Y-16141941D01*
X7763382Y-16141941D02*
X7763382Y-16103846D01*
X7763382Y-16103846D02*
X7753858Y-16056227D01*
X7753858Y-16056227D02*
X7744334Y-16027655D01*
X7744334Y-16027655D02*
X7734811Y-16008608D01*
X7734811Y-16008608D02*
X7715763Y-15980036D01*
X7715763Y-15980036D02*
X7706239Y-15970512D01*
X2540700Y-16271600D02*
X2740700Y-16471600D01*
X2740700Y-16271600D02*
X2540700Y-16471600D01*
X2711411Y-16442311D02*
X2711411Y-16300889D01*
X2569989Y-16300889D01*
X2569989Y-16442311D01*
X2711411Y-16442311D01*
X2982429Y-16263084D02*
X3106239Y-16263084D01*
X3106239Y-16263084D02*
X3039572Y-16339274D01*
X3039572Y-16339274D02*
X3068143Y-16339274D01*
X3068143Y-16339274D02*
X3087191Y-16348798D01*
X3087191Y-16348798D02*
X3096715Y-16358322D01*
X3096715Y-16358322D02*
X3106239Y-16377369D01*
X3106239Y-16377369D02*
X3106239Y-16424988D01*
X3106239Y-16424988D02*
X3096715Y-16444036D01*
X3096715Y-16444036D02*
X3087191Y-16453560D01*
X3087191Y-16453560D02*
X3068143Y-16463084D01*
X3068143Y-16463084D02*
X3011001Y-16463084D01*
X3011001Y-16463084D02*
X2991953Y-16453560D01*
X2991953Y-16453560D02*
X2982429Y-16444036D01*
X3191953Y-16444036D02*
X3201477Y-16453560D01*
X3201477Y-16453560D02*
X3191953Y-16463084D01*
X3191953Y-16463084D02*
X3182429Y-16453560D01*
X3182429Y-16453560D02*
X3191953Y-16444036D01*
X3191953Y-16444036D02*
X3191953Y-16463084D01*
X3277667Y-16282131D02*
X3287191Y-16272608D01*
X3287191Y-16272608D02*
X3306239Y-16263084D01*
X3306239Y-16263084D02*
X3353858Y-16263084D01*
X3353858Y-16263084D02*
X3372905Y-16272608D01*
X3372905Y-16272608D02*
X3382429Y-16282131D01*
X3382429Y-16282131D02*
X3391953Y-16301179D01*
X3391953Y-16301179D02*
X3391953Y-16320227D01*
X3391953Y-16320227D02*
X3382429Y-16348798D01*
X3382429Y-16348798D02*
X3268143Y-16463084D01*
X3268143Y-16463084D02*
X3391953Y-16463084D01*
X3515762Y-16263084D02*
X3534810Y-16263084D01*
X3534810Y-16263084D02*
X3553858Y-16272608D01*
X3553858Y-16272608D02*
X3563382Y-16282131D01*
X3563382Y-16282131D02*
X3572905Y-16301179D01*
X3572905Y-16301179D02*
X3582429Y-16339274D01*
X3582429Y-16339274D02*
X3582429Y-16386893D01*
X3582429Y-16386893D02*
X3572905Y-16424988D01*
X3572905Y-16424988D02*
X3563382Y-16444036D01*
X3563382Y-16444036D02*
X3553858Y-16453560D01*
X3553858Y-16453560D02*
X3534810Y-16463084D01*
X3534810Y-16463084D02*
X3515762Y-16463084D01*
X3515762Y-16463084D02*
X3496715Y-16453560D01*
X3496715Y-16453560D02*
X3487191Y-16444036D01*
X3487191Y-16444036D02*
X3477667Y-16424988D01*
X3477667Y-16424988D02*
X3468143Y-16386893D01*
X3468143Y-16386893D02*
X3468143Y-16339274D01*
X3468143Y-16339274D02*
X3477667Y-16301179D01*
X3477667Y-16301179D02*
X3487191Y-16282131D01*
X3487191Y-16282131D02*
X3496715Y-16272608D01*
X3496715Y-16272608D02*
X3515762Y-16263084D01*
X3706239Y-16263084D02*
X3725286Y-16263084D01*
X3725286Y-16263084D02*
X3744334Y-16272608D01*
X3744334Y-16272608D02*
X3753858Y-16282131D01*
X3753858Y-16282131D02*
X3763382Y-16301179D01*
X3763382Y-16301179D02*
X3772905Y-16339274D01*
X3772905Y-16339274D02*
X3772905Y-16386893D01*
X3772905Y-16386893D02*
X3763382Y-16424988D01*
X3763382Y-16424988D02*
X3753858Y-16444036D01*
X3753858Y-16444036D02*
X3744334Y-16453560D01*
X3744334Y-16453560D02*
X3725286Y-16463084D01*
X3725286Y-16463084D02*
X3706239Y-16463084D01*
X3706239Y-16463084D02*
X3687191Y-16453560D01*
X3687191Y-16453560D02*
X3677667Y-16444036D01*
X3677667Y-16444036D02*
X3668143Y-16424988D01*
X3668143Y-16424988D02*
X3658620Y-16386893D01*
X3658620Y-16386893D02*
X3658620Y-16339274D01*
X3658620Y-16339274D02*
X3668143Y-16301179D01*
X3668143Y-16301179D02*
X3677667Y-16282131D01*
X3677667Y-16282131D02*
X3687191Y-16272608D01*
X3687191Y-16272608D02*
X3706239Y-16263084D01*
X3858620Y-16463084D02*
X3858620Y-16329750D01*
X3858620Y-16348798D02*
X3868143Y-16339274D01*
X3868143Y-16339274D02*
X3887191Y-16329750D01*
X3887191Y-16329750D02*
X3915763Y-16329750D01*
X3915763Y-16329750D02*
X3934810Y-16339274D01*
X3934810Y-16339274D02*
X3944334Y-16358322D01*
X3944334Y-16358322D02*
X3944334Y-16463084D01*
X3944334Y-16358322D02*
X3953858Y-16339274D01*
X3953858Y-16339274D02*
X3972905Y-16329750D01*
X3972905Y-16329750D02*
X4001477Y-16329750D01*
X4001477Y-16329750D02*
X4020524Y-16339274D01*
X4020524Y-16339274D02*
X4030048Y-16358322D01*
X4030048Y-16358322D02*
X4030048Y-16463084D01*
X4125286Y-16463084D02*
X4125286Y-16329750D01*
X4125286Y-16348798D02*
X4134810Y-16339274D01*
X4134810Y-16339274D02*
X4153858Y-16329750D01*
X4153858Y-16329750D02*
X4182429Y-16329750D01*
X4182429Y-16329750D02*
X4201477Y-16339274D01*
X4201477Y-16339274D02*
X4211001Y-16358322D01*
X4211001Y-16358322D02*
X4211001Y-16463084D01*
X4211001Y-16358322D02*
X4220525Y-16339274D01*
X4220525Y-16339274D02*
X4239572Y-16329750D01*
X4239572Y-16329750D02*
X4268144Y-16329750D01*
X4268144Y-16329750D02*
X4287191Y-16339274D01*
X4287191Y-16339274D02*
X4296715Y-16358322D01*
X4296715Y-16358322D02*
X4296715Y-16463084D01*
X4687191Y-16253560D02*
X4515763Y-16510703D01*
X4944334Y-16263084D02*
X4963382Y-16263084D01*
X4963382Y-16263084D02*
X4982429Y-16272608D01*
X4982429Y-16272608D02*
X4991953Y-16282131D01*
X4991953Y-16282131D02*
X5001477Y-16301179D01*
X5001477Y-16301179D02*
X5011001Y-16339274D01*
X5011001Y-16339274D02*
X5011001Y-16386893D01*
X5011001Y-16386893D02*
X5001477Y-16424988D01*
X5001477Y-16424988D02*
X4991953Y-16444036D01*
X4991953Y-16444036D02*
X4982429Y-16453560D01*
X4982429Y-16453560D02*
X4963382Y-16463084D01*
X4963382Y-16463084D02*
X4944334Y-16463084D01*
X4944334Y-16463084D02*
X4925287Y-16453560D01*
X4925287Y-16453560D02*
X4915763Y-16444036D01*
X4915763Y-16444036D02*
X4906239Y-16424988D01*
X4906239Y-16424988D02*
X4896715Y-16386893D01*
X4896715Y-16386893D02*
X4896715Y-16339274D01*
X4896715Y-16339274D02*
X4906239Y-16301179D01*
X4906239Y-16301179D02*
X4915763Y-16282131D01*
X4915763Y-16282131D02*
X4925287Y-16272608D01*
X4925287Y-16272608D02*
X4944334Y-16263084D01*
X5096715Y-16444036D02*
X5106239Y-16453560D01*
X5106239Y-16453560D02*
X5096715Y-16463084D01*
X5096715Y-16463084D02*
X5087191Y-16453560D01*
X5087191Y-16453560D02*
X5096715Y-16444036D01*
X5096715Y-16444036D02*
X5096715Y-16463084D01*
X5296715Y-16463084D02*
X5182429Y-16463084D01*
X5239572Y-16463084D02*
X5239572Y-16263084D01*
X5239572Y-16263084D02*
X5220525Y-16291655D01*
X5220525Y-16291655D02*
X5201477Y-16310703D01*
X5201477Y-16310703D02*
X5182429Y-16320227D01*
X5372906Y-16282131D02*
X5382429Y-16272608D01*
X5382429Y-16272608D02*
X5401477Y-16263084D01*
X5401477Y-16263084D02*
X5449096Y-16263084D01*
X5449096Y-16263084D02*
X5468144Y-16272608D01*
X5468144Y-16272608D02*
X5477668Y-16282131D01*
X5477668Y-16282131D02*
X5487191Y-16301179D01*
X5487191Y-16301179D02*
X5487191Y-16320227D01*
X5487191Y-16320227D02*
X5477668Y-16348798D01*
X5477668Y-16348798D02*
X5363382Y-16463084D01*
X5363382Y-16463084D02*
X5487191Y-16463084D01*
X5658620Y-16263084D02*
X5620525Y-16263084D01*
X5620525Y-16263084D02*
X5601477Y-16272608D01*
X5601477Y-16272608D02*
X5591953Y-16282131D01*
X5591953Y-16282131D02*
X5572906Y-16310703D01*
X5572906Y-16310703D02*
X5563382Y-16348798D01*
X5563382Y-16348798D02*
X5563382Y-16424988D01*
X5563382Y-16424988D02*
X5572906Y-16444036D01*
X5572906Y-16444036D02*
X5582429Y-16453560D01*
X5582429Y-16453560D02*
X5601477Y-16463084D01*
X5601477Y-16463084D02*
X5639572Y-16463084D01*
X5639572Y-16463084D02*
X5658620Y-16453560D01*
X5658620Y-16453560D02*
X5668144Y-16444036D01*
X5668144Y-16444036D02*
X5677667Y-16424988D01*
X5677667Y-16424988D02*
X5677667Y-16377369D01*
X5677667Y-16377369D02*
X5668144Y-16358322D01*
X5668144Y-16358322D02*
X5658620Y-16348798D01*
X5658620Y-16348798D02*
X5639572Y-16339274D01*
X5639572Y-16339274D02*
X5601477Y-16339274D01*
X5601477Y-16339274D02*
X5582429Y-16348798D01*
X5582429Y-16348798D02*
X5572906Y-16358322D01*
X5572906Y-16358322D02*
X5563382Y-16377369D01*
X5801477Y-16263084D02*
X5820525Y-16263084D01*
X5820525Y-16263084D02*
X5839572Y-16272608D01*
X5839572Y-16272608D02*
X5849096Y-16282131D01*
X5849096Y-16282131D02*
X5858620Y-16301179D01*
X5858620Y-16301179D02*
X5868144Y-16339274D01*
X5868144Y-16339274D02*
X5868144Y-16386893D01*
X5868144Y-16386893D02*
X5858620Y-16424988D01*
X5858620Y-16424988D02*
X5849096Y-16444036D01*
X5849096Y-16444036D02*
X5839572Y-16453560D01*
X5839572Y-16453560D02*
X5820525Y-16463084D01*
X5820525Y-16463084D02*
X5801477Y-16463084D01*
X5801477Y-16463084D02*
X5782429Y-16453560D01*
X5782429Y-16453560D02*
X5772906Y-16444036D01*
X5772906Y-16444036D02*
X5763382Y-16424988D01*
X5763382Y-16424988D02*
X5753858Y-16386893D01*
X5753858Y-16386893D02*
X5753858Y-16339274D01*
X5753858Y-16339274D02*
X5763382Y-16301179D01*
X5763382Y-16301179D02*
X5772906Y-16282131D01*
X5772906Y-16282131D02*
X5782429Y-16272608D01*
X5782429Y-16272608D02*
X5801477Y-16263084D01*
X5944334Y-16263084D02*
X5944334Y-16301179D01*
X6020525Y-16263084D02*
X6020525Y-16301179D01*
X6315763Y-16539274D02*
X6306239Y-16529750D01*
X6306239Y-16529750D02*
X6287191Y-16501179D01*
X6287191Y-16501179D02*
X6277668Y-16482131D01*
X6277668Y-16482131D02*
X6268144Y-16453560D01*
X6268144Y-16453560D02*
X6258620Y-16405941D01*
X6258620Y-16405941D02*
X6258620Y-16367846D01*
X6258620Y-16367846D02*
X6268144Y-16320227D01*
X6268144Y-16320227D02*
X6277668Y-16291655D01*
X6277668Y-16291655D02*
X6287191Y-16272608D01*
X6287191Y-16272608D02*
X6306239Y-16244036D01*
X6306239Y-16244036D02*
X6315763Y-16234512D01*
X6372906Y-16263084D02*
X6506239Y-16263084D01*
X6506239Y-16263084D02*
X6420525Y-16463084D01*
X6734810Y-16463084D02*
X6734810Y-16263084D01*
X6820525Y-16463084D02*
X6820525Y-16358322D01*
X6820525Y-16358322D02*
X6811001Y-16339274D01*
X6811001Y-16339274D02*
X6791953Y-16329750D01*
X6791953Y-16329750D02*
X6763382Y-16329750D01*
X6763382Y-16329750D02*
X6744334Y-16339274D01*
X6744334Y-16339274D02*
X6734810Y-16348798D01*
X6944334Y-16463084D02*
X6925287Y-16453560D01*
X6925287Y-16453560D02*
X6915763Y-16444036D01*
X6915763Y-16444036D02*
X6906239Y-16424988D01*
X6906239Y-16424988D02*
X6906239Y-16367846D01*
X6906239Y-16367846D02*
X6915763Y-16348798D01*
X6915763Y-16348798D02*
X6925287Y-16339274D01*
X6925287Y-16339274D02*
X6944334Y-16329750D01*
X6944334Y-16329750D02*
X6972906Y-16329750D01*
X6972906Y-16329750D02*
X6991953Y-16339274D01*
X6991953Y-16339274D02*
X7001477Y-16348798D01*
X7001477Y-16348798D02*
X7011001Y-16367846D01*
X7011001Y-16367846D02*
X7011001Y-16424988D01*
X7011001Y-16424988D02*
X7001477Y-16444036D01*
X7001477Y-16444036D02*
X6991953Y-16453560D01*
X6991953Y-16453560D02*
X6972906Y-16463084D01*
X6972906Y-16463084D02*
X6944334Y-16463084D01*
X7125287Y-16463084D02*
X7106239Y-16453560D01*
X7106239Y-16453560D02*
X7096715Y-16434512D01*
X7096715Y-16434512D02*
X7096715Y-16263084D01*
X7277668Y-16453560D02*
X7258620Y-16463084D01*
X7258620Y-16463084D02*
X7220525Y-16463084D01*
X7220525Y-16463084D02*
X7201477Y-16453560D01*
X7201477Y-16453560D02*
X7191953Y-16434512D01*
X7191953Y-16434512D02*
X7191953Y-16358322D01*
X7191953Y-16358322D02*
X7201477Y-16339274D01*
X7201477Y-16339274D02*
X7220525Y-16329750D01*
X7220525Y-16329750D02*
X7258620Y-16329750D01*
X7258620Y-16329750D02*
X7277668Y-16339274D01*
X7277668Y-16339274D02*
X7287191Y-16358322D01*
X7287191Y-16358322D02*
X7287191Y-16377369D01*
X7287191Y-16377369D02*
X7191953Y-16396417D01*
X7363382Y-16453560D02*
X7382430Y-16463084D01*
X7382430Y-16463084D02*
X7420525Y-16463084D01*
X7420525Y-16463084D02*
X7439572Y-16453560D01*
X7439572Y-16453560D02*
X7449096Y-16434512D01*
X7449096Y-16434512D02*
X7449096Y-16424988D01*
X7449096Y-16424988D02*
X7439572Y-16405941D01*
X7439572Y-16405941D02*
X7420525Y-16396417D01*
X7420525Y-16396417D02*
X7391953Y-16396417D01*
X7391953Y-16396417D02*
X7372906Y-16386893D01*
X7372906Y-16386893D02*
X7363382Y-16367846D01*
X7363382Y-16367846D02*
X7363382Y-16358322D01*
X7363382Y-16358322D02*
X7372906Y-16339274D01*
X7372906Y-16339274D02*
X7391953Y-16329750D01*
X7391953Y-16329750D02*
X7420525Y-16329750D01*
X7420525Y-16329750D02*
X7439572Y-16339274D01*
X7515763Y-16539274D02*
X7525287Y-16529750D01*
X7525287Y-16529750D02*
X7544334Y-16501179D01*
X7544334Y-16501179D02*
X7553858Y-16482131D01*
X7553858Y-16482131D02*
X7563382Y-16453560D01*
X7563382Y-16453560D02*
X7572906Y-16405941D01*
X7572906Y-16405941D02*
X7572906Y-16367846D01*
X7572906Y-16367846D02*
X7563382Y-16320227D01*
X7563382Y-16320227D02*
X7553858Y-16291655D01*
X7553858Y-16291655D02*
X7544334Y-16272608D01*
X7544334Y-16272608D02*
X7525287Y-16244036D01*
X7525287Y-16244036D02*
X7515763Y-16234512D01*
M02*
