%TF.GenerationSoftware,KiCad,Pcbnew,9.0.5*%
%TF.CreationDate,2026-01-14T15:13:16-06:00*%
%TF.ProjectId,STAR_BMS,53544152-5f42-44d5-932e-6b696361645f,V1.0.0*%
%TF.SameCoordinates,Original*%
%TF.FileFunction,Soldermask,Bot*%
%TF.FilePolarity,Negative*%
%FSLAX46Y46*%
G04 Gerber Fmt 4.6, Leading zero omitted, Abs format (unit mm)*
G04 Created by KiCad (PCBNEW 9.0.5) date 2026-01-14 15:13:16*
%MOMM*%
%LPD*%
G01*
G04 APERTURE LIST*
%ADD10C,1.400000*%
%ADD11R,2.100000X2.100000*%
%ADD12C,2.100000*%
%ADD13C,0.800000*%
%ADD14C,6.400000*%
%ADD15C,4.800000*%
%ADD16R,1.700000X1.700000*%
%ADD17C,1.700000*%
%ADD18C,1.574800*%
%ADD19C,1.854000*%
G04 APERTURE END LIST*
D10*
%TO.C,J4*%
X143256000Y-109300000D03*
X143256000Y-111800000D03*
X143256000Y-114300000D03*
%TD*%
D11*
%TO.C,J3*%
X131548000Y-70504000D03*
D12*
X131548000Y-61804000D03*
X126468000Y-70504000D03*
X126468000Y-61804000D03*
%TD*%
D11*
%TO.C,J8*%
X142176000Y-98044000D03*
D12*
X150876000Y-98044000D03*
X142176000Y-92964000D03*
X150876000Y-92964000D03*
%TD*%
D13*
%TO.C,H1*%
X30032000Y-58340000D03*
X30734944Y-56642944D03*
X30734944Y-60037056D03*
X32432000Y-55940000D03*
D14*
X32432000Y-58340000D03*
D13*
X32432000Y-60740000D03*
X34129056Y-56642944D03*
X34129056Y-60037056D03*
X34832000Y-58340000D03*
%TD*%
D10*
%TO.C,J5*%
X134406000Y-109300000D03*
X134406000Y-111800000D03*
X134406000Y-114300000D03*
%TD*%
D13*
%TO.C,H2*%
X150499305Y-133811000D03*
X151202249Y-132113944D03*
X151202249Y-135508056D03*
X152899305Y-131411000D03*
D14*
X152899305Y-133811000D03*
D13*
X152899305Y-136211000D03*
X154596361Y-132113944D03*
X154596361Y-135508056D03*
X155299305Y-133811000D03*
%TD*%
D11*
%TO.C,J7*%
X142076000Y-83744000D03*
D12*
X150776000Y-83744000D03*
X142076000Y-78664000D03*
X150776000Y-78664000D03*
%TD*%
D13*
%TO.C,H4*%
X151985000Y-58340000D03*
X152687944Y-56642944D03*
X152687944Y-60037056D03*
X154385000Y-55940000D03*
D14*
X154385000Y-58340000D03*
D13*
X154385000Y-60740000D03*
X156082056Y-56642944D03*
X156082056Y-60037056D03*
X156785000Y-58340000D03*
%TD*%
D15*
%TO.C,J1*%
X40725000Y-71045500D03*
X34925000Y-71045500D03*
X37725000Y-75845500D03*
%TD*%
D16*
%TO.C,J10*%
X93980000Y-117348000D03*
D17*
X93980000Y-119888000D03*
%TD*%
D16*
%TO.C,J11*%
X98552000Y-117348000D03*
D17*
X98552000Y-119888000D03*
%TD*%
D18*
%TO.C,J9*%
X42470600Y-119421900D03*
X42470600Y-121961900D03*
X42470600Y-124501900D03*
X42470600Y-127041900D03*
%TD*%
D13*
%TO.C,H3*%
X30032000Y-133811000D03*
X30734944Y-132113944D03*
X30734944Y-135508056D03*
X32432000Y-131411000D03*
D14*
X32432000Y-133811000D03*
D13*
X32432000Y-136211000D03*
X34129056Y-132113944D03*
X34129056Y-135508056D03*
X34832000Y-133811000D03*
%TD*%
D16*
%TO.C,J6*%
X37719000Y-85222000D03*
D17*
X37719000Y-82682000D03*
%TD*%
D19*
%TO.C,J2*%
X35560000Y-102616000D03*
X33020000Y-102616000D03*
X35560000Y-100076000D03*
X33020000Y-100076000D03*
X35560000Y-97536000D03*
X33020000Y-97536000D03*
%TD*%
D16*
%TO.C,J13*%
X107696000Y-117348000D03*
D17*
X107696000Y-119888000D03*
%TD*%
D16*
%TO.C,J12*%
X103124000Y-117348000D03*
D17*
X103124000Y-119888000D03*
%TD*%
M02*
