M48
; DRILL file {KiCad 9.0.5} date 2026-01-14T15:13:40-0600
; FORMAT={-:-/ absolute / metric / decimal}
; #@! TF.CreationDate,2026-01-14T15:13:40-06:00
; #@! TF.GenerationSoftware,Kicad,Pcbnew,9.0.5
; #@! TF.FileFunction,Plated,1,4,PTH
FMAT,2
METRIC
; #@! TA.AperFunction,Plated,PTH,ViaDrill
T1C0.300
; #@! TA.AperFunction,Plated,PTH,ComponentDrill
T2C0.500
; #@! TA.AperFunction,Plated,PTH,ComponentDrill
T3C0.900
; #@! TA.AperFunction,Plated,PTH,ComponentDrill
T4C1.000
; #@! TA.AperFunction,Plated,PTH,ComponentDrill
T5C1.067
; #@! TA.AperFunction,Plated,PTH,ComponentDrill
T6C1.100
; #@! TA.AperFunction,Plated,PTH,ComponentDrill
T7C1.400
; #@! TA.AperFunction,Plated,PTH,ComponentDrill
T8C3.200
%
G90
G05
T1
X40.132Y-109.22
X40.132Y-111.252
X40.132Y-113.284
X40.132Y-115.316
X41.148Y-102.616
X42.672Y-109.22
X42.672Y-111.252
X42.672Y-113.284
X42.672Y-115.316
X43.942Y-56.007
X43.942Y-58.039
X43.942Y-60.071
X43.942Y-62.103
X44.069Y-79.121
X44.069Y-81.153
X44.069Y-83.185
X44.069Y-85.217
X45.212Y-109.22
X45.212Y-111.252
X45.212Y-113.284
X45.212Y-115.316
X46.482Y-56.007
X46.482Y-58.039
X46.482Y-60.071
X46.482Y-62.103
X46.609Y-79.121
X46.609Y-81.153
X46.609Y-83.185
X46.609Y-85.217
X47.752Y-109.22
X47.752Y-111.252
X47.752Y-113.284
X47.752Y-115.316
X48.26Y-124.46
X48.26Y-126.492
X48.26Y-128.524
X48.26Y-130.556
X49.022Y-56.007
X49.022Y-58.039
X49.022Y-60.071
X49.022Y-62.103
X49.149Y-79.121
X49.149Y-81.153
X49.149Y-83.185
X49.149Y-85.217
X50.292Y-109.22
X50.292Y-111.252
X50.292Y-113.284
X50.292Y-115.316
X50.8Y-124.46
X50.8Y-126.492
X50.8Y-128.524
X50.8Y-130.556
X51.562Y-56.007
X51.562Y-58.039
X51.562Y-60.071
X51.562Y-62.103
X51.689Y-79.121
X51.689Y-81.153
X51.689Y-83.185
X51.689Y-85.217
X52.832Y-109.22
X52.832Y-111.252
X52.832Y-113.284
X52.832Y-115.316
X53.34Y-124.46
X53.34Y-126.492
X53.34Y-128.524
X53.34Y-130.556
X54.1Y-95.1
X54.102Y-56.007
X54.102Y-58.039
X54.102Y-60.071
X54.102Y-62.103
X54.864Y-101.092
X55.88Y-109.22
X55.88Y-111.252
X55.88Y-113.284
X55.88Y-115.316
X55.88Y-124.46
X55.88Y-126.492
X55.88Y-128.524
X55.88Y-130.556
X56.642Y-56.007
X56.642Y-58.039
X56.642Y-60.071
X56.642Y-62.103
X58.42Y-109.22
X58.42Y-111.252
X58.42Y-113.284
X58.42Y-115.316
X58.42Y-124.46
X58.42Y-126.492
X58.42Y-128.524
X58.42Y-130.556
X60.96Y-109.22
X60.96Y-111.252
X60.96Y-113.284
X60.96Y-115.316
X60.96Y-124.46
X60.96Y-126.492
X60.96Y-128.524
X60.96Y-130.556
X63.5Y-109.22
X63.5Y-111.252
X63.5Y-113.284
X63.5Y-115.316
X63.5Y-124.46
X63.5Y-126.492
X63.5Y-128.524
X63.5Y-130.556
X66.04Y-109.22
X66.04Y-111.252
X66.04Y-113.284
X66.04Y-115.316
X66.04Y-124.46
X66.04Y-126.492
X66.04Y-128.524
X66.04Y-130.556
X66.294Y-61.976
X67.056Y-77.724
X68.58Y-109.22
X68.58Y-111.252
X68.58Y-113.284
X68.58Y-115.316
X68.58Y-124.46
X68.58Y-126.492
X68.58Y-128.524
X68.58Y-130.556
X69.088Y-83.312
X71.12Y-74.676
X71.12Y-124.46
X71.12Y-126.492
X71.12Y-128.524
X71.12Y-130.556
X71.628Y-76.235
X71.628Y-77.216
X71.628Y-94.488
X72.136Y-78.74
X73.66Y-79.248
X73.66Y-124.46
X73.66Y-126.492
X73.66Y-128.524
X73.66Y-130.556
X74.295Y-62.23
X74.422Y-73.787
X75.184Y-80.264
X76.2Y-73.66
X76.2Y-124.46
X76.2Y-126.492
X76.2Y-128.524
X76.2Y-130.556
X76.581Y-79.375
X78.232Y-76.2
X80.01Y-94.107
X80.01Y-96.139
X80.01Y-98.171
X80.264Y-76.2
X80.772Y-55.372
X80.772Y-57.404
X80.772Y-59.436
X80.772Y-61.468
X81.788Y-85.852
X82.55Y-94.107
X82.55Y-96.139
X82.55Y-98.171
X83.2Y-120.1
X83.312Y-55.372
X83.312Y-57.404
X83.312Y-59.436
X83.312Y-61.468
X83.312Y-82.296
X85.09Y-94.107
X85.09Y-96.139
X85.09Y-98.171
X85.852Y-55.372
X85.852Y-57.404
X85.852Y-59.436
X85.852Y-61.468
X87.63Y-94.107
X87.63Y-96.139
X87.63Y-98.171
X88.392Y-55.372
X88.392Y-57.404
X88.392Y-59.436
X88.392Y-61.468
X90.6Y-120.1
X90.932Y-55.372
X90.932Y-57.404
X90.932Y-59.436
X90.932Y-61.468
X91.44Y-125.984
X91.44Y-127.508
X92.456Y-87.376
X92.964Y-125.984
X92.964Y-127.508
X93.472Y-55.372
X93.472Y-57.404
X93.472Y-59.436
X93.472Y-61.468
X93.98Y-108.204
X94.488Y-98.552
X94.488Y-125.984
X94.488Y-127.508
X94.615Y-104.648
X94.869Y-102.87
X96.012Y-125.984
X96.012Y-127.508
X97.536Y-125.984
X97.536Y-127.508
X98.933Y-95.92
X99.06Y-125.984
X99.06Y-127.508
X99.568Y-64.008
X99.568Y-66.04
X99.568Y-68.072
X99.568Y-70.104
X99.822Y-95.504
X100.584Y-93.726
X100.584Y-125.984
X100.584Y-127.508
X100.754Y-95.588
X101.452Y-103.721
X101.473Y-104.902
X101.981Y-105.791
X102.108Y-64.008
X102.108Y-66.04
X102.108Y-68.072
X102.108Y-70.104
X102.108Y-125.984
X102.108Y-127.508
X102.235Y-106.553
X102.315Y-107.586
X103.632Y-125.984
X103.632Y-127.508
X104.521Y-85.725
X104.648Y-64.008
X104.648Y-66.04
X104.648Y-68.072
X104.648Y-70.104
X104.902Y-96.774
X105.156Y-125.984
X105.156Y-127.508
X106.299Y-95.377
X106.68Y-125.984
X106.68Y-127.508
X106.771Y-99.691
X106.807Y-98.806
X107.315Y-100.285
X108.204Y-125.984
X108.204Y-127.508
X108.712Y-105.664
X109.22Y-97.536
X111.633Y-85.344
X112.776Y-112.268
X114.808Y-112.268
X114.808Y-115.824
X115.824Y-105.156
X116.332Y-97.536
X116.332Y-98.552
X116.332Y-99.568
X116.332Y-100.584
X116.332Y-101.6
X117.348Y-97.536
X117.348Y-98.552
X117.348Y-99.568
X117.348Y-100.584
X120.269Y-72.644
X121.412Y-108.204
X121.912Y-120.912
X121.912Y-122.436
X121.912Y-123.96
X121.912Y-125.484
X121.92Y-105.156
X121.98Y-114.852
X121.98Y-116.376
X121.98Y-117.9
X121.98Y-119.424
X122.682Y-85.471
X123.436Y-120.912
X123.436Y-122.436
X123.436Y-123.96
X123.436Y-125.484
X123.504Y-114.852
X123.504Y-116.376
X123.504Y-117.9
X123.504Y-119.424
X124.96Y-120.912
X124.96Y-122.436
X124.96Y-123.96
X124.96Y-125.484
X125.028Y-114.852
X125.028Y-116.376
X125.028Y-117.9
X125.028Y-119.424
X125.476Y-103.632
X125.984Y-93.472
X126.484Y-120.912
X126.484Y-122.436
X126.484Y-123.96
X126.484Y-125.484
X126.552Y-114.852
X126.552Y-116.376
X126.552Y-117.9
X126.552Y-119.424
X128.008Y-120.912
X128.008Y-122.436
X128.008Y-123.96
X128.008Y-125.484
X128.076Y-114.852
X128.076Y-116.376
X128.076Y-117.9
X128.076Y-119.424
X129.532Y-120.912
X129.532Y-122.436
X129.532Y-123.96
X129.532Y-125.484
X129.6Y-114.852
X129.6Y-116.376
X129.6Y-117.9
X129.6Y-119.424
X130.048Y-98.044
X130.556Y-93.472
X136.052Y-119.952
X136.052Y-121.476
X136.052Y-123.0
X136.052Y-124.524
X136.144Y-118.364
X136.144Y-129.032
X136.152Y-125.852
X136.152Y-127.376
X137.576Y-119.952
X137.576Y-121.476
X137.576Y-123.0
X137.576Y-124.524
X137.668Y-118.364
X137.668Y-129.032
X137.676Y-125.852
X137.676Y-127.376
X139.1Y-119.952
X139.1Y-121.476
X139.1Y-123.0
X139.1Y-124.524
X139.192Y-118.364
X139.192Y-129.032
X139.2Y-125.852
X139.2Y-127.376
X140.624Y-119.952
X140.624Y-121.476
X140.624Y-123.0
X140.624Y-124.524
X140.716Y-118.364
X140.716Y-129.032
X140.724Y-125.852
X140.724Y-127.376
X142.148Y-119.952
X142.148Y-121.476
X142.148Y-123.0
X142.148Y-124.524
X142.24Y-118.364
X142.24Y-129.032
X142.248Y-125.852
X142.248Y-127.376
X143.672Y-119.952
X143.672Y-121.476
X143.672Y-123.0
X143.672Y-124.524
X143.764Y-118.364
X143.764Y-129.032
X143.772Y-125.852
X143.772Y-127.376
T2
X30.032Y-58.34
X30.032Y-133.811
X30.735Y-56.643
X30.735Y-60.037
X30.735Y-132.114
X30.735Y-135.508
X32.432Y-55.94
X32.432Y-60.74
X32.432Y-131.411
X32.432Y-136.211
X34.129Y-56.643
X34.129Y-60.037
X34.129Y-132.114
X34.129Y-135.508
X34.832Y-58.34
X34.832Y-133.811
X150.499Y-133.811
X151.202Y-132.114
X151.202Y-135.508
X151.985Y-58.34
X152.688Y-56.643
X152.688Y-60.037
X152.899Y-131.411
X152.899Y-136.211
X154.385Y-55.94
X154.385Y-60.74
X154.596Y-132.114
X154.596Y-135.508
X155.299Y-133.811
X156.082Y-56.643
X156.082Y-60.037
X156.785Y-58.34
T3
X134.406Y-109.3
X134.406Y-111.8
X134.406Y-114.3
X143.256Y-109.3
X143.256Y-111.8
X143.256Y-114.3
T4
X37.719Y-82.682
X37.719Y-85.222
X93.98Y-117.348
X93.98Y-119.888
X98.552Y-117.348
X98.552Y-119.888
X103.124Y-117.348
X103.124Y-119.888
X107.696Y-117.348
X107.696Y-119.888
T5
X42.471Y-119.422
X42.471Y-121.962
X42.471Y-124.502
X42.471Y-127.042
T6
X33.02Y-97.536
X33.02Y-100.076
X33.02Y-102.616
X35.56Y-97.536
X35.56Y-100.076
X35.56Y-102.616
T7
X126.468Y-61.804
X126.468Y-70.504
X131.548Y-61.804
X131.548Y-70.504
X142.076Y-78.664
X142.076Y-83.744
X142.176Y-92.964
X142.176Y-98.044
X150.776Y-78.664
X150.776Y-83.744
X150.876Y-92.964
X150.876Y-98.044
T8
X32.432Y-58.34
X32.432Y-133.811
X34.925Y-71.045
X37.725Y-75.846
X40.725Y-71.045
X152.899Y-133.811
X154.385Y-58.34
M30
