M48
; DRILL file {KiCad 9.0.5} date 2025-12-27T19:48:55-0600
; FORMAT={-:-/ absolute / metric / decimal}
; #@! TF.CreationDate,2025-12-27T19:48:55-06:00
; #@! TF.GenerationSoftware,Kicad,Pcbnew,9.0.5
; #@! TF.FileFunction,Plated,1,4,PTH
FMAT,2
METRIC
; #@! TA.AperFunction,Plated,PTH,ViaDrill
T1C0.300
; #@! TA.AperFunction,Plated,PTH,ComponentDrill
T2C0.500
; #@! TA.AperFunction,Plated,PTH,ComponentDrill
T3C1.100
; #@! TA.AperFunction,Plated,PTH,ComponentDrill
T4C1.400
; #@! TA.AperFunction,Plated,PTH,ComponentDrill
T5C3.200
%
G90
G05
T1
X82.897Y-47.713
X82.944Y-45.009
X82.944Y-60.529
X82.944Y-63.069
X83.028Y-86.483
X83.028Y-87.753
X83.028Y-89.023
X83.028Y-90.293
X83.028Y-91.563
X83.028Y-92.833
X83.073Y-94.403
X83.073Y-95.673
X83.79Y-113.915
X83.79Y-116.709
X83.79Y-120.011
X83.79Y-123.313
X83.79Y-126.361
X83.79Y-129.155
X83.79Y-132.457
X83.79Y-135.759
X85.437Y-47.713
X85.484Y-45.009
X85.568Y-86.483
X85.568Y-87.753
X85.568Y-89.023
X85.568Y-90.293
X85.568Y-91.563
X85.568Y-92.833
X85.568Y-141.093
X85.568Y-142.363
X85.568Y-143.633
X85.613Y-94.403
X85.613Y-95.673
X87.092Y-113.915
X87.092Y-116.709
X87.092Y-120.011
X87.092Y-123.313
X87.092Y-126.361
X87.092Y-129.155
X87.092Y-132.457
X87.092Y-135.759
X87.977Y-47.713
X88.024Y-45.009
X88.024Y-60.529
X88.024Y-63.069
X88.108Y-86.483
X88.108Y-87.753
X88.108Y-89.023
X88.108Y-90.293
X88.108Y-91.563
X88.108Y-92.833
X88.108Y-141.093
X88.108Y-142.363
X88.108Y-143.633
X88.153Y-94.403
X88.153Y-95.673
X90.14Y-113.915
X90.14Y-116.709
X90.14Y-120.011
X90.14Y-123.313
X90.14Y-126.361
X90.14Y-129.155
X90.14Y-132.457
X90.14Y-135.759
X90.517Y-47.713
X90.564Y-45.009
X90.648Y-86.483
X90.648Y-87.753
X90.648Y-89.023
X90.648Y-90.293
X90.648Y-91.563
X90.648Y-92.833
X90.648Y-141.093
X90.648Y-142.363
X90.648Y-143.633
X90.693Y-94.403
X90.693Y-95.673
X93.057Y-47.713
X93.104Y-45.009
X93.104Y-60.529
X93.104Y-63.069
X93.188Y-86.483
X93.188Y-87.753
X93.188Y-89.023
X93.188Y-90.293
X93.188Y-91.563
X93.188Y-92.833
X93.188Y-113.915
X93.188Y-116.709
X93.188Y-120.011
X93.188Y-123.313
X93.188Y-126.361
X93.188Y-129.155
X93.188Y-132.457
X93.188Y-135.759
X93.188Y-141.093
X93.188Y-142.363
X93.188Y-143.633
X93.233Y-94.403
X93.233Y-95.673
X95.728Y-86.483
X95.728Y-87.753
X95.728Y-89.023
X95.728Y-90.293
X95.728Y-91.563
X95.728Y-92.833
X95.728Y-141.093
X95.728Y-142.363
X95.728Y-143.633
X95.773Y-94.403
X95.773Y-95.673
X96.112Y-132.068
X96.454Y-59.759
X96.573Y-134.076
X96.573Y-137.378
X96.604Y-56.659
X97.354Y-52.039
X97.364Y-45.779
X97.55Y-111.73
X97.634Y-48.699
X97.634Y-63.069
X97.673Y-114.003
X98.268Y-86.483
X98.268Y-87.753
X98.268Y-89.023
X98.268Y-90.293
X98.268Y-91.563
X98.268Y-92.833
X98.268Y-141.093
X98.268Y-142.363
X98.268Y-143.633
X98.72Y-107.63
X99.506Y-127.631
X99.64Y-111.06
X99.792Y-136.013
X100.263Y-60.233
X100.527Y-63.708
X100.808Y-86.483
X100.808Y-87.753
X100.808Y-89.023
X100.808Y-90.293
X100.808Y-91.563
X100.808Y-92.833
X100.808Y-142.363
X100.808Y-143.633
X100.808Y-144.903
X101.062Y-99.945
X101.062Y-102.739
X101.062Y-106.041
X101.062Y-109.343
X101.062Y-127.631
X101.127Y-45.903
X101.134Y-52.329
X101.244Y-48.704
X101.523Y-114.653
X102.332Y-127.631
X103.057Y-60.233
X103.094Y-136.013
X103.123Y-90.553
X103.348Y-86.483
X103.348Y-87.753
X103.348Y-89.023
X103.348Y-142.363
X103.348Y-143.633
X103.348Y-144.903
X103.602Y-127.631
X103.987Y-63.858
X104.364Y-99.945
X104.364Y-102.739
X104.364Y-106.041
X104.364Y-109.343
X104.825Y-111.351
X104.825Y-114.653
X104.872Y-127.631
X104.872Y-128.647
X105.663Y-90.553
X105.888Y-86.483
X105.888Y-87.753
X105.888Y-89.023
X105.888Y-142.363
X105.888Y-143.633
X105.888Y-144.903
X106.142Y-136.013
X106.488Y-60.208
X106.527Y-63.858
X106.627Y-45.768
X106.634Y-52.194
X106.744Y-48.569
X107.336Y-127.606
X107.412Y-99.945
X107.412Y-102.739
X107.412Y-106.041
X107.412Y-109.343
X107.873Y-111.351
X107.873Y-114.653
X108.428Y-142.363
X108.428Y-143.633
X108.428Y-144.903
X108.936Y-127.631
X109.19Y-136.013
X109.282Y-60.208
X110.206Y-127.631
X110.333Y-87.753
X110.46Y-99.945
X110.46Y-102.739
X110.46Y-106.041
X110.46Y-109.343
X110.554Y-45.629
X110.562Y-64.108
X110.921Y-111.351
X110.921Y-114.653
X110.968Y-142.363
X110.968Y-143.633
X110.968Y-144.903
X111.476Y-127.631
X112.367Y-47.733
X112.367Y-60.052
X112.687Y-62.283
X112.746Y-127.631
X112.746Y-128.647
X113.102Y-64.108
X113.162Y-108.718
X113.212Y-99.643
X113.508Y-142.363
X113.508Y-143.633
X113.508Y-144.903
X113.623Y-110.726
X113.623Y-114.028
X113.673Y-101.651
X113.673Y-104.953
X113.762Y-129.155
X113.762Y-130.171
X114.016Y-127.631
X115.161Y-60.052
X115.164Y-45.419
X115.227Y-62.283
X115.286Y-127.631
X115.44Y-117.12
X116.556Y-127.631
X116.81Y-124.329
X117.953Y-108.454
X117.978Y-127.423
X118.426Y-113.943
X118.842Y-114.931
X119.2Y-46.55
X119.223Y-131.822
X119.604Y-128.393
X119.604Y-129.409
X119.744Y-44.674
X119.858Y-85.213
X119.858Y-86.483
X119.858Y-122.551
X120.108Y-88.503
X120.366Y-108.327
X120.366Y-127.631
X120.62Y-115.439
X121.636Y-127.631
X122.398Y-85.213
X122.398Y-86.483
X122.527Y-44.558
X122.552Y-47.158
X122.648Y-88.503
X122.906Y-127.631
X123.033Y-132.407
X124.176Y-127.631
X124.43Y-128.647
X124.43Y-129.663
X124.938Y-85.213
X124.938Y-86.483
X125.067Y-44.558
X125.092Y-47.158
X125.188Y-88.503
X125.446Y-127.631
X125.446Y-128.647
X125.446Y-129.663
X125.446Y-141.347
X125.446Y-143.125
X127.478Y-85.213
X127.478Y-86.483
X127.478Y-128.901
X127.478Y-130.171
X127.478Y-131.441
X127.478Y-141.347
X127.478Y-143.125
X127.607Y-44.558
X127.632Y-47.158
X127.728Y-88.503
X128.748Y-128.901
X128.748Y-130.171
X128.748Y-131.441
X129.764Y-141.347
X129.764Y-143.125
X130.018Y-85.213
X130.018Y-86.483
X130.147Y-44.558
X130.172Y-47.158
X130.268Y-88.503
X131.796Y-141.347
X131.796Y-143.125
X132.558Y-85.213
X132.558Y-86.483
X132.673Y-115.705
X132.673Y-117.229
X132.673Y-118.753
X132.687Y-44.558
X132.712Y-47.158
X132.808Y-88.503
X132.81Y-74.16
X133.468Y-105.523
X133.468Y-108.063
X133.468Y-110.603
X134.705Y-115.705
X134.705Y-117.229
X134.705Y-118.753
X134.844Y-128.901
X134.844Y-130.171
X134.844Y-131.441
X135.098Y-85.213
X135.098Y-86.483
X135.227Y-44.558
X135.252Y-47.158
X135.348Y-88.503
X135.35Y-74.16
X136.008Y-105.523
X136.008Y-108.063
X136.008Y-110.603
X136.048Y-100.678
X136.048Y-103.218
X136.114Y-128.901
X136.114Y-130.171
X136.114Y-131.441
X136.368Y-94.103
X136.368Y-96.643
X136.368Y-99.183
X136.991Y-115.705
X136.991Y-117.229
X136.991Y-118.753
X137.334Y-44.589
X137.6Y-52.13
X137.638Y-85.213
X137.638Y-86.483
X137.89Y-74.16
X138.073Y-121.605
X138.073Y-123.129
X138.073Y-124.653
X138.4Y-54.537
X138.5Y-57.71
X138.5Y-61.012
X138.548Y-105.523
X138.548Y-108.063
X138.548Y-110.603
X138.588Y-100.678
X138.588Y-103.218
X138.654Y-133.219
X138.654Y-135.251
X138.654Y-137.537
X138.654Y-139.569
X138.7Y-56.237
X138.7Y-59.36
X138.7Y-62.662
X138.908Y-94.103
X138.908Y-96.643
X138.908Y-99.183
X138.93Y-46.76
X139.023Y-115.705
X139.023Y-117.229
X139.023Y-118.753
X139.57Y-85.27
X139.57Y-86.54
X140.023Y-127.38
X140.023Y-128.904
X140.023Y-130.428
X140.105Y-121.605
X140.105Y-123.129
X140.105Y-124.653
X140.294Y-44.454
X140.43Y-74.16
X140.848Y-140.255
X140.848Y-141.779
X140.848Y-143.303
X141.088Y-105.523
X141.088Y-108.063
X141.088Y-110.603
X141.128Y-100.678
X141.128Y-103.218
X141.35Y-134.92
X141.37Y-133.27
X141.448Y-94.103
X141.448Y-96.643
X141.448Y-99.183
X141.61Y-46.74
X141.702Y-54.537
X141.802Y-57.71
X141.802Y-61.012
X142.002Y-56.237
X142.002Y-59.36
X142.002Y-62.662
X142.055Y-127.38
X142.055Y-128.904
X142.055Y-130.428
X142.391Y-121.605
X142.391Y-123.129
X142.391Y-124.653
X142.718Y-85.213
X142.718Y-86.483
X142.834Y-44.454
X142.88Y-140.255
X142.88Y-141.779
X142.88Y-143.303
X142.97Y-74.16
X143.668Y-100.678
X143.668Y-103.218
X143.734Y-133.219
X143.734Y-134.743
X143.734Y-136.267
X143.988Y-94.103
X143.988Y-96.643
X143.988Y-99.183
X144.341Y-127.38
X144.341Y-128.904
X144.341Y-130.428
X144.423Y-121.605
X144.423Y-123.129
X144.423Y-124.653
X144.73Y-46.63
X144.75Y-54.537
X144.85Y-57.71
X144.85Y-61.012
X145.05Y-56.237
X145.05Y-59.36
X145.05Y-62.662
X145.078Y-74.192
X145.166Y-140.255
X145.166Y-141.779
X145.166Y-143.303
X145.343Y-105.848
X145.343Y-108.388
X145.343Y-110.928
X145.374Y-44.454
X145.448Y-85.208
X145.448Y-86.478
X145.766Y-133.219
X145.766Y-134.743
X145.766Y-136.267
X146.373Y-130.428
X146.593Y-98.423
X146.593Y-100.963
X146.593Y-103.503
X147.198Y-140.255
X147.198Y-141.779
X147.198Y-143.303
X147.798Y-54.537
X147.798Y-94.103
X147.798Y-96.643
X147.883Y-105.848
X147.883Y-108.388
X147.883Y-110.928
X147.898Y-57.71
X147.898Y-61.012
X148.038Y-74.057
X148.052Y-133.219
X148.052Y-134.743
X148.052Y-136.267
X148.098Y-56.237
X148.098Y-59.36
X148.098Y-62.662
X148.223Y-85.283
X148.223Y-86.553
X148.65Y-46.83
X148.85Y-44.49
X149.133Y-98.423
X149.133Y-100.963
X149.133Y-103.503
X149.148Y-140.155
X149.148Y-141.679
X149.148Y-143.203
X149.5Y-48.56
X149.703Y-91.563
X150.084Y-133.219
X150.084Y-134.743
X150.084Y-136.267
X150.338Y-94.103
X150.338Y-96.643
X150.423Y-105.848
X150.423Y-108.388
X150.423Y-110.928
X150.578Y-74.057
X151.05Y-71.73
X151.18Y-140.155
X151.18Y-141.679
X151.18Y-143.203
X151.19Y-46.83
X151.33Y-114.61
X151.33Y-115.88
X151.33Y-117.15
X151.39Y-44.49
X151.673Y-98.423
X151.673Y-100.963
X151.673Y-103.503
X152.878Y-94.103
X152.963Y-105.848
X152.963Y-108.388
X152.963Y-110.928
X153.118Y-74.057
X153.466Y-140.155
X153.466Y-141.679
X153.466Y-143.203
X153.73Y-46.83
X153.83Y-69.97
X153.87Y-114.61
X153.87Y-115.88
X153.87Y-117.15
X153.93Y-44.49
X154.023Y-131.73
X154.023Y-133.254
X154.023Y-134.778
X154.213Y-98.423
X154.213Y-100.963
X154.213Y-103.503
X155.418Y-94.103
X155.498Y-140.155
X155.498Y-141.679
X155.498Y-143.203
X155.63Y-89.56
X155.63Y-91.93
X155.68Y-86.81
X155.73Y-79.92
X156.055Y-131.73
X156.055Y-133.254
X156.055Y-134.778
X156.3Y-73.95
X156.41Y-114.61
X156.41Y-115.88
X156.41Y-117.15
X157.09Y-71.63
X157.71Y-48.55
X157.79Y-46.75
X157.91Y-44.83
X158.16Y-91.99
X158.341Y-131.73
X158.341Y-133.254
X158.341Y-134.778
X158.61Y-114.67
X158.61Y-115.94
X158.61Y-117.21
X158.62Y-88.74
X158.66Y-87.77
X158.67Y-86.76
X158.68Y-85.6
X158.84Y-73.95
X158.93Y-69.1
X159.73Y-88.31
X159.73Y-89.4
X159.75Y-86.14
X159.75Y-87.21
X160.25Y-48.55
X160.274Y-84.074
X160.33Y-46.75
X160.373Y-131.73
X160.373Y-133.254
X160.373Y-134.778
X160.44Y-85.25
X160.45Y-44.83
X160.56Y-86.66
X160.59Y-81.4
X160.6Y-82.65
X160.63Y-87.85
X160.65Y-89.04
X160.67Y-92.57
X161.15Y-114.67
X161.15Y-115.94
X161.15Y-117.21
X161.38Y-73.95
X161.5Y-66.44
X161.5Y-71.52
X161.56Y-85.97
X161.68Y-88.37
X161.7Y-81.48
X161.73Y-82.56
X161.73Y-84.92
X161.74Y-83.68
X162.13Y-87.4
X162.23Y-79.97
X162.72Y-86.43
X162.73Y-88.31
X162.79Y-48.55
X162.87Y-46.75
X162.99Y-44.83
X163.068Y-77.216
X163.667Y-53.562
X163.667Y-56.102
X163.667Y-58.642
X163.69Y-114.67
X163.69Y-115.94
X163.69Y-117.21
X163.77Y-63.71
X163.77Y-66.25
X163.77Y-68.79
X163.77Y-71.33
X163.77Y-73.87
X163.802Y-61.602
X164.51Y-92.76
X164.846Y-89.662
X165.44Y-111.65
X165.44Y-114.19
X165.44Y-116.73
X165.84Y-82.296
X166.71Y-111.65
X166.71Y-114.19
X166.71Y-116.73
X167.98Y-111.65
X167.98Y-114.19
X167.98Y-116.73
X168.04Y-92.64
X168.11Y-104.01
X168.11Y-106.55
X168.11Y-109.09
X168.15Y-80.04
X168.15Y-82.58
X168.15Y-85.12
X168.22Y-96.5
X168.22Y-99.04
X168.22Y-101.58
X168.656Y-89.916
X168.69Y-78.97
T2
X76.594Y-142.588
X76.712Y-39.683
X77.297Y-140.891
X77.297Y-144.285
X77.415Y-37.986
X77.415Y-41.38
X78.994Y-140.188
X78.994Y-144.988
X79.112Y-37.283
X79.112Y-42.083
X80.691Y-140.891
X80.691Y-144.285
X80.809Y-37.986
X80.809Y-41.38
X81.394Y-142.588
X81.512Y-39.683
X162.952Y-39.683
X162.952Y-142.588
X163.655Y-37.986
X163.655Y-41.38
X163.655Y-140.891
X163.655Y-144.285
X165.352Y-37.283
X165.352Y-42.083
X165.352Y-140.188
X165.352Y-144.988
X167.049Y-37.986
X167.049Y-41.38
X167.049Y-140.891
X167.049Y-144.285
X167.752Y-39.683
X167.752Y-142.588
T3
X136.74Y-67.24
X136.74Y-69.78
X139.28Y-67.24
X139.28Y-69.78
X141.82Y-67.24
X141.82Y-69.78
X144.36Y-67.24
X144.36Y-69.78
X154.81Y-55.32
X154.81Y-57.86
X154.81Y-60.4
X157.35Y-55.32
X157.35Y-57.86
X157.35Y-60.4
X161.133Y-99.123
X161.133Y-101.663
X161.133Y-104.203
X163.673Y-99.123
X163.673Y-101.663
X163.673Y-104.203
T4
X83.188Y-102.733
X83.188Y-107.813
X91.888Y-102.733
X91.888Y-107.813
X151.523Y-121.158
X151.523Y-126.238
X160.223Y-121.158
X160.223Y-126.238
T5
X78.994Y-142.588
X79.112Y-39.683
X165.352Y-39.683
X165.352Y-142.588
M30
