%TF.GenerationSoftware,KiCad,Pcbnew,9.0.5*%
%TF.CreationDate,2025-12-27T19:48:49-06:00*%
%TF.ProjectId,STAR_POWER_BOARD,53544152-5f50-44f5-9745-525f424f4152,rev?*%
%TF.SameCoordinates,Original*%
%TF.FileFunction,Drillmap*%
%TF.FilePolarity,Positive*%
%FSLAX45Y45*%
G04 Gerber Fmt 4.5, Leading zero omitted, Abs format (unit mm)*
G04 Created by KiCad (PCBNEW 9.0.5) date 2025-12-27 19:48:49*
%MOMM*%
%LPD*%
G01*
G04 APERTURE LIST*
%ADD10C,0.050000*%
%ADD11C,0.200000*%
%ADD12C,0.100000*%
%ADD13C,0.110000*%
%ADD14C,0.140000*%
%ADD15C,0.320000*%
G04 APERTURE END LIST*
D10*
X7411208Y-3468326D02*
X17035208Y-3468326D01*
X17035208Y-14758826D01*
X7411208Y-14758826D01*
X7411208Y-3468326D01*
D11*
D12*
X8274657Y-4756265D02*
X8304657Y-4786265D01*
X8304657Y-4756265D02*
X8274657Y-4786265D01*
X8279448Y-4485939D02*
X8309448Y-4515939D01*
X8309448Y-4485939D02*
X8279448Y-4515939D01*
X8279448Y-6037939D02*
X8309448Y-6067939D01*
X8309448Y-6037939D02*
X8279448Y-6067939D01*
X8279448Y-6291939D02*
X8309448Y-6321939D01*
X8309448Y-6291939D02*
X8279448Y-6321939D01*
X8287800Y-8633344D02*
X8317800Y-8663344D01*
X8317800Y-8633344D02*
X8287800Y-8663344D01*
X8287800Y-8760344D02*
X8317800Y-8790344D01*
X8317800Y-8760344D02*
X8287800Y-8790344D01*
X8287800Y-8887344D02*
X8317800Y-8917344D01*
X8317800Y-8887344D02*
X8287800Y-8917344D01*
X8287800Y-9014344D02*
X8317800Y-9044344D01*
X8317800Y-9014344D02*
X8287800Y-9044344D01*
X8287800Y-9141344D02*
X8317800Y-9171344D01*
X8317800Y-9141344D02*
X8287800Y-9171344D01*
X8287800Y-9268344D02*
X8317800Y-9298344D01*
X8317800Y-9268344D02*
X8287800Y-9298344D01*
X8292300Y-9425344D02*
X8322300Y-9455344D01*
X8322300Y-9425344D02*
X8292300Y-9455344D01*
X8292300Y-9552344D02*
X8322300Y-9582344D01*
X8322300Y-9552344D02*
X8292300Y-9582344D01*
X8364000Y-11376544D02*
X8394000Y-11406544D01*
X8394000Y-11376544D02*
X8364000Y-11406544D01*
X8364000Y-11655944D02*
X8394000Y-11685944D01*
X8394000Y-11655944D02*
X8364000Y-11685944D01*
X8364000Y-11986144D02*
X8394000Y-12016144D01*
X8394000Y-11986144D02*
X8364000Y-12016144D01*
X8364000Y-12316344D02*
X8394000Y-12346344D01*
X8394000Y-12316344D02*
X8364000Y-12346344D01*
X8364000Y-12621144D02*
X8394000Y-12651144D01*
X8394000Y-12621144D02*
X8364000Y-12651144D01*
X8364000Y-12900544D02*
X8394000Y-12930544D01*
X8394000Y-12900544D02*
X8364000Y-12930544D01*
X8364000Y-13230744D02*
X8394000Y-13260744D01*
X8394000Y-13230744D02*
X8364000Y-13260744D01*
X8364000Y-13560944D02*
X8394000Y-13590944D01*
X8394000Y-13560944D02*
X8364000Y-13590944D01*
X8528657Y-4756265D02*
X8558657Y-4786265D01*
X8558657Y-4756265D02*
X8528657Y-4786265D01*
X8533449Y-4485939D02*
X8563449Y-4515939D01*
X8563449Y-4485939D02*
X8533449Y-4515939D01*
X8541800Y-8633344D02*
X8571800Y-8663344D01*
X8571800Y-8633344D02*
X8541800Y-8663344D01*
X8541800Y-8760344D02*
X8571800Y-8790344D01*
X8571800Y-8760344D02*
X8541800Y-8790344D01*
X8541800Y-8887344D02*
X8571800Y-8917344D01*
X8571800Y-8887344D02*
X8541800Y-8917344D01*
X8541800Y-9014344D02*
X8571800Y-9044344D01*
X8571800Y-9014344D02*
X8541800Y-9044344D01*
X8541800Y-9141344D02*
X8571800Y-9171344D01*
X8571800Y-9141344D02*
X8541800Y-9171344D01*
X8541800Y-9268344D02*
X8571800Y-9298344D01*
X8571800Y-9268344D02*
X8541800Y-9298344D01*
X8541800Y-14094344D02*
X8571800Y-14124344D01*
X8571800Y-14094344D02*
X8541800Y-14124344D01*
X8541800Y-14221344D02*
X8571800Y-14251344D01*
X8571800Y-14221344D02*
X8541800Y-14251344D01*
X8541800Y-14348344D02*
X8571800Y-14378344D01*
X8571800Y-14348344D02*
X8541800Y-14378344D01*
X8546300Y-9425344D02*
X8576300Y-9455344D01*
X8576300Y-9425344D02*
X8546300Y-9455344D01*
X8546300Y-9552344D02*
X8576300Y-9582344D01*
X8576300Y-9552344D02*
X8546300Y-9582344D01*
X8694200Y-11376544D02*
X8724200Y-11406544D01*
X8724200Y-11376544D02*
X8694200Y-11406544D01*
X8694200Y-11655944D02*
X8724200Y-11685944D01*
X8724200Y-11655944D02*
X8694200Y-11685944D01*
X8694200Y-11986144D02*
X8724200Y-12016144D01*
X8724200Y-11986144D02*
X8694200Y-12016144D01*
X8694200Y-12316344D02*
X8724200Y-12346344D01*
X8724200Y-12316344D02*
X8694200Y-12346344D01*
X8694200Y-12621144D02*
X8724200Y-12651144D01*
X8724200Y-12621144D02*
X8694200Y-12651144D01*
X8694200Y-12900544D02*
X8724200Y-12930544D01*
X8724200Y-12900544D02*
X8694200Y-12930544D01*
X8694200Y-13230744D02*
X8724200Y-13260744D01*
X8724200Y-13230744D02*
X8694200Y-13260744D01*
X8694200Y-13560944D02*
X8724200Y-13590944D01*
X8724200Y-13560944D02*
X8694200Y-13590944D01*
X8782657Y-4756265D02*
X8812657Y-4786265D01*
X8812657Y-4756265D02*
X8782657Y-4786265D01*
X8787449Y-4485939D02*
X8817449Y-4515939D01*
X8817449Y-4485939D02*
X8787449Y-4515939D01*
X8787449Y-6037939D02*
X8817449Y-6067939D01*
X8817449Y-6037939D02*
X8787449Y-6067939D01*
X8787449Y-6291939D02*
X8817449Y-6321939D01*
X8817449Y-6291939D02*
X8787449Y-6321939D01*
X8795800Y-8633344D02*
X8825800Y-8663344D01*
X8825800Y-8633344D02*
X8795800Y-8663344D01*
X8795800Y-8760344D02*
X8825800Y-8790344D01*
X8825800Y-8760344D02*
X8795800Y-8790344D01*
X8795800Y-8887344D02*
X8825800Y-8917344D01*
X8825800Y-8887344D02*
X8795800Y-8917344D01*
X8795800Y-9014344D02*
X8825800Y-9044344D01*
X8825800Y-9014344D02*
X8795800Y-9044344D01*
X8795800Y-9141344D02*
X8825800Y-9171344D01*
X8825800Y-9141344D02*
X8795800Y-9171344D01*
X8795800Y-9268344D02*
X8825800Y-9298344D01*
X8825800Y-9268344D02*
X8795800Y-9298344D01*
X8795800Y-14094344D02*
X8825800Y-14124344D01*
X8825800Y-14094344D02*
X8795800Y-14124344D01*
X8795800Y-14221344D02*
X8825800Y-14251344D01*
X8825800Y-14221344D02*
X8795800Y-14251344D01*
X8795800Y-14348344D02*
X8825800Y-14378344D01*
X8825800Y-14348344D02*
X8795800Y-14378344D01*
X8800300Y-9425344D02*
X8830300Y-9455344D01*
X8830300Y-9425344D02*
X8800300Y-9455344D01*
X8800300Y-9552344D02*
X8830300Y-9582344D01*
X8830300Y-9552344D02*
X8800300Y-9582344D01*
X8999000Y-11376544D02*
X9029000Y-11406544D01*
X9029000Y-11376544D02*
X8999000Y-11406544D01*
X8999000Y-11655944D02*
X9029000Y-11685944D01*
X9029000Y-11655944D02*
X8999000Y-11685944D01*
X8999000Y-11986144D02*
X9029000Y-12016144D01*
X9029000Y-11986144D02*
X8999000Y-12016144D01*
X8999000Y-12316344D02*
X9029000Y-12346344D01*
X9029000Y-12316344D02*
X8999000Y-12346344D01*
X8999000Y-12621144D02*
X9029000Y-12651144D01*
X9029000Y-12621144D02*
X8999000Y-12651144D01*
X8999000Y-12900544D02*
X9029000Y-12930544D01*
X9029000Y-12900544D02*
X8999000Y-12930544D01*
X8999000Y-13230744D02*
X9029000Y-13260744D01*
X9029000Y-13230744D02*
X8999000Y-13260744D01*
X8999000Y-13560944D02*
X9029000Y-13590944D01*
X9029000Y-13560944D02*
X8999000Y-13590944D01*
X9036657Y-4756265D02*
X9066657Y-4786265D01*
X9066657Y-4756265D02*
X9036657Y-4786265D01*
X9041449Y-4485939D02*
X9071449Y-4515939D01*
X9071449Y-4485939D02*
X9041449Y-4515939D01*
X9049800Y-8633344D02*
X9079800Y-8663344D01*
X9079800Y-8633344D02*
X9049800Y-8663344D01*
X9049800Y-8760344D02*
X9079800Y-8790344D01*
X9079800Y-8760344D02*
X9049800Y-8790344D01*
X9049800Y-8887344D02*
X9079800Y-8917344D01*
X9079800Y-8887344D02*
X9049800Y-8917344D01*
X9049800Y-9014344D02*
X9079800Y-9044344D01*
X9079800Y-9014344D02*
X9049800Y-9044344D01*
X9049800Y-9141344D02*
X9079800Y-9171344D01*
X9079800Y-9141344D02*
X9049800Y-9171344D01*
X9049800Y-9268344D02*
X9079800Y-9298344D01*
X9079800Y-9268344D02*
X9049800Y-9298344D01*
X9049800Y-14094344D02*
X9079800Y-14124344D01*
X9079800Y-14094344D02*
X9049800Y-14124344D01*
X9049800Y-14221344D02*
X9079800Y-14251344D01*
X9079800Y-14221344D02*
X9049800Y-14251344D01*
X9049800Y-14348344D02*
X9079800Y-14378344D01*
X9079800Y-14348344D02*
X9049800Y-14378344D01*
X9054300Y-9425344D02*
X9084300Y-9455344D01*
X9084300Y-9425344D02*
X9054300Y-9455344D01*
X9054300Y-9552344D02*
X9084300Y-9582344D01*
X9084300Y-9552344D02*
X9054300Y-9582344D01*
X9290657Y-4756265D02*
X9320657Y-4786265D01*
X9320657Y-4756265D02*
X9290657Y-4786265D01*
X9295449Y-4485939D02*
X9325449Y-4515939D01*
X9325449Y-4485939D02*
X9295449Y-4515939D01*
X9295449Y-6037939D02*
X9325449Y-6067939D01*
X9325449Y-6037939D02*
X9295449Y-6067939D01*
X9295449Y-6291939D02*
X9325449Y-6321939D01*
X9325449Y-6291939D02*
X9295449Y-6321939D01*
X9303800Y-8633344D02*
X9333800Y-8663344D01*
X9333800Y-8633344D02*
X9303800Y-8663344D01*
X9303800Y-8760344D02*
X9333800Y-8790344D01*
X9333800Y-8760344D02*
X9303800Y-8790344D01*
X9303800Y-8887344D02*
X9333800Y-8917344D01*
X9333800Y-8887344D02*
X9303800Y-8917344D01*
X9303800Y-9014344D02*
X9333800Y-9044344D01*
X9333800Y-9014344D02*
X9303800Y-9044344D01*
X9303800Y-9141344D02*
X9333800Y-9171344D01*
X9333800Y-9141344D02*
X9303800Y-9171344D01*
X9303800Y-9268344D02*
X9333800Y-9298344D01*
X9333800Y-9268344D02*
X9303800Y-9298344D01*
X9303800Y-11376544D02*
X9333800Y-11406544D01*
X9333800Y-11376544D02*
X9303800Y-11406544D01*
X9303800Y-11655944D02*
X9333800Y-11685944D01*
X9333800Y-11655944D02*
X9303800Y-11685944D01*
X9303800Y-11986144D02*
X9333800Y-12016144D01*
X9333800Y-11986144D02*
X9303800Y-12016144D01*
X9303800Y-12316344D02*
X9333800Y-12346344D01*
X9333800Y-12316344D02*
X9303800Y-12346344D01*
X9303800Y-12621144D02*
X9333800Y-12651144D01*
X9333800Y-12621144D02*
X9303800Y-12651144D01*
X9303800Y-12900544D02*
X9333800Y-12930544D01*
X9333800Y-12900544D02*
X9303800Y-12930544D01*
X9303800Y-13230744D02*
X9333800Y-13260744D01*
X9333800Y-13230744D02*
X9303800Y-13260744D01*
X9303800Y-13560944D02*
X9333800Y-13590944D01*
X9333800Y-13560944D02*
X9303800Y-13590944D01*
X9303800Y-14094344D02*
X9333800Y-14124344D01*
X9333800Y-14094344D02*
X9303800Y-14124344D01*
X9303800Y-14221344D02*
X9333800Y-14251344D01*
X9333800Y-14221344D02*
X9303800Y-14251344D01*
X9303800Y-14348344D02*
X9333800Y-14378344D01*
X9333800Y-14348344D02*
X9303800Y-14378344D01*
X9308300Y-9425344D02*
X9338300Y-9455344D01*
X9338300Y-9425344D02*
X9308300Y-9455344D01*
X9308300Y-9552344D02*
X9338300Y-9582344D01*
X9338300Y-9552344D02*
X9308300Y-9582344D01*
X9557800Y-8633344D02*
X9587800Y-8663344D01*
X9587800Y-8633344D02*
X9557800Y-8663344D01*
X9557800Y-8760344D02*
X9587800Y-8790344D01*
X9587800Y-8760344D02*
X9557800Y-8790344D01*
X9557800Y-8887344D02*
X9587800Y-8917344D01*
X9587800Y-8887344D02*
X9557800Y-8917344D01*
X9557800Y-9014344D02*
X9587800Y-9044344D01*
X9587800Y-9014344D02*
X9557800Y-9044344D01*
X9557800Y-9141344D02*
X9587800Y-9171344D01*
X9587800Y-9141344D02*
X9557800Y-9171344D01*
X9557800Y-9268344D02*
X9587800Y-9298344D01*
X9587800Y-9268344D02*
X9557800Y-9298344D01*
X9557800Y-14094344D02*
X9587800Y-14124344D01*
X9587800Y-14094344D02*
X9557800Y-14124344D01*
X9557800Y-14221344D02*
X9587800Y-14251344D01*
X9587800Y-14221344D02*
X9557800Y-14251344D01*
X9557800Y-14348344D02*
X9587800Y-14378344D01*
X9587800Y-14348344D02*
X9557800Y-14378344D01*
X9562300Y-9425344D02*
X9592300Y-9455344D01*
X9592300Y-9425344D02*
X9562300Y-9455344D01*
X9562300Y-9552344D02*
X9592300Y-9582344D01*
X9592300Y-9552344D02*
X9562300Y-9582344D01*
X9596200Y-13191844D02*
X9626200Y-13221844D01*
X9626200Y-13191844D02*
X9596200Y-13221844D01*
X9630449Y-5960939D02*
X9660449Y-5990939D01*
X9660449Y-5960939D02*
X9630449Y-5990939D01*
X9642300Y-13392644D02*
X9672300Y-13422644D01*
X9672300Y-13392644D02*
X9642300Y-13422644D01*
X9642300Y-13722844D02*
X9672300Y-13752844D01*
X9672300Y-13722844D02*
X9642300Y-13752844D01*
X9645449Y-5650939D02*
X9675449Y-5680939D01*
X9675449Y-5650939D02*
X9645449Y-5680939D01*
X9720449Y-5188939D02*
X9750449Y-5218939D01*
X9750449Y-5188939D02*
X9720449Y-5218939D01*
X9721449Y-4562939D02*
X9751449Y-4592939D01*
X9751449Y-4562939D02*
X9721449Y-4592939D01*
X9740000Y-11158000D02*
X9770000Y-11188000D01*
X9770000Y-11158000D02*
X9740000Y-11188000D01*
X9748449Y-4854939D02*
X9778449Y-4884939D01*
X9778449Y-4854939D02*
X9748449Y-4884939D01*
X9748449Y-6291939D02*
X9778449Y-6321939D01*
X9778449Y-6291939D02*
X9748449Y-6321939D01*
X9752300Y-11385344D02*
X9782300Y-11415344D01*
X9782300Y-11385344D02*
X9752300Y-11415344D01*
X9811800Y-8633344D02*
X9841800Y-8663344D01*
X9841800Y-8633344D02*
X9811800Y-8663344D01*
X9811800Y-8760344D02*
X9841800Y-8790344D01*
X9841800Y-8760344D02*
X9811800Y-8790344D01*
X9811800Y-8887344D02*
X9841800Y-8917344D01*
X9841800Y-8887344D02*
X9811800Y-8917344D01*
X9811800Y-9014344D02*
X9841800Y-9044344D01*
X9841800Y-9014344D02*
X9811800Y-9044344D01*
X9811800Y-9141344D02*
X9841800Y-9171344D01*
X9841800Y-9141344D02*
X9811800Y-9171344D01*
X9811800Y-9268344D02*
X9841800Y-9298344D01*
X9841800Y-9268344D02*
X9811800Y-9298344D01*
X9811800Y-14094344D02*
X9841800Y-14124344D01*
X9841800Y-14094344D02*
X9811800Y-14124344D01*
X9811800Y-14221344D02*
X9841800Y-14251344D01*
X9841800Y-14221344D02*
X9811800Y-14251344D01*
X9811800Y-14348344D02*
X9841800Y-14378344D01*
X9841800Y-14348344D02*
X9811800Y-14378344D01*
X9857000Y-10748000D02*
X9887000Y-10778000D01*
X9887000Y-10748000D02*
X9857000Y-10778000D01*
X9935580Y-12748144D02*
X9965580Y-12778144D01*
X9965580Y-12748144D02*
X9935580Y-12778144D01*
X9949000Y-11091000D02*
X9979000Y-11121000D01*
X9979000Y-11091000D02*
X9949000Y-11121000D01*
X9964200Y-13586344D02*
X9994200Y-13616344D01*
X9994200Y-13586344D02*
X9964200Y-13616344D01*
X10011257Y-6008265D02*
X10041257Y-6038265D01*
X10041257Y-6008265D02*
X10011257Y-6038265D01*
X10037657Y-6355765D02*
X10067657Y-6385765D01*
X10067657Y-6355765D02*
X10037657Y-6385765D01*
X10065800Y-8633344D02*
X10095800Y-8663344D01*
X10095800Y-8633344D02*
X10065800Y-8663344D01*
X10065800Y-8760344D02*
X10095800Y-8790344D01*
X10095800Y-8760344D02*
X10065800Y-8790344D01*
X10065800Y-8887344D02*
X10095800Y-8917344D01*
X10095800Y-8887344D02*
X10065800Y-8917344D01*
X10065800Y-9014344D02*
X10095800Y-9044344D01*
X10095800Y-9014344D02*
X10065800Y-9044344D01*
X10065800Y-9141344D02*
X10095800Y-9171344D01*
X10095800Y-9141344D02*
X10065800Y-9171344D01*
X10065800Y-9268344D02*
X10095800Y-9298344D01*
X10095800Y-9268344D02*
X10065800Y-9298344D01*
X10065800Y-14221344D02*
X10095800Y-14251344D01*
X10095800Y-14221344D02*
X10065800Y-14251344D01*
X10065800Y-14348344D02*
X10095800Y-14378344D01*
X10095800Y-14348344D02*
X10065800Y-14378344D01*
X10065800Y-14475344D02*
X10095800Y-14505344D01*
X10095800Y-14475344D02*
X10065800Y-14505344D01*
X10091200Y-9979544D02*
X10121200Y-10009544D01*
X10121200Y-9979544D02*
X10091200Y-10009544D01*
X10091200Y-10258944D02*
X10121200Y-10288944D01*
X10121200Y-10258944D02*
X10091200Y-10288944D01*
X10091200Y-10589144D02*
X10121200Y-10619144D01*
X10121200Y-10589144D02*
X10091200Y-10619144D01*
X10091200Y-10919344D02*
X10121200Y-10949344D01*
X10121200Y-10919344D02*
X10091200Y-10949344D01*
X10091200Y-12748144D02*
X10121200Y-12778144D01*
X10121200Y-12748144D02*
X10091200Y-12778144D01*
X10097657Y-4575265D02*
X10127657Y-4605265D01*
X10127657Y-4575265D02*
X10097657Y-4605265D01*
X10098449Y-5217939D02*
X10128449Y-5247939D01*
X10128449Y-5217939D02*
X10098449Y-5247939D01*
X10109449Y-4855439D02*
X10139449Y-4885439D01*
X10139449Y-4855439D02*
X10109449Y-4885439D01*
X10137300Y-11450344D02*
X10167300Y-11480344D01*
X10167300Y-11450344D02*
X10137300Y-11480344D01*
X10218200Y-12748144D02*
X10248200Y-12778144D01*
X10248200Y-12748144D02*
X10218200Y-12778144D01*
X10290657Y-6008265D02*
X10320657Y-6038265D01*
X10320657Y-6008265D02*
X10290657Y-6038265D01*
X10294400Y-13586344D02*
X10324400Y-13616344D01*
X10324400Y-13586344D02*
X10294400Y-13616344D01*
X10297300Y-9040344D02*
X10327300Y-9070344D01*
X10327300Y-9040344D02*
X10297300Y-9070344D01*
X10319800Y-8633344D02*
X10349800Y-8663344D01*
X10349800Y-8633344D02*
X10319800Y-8663344D01*
X10319800Y-8760344D02*
X10349800Y-8790344D01*
X10349800Y-8760344D02*
X10319800Y-8790344D01*
X10319800Y-8887344D02*
X10349800Y-8917344D01*
X10349800Y-8887344D02*
X10319800Y-8917344D01*
X10319800Y-14221344D02*
X10349800Y-14251344D01*
X10349800Y-14221344D02*
X10319800Y-14251344D01*
X10319800Y-14348344D02*
X10349800Y-14378344D01*
X10349800Y-14348344D02*
X10319800Y-14378344D01*
X10319800Y-14475344D02*
X10349800Y-14505344D01*
X10349800Y-14475344D02*
X10319800Y-14505344D01*
X10345200Y-12748144D02*
X10375200Y-12778144D01*
X10375200Y-12748144D02*
X10345200Y-12778144D01*
X10383657Y-6370765D02*
X10413657Y-6400765D01*
X10413657Y-6370765D02*
X10383657Y-6400765D01*
X10421400Y-9979544D02*
X10451400Y-10009544D01*
X10451400Y-9979544D02*
X10421400Y-10009544D01*
X10421400Y-10258944D02*
X10451400Y-10288944D01*
X10451400Y-10258944D02*
X10421400Y-10288944D01*
X10421400Y-10589144D02*
X10451400Y-10619144D01*
X10451400Y-10589144D02*
X10421400Y-10619144D01*
X10421400Y-10919344D02*
X10451400Y-10949344D01*
X10451400Y-10919344D02*
X10421400Y-10949344D01*
X10467500Y-11120144D02*
X10497500Y-11150144D01*
X10497500Y-11120144D02*
X10467500Y-11150144D01*
X10467500Y-11450344D02*
X10497500Y-11480344D01*
X10497500Y-11450344D02*
X10467500Y-11480344D01*
X10472200Y-12748144D02*
X10502200Y-12778144D01*
X10502200Y-12748144D02*
X10472200Y-12778144D01*
X10472200Y-12849744D02*
X10502200Y-12879744D01*
X10502200Y-12849744D02*
X10472200Y-12879744D01*
X10551300Y-9040344D02*
X10581300Y-9070344D01*
X10581300Y-9040344D02*
X10551300Y-9070344D01*
X10573800Y-8633344D02*
X10603800Y-8663344D01*
X10603800Y-8633344D02*
X10573800Y-8663344D01*
X10573800Y-8760344D02*
X10603800Y-8790344D01*
X10603800Y-8760344D02*
X10573800Y-8790344D01*
X10573800Y-8887344D02*
X10603800Y-8917344D01*
X10603800Y-8887344D02*
X10573800Y-8917344D01*
X10573800Y-14221344D02*
X10603800Y-14251344D01*
X10603800Y-14221344D02*
X10573800Y-14251344D01*
X10573800Y-14348344D02*
X10603800Y-14378344D01*
X10603800Y-14348344D02*
X10573800Y-14378344D01*
X10573800Y-14475344D02*
X10603800Y-14505344D01*
X10603800Y-14475344D02*
X10573800Y-14505344D01*
X10599200Y-13586344D02*
X10629200Y-13616344D01*
X10629200Y-13586344D02*
X10599200Y-13616344D01*
X10633757Y-6005765D02*
X10663757Y-6035765D01*
X10663757Y-6005765D02*
X10633757Y-6035765D01*
X10637657Y-6370765D02*
X10667657Y-6400765D01*
X10667657Y-6370765D02*
X10637657Y-6400765D01*
X10647657Y-4561765D02*
X10677657Y-4591765D01*
X10677657Y-4561765D02*
X10647657Y-4591765D01*
X10648449Y-5204439D02*
X10678449Y-5234439D01*
X10678449Y-5204439D02*
X10648449Y-5234439D01*
X10659449Y-4841939D02*
X10689449Y-4871939D01*
X10689449Y-4841939D02*
X10659449Y-4871939D01*
X10718580Y-12745604D02*
X10748580Y-12775604D01*
X10748580Y-12745604D02*
X10718580Y-12775604D01*
X10726200Y-9979544D02*
X10756200Y-10009544D01*
X10756200Y-9979544D02*
X10726200Y-10009544D01*
X10726200Y-10258944D02*
X10756200Y-10288944D01*
X10756200Y-10258944D02*
X10726200Y-10288944D01*
X10726200Y-10589144D02*
X10756200Y-10619144D01*
X10756200Y-10589144D02*
X10726200Y-10619144D01*
X10726200Y-10919344D02*
X10756200Y-10949344D01*
X10756200Y-10919344D02*
X10726200Y-10949344D01*
X10772300Y-11120144D02*
X10802300Y-11150144D01*
X10802300Y-11120144D02*
X10772300Y-11150144D01*
X10772300Y-11450344D02*
X10802300Y-11480344D01*
X10802300Y-11450344D02*
X10772300Y-11480344D01*
X10827800Y-14221344D02*
X10857800Y-14251344D01*
X10857800Y-14221344D02*
X10827800Y-14251344D01*
X10827800Y-14348344D02*
X10857800Y-14378344D01*
X10857800Y-14348344D02*
X10827800Y-14378344D01*
X10827800Y-14475344D02*
X10857800Y-14505344D01*
X10857800Y-14475344D02*
X10827800Y-14505344D01*
X10878600Y-12748144D02*
X10908600Y-12778144D01*
X10908600Y-12748144D02*
X10878600Y-12778144D01*
X10904000Y-13586344D02*
X10934000Y-13616344D01*
X10934000Y-13586344D02*
X10904000Y-13616344D01*
X10913157Y-6005765D02*
X10943157Y-6035765D01*
X10943157Y-6005765D02*
X10913157Y-6035765D01*
X11005600Y-12748144D02*
X11035600Y-12778144D01*
X11035600Y-12748144D02*
X11005600Y-12778144D01*
X11018300Y-8760344D02*
X11048300Y-8790344D01*
X11048300Y-8760344D02*
X11018300Y-8790344D01*
X11031000Y-9979544D02*
X11061000Y-10009544D01*
X11061000Y-9979544D02*
X11031000Y-10009544D01*
X11031000Y-10258944D02*
X11061000Y-10288944D01*
X11061000Y-10258944D02*
X11031000Y-10288944D01*
X11031000Y-10589144D02*
X11061000Y-10619144D01*
X11061000Y-10589144D02*
X11031000Y-10619144D01*
X11031000Y-10919344D02*
X11061000Y-10949344D01*
X11061000Y-10919344D02*
X11031000Y-10949344D01*
X11040449Y-4547939D02*
X11070449Y-4577939D01*
X11070449Y-4547939D02*
X11040449Y-4577939D01*
X11041157Y-6395765D02*
X11071157Y-6425765D01*
X11071157Y-6395765D02*
X11041157Y-6425765D01*
X11077100Y-11120144D02*
X11107100Y-11150144D01*
X11107100Y-11120144D02*
X11077100Y-11150144D01*
X11077100Y-11450344D02*
X11107100Y-11480344D01*
X11107100Y-11450344D02*
X11077100Y-11480344D01*
X11081800Y-14221344D02*
X11111800Y-14251344D01*
X11111800Y-14221344D02*
X11081800Y-14251344D01*
X11081800Y-14348344D02*
X11111800Y-14378344D01*
X11111800Y-14348344D02*
X11081800Y-14378344D01*
X11081800Y-14475344D02*
X11111800Y-14505344D01*
X11111800Y-14475344D02*
X11081800Y-14505344D01*
X11132600Y-12748144D02*
X11162600Y-12778144D01*
X11162600Y-12748144D02*
X11132600Y-12778144D01*
X11221657Y-4758265D02*
X11251657Y-4788265D01*
X11251657Y-4758265D02*
X11221657Y-4788265D01*
X11221657Y-5990165D02*
X11251657Y-6020165D01*
X11251657Y-5990165D02*
X11221657Y-6020165D01*
X11253657Y-6213265D02*
X11283657Y-6243265D01*
X11283657Y-6213265D02*
X11253657Y-6243265D01*
X11259600Y-12748144D02*
X11289600Y-12778144D01*
X11289600Y-12748144D02*
X11259600Y-12778144D01*
X11259600Y-12849744D02*
X11289600Y-12879744D01*
X11289600Y-12849744D02*
X11259600Y-12879744D01*
X11295157Y-6395765D02*
X11325157Y-6425765D01*
X11325157Y-6395765D02*
X11295157Y-6425765D01*
X11301200Y-10856844D02*
X11331200Y-10886844D01*
X11331200Y-10856844D02*
X11301200Y-10886844D01*
X11306200Y-9949344D02*
X11336200Y-9979344D01*
X11336200Y-9949344D02*
X11306200Y-9979344D01*
X11335800Y-14221344D02*
X11365800Y-14251344D01*
X11365800Y-14221344D02*
X11335800Y-14251344D01*
X11335800Y-14348344D02*
X11365800Y-14378344D01*
X11365800Y-14348344D02*
X11335800Y-14378344D01*
X11335800Y-14475344D02*
X11365800Y-14505344D01*
X11365800Y-14475344D02*
X11335800Y-14505344D01*
X11347300Y-11057644D02*
X11377300Y-11087644D01*
X11377300Y-11057644D02*
X11347300Y-11087644D01*
X11347300Y-11387844D02*
X11377300Y-11417844D01*
X11377300Y-11387844D02*
X11347300Y-11417844D01*
X11352300Y-10150144D02*
X11382300Y-10180144D01*
X11382300Y-10150144D02*
X11352300Y-10180144D01*
X11352300Y-10480344D02*
X11382300Y-10510344D01*
X11382300Y-10480344D02*
X11352300Y-10510344D01*
X11361200Y-12900544D02*
X11391200Y-12930544D01*
X11391200Y-12900544D02*
X11361200Y-12930544D01*
X11361200Y-13002144D02*
X11391200Y-13032144D01*
X11391200Y-13002144D02*
X11361200Y-13032144D01*
X11386600Y-12748144D02*
X11416600Y-12778144D01*
X11416600Y-12748144D02*
X11386600Y-12778144D01*
X11501057Y-5990165D02*
X11531057Y-6020165D01*
X11531057Y-5990165D02*
X11501057Y-6020165D01*
X11501448Y-4526939D02*
X11531448Y-4556939D01*
X11531448Y-4526939D02*
X11501448Y-4556939D01*
X11507657Y-6213265D02*
X11537657Y-6243265D01*
X11537657Y-6213265D02*
X11507657Y-6243265D01*
X11513600Y-12748144D02*
X11543600Y-12778144D01*
X11543600Y-12748144D02*
X11513600Y-12778144D01*
X11529000Y-11697000D02*
X11559000Y-11727000D01*
X11559000Y-11697000D02*
X11529000Y-11727000D01*
X11640600Y-12748144D02*
X11670600Y-12778144D01*
X11670600Y-12748144D02*
X11640600Y-12778144D01*
X11666000Y-12417944D02*
X11696000Y-12447944D01*
X11696000Y-12417944D02*
X11666000Y-12447944D01*
X11780300Y-10830444D02*
X11810300Y-10860444D01*
X11810300Y-10830444D02*
X11780300Y-10860444D01*
X11782800Y-12727344D02*
X11812800Y-12757344D01*
X11812800Y-12727344D02*
X11782800Y-12757344D01*
X11827600Y-11379344D02*
X11857600Y-11409344D01*
X11857600Y-11379344D02*
X11827600Y-11409344D01*
X11869200Y-11478144D02*
X11899200Y-11508144D01*
X11899200Y-11478144D02*
X11869200Y-11508144D01*
X11905000Y-4640000D02*
X11935000Y-4670000D01*
X11935000Y-4640000D02*
X11905000Y-4670000D01*
X11907300Y-13167244D02*
X11937300Y-13197244D01*
X11937300Y-13167244D02*
X11907300Y-13197244D01*
X11945400Y-12824344D02*
X11975400Y-12854344D01*
X11975400Y-12824344D02*
X11945400Y-12854344D01*
X11945400Y-12925944D02*
X11975400Y-12955944D01*
X11975400Y-12925944D02*
X11945400Y-12955944D01*
X11959448Y-4452439D02*
X11989448Y-4482439D01*
X11989448Y-4452439D02*
X11959448Y-4482439D01*
X11970800Y-8506344D02*
X12000800Y-8536344D01*
X12000800Y-8506344D02*
X11970800Y-8536344D01*
X11970800Y-8633344D02*
X12000800Y-8663344D01*
X12000800Y-8633344D02*
X11970800Y-8663344D01*
X11970800Y-12240144D02*
X12000800Y-12270144D01*
X12000800Y-12240144D02*
X11970800Y-12270144D01*
X11995800Y-8835344D02*
X12025800Y-8865344D01*
X12025800Y-8835344D02*
X11995800Y-8865344D01*
X12021600Y-10817744D02*
X12051600Y-10847744D01*
X12051600Y-10817744D02*
X12021600Y-10847744D01*
X12021600Y-12748144D02*
X12051600Y-12778144D01*
X12051600Y-12748144D02*
X12021600Y-12778144D01*
X12047000Y-11528944D02*
X12077000Y-11558944D01*
X12077000Y-11528944D02*
X12047000Y-11558944D01*
X12148600Y-12748144D02*
X12178600Y-12778144D01*
X12178600Y-12748144D02*
X12148600Y-12778144D01*
X12224800Y-8506344D02*
X12254800Y-8536344D01*
X12254800Y-8506344D02*
X12224800Y-8536344D01*
X12224800Y-8633344D02*
X12254800Y-8663344D01*
X12254800Y-8633344D02*
X12224800Y-8663344D01*
X12237657Y-4440765D02*
X12267657Y-4470765D01*
X12267657Y-4440765D02*
X12237657Y-4470765D01*
X12240157Y-4700765D02*
X12270157Y-4730765D01*
X12270157Y-4700765D02*
X12240157Y-4730765D01*
X12249800Y-8835344D02*
X12279800Y-8865344D01*
X12279800Y-8835344D02*
X12249800Y-8865344D01*
X12275600Y-12748144D02*
X12305600Y-12778144D01*
X12305600Y-12748144D02*
X12275600Y-12778144D01*
X12288300Y-13225664D02*
X12318300Y-13255664D01*
X12318300Y-13225664D02*
X12288300Y-13255664D01*
X12402600Y-12748144D02*
X12432600Y-12778144D01*
X12432600Y-12748144D02*
X12402600Y-12778144D01*
X12428000Y-12849744D02*
X12458000Y-12879744D01*
X12458000Y-12849744D02*
X12428000Y-12879744D01*
X12428000Y-12951344D02*
X12458000Y-12981344D01*
X12458000Y-12951344D02*
X12428000Y-12981344D01*
X12478800Y-8506344D02*
X12508800Y-8536344D01*
X12508800Y-8506344D02*
X12478800Y-8536344D01*
X12478800Y-8633344D02*
X12508800Y-8663344D01*
X12508800Y-8633344D02*
X12478800Y-8663344D01*
X12491657Y-4440765D02*
X12521657Y-4470765D01*
X12521657Y-4440765D02*
X12491657Y-4470765D01*
X12494157Y-4700765D02*
X12524157Y-4730765D01*
X12524157Y-4700765D02*
X12494157Y-4730765D01*
X12503800Y-8835344D02*
X12533800Y-8865344D01*
X12533800Y-8835344D02*
X12503800Y-8865344D01*
X12529600Y-12748144D02*
X12559600Y-12778144D01*
X12559600Y-12748144D02*
X12529600Y-12778144D01*
X12529600Y-12849744D02*
X12559600Y-12879744D01*
X12559600Y-12849744D02*
X12529600Y-12879744D01*
X12529600Y-12951344D02*
X12559600Y-12981344D01*
X12559600Y-12951344D02*
X12529600Y-12981344D01*
X12529600Y-14119744D02*
X12559600Y-14149744D01*
X12559600Y-14119744D02*
X12529600Y-14149744D01*
X12529600Y-14297544D02*
X12559600Y-14327544D01*
X12559600Y-14297544D02*
X12529600Y-14327544D01*
X12732800Y-8506344D02*
X12762800Y-8536344D01*
X12762800Y-8506344D02*
X12732800Y-8536344D01*
X12732800Y-8633344D02*
X12762800Y-8663344D01*
X12762800Y-8633344D02*
X12732800Y-8663344D01*
X12732800Y-12875144D02*
X12762800Y-12905144D01*
X12762800Y-12875144D02*
X12732800Y-12905144D01*
X12732800Y-13002144D02*
X12762800Y-13032144D01*
X12762800Y-13002144D02*
X12732800Y-13032144D01*
X12732800Y-13129144D02*
X12762800Y-13159144D01*
X12762800Y-13129144D02*
X12732800Y-13159144D01*
X12732800Y-14119744D02*
X12762800Y-14149744D01*
X12762800Y-14119744D02*
X12732800Y-14149744D01*
X12732800Y-14297544D02*
X12762800Y-14327544D01*
X12762800Y-14297544D02*
X12732800Y-14327544D01*
X12745657Y-4440765D02*
X12775657Y-4470765D01*
X12775657Y-4440765D02*
X12745657Y-4470765D01*
X12748157Y-4700765D02*
X12778157Y-4730765D01*
X12778157Y-4700765D02*
X12748157Y-4730765D01*
X12757800Y-8835344D02*
X12787800Y-8865344D01*
X12787800Y-8835344D02*
X12757800Y-8865344D01*
X12859800Y-12875144D02*
X12889800Y-12905144D01*
X12889800Y-12875144D02*
X12859800Y-12905144D01*
X12859800Y-13002144D02*
X12889800Y-13032144D01*
X12889800Y-13002144D02*
X12859800Y-13032144D01*
X12859800Y-13129144D02*
X12889800Y-13159144D01*
X12889800Y-13129144D02*
X12859800Y-13159144D01*
X12961400Y-14119744D02*
X12991400Y-14149744D01*
X12991400Y-14119744D02*
X12961400Y-14149744D01*
X12961400Y-14297544D02*
X12991400Y-14327544D01*
X12991400Y-14297544D02*
X12961400Y-14327544D01*
X12986800Y-8506344D02*
X13016800Y-8536344D01*
X13016800Y-8506344D02*
X12986800Y-8536344D01*
X12986800Y-8633344D02*
X13016800Y-8663344D01*
X13016800Y-8633344D02*
X12986800Y-8663344D01*
X12999657Y-4440765D02*
X13029657Y-4470765D01*
X13029657Y-4440765D02*
X12999657Y-4470765D01*
X13002157Y-4700765D02*
X13032157Y-4730765D01*
X13032157Y-4700765D02*
X13002157Y-4730765D01*
X13011800Y-8835344D02*
X13041800Y-8865344D01*
X13041800Y-8835344D02*
X13011800Y-8865344D01*
X13164600Y-14119744D02*
X13194600Y-14149744D01*
X13194600Y-14119744D02*
X13164600Y-14149744D01*
X13164600Y-14297544D02*
X13194600Y-14327544D01*
X13194600Y-14297544D02*
X13164600Y-14327544D01*
X13240800Y-8506344D02*
X13270800Y-8536344D01*
X13270800Y-8506344D02*
X13240800Y-8536344D01*
X13240800Y-8633344D02*
X13270800Y-8663344D01*
X13270800Y-8633344D02*
X13240800Y-8663344D01*
X13252300Y-11555544D02*
X13282300Y-11585544D01*
X13282300Y-11555544D02*
X13252300Y-11585544D01*
X13252300Y-11707944D02*
X13282300Y-11737944D01*
X13282300Y-11707944D02*
X13252300Y-11737944D01*
X13252300Y-11860344D02*
X13282300Y-11890344D01*
X13282300Y-11860344D02*
X13252300Y-11890344D01*
X13253657Y-4440765D02*
X13283657Y-4470765D01*
X13283657Y-4440765D02*
X13253657Y-4470765D01*
X13256157Y-4700765D02*
X13286157Y-4730765D01*
X13286157Y-4700765D02*
X13256157Y-4730765D01*
X13265800Y-8835344D02*
X13295800Y-8865344D01*
X13295800Y-8835344D02*
X13265800Y-8865344D01*
X13266000Y-7401000D02*
X13296000Y-7431000D01*
X13296000Y-7401000D02*
X13266000Y-7431000D01*
X13331800Y-10537344D02*
X13361800Y-10567344D01*
X13361800Y-10537344D02*
X13331800Y-10567344D01*
X13331800Y-10791344D02*
X13361800Y-10821344D01*
X13361800Y-10791344D02*
X13331800Y-10821344D01*
X13331800Y-11045344D02*
X13361800Y-11075344D01*
X13361800Y-11045344D02*
X13331800Y-11075344D01*
X13455500Y-11555544D02*
X13485500Y-11585544D01*
X13485500Y-11555544D02*
X13455500Y-11585544D01*
X13455500Y-11707944D02*
X13485500Y-11737944D01*
X13485500Y-11707944D02*
X13455500Y-11737944D01*
X13455500Y-11860344D02*
X13485500Y-11890344D01*
X13485500Y-11860344D02*
X13455500Y-11890344D01*
X13469400Y-12875144D02*
X13499400Y-12905144D01*
X13499400Y-12875144D02*
X13469400Y-12905144D01*
X13469400Y-13002144D02*
X13499400Y-13032144D01*
X13499400Y-13002144D02*
X13469400Y-13032144D01*
X13469400Y-13129144D02*
X13499400Y-13159144D01*
X13499400Y-13129144D02*
X13469400Y-13159144D01*
X13494800Y-8506344D02*
X13524800Y-8536344D01*
X13524800Y-8506344D02*
X13494800Y-8536344D01*
X13494800Y-8633344D02*
X13524800Y-8663344D01*
X13524800Y-8633344D02*
X13494800Y-8663344D01*
X13507657Y-4440765D02*
X13537657Y-4470765D01*
X13537657Y-4440765D02*
X13507657Y-4470765D01*
X13510157Y-4700765D02*
X13540157Y-4730765D01*
X13540157Y-4700765D02*
X13510157Y-4730765D01*
X13519800Y-8835344D02*
X13549800Y-8865344D01*
X13549800Y-8835344D02*
X13519800Y-8865344D01*
X13520000Y-7401000D02*
X13550000Y-7431000D01*
X13550000Y-7401000D02*
X13520000Y-7431000D01*
X13585800Y-10537344D02*
X13615800Y-10567344D01*
X13615800Y-10537344D02*
X13585800Y-10567344D01*
X13585800Y-10791344D02*
X13615800Y-10821344D01*
X13615800Y-10791344D02*
X13585800Y-10821344D01*
X13585800Y-11045344D02*
X13615800Y-11075344D01*
X13615800Y-11045344D02*
X13585800Y-11075344D01*
X13589800Y-10052844D02*
X13619800Y-10082844D01*
X13619800Y-10052844D02*
X13589800Y-10082844D01*
X13589800Y-10306844D02*
X13619800Y-10336844D01*
X13619800Y-10306844D02*
X13589800Y-10336844D01*
X13596400Y-12875144D02*
X13626400Y-12905144D01*
X13626400Y-12875144D02*
X13596400Y-12905144D01*
X13596400Y-13002144D02*
X13626400Y-13032144D01*
X13626400Y-13002144D02*
X13596400Y-13032144D01*
X13596400Y-13129144D02*
X13626400Y-13159144D01*
X13626400Y-13129144D02*
X13596400Y-13159144D01*
X13621800Y-9395344D02*
X13651800Y-9425344D01*
X13651800Y-9395344D02*
X13621800Y-9425344D01*
X13621800Y-9649344D02*
X13651800Y-9679344D01*
X13651800Y-9649344D02*
X13621800Y-9679344D01*
X13621800Y-9903344D02*
X13651800Y-9933344D01*
X13651800Y-9903344D02*
X13621800Y-9933344D01*
X13684100Y-11555544D02*
X13714100Y-11585544D01*
X13714100Y-11555544D02*
X13684100Y-11585544D01*
X13684100Y-11707944D02*
X13714100Y-11737944D01*
X13714100Y-11707944D02*
X13684100Y-11737944D01*
X13684100Y-11860344D02*
X13714100Y-11890344D01*
X13714100Y-11860344D02*
X13684100Y-11890344D01*
X13718448Y-4443939D02*
X13748448Y-4473939D01*
X13748448Y-4443939D02*
X13718448Y-4473939D01*
X13745000Y-5198000D02*
X13775000Y-5228000D01*
X13775000Y-5198000D02*
X13745000Y-5228000D01*
X13748800Y-8506344D02*
X13778800Y-8536344D01*
X13778800Y-8506344D02*
X13748800Y-8536344D01*
X13748800Y-8633344D02*
X13778800Y-8663344D01*
X13778800Y-8633344D02*
X13748800Y-8663344D01*
X13774000Y-7401000D02*
X13804000Y-7431000D01*
X13804000Y-7401000D02*
X13774000Y-7431000D01*
X13792300Y-12145544D02*
X13822300Y-12175544D01*
X13822300Y-12145544D02*
X13792300Y-12175544D01*
X13792300Y-12297944D02*
X13822300Y-12327944D01*
X13822300Y-12297944D02*
X13792300Y-12327944D01*
X13792300Y-12450344D02*
X13822300Y-12480344D01*
X13822300Y-12450344D02*
X13792300Y-12480344D01*
X13825000Y-5438700D02*
X13855000Y-5468700D01*
X13855000Y-5438700D02*
X13825000Y-5468700D01*
X13835000Y-5756000D02*
X13865000Y-5786000D01*
X13865000Y-5756000D02*
X13835000Y-5786000D01*
X13835000Y-6086200D02*
X13865000Y-6116200D01*
X13865000Y-6086200D02*
X13835000Y-6116200D01*
X13839800Y-10537344D02*
X13869800Y-10567344D01*
X13869800Y-10537344D02*
X13839800Y-10567344D01*
X13839800Y-10791344D02*
X13869800Y-10821344D01*
X13869800Y-10791344D02*
X13839800Y-10821344D01*
X13839800Y-11045344D02*
X13869800Y-11075344D01*
X13869800Y-11045344D02*
X13839800Y-11075344D01*
X13843800Y-10052844D02*
X13873800Y-10082844D01*
X13873800Y-10052844D02*
X13843800Y-10082844D01*
X13843800Y-10306844D02*
X13873800Y-10336844D01*
X13873800Y-10306844D02*
X13843800Y-10336844D01*
X13850400Y-13306944D02*
X13880400Y-13336944D01*
X13880400Y-13306944D02*
X13850400Y-13336944D01*
X13850400Y-13510144D02*
X13880400Y-13540144D01*
X13880400Y-13510144D02*
X13850400Y-13540144D01*
X13850400Y-13738744D02*
X13880400Y-13768744D01*
X13880400Y-13738744D02*
X13850400Y-13768744D01*
X13850400Y-13941944D02*
X13880400Y-13971944D01*
X13880400Y-13941944D02*
X13850400Y-13971944D01*
X13855000Y-5608700D02*
X13885000Y-5638700D01*
X13885000Y-5608700D02*
X13855000Y-5638700D01*
X13855000Y-5921000D02*
X13885000Y-5951000D01*
X13885000Y-5921000D02*
X13855000Y-5951000D01*
X13855000Y-6251200D02*
X13885000Y-6281200D01*
X13885000Y-6251200D02*
X13855000Y-6281200D01*
X13875800Y-9395344D02*
X13905800Y-9425344D01*
X13905800Y-9395344D02*
X13875800Y-9425344D01*
X13875800Y-9649344D02*
X13905800Y-9679344D01*
X13905800Y-9649344D02*
X13875800Y-9679344D01*
X13875800Y-9903344D02*
X13905800Y-9933344D01*
X13905800Y-9903344D02*
X13875800Y-9933344D01*
X13878000Y-4661000D02*
X13908000Y-4691000D01*
X13908000Y-4661000D02*
X13878000Y-4691000D01*
X13887300Y-11555544D02*
X13917300Y-11585544D01*
X13917300Y-11555544D02*
X13887300Y-11585544D01*
X13887300Y-11707944D02*
X13917300Y-11737944D01*
X13917300Y-11707944D02*
X13887300Y-11737944D01*
X13887300Y-11860344D02*
X13917300Y-11890344D01*
X13917300Y-11860344D02*
X13887300Y-11890344D01*
X13942000Y-8512000D02*
X13972000Y-8542000D01*
X13972000Y-8512000D02*
X13942000Y-8542000D01*
X13942000Y-8639000D02*
X13972000Y-8669000D01*
X13972000Y-8639000D02*
X13942000Y-8669000D01*
X13987300Y-12723044D02*
X14017300Y-12753044D01*
X14017300Y-12723044D02*
X13987300Y-12753044D01*
X13987300Y-12875444D02*
X14017300Y-12905444D01*
X14017300Y-12875444D02*
X13987300Y-12905444D01*
X13987300Y-13027844D02*
X14017300Y-13057844D01*
X14017300Y-13027844D02*
X13987300Y-13057844D01*
X13995500Y-12145544D02*
X14025500Y-12175544D01*
X14025500Y-12145544D02*
X13995500Y-12175544D01*
X13995500Y-12297944D02*
X14025500Y-12327944D01*
X14025500Y-12297944D02*
X13995500Y-12327944D01*
X13995500Y-12450344D02*
X14025500Y-12480344D01*
X14025500Y-12450344D02*
X13995500Y-12480344D01*
X14014448Y-4430439D02*
X14044448Y-4460439D01*
X14044448Y-4430439D02*
X14014448Y-4460439D01*
X14028000Y-7401000D02*
X14058000Y-7431000D01*
X14058000Y-7401000D02*
X14028000Y-7431000D01*
X14069800Y-14010544D02*
X14099800Y-14040544D01*
X14099800Y-14010544D02*
X14069800Y-14040544D01*
X14069800Y-14162944D02*
X14099800Y-14192944D01*
X14099800Y-14162944D02*
X14069800Y-14192944D01*
X14069800Y-14315344D02*
X14099800Y-14345344D01*
X14099800Y-14315344D02*
X14069800Y-14345344D01*
X14093800Y-10537344D02*
X14123800Y-10567344D01*
X14123800Y-10537344D02*
X14093800Y-10567344D01*
X14093800Y-10791344D02*
X14123800Y-10821344D01*
X14123800Y-10791344D02*
X14093800Y-10821344D01*
X14093800Y-11045344D02*
X14123800Y-11075344D01*
X14123800Y-11045344D02*
X14093800Y-11075344D01*
X14097800Y-10052844D02*
X14127800Y-10082844D01*
X14127800Y-10052844D02*
X14097800Y-10082844D01*
X14097800Y-10306844D02*
X14127800Y-10336844D01*
X14127800Y-10306844D02*
X14097800Y-10336844D01*
X14120000Y-13477000D02*
X14150000Y-13507000D01*
X14150000Y-13477000D02*
X14120000Y-13507000D01*
X14122000Y-13312000D02*
X14152000Y-13342000D01*
X14152000Y-13312000D02*
X14122000Y-13342000D01*
X14129800Y-9395344D02*
X14159800Y-9425344D01*
X14159800Y-9395344D02*
X14129800Y-9425344D01*
X14129800Y-9649344D02*
X14159800Y-9679344D01*
X14159800Y-9649344D02*
X14129800Y-9679344D01*
X14129800Y-9903344D02*
X14159800Y-9933344D01*
X14159800Y-9903344D02*
X14129800Y-9933344D01*
X14146000Y-4659000D02*
X14176000Y-4689000D01*
X14176000Y-4659000D02*
X14146000Y-4689000D01*
X14155200Y-5438700D02*
X14185200Y-5468700D01*
X14185200Y-5438700D02*
X14155200Y-5468700D01*
X14165200Y-5756000D02*
X14195200Y-5786000D01*
X14195200Y-5756000D02*
X14165200Y-5786000D01*
X14165200Y-6086200D02*
X14195200Y-6116200D01*
X14195200Y-6086200D02*
X14165200Y-6116200D01*
X14185200Y-5608700D02*
X14215200Y-5638700D01*
X14215200Y-5608700D02*
X14185200Y-5638700D01*
X14185200Y-5921000D02*
X14215200Y-5951000D01*
X14215200Y-5921000D02*
X14185200Y-5951000D01*
X14185200Y-6251200D02*
X14215200Y-6281200D01*
X14215200Y-6251200D02*
X14185200Y-6281200D01*
X14190500Y-12723044D02*
X14220500Y-12753044D01*
X14220500Y-12723044D02*
X14190500Y-12753044D01*
X14190500Y-12875444D02*
X14220500Y-12905444D01*
X14220500Y-12875444D02*
X14190500Y-12905444D01*
X14190500Y-13027844D02*
X14220500Y-13057844D01*
X14220500Y-13027844D02*
X14190500Y-13057844D01*
X14224100Y-12145544D02*
X14254100Y-12175544D01*
X14254100Y-12145544D02*
X14224100Y-12175544D01*
X14224100Y-12297944D02*
X14254100Y-12327944D01*
X14254100Y-12297944D02*
X14224100Y-12327944D01*
X14224100Y-12450344D02*
X14254100Y-12480344D01*
X14254100Y-12450344D02*
X14224100Y-12480344D01*
X14256800Y-8506344D02*
X14286800Y-8536344D01*
X14286800Y-8506344D02*
X14256800Y-8536344D01*
X14256800Y-8633344D02*
X14286800Y-8663344D01*
X14286800Y-8633344D02*
X14256800Y-8663344D01*
X14268448Y-4430439D02*
X14298448Y-4460439D01*
X14298448Y-4430439D02*
X14268448Y-4460439D01*
X14273000Y-14010544D02*
X14303000Y-14040544D01*
X14303000Y-14010544D02*
X14273000Y-14040544D01*
X14273000Y-14162944D02*
X14303000Y-14192944D01*
X14303000Y-14162944D02*
X14273000Y-14192944D01*
X14273000Y-14315344D02*
X14303000Y-14345344D01*
X14303000Y-14315344D02*
X14273000Y-14345344D01*
X14282000Y-7401000D02*
X14312000Y-7431000D01*
X14312000Y-7401000D02*
X14282000Y-7431000D01*
X14351800Y-10052844D02*
X14381800Y-10082844D01*
X14381800Y-10052844D02*
X14351800Y-10082844D01*
X14351800Y-10306844D02*
X14381800Y-10336844D01*
X14381800Y-10306844D02*
X14351800Y-10336844D01*
X14358400Y-13306944D02*
X14388400Y-13336944D01*
X14388400Y-13306944D02*
X14358400Y-13336944D01*
X14358400Y-13459344D02*
X14388400Y-13489344D01*
X14388400Y-13459344D02*
X14358400Y-13489344D01*
X14358400Y-13611744D02*
X14388400Y-13641744D01*
X14388400Y-13611744D02*
X14358400Y-13641744D01*
X14383800Y-9395344D02*
X14413800Y-9425344D01*
X14413800Y-9395344D02*
X14383800Y-9425344D01*
X14383800Y-9649344D02*
X14413800Y-9679344D01*
X14413800Y-9649344D02*
X14383800Y-9679344D01*
X14383800Y-9903344D02*
X14413800Y-9933344D01*
X14413800Y-9903344D02*
X14383800Y-9933344D01*
X14419100Y-12723044D02*
X14449100Y-12753044D01*
X14449100Y-12723044D02*
X14419100Y-12753044D01*
X14419100Y-12875444D02*
X14449100Y-12905444D01*
X14449100Y-12875444D02*
X14419100Y-12905444D01*
X14419100Y-13027844D02*
X14449100Y-13057844D01*
X14449100Y-13027844D02*
X14419100Y-13057844D01*
X14427300Y-12145544D02*
X14457300Y-12175544D01*
X14457300Y-12145544D02*
X14427300Y-12175544D01*
X14427300Y-12297944D02*
X14457300Y-12327944D01*
X14457300Y-12297944D02*
X14427300Y-12327944D01*
X14427300Y-12450344D02*
X14457300Y-12480344D01*
X14457300Y-12450344D02*
X14427300Y-12480344D01*
X14458000Y-4648000D02*
X14488000Y-4678000D01*
X14488000Y-4648000D02*
X14458000Y-4678000D01*
X14460000Y-5438700D02*
X14490000Y-5468700D01*
X14490000Y-5438700D02*
X14460000Y-5468700D01*
X14470000Y-5756000D02*
X14500000Y-5786000D01*
X14500000Y-5756000D02*
X14470000Y-5786000D01*
X14470000Y-6086200D02*
X14500000Y-6116200D01*
X14500000Y-6086200D02*
X14470000Y-6116200D01*
X14490000Y-5608700D02*
X14520000Y-5638700D01*
X14520000Y-5608700D02*
X14490000Y-5638700D01*
X14490000Y-5921000D02*
X14520000Y-5951000D01*
X14520000Y-5921000D02*
X14490000Y-5951000D01*
X14490000Y-6251200D02*
X14520000Y-6281200D01*
X14520000Y-6251200D02*
X14490000Y-6281200D01*
X14492792Y-7404174D02*
X14522792Y-7434174D01*
X14522792Y-7404174D02*
X14492792Y-7434174D01*
X14501600Y-14010544D02*
X14531600Y-14040544D01*
X14531600Y-14010544D02*
X14501600Y-14040544D01*
X14501600Y-14162944D02*
X14531600Y-14192944D01*
X14531600Y-14162944D02*
X14501600Y-14192944D01*
X14501600Y-14315344D02*
X14531600Y-14345344D01*
X14531600Y-14315344D02*
X14501600Y-14345344D01*
X14519300Y-10569844D02*
X14549300Y-10599844D01*
X14549300Y-10569844D02*
X14519300Y-10599844D01*
X14519300Y-10823844D02*
X14549300Y-10853844D01*
X14549300Y-10823844D02*
X14519300Y-10853844D01*
X14519300Y-11077844D02*
X14549300Y-11107844D01*
X14549300Y-11077844D02*
X14519300Y-11107844D01*
X14522448Y-4430439D02*
X14552448Y-4460439D01*
X14552448Y-4430439D02*
X14522448Y-4460439D01*
X14529800Y-8505844D02*
X14559800Y-8535844D01*
X14559800Y-8505844D02*
X14529800Y-8535844D01*
X14529800Y-8632844D02*
X14559800Y-8662844D01*
X14559800Y-8632844D02*
X14529800Y-8662844D01*
X14561600Y-13306944D02*
X14591600Y-13336944D01*
X14591600Y-13306944D02*
X14561600Y-13336944D01*
X14561600Y-13459344D02*
X14591600Y-13489344D01*
X14591600Y-13459344D02*
X14561600Y-13489344D01*
X14561600Y-13611744D02*
X14591600Y-13641744D01*
X14591600Y-13611744D02*
X14561600Y-13641744D01*
X14622300Y-13027844D02*
X14652300Y-13057844D01*
X14652300Y-13027844D02*
X14622300Y-13057844D01*
X14644300Y-9827344D02*
X14674300Y-9857344D01*
X14674300Y-9827344D02*
X14644300Y-9857344D01*
X14644300Y-10081344D02*
X14674300Y-10111344D01*
X14674300Y-10081344D02*
X14644300Y-10111344D01*
X14644300Y-10335344D02*
X14674300Y-10365344D01*
X14674300Y-10335344D02*
X14644300Y-10365344D01*
X14704800Y-14010544D02*
X14734800Y-14040544D01*
X14734800Y-14010544D02*
X14704800Y-14040544D01*
X14704800Y-14162944D02*
X14734800Y-14192944D01*
X14734800Y-14162944D02*
X14704800Y-14192944D01*
X14704800Y-14315344D02*
X14734800Y-14345344D01*
X14734800Y-14315344D02*
X14704800Y-14345344D01*
X14764800Y-5438700D02*
X14794800Y-5468700D01*
X14794800Y-5438700D02*
X14764800Y-5468700D01*
X14764800Y-9395344D02*
X14794800Y-9425344D01*
X14794800Y-9395344D02*
X14764800Y-9425344D01*
X14764800Y-9649344D02*
X14794800Y-9679344D01*
X14794800Y-9649344D02*
X14764800Y-9679344D01*
X14773300Y-10569844D02*
X14803300Y-10599844D01*
X14803300Y-10569844D02*
X14773300Y-10599844D01*
X14773300Y-10823844D02*
X14803300Y-10853844D01*
X14803300Y-10823844D02*
X14773300Y-10853844D01*
X14773300Y-11077844D02*
X14803300Y-11107844D01*
X14803300Y-11077844D02*
X14773300Y-11107844D01*
X14774800Y-5756000D02*
X14804800Y-5786000D01*
X14804800Y-5756000D02*
X14774800Y-5786000D01*
X14774800Y-6086200D02*
X14804800Y-6116200D01*
X14804800Y-6086200D02*
X14774800Y-6116200D01*
X14788792Y-7390674D02*
X14818792Y-7420674D01*
X14818792Y-7390674D02*
X14788792Y-7420674D01*
X14790200Y-13306944D02*
X14820200Y-13336944D01*
X14820200Y-13306944D02*
X14790200Y-13336944D01*
X14790200Y-13459344D02*
X14820200Y-13489344D01*
X14820200Y-13459344D02*
X14790200Y-13489344D01*
X14790200Y-13611744D02*
X14820200Y-13641744D01*
X14820200Y-13611744D02*
X14790200Y-13641744D01*
X14794800Y-5608700D02*
X14824800Y-5638700D01*
X14824800Y-5608700D02*
X14794800Y-5638700D01*
X14794800Y-5921000D02*
X14824800Y-5951000D01*
X14824800Y-5921000D02*
X14794800Y-5951000D01*
X14794800Y-6251200D02*
X14824800Y-6281200D01*
X14824800Y-6251200D02*
X14794800Y-6281200D01*
X14807300Y-8513344D02*
X14837300Y-8543344D01*
X14837300Y-8513344D02*
X14807300Y-8543344D01*
X14807300Y-8640344D02*
X14837300Y-8670344D01*
X14837300Y-8640344D02*
X14807300Y-8670344D01*
X14850000Y-4668000D02*
X14880000Y-4698000D01*
X14880000Y-4668000D02*
X14850000Y-4698000D01*
X14870000Y-4434000D02*
X14900000Y-4464000D01*
X14900000Y-4434000D02*
X14870000Y-4464000D01*
X14898300Y-9827344D02*
X14928300Y-9857344D01*
X14928300Y-9827344D02*
X14898300Y-9857344D01*
X14898300Y-10081344D02*
X14928300Y-10111344D01*
X14928300Y-10081344D02*
X14898300Y-10111344D01*
X14898300Y-10335344D02*
X14928300Y-10365344D01*
X14928300Y-10335344D02*
X14898300Y-10365344D01*
X14899800Y-14000544D02*
X14929800Y-14030544D01*
X14929800Y-14000544D02*
X14899800Y-14030544D01*
X14899800Y-14152944D02*
X14929800Y-14182944D01*
X14929800Y-14152944D02*
X14899800Y-14182944D01*
X14899800Y-14305344D02*
X14929800Y-14335344D01*
X14929800Y-14305344D02*
X14899800Y-14335344D01*
X14935000Y-4841000D02*
X14965000Y-4871000D01*
X14965000Y-4841000D02*
X14935000Y-4871000D01*
X14955300Y-9141344D02*
X14985300Y-9171344D01*
X14985300Y-9141344D02*
X14955300Y-9171344D01*
X14993400Y-13306944D02*
X15023400Y-13336944D01*
X15023400Y-13306944D02*
X14993400Y-13336944D01*
X14993400Y-13459344D02*
X15023400Y-13489344D01*
X15023400Y-13459344D02*
X14993400Y-13489344D01*
X14993400Y-13611744D02*
X15023400Y-13641744D01*
X15023400Y-13611744D02*
X14993400Y-13641744D01*
X15018800Y-9395344D02*
X15048800Y-9425344D01*
X15048800Y-9395344D02*
X15018800Y-9425344D01*
X15018800Y-9649344D02*
X15048800Y-9679344D01*
X15048800Y-9649344D02*
X15018800Y-9679344D01*
X15027300Y-10569844D02*
X15057300Y-10599844D01*
X15057300Y-10569844D02*
X15027300Y-10599844D01*
X15027300Y-10823844D02*
X15057300Y-10853844D01*
X15057300Y-10823844D02*
X15027300Y-10853844D01*
X15027300Y-11077844D02*
X15057300Y-11107844D01*
X15057300Y-11077844D02*
X15027300Y-11107844D01*
X15042792Y-7390674D02*
X15072792Y-7420674D01*
X15072792Y-7390674D02*
X15042792Y-7420674D01*
X15090000Y-7158000D02*
X15120000Y-7188000D01*
X15120000Y-7158000D02*
X15090000Y-7188000D01*
X15103000Y-14000544D02*
X15133000Y-14030544D01*
X15133000Y-14000544D02*
X15103000Y-14030544D01*
X15103000Y-14152944D02*
X15133000Y-14182944D01*
X15133000Y-14152944D02*
X15103000Y-14182944D01*
X15103000Y-14305344D02*
X15133000Y-14335344D01*
X15133000Y-14305344D02*
X15103000Y-14335344D01*
X15104000Y-4668000D02*
X15134000Y-4698000D01*
X15134000Y-4668000D02*
X15104000Y-4698000D01*
X15118000Y-11446000D02*
X15148000Y-11476000D01*
X15148000Y-11446000D02*
X15118000Y-11476000D01*
X15118000Y-11573000D02*
X15148000Y-11603000D01*
X15148000Y-11573000D02*
X15118000Y-11603000D01*
X15118000Y-11700000D02*
X15148000Y-11730000D01*
X15148000Y-11700000D02*
X15118000Y-11730000D01*
X15124000Y-4434000D02*
X15154000Y-4464000D01*
X15154000Y-4434000D02*
X15124000Y-4464000D01*
X15152300Y-9827344D02*
X15182300Y-9857344D01*
X15182300Y-9827344D02*
X15152300Y-9857344D01*
X15152300Y-10081344D02*
X15182300Y-10111344D01*
X15182300Y-10081344D02*
X15152300Y-10111344D01*
X15152300Y-10335344D02*
X15182300Y-10365344D01*
X15182300Y-10335344D02*
X15152300Y-10365344D01*
X15272800Y-9395344D02*
X15302800Y-9425344D01*
X15302800Y-9395344D02*
X15272800Y-9425344D01*
X15281300Y-10569844D02*
X15311300Y-10599844D01*
X15311300Y-10569844D02*
X15281300Y-10599844D01*
X15281300Y-10823844D02*
X15311300Y-10853844D01*
X15311300Y-10823844D02*
X15281300Y-10853844D01*
X15281300Y-11077844D02*
X15311300Y-11107844D01*
X15311300Y-11077844D02*
X15281300Y-11107844D01*
X15296792Y-7390674D02*
X15326792Y-7420674D01*
X15326792Y-7390674D02*
X15296792Y-7420674D01*
X15331600Y-14000544D02*
X15361600Y-14030544D01*
X15361600Y-14000544D02*
X15331600Y-14030544D01*
X15331600Y-14152944D02*
X15361600Y-14182944D01*
X15361600Y-14152944D02*
X15331600Y-14182944D01*
X15331600Y-14305344D02*
X15361600Y-14335344D01*
X15361600Y-14305344D02*
X15331600Y-14335344D01*
X15358000Y-4668000D02*
X15388000Y-4698000D01*
X15388000Y-4668000D02*
X15358000Y-4698000D01*
X15368000Y-6982000D02*
X15398000Y-7012000D01*
X15398000Y-6982000D02*
X15368000Y-7012000D01*
X15372000Y-11446000D02*
X15402000Y-11476000D01*
X15402000Y-11446000D02*
X15372000Y-11476000D01*
X15372000Y-11573000D02*
X15402000Y-11603000D01*
X15402000Y-11573000D02*
X15372000Y-11603000D01*
X15372000Y-11700000D02*
X15402000Y-11730000D01*
X15402000Y-11700000D02*
X15372000Y-11730000D01*
X15378000Y-4434000D02*
X15408000Y-4464000D01*
X15408000Y-4434000D02*
X15378000Y-4464000D01*
X15387300Y-13158044D02*
X15417300Y-13188044D01*
X15417300Y-13158044D02*
X15387300Y-13188044D01*
X15387300Y-13310444D02*
X15417300Y-13340444D01*
X15417300Y-13310444D02*
X15387300Y-13340444D01*
X15387300Y-13462844D02*
X15417300Y-13492844D01*
X15417300Y-13462844D02*
X15387300Y-13492844D01*
X15406300Y-9827344D02*
X15436300Y-9857344D01*
X15436300Y-9827344D02*
X15406300Y-9857344D01*
X15406300Y-10081344D02*
X15436300Y-10111344D01*
X15436300Y-10081344D02*
X15406300Y-10111344D01*
X15406300Y-10335344D02*
X15436300Y-10365344D01*
X15436300Y-10335344D02*
X15406300Y-10365344D01*
X15526800Y-9395344D02*
X15556800Y-9425344D01*
X15556800Y-9395344D02*
X15526800Y-9425344D01*
X15534800Y-14000544D02*
X15564800Y-14030544D01*
X15564800Y-14000544D02*
X15534800Y-14030544D01*
X15534800Y-14152944D02*
X15564800Y-14182944D01*
X15564800Y-14152944D02*
X15534800Y-14182944D01*
X15534800Y-14305344D02*
X15564800Y-14335344D01*
X15564800Y-14305344D02*
X15534800Y-14335344D01*
X15548000Y-8941000D02*
X15578000Y-8971000D01*
X15578000Y-8941000D02*
X15548000Y-8971000D01*
X15548000Y-9178000D02*
X15578000Y-9208000D01*
X15578000Y-9178000D02*
X15548000Y-9208000D01*
X15553000Y-8666000D02*
X15583000Y-8696000D01*
X15583000Y-8666000D02*
X15553000Y-8696000D01*
X15558000Y-7977000D02*
X15588000Y-8007000D01*
X15588000Y-7977000D02*
X15558000Y-8007000D01*
X15590500Y-13158044D02*
X15620500Y-13188044D01*
X15620500Y-13158044D02*
X15590500Y-13188044D01*
X15590500Y-13310444D02*
X15620500Y-13340444D01*
X15620500Y-13310444D02*
X15590500Y-13340444D01*
X15590500Y-13462844D02*
X15620500Y-13492844D01*
X15620500Y-13462844D02*
X15590500Y-13492844D01*
X15615000Y-7380000D02*
X15645000Y-7410000D01*
X15645000Y-7380000D02*
X15615000Y-7410000D01*
X15626000Y-11446000D02*
X15656000Y-11476000D01*
X15656000Y-11446000D02*
X15626000Y-11476000D01*
X15626000Y-11573000D02*
X15656000Y-11603000D01*
X15656000Y-11573000D02*
X15626000Y-11603000D01*
X15626000Y-11700000D02*
X15656000Y-11730000D01*
X15656000Y-11700000D02*
X15626000Y-11730000D01*
X15694000Y-7148000D02*
X15724000Y-7178000D01*
X15724000Y-7148000D02*
X15694000Y-7178000D01*
X15756000Y-4840000D02*
X15786000Y-4870000D01*
X15786000Y-4840000D02*
X15756000Y-4870000D01*
X15764000Y-4660000D02*
X15794000Y-4690000D01*
X15794000Y-4660000D02*
X15764000Y-4690000D01*
X15776000Y-4468000D02*
X15806000Y-4498000D01*
X15806000Y-4468000D02*
X15776000Y-4498000D01*
X15801000Y-9184000D02*
X15831000Y-9214000D01*
X15831000Y-9184000D02*
X15801000Y-9214000D01*
X15819100Y-13158044D02*
X15849100Y-13188044D01*
X15849100Y-13158044D02*
X15819100Y-13188044D01*
X15819100Y-13310444D02*
X15849100Y-13340444D01*
X15849100Y-13310444D02*
X15819100Y-13340444D01*
X15819100Y-13462844D02*
X15849100Y-13492844D01*
X15849100Y-13462844D02*
X15819100Y-13492844D01*
X15846000Y-11452000D02*
X15876000Y-11482000D01*
X15876000Y-11452000D02*
X15846000Y-11482000D01*
X15846000Y-11579000D02*
X15876000Y-11609000D01*
X15876000Y-11579000D02*
X15846000Y-11609000D01*
X15846000Y-11706000D02*
X15876000Y-11736000D01*
X15876000Y-11706000D02*
X15846000Y-11736000D01*
X15847000Y-8859000D02*
X15877000Y-8889000D01*
X15877000Y-8859000D02*
X15847000Y-8889000D01*
X15851000Y-8762000D02*
X15881000Y-8792000D01*
X15881000Y-8762000D02*
X15851000Y-8792000D01*
X15852000Y-8661000D02*
X15882000Y-8691000D01*
X15882000Y-8661000D02*
X15852000Y-8691000D01*
X15853000Y-8545000D02*
X15883000Y-8575000D01*
X15883000Y-8545000D02*
X15853000Y-8575000D01*
X15869000Y-7380000D02*
X15899000Y-7410000D01*
X15899000Y-7380000D02*
X15869000Y-7410000D01*
X15878000Y-6895000D02*
X15908000Y-6925000D01*
X15908000Y-6895000D02*
X15878000Y-6925000D01*
X15958000Y-8816000D02*
X15988000Y-8846000D01*
X15988000Y-8816000D02*
X15958000Y-8846000D01*
X15958000Y-8925000D02*
X15988000Y-8955000D01*
X15988000Y-8925000D02*
X15958000Y-8955000D01*
X15960000Y-8599000D02*
X15990000Y-8629000D01*
X15990000Y-8599000D02*
X15960000Y-8629000D01*
X15960000Y-8706000D02*
X15990000Y-8736000D01*
X15990000Y-8706000D02*
X15960000Y-8736000D01*
X16010000Y-4840000D02*
X16040000Y-4870000D01*
X16040000Y-4840000D02*
X16010000Y-4870000D01*
X16012400Y-8392400D02*
X16042400Y-8422400D01*
X16042400Y-8392400D02*
X16012400Y-8422400D01*
X16018000Y-4660000D02*
X16048000Y-4690000D01*
X16048000Y-4660000D02*
X16018000Y-4690000D01*
X16022300Y-13158044D02*
X16052300Y-13188044D01*
X16052300Y-13158044D02*
X16022300Y-13188044D01*
X16022300Y-13310444D02*
X16052300Y-13340444D01*
X16052300Y-13310444D02*
X16022300Y-13340444D01*
X16022300Y-13462844D02*
X16052300Y-13492844D01*
X16052300Y-13462844D02*
X16022300Y-13492844D01*
X16029000Y-8510000D02*
X16059000Y-8540000D01*
X16059000Y-8510000D02*
X16029000Y-8540000D01*
X16030000Y-4468000D02*
X16060000Y-4498000D01*
X16060000Y-4468000D02*
X16030000Y-4498000D01*
X16041000Y-8651000D02*
X16071000Y-8681000D01*
X16071000Y-8651000D02*
X16041000Y-8681000D01*
X16044000Y-8125000D02*
X16074000Y-8155000D01*
X16074000Y-8125000D02*
X16044000Y-8155000D01*
X16045000Y-8250000D02*
X16075000Y-8280000D01*
X16075000Y-8250000D02*
X16045000Y-8280000D01*
X16048000Y-8770000D02*
X16078000Y-8800000D01*
X16078000Y-8770000D02*
X16048000Y-8800000D01*
X16050000Y-8889000D02*
X16080000Y-8919000D01*
X16080000Y-8889000D02*
X16050000Y-8919000D01*
X16052000Y-9242000D02*
X16082000Y-9272000D01*
X16082000Y-9242000D02*
X16052000Y-9272000D01*
X16100000Y-11452000D02*
X16130000Y-11482000D01*
X16130000Y-11452000D02*
X16100000Y-11482000D01*
X16100000Y-11579000D02*
X16130000Y-11609000D01*
X16130000Y-11579000D02*
X16100000Y-11609000D01*
X16100000Y-11706000D02*
X16130000Y-11736000D01*
X16130000Y-11706000D02*
X16100000Y-11736000D01*
X16123000Y-7380000D02*
X16153000Y-7410000D01*
X16153000Y-7380000D02*
X16123000Y-7410000D01*
X16135000Y-6629000D02*
X16165000Y-6659000D01*
X16165000Y-6629000D02*
X16135000Y-6659000D01*
X16135000Y-7137000D02*
X16165000Y-7167000D01*
X16165000Y-7137000D02*
X16135000Y-7167000D01*
X16141000Y-8582000D02*
X16171000Y-8612000D01*
X16171000Y-8582000D02*
X16141000Y-8612000D01*
X16153000Y-8822000D02*
X16183000Y-8852000D01*
X16183000Y-8822000D02*
X16153000Y-8852000D01*
X16155000Y-8133000D02*
X16185000Y-8163000D01*
X16185000Y-8133000D02*
X16155000Y-8163000D01*
X16158000Y-8241000D02*
X16188000Y-8271000D01*
X16188000Y-8241000D02*
X16158000Y-8271000D01*
X16158000Y-8477000D02*
X16188000Y-8507000D01*
X16188000Y-8477000D02*
X16158000Y-8507000D01*
X16159000Y-8353000D02*
X16189000Y-8383000D01*
X16189000Y-8353000D02*
X16159000Y-8383000D01*
X16198000Y-8725000D02*
X16228000Y-8755000D01*
X16228000Y-8725000D02*
X16198000Y-8755000D01*
X16208000Y-7982000D02*
X16238000Y-8012000D01*
X16238000Y-7982000D02*
X16208000Y-8012000D01*
X16257000Y-8628000D02*
X16287000Y-8658000D01*
X16287000Y-8628000D02*
X16257000Y-8658000D01*
X16258000Y-8816000D02*
X16288000Y-8846000D01*
X16288000Y-8816000D02*
X16258000Y-8846000D01*
X16264000Y-4840000D02*
X16294000Y-4870000D01*
X16294000Y-4840000D02*
X16264000Y-4870000D01*
X16272000Y-4660000D02*
X16302000Y-4690000D01*
X16302000Y-4660000D02*
X16272000Y-4690000D01*
X16284000Y-4468000D02*
X16314000Y-4498000D01*
X16314000Y-4468000D02*
X16284000Y-4498000D01*
X16291800Y-7706600D02*
X16321800Y-7736600D01*
X16321800Y-7706600D02*
X16291800Y-7736600D01*
X16351674Y-5341208D02*
X16381674Y-5371208D01*
X16381674Y-5341208D02*
X16351674Y-5371208D01*
X16351674Y-5595208D02*
X16381674Y-5625208D01*
X16381674Y-5595208D02*
X16351674Y-5625208D01*
X16351674Y-5849208D02*
X16381674Y-5879208D01*
X16381674Y-5849208D02*
X16351674Y-5879208D01*
X16354000Y-11452000D02*
X16384000Y-11482000D01*
X16384000Y-11452000D02*
X16354000Y-11482000D01*
X16354000Y-11579000D02*
X16384000Y-11609000D01*
X16384000Y-11579000D02*
X16354000Y-11609000D01*
X16354000Y-11706000D02*
X16384000Y-11736000D01*
X16384000Y-11706000D02*
X16354000Y-11736000D01*
X16362000Y-6356000D02*
X16392000Y-6386000D01*
X16392000Y-6356000D02*
X16362000Y-6386000D01*
X16362000Y-6610000D02*
X16392000Y-6640000D01*
X16392000Y-6610000D02*
X16362000Y-6640000D01*
X16362000Y-6864000D02*
X16392000Y-6894000D01*
X16392000Y-6864000D02*
X16362000Y-6894000D01*
X16362000Y-7118000D02*
X16392000Y-7148000D01*
X16392000Y-7118000D02*
X16362000Y-7148000D01*
X16362000Y-7372000D02*
X16392000Y-7402000D01*
X16392000Y-7372000D02*
X16362000Y-7402000D01*
X16365174Y-6145208D02*
X16395174Y-6175208D01*
X16395174Y-6145208D02*
X16365174Y-6175208D01*
X16436000Y-9261000D02*
X16466000Y-9291000D01*
X16466000Y-9261000D02*
X16436000Y-9291000D01*
X16469600Y-8951200D02*
X16499600Y-8981200D01*
X16499600Y-8951200D02*
X16469600Y-8981200D01*
X16529000Y-11150000D02*
X16559000Y-11180000D01*
X16559000Y-11150000D02*
X16529000Y-11180000D01*
X16529000Y-11404000D02*
X16559000Y-11434000D01*
X16559000Y-11404000D02*
X16529000Y-11434000D01*
X16529000Y-11658000D02*
X16559000Y-11688000D01*
X16559000Y-11658000D02*
X16529000Y-11688000D01*
X16569000Y-8214600D02*
X16599000Y-8244600D01*
X16599000Y-8214600D02*
X16569000Y-8244600D01*
X16656000Y-11150000D02*
X16686000Y-11180000D01*
X16686000Y-11150000D02*
X16656000Y-11180000D01*
X16656000Y-11404000D02*
X16686000Y-11434000D01*
X16686000Y-11404000D02*
X16656000Y-11434000D01*
X16656000Y-11658000D02*
X16686000Y-11688000D01*
X16686000Y-11658000D02*
X16656000Y-11688000D01*
X16783000Y-11150000D02*
X16813000Y-11180000D01*
X16813000Y-11150000D02*
X16783000Y-11180000D01*
X16783000Y-11404000D02*
X16813000Y-11434000D01*
X16813000Y-11404000D02*
X16783000Y-11434000D01*
X16783000Y-11658000D02*
X16813000Y-11688000D01*
X16813000Y-11658000D02*
X16783000Y-11688000D01*
X16789000Y-9249000D02*
X16819000Y-9279000D01*
X16819000Y-9249000D02*
X16789000Y-9279000D01*
X16796000Y-10386000D02*
X16826000Y-10416000D01*
X16826000Y-10386000D02*
X16796000Y-10416000D01*
X16796000Y-10640000D02*
X16826000Y-10670000D01*
X16826000Y-10640000D02*
X16796000Y-10670000D01*
X16796000Y-10894000D02*
X16826000Y-10924000D01*
X16826000Y-10894000D02*
X16796000Y-10924000D01*
X16800000Y-7989000D02*
X16830000Y-8019000D01*
X16830000Y-7989000D02*
X16800000Y-8019000D01*
X16800000Y-8243000D02*
X16830000Y-8273000D01*
X16830000Y-8243000D02*
X16800000Y-8273000D01*
X16800000Y-8497000D02*
X16830000Y-8527000D01*
X16830000Y-8497000D02*
X16800000Y-8527000D01*
X16807000Y-9635000D02*
X16837000Y-9665000D01*
X16837000Y-9635000D02*
X16807000Y-9665000D01*
X16807000Y-9889000D02*
X16837000Y-9919000D01*
X16837000Y-9889000D02*
X16807000Y-9919000D01*
X16807000Y-10143000D02*
X16837000Y-10173000D01*
X16837000Y-10143000D02*
X16807000Y-10173000D01*
X16850600Y-8976600D02*
X16880600Y-9006600D01*
X16880600Y-8976600D02*
X16850600Y-9006600D01*
X16854000Y-7882000D02*
X16884000Y-7912000D01*
X16884000Y-7882000D02*
X16854000Y-7912000D01*
X7684400Y-14258826D02*
G75*
G02*
X7634400Y-14258826I-25000J0D01*
G01*
X7634400Y-14258826D02*
G75*
G02*
X7684400Y-14258826I25000J0D01*
G01*
X7696208Y-3968326D02*
G75*
G02*
X7646208Y-3968326I-25000J0D01*
G01*
X7646208Y-3968326D02*
G75*
G02*
X7696208Y-3968326I25000J0D01*
G01*
X7754694Y-14089120D02*
G75*
G02*
X7704694Y-14089120I-25000J0D01*
G01*
X7704694Y-14089120D02*
G75*
G02*
X7754694Y-14089120I25000J0D01*
G01*
X7754694Y-14428532D02*
G75*
G02*
X7704694Y-14428532I-25000J0D01*
G01*
X7704694Y-14428532D02*
G75*
G02*
X7754694Y-14428532I25000J0D01*
G01*
X7766503Y-3798620D02*
G75*
G02*
X7716503Y-3798620I-25000J0D01*
G01*
X7716503Y-3798620D02*
G75*
G02*
X7766503Y-3798620I25000J0D01*
G01*
X7766503Y-4138032D02*
G75*
G02*
X7716503Y-4138032I-25000J0D01*
G01*
X7716503Y-4138032D02*
G75*
G02*
X7766503Y-4138032I25000J0D01*
G01*
X7924400Y-14018826D02*
G75*
G02*
X7874400Y-14018826I-25000J0D01*
G01*
X7874400Y-14018826D02*
G75*
G02*
X7924400Y-14018826I25000J0D01*
G01*
X7924400Y-14498826D02*
G75*
G02*
X7874400Y-14498826I-25000J0D01*
G01*
X7874400Y-14498826D02*
G75*
G02*
X7924400Y-14498826I25000J0D01*
G01*
X7936208Y-3728326D02*
G75*
G02*
X7886208Y-3728326I-25000J0D01*
G01*
X7886208Y-3728326D02*
G75*
G02*
X7936208Y-3728326I25000J0D01*
G01*
X7936208Y-4208326D02*
G75*
G02*
X7886208Y-4208326I-25000J0D01*
G01*
X7886208Y-4208326D02*
G75*
G02*
X7936208Y-4208326I25000J0D01*
G01*
X8094106Y-14089120D02*
G75*
G02*
X8044106Y-14089120I-25000J0D01*
G01*
X8044106Y-14089120D02*
G75*
G02*
X8094106Y-14089120I25000J0D01*
G01*
X8094106Y-14428532D02*
G75*
G02*
X8044106Y-14428532I-25000J0D01*
G01*
X8044106Y-14428532D02*
G75*
G02*
X8094106Y-14428532I25000J0D01*
G01*
X8105914Y-3798620D02*
G75*
G02*
X8055914Y-3798620I-25000J0D01*
G01*
X8055914Y-3798620D02*
G75*
G02*
X8105914Y-3798620I25000J0D01*
G01*
X8105914Y-4138032D02*
G75*
G02*
X8055914Y-4138032I-25000J0D01*
G01*
X8055914Y-4138032D02*
G75*
G02*
X8105914Y-4138032I25000J0D01*
G01*
X8164400Y-14258826D02*
G75*
G02*
X8114400Y-14258826I-25000J0D01*
G01*
X8114400Y-14258826D02*
G75*
G02*
X8164400Y-14258826I25000J0D01*
G01*
X8176208Y-3968326D02*
G75*
G02*
X8126208Y-3968326I-25000J0D01*
G01*
X8126208Y-3968326D02*
G75*
G02*
X8176208Y-3968326I25000J0D01*
G01*
X16320208Y-3968326D02*
G75*
G02*
X16270208Y-3968326I-25000J0D01*
G01*
X16270208Y-3968326D02*
G75*
G02*
X16320208Y-3968326I25000J0D01*
G01*
X16320208Y-14258826D02*
G75*
G02*
X16270208Y-14258826I-25000J0D01*
G01*
X16270208Y-14258826D02*
G75*
G02*
X16320208Y-14258826I25000J0D01*
G01*
X16390503Y-3798620D02*
G75*
G02*
X16340503Y-3798620I-25000J0D01*
G01*
X16340503Y-3798620D02*
G75*
G02*
X16390503Y-3798620I25000J0D01*
G01*
X16390503Y-4138032D02*
G75*
G02*
X16340503Y-4138032I-25000J0D01*
G01*
X16340503Y-4138032D02*
G75*
G02*
X16390503Y-4138032I25000J0D01*
G01*
X16390503Y-14089120D02*
G75*
G02*
X16340503Y-14089120I-25000J0D01*
G01*
X16340503Y-14089120D02*
G75*
G02*
X16390503Y-14089120I25000J0D01*
G01*
X16390503Y-14428532D02*
G75*
G02*
X16340503Y-14428532I-25000J0D01*
G01*
X16340503Y-14428532D02*
G75*
G02*
X16390503Y-14428532I25000J0D01*
G01*
X16560208Y-3728326D02*
G75*
G02*
X16510208Y-3728326I-25000J0D01*
G01*
X16510208Y-3728326D02*
G75*
G02*
X16560208Y-3728326I25000J0D01*
G01*
X16560208Y-4208326D02*
G75*
G02*
X16510208Y-4208326I-25000J0D01*
G01*
X16510208Y-4208326D02*
G75*
G02*
X16560208Y-4208326I25000J0D01*
G01*
X16560208Y-14018826D02*
G75*
G02*
X16510208Y-14018826I-25000J0D01*
G01*
X16510208Y-14018826D02*
G75*
G02*
X16560208Y-14018826I25000J0D01*
G01*
X16560208Y-14498826D02*
G75*
G02*
X16510208Y-14498826I-25000J0D01*
G01*
X16510208Y-14498826D02*
G75*
G02*
X16560208Y-14498826I25000J0D01*
G01*
X16729914Y-3798620D02*
G75*
G02*
X16679914Y-3798620I-25000J0D01*
G01*
X16679914Y-3798620D02*
G75*
G02*
X16729914Y-3798620I25000J0D01*
G01*
X16729914Y-4138032D02*
G75*
G02*
X16679914Y-4138032I-25000J0D01*
G01*
X16679914Y-4138032D02*
G75*
G02*
X16729914Y-4138032I25000J0D01*
G01*
X16729914Y-14089120D02*
G75*
G02*
X16679914Y-14089120I-25000J0D01*
G01*
X16679914Y-14089120D02*
G75*
G02*
X16729914Y-14089120I25000J0D01*
G01*
X16729914Y-14428532D02*
G75*
G02*
X16679914Y-14428532I-25000J0D01*
G01*
X16679914Y-14428532D02*
G75*
G02*
X16729914Y-14428532I25000J0D01*
G01*
X16800208Y-3968326D02*
G75*
G02*
X16750208Y-3968326I-25000J0D01*
G01*
X16750208Y-3968326D02*
G75*
G02*
X16800208Y-3968326I25000J0D01*
G01*
X16800208Y-14258826D02*
G75*
G02*
X16750208Y-14258826I-25000J0D01*
G01*
X16750208Y-14258826D02*
G75*
G02*
X16800208Y-14258826I25000J0D01*
G01*
D13*
X13674000Y-6669000D02*
X13674000Y-6779000D01*
X13619000Y-6724000D02*
X13729000Y-6724000D01*
X13674000Y-6923000D02*
X13674000Y-7033000D01*
X13619000Y-6978000D02*
X13729000Y-6978000D01*
X13928000Y-6669000D02*
X13928000Y-6779000D01*
X13873000Y-6724000D02*
X13983000Y-6724000D01*
X13928000Y-6923000D02*
X13928000Y-7033000D01*
X13873000Y-6978000D02*
X13983000Y-6978000D01*
X14182000Y-6669000D02*
X14182000Y-6779000D01*
X14127000Y-6724000D02*
X14237000Y-6724000D01*
X14182000Y-6923000D02*
X14182000Y-7033000D01*
X14127000Y-6978000D02*
X14237000Y-6978000D01*
X14436000Y-6669000D02*
X14436000Y-6779000D01*
X14381000Y-6724000D02*
X14491000Y-6724000D01*
X14436000Y-6923000D02*
X14436000Y-7033000D01*
X14381000Y-6978000D02*
X14491000Y-6978000D01*
X15481000Y-5477000D02*
X15481000Y-5587000D01*
X15426000Y-5532000D02*
X15536000Y-5532000D01*
X15481000Y-5731000D02*
X15481000Y-5841000D01*
X15426000Y-5786000D02*
X15536000Y-5786000D01*
X15481000Y-5985000D02*
X15481000Y-6095000D01*
X15426000Y-6040000D02*
X15536000Y-6040000D01*
X15735000Y-5477000D02*
X15735000Y-5587000D01*
X15680000Y-5532000D02*
X15790000Y-5532000D01*
X15735000Y-5731000D02*
X15735000Y-5841000D01*
X15680000Y-5786000D02*
X15790000Y-5786000D01*
X15735000Y-5985000D02*
X15735000Y-6095000D01*
X15680000Y-6040000D02*
X15790000Y-6040000D01*
X16113300Y-9857344D02*
X16113300Y-9967344D01*
X16058300Y-9912344D02*
X16168300Y-9912344D01*
X16113300Y-10111344D02*
X16113300Y-10221344D01*
X16058300Y-10166344D02*
X16168300Y-10166344D01*
X16113300Y-10365344D02*
X16113300Y-10475344D01*
X16058300Y-10420344D02*
X16168300Y-10420344D01*
X16367300Y-9857344D02*
X16367300Y-9967344D01*
X16312300Y-9912344D02*
X16422300Y-9912344D01*
X16367300Y-10111344D02*
X16367300Y-10221344D01*
X16312300Y-10166344D02*
X16422300Y-10166344D01*
X16367300Y-10365344D02*
X16367300Y-10475344D01*
X16312300Y-10420344D02*
X16422300Y-10420344D01*
D14*
X8368298Y-10322842D02*
X8368298Y-10223846D01*
X8269302Y-10223846D01*
X8269302Y-10322842D01*
X8368298Y-10322842D01*
X8368298Y-10830842D02*
X8368298Y-10731846D01*
X8269302Y-10731846D01*
X8269302Y-10830842D01*
X8368298Y-10830842D01*
X9238298Y-10322842D02*
X9238298Y-10223846D01*
X9139302Y-10223846D01*
X9139302Y-10322842D01*
X9238298Y-10322842D01*
X9238298Y-10830842D02*
X9238298Y-10731846D01*
X9139302Y-10731846D01*
X9139302Y-10830842D01*
X9238298Y-10830842D01*
X15201798Y-12165342D02*
X15201798Y-12066346D01*
X15102802Y-12066346D01*
X15102802Y-12165342D01*
X15201798Y-12165342D01*
X15201798Y-12673342D02*
X15201798Y-12574346D01*
X15102802Y-12574346D01*
X15102802Y-12673342D01*
X15201798Y-12673342D01*
X16071798Y-12165342D02*
X16071798Y-12066346D01*
X15972802Y-12066346D01*
X15972802Y-12165342D01*
X16071798Y-12165342D01*
X16071798Y-12673342D02*
X16071798Y-12574346D01*
X15972802Y-12574346D01*
X15972802Y-12673342D01*
X16071798Y-12673342D01*
D15*
X7899400Y-14418826D02*
X8059400Y-14258826D01*
X7899400Y-14098826D01*
X7739400Y-14258826D01*
X7899400Y-14418826D01*
X7911208Y-4128326D02*
X8071208Y-3968326D01*
X7911208Y-3808326D01*
X7751208Y-3968326D01*
X7911208Y-4128326D01*
X16535208Y-4128326D02*
X16695208Y-3968326D01*
X16535208Y-3808326D01*
X16375208Y-3968326D01*
X16535208Y-4128326D01*
X16535208Y-14418826D02*
X16695208Y-14258826D01*
X16535208Y-14098826D01*
X16375208Y-14258826D01*
X16535208Y-14418826D01*
D11*
X7669485Y-15072810D02*
X7669485Y-14872810D01*
X7669485Y-14872810D02*
X7717104Y-14872810D01*
X7717104Y-14872810D02*
X7745676Y-14882334D01*
X7745676Y-14882334D02*
X7764723Y-14901381D01*
X7764723Y-14901381D02*
X7774247Y-14920429D01*
X7774247Y-14920429D02*
X7783771Y-14958524D01*
X7783771Y-14958524D02*
X7783771Y-14987096D01*
X7783771Y-14987096D02*
X7774247Y-15025191D01*
X7774247Y-15025191D02*
X7764723Y-15044238D01*
X7764723Y-15044238D02*
X7745676Y-15063286D01*
X7745676Y-15063286D02*
X7717104Y-15072810D01*
X7717104Y-15072810D02*
X7669485Y-15072810D01*
X7869485Y-15072810D02*
X7869485Y-14939476D01*
X7869485Y-14977572D02*
X7879009Y-14958524D01*
X7879009Y-14958524D02*
X7888533Y-14949000D01*
X7888533Y-14949000D02*
X7907580Y-14939476D01*
X7907580Y-14939476D02*
X7926628Y-14939476D01*
X7993295Y-15072810D02*
X7993295Y-14939476D01*
X7993295Y-14872810D02*
X7983771Y-14882334D01*
X7983771Y-14882334D02*
X7993295Y-14891857D01*
X7993295Y-14891857D02*
X8002818Y-14882334D01*
X8002818Y-14882334D02*
X7993295Y-14872810D01*
X7993295Y-14872810D02*
X7993295Y-14891857D01*
X8117104Y-15072810D02*
X8098056Y-15063286D01*
X8098056Y-15063286D02*
X8088533Y-15044238D01*
X8088533Y-15044238D02*
X8088533Y-14872810D01*
X8221866Y-15072810D02*
X8202818Y-15063286D01*
X8202818Y-15063286D02*
X8193295Y-15044238D01*
X8193295Y-15044238D02*
X8193295Y-14872810D01*
X8450438Y-15072810D02*
X8450438Y-14872810D01*
X8450438Y-14872810D02*
X8517104Y-15015667D01*
X8517104Y-15015667D02*
X8583771Y-14872810D01*
X8583771Y-14872810D02*
X8583771Y-15072810D01*
X8764723Y-15072810D02*
X8764723Y-14968048D01*
X8764723Y-14968048D02*
X8755199Y-14949000D01*
X8755199Y-14949000D02*
X8736152Y-14939476D01*
X8736152Y-14939476D02*
X8698057Y-14939476D01*
X8698057Y-14939476D02*
X8679009Y-14949000D01*
X8764723Y-15063286D02*
X8745676Y-15072810D01*
X8745676Y-15072810D02*
X8698057Y-15072810D01*
X8698057Y-15072810D02*
X8679009Y-15063286D01*
X8679009Y-15063286D02*
X8669485Y-15044238D01*
X8669485Y-15044238D02*
X8669485Y-15025191D01*
X8669485Y-15025191D02*
X8679009Y-15006143D01*
X8679009Y-15006143D02*
X8698057Y-14996619D01*
X8698057Y-14996619D02*
X8745676Y-14996619D01*
X8745676Y-14996619D02*
X8764723Y-14987096D01*
X8859961Y-14939476D02*
X8859961Y-15139476D01*
X8859961Y-14949000D02*
X8879009Y-14939476D01*
X8879009Y-14939476D02*
X8917104Y-14939476D01*
X8917104Y-14939476D02*
X8936152Y-14949000D01*
X8936152Y-14949000D02*
X8945676Y-14958524D01*
X8945676Y-14958524D02*
X8955199Y-14977572D01*
X8955199Y-14977572D02*
X8955199Y-15034715D01*
X8955199Y-15034715D02*
X8945676Y-15053762D01*
X8945676Y-15053762D02*
X8936152Y-15063286D01*
X8936152Y-15063286D02*
X8917104Y-15072810D01*
X8917104Y-15072810D02*
X8879009Y-15072810D01*
X8879009Y-15072810D02*
X8859961Y-15063286D01*
X9040914Y-15053762D02*
X9050438Y-15063286D01*
X9050438Y-15063286D02*
X9040914Y-15072810D01*
X9040914Y-15072810D02*
X9031390Y-15063286D01*
X9031390Y-15063286D02*
X9040914Y-15053762D01*
X9040914Y-15053762D02*
X9040914Y-15072810D01*
X9040914Y-14949000D02*
X9050438Y-14958524D01*
X9050438Y-14958524D02*
X9040914Y-14968048D01*
X9040914Y-14968048D02*
X9031390Y-14958524D01*
X9031390Y-14958524D02*
X9040914Y-14949000D01*
X9040914Y-14949000D02*
X9040914Y-14968048D01*
D12*
X7378708Y-15386326D02*
X7408708Y-15416326D01*
X7408708Y-15386326D02*
X7378708Y-15416326D01*
D11*
X7707580Y-15292810D02*
X7726628Y-15292810D01*
X7726628Y-15292810D02*
X7745676Y-15302334D01*
X7745676Y-15302334D02*
X7755199Y-15311857D01*
X7755199Y-15311857D02*
X7764723Y-15330905D01*
X7764723Y-15330905D02*
X7774247Y-15369000D01*
X7774247Y-15369000D02*
X7774247Y-15416619D01*
X7774247Y-15416619D02*
X7764723Y-15454715D01*
X7764723Y-15454715D02*
X7755199Y-15473762D01*
X7755199Y-15473762D02*
X7745676Y-15483286D01*
X7745676Y-15483286D02*
X7726628Y-15492810D01*
X7726628Y-15492810D02*
X7707580Y-15492810D01*
X7707580Y-15492810D02*
X7688533Y-15483286D01*
X7688533Y-15483286D02*
X7679009Y-15473762D01*
X7679009Y-15473762D02*
X7669485Y-15454715D01*
X7669485Y-15454715D02*
X7659961Y-15416619D01*
X7659961Y-15416619D02*
X7659961Y-15369000D01*
X7659961Y-15369000D02*
X7669485Y-15330905D01*
X7669485Y-15330905D02*
X7679009Y-15311857D01*
X7679009Y-15311857D02*
X7688533Y-15302334D01*
X7688533Y-15302334D02*
X7707580Y-15292810D01*
X7859961Y-15473762D02*
X7869485Y-15483286D01*
X7869485Y-15483286D02*
X7859961Y-15492810D01*
X7859961Y-15492810D02*
X7850437Y-15483286D01*
X7850437Y-15483286D02*
X7859961Y-15473762D01*
X7859961Y-15473762D02*
X7859961Y-15492810D01*
X7936152Y-15292810D02*
X8059961Y-15292810D01*
X8059961Y-15292810D02*
X7993295Y-15369000D01*
X7993295Y-15369000D02*
X8021866Y-15369000D01*
X8021866Y-15369000D02*
X8040914Y-15378524D01*
X8040914Y-15378524D02*
X8050437Y-15388048D01*
X8050437Y-15388048D02*
X8059961Y-15407096D01*
X8059961Y-15407096D02*
X8059961Y-15454715D01*
X8059961Y-15454715D02*
X8050437Y-15473762D01*
X8050437Y-15473762D02*
X8040914Y-15483286D01*
X8040914Y-15483286D02*
X8021866Y-15492810D01*
X8021866Y-15492810D02*
X7964723Y-15492810D01*
X7964723Y-15492810D02*
X7945676Y-15483286D01*
X7945676Y-15483286D02*
X7936152Y-15473762D01*
X8183771Y-15292810D02*
X8202818Y-15292810D01*
X8202818Y-15292810D02*
X8221866Y-15302334D01*
X8221866Y-15302334D02*
X8231390Y-15311857D01*
X8231390Y-15311857D02*
X8240914Y-15330905D01*
X8240914Y-15330905D02*
X8250437Y-15369000D01*
X8250437Y-15369000D02*
X8250437Y-15416619D01*
X8250437Y-15416619D02*
X8240914Y-15454715D01*
X8240914Y-15454715D02*
X8231390Y-15473762D01*
X8231390Y-15473762D02*
X8221866Y-15483286D01*
X8221866Y-15483286D02*
X8202818Y-15492810D01*
X8202818Y-15492810D02*
X8183771Y-15492810D01*
X8183771Y-15492810D02*
X8164723Y-15483286D01*
X8164723Y-15483286D02*
X8155199Y-15473762D01*
X8155199Y-15473762D02*
X8145676Y-15454715D01*
X8145676Y-15454715D02*
X8136152Y-15416619D01*
X8136152Y-15416619D02*
X8136152Y-15369000D01*
X8136152Y-15369000D02*
X8145676Y-15330905D01*
X8145676Y-15330905D02*
X8155199Y-15311857D01*
X8155199Y-15311857D02*
X8164723Y-15302334D01*
X8164723Y-15302334D02*
X8183771Y-15292810D01*
X8374247Y-15292810D02*
X8393295Y-15292810D01*
X8393295Y-15292810D02*
X8412342Y-15302334D01*
X8412342Y-15302334D02*
X8421866Y-15311857D01*
X8421866Y-15311857D02*
X8431390Y-15330905D01*
X8431390Y-15330905D02*
X8440914Y-15369000D01*
X8440914Y-15369000D02*
X8440914Y-15416619D01*
X8440914Y-15416619D02*
X8431390Y-15454715D01*
X8431390Y-15454715D02*
X8421866Y-15473762D01*
X8421866Y-15473762D02*
X8412342Y-15483286D01*
X8412342Y-15483286D02*
X8393295Y-15492810D01*
X8393295Y-15492810D02*
X8374247Y-15492810D01*
X8374247Y-15492810D02*
X8355199Y-15483286D01*
X8355199Y-15483286D02*
X8345676Y-15473762D01*
X8345676Y-15473762D02*
X8336152Y-15454715D01*
X8336152Y-15454715D02*
X8326628Y-15416619D01*
X8326628Y-15416619D02*
X8326628Y-15369000D01*
X8326628Y-15369000D02*
X8336152Y-15330905D01*
X8336152Y-15330905D02*
X8345676Y-15311857D01*
X8345676Y-15311857D02*
X8355199Y-15302334D01*
X8355199Y-15302334D02*
X8374247Y-15292810D01*
X8526628Y-15492810D02*
X8526628Y-15359476D01*
X8526628Y-15378524D02*
X8536152Y-15369000D01*
X8536152Y-15369000D02*
X8555199Y-15359476D01*
X8555199Y-15359476D02*
X8583771Y-15359476D01*
X8583771Y-15359476D02*
X8602819Y-15369000D01*
X8602819Y-15369000D02*
X8612342Y-15388048D01*
X8612342Y-15388048D02*
X8612342Y-15492810D01*
X8612342Y-15388048D02*
X8621866Y-15369000D01*
X8621866Y-15369000D02*
X8640914Y-15359476D01*
X8640914Y-15359476D02*
X8669485Y-15359476D01*
X8669485Y-15359476D02*
X8688533Y-15369000D01*
X8688533Y-15369000D02*
X8698057Y-15388048D01*
X8698057Y-15388048D02*
X8698057Y-15492810D01*
X8793295Y-15492810D02*
X8793295Y-15359476D01*
X8793295Y-15378524D02*
X8802819Y-15369000D01*
X8802819Y-15369000D02*
X8821866Y-15359476D01*
X8821866Y-15359476D02*
X8850438Y-15359476D01*
X8850438Y-15359476D02*
X8869485Y-15369000D01*
X8869485Y-15369000D02*
X8879009Y-15388048D01*
X8879009Y-15388048D02*
X8879009Y-15492810D01*
X8879009Y-15388048D02*
X8888533Y-15369000D01*
X8888533Y-15369000D02*
X8907580Y-15359476D01*
X8907580Y-15359476D02*
X8936152Y-15359476D01*
X8936152Y-15359476D02*
X8955200Y-15369000D01*
X8955200Y-15369000D02*
X8964723Y-15388048D01*
X8964723Y-15388048D02*
X8964723Y-15492810D01*
X9355200Y-15283286D02*
X9183771Y-15540429D01*
X9612342Y-15292810D02*
X9631390Y-15292810D01*
X9631390Y-15292810D02*
X9650438Y-15302334D01*
X9650438Y-15302334D02*
X9659962Y-15311857D01*
X9659962Y-15311857D02*
X9669485Y-15330905D01*
X9669485Y-15330905D02*
X9679009Y-15369000D01*
X9679009Y-15369000D02*
X9679009Y-15416619D01*
X9679009Y-15416619D02*
X9669485Y-15454715D01*
X9669485Y-15454715D02*
X9659962Y-15473762D01*
X9659962Y-15473762D02*
X9650438Y-15483286D01*
X9650438Y-15483286D02*
X9631390Y-15492810D01*
X9631390Y-15492810D02*
X9612342Y-15492810D01*
X9612342Y-15492810D02*
X9593295Y-15483286D01*
X9593295Y-15483286D02*
X9583771Y-15473762D01*
X9583771Y-15473762D02*
X9574247Y-15454715D01*
X9574247Y-15454715D02*
X9564723Y-15416619D01*
X9564723Y-15416619D02*
X9564723Y-15369000D01*
X9564723Y-15369000D02*
X9574247Y-15330905D01*
X9574247Y-15330905D02*
X9583771Y-15311857D01*
X9583771Y-15311857D02*
X9593295Y-15302334D01*
X9593295Y-15302334D02*
X9612342Y-15292810D01*
X9764723Y-15473762D02*
X9774247Y-15483286D01*
X9774247Y-15483286D02*
X9764723Y-15492810D01*
X9764723Y-15492810D02*
X9755200Y-15483286D01*
X9755200Y-15483286D02*
X9764723Y-15473762D01*
X9764723Y-15473762D02*
X9764723Y-15492810D01*
X9898057Y-15292810D02*
X9917104Y-15292810D01*
X9917104Y-15292810D02*
X9936152Y-15302334D01*
X9936152Y-15302334D02*
X9945676Y-15311857D01*
X9945676Y-15311857D02*
X9955200Y-15330905D01*
X9955200Y-15330905D02*
X9964723Y-15369000D01*
X9964723Y-15369000D02*
X9964723Y-15416619D01*
X9964723Y-15416619D02*
X9955200Y-15454715D01*
X9955200Y-15454715D02*
X9945676Y-15473762D01*
X9945676Y-15473762D02*
X9936152Y-15483286D01*
X9936152Y-15483286D02*
X9917104Y-15492810D01*
X9917104Y-15492810D02*
X9898057Y-15492810D01*
X9898057Y-15492810D02*
X9879009Y-15483286D01*
X9879009Y-15483286D02*
X9869485Y-15473762D01*
X9869485Y-15473762D02*
X9859962Y-15454715D01*
X9859962Y-15454715D02*
X9850438Y-15416619D01*
X9850438Y-15416619D02*
X9850438Y-15369000D01*
X9850438Y-15369000D02*
X9859962Y-15330905D01*
X9859962Y-15330905D02*
X9869485Y-15311857D01*
X9869485Y-15311857D02*
X9879009Y-15302334D01*
X9879009Y-15302334D02*
X9898057Y-15292810D01*
X10155200Y-15492810D02*
X10040914Y-15492810D01*
X10098057Y-15492810D02*
X10098057Y-15292810D01*
X10098057Y-15292810D02*
X10079009Y-15321381D01*
X10079009Y-15321381D02*
X10059962Y-15340429D01*
X10059962Y-15340429D02*
X10040914Y-15349953D01*
X10345676Y-15492810D02*
X10231390Y-15492810D01*
X10288533Y-15492810D02*
X10288533Y-15292810D01*
X10288533Y-15292810D02*
X10269485Y-15321381D01*
X10269485Y-15321381D02*
X10250438Y-15340429D01*
X10250438Y-15340429D02*
X10231390Y-15349953D01*
X10459962Y-15378524D02*
X10440914Y-15369000D01*
X10440914Y-15369000D02*
X10431390Y-15359476D01*
X10431390Y-15359476D02*
X10421866Y-15340429D01*
X10421866Y-15340429D02*
X10421866Y-15330905D01*
X10421866Y-15330905D02*
X10431390Y-15311857D01*
X10431390Y-15311857D02*
X10440914Y-15302334D01*
X10440914Y-15302334D02*
X10459962Y-15292810D01*
X10459962Y-15292810D02*
X10498057Y-15292810D01*
X10498057Y-15292810D02*
X10517104Y-15302334D01*
X10517104Y-15302334D02*
X10526628Y-15311857D01*
X10526628Y-15311857D02*
X10536152Y-15330905D01*
X10536152Y-15330905D02*
X10536152Y-15340429D01*
X10536152Y-15340429D02*
X10526628Y-15359476D01*
X10526628Y-15359476D02*
X10517104Y-15369000D01*
X10517104Y-15369000D02*
X10498057Y-15378524D01*
X10498057Y-15378524D02*
X10459962Y-15378524D01*
X10459962Y-15378524D02*
X10440914Y-15388048D01*
X10440914Y-15388048D02*
X10431390Y-15397572D01*
X10431390Y-15397572D02*
X10421866Y-15416619D01*
X10421866Y-15416619D02*
X10421866Y-15454715D01*
X10421866Y-15454715D02*
X10431390Y-15473762D01*
X10431390Y-15473762D02*
X10440914Y-15483286D01*
X10440914Y-15483286D02*
X10459962Y-15492810D01*
X10459962Y-15492810D02*
X10498057Y-15492810D01*
X10498057Y-15492810D02*
X10517104Y-15483286D01*
X10517104Y-15483286D02*
X10526628Y-15473762D01*
X10526628Y-15473762D02*
X10536152Y-15454715D01*
X10536152Y-15454715D02*
X10536152Y-15416619D01*
X10536152Y-15416619D02*
X10526628Y-15397572D01*
X10526628Y-15397572D02*
X10517104Y-15388048D01*
X10517104Y-15388048D02*
X10498057Y-15378524D01*
X10612343Y-15292810D02*
X10612343Y-15330905D01*
X10688533Y-15292810D02*
X10688533Y-15330905D01*
X10983771Y-15569000D02*
X10974247Y-15559476D01*
X10974247Y-15559476D02*
X10955200Y-15530905D01*
X10955200Y-15530905D02*
X10945676Y-15511857D01*
X10945676Y-15511857D02*
X10936152Y-15483286D01*
X10936152Y-15483286D02*
X10926628Y-15435667D01*
X10926628Y-15435667D02*
X10926628Y-15397572D01*
X10926628Y-15397572D02*
X10936152Y-15349953D01*
X10936152Y-15349953D02*
X10945676Y-15321381D01*
X10945676Y-15321381D02*
X10955200Y-15302334D01*
X10955200Y-15302334D02*
X10974247Y-15273762D01*
X10974247Y-15273762D02*
X10983771Y-15264238D01*
X11145676Y-15292810D02*
X11107581Y-15292810D01*
X11107581Y-15292810D02*
X11088533Y-15302334D01*
X11088533Y-15302334D02*
X11079009Y-15311857D01*
X11079009Y-15311857D02*
X11059962Y-15340429D01*
X11059962Y-15340429D02*
X11050438Y-15378524D01*
X11050438Y-15378524D02*
X11050438Y-15454715D01*
X11050438Y-15454715D02*
X11059962Y-15473762D01*
X11059962Y-15473762D02*
X11069485Y-15483286D01*
X11069485Y-15483286D02*
X11088533Y-15492810D01*
X11088533Y-15492810D02*
X11126628Y-15492810D01*
X11126628Y-15492810D02*
X11145676Y-15483286D01*
X11145676Y-15483286D02*
X11155200Y-15473762D01*
X11155200Y-15473762D02*
X11164724Y-15454715D01*
X11164724Y-15454715D02*
X11164724Y-15407096D01*
X11164724Y-15407096D02*
X11155200Y-15388048D01*
X11155200Y-15388048D02*
X11145676Y-15378524D01*
X11145676Y-15378524D02*
X11126628Y-15369000D01*
X11126628Y-15369000D02*
X11088533Y-15369000D01*
X11088533Y-15369000D02*
X11069485Y-15378524D01*
X11069485Y-15378524D02*
X11059962Y-15388048D01*
X11059962Y-15388048D02*
X11050438Y-15407096D01*
X11240914Y-15311857D02*
X11250438Y-15302334D01*
X11250438Y-15302334D02*
X11269485Y-15292810D01*
X11269485Y-15292810D02*
X11317104Y-15292810D01*
X11317104Y-15292810D02*
X11336152Y-15302334D01*
X11336152Y-15302334D02*
X11345676Y-15311857D01*
X11345676Y-15311857D02*
X11355200Y-15330905D01*
X11355200Y-15330905D02*
X11355200Y-15349953D01*
X11355200Y-15349953D02*
X11345676Y-15378524D01*
X11345676Y-15378524D02*
X11231390Y-15492810D01*
X11231390Y-15492810D02*
X11355200Y-15492810D01*
X11536152Y-15292810D02*
X11440914Y-15292810D01*
X11440914Y-15292810D02*
X11431390Y-15388048D01*
X11431390Y-15388048D02*
X11440914Y-15378524D01*
X11440914Y-15378524D02*
X11459962Y-15369000D01*
X11459962Y-15369000D02*
X11507581Y-15369000D01*
X11507581Y-15369000D02*
X11526628Y-15378524D01*
X11526628Y-15378524D02*
X11536152Y-15388048D01*
X11536152Y-15388048D02*
X11545676Y-15407096D01*
X11545676Y-15407096D02*
X11545676Y-15454715D01*
X11545676Y-15454715D02*
X11536152Y-15473762D01*
X11536152Y-15473762D02*
X11526628Y-15483286D01*
X11526628Y-15483286D02*
X11507581Y-15492810D01*
X11507581Y-15492810D02*
X11459962Y-15492810D01*
X11459962Y-15492810D02*
X11440914Y-15483286D01*
X11440914Y-15483286D02*
X11431390Y-15473762D01*
X11783771Y-15492810D02*
X11783771Y-15292810D01*
X11869485Y-15492810D02*
X11869485Y-15388048D01*
X11869485Y-15388048D02*
X11859962Y-15369000D01*
X11859962Y-15369000D02*
X11840914Y-15359476D01*
X11840914Y-15359476D02*
X11812343Y-15359476D01*
X11812343Y-15359476D02*
X11793295Y-15369000D01*
X11793295Y-15369000D02*
X11783771Y-15378524D01*
X11993295Y-15492810D02*
X11974247Y-15483286D01*
X11974247Y-15483286D02*
X11964724Y-15473762D01*
X11964724Y-15473762D02*
X11955200Y-15454715D01*
X11955200Y-15454715D02*
X11955200Y-15397572D01*
X11955200Y-15397572D02*
X11964724Y-15378524D01*
X11964724Y-15378524D02*
X11974247Y-15369000D01*
X11974247Y-15369000D02*
X11993295Y-15359476D01*
X11993295Y-15359476D02*
X12021866Y-15359476D01*
X12021866Y-15359476D02*
X12040914Y-15369000D01*
X12040914Y-15369000D02*
X12050438Y-15378524D01*
X12050438Y-15378524D02*
X12059962Y-15397572D01*
X12059962Y-15397572D02*
X12059962Y-15454715D01*
X12059962Y-15454715D02*
X12050438Y-15473762D01*
X12050438Y-15473762D02*
X12040914Y-15483286D01*
X12040914Y-15483286D02*
X12021866Y-15492810D01*
X12021866Y-15492810D02*
X11993295Y-15492810D01*
X12174247Y-15492810D02*
X12155200Y-15483286D01*
X12155200Y-15483286D02*
X12145676Y-15464238D01*
X12145676Y-15464238D02*
X12145676Y-15292810D01*
X12326628Y-15483286D02*
X12307581Y-15492810D01*
X12307581Y-15492810D02*
X12269485Y-15492810D01*
X12269485Y-15492810D02*
X12250438Y-15483286D01*
X12250438Y-15483286D02*
X12240914Y-15464238D01*
X12240914Y-15464238D02*
X12240914Y-15388048D01*
X12240914Y-15388048D02*
X12250438Y-15369000D01*
X12250438Y-15369000D02*
X12269485Y-15359476D01*
X12269485Y-15359476D02*
X12307581Y-15359476D01*
X12307581Y-15359476D02*
X12326628Y-15369000D01*
X12326628Y-15369000D02*
X12336152Y-15388048D01*
X12336152Y-15388048D02*
X12336152Y-15407096D01*
X12336152Y-15407096D02*
X12240914Y-15426143D01*
X12412343Y-15483286D02*
X12431390Y-15492810D01*
X12431390Y-15492810D02*
X12469485Y-15492810D01*
X12469485Y-15492810D02*
X12488533Y-15483286D01*
X12488533Y-15483286D02*
X12498057Y-15464238D01*
X12498057Y-15464238D02*
X12498057Y-15454715D01*
X12498057Y-15454715D02*
X12488533Y-15435667D01*
X12488533Y-15435667D02*
X12469485Y-15426143D01*
X12469485Y-15426143D02*
X12440914Y-15426143D01*
X12440914Y-15426143D02*
X12421866Y-15416619D01*
X12421866Y-15416619D02*
X12412343Y-15397572D01*
X12412343Y-15397572D02*
X12412343Y-15388048D01*
X12412343Y-15388048D02*
X12421866Y-15369000D01*
X12421866Y-15369000D02*
X12440914Y-15359476D01*
X12440914Y-15359476D02*
X12469485Y-15359476D01*
X12469485Y-15359476D02*
X12488533Y-15369000D01*
X12564724Y-15569000D02*
X12574247Y-15559476D01*
X12574247Y-15559476D02*
X12593295Y-15530905D01*
X12593295Y-15530905D02*
X12602819Y-15511857D01*
X12602819Y-15511857D02*
X12612343Y-15483286D01*
X12612343Y-15483286D02*
X12621866Y-15435667D01*
X12621866Y-15435667D02*
X12621866Y-15397572D01*
X12621866Y-15397572D02*
X12612343Y-15349953D01*
X12612343Y-15349953D02*
X12602819Y-15321381D01*
X12602819Y-15321381D02*
X12593295Y-15302334D01*
X12593295Y-15302334D02*
X12574247Y-15273762D01*
X12574247Y-15273762D02*
X12564724Y-15264238D01*
D12*
X7408708Y-15665326D02*
G75*
G02*
X7358708Y-15665326I-25000J0D01*
G01*
X7358708Y-15665326D02*
G75*
G02*
X7408708Y-15665326I25000J0D01*
G01*
D11*
X7707580Y-15556810D02*
X7726628Y-15556810D01*
X7726628Y-15556810D02*
X7745676Y-15566334D01*
X7745676Y-15566334D02*
X7755199Y-15575857D01*
X7755199Y-15575857D02*
X7764723Y-15594905D01*
X7764723Y-15594905D02*
X7774247Y-15633000D01*
X7774247Y-15633000D02*
X7774247Y-15680619D01*
X7774247Y-15680619D02*
X7764723Y-15718715D01*
X7764723Y-15718715D02*
X7755199Y-15737762D01*
X7755199Y-15737762D02*
X7745676Y-15747286D01*
X7745676Y-15747286D02*
X7726628Y-15756810D01*
X7726628Y-15756810D02*
X7707580Y-15756810D01*
X7707580Y-15756810D02*
X7688533Y-15747286D01*
X7688533Y-15747286D02*
X7679009Y-15737762D01*
X7679009Y-15737762D02*
X7669485Y-15718715D01*
X7669485Y-15718715D02*
X7659961Y-15680619D01*
X7659961Y-15680619D02*
X7659961Y-15633000D01*
X7659961Y-15633000D02*
X7669485Y-15594905D01*
X7669485Y-15594905D02*
X7679009Y-15575857D01*
X7679009Y-15575857D02*
X7688533Y-15566334D01*
X7688533Y-15566334D02*
X7707580Y-15556810D01*
X7859961Y-15737762D02*
X7869485Y-15747286D01*
X7869485Y-15747286D02*
X7859961Y-15756810D01*
X7859961Y-15756810D02*
X7850437Y-15747286D01*
X7850437Y-15747286D02*
X7859961Y-15737762D01*
X7859961Y-15737762D02*
X7859961Y-15756810D01*
X8050437Y-15556810D02*
X7955199Y-15556810D01*
X7955199Y-15556810D02*
X7945676Y-15652048D01*
X7945676Y-15652048D02*
X7955199Y-15642524D01*
X7955199Y-15642524D02*
X7974247Y-15633000D01*
X7974247Y-15633000D02*
X8021866Y-15633000D01*
X8021866Y-15633000D02*
X8040914Y-15642524D01*
X8040914Y-15642524D02*
X8050437Y-15652048D01*
X8050437Y-15652048D02*
X8059961Y-15671096D01*
X8059961Y-15671096D02*
X8059961Y-15718715D01*
X8059961Y-15718715D02*
X8050437Y-15737762D01*
X8050437Y-15737762D02*
X8040914Y-15747286D01*
X8040914Y-15747286D02*
X8021866Y-15756810D01*
X8021866Y-15756810D02*
X7974247Y-15756810D01*
X7974247Y-15756810D02*
X7955199Y-15747286D01*
X7955199Y-15747286D02*
X7945676Y-15737762D01*
X8183771Y-15556810D02*
X8202818Y-15556810D01*
X8202818Y-15556810D02*
X8221866Y-15566334D01*
X8221866Y-15566334D02*
X8231390Y-15575857D01*
X8231390Y-15575857D02*
X8240914Y-15594905D01*
X8240914Y-15594905D02*
X8250437Y-15633000D01*
X8250437Y-15633000D02*
X8250437Y-15680619D01*
X8250437Y-15680619D02*
X8240914Y-15718715D01*
X8240914Y-15718715D02*
X8231390Y-15737762D01*
X8231390Y-15737762D02*
X8221866Y-15747286D01*
X8221866Y-15747286D02*
X8202818Y-15756810D01*
X8202818Y-15756810D02*
X8183771Y-15756810D01*
X8183771Y-15756810D02*
X8164723Y-15747286D01*
X8164723Y-15747286D02*
X8155199Y-15737762D01*
X8155199Y-15737762D02*
X8145676Y-15718715D01*
X8145676Y-15718715D02*
X8136152Y-15680619D01*
X8136152Y-15680619D02*
X8136152Y-15633000D01*
X8136152Y-15633000D02*
X8145676Y-15594905D01*
X8145676Y-15594905D02*
X8155199Y-15575857D01*
X8155199Y-15575857D02*
X8164723Y-15566334D01*
X8164723Y-15566334D02*
X8183771Y-15556810D01*
X8374247Y-15556810D02*
X8393295Y-15556810D01*
X8393295Y-15556810D02*
X8412342Y-15566334D01*
X8412342Y-15566334D02*
X8421866Y-15575857D01*
X8421866Y-15575857D02*
X8431390Y-15594905D01*
X8431390Y-15594905D02*
X8440914Y-15633000D01*
X8440914Y-15633000D02*
X8440914Y-15680619D01*
X8440914Y-15680619D02*
X8431390Y-15718715D01*
X8431390Y-15718715D02*
X8421866Y-15737762D01*
X8421866Y-15737762D02*
X8412342Y-15747286D01*
X8412342Y-15747286D02*
X8393295Y-15756810D01*
X8393295Y-15756810D02*
X8374247Y-15756810D01*
X8374247Y-15756810D02*
X8355199Y-15747286D01*
X8355199Y-15747286D02*
X8345676Y-15737762D01*
X8345676Y-15737762D02*
X8336152Y-15718715D01*
X8336152Y-15718715D02*
X8326628Y-15680619D01*
X8326628Y-15680619D02*
X8326628Y-15633000D01*
X8326628Y-15633000D02*
X8336152Y-15594905D01*
X8336152Y-15594905D02*
X8345676Y-15575857D01*
X8345676Y-15575857D02*
X8355199Y-15566334D01*
X8355199Y-15566334D02*
X8374247Y-15556810D01*
X8526628Y-15756810D02*
X8526628Y-15623476D01*
X8526628Y-15642524D02*
X8536152Y-15633000D01*
X8536152Y-15633000D02*
X8555199Y-15623476D01*
X8555199Y-15623476D02*
X8583771Y-15623476D01*
X8583771Y-15623476D02*
X8602819Y-15633000D01*
X8602819Y-15633000D02*
X8612342Y-15652048D01*
X8612342Y-15652048D02*
X8612342Y-15756810D01*
X8612342Y-15652048D02*
X8621866Y-15633000D01*
X8621866Y-15633000D02*
X8640914Y-15623476D01*
X8640914Y-15623476D02*
X8669485Y-15623476D01*
X8669485Y-15623476D02*
X8688533Y-15633000D01*
X8688533Y-15633000D02*
X8698057Y-15652048D01*
X8698057Y-15652048D02*
X8698057Y-15756810D01*
X8793295Y-15756810D02*
X8793295Y-15623476D01*
X8793295Y-15642524D02*
X8802819Y-15633000D01*
X8802819Y-15633000D02*
X8821866Y-15623476D01*
X8821866Y-15623476D02*
X8850438Y-15623476D01*
X8850438Y-15623476D02*
X8869485Y-15633000D01*
X8869485Y-15633000D02*
X8879009Y-15652048D01*
X8879009Y-15652048D02*
X8879009Y-15756810D01*
X8879009Y-15652048D02*
X8888533Y-15633000D01*
X8888533Y-15633000D02*
X8907580Y-15623476D01*
X8907580Y-15623476D02*
X8936152Y-15623476D01*
X8936152Y-15623476D02*
X8955200Y-15633000D01*
X8955200Y-15633000D02*
X8964723Y-15652048D01*
X8964723Y-15652048D02*
X8964723Y-15756810D01*
X9355200Y-15547286D02*
X9183771Y-15804429D01*
X9612342Y-15556810D02*
X9631390Y-15556810D01*
X9631390Y-15556810D02*
X9650438Y-15566334D01*
X9650438Y-15566334D02*
X9659962Y-15575857D01*
X9659962Y-15575857D02*
X9669485Y-15594905D01*
X9669485Y-15594905D02*
X9679009Y-15633000D01*
X9679009Y-15633000D02*
X9679009Y-15680619D01*
X9679009Y-15680619D02*
X9669485Y-15718715D01*
X9669485Y-15718715D02*
X9659962Y-15737762D01*
X9659962Y-15737762D02*
X9650438Y-15747286D01*
X9650438Y-15747286D02*
X9631390Y-15756810D01*
X9631390Y-15756810D02*
X9612342Y-15756810D01*
X9612342Y-15756810D02*
X9593295Y-15747286D01*
X9593295Y-15747286D02*
X9583771Y-15737762D01*
X9583771Y-15737762D02*
X9574247Y-15718715D01*
X9574247Y-15718715D02*
X9564723Y-15680619D01*
X9564723Y-15680619D02*
X9564723Y-15633000D01*
X9564723Y-15633000D02*
X9574247Y-15594905D01*
X9574247Y-15594905D02*
X9583771Y-15575857D01*
X9583771Y-15575857D02*
X9593295Y-15566334D01*
X9593295Y-15566334D02*
X9612342Y-15556810D01*
X9764723Y-15737762D02*
X9774247Y-15747286D01*
X9774247Y-15747286D02*
X9764723Y-15756810D01*
X9764723Y-15756810D02*
X9755200Y-15747286D01*
X9755200Y-15747286D02*
X9764723Y-15737762D01*
X9764723Y-15737762D02*
X9764723Y-15756810D01*
X9898057Y-15556810D02*
X9917104Y-15556810D01*
X9917104Y-15556810D02*
X9936152Y-15566334D01*
X9936152Y-15566334D02*
X9945676Y-15575857D01*
X9945676Y-15575857D02*
X9955200Y-15594905D01*
X9955200Y-15594905D02*
X9964723Y-15633000D01*
X9964723Y-15633000D02*
X9964723Y-15680619D01*
X9964723Y-15680619D02*
X9955200Y-15718715D01*
X9955200Y-15718715D02*
X9945676Y-15737762D01*
X9945676Y-15737762D02*
X9936152Y-15747286D01*
X9936152Y-15747286D02*
X9917104Y-15756810D01*
X9917104Y-15756810D02*
X9898057Y-15756810D01*
X9898057Y-15756810D02*
X9879009Y-15747286D01*
X9879009Y-15747286D02*
X9869485Y-15737762D01*
X9869485Y-15737762D02*
X9859962Y-15718715D01*
X9859962Y-15718715D02*
X9850438Y-15680619D01*
X9850438Y-15680619D02*
X9850438Y-15633000D01*
X9850438Y-15633000D02*
X9859962Y-15594905D01*
X9859962Y-15594905D02*
X9869485Y-15575857D01*
X9869485Y-15575857D02*
X9879009Y-15566334D01*
X9879009Y-15566334D02*
X9898057Y-15556810D01*
X10155200Y-15756810D02*
X10040914Y-15756810D01*
X10098057Y-15756810D02*
X10098057Y-15556810D01*
X10098057Y-15556810D02*
X10079009Y-15585381D01*
X10079009Y-15585381D02*
X10059962Y-15604429D01*
X10059962Y-15604429D02*
X10040914Y-15613953D01*
X10250438Y-15756810D02*
X10288533Y-15756810D01*
X10288533Y-15756810D02*
X10307581Y-15747286D01*
X10307581Y-15747286D02*
X10317104Y-15737762D01*
X10317104Y-15737762D02*
X10336152Y-15709191D01*
X10336152Y-15709191D02*
X10345676Y-15671096D01*
X10345676Y-15671096D02*
X10345676Y-15594905D01*
X10345676Y-15594905D02*
X10336152Y-15575857D01*
X10336152Y-15575857D02*
X10326628Y-15566334D01*
X10326628Y-15566334D02*
X10307581Y-15556810D01*
X10307581Y-15556810D02*
X10269485Y-15556810D01*
X10269485Y-15556810D02*
X10250438Y-15566334D01*
X10250438Y-15566334D02*
X10240914Y-15575857D01*
X10240914Y-15575857D02*
X10231390Y-15594905D01*
X10231390Y-15594905D02*
X10231390Y-15642524D01*
X10231390Y-15642524D02*
X10240914Y-15661572D01*
X10240914Y-15661572D02*
X10250438Y-15671096D01*
X10250438Y-15671096D02*
X10269485Y-15680619D01*
X10269485Y-15680619D02*
X10307581Y-15680619D01*
X10307581Y-15680619D02*
X10326628Y-15671096D01*
X10326628Y-15671096D02*
X10336152Y-15661572D01*
X10336152Y-15661572D02*
X10345676Y-15642524D01*
X10412343Y-15556810D02*
X10545676Y-15556810D01*
X10545676Y-15556810D02*
X10459962Y-15756810D01*
X10612343Y-15556810D02*
X10612343Y-15594905D01*
X10688533Y-15556810D02*
X10688533Y-15594905D01*
X10983771Y-15833000D02*
X10974247Y-15823476D01*
X10974247Y-15823476D02*
X10955200Y-15794905D01*
X10955200Y-15794905D02*
X10945676Y-15775857D01*
X10945676Y-15775857D02*
X10936152Y-15747286D01*
X10936152Y-15747286D02*
X10926628Y-15699667D01*
X10926628Y-15699667D02*
X10926628Y-15661572D01*
X10926628Y-15661572D02*
X10936152Y-15613953D01*
X10936152Y-15613953D02*
X10945676Y-15585381D01*
X10945676Y-15585381D02*
X10955200Y-15566334D01*
X10955200Y-15566334D02*
X10974247Y-15537762D01*
X10974247Y-15537762D02*
X10983771Y-15528238D01*
X11040914Y-15556810D02*
X11164724Y-15556810D01*
X11164724Y-15556810D02*
X11098057Y-15633000D01*
X11098057Y-15633000D02*
X11126628Y-15633000D01*
X11126628Y-15633000D02*
X11145676Y-15642524D01*
X11145676Y-15642524D02*
X11155200Y-15652048D01*
X11155200Y-15652048D02*
X11164724Y-15671096D01*
X11164724Y-15671096D02*
X11164724Y-15718715D01*
X11164724Y-15718715D02*
X11155200Y-15737762D01*
X11155200Y-15737762D02*
X11145676Y-15747286D01*
X11145676Y-15747286D02*
X11126628Y-15756810D01*
X11126628Y-15756810D02*
X11069485Y-15756810D01*
X11069485Y-15756810D02*
X11050438Y-15747286D01*
X11050438Y-15747286D02*
X11040914Y-15737762D01*
X11240914Y-15575857D02*
X11250438Y-15566334D01*
X11250438Y-15566334D02*
X11269485Y-15556810D01*
X11269485Y-15556810D02*
X11317104Y-15556810D01*
X11317104Y-15556810D02*
X11336152Y-15566334D01*
X11336152Y-15566334D02*
X11345676Y-15575857D01*
X11345676Y-15575857D02*
X11355200Y-15594905D01*
X11355200Y-15594905D02*
X11355200Y-15613953D01*
X11355200Y-15613953D02*
X11345676Y-15642524D01*
X11345676Y-15642524D02*
X11231390Y-15756810D01*
X11231390Y-15756810D02*
X11355200Y-15756810D01*
X11593295Y-15756810D02*
X11593295Y-15556810D01*
X11679009Y-15756810D02*
X11679009Y-15652048D01*
X11679009Y-15652048D02*
X11669485Y-15633000D01*
X11669485Y-15633000D02*
X11650438Y-15623476D01*
X11650438Y-15623476D02*
X11621866Y-15623476D01*
X11621866Y-15623476D02*
X11602819Y-15633000D01*
X11602819Y-15633000D02*
X11593295Y-15642524D01*
X11802819Y-15756810D02*
X11783771Y-15747286D01*
X11783771Y-15747286D02*
X11774247Y-15737762D01*
X11774247Y-15737762D02*
X11764724Y-15718715D01*
X11764724Y-15718715D02*
X11764724Y-15661572D01*
X11764724Y-15661572D02*
X11774247Y-15642524D01*
X11774247Y-15642524D02*
X11783771Y-15633000D01*
X11783771Y-15633000D02*
X11802819Y-15623476D01*
X11802819Y-15623476D02*
X11831390Y-15623476D01*
X11831390Y-15623476D02*
X11850438Y-15633000D01*
X11850438Y-15633000D02*
X11859962Y-15642524D01*
X11859962Y-15642524D02*
X11869485Y-15661572D01*
X11869485Y-15661572D02*
X11869485Y-15718715D01*
X11869485Y-15718715D02*
X11859962Y-15737762D01*
X11859962Y-15737762D02*
X11850438Y-15747286D01*
X11850438Y-15747286D02*
X11831390Y-15756810D01*
X11831390Y-15756810D02*
X11802819Y-15756810D01*
X11983771Y-15756810D02*
X11964724Y-15747286D01*
X11964724Y-15747286D02*
X11955200Y-15728238D01*
X11955200Y-15728238D02*
X11955200Y-15556810D01*
X12136152Y-15747286D02*
X12117105Y-15756810D01*
X12117105Y-15756810D02*
X12079009Y-15756810D01*
X12079009Y-15756810D02*
X12059962Y-15747286D01*
X12059962Y-15747286D02*
X12050438Y-15728238D01*
X12050438Y-15728238D02*
X12050438Y-15652048D01*
X12050438Y-15652048D02*
X12059962Y-15633000D01*
X12059962Y-15633000D02*
X12079009Y-15623476D01*
X12079009Y-15623476D02*
X12117105Y-15623476D01*
X12117105Y-15623476D02*
X12136152Y-15633000D01*
X12136152Y-15633000D02*
X12145676Y-15652048D01*
X12145676Y-15652048D02*
X12145676Y-15671096D01*
X12145676Y-15671096D02*
X12050438Y-15690143D01*
X12221866Y-15747286D02*
X12240914Y-15756810D01*
X12240914Y-15756810D02*
X12279009Y-15756810D01*
X12279009Y-15756810D02*
X12298057Y-15747286D01*
X12298057Y-15747286D02*
X12307581Y-15728238D01*
X12307581Y-15728238D02*
X12307581Y-15718715D01*
X12307581Y-15718715D02*
X12298057Y-15699667D01*
X12298057Y-15699667D02*
X12279009Y-15690143D01*
X12279009Y-15690143D02*
X12250438Y-15690143D01*
X12250438Y-15690143D02*
X12231390Y-15680619D01*
X12231390Y-15680619D02*
X12221866Y-15661572D01*
X12221866Y-15661572D02*
X12221866Y-15652048D01*
X12221866Y-15652048D02*
X12231390Y-15633000D01*
X12231390Y-15633000D02*
X12250438Y-15623476D01*
X12250438Y-15623476D02*
X12279009Y-15623476D01*
X12279009Y-15623476D02*
X12298057Y-15633000D01*
X12374247Y-15833000D02*
X12383771Y-15823476D01*
X12383771Y-15823476D02*
X12402819Y-15794905D01*
X12402819Y-15794905D02*
X12412343Y-15775857D01*
X12412343Y-15775857D02*
X12421866Y-15747286D01*
X12421866Y-15747286D02*
X12431390Y-15699667D01*
X12431390Y-15699667D02*
X12431390Y-15661572D01*
X12431390Y-15661572D02*
X12421866Y-15613953D01*
X12421866Y-15613953D02*
X12412343Y-15585381D01*
X12412343Y-15585381D02*
X12402819Y-15566334D01*
X12402819Y-15566334D02*
X12383771Y-15537762D01*
X12383771Y-15537762D02*
X12374247Y-15528238D01*
D13*
X7353708Y-15874326D02*
X7353708Y-15984326D01*
X7298708Y-15929326D02*
X7408708Y-15929326D01*
D11*
X7774247Y-16020810D02*
X7659961Y-16020810D01*
X7717104Y-16020810D02*
X7717104Y-15820810D01*
X7717104Y-15820810D02*
X7698056Y-15849381D01*
X7698056Y-15849381D02*
X7679009Y-15868429D01*
X7679009Y-15868429D02*
X7659961Y-15877953D01*
X7859961Y-16001762D02*
X7869485Y-16011286D01*
X7869485Y-16011286D02*
X7859961Y-16020810D01*
X7859961Y-16020810D02*
X7850437Y-16011286D01*
X7850437Y-16011286D02*
X7859961Y-16001762D01*
X7859961Y-16001762D02*
X7859961Y-16020810D01*
X8059961Y-16020810D02*
X7945676Y-16020810D01*
X8002818Y-16020810D02*
X8002818Y-15820810D01*
X8002818Y-15820810D02*
X7983771Y-15849381D01*
X7983771Y-15849381D02*
X7964723Y-15868429D01*
X7964723Y-15868429D02*
X7945676Y-15877953D01*
X8183771Y-15820810D02*
X8202818Y-15820810D01*
X8202818Y-15820810D02*
X8221866Y-15830334D01*
X8221866Y-15830334D02*
X8231390Y-15839857D01*
X8231390Y-15839857D02*
X8240914Y-15858905D01*
X8240914Y-15858905D02*
X8250437Y-15897000D01*
X8250437Y-15897000D02*
X8250437Y-15944619D01*
X8250437Y-15944619D02*
X8240914Y-15982715D01*
X8240914Y-15982715D02*
X8231390Y-16001762D01*
X8231390Y-16001762D02*
X8221866Y-16011286D01*
X8221866Y-16011286D02*
X8202818Y-16020810D01*
X8202818Y-16020810D02*
X8183771Y-16020810D01*
X8183771Y-16020810D02*
X8164723Y-16011286D01*
X8164723Y-16011286D02*
X8155199Y-16001762D01*
X8155199Y-16001762D02*
X8145676Y-15982715D01*
X8145676Y-15982715D02*
X8136152Y-15944619D01*
X8136152Y-15944619D02*
X8136152Y-15897000D01*
X8136152Y-15897000D02*
X8145676Y-15858905D01*
X8145676Y-15858905D02*
X8155199Y-15839857D01*
X8155199Y-15839857D02*
X8164723Y-15830334D01*
X8164723Y-15830334D02*
X8183771Y-15820810D01*
X8374247Y-15820810D02*
X8393295Y-15820810D01*
X8393295Y-15820810D02*
X8412342Y-15830334D01*
X8412342Y-15830334D02*
X8421866Y-15839857D01*
X8421866Y-15839857D02*
X8431390Y-15858905D01*
X8431390Y-15858905D02*
X8440914Y-15897000D01*
X8440914Y-15897000D02*
X8440914Y-15944619D01*
X8440914Y-15944619D02*
X8431390Y-15982715D01*
X8431390Y-15982715D02*
X8421866Y-16001762D01*
X8421866Y-16001762D02*
X8412342Y-16011286D01*
X8412342Y-16011286D02*
X8393295Y-16020810D01*
X8393295Y-16020810D02*
X8374247Y-16020810D01*
X8374247Y-16020810D02*
X8355199Y-16011286D01*
X8355199Y-16011286D02*
X8345676Y-16001762D01*
X8345676Y-16001762D02*
X8336152Y-15982715D01*
X8336152Y-15982715D02*
X8326628Y-15944619D01*
X8326628Y-15944619D02*
X8326628Y-15897000D01*
X8326628Y-15897000D02*
X8336152Y-15858905D01*
X8336152Y-15858905D02*
X8345676Y-15839857D01*
X8345676Y-15839857D02*
X8355199Y-15830334D01*
X8355199Y-15830334D02*
X8374247Y-15820810D01*
X8526628Y-16020810D02*
X8526628Y-15887476D01*
X8526628Y-15906524D02*
X8536152Y-15897000D01*
X8536152Y-15897000D02*
X8555199Y-15887476D01*
X8555199Y-15887476D02*
X8583771Y-15887476D01*
X8583771Y-15887476D02*
X8602819Y-15897000D01*
X8602819Y-15897000D02*
X8612342Y-15916048D01*
X8612342Y-15916048D02*
X8612342Y-16020810D01*
X8612342Y-15916048D02*
X8621866Y-15897000D01*
X8621866Y-15897000D02*
X8640914Y-15887476D01*
X8640914Y-15887476D02*
X8669485Y-15887476D01*
X8669485Y-15887476D02*
X8688533Y-15897000D01*
X8688533Y-15897000D02*
X8698057Y-15916048D01*
X8698057Y-15916048D02*
X8698057Y-16020810D01*
X8793295Y-16020810D02*
X8793295Y-15887476D01*
X8793295Y-15906524D02*
X8802819Y-15897000D01*
X8802819Y-15897000D02*
X8821866Y-15887476D01*
X8821866Y-15887476D02*
X8850438Y-15887476D01*
X8850438Y-15887476D02*
X8869485Y-15897000D01*
X8869485Y-15897000D02*
X8879009Y-15916048D01*
X8879009Y-15916048D02*
X8879009Y-16020810D01*
X8879009Y-15916048D02*
X8888533Y-15897000D01*
X8888533Y-15897000D02*
X8907580Y-15887476D01*
X8907580Y-15887476D02*
X8936152Y-15887476D01*
X8936152Y-15887476D02*
X8955200Y-15897000D01*
X8955200Y-15897000D02*
X8964723Y-15916048D01*
X8964723Y-15916048D02*
X8964723Y-16020810D01*
X9355200Y-15811286D02*
X9183771Y-16068429D01*
X9612342Y-15820810D02*
X9631390Y-15820810D01*
X9631390Y-15820810D02*
X9650438Y-15830334D01*
X9650438Y-15830334D02*
X9659962Y-15839857D01*
X9659962Y-15839857D02*
X9669485Y-15858905D01*
X9669485Y-15858905D02*
X9679009Y-15897000D01*
X9679009Y-15897000D02*
X9679009Y-15944619D01*
X9679009Y-15944619D02*
X9669485Y-15982715D01*
X9669485Y-15982715D02*
X9659962Y-16001762D01*
X9659962Y-16001762D02*
X9650438Y-16011286D01*
X9650438Y-16011286D02*
X9631390Y-16020810D01*
X9631390Y-16020810D02*
X9612342Y-16020810D01*
X9612342Y-16020810D02*
X9593295Y-16011286D01*
X9593295Y-16011286D02*
X9583771Y-16001762D01*
X9583771Y-16001762D02*
X9574247Y-15982715D01*
X9574247Y-15982715D02*
X9564723Y-15944619D01*
X9564723Y-15944619D02*
X9564723Y-15897000D01*
X9564723Y-15897000D02*
X9574247Y-15858905D01*
X9574247Y-15858905D02*
X9583771Y-15839857D01*
X9583771Y-15839857D02*
X9593295Y-15830334D01*
X9593295Y-15830334D02*
X9612342Y-15820810D01*
X9764723Y-16001762D02*
X9774247Y-16011286D01*
X9774247Y-16011286D02*
X9764723Y-16020810D01*
X9764723Y-16020810D02*
X9755200Y-16011286D01*
X9755200Y-16011286D02*
X9764723Y-16001762D01*
X9764723Y-16001762D02*
X9764723Y-16020810D01*
X9898057Y-15820810D02*
X9917104Y-15820810D01*
X9917104Y-15820810D02*
X9936152Y-15830334D01*
X9936152Y-15830334D02*
X9945676Y-15839857D01*
X9945676Y-15839857D02*
X9955200Y-15858905D01*
X9955200Y-15858905D02*
X9964723Y-15897000D01*
X9964723Y-15897000D02*
X9964723Y-15944619D01*
X9964723Y-15944619D02*
X9955200Y-15982715D01*
X9955200Y-15982715D02*
X9945676Y-16001762D01*
X9945676Y-16001762D02*
X9936152Y-16011286D01*
X9936152Y-16011286D02*
X9917104Y-16020810D01*
X9917104Y-16020810D02*
X9898057Y-16020810D01*
X9898057Y-16020810D02*
X9879009Y-16011286D01*
X9879009Y-16011286D02*
X9869485Y-16001762D01*
X9869485Y-16001762D02*
X9859962Y-15982715D01*
X9859962Y-15982715D02*
X9850438Y-15944619D01*
X9850438Y-15944619D02*
X9850438Y-15897000D01*
X9850438Y-15897000D02*
X9859962Y-15858905D01*
X9859962Y-15858905D02*
X9869485Y-15839857D01*
X9869485Y-15839857D02*
X9879009Y-15830334D01*
X9879009Y-15830334D02*
X9898057Y-15820810D01*
X10136152Y-15887476D02*
X10136152Y-16020810D01*
X10088533Y-15811286D02*
X10040914Y-15954143D01*
X10040914Y-15954143D02*
X10164723Y-15954143D01*
X10221866Y-15820810D02*
X10345676Y-15820810D01*
X10345676Y-15820810D02*
X10279009Y-15897000D01*
X10279009Y-15897000D02*
X10307581Y-15897000D01*
X10307581Y-15897000D02*
X10326628Y-15906524D01*
X10326628Y-15906524D02*
X10336152Y-15916048D01*
X10336152Y-15916048D02*
X10345676Y-15935096D01*
X10345676Y-15935096D02*
X10345676Y-15982715D01*
X10345676Y-15982715D02*
X10336152Y-16001762D01*
X10336152Y-16001762D02*
X10326628Y-16011286D01*
X10326628Y-16011286D02*
X10307581Y-16020810D01*
X10307581Y-16020810D02*
X10250438Y-16020810D01*
X10250438Y-16020810D02*
X10231390Y-16011286D01*
X10231390Y-16011286D02*
X10221866Y-16001762D01*
X10412343Y-15820810D02*
X10536152Y-15820810D01*
X10536152Y-15820810D02*
X10469485Y-15897000D01*
X10469485Y-15897000D02*
X10498057Y-15897000D01*
X10498057Y-15897000D02*
X10517104Y-15906524D01*
X10517104Y-15906524D02*
X10526628Y-15916048D01*
X10526628Y-15916048D02*
X10536152Y-15935096D01*
X10536152Y-15935096D02*
X10536152Y-15982715D01*
X10536152Y-15982715D02*
X10526628Y-16001762D01*
X10526628Y-16001762D02*
X10517104Y-16011286D01*
X10517104Y-16011286D02*
X10498057Y-16020810D01*
X10498057Y-16020810D02*
X10440914Y-16020810D01*
X10440914Y-16020810D02*
X10421866Y-16011286D01*
X10421866Y-16011286D02*
X10412343Y-16001762D01*
X10612343Y-15820810D02*
X10612343Y-15858905D01*
X10688533Y-15820810D02*
X10688533Y-15858905D01*
X10983771Y-16097000D02*
X10974247Y-16087476D01*
X10974247Y-16087476D02*
X10955200Y-16058905D01*
X10955200Y-16058905D02*
X10945676Y-16039857D01*
X10945676Y-16039857D02*
X10936152Y-16011286D01*
X10936152Y-16011286D02*
X10926628Y-15963667D01*
X10926628Y-15963667D02*
X10926628Y-15925572D01*
X10926628Y-15925572D02*
X10936152Y-15877953D01*
X10936152Y-15877953D02*
X10945676Y-15849381D01*
X10945676Y-15849381D02*
X10955200Y-15830334D01*
X10955200Y-15830334D02*
X10974247Y-15801762D01*
X10974247Y-15801762D02*
X10983771Y-15792238D01*
X11050438Y-15839857D02*
X11059962Y-15830334D01*
X11059962Y-15830334D02*
X11079009Y-15820810D01*
X11079009Y-15820810D02*
X11126628Y-15820810D01*
X11126628Y-15820810D02*
X11145676Y-15830334D01*
X11145676Y-15830334D02*
X11155200Y-15839857D01*
X11155200Y-15839857D02*
X11164724Y-15858905D01*
X11164724Y-15858905D02*
X11164724Y-15877953D01*
X11164724Y-15877953D02*
X11155200Y-15906524D01*
X11155200Y-15906524D02*
X11040914Y-16020810D01*
X11040914Y-16020810D02*
X11164724Y-16020810D01*
X11288533Y-15820810D02*
X11307581Y-15820810D01*
X11307581Y-15820810D02*
X11326628Y-15830334D01*
X11326628Y-15830334D02*
X11336152Y-15839857D01*
X11336152Y-15839857D02*
X11345676Y-15858905D01*
X11345676Y-15858905D02*
X11355200Y-15897000D01*
X11355200Y-15897000D02*
X11355200Y-15944619D01*
X11355200Y-15944619D02*
X11345676Y-15982715D01*
X11345676Y-15982715D02*
X11336152Y-16001762D01*
X11336152Y-16001762D02*
X11326628Y-16011286D01*
X11326628Y-16011286D02*
X11307581Y-16020810D01*
X11307581Y-16020810D02*
X11288533Y-16020810D01*
X11288533Y-16020810D02*
X11269485Y-16011286D01*
X11269485Y-16011286D02*
X11259962Y-16001762D01*
X11259962Y-16001762D02*
X11250438Y-15982715D01*
X11250438Y-15982715D02*
X11240914Y-15944619D01*
X11240914Y-15944619D02*
X11240914Y-15897000D01*
X11240914Y-15897000D02*
X11250438Y-15858905D01*
X11250438Y-15858905D02*
X11259962Y-15839857D01*
X11259962Y-15839857D02*
X11269485Y-15830334D01*
X11269485Y-15830334D02*
X11288533Y-15820810D01*
X11593295Y-16020810D02*
X11593295Y-15820810D01*
X11679009Y-16020810D02*
X11679009Y-15916048D01*
X11679009Y-15916048D02*
X11669485Y-15897000D01*
X11669485Y-15897000D02*
X11650438Y-15887476D01*
X11650438Y-15887476D02*
X11621866Y-15887476D01*
X11621866Y-15887476D02*
X11602819Y-15897000D01*
X11602819Y-15897000D02*
X11593295Y-15906524D01*
X11802819Y-16020810D02*
X11783771Y-16011286D01*
X11783771Y-16011286D02*
X11774247Y-16001762D01*
X11774247Y-16001762D02*
X11764724Y-15982715D01*
X11764724Y-15982715D02*
X11764724Y-15925572D01*
X11764724Y-15925572D02*
X11774247Y-15906524D01*
X11774247Y-15906524D02*
X11783771Y-15897000D01*
X11783771Y-15897000D02*
X11802819Y-15887476D01*
X11802819Y-15887476D02*
X11831390Y-15887476D01*
X11831390Y-15887476D02*
X11850438Y-15897000D01*
X11850438Y-15897000D02*
X11859962Y-15906524D01*
X11859962Y-15906524D02*
X11869485Y-15925572D01*
X11869485Y-15925572D02*
X11869485Y-15982715D01*
X11869485Y-15982715D02*
X11859962Y-16001762D01*
X11859962Y-16001762D02*
X11850438Y-16011286D01*
X11850438Y-16011286D02*
X11831390Y-16020810D01*
X11831390Y-16020810D02*
X11802819Y-16020810D01*
X11983771Y-16020810D02*
X11964724Y-16011286D01*
X11964724Y-16011286D02*
X11955200Y-15992238D01*
X11955200Y-15992238D02*
X11955200Y-15820810D01*
X12136152Y-16011286D02*
X12117105Y-16020810D01*
X12117105Y-16020810D02*
X12079009Y-16020810D01*
X12079009Y-16020810D02*
X12059962Y-16011286D01*
X12059962Y-16011286D02*
X12050438Y-15992238D01*
X12050438Y-15992238D02*
X12050438Y-15916048D01*
X12050438Y-15916048D02*
X12059962Y-15897000D01*
X12059962Y-15897000D02*
X12079009Y-15887476D01*
X12079009Y-15887476D02*
X12117105Y-15887476D01*
X12117105Y-15887476D02*
X12136152Y-15897000D01*
X12136152Y-15897000D02*
X12145676Y-15916048D01*
X12145676Y-15916048D02*
X12145676Y-15935096D01*
X12145676Y-15935096D02*
X12050438Y-15954143D01*
X12221866Y-16011286D02*
X12240914Y-16020810D01*
X12240914Y-16020810D02*
X12279009Y-16020810D01*
X12279009Y-16020810D02*
X12298057Y-16011286D01*
X12298057Y-16011286D02*
X12307581Y-15992238D01*
X12307581Y-15992238D02*
X12307581Y-15982715D01*
X12307581Y-15982715D02*
X12298057Y-15963667D01*
X12298057Y-15963667D02*
X12279009Y-15954143D01*
X12279009Y-15954143D02*
X12250438Y-15954143D01*
X12250438Y-15954143D02*
X12231390Y-15944619D01*
X12231390Y-15944619D02*
X12221866Y-15925572D01*
X12221866Y-15925572D02*
X12221866Y-15916048D01*
X12221866Y-15916048D02*
X12231390Y-15897000D01*
X12231390Y-15897000D02*
X12250438Y-15887476D01*
X12250438Y-15887476D02*
X12279009Y-15887476D01*
X12279009Y-15887476D02*
X12298057Y-15897000D01*
X12374247Y-16097000D02*
X12383771Y-16087476D01*
X12383771Y-16087476D02*
X12402819Y-16058905D01*
X12402819Y-16058905D02*
X12412343Y-16039857D01*
X12412343Y-16039857D02*
X12421866Y-16011286D01*
X12421866Y-16011286D02*
X12431390Y-15963667D01*
X12431390Y-15963667D02*
X12431390Y-15925572D01*
X12431390Y-15925572D02*
X12421866Y-15877953D01*
X12421866Y-15877953D02*
X12412343Y-15849381D01*
X12412343Y-15849381D02*
X12402819Y-15830334D01*
X12402819Y-15830334D02*
X12383771Y-15801762D01*
X12383771Y-15801762D02*
X12374247Y-15792238D01*
D14*
X7388206Y-16242824D02*
X7388206Y-16143828D01*
X7289210Y-16143828D01*
X7289210Y-16242824D01*
X7388206Y-16242824D01*
D11*
X7774247Y-16284810D02*
X7659961Y-16284810D01*
X7717104Y-16284810D02*
X7717104Y-16084810D01*
X7717104Y-16084810D02*
X7698056Y-16113381D01*
X7698056Y-16113381D02*
X7679009Y-16132429D01*
X7679009Y-16132429D02*
X7659961Y-16141953D01*
X7859961Y-16265762D02*
X7869485Y-16275286D01*
X7869485Y-16275286D02*
X7859961Y-16284810D01*
X7859961Y-16284810D02*
X7850437Y-16275286D01*
X7850437Y-16275286D02*
X7859961Y-16265762D01*
X7859961Y-16265762D02*
X7859961Y-16284810D01*
X8040914Y-16151476D02*
X8040914Y-16284810D01*
X7993295Y-16075286D02*
X7945676Y-16218143D01*
X7945676Y-16218143D02*
X8069485Y-16218143D01*
X8183771Y-16084810D02*
X8202818Y-16084810D01*
X8202818Y-16084810D02*
X8221866Y-16094334D01*
X8221866Y-16094334D02*
X8231390Y-16103857D01*
X8231390Y-16103857D02*
X8240914Y-16122905D01*
X8240914Y-16122905D02*
X8250437Y-16161000D01*
X8250437Y-16161000D02*
X8250437Y-16208619D01*
X8250437Y-16208619D02*
X8240914Y-16246715D01*
X8240914Y-16246715D02*
X8231390Y-16265762D01*
X8231390Y-16265762D02*
X8221866Y-16275286D01*
X8221866Y-16275286D02*
X8202818Y-16284810D01*
X8202818Y-16284810D02*
X8183771Y-16284810D01*
X8183771Y-16284810D02*
X8164723Y-16275286D01*
X8164723Y-16275286D02*
X8155199Y-16265762D01*
X8155199Y-16265762D02*
X8145676Y-16246715D01*
X8145676Y-16246715D02*
X8136152Y-16208619D01*
X8136152Y-16208619D02*
X8136152Y-16161000D01*
X8136152Y-16161000D02*
X8145676Y-16122905D01*
X8145676Y-16122905D02*
X8155199Y-16103857D01*
X8155199Y-16103857D02*
X8164723Y-16094334D01*
X8164723Y-16094334D02*
X8183771Y-16084810D01*
X8374247Y-16084810D02*
X8393295Y-16084810D01*
X8393295Y-16084810D02*
X8412342Y-16094334D01*
X8412342Y-16094334D02*
X8421866Y-16103857D01*
X8421866Y-16103857D02*
X8431390Y-16122905D01*
X8431390Y-16122905D02*
X8440914Y-16161000D01*
X8440914Y-16161000D02*
X8440914Y-16208619D01*
X8440914Y-16208619D02*
X8431390Y-16246715D01*
X8431390Y-16246715D02*
X8421866Y-16265762D01*
X8421866Y-16265762D02*
X8412342Y-16275286D01*
X8412342Y-16275286D02*
X8393295Y-16284810D01*
X8393295Y-16284810D02*
X8374247Y-16284810D01*
X8374247Y-16284810D02*
X8355199Y-16275286D01*
X8355199Y-16275286D02*
X8345676Y-16265762D01*
X8345676Y-16265762D02*
X8336152Y-16246715D01*
X8336152Y-16246715D02*
X8326628Y-16208619D01*
X8326628Y-16208619D02*
X8326628Y-16161000D01*
X8326628Y-16161000D02*
X8336152Y-16122905D01*
X8336152Y-16122905D02*
X8345676Y-16103857D01*
X8345676Y-16103857D02*
X8355199Y-16094334D01*
X8355199Y-16094334D02*
X8374247Y-16084810D01*
X8526628Y-16284810D02*
X8526628Y-16151476D01*
X8526628Y-16170524D02*
X8536152Y-16161000D01*
X8536152Y-16161000D02*
X8555199Y-16151476D01*
X8555199Y-16151476D02*
X8583771Y-16151476D01*
X8583771Y-16151476D02*
X8602819Y-16161000D01*
X8602819Y-16161000D02*
X8612342Y-16180048D01*
X8612342Y-16180048D02*
X8612342Y-16284810D01*
X8612342Y-16180048D02*
X8621866Y-16161000D01*
X8621866Y-16161000D02*
X8640914Y-16151476D01*
X8640914Y-16151476D02*
X8669485Y-16151476D01*
X8669485Y-16151476D02*
X8688533Y-16161000D01*
X8688533Y-16161000D02*
X8698057Y-16180048D01*
X8698057Y-16180048D02*
X8698057Y-16284810D01*
X8793295Y-16284810D02*
X8793295Y-16151476D01*
X8793295Y-16170524D02*
X8802819Y-16161000D01*
X8802819Y-16161000D02*
X8821866Y-16151476D01*
X8821866Y-16151476D02*
X8850438Y-16151476D01*
X8850438Y-16151476D02*
X8869485Y-16161000D01*
X8869485Y-16161000D02*
X8879009Y-16180048D01*
X8879009Y-16180048D02*
X8879009Y-16284810D01*
X8879009Y-16180048D02*
X8888533Y-16161000D01*
X8888533Y-16161000D02*
X8907580Y-16151476D01*
X8907580Y-16151476D02*
X8936152Y-16151476D01*
X8936152Y-16151476D02*
X8955200Y-16161000D01*
X8955200Y-16161000D02*
X8964723Y-16180048D01*
X8964723Y-16180048D02*
X8964723Y-16284810D01*
X9355200Y-16075286D02*
X9183771Y-16332429D01*
X9612342Y-16084810D02*
X9631390Y-16084810D01*
X9631390Y-16084810D02*
X9650438Y-16094334D01*
X9650438Y-16094334D02*
X9659962Y-16103857D01*
X9659962Y-16103857D02*
X9669485Y-16122905D01*
X9669485Y-16122905D02*
X9679009Y-16161000D01*
X9679009Y-16161000D02*
X9679009Y-16208619D01*
X9679009Y-16208619D02*
X9669485Y-16246715D01*
X9669485Y-16246715D02*
X9659962Y-16265762D01*
X9659962Y-16265762D02*
X9650438Y-16275286D01*
X9650438Y-16275286D02*
X9631390Y-16284810D01*
X9631390Y-16284810D02*
X9612342Y-16284810D01*
X9612342Y-16284810D02*
X9593295Y-16275286D01*
X9593295Y-16275286D02*
X9583771Y-16265762D01*
X9583771Y-16265762D02*
X9574247Y-16246715D01*
X9574247Y-16246715D02*
X9564723Y-16208619D01*
X9564723Y-16208619D02*
X9564723Y-16161000D01*
X9564723Y-16161000D02*
X9574247Y-16122905D01*
X9574247Y-16122905D02*
X9583771Y-16103857D01*
X9583771Y-16103857D02*
X9593295Y-16094334D01*
X9593295Y-16094334D02*
X9612342Y-16084810D01*
X9764723Y-16265762D02*
X9774247Y-16275286D01*
X9774247Y-16275286D02*
X9764723Y-16284810D01*
X9764723Y-16284810D02*
X9755200Y-16275286D01*
X9755200Y-16275286D02*
X9764723Y-16265762D01*
X9764723Y-16265762D02*
X9764723Y-16284810D01*
X9898057Y-16084810D02*
X9917104Y-16084810D01*
X9917104Y-16084810D02*
X9936152Y-16094334D01*
X9936152Y-16094334D02*
X9945676Y-16103857D01*
X9945676Y-16103857D02*
X9955200Y-16122905D01*
X9955200Y-16122905D02*
X9964723Y-16161000D01*
X9964723Y-16161000D02*
X9964723Y-16208619D01*
X9964723Y-16208619D02*
X9955200Y-16246715D01*
X9955200Y-16246715D02*
X9945676Y-16265762D01*
X9945676Y-16265762D02*
X9936152Y-16275286D01*
X9936152Y-16275286D02*
X9917104Y-16284810D01*
X9917104Y-16284810D02*
X9898057Y-16284810D01*
X9898057Y-16284810D02*
X9879009Y-16275286D01*
X9879009Y-16275286D02*
X9869485Y-16265762D01*
X9869485Y-16265762D02*
X9859962Y-16246715D01*
X9859962Y-16246715D02*
X9850438Y-16208619D01*
X9850438Y-16208619D02*
X9850438Y-16161000D01*
X9850438Y-16161000D02*
X9859962Y-16122905D01*
X9859962Y-16122905D02*
X9869485Y-16103857D01*
X9869485Y-16103857D02*
X9879009Y-16094334D01*
X9879009Y-16094334D02*
X9898057Y-16084810D01*
X10145676Y-16084810D02*
X10050438Y-16084810D01*
X10050438Y-16084810D02*
X10040914Y-16180048D01*
X10040914Y-16180048D02*
X10050438Y-16170524D01*
X10050438Y-16170524D02*
X10069485Y-16161000D01*
X10069485Y-16161000D02*
X10117104Y-16161000D01*
X10117104Y-16161000D02*
X10136152Y-16170524D01*
X10136152Y-16170524D02*
X10145676Y-16180048D01*
X10145676Y-16180048D02*
X10155200Y-16199096D01*
X10155200Y-16199096D02*
X10155200Y-16246715D01*
X10155200Y-16246715D02*
X10145676Y-16265762D01*
X10145676Y-16265762D02*
X10136152Y-16275286D01*
X10136152Y-16275286D02*
X10117104Y-16284810D01*
X10117104Y-16284810D02*
X10069485Y-16284810D01*
X10069485Y-16284810D02*
X10050438Y-16275286D01*
X10050438Y-16275286D02*
X10040914Y-16265762D01*
X10336152Y-16084810D02*
X10240914Y-16084810D01*
X10240914Y-16084810D02*
X10231390Y-16180048D01*
X10231390Y-16180048D02*
X10240914Y-16170524D01*
X10240914Y-16170524D02*
X10259962Y-16161000D01*
X10259962Y-16161000D02*
X10307581Y-16161000D01*
X10307581Y-16161000D02*
X10326628Y-16170524D01*
X10326628Y-16170524D02*
X10336152Y-16180048D01*
X10336152Y-16180048D02*
X10345676Y-16199096D01*
X10345676Y-16199096D02*
X10345676Y-16246715D01*
X10345676Y-16246715D02*
X10336152Y-16265762D01*
X10336152Y-16265762D02*
X10326628Y-16275286D01*
X10326628Y-16275286D02*
X10307581Y-16284810D01*
X10307581Y-16284810D02*
X10259962Y-16284810D01*
X10259962Y-16284810D02*
X10240914Y-16275286D01*
X10240914Y-16275286D02*
X10231390Y-16265762D01*
X10536152Y-16284810D02*
X10421866Y-16284810D01*
X10479009Y-16284810D02*
X10479009Y-16084810D01*
X10479009Y-16084810D02*
X10459962Y-16113381D01*
X10459962Y-16113381D02*
X10440914Y-16132429D01*
X10440914Y-16132429D02*
X10421866Y-16141953D01*
X10612343Y-16084810D02*
X10612343Y-16122905D01*
X10688533Y-16084810D02*
X10688533Y-16122905D01*
X10983771Y-16361000D02*
X10974247Y-16351476D01*
X10974247Y-16351476D02*
X10955200Y-16322905D01*
X10955200Y-16322905D02*
X10945676Y-16303857D01*
X10945676Y-16303857D02*
X10936152Y-16275286D01*
X10936152Y-16275286D02*
X10926628Y-16227667D01*
X10926628Y-16227667D02*
X10926628Y-16189572D01*
X10926628Y-16189572D02*
X10936152Y-16141953D01*
X10936152Y-16141953D02*
X10945676Y-16113381D01*
X10945676Y-16113381D02*
X10955200Y-16094334D01*
X10955200Y-16094334D02*
X10974247Y-16065762D01*
X10974247Y-16065762D02*
X10983771Y-16056238D01*
X11088533Y-16170524D02*
X11069485Y-16161000D01*
X11069485Y-16161000D02*
X11059962Y-16151476D01*
X11059962Y-16151476D02*
X11050438Y-16132429D01*
X11050438Y-16132429D02*
X11050438Y-16122905D01*
X11050438Y-16122905D02*
X11059962Y-16103857D01*
X11059962Y-16103857D02*
X11069485Y-16094334D01*
X11069485Y-16094334D02*
X11088533Y-16084810D01*
X11088533Y-16084810D02*
X11126628Y-16084810D01*
X11126628Y-16084810D02*
X11145676Y-16094334D01*
X11145676Y-16094334D02*
X11155200Y-16103857D01*
X11155200Y-16103857D02*
X11164724Y-16122905D01*
X11164724Y-16122905D02*
X11164724Y-16132429D01*
X11164724Y-16132429D02*
X11155200Y-16151476D01*
X11155200Y-16151476D02*
X11145676Y-16161000D01*
X11145676Y-16161000D02*
X11126628Y-16170524D01*
X11126628Y-16170524D02*
X11088533Y-16170524D01*
X11088533Y-16170524D02*
X11069485Y-16180048D01*
X11069485Y-16180048D02*
X11059962Y-16189572D01*
X11059962Y-16189572D02*
X11050438Y-16208619D01*
X11050438Y-16208619D02*
X11050438Y-16246715D01*
X11050438Y-16246715D02*
X11059962Y-16265762D01*
X11059962Y-16265762D02*
X11069485Y-16275286D01*
X11069485Y-16275286D02*
X11088533Y-16284810D01*
X11088533Y-16284810D02*
X11126628Y-16284810D01*
X11126628Y-16284810D02*
X11145676Y-16275286D01*
X11145676Y-16275286D02*
X11155200Y-16265762D01*
X11155200Y-16265762D02*
X11164724Y-16246715D01*
X11164724Y-16246715D02*
X11164724Y-16208619D01*
X11164724Y-16208619D02*
X11155200Y-16189572D01*
X11155200Y-16189572D02*
X11145676Y-16180048D01*
X11145676Y-16180048D02*
X11126628Y-16170524D01*
X11402819Y-16284810D02*
X11402819Y-16084810D01*
X11488533Y-16284810D02*
X11488533Y-16180048D01*
X11488533Y-16180048D02*
X11479009Y-16161000D01*
X11479009Y-16161000D02*
X11459962Y-16151476D01*
X11459962Y-16151476D02*
X11431390Y-16151476D01*
X11431390Y-16151476D02*
X11412343Y-16161000D01*
X11412343Y-16161000D02*
X11402819Y-16170524D01*
X11612343Y-16284810D02*
X11593295Y-16275286D01*
X11593295Y-16275286D02*
X11583771Y-16265762D01*
X11583771Y-16265762D02*
X11574247Y-16246715D01*
X11574247Y-16246715D02*
X11574247Y-16189572D01*
X11574247Y-16189572D02*
X11583771Y-16170524D01*
X11583771Y-16170524D02*
X11593295Y-16161000D01*
X11593295Y-16161000D02*
X11612343Y-16151476D01*
X11612343Y-16151476D02*
X11640914Y-16151476D01*
X11640914Y-16151476D02*
X11659962Y-16161000D01*
X11659962Y-16161000D02*
X11669485Y-16170524D01*
X11669485Y-16170524D02*
X11679009Y-16189572D01*
X11679009Y-16189572D02*
X11679009Y-16246715D01*
X11679009Y-16246715D02*
X11669485Y-16265762D01*
X11669485Y-16265762D02*
X11659962Y-16275286D01*
X11659962Y-16275286D02*
X11640914Y-16284810D01*
X11640914Y-16284810D02*
X11612343Y-16284810D01*
X11793295Y-16284810D02*
X11774247Y-16275286D01*
X11774247Y-16275286D02*
X11764724Y-16256238D01*
X11764724Y-16256238D02*
X11764724Y-16084810D01*
X11945676Y-16275286D02*
X11926628Y-16284810D01*
X11926628Y-16284810D02*
X11888533Y-16284810D01*
X11888533Y-16284810D02*
X11869485Y-16275286D01*
X11869485Y-16275286D02*
X11859962Y-16256238D01*
X11859962Y-16256238D02*
X11859962Y-16180048D01*
X11859962Y-16180048D02*
X11869485Y-16161000D01*
X11869485Y-16161000D02*
X11888533Y-16151476D01*
X11888533Y-16151476D02*
X11926628Y-16151476D01*
X11926628Y-16151476D02*
X11945676Y-16161000D01*
X11945676Y-16161000D02*
X11955200Y-16180048D01*
X11955200Y-16180048D02*
X11955200Y-16199096D01*
X11955200Y-16199096D02*
X11859962Y-16218143D01*
X12031390Y-16275286D02*
X12050438Y-16284810D01*
X12050438Y-16284810D02*
X12088533Y-16284810D01*
X12088533Y-16284810D02*
X12107581Y-16275286D01*
X12107581Y-16275286D02*
X12117105Y-16256238D01*
X12117105Y-16256238D02*
X12117105Y-16246715D01*
X12117105Y-16246715D02*
X12107581Y-16227667D01*
X12107581Y-16227667D02*
X12088533Y-16218143D01*
X12088533Y-16218143D02*
X12059962Y-16218143D01*
X12059962Y-16218143D02*
X12040914Y-16208619D01*
X12040914Y-16208619D02*
X12031390Y-16189572D01*
X12031390Y-16189572D02*
X12031390Y-16180048D01*
X12031390Y-16180048D02*
X12040914Y-16161000D01*
X12040914Y-16161000D02*
X12059962Y-16151476D01*
X12059962Y-16151476D02*
X12088533Y-16151476D01*
X12088533Y-16151476D02*
X12107581Y-16161000D01*
X12183771Y-16361000D02*
X12193295Y-16351476D01*
X12193295Y-16351476D02*
X12212343Y-16322905D01*
X12212343Y-16322905D02*
X12221866Y-16303857D01*
X12221866Y-16303857D02*
X12231390Y-16275286D01*
X12231390Y-16275286D02*
X12240914Y-16227667D01*
X12240914Y-16227667D02*
X12240914Y-16189572D01*
X12240914Y-16189572D02*
X12231390Y-16141953D01*
X12231390Y-16141953D02*
X12221866Y-16113381D01*
X12221866Y-16113381D02*
X12212343Y-16094334D01*
X12212343Y-16094334D02*
X12193295Y-16065762D01*
X12193295Y-16065762D02*
X12183771Y-16056238D01*
X7308708Y-16557326D02*
X7408708Y-16457326D01*
X7308708Y-16357326D01*
X7208708Y-16457326D01*
X7308708Y-16557326D01*
X7650437Y-16348810D02*
X7774247Y-16348810D01*
X7774247Y-16348810D02*
X7707580Y-16425000D01*
X7707580Y-16425000D02*
X7736152Y-16425000D01*
X7736152Y-16425000D02*
X7755199Y-16434524D01*
X7755199Y-16434524D02*
X7764723Y-16444048D01*
X7764723Y-16444048D02*
X7774247Y-16463096D01*
X7774247Y-16463096D02*
X7774247Y-16510715D01*
X7774247Y-16510715D02*
X7764723Y-16529762D01*
X7764723Y-16529762D02*
X7755199Y-16539286D01*
X7755199Y-16539286D02*
X7736152Y-16548810D01*
X7736152Y-16548810D02*
X7679009Y-16548810D01*
X7679009Y-16548810D02*
X7659961Y-16539286D01*
X7659961Y-16539286D02*
X7650437Y-16529762D01*
X7859961Y-16529762D02*
X7869485Y-16539286D01*
X7869485Y-16539286D02*
X7859961Y-16548810D01*
X7859961Y-16548810D02*
X7850437Y-16539286D01*
X7850437Y-16539286D02*
X7859961Y-16529762D01*
X7859961Y-16529762D02*
X7859961Y-16548810D01*
X7945676Y-16367857D02*
X7955199Y-16358334D01*
X7955199Y-16358334D02*
X7974247Y-16348810D01*
X7974247Y-16348810D02*
X8021866Y-16348810D01*
X8021866Y-16348810D02*
X8040914Y-16358334D01*
X8040914Y-16358334D02*
X8050437Y-16367857D01*
X8050437Y-16367857D02*
X8059961Y-16386905D01*
X8059961Y-16386905D02*
X8059961Y-16405953D01*
X8059961Y-16405953D02*
X8050437Y-16434524D01*
X8050437Y-16434524D02*
X7936152Y-16548810D01*
X7936152Y-16548810D02*
X8059961Y-16548810D01*
X8183771Y-16348810D02*
X8202818Y-16348810D01*
X8202818Y-16348810D02*
X8221866Y-16358334D01*
X8221866Y-16358334D02*
X8231390Y-16367857D01*
X8231390Y-16367857D02*
X8240914Y-16386905D01*
X8240914Y-16386905D02*
X8250437Y-16425000D01*
X8250437Y-16425000D02*
X8250437Y-16472619D01*
X8250437Y-16472619D02*
X8240914Y-16510715D01*
X8240914Y-16510715D02*
X8231390Y-16529762D01*
X8231390Y-16529762D02*
X8221866Y-16539286D01*
X8221866Y-16539286D02*
X8202818Y-16548810D01*
X8202818Y-16548810D02*
X8183771Y-16548810D01*
X8183771Y-16548810D02*
X8164723Y-16539286D01*
X8164723Y-16539286D02*
X8155199Y-16529762D01*
X8155199Y-16529762D02*
X8145676Y-16510715D01*
X8145676Y-16510715D02*
X8136152Y-16472619D01*
X8136152Y-16472619D02*
X8136152Y-16425000D01*
X8136152Y-16425000D02*
X8145676Y-16386905D01*
X8145676Y-16386905D02*
X8155199Y-16367857D01*
X8155199Y-16367857D02*
X8164723Y-16358334D01*
X8164723Y-16358334D02*
X8183771Y-16348810D01*
X8374247Y-16348810D02*
X8393295Y-16348810D01*
X8393295Y-16348810D02*
X8412342Y-16358334D01*
X8412342Y-16358334D02*
X8421866Y-16367857D01*
X8421866Y-16367857D02*
X8431390Y-16386905D01*
X8431390Y-16386905D02*
X8440914Y-16425000D01*
X8440914Y-16425000D02*
X8440914Y-16472619D01*
X8440914Y-16472619D02*
X8431390Y-16510715D01*
X8431390Y-16510715D02*
X8421866Y-16529762D01*
X8421866Y-16529762D02*
X8412342Y-16539286D01*
X8412342Y-16539286D02*
X8393295Y-16548810D01*
X8393295Y-16548810D02*
X8374247Y-16548810D01*
X8374247Y-16548810D02*
X8355199Y-16539286D01*
X8355199Y-16539286D02*
X8345676Y-16529762D01*
X8345676Y-16529762D02*
X8336152Y-16510715D01*
X8336152Y-16510715D02*
X8326628Y-16472619D01*
X8326628Y-16472619D02*
X8326628Y-16425000D01*
X8326628Y-16425000D02*
X8336152Y-16386905D01*
X8336152Y-16386905D02*
X8345676Y-16367857D01*
X8345676Y-16367857D02*
X8355199Y-16358334D01*
X8355199Y-16358334D02*
X8374247Y-16348810D01*
X8526628Y-16548810D02*
X8526628Y-16415476D01*
X8526628Y-16434524D02*
X8536152Y-16425000D01*
X8536152Y-16425000D02*
X8555199Y-16415476D01*
X8555199Y-16415476D02*
X8583771Y-16415476D01*
X8583771Y-16415476D02*
X8602819Y-16425000D01*
X8602819Y-16425000D02*
X8612342Y-16444048D01*
X8612342Y-16444048D02*
X8612342Y-16548810D01*
X8612342Y-16444048D02*
X8621866Y-16425000D01*
X8621866Y-16425000D02*
X8640914Y-16415476D01*
X8640914Y-16415476D02*
X8669485Y-16415476D01*
X8669485Y-16415476D02*
X8688533Y-16425000D01*
X8688533Y-16425000D02*
X8698057Y-16444048D01*
X8698057Y-16444048D02*
X8698057Y-16548810D01*
X8793295Y-16548810D02*
X8793295Y-16415476D01*
X8793295Y-16434524D02*
X8802819Y-16425000D01*
X8802819Y-16425000D02*
X8821866Y-16415476D01*
X8821866Y-16415476D02*
X8850438Y-16415476D01*
X8850438Y-16415476D02*
X8869485Y-16425000D01*
X8869485Y-16425000D02*
X8879009Y-16444048D01*
X8879009Y-16444048D02*
X8879009Y-16548810D01*
X8879009Y-16444048D02*
X8888533Y-16425000D01*
X8888533Y-16425000D02*
X8907580Y-16415476D01*
X8907580Y-16415476D02*
X8936152Y-16415476D01*
X8936152Y-16415476D02*
X8955200Y-16425000D01*
X8955200Y-16425000D02*
X8964723Y-16444048D01*
X8964723Y-16444048D02*
X8964723Y-16548810D01*
X9355200Y-16339286D02*
X9183771Y-16596429D01*
X9612342Y-16348810D02*
X9631390Y-16348810D01*
X9631390Y-16348810D02*
X9650438Y-16358334D01*
X9650438Y-16358334D02*
X9659962Y-16367857D01*
X9659962Y-16367857D02*
X9669485Y-16386905D01*
X9669485Y-16386905D02*
X9679009Y-16425000D01*
X9679009Y-16425000D02*
X9679009Y-16472619D01*
X9679009Y-16472619D02*
X9669485Y-16510715D01*
X9669485Y-16510715D02*
X9659962Y-16529762D01*
X9659962Y-16529762D02*
X9650438Y-16539286D01*
X9650438Y-16539286D02*
X9631390Y-16548810D01*
X9631390Y-16548810D02*
X9612342Y-16548810D01*
X9612342Y-16548810D02*
X9593295Y-16539286D01*
X9593295Y-16539286D02*
X9583771Y-16529762D01*
X9583771Y-16529762D02*
X9574247Y-16510715D01*
X9574247Y-16510715D02*
X9564723Y-16472619D01*
X9564723Y-16472619D02*
X9564723Y-16425000D01*
X9564723Y-16425000D02*
X9574247Y-16386905D01*
X9574247Y-16386905D02*
X9583771Y-16367857D01*
X9583771Y-16367857D02*
X9593295Y-16358334D01*
X9593295Y-16358334D02*
X9612342Y-16348810D01*
X9764723Y-16529762D02*
X9774247Y-16539286D01*
X9774247Y-16539286D02*
X9764723Y-16548810D01*
X9764723Y-16548810D02*
X9755200Y-16539286D01*
X9755200Y-16539286D02*
X9764723Y-16529762D01*
X9764723Y-16529762D02*
X9764723Y-16548810D01*
X9964723Y-16548810D02*
X9850438Y-16548810D01*
X9907581Y-16548810D02*
X9907581Y-16348810D01*
X9907581Y-16348810D02*
X9888533Y-16377381D01*
X9888533Y-16377381D02*
X9869485Y-16396429D01*
X9869485Y-16396429D02*
X9850438Y-16405953D01*
X10040914Y-16367857D02*
X10050438Y-16358334D01*
X10050438Y-16358334D02*
X10069485Y-16348810D01*
X10069485Y-16348810D02*
X10117104Y-16348810D01*
X10117104Y-16348810D02*
X10136152Y-16358334D01*
X10136152Y-16358334D02*
X10145676Y-16367857D01*
X10145676Y-16367857D02*
X10155200Y-16386905D01*
X10155200Y-16386905D02*
X10155200Y-16405953D01*
X10155200Y-16405953D02*
X10145676Y-16434524D01*
X10145676Y-16434524D02*
X10031390Y-16548810D01*
X10031390Y-16548810D02*
X10155200Y-16548810D01*
X10326628Y-16348810D02*
X10288533Y-16348810D01*
X10288533Y-16348810D02*
X10269485Y-16358334D01*
X10269485Y-16358334D02*
X10259962Y-16367857D01*
X10259962Y-16367857D02*
X10240914Y-16396429D01*
X10240914Y-16396429D02*
X10231390Y-16434524D01*
X10231390Y-16434524D02*
X10231390Y-16510715D01*
X10231390Y-16510715D02*
X10240914Y-16529762D01*
X10240914Y-16529762D02*
X10250438Y-16539286D01*
X10250438Y-16539286D02*
X10269485Y-16548810D01*
X10269485Y-16548810D02*
X10307581Y-16548810D01*
X10307581Y-16548810D02*
X10326628Y-16539286D01*
X10326628Y-16539286D02*
X10336152Y-16529762D01*
X10336152Y-16529762D02*
X10345676Y-16510715D01*
X10345676Y-16510715D02*
X10345676Y-16463096D01*
X10345676Y-16463096D02*
X10336152Y-16444048D01*
X10336152Y-16444048D02*
X10326628Y-16434524D01*
X10326628Y-16434524D02*
X10307581Y-16425000D01*
X10307581Y-16425000D02*
X10269485Y-16425000D01*
X10269485Y-16425000D02*
X10250438Y-16434524D01*
X10250438Y-16434524D02*
X10240914Y-16444048D01*
X10240914Y-16444048D02*
X10231390Y-16463096D01*
X10469485Y-16348810D02*
X10488533Y-16348810D01*
X10488533Y-16348810D02*
X10507581Y-16358334D01*
X10507581Y-16358334D02*
X10517104Y-16367857D01*
X10517104Y-16367857D02*
X10526628Y-16386905D01*
X10526628Y-16386905D02*
X10536152Y-16425000D01*
X10536152Y-16425000D02*
X10536152Y-16472619D01*
X10536152Y-16472619D02*
X10526628Y-16510715D01*
X10526628Y-16510715D02*
X10517104Y-16529762D01*
X10517104Y-16529762D02*
X10507581Y-16539286D01*
X10507581Y-16539286D02*
X10488533Y-16548810D01*
X10488533Y-16548810D02*
X10469485Y-16548810D01*
X10469485Y-16548810D02*
X10450438Y-16539286D01*
X10450438Y-16539286D02*
X10440914Y-16529762D01*
X10440914Y-16529762D02*
X10431390Y-16510715D01*
X10431390Y-16510715D02*
X10421866Y-16472619D01*
X10421866Y-16472619D02*
X10421866Y-16425000D01*
X10421866Y-16425000D02*
X10431390Y-16386905D01*
X10431390Y-16386905D02*
X10440914Y-16367857D01*
X10440914Y-16367857D02*
X10450438Y-16358334D01*
X10450438Y-16358334D02*
X10469485Y-16348810D01*
X10612343Y-16348810D02*
X10612343Y-16386905D01*
X10688533Y-16348810D02*
X10688533Y-16386905D01*
X10983771Y-16625000D02*
X10974247Y-16615476D01*
X10974247Y-16615476D02*
X10955200Y-16586905D01*
X10955200Y-16586905D02*
X10945676Y-16567857D01*
X10945676Y-16567857D02*
X10936152Y-16539286D01*
X10936152Y-16539286D02*
X10926628Y-16491667D01*
X10926628Y-16491667D02*
X10926628Y-16453572D01*
X10926628Y-16453572D02*
X10936152Y-16405953D01*
X10936152Y-16405953D02*
X10945676Y-16377381D01*
X10945676Y-16377381D02*
X10955200Y-16358334D01*
X10955200Y-16358334D02*
X10974247Y-16329762D01*
X10974247Y-16329762D02*
X10983771Y-16320238D01*
X11145676Y-16415476D02*
X11145676Y-16548810D01*
X11098057Y-16339286D02*
X11050438Y-16482143D01*
X11050438Y-16482143D02*
X11174247Y-16482143D01*
X11402819Y-16548810D02*
X11402819Y-16348810D01*
X11488533Y-16548810D02*
X11488533Y-16444048D01*
X11488533Y-16444048D02*
X11479009Y-16425000D01*
X11479009Y-16425000D02*
X11459962Y-16415476D01*
X11459962Y-16415476D02*
X11431390Y-16415476D01*
X11431390Y-16415476D02*
X11412343Y-16425000D01*
X11412343Y-16425000D02*
X11402819Y-16434524D01*
X11612343Y-16548810D02*
X11593295Y-16539286D01*
X11593295Y-16539286D02*
X11583771Y-16529762D01*
X11583771Y-16529762D02*
X11574247Y-16510715D01*
X11574247Y-16510715D02*
X11574247Y-16453572D01*
X11574247Y-16453572D02*
X11583771Y-16434524D01*
X11583771Y-16434524D02*
X11593295Y-16425000D01*
X11593295Y-16425000D02*
X11612343Y-16415476D01*
X11612343Y-16415476D02*
X11640914Y-16415476D01*
X11640914Y-16415476D02*
X11659962Y-16425000D01*
X11659962Y-16425000D02*
X11669485Y-16434524D01*
X11669485Y-16434524D02*
X11679009Y-16453572D01*
X11679009Y-16453572D02*
X11679009Y-16510715D01*
X11679009Y-16510715D02*
X11669485Y-16529762D01*
X11669485Y-16529762D02*
X11659962Y-16539286D01*
X11659962Y-16539286D02*
X11640914Y-16548810D01*
X11640914Y-16548810D02*
X11612343Y-16548810D01*
X11793295Y-16548810D02*
X11774247Y-16539286D01*
X11774247Y-16539286D02*
X11764724Y-16520238D01*
X11764724Y-16520238D02*
X11764724Y-16348810D01*
X11945676Y-16539286D02*
X11926628Y-16548810D01*
X11926628Y-16548810D02*
X11888533Y-16548810D01*
X11888533Y-16548810D02*
X11869485Y-16539286D01*
X11869485Y-16539286D02*
X11859962Y-16520238D01*
X11859962Y-16520238D02*
X11859962Y-16444048D01*
X11859962Y-16444048D02*
X11869485Y-16425000D01*
X11869485Y-16425000D02*
X11888533Y-16415476D01*
X11888533Y-16415476D02*
X11926628Y-16415476D01*
X11926628Y-16415476D02*
X11945676Y-16425000D01*
X11945676Y-16425000D02*
X11955200Y-16444048D01*
X11955200Y-16444048D02*
X11955200Y-16463096D01*
X11955200Y-16463096D02*
X11859962Y-16482143D01*
X12031390Y-16539286D02*
X12050438Y-16548810D01*
X12050438Y-16548810D02*
X12088533Y-16548810D01*
X12088533Y-16548810D02*
X12107581Y-16539286D01*
X12107581Y-16539286D02*
X12117105Y-16520238D01*
X12117105Y-16520238D02*
X12117105Y-16510715D01*
X12117105Y-16510715D02*
X12107581Y-16491667D01*
X12107581Y-16491667D02*
X12088533Y-16482143D01*
X12088533Y-16482143D02*
X12059962Y-16482143D01*
X12059962Y-16482143D02*
X12040914Y-16472619D01*
X12040914Y-16472619D02*
X12031390Y-16453572D01*
X12031390Y-16453572D02*
X12031390Y-16444048D01*
X12031390Y-16444048D02*
X12040914Y-16425000D01*
X12040914Y-16425000D02*
X12059962Y-16415476D01*
X12059962Y-16415476D02*
X12088533Y-16415476D01*
X12088533Y-16415476D02*
X12107581Y-16425000D01*
X12183771Y-16625000D02*
X12193295Y-16615476D01*
X12193295Y-16615476D02*
X12212343Y-16586905D01*
X12212343Y-16586905D02*
X12221866Y-16567857D01*
X12221866Y-16567857D02*
X12231390Y-16539286D01*
X12231390Y-16539286D02*
X12240914Y-16491667D01*
X12240914Y-16491667D02*
X12240914Y-16453572D01*
X12240914Y-16453572D02*
X12231390Y-16405953D01*
X12231390Y-16405953D02*
X12221866Y-16377381D01*
X12221866Y-16377381D02*
X12212343Y-16358334D01*
X12212343Y-16358334D02*
X12193295Y-16329762D01*
X12193295Y-16329762D02*
X12183771Y-16320238D01*
M02*
