M48
; DRILL file {KiCad 9.0.5} date 2025-12-28T20:00:32-0600
; FORMAT={-:-/ absolute / metric / decimal}
; #@! TF.CreationDate,2025-12-28T20:00:32-06:00
; #@! TF.GenerationSoftware,Kicad,Pcbnew,9.0.5
; #@! TF.FileFunction,Plated,1,4,PTH
FMAT,2
METRIC
; #@! TA.AperFunction,Plated,PTH,ViaDrill
T1C0.300
; #@! TA.AperFunction,Plated,PTH,ComponentDrill
T2C0.500
; #@! TA.AperFunction,Plated,PTH,ComponentDrill
T3C1.400
; #@! TA.AperFunction,Plated,PTH,ComponentDrill
T4C3.200
%
G90
G05
T1
X77.652Y-75.654
X77.652Y-78.448
X77.652Y-81.75
X78.998Y-67.903
X79.048Y-65.853
X79.348Y-92.253
X79.398Y-90.203
X79.998Y-108.509
X79.998Y-111.303
X80.086Y-113.868
X80.086Y-116.662
X80.086Y-119.964
X80.086Y-123.266
X80.086Y-126.314
X80.086Y-129.108
X80.086Y-132.41
X80.086Y-135.712
X80.954Y-75.654
X80.954Y-78.448
X80.954Y-81.75
X82.702Y-67.95
X82.752Y-65.9
X83.052Y-92.3
X83.102Y-90.25
X83.702Y-108.556
X83.702Y-111.35
X83.79Y-113.915
X83.79Y-116.709
X83.79Y-120.011
X83.79Y-123.313
X83.79Y-126.361
X83.79Y-129.155
X83.79Y-132.457
X83.79Y-135.759
X84.002Y-75.654
X84.002Y-78.448
X84.002Y-81.75
X85.748Y-141.605
X85.748Y-144.653
X86.004Y-67.95
X86.054Y-65.9
X86.354Y-92.3
X86.404Y-90.25
X87.004Y-108.556
X87.004Y-111.35
X87.05Y-75.654
X87.05Y-78.448
X87.05Y-81.75
X87.092Y-113.915
X87.092Y-116.709
X87.092Y-120.011
X87.092Y-123.313
X87.092Y-126.361
X87.092Y-129.155
X87.092Y-132.457
X87.092Y-135.759
X87.248Y-60.653
X87.298Y-58.603
X89.052Y-67.95
X89.102Y-65.9
X89.402Y-92.3
X89.452Y-90.25
X89.452Y-141.652
X89.452Y-144.7
X90.052Y-108.556
X90.052Y-111.35
X90.14Y-113.915
X90.14Y-116.709
X90.14Y-120.011
X90.14Y-123.313
X90.14Y-126.361
X90.14Y-129.155
X90.14Y-132.457
X90.14Y-135.759
X90.152Y-75.704
X90.152Y-78.498
X90.152Y-81.8
X90.952Y-60.7
X91.002Y-58.65
X92.1Y-67.95
X92.15Y-65.9
X92.45Y-92.3
X92.5Y-90.25
X92.754Y-141.652
X92.754Y-144.7
X93.1Y-108.556
X93.1Y-111.35
X93.188Y-113.915
X93.188Y-116.709
X93.188Y-120.011
X93.188Y-123.313
X93.188Y-126.361
X93.188Y-129.155
X93.188Y-132.457
X93.188Y-135.759
X93.454Y-75.704
X93.454Y-78.498
X93.454Y-81.8
X94.254Y-60.7
X94.304Y-58.65
X94.85Y-68.0
X94.9Y-65.95
X95.2Y-92.35
X95.25Y-90.3
X95.802Y-141.652
X95.802Y-144.7
X96.502Y-75.704
X96.502Y-78.498
X96.502Y-81.8
X97.302Y-60.7
X97.352Y-58.65
X98.4Y-68.05
X98.45Y-66.0
X98.65Y-94.3
X98.75Y-92.4
X98.8Y-90.35
X98.85Y-141.652
X98.85Y-144.7
X99.506Y-127.631
X99.55Y-78.498
X99.55Y-81.8
X100.35Y-60.7
X100.4Y-58.65
X100.99Y-103.937
X100.99Y-106.731
X100.99Y-110.033
X100.99Y-113.335
X100.99Y-116.383
X100.99Y-119.177
X101.062Y-127.631
X101.067Y-121.945
X101.6Y-144.75
X102.332Y-127.631
X102.75Y-68.05
X102.8Y-66.0
X103.0Y-94.3
X103.1Y-60.75
X103.1Y-92.4
X103.15Y-58.7
X103.15Y-90.35
X103.602Y-127.631
X104.152Y-78.598
X104.152Y-81.9
X104.292Y-103.937
X104.292Y-106.731
X104.292Y-110.033
X104.292Y-113.335
X104.292Y-116.383
X104.292Y-119.177
X104.369Y-121.945
X104.872Y-127.631
X104.872Y-128.647
X105.15Y-144.8
X105.85Y-67.9
X105.9Y-65.85
X106.1Y-94.15
X106.2Y-92.25
X106.25Y-90.2
X106.65Y-60.8
X106.7Y-58.75
X107.2Y-78.598
X107.2Y-81.9
X107.336Y-127.606
X107.34Y-103.937
X107.34Y-106.731
X107.34Y-110.033
X107.34Y-113.335
X107.34Y-116.383
X107.34Y-119.177
X107.417Y-121.945
X108.35Y-88.4
X108.936Y-127.631
X109.5Y-144.8
X110.206Y-127.631
X110.29Y-90.55
X110.352Y-78.448
X110.352Y-81.75
X110.388Y-103.937
X110.388Y-106.731
X110.388Y-110.033
X110.388Y-113.335
X110.388Y-116.383
X110.388Y-119.177
X110.465Y-121.945
X111.0Y-60.8
X111.05Y-58.75
X111.476Y-127.631
X111.56Y-65.18
X112.55Y-141.4
X112.6Y-144.65
X112.746Y-127.631
X112.746Y-128.647
X113.4Y-78.448
X113.4Y-81.75
X113.762Y-129.155
X113.762Y-130.171
X114.016Y-127.631
X114.1Y-60.65
X114.15Y-58.6
X115.1Y-132.7
X115.15Y-134.25
X115.286Y-127.631
X115.44Y-117.12
X115.754Y-83.144
X115.802Y-85.4
X116.556Y-127.631
X116.81Y-124.329
X117.953Y-108.454
X117.978Y-127.423
X118.426Y-113.943
X118.802Y-83.144
X118.842Y-114.931
X118.85Y-85.4
X119.223Y-131.822
X119.55Y-133.35
X119.604Y-128.393
X119.604Y-129.409
X119.858Y-122.551
X120.366Y-108.327
X120.366Y-127.631
X120.62Y-115.439
X120.748Y-60.553
X120.798Y-58.503
X121.636Y-127.631
X121.7Y-81.05
X121.702Y-83.194
X121.75Y-85.45
X122.45Y-88.35
X122.906Y-127.631
X123.033Y-132.407
X124.176Y-127.631
X124.43Y-128.647
X124.43Y-129.663
X124.452Y-60.6
X124.502Y-58.55
X124.748Y-81.05
X124.75Y-83.194
X124.798Y-85.45
X125.446Y-127.631
X125.446Y-128.647
X125.446Y-129.663
X125.602Y-144.2
X125.75Y-141.95
X127.478Y-128.901
X127.478Y-130.171
X127.478Y-131.441
X127.754Y-60.6
X127.804Y-58.55
X127.852Y-83.244
X127.9Y-85.5
X128.748Y-128.901
X128.748Y-130.171
X128.748Y-131.441
X128.904Y-144.2
X129.052Y-141.95
X130.802Y-60.6
X130.852Y-58.55
X131.152Y-81.1
X131.154Y-83.244
X131.202Y-85.5
X131.952Y-144.2
X132.1Y-141.95
X133.223Y-107.925
X133.223Y-110.465
X133.85Y-60.6
X133.9Y-58.55
X134.102Y-116.354
X134.102Y-119.148
X134.102Y-122.45
X134.14Y-91.89
X134.2Y-81.1
X134.202Y-83.244
X134.25Y-85.5
X134.844Y-128.901
X134.844Y-130.171
X134.844Y-131.441
X135.0Y-144.2
X136.114Y-128.901
X136.114Y-130.171
X136.114Y-131.441
X136.25Y-88.45
X136.6Y-60.65
X136.65Y-58.6
X136.793Y-69.577
X137.404Y-116.354
X137.404Y-119.148
X137.404Y-122.45
X137.592Y-94.539
X137.592Y-97.079
X137.592Y-99.619
X137.617Y-102.819
X137.617Y-105.359
X137.617Y-107.899
X137.617Y-110.744
X138.1Y-83.4
X138.1Y-84.45
X138.1Y-85.8
X138.452Y-70.35
X138.452Y-71.948
X138.452Y-73.5
X138.452Y-75.25
X138.952Y-126.054
X138.952Y-128.848
X138.952Y-132.15
X139.002Y-144.25
X139.252Y-135.904
X139.252Y-138.698
X139.252Y-142.0
X140.15Y-60.7
X140.2Y-58.65
X140.452Y-116.354
X140.452Y-119.148
X140.452Y-122.45
X140.614Y-94.615
X140.614Y-97.155
X140.614Y-99.695
X140.614Y-102.743
X140.614Y-105.283
X140.614Y-107.823
X140.614Y-110.668
X141.5Y-70.35
X141.5Y-71.948
X141.5Y-73.5
X141.5Y-75.25
X142.254Y-126.054
X142.254Y-128.848
X142.254Y-132.15
X142.304Y-144.25
X142.554Y-135.904
X142.554Y-138.698
X142.554Y-142.0
X143.5Y-116.354
X143.5Y-119.148
X143.5Y-122.45
X143.739Y-102.565
X143.739Y-105.105
X143.739Y-107.645
X143.739Y-110.49
X143.764Y-94.564
X143.764Y-97.104
X143.764Y-99.644
X144.5Y-60.7
X144.548Y-70.35
X144.548Y-71.948
X144.548Y-73.5
X144.548Y-75.25
X144.55Y-58.65
X145.302Y-126.054
X145.302Y-128.848
X145.302Y-132.15
X145.352Y-144.25
X145.602Y-135.904
X145.602Y-138.698
X145.602Y-142.0
X146.5Y-95.1
X147.218Y-97.079
X147.218Y-99.619
X147.295Y-102.667
X147.295Y-105.207
X147.295Y-107.747
X147.295Y-110.592
X147.6Y-60.55
X147.65Y-58.5
X147.65Y-70.4
X147.65Y-71.998
X147.65Y-73.55
X147.65Y-75.3
X148.35Y-126.054
X148.35Y-128.848
X148.35Y-132.15
X148.4Y-144.25
X148.65Y-135.904
X148.65Y-138.698
X148.65Y-142.0
X149.05Y-82.2
X149.1Y-83.65
X149.35Y-114.6
X151.587Y-102.692
X151.587Y-105.232
X151.587Y-107.772
X151.587Y-110.617
X152.004Y-134.65
X152.004Y-137.698
X152.004Y-140.746
X152.004Y-144.048
X152.652Y-114.6
X153.0Y-60.55
X153.05Y-58.5
X154.381Y-102.87
X154.381Y-105.41
X154.381Y-107.95
X154.381Y-110.795
X154.798Y-134.65
X154.798Y-137.698
X154.798Y-140.746
X154.798Y-144.048
X155.7Y-114.6
X155.75Y-60.6
X155.8Y-58.55
X156.185Y-99.543
X157.4Y-109.35
X157.846Y-114.503
X157.846Y-116.103
X158.1Y-134.65
X158.1Y-137.698
X158.1Y-140.746
X158.1Y-144.048
X159.131Y-108.483
X159.182Y-109.601
X159.207Y-101.067
X159.258Y-102.184
X159.3Y-60.65
X159.35Y-58.6
X160.68Y-108.483
X160.706Y-104.724
X160.706Y-107.112
X160.731Y-109.601
X160.757Y-101.067
X160.757Y-103.454
X160.757Y-105.842
X160.807Y-102.184
X160.9Y-131.7
X160.9Y-135.002
X160.9Y-137.796
X161.55Y-114.55
X161.55Y-116.15
X162.306Y-108.509
X162.331Y-104.75
X162.331Y-107.137
X162.357Y-109.626
X162.382Y-101.092
X162.382Y-103.48
X162.382Y-105.867
X162.433Y-102.21
X163.02Y-100.01
X163.948Y-131.7
X163.948Y-135.002
X163.948Y-137.796
X164.798Y-112.456
X164.852Y-114.55
X164.852Y-116.15
X165.45Y-82.8
X166.996Y-131.7
X166.996Y-135.002
X166.996Y-137.796
X167.9Y-114.55
X167.9Y-116.15
X168.0Y-82.8
X168.605Y-101.524
X168.608Y-112.71
T2
X76.594Y-142.588
X76.71Y-59.75
X77.297Y-140.891
X77.297Y-144.285
X77.413Y-58.053
X77.413Y-61.447
X78.994Y-140.188
X78.994Y-144.988
X79.11Y-57.35
X79.11Y-62.15
X80.691Y-140.891
X80.691Y-144.285
X80.807Y-58.053
X80.807Y-61.447
X81.394Y-142.588
X81.51Y-59.75
X162.95Y-59.75
X162.952Y-142.588
X163.653Y-58.053
X163.653Y-61.447
X163.655Y-140.891
X163.655Y-144.285
X165.35Y-57.35
X165.35Y-62.15
X165.352Y-140.188
X165.352Y-144.988
X167.047Y-58.053
X167.047Y-61.447
X167.049Y-140.891
X167.049Y-144.285
X167.75Y-59.75
X167.752Y-142.588
T3
X83.45Y-98.4
X83.45Y-103.48
X92.15Y-98.4
X92.15Y-103.48
X152.54Y-88.09
X152.54Y-93.17
X152.55Y-71.47
X152.55Y-76.55
X152.63Y-121.22
X152.63Y-126.3
X161.24Y-88.09
X161.24Y-93.17
X161.25Y-71.47
X161.25Y-76.55
X161.33Y-121.22
X161.33Y-126.3
T4
X78.994Y-142.588
X79.11Y-59.75
X165.35Y-59.75
X165.352Y-142.588
M30
