#VRML V2.0 utf8
# META "generator" "CAD Exchanger 3.8.1 (cadexchanger.com)"
DEF __1 Transform {
  children [
    DEF __2 Group {
      children [
        DEF DS18B20+ Group {
          children [
            DEF DS18B20+_1 Shape {
              appearance DEF __5 Appearance {
                material DEF __6 Material {
                  ambientIntensity 1
                  diffuseColor 0.101960785687 0.101960785687 0.101960785687
                  shininess 0
                }
              }
              geometry DEF __7 IndexedFaceSet {
                solid FALSE
                coord Coordinate {
                  point [
                    0.00179365723378 0.00128521181384 0.00533,
                    -0.00401591913854 0.00128521181384 0.00533,
                    0.00179365723378 0.00128521181384 0,
                    -0.00401591913854 0.00128521181384 0,
                    -0.00371613095238 0 0.00533,
                    -0.00371613095238 0 0,
                    0.00149386904762 0 0,
                    0.000298869047619 0.001 0,
                    -0.000101130952381 0.001 0,
                    0.000348869047619 0.00105 0,
                    0.000348869047619 0.00115 0,
                    0.000298869047619 0.0012 0,
                    -0.000101130952381 0.0012 0,
                    -0.000151130952381 0.00115 0,
                    -0.000151130952381 0.00105 0,
                    -0.000971130952381 0.001 0,
                    -0.00137113095238 0.001 0,
                    -0.000921130952381 0.00105 0,
                    -0.000921130952381 0.00115 0,
                    -0.000971130952381 0.0012 0,
                    -0.00137113095238 0.0012 0,
                    -0.00142113095238 0.00115 0,
                    -0.00142113095238 0.00105 0,
                    -0.00269113095238 0.00105 0,
                    -0.00269113095238 0.00115 0,
                    -0.00264113095238 0.001 0,
                    -0.00224113095238 0.001 0,
                    -0.00219113095238 0.00105 0,
                    -0.00219113095238 0.00115 0,
                    -0.00224113095238 0.0012 0,
                    -0.00264113095238 0.0012 0,
                    0.00149386904762 0 0.00533,
                    0.00174952697421 0.00178962298888 0.00533,
                    0.0016184770711 0.0022787078856 0.00533,
                    0.00140448940944 0.00273760590692 0.00533,
                    0.00111406589606 0.00315237366867 0.00533,
                    0.000756030902445 0.00351040866229 0.00533,
                    0.000341263140698 0.00380083217567 0.00533,
                    -0.000117634880621 0.00401481983732 0.00533,
                    -0.000606719777346 0.00414586974043 0.00533,
                    -0.00111113095238 0.00419 0.00533,
                    -0.00161554212742 0.00414586974043 0.00533,
                    -0.00210462702414 0.00401481983732 0.00533,
                    -0.00256352504546 0.00380083217567 0.00533,
                    -0.00297829280721 0.00351040866229 0.00533,
                    -0.00333632780082 0.00315237366867 0.00533,
                    -0.00362675131421 0.00273760590692 0.00533,
                    -0.00384073897586 0.0022787078856 0.00533,
                    -0.00397178887897 0.00178962298888 0.00533,
                    0.00174952697421 0.00178962298888 0,
                    0.0016184770711 0.0022787078856 0,
                    0.00140448940944 0.00273760590692 0,
                    0.00111406589606 0.00315237366867 0,
                    0.000756030902445 0.00351040866229 0,
                    0.000341263140698 0.00380083217567 0,
                    -0.000117634880621 0.00401481983732 0,
                    -0.000606719777346 0.00414586974043 0,
                    -0.00111113095238 0.00419 0,
                    -0.00161554212742 0.00414586974043 0,
                    -0.00210462702414 0.00401481983732 0,
                    -0.00256352504546 0.00380083217567 0,
                    -0.00297829280721 0.00351040866229 0,
                    -0.00333632780082 0.00315237366867 0,
                    -0.00362675131421 0.00273760590692 0,
                    -0.00384073897586 0.0022787078856 0,
                    -0.00397178887897 0.00178962298888 0,
                    -0.00398208595594 0.000843157774152 0.00533,
                    -0.00388137454425 0.000411401280503 0.00533,
                    -0.00398208595594 0.000843157774152 0,
                    -0.00388137454425 0.000411401280503 0,
                    0.00165911263948 0.000411401280503 0,
                    0.00175982405117 0.000843157774152 0,
                    0.000307551456502 0.00100075961235 0,
                    0.000315970054785 0.00100301536896 0,
                    0.000323869047619 0.00100669872981 0,
                    0.000331008428103 0.00101169777784 0,
                    0.000337171269775 0.00101786061952 0,
                    0.000342170317808 0.001025 0,
                    0.000345853678658 0.00103289899283 0,
                    0.00034810943527 0.00104131759112 0,
                    0.00034810943527 0.00115868240888 0,
                    0.000345853678658 0.00116710100717 0,
                    0.000342170317808 0.001175 0,
                    0.000337171269775 0.00118213938048 0,
                    0.000331008428103 0.00118830222216 0,
                    0.000323869047619 0.00119330127019 0,
                    0.000315970054785 0.00119698463104 0,
                    0.000307551456502 0.00119924038765 0,
                    -0.000109813361264 0.00119924038765 0,
                    -0.000118231959547 0.00119698463104 0,
                    -0.000126130952381 0.00119330127019 0,
                    -0.000133270332865 0.00118830222216 0,
                    -0.000139433174537 0.00118213938048 0,
                    -0.00014443222257 0.001175 0,
                    -0.00014811558342 0.00116710100717 0,
                    -0.000150371340032 0.00115868240888 0,
                    -0.000150515369411 0.00104217827675 0,
                    -0.000148683778196 0.00103454915028 0,
                    -0.00014568127859 0.00102730047501 0,
                    -0.0001415818021 0.00102061073739 0,
                    -0.00013648629144 0.00101464466094 0,
                    -0.000130520214996 0.00100954915028 0,
                    -0.000123830477368 0.00100544967379 0,
                    -0.0001165818021 0.00100244717419 0,
                    -0.000108952675633 0.00100061558297 0,
                    -0.000962448543498 0.00100075961235 0,
                    -0.000954029945215 0.00100301536896 0,
                    -0.000946130952381 0.00100669872981 0,
                    -0.000938991571897 0.00101169777784 0,
                    -0.000932828730225 0.00101786061952 0,
                    -0.000927829682192 0.001025 0,
                    -0.000924146321342 0.00103289899283 0,
                    -0.00092189056473 0.00104131759112 0,
                    -0.00092189056473 0.00115868240888 0,
                    -0.000924146321342 0.00116710100717 0,
                    -0.000927829682192 0.001175 0,
                    -0.000932828730225 0.00118213938048 0,
                    -0.000938991571897 0.00118830222216 0,
                    -0.000946130952381 0.00119330127019 0,
                    -0.000954029945215 0.00119698463104 0,
                    -0.000962448543498 0.00119924038765 0,
                    -0.00137981336126 0.00119924038765 0,
                    -0.00138823195955 0.00119698463104 0,
                    -0.00139613095238 0.00119330127019 0,
                    -0.00140327033287 0.00118830222216 0,
                    -0.00140943317454 0.00118213938048 0,
                    -0.00141443222257 0.001175 0,
                    -0.00141811558342 0.00116710100717 0,
                    -0.00142037134003 0.00115868240888 0,
                    -0.00142037134003 0.00104131759112 0,
                    -0.00141811558342 0.00103289899283 0,
                    -0.00141443222257 0.001025 0,
                    -0.00140943317454 0.00101786061952 0,
                    -0.00140327033287 0.00101169777784 0,
                    -0.00139613095238 0.00100669872981 0,
                    -0.00138823195955 0.00100301536896 0,
                    -0.00137981336126 0.00100075961235 0,
                    -0.00269037134003 0.00104131759112 0,
                    -0.00268811558342 0.00103289899283 0,
                    -0.00268443222257 0.001025 0,
                    -0.00267943317454 0.00101786061952 0,
                    -0.00267327033287 0.00101169777784 0,
                    -0.00266613095238 0.00100669872981 0,
                    -0.00265823195955 0.00100301536896 0,
                    -0.00264981336126 0.00100075961235 0,
                    -0.0022324485435 0.00100075961235 0,
                    -0.00222402994521 0.00100301536896 0,
                    -0.00221613095238 0.00100669872981 0,
                    -0.0022089915719 0.00101169777784 0,
                    -0.00220282873023 0.00101786061952 0,
                    -0.00219782968219 0.001025 0,
                    -0.00219414632134 0.00103289899283 0,
                    -0.00219189056473 0.00104131759112 0,
                    -0.00219189056473 0.00115868240888 0,
                    -0.00219414632134 0.00116710100717 0,
                    -0.00219782968219 0.001175 0,
                    -0.00220282873023 0.00118213938048 0,
                    -0.0022089915719 0.00118830222216 0,
                    -0.00221613095238 0.00119330127019 0,
                    -0.00222402994521 0.00119698463104 0,
                    -0.0022324485435 0.00119924038765 0,
                    -0.00264981336126 0.00119924038765 0,
                    -0.00265823195955 0.00119698463104 0,
                    -0.00266613095238 0.00119330127019 0,
                    -0.00267327033287 0.00118830222216 0,
                    -0.00267943317454 0.00118213938048 0,
                    -0.00268443222257 0.001175 0,
                    -0.00268811558342 0.00116710100717 0,
                    -0.00269037134003 0.00115868240888 0,
                    0.00165911263948 0.000411401280503 0.00533,
                    0.00175982405117 0.000843157774152 0.00533

                  ]
                }
                normal Normal {
                  vector [
                    -1 0 0,
                    -0.98480773 0.17364818 0,
                    -0.93969262 0.34202015 0,
                    -0.86602539 0.5 0,
                    -0.76604444 0.64278764 0,
                    -0.64278764 0.76604444 0,
                    -0.5 0.86602539 0,
                    -0.34202015 0.93969262 0,
                    -0.17364818 0.98480773 0,
                    0 1 0,
                    0.17364818 0.98480773 0,
                    0.34202015 0.93969262 0,
                    0.5 0.86602539 0,
                    0.64278764 0.76604444 0,
                    0.76604444 0.64278764 0,
                    0.86602539 0.5 0,
                    0.93969262 0.34202015 0,
                    0.98480773 0.17364818 0,
                    1 2.220446e-16 0,
                    1 2.220446e-16 0,
                    0.98480773 0.17364818 0,
                    0.93969262 0.34202015 0,
                    0.86602539 0.5 0,
                    0.76604444 0.64278764 0,
                    0.64278764 0.76604444 0,
                    0.5 0.86602539 0,
                    0.34202015 0.93969262 0,
                    0.17364818 0.98480773 0,
                    0 1 0,
                    -0.17364818 0.98480773 0,
                    -0.34202015 0.93969262 0,
                    -0.5 0.86602539 0,
                    -0.64278764 0.76604444 0,
                    -0.76604444 0.64278764 0,
                    -0.86602539 0.5 0,
                    -0.93969262 0.34202015 0,
                    -0.98480773 0.17364818 0,
                    -1 0 0,
                    -0.89679515 -0.44244596 0,
                    -0.95368177 -0.30081731 0,
                    -0.9883526 -0.15218116 0,
                    -1 -2.220446e-16 0,
                    -1 -2.220446e-16 0,
                    -0.9883526 -0.15218116 0,
                    -0.95368177 -0.30081731 0,
                    -0.89679515 -0.44244596 0,
                    -0 0 -1,
                    -0 0 -1,
                    -0 0 -1,
                    -0 0 -1,
                    -0 0 -1,
                    -0 0 -1,
                    -0 0 -1,
                    -0 0 -1,
                    -0 0 -1,
                    -0 0 -1,
                    -0 0 -1,
                    -0 0 -1,
                    -0 0 -1,
                    -0 0 -1,
                    -0 0 -1,
                    -0 0 -1,
                    -0 0 -1,
                    -0 0 -1,
                    -0 0 -1,
                    -0 0 -1,
                    -0 0 -1,
                    -0 0 -1,
                    -0 0 -1,
                    -0 0 -1,
                    -0 0 -1,
                    -0 0 -1,
                    -0 0 -1,
                    -0 0 -1,
                    -0 0 -1,
                    -0 0 -1,
                    -0 0 -1,
                    -0 0 -1,
                    -0 0 -1,
                    -0 0 -1,
                    -0 0 -1,
                    -0 0 -1,
                    -0 0 -1,
                    -0 0 -1,
                    -0 0 -1,
                    -0 0 -1,
                    -0 0 -1,
                    -0 0 -1,
                    -0 0 -1,
                    -0 0 -1,
                    -0 0 -1,
                    -0 0 -1,
                    -0 0 -1,
                    -0 0 -1,
                    -0 0 -1,
                    -0 0 -1,
                    -0 0 -1,
                    -0 0 -1,
                    -0 0 -1,
                    -0 0 -1,
                    -0 0 -1,
                    -0 0 -1,
                    -0 0 -1,
                    -0 0 -1,
                    -0 0 -1,
                    -0 0 -1,
                    -0 0 -1,
                    -0 0 -1,
                    -0 0 -1,
                    -0 0 -1,
                    -0 0 -1,
                    -0 0 -1,
                    -0 0 -1,
                    -0 0 -1,
                    -0 0 -1,
                    -0 0 -1,
                    -0 0 -1,
                    -0 0 -1,
                    -0 0 -1,
                    -0 0 -1,
                    -0 0 -1,
                    -0 0 -1,
                    -0 0 -1,
                    -0 0 -1,
                    -0 0 -1,
                    -0 0 -1,
                    -0 0 -1,
                    -0 0 -1,
                    -0 0 -1,
                    -0 0 -1,
                    -0 0 -1,
                    -0 0 -1,
                    -0 0 -1,
                    -0 0 -1,
                    -0 0 -1,
                    -0 0 -1,
                    -0 0 -1,
                    -0 0 -1,
                    -0 0 -1,
                    -0 0 -1,
                    -0 0 -1,
                    -0 0 -1,
                    -0 0 -1,
                    -0 0 -1,
                    -0 0 -1,
                    -0 0 -1,
                    -0 0 -1,
                    -0 0 -1,
                    -0 0 -1,
                    -0 0 -1,
                    -0 0 -1,
                    -0 0 -1,
                    -0 0 -1,
                    -0 0 -1,
                    -0 0 -1,
                    -0 0 -1,
                    -0 0 -1,
                    -0 0 -1,
                    -0 0 -1,
                    -0 0 -1,
                    -0 0 -1,
                    -0 0 -1,
                    -0 0 -1,
                    -0 0 -1,
                    -0 0 -1,
                    -0 0 -1,
                    -0 0 -1,
                    -0 0 -1,
                    -0 0 -1,
                    -0 0 -1,
                    -0 0 -1,
                    -0 0 -1,
                    -0 0 -1,
                    -0 0 -1,
                    -0 0 -1,
                    -0 0 -1,
                    -0 0 -1,
                    -0 0 -1,
                    -0 0 -1,
                    -0 0 -1,
                    -0 0 -1,
                    -0 0 -1,
                    -0 0 -1,
                    -0 0 -1,
                    -0 0 -1,
                    -0 0 -1,
                    -0 0 -1,
                    -0 0 -1,
                    -0 0 -1,
                    -0 0 -1,
                    -0 0 -1,
                    -0 0 -1,
                    1 2.220446e-16 0,
                    1 2.220446e-16 0,
                    0.9883526 -0.15218116 0,
                    0.95368177 -0.30081731 0,
                    0.89679515 -0.44244596 0,
                    0.89679515 -0.44244596 0,
                    0.95368177 -0.30081731 0,
                    0.9883526 -0.15218116 0,
                    -0 -1 -0,
                    -0 -1 -0,
                    -0 -1 -0,
                    -0 -1 -0,
                    0 -0 1,
                    0 -0 1,
                    0 -0 1,
                    0 -0 1,
                    0 -0 1,
                    0 -0 1,
                    0 -0 1,
                    0 -0 1,
                    0 -0 1,
                    0 -0 1,
                    0 -0 1,
                    0 -0 1,
                    0 -0 1,
                    0 -0 1,
                    0 -0 1,
                    0 -0 1,
                    0 -0 1,
                    0 -0 1,
                    0 -0 1,
                    0 -0 1,
                    0 -0 1,
                    0 -0 1,
                    0 -0 1,
                    0 -0 1,
                    0 -0 1

                  ]
                }
                coordIndex [
                  65 1 48 -1 
                  64 48 47 -1 
                  63 47 46 -1 
                  62 46 45 -1 
                  61 45 44 -1 
                  60 44 43 -1 
                  59 43 42 -1 
                  58 42 41 -1 
                  57 41 40 -1 
                  56 40 39 -1 
                  55 39 38 -1 
                  54 38 37 -1 
                  53 37 36 -1 
                  52 36 35 -1 
                  51 35 34 -1 
                  50 34 33 -1 
                  49 33 32 -1 
                  2 32 0 -1 
                  49 32 2 -1 
                  50 33 49 -1 
                  51 34 50 -1 
                  52 35 51 -1 
                  53 36 52 -1 
                  54 37 53 -1 
                  55 38 54 -1 
                  56 39 55 -1 
                  57 40 56 -1 
                  58 41 57 -1 
                  59 42 58 -1 
                  60 43 59 -1 
                  61 44 60 -1 
                  62 45 61 -1 
                  63 46 62 -1 
                  64 47 63 -1 
                  65 48 64 -1 
                  3 1 65 -1 
                  69 4 67 -1 
                  68 67 66 -1 
                  3 66 1 -1 
                  68 66 3 -1 
                  69 67 68 -1 
                  5 4 69 -1 
                  78 71 70 -1 
                  76 70 6 -1 
                  138 69 68 -1 
                  165 65 164 -1 
                  161 63 30 -1 
                  64 164 65 -1 
                  160 60 159 -1 
                  7 6 8 -1 
                  10 2 71 -1 
                  72 6 7 -1 
                  73 6 72 -1 
                  81 49 2 -1 
                  74 6 73 -1 
                  84 50 49 -1 
                  75 6 74 -1 
                  76 6 75 -1 
                  86 51 50 -1 
                  77 70 76 -1 
                  11 52 51 -1 
                  78 70 77 -1 
                  79 71 78 -1 
                  12 53 52 -1 
                  9 71 79 -1 
                  12 54 53 -1 
                  10 71 9 -1 
                  80 2 10 -1 
                  81 2 80 -1 
                  82 49 81 -1 
                  83 49 82 -1 
                  84 49 83 -1 
                  85 50 84 -1 
                  89 55 54 -1 
                  86 50 85 -1 
                  87 51 86 -1 
                  11 51 87 -1 
                  120 56 55 -1 
                  12 52 11 -1 
                  88 54 12 -1 
                  89 54 88 -1 
                  6 5 15 -1 
                  119 55 89 -1 
                  106 103 105 -1 
                  91 117 90 -1 
                  92 116 91 -1 
                  93 115 92 -1 
                  18 95 13 -1 
                  17 14 96 -1 
                  112 96 97 -1 
                  111 97 98 -1 
                  110 98 99 -1 
                  109 99 100 -1 
                  105 104 6 -1 
                  108 100 101 -1 
                  107 101 102 -1 
                  104 8 6 -1 
                  106 102 103 -1 
                  94 114 93 -1 
                  95 113 94 -1 
                  15 5 16 -1 
                  105 103 104 -1 
                  17 13 14 -1 
                  105 6 15 -1 
                  107 102 106 -1 
                  108 101 107 -1 
                  109 100 108 -1 
                  110 99 109 -1 
                  111 98 110 -1 
                  118 89 90 -1 
                  112 97 111 -1 
                  17 96 112 -1 
                  19 57 56 -1 
                  18 13 17 -1 
                  20 58 57 -1 
                  113 95 18 -1 
                  20 59 58 -1 
                  114 94 113 -1 
                  121 60 59 -1 
                  115 93 114 -1 
                  116 92 115 -1 
                  117 91 116 -1 
                  118 90 117 -1 
                  119 89 118 -1 
                  120 55 119 -1 
                  19 56 120 -1 
                  20 57 19 -1 
                  121 59 20 -1 
                  122 60 121 -1 
                  5 69 141 -1 
                  146 135 145 -1 
                  124 157 123 -1 
                  125 156 124 -1 
                  126 127 154 -1 
                  126 155 125 -1 
                  136 16 5 -1 
                  136 145 135 -1 
                  24 68 3 -1 
                  23 68 24 -1 
                  153 127 128 -1 
                  137 68 23 -1 
                  27 21 22 -1 
                  138 68 137 -1 
                  152 22 129 -1 
                  139 69 138 -1 
                  130 151 129 -1 
                  140 69 139 -1 
                  130 131 150 -1 
                  141 69 140 -1 
                  149 131 132 -1 
                  142 5 141 -1 
                  133 148 132 -1 
                  143 5 142 -1 
                  133 134 147 -1 
                  144 5 143 -1 
                  146 134 135 -1 
                  25 5 144 -1 
                  145 136 5 -1 
                  26 5 25 -1 
                  145 5 26 -1 
                  28 128 21 -1 
                  147 134 146 -1 
                  148 133 147 -1 
                  149 132 148 -1 
                  150 131 149 -1 
                  151 130 150 -1 
                  152 129 151 -1 
                  27 22 152 -1 
                  158 122 123 -1 
                  28 21 27 -1 
                  159 60 122 -1 
                  153 128 28 -1 
                  160 61 60 -1 
                  154 127 153 -1 
                  29 62 61 -1 
                  155 126 154 -1 
                  156 125 155 -1 
                  157 124 156 -1 
                  158 123 157 -1 
                  30 63 62 -1 
                  159 122 158 -1 
                  29 61 160 -1 
                  161 64 63 -1 
                  30 62 29 -1 
                  162 64 161 -1 
                  163 64 162 -1 
                  166 3 65 -1 
                  164 64 163 -1 
                  166 65 165 -1 
                  167 3 166 -1 
                  168 24 3 -1 
                  168 3 167 -1 
                  170 2 0 -1 
                  71 170 70 -1 
                  31 6 169 -1 
                  70 169 6 -1 
                  70 170 169 -1 
                  71 2 170 -1 
                  31 4 5 -1 
                  6 31 5 -1 
                  67 4 31 -1 
                  66 67 31 -1 
                  1 66 31 -1 
                  48 1 31 -1 
                  47 48 31 -1 
                  46 47 31 -1 
                  45 46 31 -1 
                  44 45 31 -1 
                  43 44 31 -1 
                  42 43 31 -1 
                  41 42 31 -1 
                  40 41 31 -1 
                  39 40 31 -1 
                  38 39 31 -1 
                  37 38 31 -1 
                  36 37 31 -1 
                  35 36 31 -1 
                  34 35 31 -1 
                  33 34 31 -1 
                  32 33 31 -1 
                  0 32 31 -1 
                  170 0 31 -1 
                  169 170 31 -1 
                ]
                normalIndex [
                  36 0 1 -1 
                  35 1 2 -1 
                  34 2 3 -1 
                  33 3 4 -1 
                  32 4 5 -1 
                  31 5 6 -1 
                  30 6 7 -1 
                  29 7 8 -1 
                  28 8 9 -1 
                  27 9 10 -1 
                  26 10 11 -1 
                  25 11 12 -1 
                  24 12 13 -1 
                  23 13 14 -1 
                  22 14 15 -1 
                  21 15 16 -1 
                  20 16 17 -1 
                  19 17 18 -1 
                  20 17 19 -1 
                  21 16 20 -1 
                  22 15 21 -1 
                  23 14 22 -1 
                  24 13 23 -1 
                  25 12 24 -1 
                  26 11 25 -1 
                  27 10 26 -1 
                  28 9 27 -1 
                  29 8 28 -1 
                  30 7 29 -1 
                  31 6 30 -1 
                  32 5 31 -1 
                  33 4 32 -1 
                  34 3 33 -1 
                  35 2 34 -1 
                  36 1 35 -1 
                  37 0 36 -1 
                  44 38 39 -1 
                  43 39 40 -1 
                  42 40 41 -1 
                  43 40 42 -1 
                  44 39 43 -1 
                  45 38 44 -1 
                  79 47 48 -1 
                  77 48 49 -1 
                  155 51 52 -1 
                  188 54 187 -1 
                  184 56 183 -1 
                  55 187 54 -1 
                  181 59 180 -1 
                  72 49 71 -1 
                  82 46 47 -1 
                  73 49 72 -1 
                  74 49 73 -1 
                  84 70 46 -1 
                  75 49 74 -1 
                  87 69 70 -1 
                  76 49 75 -1 
                  77 49 76 -1 
                  89 68 69 -1 
                  78 48 77 -1 
                  91 67 68 -1 
                  79 48 78 -1 
                  80 47 79 -1 
                  92 66 67 -1 
                  81 47 80 -1 
                  92 65 66 -1 
                  82 47 81 -1 
                  83 46 82 -1 
                  84 46 83 -1 
                  85 70 84 -1 
                  86 70 85 -1 
                  87 70 86 -1 
                  88 69 87 -1 
                  94 64 65 -1 
                  89 69 88 -1 
                  90 68 89 -1 
                  91 68 90 -1 
                  131 63 64 -1 
                  92 67 91 -1 
                  93 65 92 -1 
                  94 65 93 -1 
                  49 50 113 -1 
                  130 64 94 -1 
                  115 110 114 -1 
                  96 128 95 -1 
                  97 127 96 -1 
                  98 126 97 -1 
                  123 100 101 -1 
                  122 102 103 -1 
                  121 103 104 -1 
                  120 104 105 -1 
                  119 105 106 -1 
                  118 106 107 -1 
                  114 111 49 -1 
                  117 107 108 -1 
                  116 108 109 -1 
                  111 71 49 -1 
                  115 109 110 -1 
                  99 125 98 -1 
                  100 124 99 -1 
                  113 50 112 -1 
                  114 110 111 -1 
                  122 101 102 -1 
                  114 49 113 -1 
                  116 109 115 -1 
                  117 108 116 -1 
                  118 107 117 -1 
                  119 106 118 -1 
                  120 105 119 -1 
                  129 94 95 -1 
                  121 104 120 -1 
                  122 103 121 -1 
                  132 62 63 -1 
                  123 101 122 -1 
                  133 61 62 -1 
                  124 100 123 -1 
                  133 60 61 -1 
                  125 99 124 -1 
                  134 59 60 -1 
                  126 98 125 -1 
                  127 97 126 -1 
                  128 96 127 -1 
                  129 95 128 -1 
                  130 94 129 -1 
                  131 64 130 -1 
                  132 63 131 -1 
                  133 62 132 -1 
                  134 60 133 -1 
                  135 59 134 -1 
                  50 51 158 -1 
                  165 150 164 -1 
                  137 178 136 -1 
                  138 177 137 -1 
                  139 140 175 -1 
                  139 176 138 -1 
                  151 112 50 -1 
                  151 164 150 -1 
                  152 52 53 -1 
                  153 52 152 -1 
                  174 140 141 -1 
                  154 52 153 -1 
                  172 142 143 -1 
                  155 52 154 -1 
                  171 143 144 -1 
                  156 51 155 -1 
                  145 170 144 -1 
                  157 51 156 -1 
                  145 146 169 -1 
                  158 51 157 -1 
                  168 146 147 -1 
                  159 50 158 -1 
                  148 167 147 -1 
                  160 50 159 -1 
                  148 149 166 -1 
                  161 50 160 -1 
                  165 149 150 -1 
                  162 50 161 -1 
                  164 151 50 -1 
                  163 50 162 -1 
                  164 50 163 -1 
                  173 141 142 -1 
                  166 149 165 -1 
                  167 148 166 -1 
                  168 147 167 -1 
                  169 146 168 -1 
                  170 145 169 -1 
                  171 144 170 -1 
                  172 143 171 -1 
                  179 135 136 -1 
                  173 142 172 -1 
                  180 59 135 -1 
                  174 141 173 -1 
                  181 58 59 -1 
                  175 140 174 -1 
                  182 57 58 -1 
                  176 139 175 -1 
                  177 138 176 -1 
                  178 137 177 -1 
                  179 136 178 -1 
                  183 56 57 -1 
                  180 135 179 -1 
                  182 58 181 -1 
                  184 55 56 -1 
                  183 57 182 -1 
                  185 55 184 -1 
                  186 55 185 -1 
                  189 53 54 -1 
                  187 55 186 -1 
                  189 54 188 -1 
                  190 53 189 -1 
                  191 152 53 -1 
                  191 53 190 -1 
                  194 192 193 -1 
                  199 194 198 -1 
                  196 197 195 -1 
                  198 195 197 -1 
                  198 194 195 -1 
                  199 192 194 -1 
                  202 201 200 -1 
                  203 202 200 -1 
                  206 205 204 -1 
                  207 206 204 -1 
                  208 207 204 -1 
                  209 208 204 -1 
                  210 209 204 -1 
                  211 210 204 -1 
                  212 211 204 -1 
                  213 212 204 -1 
                  214 213 204 -1 
                  215 214 204 -1 
                  216 215 204 -1 
                  217 216 204 -1 
                  218 217 204 -1 
                  219 218 204 -1 
                  220 219 204 -1 
                  221 220 204 -1 
                  222 221 204 -1 
                  223 222 204 -1 
                  224 223 204 -1 
                  225 224 204 -1 
                  226 225 204 -1 
                  227 226 204 -1 
                  228 227 204 -1 
                ]
              }
            }
            DEF DS18B20+_2 Shape {
              appearance DEF __9 Appearance {
                material DEF __10 Material {
                  diffuseColor 1 1 1
                  shininess 0
                }
              }
              geometry DEF __11 IndexedFaceSet {
                solid FALSE
                coord Coordinate {
                  point [
                    0.000348869047619 0.00115 0,
                    0.000348869047619 0.00105 0,
                    0.000348869047619 0.00105 -0.0127,
                    0.000348869047619 0.00115 -0.0127,
                    0.000298869047619 0.001 0,
                    -0.000101130952381 0.001 0,
                    -0.000101130952381 0.001 -0.0127,
                    0.000298869047619 0.001 -0.0127,
                    -0.000151130952381 0.00105 -0.0127,
                    -0.000151130952381 0.00115 -0.0127,
                    -0.000151130952381 0.00105 0,
                    -0.000151130952381 0.00115 0,
                    -0.000101130952381 0.0012 -0.0127,
                    0.000298869047619 0.0012 -0.0127,
                    -0.000101130952381 0.0012 0,
                    0.000298869047619 0.0012 0,
                    -0.000921130952381 0.00115 0,
                    -0.000921130952381 0.00105 0,
                    -0.000921130952381 0.00105 -0.0127,
                    -0.000921130952381 0.00115 -0.0127,
                    -0.000971130952381 0.001 0,
                    -0.00137113095238 0.001 0,
                    -0.00137113095238 0.001 -0.0127,
                    -0.000971130952381 0.001 -0.0127,
                    -0.00142113095238 0.00105 -0.0127,
                    -0.00142113095238 0.00115 -0.0127,
                    -0.00142113095238 0.00105 0,
                    -0.00142113095238 0.00115 0,
                    -0.00137113095238 0.0012 -0.0127,
                    -0.000971130952381 0.0012 -0.0127,
                    -0.00137113095238 0.0012 0,
                    -0.000971130952381 0.0012 0,
                    -0.00224113095238 0.001 -0.0127,
                    -0.00264113095238 0.001 -0.0127,
                    -0.00224113095238 0.001 0,
                    -0.00264113095238 0.001 0,
                    -0.00269113095238 0.00105 -0.0127,
                    -0.00269113095238 0.00115 -0.0127,
                    -0.00269113095238 0.00105 0,
                    -0.00269113095238 0.00115 0,
                    -0.00264113095238 0.0012 0,
                    -0.00224113095238 0.0012 0,
                    -0.00224113095238 0.0012 -0.0127,
                    -0.00264113095238 0.0012 -0.0127,
                    -0.00219113095238 0.00115 -0.0127,
                    -0.00219113095238 0.00105 -0.0127,
                    -0.00219113095238 0.00115 0,
                    -0.00219113095238 0.00105 0,
                    -0.000108952675633 0.00100061558297 -0.0127,
                    -0.0001165818021 0.00100244717419 -0.0127,
                    -0.000123830477368 0.00100544967379 -0.0127,
                    -0.000130520214996 0.00100954915028 -0.0127,
                    -0.00013648629144 0.00101464466094 -0.0127,
                    -0.0001415818021 0.00102061073739 -0.0127,
                    -0.00014568127859 0.00102730047501 -0.0127,
                    -0.000148683778196 0.00103454915028 -0.0127,
                    -0.000150515369411 0.00104217827675 -0.0127,
                    -0.000150371340032 0.00115868240888 -0.0127,
                    -0.00014811558342 0.00116710100717 -0.0127,
                    -0.00014443222257 0.001175 -0.0127,
                    -0.000139433174537 0.00118213938048 -0.0127,
                    -0.000133270332865 0.00118830222216 -0.0127,
                    -0.000126130952381 0.00119330127019 -0.0127,
                    -0.000118231959547 0.00119698463104 -0.0127,
                    -0.000109813361264 0.00119924038765 -0.0127,
                    0.000307551456502 0.00119924038765 -0.0127,
                    0.000315970054785 0.00119698463104 -0.0127,
                    0.000323869047619 0.00119330127019 -0.0127,
                    0.000331008428103 0.00118830222216 -0.0127,
                    0.000337171269775 0.00118213938048 -0.0127,
                    0.000342170317808 0.001175 -0.0127,
                    0.000345853678658 0.00116710100717 -0.0127,
                    0.00034810943527 0.00115868240888 -0.0127,
                    0.00034810943527 0.00104131759112 -0.0127,
                    0.000345853678658 0.00103289899283 -0.0127,
                    0.000342170317808 0.001025 -0.0127,
                    0.000337171269775 0.00101786061952 -0.0127,
                    0.000331008428103 0.00101169777784 -0.0127,
                    0.000323869047619 0.00100669872981 -0.0127,
                    0.000315970054785 0.00100301536896 -0.0127,
                    0.000307551456502 0.00100075961235 -0.0127,
                    -0.00137981336126 0.00100075961235 -0.0127,
                    -0.00138823195955 0.00100301536896 -0.0127,
                    -0.00139613095238 0.00100669872981 -0.0127,
                    -0.00140327033287 0.00101169777784 -0.0127,
                    -0.00140943317454 0.00101786061952 -0.0127,
                    -0.00141443222257 0.001025 -0.0127,
                    -0.00141811558342 0.00103289899283 -0.0127,
                    -0.00142037134003 0.00104131759112 -0.0127,
                    -0.00142037134003 0.00115868240888 -0.0127,
                    -0.00141811558342 0.00116710100717 -0.0127,
                    -0.00141443222257 0.001175 -0.0127,
                    -0.00140943317454 0.00118213938048 -0.0127,
                    -0.00140327033287 0.00118830222216 -0.0127,
                    -0.00139613095238 0.00119330127019 -0.0127,
                    -0.00138823195955 0.00119698463104 -0.0127,
                    -0.00137981336126 0.00119924038765 -0.0127,
                    -0.000962448543498 0.00119924038765 -0.0127,
                    -0.000954029945215 0.00119698463104 -0.0127,
                    -0.000946130952381 0.00119330127019 -0.0127,
                    -0.000938991571897 0.00118830222216 -0.0127,
                    -0.000932828730225 0.00118213938048 -0.0127,
                    -0.000927829682192 0.001175 -0.0127,
                    -0.000924146321342 0.00116710100717 -0.0127,
                    -0.00092189056473 0.00115868240888 -0.0127,
                    -0.00092189056473 0.00104131759112 -0.0127,
                    -0.000924146321342 0.00103289899283 -0.0127,
                    -0.000927829682192 0.001025 -0.0127,
                    -0.000932828730225 0.00101786061952 -0.0127,
                    -0.000938991571897 0.00101169777784 -0.0127,
                    -0.000946130952381 0.00100669872981 -0.0127,
                    -0.000954029945215 0.00100301536896 -0.0127,
                    -0.000962448543498 0.00100075961235 -0.0127,
                    -0.0022324485435 0.00119924038765 -0.0127,
                    -0.00222402994521 0.00119698463104 -0.0127,
                    -0.00221613095238 0.00119330127019 -0.0127,
                    -0.0022089915719 0.00118830222216 -0.0127,
                    -0.00220282873023 0.00118213938048 -0.0127,
                    -0.00219782968219 0.001175 -0.0127,
                    -0.00219414632134 0.00116710100717 -0.0127,
                    -0.00219189056473 0.00115868240888 -0.0127,
                    -0.00219189056473 0.00104131759112 -0.0127,
                    -0.00219414632134 0.00103289899283 -0.0127,
                    -0.00219782968219 0.001025 -0.0127,
                    -0.00220282873023 0.00101786061952 -0.0127,
                    -0.0022089915719 0.00101169777784 -0.0127,
                    -0.00221613095238 0.00100669872981 -0.0127,
                    -0.00222402994521 0.00100301536896 -0.0127,
                    -0.0022324485435 0.00100075961235 -0.0127,
                    -0.00264981336126 0.00100075961235 -0.0127,
                    -0.00265823195955 0.00100301536896 -0.0127,
                    -0.00266613095238 0.00100669872981 -0.0127,
                    -0.00267327033287 0.00101169777784 -0.0127,
                    -0.00267943317454 0.00101786061952 -0.0127,
                    -0.00268443222257 0.001025 -0.0127,
                    -0.00268811558342 0.00103289899283 -0.0127,
                    -0.00269037134003 0.00104131759112 -0.0127,
                    -0.00269037134003 0.00115868240888 -0.0127,
                    -0.00268811558342 0.00116710100717 -0.0127,
                    -0.00268443222257 0.001175 -0.0127,
                    -0.00267943317454 0.00118213938048 -0.0127,
                    -0.00267327033287 0.00118830222216 -0.0127,
                    -0.00266613095238 0.00119330127019 -0.0127,
                    -0.00265823195955 0.00119698463104 -0.0127,
                    -0.00264981336126 0.00119924038765 -0.0127,
                    -0.000150515369411 0.00104217827675 0,
                    -0.000148683778196 0.00103454915028 0,
                    -0.00014568127859 0.00102730047501 0,
                    -0.0001415818021 0.00102061073739 0,
                    -0.00013648629144 0.00101464466094 0,
                    -0.000130520214996 0.00100954915028 0,
                    -0.000123830477368 0.00100544967379 0,
                    -0.0001165818021 0.00100244717419 0,
                    -0.000108952675633 0.00100061558297 0,
                    -0.00142037134003 0.00104131759112 0,
                    -0.00141811558342 0.00103289899283 0,
                    -0.00141443222257 0.001025 0,
                    -0.00140943317454 0.00101786061952 0,
                    -0.00140327033287 0.00101169777784 0,
                    -0.00139613095238 0.00100669872981 0,
                    -0.00138823195955 0.00100301536896 0,
                    -0.00137981336126 0.00100075961235 0,
                    -0.000962448543498 0.00100075961235 0,
                    -0.000954029945215 0.00100301536896 0,
                    -0.000946130952381 0.00100669872981 0,
                    -0.000938991571897 0.00101169777784 0,
                    -0.000932828730225 0.00101786061952 0,
                    -0.000927829682192 0.001025 0,
                    -0.000924146321342 0.00103289899283 0,
                    -0.00092189056473 0.00104131759112 0,
                    -0.00137981336126 0.00119924038765 0,
                    -0.00138823195955 0.00119698463104 0,
                    -0.00139613095238 0.00119330127019 0,
                    -0.00140327033287 0.00118830222216 0,
                    -0.00140943317454 0.00118213938048 0,
                    -0.00141443222257 0.001175 0,
                    -0.00141811558342 0.00116710100717 0,
                    -0.00142037134003 0.00115868240888 0,
                    -0.000109813361264 0.00119924038765 0,
                    -0.000118231959547 0.00119698463104 0,
                    -0.000126130952381 0.00119330127019 0,
                    -0.000133270332865 0.00118830222216 0,
                    -0.000139433174537 0.00118213938048 0,
                    -0.00014443222257 0.001175 0,
                    -0.00014811558342 0.00116710100717 0,
                    -0.000150371340032 0.00115868240888 0,
                    0.000307551456502 0.00100075961235 0,
                    0.000315970054785 0.00100301536896 0,
                    0.000323869047619 0.00100669872981 0,
                    0.000331008428103 0.00101169777784 0,
                    0.000337171269775 0.00101786061952 0,
                    0.000342170317808 0.001025 0,
                    0.000345853678658 0.00103289899283 0,
                    0.00034810943527 0.00104131759112 0,
                    0.00034810943527 0.00115868240888 0,
                    0.000345853678658 0.00116710100717 0,
                    0.000342170317808 0.001175 0,
                    0.000337171269775 0.00118213938048 0,
                    0.000331008428103 0.00118830222216 0,
                    0.000323869047619 0.00119330127019 0,
                    0.000315970054785 0.00119698463104 0,
                    0.000307551456502 0.00119924038765 0,
                    -0.00092189056473 0.00115868240888 0,
                    -0.000924146321342 0.00116710100717 0,
                    -0.000927829682192 0.001175 0,
                    -0.000932828730225 0.00118213938048 0,
                    -0.000938991571897 0.00118830222216 0,
                    -0.000946130952381 0.00119330127019 0,
                    -0.000954029945215 0.00119698463104 0,
                    -0.000962448543498 0.00119924038765 0,
                    -0.00219189056473 0.00115868240888 0,
                    -0.00219414632134 0.00116710100717 0,
                    -0.00219782968219 0.001175 0,
                    -0.00220282873023 0.00118213938048 0,
                    -0.0022089915719 0.00118830222216 0,
                    -0.00221613095238 0.00119330127019 0,
                    -0.00222402994521 0.00119698463104 0,
                    -0.0022324485435 0.00119924038765 0,
                    -0.0022324485435 0.00100075961235 0,
                    -0.00222402994521 0.00100301536896 0,
                    -0.00221613095238 0.00100669872981 0,
                    -0.0022089915719 0.00101169777784 0,
                    -0.00220282873023 0.00101786061952 0,
                    -0.00219782968219 0.001025 0,
                    -0.00219414632134 0.00103289899283 0,
                    -0.00219189056473 0.00104131759112 0,
                    -0.00269037134003 0.00104131759112 0,
                    -0.00268811558342 0.00103289899283 0,
                    -0.00268443222257 0.001025 0,
                    -0.00267943317454 0.00101786061952 0,
                    -0.00267327033287 0.00101169777784 0,
                    -0.00266613095238 0.00100669872981 0,
                    -0.00265823195955 0.00100301536896 0,
                    -0.00264981336126 0.00100075961235 0,
                    -0.00264981336126 0.00119924038765 0,
                    -0.00265823195955 0.00119698463104 0,
                    -0.00266613095238 0.00119330127019 0,
                    -0.00267327033287 0.00118830222216 0,
                    -0.00267943317454 0.00118213938048 0,
                    -0.00268443222257 0.001175 0,
                    -0.00268811558342 0.00116710100717 0,
                    -0.00269037134003 0.00115868240888 0

                  ]
                }
                normal Normal {
                  vector [
                    1 -0 -0,
                    1 -0 -0,
                    1 -0 -0,
                    1 -0 -0,
                    -0 -1 -0,
                    -0 -1 -0,
                    -0 -1 -0,
                    -0 -1 -0,
                    -1 0 -0,
                    -1 0 -0,
                    -1 0 -0,
                    -1 0 -0,
                    -4.3368087e-16 1 -0,
                    -4.3368087e-16 1 -0,
                    -4.3368087e-16 1 -0,
                    -4.3368087e-16 1 -0,
                    0 0 -1,
                    0 0 -1,
                    0 0 -1,
                    0 0 -1,
                    0 0 -1,
                    0 0 -1,
                    0 0 -1,
                    0 0 -1,
                    0 0 -1,
                    0 0 -1,
                    0 0 -1,
                    0 0 -1,
                    0 0 -1,
                    0 0 -1,
                    0 0 -1,
                    0 0 -1,
                    0 0 -1,
                    0 0 -1,
                    0 0 -1,
                    0 0 -1,
                    0 0 -1,
                    0 0 -1,
                    0 0 -1,
                    0 0 -1,
                    0 0 -1,
                    0 0 -1,
                    0 0 -1,
                    0 0 -1,
                    0 0 -1,
                    0 0 -1,
                    0 0 -1,
                    0 0 -1,
                    0 0 -1,
                    0 0 -1,
                    0 0 -1,
                    0 0 -1,
                    0 0 -1,
                    0 0 -1,
                    0 0 -1,
                    0 0 -1,
                    0 0 -1,
                    1 -0 -0,
                    1 -0 -0,
                    1 -0 -0,
                    1 -0 -0,
                    -0 -1 -0,
                    -0 -1 -0,
                    -0 -1 -0,
                    -0 -1 -0,
                    -1 0 -0,
                    -1 0 -0,
                    -1 0 -0,
                    -1 0 -0,
                    -0 1 -0,
                    -0 1 -0,
                    -0 1 -0,
                    -0 1 -0,
                    0 0 -1,
                    0 0 -1,
                    0 0 -1,
                    0 0 -1,
                    0 0 -1,
                    0 0 -1,
                    0 0 -1,
                    0 0 -1,
                    0 0 -1,
                    0 0 -1,
                    0 0 -1,
                    0 0 -1,
                    0 0 -1,
                    0 0 -1,
                    0 0 -1,
                    0 0 -1,
                    0 0 -1,
                    0 0 -1,
                    0 0 -1,
                    0 0 -1,
                    0 0 -1,
                    0 0 -1,
                    0 0 -1,
                    0 0 -1,
                    0 0 -1,
                    0 0 -1,
                    0 0 -1,
                    0 0 -1,
                    0 0 -1,
                    0 0 -1,
                    0 0 -1,
                    0 0 -1,
                    0 0 -1,
                    0 0 -1,
                    0 0 -1,
                    0 0 -1,
                    0 0 -1,
                    0 0 -1,
                    0 0 -1,
                    0 0 -1,
                    -0 -1 -0,
                    -0 -1 -0,
                    -0 -1 -0,
                    -0 -1 -0,
                    -1 0 -0,
                    -1 0 -0,
                    -1 0 -0,
                    -1 0 -0,
                    -0 1 -0,
                    -0 1 -0,
                    -0 1 -0,
                    -0 1 -0,
                    1 -0 -0,
                    1 -0 -0,
                    1 -0 -0,
                    1 -0 -0,
                    0 0 -1,
                    0 0 -1,
                    0 0 -1,
                    0 0 -1,
                    0 0 -1,
                    0 0 -1,
                    0 0 -1,
                    0 0 -1,
                    0 0 -1,
                    0 0 -1,
                    0 0 -1,
                    0 0 -1,
                    0 0 -1,
                    0 0 -1,
                    0 0 -1,
                    0 0 -1,
                    0 0 -1,
                    0 0 -1,
                    0 0 -1,
                    0 0 -1,
                    0 0 -1,
                    0 0 -1,
                    0 0 -1,
                    0 0 -1,
                    0 0 -1,
                    0 0 -1,
                    0 0 -1,
                    0 0 -1,
                    0 0 -1,
                    0 0 -1,
                    0 0 -1,
                    0 0 -1,
                    0 0 -1,
                    0 0 -1,
                    0 0 -1,
                    0 0 -1,
                    0 0 -1,
                    0 0 -1,
                    0 0 -1,
                    0 0 -1,
                    -1 2.220446e-16 0,
                    -0.98768836 -0.15643446 0,
                    -0.95105654 -0.309017 0,
                    -0.89100653 -0.45399049 0,
                    -0.809017 -0.58778524 0,
                    -0.70710677 -0.70710677 0,
                    -0.58778524 -0.809017 0,
                    -0.45399049 -0.89100653 0,
                    -0.309017 -0.95105654 0,
                    -0.15643446 -0.98768836 0,
                    7.0776718e-16 -1 0,
                    -1.8041124e-16 -1 0,
                    -0.15643446 -0.98768836 0,
                    -0.309017 -0.95105654 0,
                    -0.45399049 -0.89100653 0,
                    -0.58778524 -0.809017 0,
                    -0.70710677 -0.70710677 0,
                    -0.809017 -0.58778524 0,
                    -0.89100653 -0.45399049 0,
                    -0.95105654 -0.309017 0,
                    -0.98768836 -0.15643446 0,
                    -1 2.220446e-16 0,
                    -1 2.220446e-16 0,
                    -0.98480773 -0.17364818 0,
                    -0.93969262 -0.34202015 0,
                    -0.86602539 -0.5 0,
                    -0.76604444 -0.64278764 0,
                    -0.64278764 -0.76604444 0,
                    -0.5 -0.86602539 0,
                    -0.34202015 -0.93969262 0,
                    -0.17364818 -0.98480773 0,
                    -2.220446e-16 -1 0,
                    -2.220446e-16 -1 0,
                    -0.17364818 -0.98480773 0,
                    -0.34202015 -0.93969262 0,
                    -0.5 -0.86602539 0,
                    -0.64278764 -0.76604444 0,
                    -0.76604444 -0.64278764 0,
                    -0.86602539 -0.5 0,
                    -0.93969262 -0.34202015 0,
                    -0.98480773 -0.17364818 0,
                    -1 2.220446e-16 0,
                    -2.220446e-16 -1 0,
                    0.17364818 -0.98480773 0,
                    0.34202015 -0.93969262 0,
                    0.5 -0.86602539 0,
                    0.64278764 -0.76604444 0,
                    0.76604444 -0.64278764 0,
                    0.86602539 -0.5 0,
                    0.93969262 -0.34202015 0,
                    0.98480773 -0.17364818 0,
                    1 -2.220446e-16 0,
                    1 -2.220446e-16 0,
                    0.98480773 -0.17364818 0,
                    0.93969262 -0.34202015 0,
                    0.86602539 -0.5 0,
                    0.76604444 -0.64278764 0,
                    0.64278764 -0.76604444 0,
                    0.5 -0.86602539 0,
                    0.34202015 -0.93969262 0,
                    0.17364818 -0.98480773 0,
                    -2.220446e-16 -1 0,
                    0 1 0,
                    -0.17364818 0.98480773 0,
                    -0.34202015 0.93969262 0,
                    -0.5 0.86602539 0,
                    -0.64278764 0.76604444 0,
                    -0.76604444 0.64278764 0,
                    -0.86602539 0.5 0,
                    -0.93969262 0.34202015 0,
                    -0.98480773 0.17364818 0,
                    -1 2.220446e-16 0,
                    -1 2.220446e-16 0,
                    -0.98480773 0.17364818 0,
                    -0.93969262 0.34202015 0,
                    -0.86602539 0.5 0,
                    -0.76604444 0.64278764 0,
                    -0.64278764 0.76604444 0,
                    -0.5 0.86602539 0,
                    -0.34202015 0.93969262 0,
                    -0.17364818 0.98480773 0,
                    0 1 0,
                    -3.8857806e-16 1 0,
                    -0.17364818 0.98480773 0,
                    -0.34202015 0.93969262 0,
                    -0.5 0.86602539 0,
                    -0.64278764 0.76604444 0,
                    -0.76604444 0.64278764 0,
                    -0.86602539 0.5 0,
                    -0.93969262 0.34202015 0,
                    -0.98480773 0.17364818 0,
                    -1 2.220446e-16 0,
                    -1 2.220446e-16 0,
                    -0.98480773 0.17364818 0,
                    -0.93969262 0.34202015 0,
                    -0.86602539 0.5 0,
                    -0.76604444 0.64278764 0,
                    -0.64278764 0.76604444 0,
                    -0.5 0.86602539 0,
                    -0.34202015 0.93969262 0,
                    -0.17364818 0.98480773 0,
                    5.5511151e-17 1 0,
                    -1.6653345e-16 -1 0,
                    0.17364818 -0.98480773 0,
                    0.34202015 -0.93969262 0,
                    0.5 -0.86602539 0,
                    0.64278764 -0.76604444 0,
                    0.76604444 -0.64278764 0,
                    0.86602539 -0.5 0,
                    0.93969262 -0.34202015 0,
                    0.98480773 -0.17364818 0,
                    1 -2.220446e-16 0,
                    1 -2.220446e-16 0,
                    0.98480773 -0.17364818 0,
                    0.93969262 -0.34202015 0,
                    0.86602539 -0.5 0,
                    0.76604444 -0.64278764 0,
                    0.64278764 -0.76604444 0,
                    0.5 -0.86602539 0,
                    0.34202015 -0.93969262 0,
                    0.17364818 -0.98480773 0,
                    -1.6653345e-16 -1 0,
                    1 0 0,
                    0.98480773 0.17364818 0,
                    0.93969262 0.34202015 0,
                    0.86602539 0.5 0,
                    0.76604444 0.64278764 0,
                    0.64278764 0.76604444 0,
                    0.5 0.86602539 0,
                    0.34202015 0.93969262 0,
                    0.17364818 0.98480773 0,
                    5.5511151e-17 1 0,
                    5.5511151e-17 1 0,
                    0.17364818 0.98480773 0,
                    0.34202015 0.93969262 0,
                    0.5 0.86602539 0,
                    0.64278764 0.76604444 0,
                    0.76604444 0.64278764 0,
                    0.86602539 0.5 0,
                    0.93969262 0.34202015 0,
                    0.98480773 0.17364818 0,
                    1 0 0,
                    1 0 0,
                    0.98480773 0.17364818 0,
                    0.93969262 0.34202015 0,
                    0.86602539 0.5 0,
                    0.76604444 0.64278764 0,
                    0.64278764 0.76604444 0,
                    0.5 0.86602539 0,
                    0.34202015 0.93969262 0,
                    0.17364818 0.98480773 0,
                    1.110223e-16 1 0,
                    1.110223e-16 1 0,
                    0.17364818 0.98480773 0,
                    0.34202015 0.93969262 0,
                    0.5 0.86602539 0,
                    0.64278764 0.76604444 0,
                    0.76604444 0.64278764 0,
                    0.86602539 0.5 0,
                    0.93969262 0.34202015 0,
                    0.98480773 0.17364818 0,
                    1 0 0,
                    1 0 0,
                    0.98480773 0.17364818 0,
                    0.93969262 0.34202015 0,
                    0.86602539 0.5 0,
                    0.76604444 0.64278764 0,
                    0.64278764 0.76604444 0,
                    0.5 0.86602539 0,
                    0.34202015 0.93969262 0,
                    0.17364818 0.98480773 0,
                    0 1 0,
                    0 1 0,
                    0.17364818 0.98480773 0,
                    0.34202015 0.93969262 0,
                    0.5 0.86602539 0,
                    0.64278764 0.76604444 0,
                    0.76604444 0.64278764 0,
                    0.86602539 0.5 0,
                    0.93969262 0.34202015 0,
                    0.98480773 0.17364818 0,
                    1 0 0,
                    0 -1 0,
                    0.17364818 -0.98480773 0,
                    0.34202015 -0.93969262 0,
                    0.5 -0.86602539 0,
                    0.64278764 -0.76604444 0,
                    0.76604444 -0.64278764 0,
                    0.86602539 -0.5 0,
                    0.93969262 -0.34202015 0,
                    0.98480773 -0.17364818 0,
                    1 -2.220446e-16 0,
                    1 -2.220446e-16 0,
                    0.98480773 -0.17364818 0,
                    0.93969262 -0.34202015 0,
                    0.86602539 -0.5 0,
                    0.76604444 -0.64278764 0,
                    0.64278764 -0.76604444 0,
                    0.5 -0.86602539 0,
                    0.34202015 -0.93969262 0,
                    0.17364818 -0.98480773 0,
                    0 -1 0,
                    -1 2.220446e-16 0,
                    -0.98480773 -0.17364818 0,
                    -0.93969262 -0.34202015 0,
                    -0.86602539 -0.5 0,
                    -0.76604444 -0.64278764 0,
                    -0.64278764 -0.76604444 0,
                    -0.5 -0.86602539 0,
                    -0.34202015 -0.93969262 0,
                    -0.17364818 -0.98480773 0,
                    0 -1 0,
                    0 -1 0,
                    -0.17364818 -0.98480773 0,
                    -0.34202015 -0.93969262 0,
                    -0.5 -0.86602539 0,
                    -0.64278764 -0.76604444 0,
                    -0.76604444 -0.64278764 0,
                    -0.86602539 -0.5 0,
                    -0.93969262 -0.34202015 0,
                    -0.98480773 -0.17364818 0,
                    -1 2.220446e-16 0,
                    0 1 0,
                    -0.17364818 0.98480773 0,
                    -0.34202015 0.93969262 0,
                    -0.5 0.86602539 0,
                    -0.64278764 0.76604444 0,
                    -0.76604444 0.64278764 0,
                    -0.86602539 0.5 0,
                    -0.93969262 0.34202015 0,
                    -0.98480773 0.17364818 0,
                    -1 2.220446e-16 0,
                    -1 2.220446e-16 0,
                    -0.98480773 0.17364818 0,
                    -0.93969262 0.34202015 0,
                    -0.86602539 0.5 0,
                    -0.76604444 0.64278764 0,
                    -0.64278764 0.76604444 0,
                    -0.5 0.86602539 0,
                    -0.34202015 0.93969262 0,
                    -0.17364818 0.98480773 0,
                    0 1 0

                  ]
                }
                coordIndex [
                  2 0 1 -1 
                  2 3 0 -1 
                  6 4 5 -1 
                  6 7 4 -1 
                  10 9 8 -1 
                  10 11 9 -1 
                  14 15 13 -1 
                  12 14 13 -1 
                  12 7 6 -1 
                  49 6 48 -1 
                  50 6 49 -1 
                  51 6 50 -1 
                  52 6 51 -1 
                  53 6 52 -1 
                  54 6 53 -1 
                  55 6 54 -1 
                  56 6 55 -1 
                  8 6 56 -1 
                  9 6 8 -1 
                  12 6 9 -1 
                  58 9 57 -1 
                  59 9 58 -1 
                  60 9 59 -1 
                  61 9 60 -1 
                  62 9 61 -1 
                  63 9 62 -1 
                  64 9 63 -1 
                  12 9 64 -1 
                  13 7 12 -1 
                  3 7 13 -1 
                  66 13 65 -1 
                  67 13 66 -1 
                  68 13 67 -1 
                  69 13 68 -1 
                  70 13 69 -1 
                  71 13 70 -1 
                  72 13 71 -1 
                  3 13 72 -1 
                  2 7 3 -1 
                  73 7 2 -1 
                  74 7 73 -1 
                  75 7 74 -1 
                  76 7 75 -1 
                  77 7 76 -1 
                  78 7 77 -1 
                  79 7 78 -1 
                  80 7 79 -1 
                  18 16 17 -1 
                  18 19 16 -1 
                  22 20 21 -1 
                  22 23 20 -1 
                  26 25 24 -1 
                  26 27 25 -1 
                  30 29 28 -1 
                  30 31 29 -1 
                  28 23 22 -1 
                  82 22 81 -1 
                  83 22 82 -1 
                  84 22 83 -1 
                  85 22 84 -1 
                  86 22 85 -1 
                  87 22 86 -1 
                  88 22 87 -1 
                  24 22 88 -1 
                  25 22 24 -1 
                  28 22 25 -1 
                  90 25 89 -1 
                  91 25 90 -1 
                  92 25 91 -1 
                  93 25 92 -1 
                  94 25 93 -1 
                  95 25 94 -1 
                  96 25 95 -1 
                  28 25 96 -1 
                  29 23 28 -1 
                  19 23 29 -1 
                  98 29 97 -1 
                  99 29 98 -1 
                  100 29 99 -1 
                  101 29 100 -1 
                  102 29 101 -1 
                  103 29 102 -1 
                  104 29 103 -1 
                  19 29 104 -1 
                  18 23 19 -1 
                  105 23 18 -1 
                  106 23 105 -1 
                  107 23 106 -1 
                  108 23 107 -1 
                  109 23 108 -1 
                  110 23 109 -1 
                  111 23 110 -1 
                  112 23 111 -1 
                  34 35 33 -1 
                  32 34 33 -1 
                  38 37 36 -1 
                  38 39 37 -1 
                  42 43 40 -1 
                  41 42 40 -1 
                  46 47 45 -1 
                  44 46 45 -1 
                  32 43 42 -1 
                  114 42 113 -1 
                  115 42 114 -1 
                  116 42 115 -1 
                  117 42 116 -1 
                  118 42 117 -1 
                  119 42 118 -1 
                  120 42 119 -1 
                  44 42 120 -1 
                  45 42 44 -1 
                  32 42 45 -1 
                  122 45 121 -1 
                  123 45 122 -1 
                  124 45 123 -1 
                  125 45 124 -1 
                  126 45 125 -1 
                  127 45 126 -1 
                  128 45 127 -1 
                  32 45 128 -1 
                  33 43 32 -1 
                  36 43 33 -1 
                  130 33 129 -1 
                  131 33 130 -1 
                  132 33 131 -1 
                  133 33 132 -1 
                  134 33 133 -1 
                  135 33 134 -1 
                  136 33 135 -1 
                  36 33 136 -1 
                  37 43 36 -1 
                  137 43 37 -1 
                  138 43 137 -1 
                  139 43 138 -1 
                  140 43 139 -1 
                  141 43 140 -1 
                  142 43 141 -1 
                  143 43 142 -1 
                  144 43 143 -1 
                  145 8 56 -1 
                  146 56 55 -1 
                  147 55 54 -1 
                  148 54 53 -1 
                  149 53 52 -1 
                  150 52 51 -1 
                  151 51 50 -1 
                  152 50 49 -1 
                  153 49 48 -1 
                  5 48 6 -1 
                  153 48 5 -1 
                  152 49 153 -1 
                  151 50 152 -1 
                  150 51 151 -1 
                  149 52 150 -1 
                  148 53 149 -1 
                  147 54 148 -1 
                  146 55 147 -1 
                  145 56 146 -1 
                  10 8 145 -1 
                  154 24 88 -1 
                  155 88 87 -1 
                  156 87 86 -1 
                  157 86 85 -1 
                  158 85 84 -1 
                  159 84 83 -1 
                  160 83 82 -1 
                  161 82 81 -1 
                  21 81 22 -1 
                  161 81 21 -1 
                  160 82 161 -1 
                  159 83 160 -1 
                  158 84 159 -1 
                  157 85 158 -1 
                  156 86 157 -1 
                  155 87 156 -1 
                  154 88 155 -1 
                  26 24 154 -1 
                  162 23 112 -1 
                  163 112 111 -1 
                  164 111 110 -1 
                  165 110 109 -1 
                  166 109 108 -1 
                  167 108 107 -1 
                  168 107 106 -1 
                  169 106 105 -1 
                  17 105 18 -1 
                  169 105 17 -1 
                  168 106 169 -1 
                  167 107 168 -1 
                  166 108 167 -1 
                  165 109 166 -1 
                  164 110 165 -1 
                  163 111 164 -1 
                  162 112 163 -1 
                  20 23 162 -1 
                  170 28 96 -1 
                  171 96 95 -1 
                  172 95 94 -1 
                  173 94 93 -1 
                  174 93 92 -1 
                  175 92 91 -1 
                  176 91 90 -1 
                  177 90 89 -1 
                  27 89 25 -1 
                  177 89 27 -1 
                  176 90 177 -1 
                  175 91 176 -1 
                  174 92 175 -1 
                  173 93 174 -1 
                  172 94 173 -1 
                  171 95 172 -1 
                  170 96 171 -1 
                  30 28 170 -1 
                  178 12 64 -1 
                  179 64 63 -1 
                  180 63 62 -1 
                  181 62 61 -1 
                  182 61 60 -1 
                  183 60 59 -1 
                  184 59 58 -1 
                  185 58 57 -1 
                  11 57 9 -1 
                  185 57 11 -1 
                  184 58 185 -1 
                  183 59 184 -1 
                  182 60 183 -1 
                  181 61 182 -1 
                  180 62 181 -1 
                  179 63 180 -1 
                  178 64 179 -1 
                  14 12 178 -1 
                  186 7 80 -1 
                  187 80 79 -1 
                  188 79 78 -1 
                  189 78 77 -1 
                  190 77 76 -1 
                  191 76 75 -1 
                  192 75 74 -1 
                  193 74 73 -1 
                  1 73 2 -1 
                  193 73 1 -1 
                  192 74 193 -1 
                  191 75 192 -1 
                  190 76 191 -1 
                  189 77 190 -1 
                  188 78 189 -1 
                  187 79 188 -1 
                  186 80 187 -1 
                  4 7 186 -1 
                  194 3 72 -1 
                  195 72 71 -1 
                  196 71 70 -1 
                  197 70 69 -1 
                  198 69 68 -1 
                  199 68 67 -1 
                  200 67 66 -1 
                  201 66 65 -1 
                  15 65 13 -1 
                  201 65 15 -1 
                  200 66 201 -1 
                  199 67 200 -1 
                  198 68 199 -1 
                  197 69 198 -1 
                  196 70 197 -1 
                  195 71 196 -1 
                  194 72 195 -1 
                  0 3 194 -1 
                  202 19 104 -1 
                  203 104 103 -1 
                  204 103 102 -1 
                  205 102 101 -1 
                  206 101 100 -1 
                  207 100 99 -1 
                  208 99 98 -1 
                  209 98 97 -1 
                  31 97 29 -1 
                  209 97 31 -1 
                  208 98 209 -1 
                  207 99 208 -1 
                  206 100 207 -1 
                  205 101 206 -1 
                  204 102 205 -1 
                  203 103 204 -1 
                  202 104 203 -1 
                  16 19 202 -1 
                  210 44 120 -1 
                  211 120 119 -1 
                  212 119 118 -1 
                  213 118 117 -1 
                  214 117 116 -1 
                  215 116 115 -1 
                  216 115 114 -1 
                  217 114 113 -1 
                  41 113 42 -1 
                  217 113 41 -1 
                  216 114 217 -1 
                  215 115 216 -1 
                  214 116 215 -1 
                  213 117 214 -1 
                  212 118 213 -1 
                  211 119 212 -1 
                  210 120 211 -1 
                  46 44 210 -1 
                  218 32 128 -1 
                  219 128 127 -1 
                  220 127 126 -1 
                  221 126 125 -1 
                  222 125 124 -1 
                  223 124 123 -1 
                  224 123 122 -1 
                  225 122 121 -1 
                  47 121 45 -1 
                  225 121 47 -1 
                  224 122 225 -1 
                  223 123 224 -1 
                  222 124 223 -1 
                  221 125 222 -1 
                  220 126 221 -1 
                  219 127 220 -1 
                  218 128 219 -1 
                  34 32 218 -1 
                  226 36 136 -1 
                  227 136 135 -1 
                  228 135 134 -1 
                  229 134 133 -1 
                  230 133 132 -1 
                  231 132 131 -1 
                  232 131 130 -1 
                  233 130 129 -1 
                  35 129 33 -1 
                  233 129 35 -1 
                  232 130 233 -1 
                  231 131 232 -1 
                  230 132 231 -1 
                  229 133 230 -1 
                  228 134 229 -1 
                  227 135 228 -1 
                  226 136 227 -1 
                  38 36 226 -1 
                  234 43 144 -1 
                  235 144 143 -1 
                  236 143 142 -1 
                  237 142 141 -1 
                  238 141 140 -1 
                  239 140 139 -1 
                  240 139 138 -1 
                  241 138 137 -1 
                  39 137 37 -1 
                  241 137 39 -1 
                  240 138 241 -1 
                  239 139 240 -1 
                  238 140 239 -1 
                  237 141 238 -1 
                  236 142 237 -1 
                  235 143 236 -1 
                  234 144 235 -1 
                  40 43 234 -1 
                ]
                normalIndex [
                  2 0 3 -1 
                  2 1 0 -1 
                  6 4 7 -1 
                  6 5 4 -1 
                  10 8 11 -1 
                  10 9 8 -1 
                  14 13 12 -1 
                  15 14 12 -1 
                  37 16 17 -1 
                  19 17 18 -1 
                  20 17 19 -1 
                  21 17 20 -1 
                  22 17 21 -1 
                  23 17 22 -1 
                  24 17 23 -1 
                  25 17 24 -1 
                  26 17 25 -1 
                  27 17 26 -1 
                  28 17 27 -1 
                  37 17 28 -1 
                  30 28 29 -1 
                  31 28 30 -1 
                  32 28 31 -1 
                  33 28 32 -1 
                  34 28 33 -1 
                  35 28 34 -1 
                  36 28 35 -1 
                  37 28 36 -1 
                  38 16 37 -1 
                  47 16 38 -1 
                  40 38 39 -1 
                  41 38 40 -1 
                  42 38 41 -1 
                  43 38 42 -1 
                  44 38 43 -1 
                  45 38 44 -1 
                  46 38 45 -1 
                  47 38 46 -1 
                  48 16 47 -1 
                  49 16 48 -1 
                  50 16 49 -1 
                  51 16 50 -1 
                  52 16 51 -1 
                  53 16 52 -1 
                  54 16 53 -1 
                  55 16 54 -1 
                  56 16 55 -1 
                  59 57 60 -1 
                  59 58 57 -1 
                  63 61 64 -1 
                  63 62 61 -1 
                  67 65 68 -1 
                  67 66 65 -1 
                  71 69 72 -1 
                  71 70 69 -1 
                  93 73 74 -1 
                  76 74 75 -1 
                  77 74 76 -1 
                  78 74 77 -1 
                  79 74 78 -1 
                  80 74 79 -1 
                  81 74 80 -1 
                  82 74 81 -1 
                  83 74 82 -1 
                  84 74 83 -1 
                  93 74 84 -1 
                  86 84 85 -1 
                  87 84 86 -1 
                  88 84 87 -1 
                  89 84 88 -1 
                  90 84 89 -1 
                  91 84 90 -1 
                  92 84 91 -1 
                  93 84 92 -1 
                  94 73 93 -1 
                  103 73 94 -1 
                  96 94 95 -1 
                  97 94 96 -1 
                  98 94 97 -1 
                  99 94 98 -1 
                  100 94 99 -1 
                  101 94 100 -1 
                  102 94 101 -1 
                  103 94 102 -1 
                  104 73 103 -1 
                  105 73 104 -1 
                  106 73 105 -1 
                  107 73 106 -1 
                  108 73 107 -1 
                  109 73 108 -1 
                  110 73 109 -1 
                  111 73 110 -1 
                  112 73 111 -1 
                  115 114 113 -1 
                  116 115 113 -1 
                  119 117 120 -1 
                  119 118 117 -1 
                  123 122 121 -1 
                  124 123 121 -1 
                  127 126 125 -1 
                  128 127 125 -1 
                  149 129 130 -1 
                  132 130 131 -1 
                  133 130 132 -1 
                  134 130 133 -1 
                  135 130 134 -1 
                  136 130 135 -1 
                  137 130 136 -1 
                  138 130 137 -1 
                  139 130 138 -1 
                  140 130 139 -1 
                  149 130 140 -1 
                  142 140 141 -1 
                  143 140 142 -1 
                  144 140 143 -1 
                  145 140 144 -1 
                  146 140 145 -1 
                  147 140 146 -1 
                  148 140 147 -1 
                  149 140 148 -1 
                  150 129 149 -1 
                  159 129 150 -1 
                  152 150 151 -1 
                  153 150 152 -1 
                  154 150 153 -1 
                  155 150 154 -1 
                  156 150 155 -1 
                  157 150 156 -1 
                  158 150 157 -1 
                  159 150 158 -1 
                  160 129 159 -1 
                  161 129 160 -1 
                  162 129 161 -1 
                  163 129 162 -1 
                  164 129 163 -1 
                  165 129 164 -1 
                  166 129 165 -1 
                  167 129 166 -1 
                  168 129 167 -1 
                  189 169 170 -1 
                  188 170 171 -1 
                  187 171 172 -1 
                  186 172 173 -1 
                  185 173 174 -1 
                  184 174 175 -1 
                  183 175 176 -1 
                  182 176 177 -1 
                  181 177 178 -1 
                  180 178 179 -1 
                  181 178 180 -1 
                  182 177 181 -1 
                  183 176 182 -1 
                  184 175 183 -1 
                  185 174 184 -1 
                  186 173 185 -1 
                  187 172 186 -1 
                  188 171 187 -1 
                  189 170 188 -1 
                  190 169 189 -1 
                  209 191 192 -1 
                  208 192 193 -1 
                  207 193 194 -1 
                  206 194 195 -1 
                  205 195 196 -1 
                  204 196 197 -1 
                  203 197 198 -1 
                  202 198 199 -1 
                  201 199 200 -1 
                  202 199 201 -1 
                  203 198 202 -1 
                  204 197 203 -1 
                  205 196 204 -1 
                  206 195 205 -1 
                  207 194 206 -1 
                  208 193 207 -1 
                  209 192 208 -1 
                  210 191 209 -1 
                  229 211 212 -1 
                  228 212 213 -1 
                  227 213 214 -1 
                  226 214 215 -1 
                  225 215 216 -1 
                  224 216 217 -1 
                  223 217 218 -1 
                  222 218 219 -1 
                  221 219 220 -1 
                  222 219 221 -1 
                  223 218 222 -1 
                  224 217 223 -1 
                  225 216 224 -1 
                  226 215 225 -1 
                  227 214 226 -1 
                  228 213 227 -1 
                  229 212 228 -1 
                  230 211 229 -1 
                  249 231 232 -1 
                  248 232 233 -1 
                  247 233 234 -1 
                  246 234 235 -1 
                  245 235 236 -1 
                  244 236 237 -1 
                  243 237 238 -1 
                  242 238 239 -1 
                  241 239 240 -1 
                  242 239 241 -1 
                  243 238 242 -1 
                  244 237 243 -1 
                  245 236 244 -1 
                  246 235 245 -1 
                  247 234 246 -1 
                  248 233 247 -1 
                  249 232 248 -1 
                  250 231 249 -1 
                  269 251 252 -1 
                  268 252 253 -1 
                  267 253 254 -1 
                  266 254 255 -1 
                  265 255 256 -1 
                  264 256 257 -1 
                  263 257 258 -1 
                  262 258 259 -1 
                  261 259 260 -1 
                  262 259 261 -1 
                  263 258 262 -1 
                  264 257 263 -1 
                  265 256 264 -1 
                  266 255 265 -1 
                  267 254 266 -1 
                  268 253 267 -1 
                  269 252 268 -1 
                  270 251 269 -1 
                  289 271 272 -1 
                  288 272 273 -1 
                  287 273 274 -1 
                  286 274 275 -1 
                  285 275 276 -1 
                  284 276 277 -1 
                  283 277 278 -1 
                  282 278 279 -1 
                  281 279 280 -1 
                  282 279 281 -1 
                  283 278 282 -1 
                  284 277 283 -1 
                  285 276 284 -1 
                  286 275 285 -1 
                  287 274 286 -1 
                  288 273 287 -1 
                  289 272 288 -1 
                  290 271 289 -1 
                  309 291 292 -1 
                  308 292 293 -1 
                  307 293 294 -1 
                  306 294 295 -1 
                  305 295 296 -1 
                  304 296 297 -1 
                  303 297 298 -1 
                  302 298 299 -1 
                  301 299 300 -1 
                  302 299 301 -1 
                  303 298 302 -1 
                  304 297 303 -1 
                  305 296 304 -1 
                  306 295 305 -1 
                  307 294 306 -1 
                  308 293 307 -1 
                  309 292 308 -1 
                  310 291 309 -1 
                  329 311 312 -1 
                  328 312 313 -1 
                  327 313 314 -1 
                  326 314 315 -1 
                  325 315 316 -1 
                  324 316 317 -1 
                  323 317 318 -1 
                  322 318 319 -1 
                  321 319 320 -1 
                  322 319 321 -1 
                  323 318 322 -1 
                  324 317 323 -1 
                  325 316 324 -1 
                  326 315 325 -1 
                  327 314 326 -1 
                  328 313 327 -1 
                  329 312 328 -1 
                  330 311 329 -1 
                  349 331 332 -1 
                  348 332 333 -1 
                  347 333 334 -1 
                  346 334 335 -1 
                  345 335 336 -1 
                  344 336 337 -1 
                  343 337 338 -1 
                  342 338 339 -1 
                  341 339 340 -1 
                  342 339 341 -1 
                  343 338 342 -1 
                  344 337 343 -1 
                  345 336 344 -1 
                  346 335 345 -1 
                  347 334 346 -1 
                  348 333 347 -1 
                  349 332 348 -1 
                  350 331 349 -1 
                  369 351 352 -1 
                  368 352 353 -1 
                  367 353 354 -1 
                  366 354 355 -1 
                  365 355 356 -1 
                  364 356 357 -1 
                  363 357 358 -1 
                  362 358 359 -1 
                  361 359 360 -1 
                  362 359 361 -1 
                  363 358 362 -1 
                  364 357 363 -1 
                  365 356 364 -1 
                  366 355 365 -1 
                  367 354 366 -1 
                  368 353 367 -1 
                  369 352 368 -1 
                  370 351 369 -1 
                  389 371 372 -1 
                  388 372 373 -1 
                  387 373 374 -1 
                  386 374 375 -1 
                  385 375 376 -1 
                  384 376 377 -1 
                  383 377 378 -1 
                  382 378 379 -1 
                  381 379 380 -1 
                  382 379 381 -1 
                  383 378 382 -1 
                  384 377 383 -1 
                  385 376 384 -1 
                  386 375 385 -1 
                  387 374 386 -1 
                  388 373 387 -1 
                  389 372 388 -1 
                  390 371 389 -1 
                  409 391 392 -1 
                  408 392 393 -1 
                  407 393 394 -1 
                  406 394 395 -1 
                  405 395 396 -1 
                  404 396 397 -1 
                  403 397 398 -1 
                  402 398 399 -1 
                  401 399 400 -1 
                  402 399 401 -1 
                  403 398 402 -1 
                  404 397 403 -1 
                  405 396 404 -1 
                  406 395 405 -1 
                  407 394 406 -1 
                  408 393 407 -1 
                  409 392 408 -1 
                  410 391 409 -1 
                ]
              }
            }
          ]
        }
      ]
    }
  ]
}
