ISO-10303-21;
HEADER;
FILE_DESCRIPTION (( 'STEP AP214' ),
    '1' );
FILE_NAME ('861400011YO2LF.STEP',
    '2022-05-24T06:19:38',
    ( '' ),
    ( '' ),
    'SwSTEP 2.0',
    'SolidWorks 2017',
    '' );
FILE_SCHEMA (( 'AUTOMOTIVE_DESIGN' ));
ENDSEC;

DATA;
#1 = DIRECTION ( 'NONE',  ( 2.493473522196344800E-016, -0.2588190451025174600, 0.9659258262890692000 ) ) ;
#2 = EDGE_CURVE ( 'NONE', #924, #421, #20, .T. ) ;
#3 = CARTESIAN_POINT ( 'NONE',  ( -0.1810254037844384000, -3.000000000000000000, 0.0000000000000000000 ) ) ;
#4 = AXIS2_PLACEMENT_3D ( 'NONE', #451, #160, #236 ) ;
#5 = VECTOR ( 'NONE', #433, 1000.000000000000000 ) ;
#6 = FACE_OUTER_BOUND ( 'NONE', #358, .T. ) ;
#7 = VERTEX_POINT ( 'NONE', #8 ) ;
#8 = CARTESIAN_POINT ( 'NONE',  ( 0.1810254037844384600, -3.000000000000000000, -0.1810254037844385400 ) ) ;
#9 = ORIENTED_EDGE ( 'NONE', *, *, #40, .T. ) ;
#10 = ORIENTED_EDGE ( 'NONE', *, *, #101, .F. ) ;
#11 = AXIS2_PLACEMENT_3D ( 'NONE', #710, #273, #787 ) ;
#12 = DIRECTION ( 'NONE',  ( 0.0000000000000000000, 1.000000000000000000, 0.0000000000000000000 ) ) ;
#13 = EDGE_CURVE ( 'NONE', #841, #163, #898, .T. ) ;
#14 = DIRECTION ( 'NONE',  ( -0.0000000000000000000, -1.000000000000000000, -0.0000000000000000000 ) ) ;
#15 = CARTESIAN_POINT ( 'NONE',  ( -0.3149999999999999500, 9.099999999999992500, 0.3150000000000000600 ) ) ;
#16 = CARTESIAN_POINT ( 'NONE',  ( -1.270000000000000200, 2.600000000000000100, -0.7699999999999998000 ) ) ;
#17 = LINE ( 'NONE', #154, #204 ) ;
#18 = VECTOR ( 'NONE', #338, 1000.000000000000100 ) ;
#19 = EDGE_CURVE ( 'NONE', #720, #749, #28, .T. ) ;
#20 = LINE ( 'NONE', #457, #945 ) ;
#21 = CARTESIAN_POINT ( 'NONE',  ( 0.3150000000000000600, 2.600000000000000100, 0.3149999999999998400 ) ) ;
#22 = ORIENTED_EDGE ( 'NONE', *, *, #146, .T. ) ;
#23 = MANIFOLD_SOLID_BREP ( 'Cut-Extrude2', #321 ) ;
#24 = EDGE_LOOP ( 'NONE', ( #107, #10, #182, #544 ) ) ;
#25 = EDGE_CURVE ( 'NONE', #925, #749, #401, .T. ) ;
#26 = LINE ( 'NONE', #635, #127 ) ;
#27 = DIRECTION ( 'NONE',  ( -0.0000000000000000000, -0.0000000000000000000, 1.000000000000000000 ) ) ;
#28 = LINE ( 'NONE', #528, #410 ) ;
#29 = VERTEX_POINT ( 'NONE', #597 ) ;
#30 = VERTEX_POINT ( 'NONE', #886 ) ;
#31 = CARTESIAN_POINT ( 'NONE',  ( -0.1810254037844379900, 9.600000000000001400, 0.0000000000000000000 ) ) ;
#32 = CARTESIAN_POINT ( 'NONE',  ( -0.3149999999999999500, -2.499999999999994200, -0.3149999999999999500 ) ) ;
#33 = AXIS2_PLACEMENT_3D ( 'NONE', #907, #842, #686 ) ;
#34 = DIRECTION ( 'NONE',  ( -8.604779146710352300E-017, 0.0000000000000000000, -1.000000000000000000 ) ) ;
#35 = CARTESIAN_POINT ( 'NONE',  ( -1.270000000000000200, 0.0000000000000000000, 0.7690000000000002400 ) ) ;
#36 = ADVANCED_FACE ( 'NONE', ( #589 ), #608, .F. ) ;
#37 = DIRECTION ( 'NONE',  ( 1.000000000000000000, 0.0000000000000000000, -3.441911658684140900E-016 ) ) ;
#38 = LINE ( 'NONE', #619, #136 ) ;
#39 = VECTOR ( 'NONE', #713, 1000.000000000000100 ) ;
#40 = EDGE_CURVE ( 'NONE', #388, #97, #601, .T. ) ;
#41 = VECTOR ( 'NONE', #325, 1000.000000000000000 ) ;
#42 = CARTESIAN_POINT ( 'NONE',  ( 0.3150000000000000600, -6.890954544295049700, 0.3149999999999998400 ) ) ;
#43 = ORIENTED_EDGE ( 'NONE', *, *, #262, .F. ) ;
#44 = PLANE ( 'NONE',  #126 ) ;
#45 = ORIENTED_EDGE ( 'NONE', *, *, #660, .T. ) ;
#46 = ADVANCED_FACE ( 'NONE', ( #730 ), #382, .T. ) ;
#47 = VERTEX_POINT ( 'NONE', #844 ) ;
#48 = CARTESIAN_POINT ( 'NONE',  ( 0.0000000000000000000, -3.000000000000000000, 0.0000000000000000000 ) ) ;
#49 = ADVANCED_FACE ( 'NONE', ( #218 ), #901, .T. ) ;
#50 = DIRECTION ( 'NONE',  ( 1.000000000000000000, 0.0000000000000000000, -8.604779146710352300E-017 ) ) ;
#51 = LINE ( 'NONE', #282, #833 ) ;
#52 = CARTESIAN_POINT ( 'NONE',  ( -1.270000000000000200, 0.0000000000000000000, 0.7700000000000002400 ) ) ;
#53 = VECTOR ( 'NONE', #918, 1000.000000000000000 ) ;
#54 = ADVANCED_FACE ( 'NONE', ( #283 ), #253, .T. ) ;
#55 = CARTESIAN_POINT ( 'NONE',  ( 0.7699999999999998000, 0.0000000000000000000, -1.269999999999999800 ) ) ;
#56 = LINE ( 'NONE', #620, #194 ) ;
#57 = VERTEX_POINT ( 'NONE', #550 ) ;
#58 = ORIENTED_EDGE ( 'NONE', *, *, #98, .T. ) ;
#59 = CARTESIAN_POINT ( 'NONE',  ( -0.3149999999999999500, -2.499999999999994200, -0.3149999999999999500 ) ) ;
#60 = CARTESIAN_POINT ( 'NONE',  ( 1.269999999999999800, 2.600000000000000100, -0.7699999999999998000 ) ) ;
#61 =( GEOMETRIC_REPRESENTATION_CONTEXT ( 3 ) GLOBAL_UNCERTAINTY_ASSIGNED_CONTEXT ( ( #668 ) ) GLOBAL_UNIT_ASSIGNED_CONTEXT ( ( #448, #168, #385 ) ) REPRESENTATION_CONTEXT ( 'NONE', 'WORKASPACE' ) );
#62 = DIRECTION ( 'NONE',  ( 0.0000000000000000000, 0.0000000000000000000, -1.000000000000000000 ) ) ;
#63 = PLANE ( 'NONE',  #411 ) ;
#64 = LINE ( 'NONE', #768, #161 ) ;
#65 = LINE ( 'NONE', #317, #243 ) ;
#66 = FACE_OUTER_BOUND ( 'NONE', #443, .T. ) ;
#67 = CARTESIAN_POINT ( 'NONE',  ( 0.3150000000000000600, -2.499999999999994200, 0.3149999999999998400 ) ) ;
#68 = ORIENTED_EDGE ( 'NONE', *, *, #649, .T. ) ;
#69 = VERTEX_POINT ( 'NONE', #16 ) ;
#70 = ORIENTED_EDGE ( 'NONE', *, *, #905, .F. ) ;
#71 = VERTEX_POINT ( 'NONE', #15 ) ;
#72 = CARTESIAN_POINT ( 'NONE',  ( 0.3150000000000001700, 0.5999999999999999800, 0.7690000000000001300 ) ) ;
#73 = PRESENTATION_LAYER_ASSIGNMENT (  '', '', ( #724 ) ) ;
#74 = FILL_AREA_STYLE ('',( #518 ) ) ;
#75 =( NAMED_UNIT ( * ) SI_UNIT ( $, .STERADIAN. ) SOLID_ANGLE_UNIT ( ) );
#76 = PRESENTATION_STYLE_ASSIGNMENT (( #158 ) ) ;
#77 = CARTESIAN_POINT ( 'NONE',  ( 0.1810254037844380400, 9.600000000000001400, -0.1810254037844381300 ) ) ;
#78 = CARTESIAN_POINT ( 'NONE',  ( 0.1810254037844380700, 9.600000000000001400, -1.557683619509153800E-017 ) ) ;
#79 =( LENGTH_UNIT ( ) NAMED_UNIT ( * ) SI_UNIT ( .MILLI., .METRE. ) );
#80 = FACE_OUTER_BOUND ( 'NONE', #580, .T. ) ;
#81 = ORIENTED_EDGE ( 'NONE', *, *, #262, .T. ) ;
#82 = DIRECTION ( 'NONE',  ( 0.0000000000000000000, 0.0000000000000000000, -1.000000000000000000 ) ) ;
#83 = EDGE_CURVE ( 'NONE', #777, #913, #704, .T. ) ;
#84 = EDGE_LOOP ( 'NONE', ( #248, #531, #696, #959, #95, #707, #378, #547 ) ) ;
#85 = CARTESIAN_POINT ( 'NONE',  ( 0.3150000000000000600, 2.600000000000000100, 0.3149999999999998400 ) ) ;
#86 = VERTEX_POINT ( 'NONE', #470 ) ;
#87 = DIRECTION ( 'NONE',  ( 0.0000000000000000000, -0.0000000000000000000, 1.000000000000000000 ) ) ;
#88 = PLANE ( 'NONE',  #380 ) ;
#89 = DIRECTION ( 'NONE',  ( -0.0000000000000000000, 1.000000000000000000, -0.0000000000000000000 ) ) ;
#90 = FACE_OUTER_BOUND ( 'NONE', #708, .T. ) ;
#91 = LINE ( 'NONE', #876, #944 ) ;
#92 = CARTESIAN_POINT ( 'NONE',  ( 0.1696603175178122700, -3.042415079379452900, -0.1696603175178123500 ) ) ;
#93 = LINE ( 'NONE', #689, #193 ) ;
#94 = CARTESIAN_POINT ( 'NONE',  ( 0.3150000000000000600, 9.099999999999992500, 0.3149999999999998400 ) ) ;
#95 = ORIENTED_EDGE ( 'NONE', *, *, #527, .F. ) ;
#96 = ORIENTED_EDGE ( 'NONE', *, *, #479, .F. ) ;
#97 = VERTEX_POINT ( 'NONE', #915 ) ;
#98 = EDGE_CURVE ( 'NONE', #732, #388, #56, .T. ) ;
#99 = PLANE ( 'NONE',  #604 ) ;
#100 = DIRECTION ( 'NONE',  ( -0.2505628070857285300, -0.9351131265310309600, 0.2505628070857286400 ) ) ;
#101 = EDGE_CURVE ( 'NONE', #7, #223, #579, .T. ) ;
#102 = DIRECTION ( 'NONE',  ( -0.0000000000000000000, -1.000000000000000000, -0.0000000000000000000 ) ) ;
#103 = ORIENTED_EDGE ( 'NONE', *, *, #252, .T. ) ;
#104 = DIRECTION ( 'NONE',  ( 0.0000000000000000000, -0.0000000000000000000, 1.000000000000000000 ) ) ;
#105 = EDGE_LOOP ( 'NONE', ( #767, #284, #96, #455, #654, #219 ) ) ;
#106 = EDGE_CURVE ( 'NONE', #827, #434, #256, .T. ) ;
#107 = ORIENTED_EDGE ( 'NONE', *, *, #744, .T. ) ;
#108 = AXIS2_PLACEMENT_3D ( 'NONE', #864, #492, #872 ) ;
#109 = CARTESIAN_POINT ( 'NONE',  ( -0.7700000000000002400, 0.0000000000000000000, 1.270000000000000200 ) ) ;
#110 = DIRECTION ( 'NONE',  ( 0.9659258262890689800, -0.2588190451025183500, -8.311578407321146400E-017 ) ) ;
#111 = LINE ( 'NONE', #291, #213 ) ;
#112 =( LENGTH_UNIT ( ) NAMED_UNIT ( * ) SI_UNIT ( .MILLI., .METRE. ) );
#113 = FACE_OUTER_BOUND ( 'NONE', #946, .T. ) ;
#114 = PLANE ( 'NONE',  #647 ) ;
#115 = FACE_OUTER_BOUND ( 'NONE', #731, .T. ) ;
#116 = ADVANCED_FACE ( 'NONE', ( #719 ), #327, .F. ) ;
#117 = ORIENTED_EDGE ( 'NONE', *, *, #150, .T. ) ;
#118 = ORIENTED_EDGE ( 'NONE', *, *, #200, .T. ) ;
#119 = ORIENTED_EDGE ( 'NONE', *, *, #288, .F. ) ;
#120 = DIRECTION ( 'NONE',  ( 0.7071067811865475700, 0.0000000000000000000, -0.7071067811865475700 ) ) ;
#121 = CARTESIAN_POINT ( 'NONE',  ( -1.270000000000000200, 0.0000000000000000000, 0.7690000000000002400 ) ) ;
#122 = PLANE ( 'NONE',  #437 ) ;
#123 = CARTESIAN_POINT ( 'NONE',  ( 0.3150000000000000000, -2.499999999999994200, -0.3150000000000001100 ) ) ;
#124 = ADVANCED_FACE ( 'NONE', ( #80 ), #393, .F. ) ;
#125 = LINE ( 'NONE', #950, #517 ) ;
#126 = AXIS2_PLACEMENT_3D ( 'NONE', #416, #255, #276 ) ;
#127 = VECTOR ( 'NONE', #187, 1000.000000000000000 ) ;
#128 = CARTESIAN_POINT ( 'NONE',  ( -0.7700000000000002400, 2.600000000000000100, 1.270000000000000200 ) ) ;
#129 = ORIENTED_EDGE ( 'NONE', *, *, #447, .F. ) ;
#130 = ORIENTED_EDGE ( 'NONE', *, *, #858, .F. ) ;
#131 = CARTESIAN_POINT ( 'NONE',  ( 0.3150000000000000000, 0.0000000000000000000, -0.3150000000000001100 ) ) ;
#132 = EDGE_CURVE ( 'NONE', #346, #513, #353, .T. ) ;
#133 = EDGE_CURVE ( 'NONE', #57, #532, #788, .T. ) ;
#134 = DIRECTION ( 'NONE',  ( -0.0000000000000000000, 1.000000000000000000, -0.0000000000000000000 ) ) ;
#135 = DIRECTION ( 'NONE',  ( 0.9659258262890692000, -0.2588190451025174600, -0.0000000000000000000 ) ) ;
#136 = VECTOR ( 'NONE', #912, 1000.000000000000000 ) ;
#137 = LINE ( 'NONE', #210, #920 ) ;
#138 = VECTOR ( 'NONE', #623, 1000.000000000000000 ) ;
#139 = AXIS2_PLACEMENT_3D ( 'NONE', #131, #495, #648 ) ;
#140 = ORIENTED_EDGE ( 'NONE', *, *, #231, .F. ) ;
#141 = ORIENTED_EDGE ( 'NONE', *, *, #809, .F. ) ;
#142 = CARTESIAN_POINT ( 'NONE',  ( -0.7700000000000002400, 2.600000000000000100, 1.270000000000000200 ) ) ;
#143 = EDGE_LOOP ( 'NONE', ( #816, #900, #498, #849, #626, #535 ) ) ;
#144 = CARTESIAN_POINT ( 'NONE',  ( -0.1810254037844379900, 9.600000000000001400, 0.0000000000000000000 ) ) ;
#145 = CARTESIAN_POINT ( 'NONE',  ( -1.270000000000000200, 0.5999999999999999800, 0.7690000000000002400 ) ) ;
#146 = EDGE_CURVE ( 'NONE', #841, #520, #672, .T. ) ;
#147 = CARTESIAN_POINT ( 'NONE',  ( 0.0000000000000000000, 0.0000000000000000000, 0.0000000000000000000 ) ) ;
#148 = FACE_OUTER_BOUND ( 'NONE', #693, .T. ) ;
#149 = VECTOR ( 'NONE', #632, 1000.000000000000000 ) ;
#150 = EDGE_CURVE ( 'NONE', #513, #71, #738, .T. ) ;
#151 = VECTOR ( 'NONE', #594, 1000.000000000000000 ) ;
#152 = ORIENTED_EDGE ( 'NONE', *, *, #432, .T. ) ;
#153 = ORIENTED_EDGE ( 'NONE', *, *, #98, .F. ) ;
#154 = CARTESIAN_POINT ( 'NONE',  ( -0.7700000000000002400, 0.0000000000000000000, 1.270000000000000200 ) ) ;
#155 = EDGE_CURVE ( 'NONE', #617, #71, #93, .T. ) ;
#156 = EDGE_CURVE ( 'NONE', #812, #883, #800, .T. ) ;
#157 = DIRECTION ( 'NONE',  ( 0.7071067811865474600, -0.0000000000000000000, 0.7071067811865474600 ) ) ;
#158 = SURFACE_STYLE_USAGE ( .BOTH. , #885 ) ;
#159 = PRODUCT_DEFINITION_SHAPE ( 'NONE', 'NONE',  #951 ) ;
#160 = DIRECTION ( 'NONE',  ( -2.493473522196344300E-016, -0.2588190451025183500, -0.9659258262890689800 ) ) ;
#161 = VECTOR ( 'NONE', #397, 1000.000000000000000 ) ;
#162 = FACE_OUTER_BOUND ( 'NONE', #143, .T. ) ;
#163 = VERTEX_POINT ( 'NONE', #400 ) ;
#164 = EDGE_LOOP ( 'NONE', ( #937, #616, #665, #521 ) ) ;
#165 = CARTESIAN_POINT ( 'NONE',  ( -1.270000000000000200, 0.5999999999999999800, -0.7689999999999996800 ) ) ;
#166 = EDGE_CURVE ( 'NONE', #195, #421, #846, .T. ) ;
#167 = ORIENTED_EDGE ( 'NONE', *, *, #709, .T. ) ;
#168 =( NAMED_UNIT ( * ) PLANE_ANGLE_UNIT ( ) SI_UNIT ( $, .RADIAN. ) );
#169 = ORIENTED_EDGE ( 'NONE', *, *, #25, .F. ) ;
#170 = DIRECTION ( 'NONE',  ( 1.000000000000000000, 0.0000000000000000000, -8.604779146710354700E-017 ) ) ;
#171 = DIRECTION ( 'NONE',  ( 0.7071067811865474600, 0.0000000000000000000, -0.7071067811865474600 ) ) ;
#172 = VECTOR ( 'NONE', #758, 1000.000000000000100 ) ;
#173 = LINE ( 'NONE', #52, #909 ) ;
#174 = ORIENTED_EDGE ( 'NONE', *, *, #247, .T. ) ;
#175 = EDGE_LOOP ( 'NONE', ( #9, #765, #129, #642 ) ) ;
#176 = ORIENTED_EDGE ( 'NONE', *, *, #383, .F. ) ;
#177 = DIRECTION ( 'NONE',  ( 0.0000000000000000000, 1.000000000000000000, 0.0000000000000000000 ) ) ;
#178 = DIRECTION ( 'NONE',  ( -0.7071067811865474600, 0.0000000000000000000, -0.7071067811865474600 ) ) ;
#179 = EDGE_CURVE ( 'NONE', #30, #86, #587, .T. ) ;
#180 = CARTESIAN_POINT ( 'NONE',  ( -1.270000000000000200, 0.0000000000000000000, 0.7690000000000002400 ) ) ;
#181 = VECTOR ( 'NONE', #515, 1000.000000000000000 ) ;
#182 = ORIENTED_EDGE ( 'NONE', *, *, #621, .F. ) ;
#183 = ORIENTED_EDGE ( 'NONE', *, *, #350, .F. ) ;
#184 = ORIENTED_EDGE ( 'NONE', *, *, #179, .T. ) ;
#185 = ORIENTED_EDGE ( 'NONE', *, *, #13, .F. ) ;
#186 = CARTESIAN_POINT ( 'NONE',  ( -1.270000000000000200, 0.0000000000000000000, 0.7690000000000002400 ) ) ;
#187 = DIRECTION ( 'NONE',  ( 1.000000000000000000, 0.0000000000000000000, -3.441911658684140900E-016 ) ) ;
#188 = ADVANCED_FACE ( 'NONE', ( #662 ), #114, .F. ) ;
#189 = PRODUCT_DEFINITION_FORMATION_WITH_SPECIFIED_SOURCE ( 'ANY', '', #838, .NOT_KNOWN. ) ;
#190 = MECHANICAL_DESIGN_GEOMETRIC_PRESENTATION_REPRESENTATION (  '', ( #776 ), #61 ) ;
#191 = LINE ( 'NONE', #534, #877 ) ;
#192 = PLANE ( 'NONE',  #108 ) ;
#193 = VECTOR ( 'NONE', #100, 1000.000000000000000 ) ;
#194 = VECTOR ( 'NONE', #837, 1000.000000000000000 ) ;
#195 = VERTEX_POINT ( 'NONE', #180 ) ;
#196 = ORIENTED_EDGE ( 'NONE', *, *, #156, .F. ) ;
#197 = EDGE_CURVE ( 'NONE', #513, #827, #933, .T. ) ;
#198 = ADVANCED_FACE ( 'NONE', ( #650 ), #271, .F. ) ;
#199 = EDGE_CURVE ( 'NONE', #733, #69, #465, .T. ) ;
#200 = EDGE_CURVE ( 'NONE', #913, #756, #763, .T. ) ;
#201 = DIRECTION ( 'NONE',  ( -8.604779146710352300E-017, 0.0000000000000000000, -1.000000000000000000 ) ) ;
#202 = LINE ( 'NONE', #35, #504 ) ;
#203 = CARTESIAN_POINT ( 'NONE',  ( 0.3150000000000000000, 9.099999999999992500, -0.3150000000000001100 ) ) ;
#204 = VECTOR ( 'NONE', #157, 1000.000000000000100 ) ;
#205 = ADVANCED_FACE ( 'NONE', ( #614 ), #701, .F. ) ;
#206 = VECTOR ( 'NONE', #618, 1000.000000000000000 ) ;
#207 = ORIENTED_EDGE ( 'NONE', *, *, #548, .F. ) ;
#208 = DIRECTION ( 'NONE',  ( 0.0000000000000000000, 1.000000000000000000, 0.0000000000000000000 ) ) ;
#209 = ORIENTED_EDGE ( 'NONE', *, *, #941, .T. ) ;
#210 = CARTESIAN_POINT ( 'NONE',  ( -1.270000000000000200, 0.5999999999999999800, 0.7690000000000002400 ) ) ;
#211 = EDGE_CURVE ( 'NONE', #57, #47, #496, .T. ) ;
#212 = CARTESIAN_POINT ( 'NONE',  ( -0.3149999999999999500, -2.499999999999994200, 0.3150000000000000600 ) ) ;
#213 = VECTOR ( 'NONE', #435, 1000.000000000000000 ) ;
#214 = DIRECTION ( 'NONE',  ( -0.0000000000000000000, 1.000000000000000000, -0.0000000000000000000 ) ) ;
#215 = VECTOR ( 'NONE', #14, 1000.000000000000000 ) ;
#216 = APPLICATION_CONTEXT ( 'automotive_design' ) ;
#217 = LINE ( 'NONE', #805, #329 ) ;
#218 = FACE_OUTER_BOUND ( 'NONE', #442, .T. ) ;
#219 = ORIENTED_EDGE ( 'NONE', *, *, #694, .F. ) ;
#220 = DIRECTION ( 'NONE',  ( -1.000000000000000000, 0.0000000000000000000, 2.581433744013106100E-016 ) ) ;
#221 = ORIENTED_EDGE ( 'NONE', *, *, #630, .F. ) ;
#222 = DIRECTION ( 'NONE',  ( 0.0000000000000000000, 0.0000000000000000000, 1.000000000000000000 ) ) ;
#223 = VERTEX_POINT ( 'NONE', #783 ) ;
#224 = DIRECTION ( 'NONE',  ( -0.0000000000000000000, 1.000000000000000000, -0.0000000000000000000 ) ) ;
#225 = PRESENTATION_LAYER_ASSIGNMENT (  '', '', ( #336 ) ) ;
#226 = DIRECTION ( 'NONE',  ( -0.2505628070857293100, -0.9351131265310305100, 0.2505628070857294200 ) ) ;
#227 = FILL_AREA_STYLE ('',( #365 ) ) ;
#228 = LINE ( 'NONE', #491, #702 ) ;
#229 = VECTOR ( 'NONE', #906, 1000.000000000000000 ) ;
#230 = DIRECTION ( 'NONE',  ( -0.7071067811865474600, -0.0000000000000000000, 0.7071067811865474600 ) ) ;
#231 = EDGE_CURVE ( 'NONE', #520, #402, #825, .T. ) ;
#232 = ORIENTED_EDGE ( 'NONE', *, *, #807, .F. ) ;
#233 = ORIENTED_EDGE ( 'NONE', *, *, #770, .F. ) ;
#234 = DIRECTION ( 'NONE',  ( 3.441911658684140900E-016, -0.0000000000000000000, 1.000000000000000000 ) ) ;
#235 = ORIENTED_EDGE ( 'NONE', *, *, #199, .F. ) ;
#236 = DIRECTION ( 'NONE',  ( -1.000000000000000000, -0.0000000000000000000, 2.581433744013106100E-016 ) ) ;
#237 = CARTESIAN_POINT ( 'NONE',  ( -0.7700000000000002400, 0.0000000000000000000, -1.269999999999999800 ) ) ;
#238 = AXIS2_PLACEMENT_3D ( 'NONE', #680, #239, #757 ) ;
#239 = DIRECTION ( 'NONE',  ( 3.441911658684140900E-016, 0.0000000000000000000, 1.000000000000000000 ) ) ;
#240 = CARTESIAN_POINT ( 'NONE',  ( 1.269999999999999800, 2.600000000000000100, 0.7700000000000002400 ) ) ;
#241 = CARTESIAN_POINT ( 'NONE',  ( 0.3150000000000001700, 0.5999999999999999800, 0.3149999999999998400 ) ) ;
#242 = DIRECTION ( 'NONE',  ( -8.604779146710352300E-017, 0.0000000000000000000, -1.000000000000000000 ) ) ;
#243 = VECTOR ( 'NONE', #835, 1000.000000000000000 ) ;
#244 = FACE_OUTER_BOUND ( 'NONE', #299, .T. ) ;
#245 =( GEOMETRIC_REPRESENTATION_CONTEXT ( 3 ) GLOBAL_UNCERTAINTY_ASSIGNED_CONTEXT ( ( #512 ) ) GLOBAL_UNIT_ASSIGNED_CONTEXT ( ( #578, #887, #75 ) ) REPRESENTATION_CONTEXT ( 'NONE', 'WORKASPACE' ) );
#246 = EDGE_LOOP ( 'NONE', ( #185, #22, #68, #445 ) ) ;
#247 = EDGE_CURVE ( 'NONE', #402, #29, #625, .T. ) ;
#248 = ORIENTED_EDGE ( 'NONE', *, *, #447, .T. ) ;
#249 = CARTESIAN_POINT ( 'NONE',  ( -1.270000000000000500, 0.5999999999999999800, -0.3149999999999996100 ) ) ;
#250 = VERTEX_POINT ( 'NONE', #480 ) ;
#251 = CARTESIAN_POINT ( 'NONE',  ( 1.269999999999999800, 0.5999999999999999800, 0.7690000000000002400 ) ) ;
#252 = EDGE_CURVE ( 'NONE', #556, #720, #26, .T. ) ;
#253 = PLANE ( 'NONE',  #572 ) ;
#254 = VECTOR ( 'NONE', #27, 1000.000000000000000 ) ;
#255 = DIRECTION ( 'NONE',  ( -1.000000000000000000, 0.0000000000000000000, 0.0000000000000000000 ) ) ;
#256 = LINE ( 'NONE', #476, #801 ) ;
#257 = EDGE_CURVE ( 'NONE', #250, #617, #441, .T. ) ;
#258 = ORIENTED_EDGE ( 'NONE', *, *, #2, .T. ) ;
#259 = ORIENTED_EDGE ( 'NONE', *, *, #319, .F. ) ;
#260 = DIRECTION ( 'NONE',  ( 0.0000000000000000000, 0.0000000000000000000, -1.000000000000000000 ) ) ;
#261 = ADVANCED_FACE ( 'NONE', ( #115 ), #44, .F. ) ;
#262 = EDGE_CURVE ( 'NONE', #733, #756, #399, .T. ) ;
#263 =( NAMED_UNIT ( * ) PLANE_ANGLE_UNIT ( ) SI_UNIT ( $, .RADIAN. ) );
#264 = DIRECTION ( 'NONE',  ( -0.9659258262890692000, -0.2588190451025174600, 8.311578407321148900E-017 ) ) ;
#265 = VECTOR ( 'NONE', #208, 1000.000000000000000 ) ;
#266 = LINE ( 'NONE', #72, #340 ) ;
#267 = LINE ( 'NONE', #128, #373 ) ;
#268 = PLANE ( 'NONE',  #474 ) ;
#269 = ADVANCED_FACE ( 'NONE', ( #66 ), #502, .F. ) ;
#270 = ORIENTED_EDGE ( 'NONE', *, *, #821, .F. ) ;
#271 = PLANE ( 'NONE',  #398 ) ;
#272 = ORIENTED_EDGE ( 'NONE', *, *, #155, .T. ) ;
#273 = DIRECTION ( 'NONE',  ( -3.324631362928459500E-016, -0.2588190451025174600, -0.9659258262890692000 ) ) ;
#274 = ORIENTED_EDGE ( 'NONE', *, *, #509, .F. ) ;
#275 = PLANE ( 'NONE',  #793 ) ;
#276 = DIRECTION ( 'NONE',  ( 0.0000000000000000000, 0.0000000000000000000, 1.000000000000000000 ) ) ;
#277 =( GEOMETRIC_REPRESENTATION_CONTEXT ( 3 ) GLOBAL_UNCERTAINTY_ASSIGNED_CONTEXT ( ( #360 ) ) GLOBAL_UNIT_ASSIGNED_CONTEXT ( ( #79, #585, #884 ) ) REPRESENTATION_CONTEXT ( 'NONE', 'WORKASPACE' ) );
#278 = ADVANCED_FACE ( 'NONE', ( #244 ), #192, .F. ) ;
#279 = COLOUR_RGB ( '',1.000000000000000000, 0.8117647058823529400, 0.5019607843137254800 ) ;
#280 = CARTESIAN_POINT ( 'NONE',  ( 1.269999999999999800, 0.0000000000000000000, 0.7700000000000002400 ) ) ;
#281 = VECTOR ( 'NONE', #698, 1000.000000000000200 ) ;
#282 = CARTESIAN_POINT ( 'NONE',  ( 0.3150000000000000000, 2.600000000000000100, -0.3150000000000001100 ) ) ;
#283 = FACE_OUTER_BOUND ( 'NONE', #778, .T. ) ;
#284 = ORIENTED_EDGE ( 'NONE', *, *, #821, .T. ) ;
#285 = VERTEX_POINT ( 'NONE', #722 ) ;
#286 = PLANE ( 'NONE',  #851 ) ;
#287 = ADVANCED_FACE ( 'NONE', ( #810 ), #286, .F. ) ;
#288 = EDGE_CURVE ( 'NONE', #812, #520, #878, .T. ) ;
#289 = DIRECTION ( 'NONE',  ( -1.000000000000000000, 0.0000000000000000000, 2.581433744013106100E-016 ) ) ;
#290 = DIRECTION ( 'NONE',  ( -0.0000000000000000000, -1.000000000000000000, -0.0000000000000000000 ) ) ;
#291 = CARTESIAN_POINT ( 'NONE',  ( -0.7700000000000002400, 2.600000000000000100, -1.269999999999999800 ) ) ;
#292 = CARTESIAN_POINT ( 'NONE',  ( 1.269999999999999800, 0.0000000000000000000, 0.7700000000000002400 ) ) ;
#293 = VECTOR ( 'NONE', #705, 1000.000000000000000 ) ;
#294 = LINE ( 'NONE', #60, #39 ) ;
#295 = VECTOR ( 'NONE', #928, 1000.000000000000000 ) ;
#296 = CARTESIAN_POINT ( 'NONE',  ( -1.270000000000000200, 0.0000000000000000000, 0.7700000000000002400 ) ) ;
#297 = EDGE_LOOP ( 'NONE', ( #167, #891, #692, #322 ) ) ;
#298 = EDGE_LOOP ( 'NONE', ( #628, #742, #697, #840 ) ) ;
#299 = EDGE_LOOP ( 'NONE', ( #752, #490, #948, #391 ) ) ;
#300 = CARTESIAN_POINT ( 'NONE',  ( 0.3150000000000000600, 9.099999999999992500, 0.3149999999999998400 ) ) ;
#301 = EDGE_CURVE ( 'NONE', #403, #477, #419, .T. ) ;
#302 = PLANE ( 'NONE',  #345 ) ;
#303 = DIRECTION ( 'NONE',  ( -8.604779146710354700E-017, 0.0000000000000000000, -1.000000000000000000 ) ) ;
#304 = EDGE_CURVE ( 'NONE', #558, #57, #267, .T. ) ;
#305 = LINE ( 'NONE', #718, #612 ) ;
#306 = COLOUR_RGB ( '',0.2509803921568627400, 0.2509803921568627400, 0.2509803921568627400 ) ;
#307 = ORIENTED_EDGE ( 'NONE', *, *, #301, .F. ) ;
#308 = DIRECTION ( 'NONE',  ( -0.9659258262890689800, -0.2588190451025183500, 0.0000000000000000000 ) ) ;
#309 = EDGE_CURVE ( 'NONE', #29, #841, #450, .T. ) ;
#310 = ORIENTED_EDGE ( 'NONE', *, *, #798, .T. ) ;
#311 = CARTESIAN_POINT ( 'NONE',  ( -0.3149999999999999500, -6.890954544295049700, -0.3149999999999999500 ) ) ;
#312 = DIRECTION ( 'NONE',  ( -0.2505628070857285300, -0.9351131265310309600, -0.2505628070857284800 ) ) ;
#313 = DIRECTION ( 'NONE',  ( -1.000000000000000000, 0.0000000000000000000, -0.0000000000000000000 ) ) ;
#314 = SURFACE_STYLE_USAGE ( .BOTH. , #823 ) ;
#315 = LINE ( 'NONE', #571, #427 ) ;
#316 = VECTOR ( 'NONE', #830, 1000.000000000000000 ) ;
#317 = CARTESIAN_POINT ( 'NONE',  ( -0.3149999999999999500, 9.099999999999992500, -0.3149999999999999500 ) ) ;
#318 = CARTESIAN_POINT ( 'NONE',  ( -0.7700000000000002400, 0.0000000000000000000, 1.270000000000000200 ) ) ;
#319 = EDGE_CURVE ( 'NONE', #86, #285, #600, .T. ) ;
#320 = VECTOR ( 'NONE', #290, 1000.000000000000000 ) ;
#321 = CLOSED_SHELL ( 'NONE', ( #711, #785, #124, #198, #205, #36, #278, #261, #188, #780, #563, #861, #803, #700, #269, #348, #633, #116 ) ) ;
#322 = ORIENTED_EDGE ( 'NONE', *, *, #257, .F. ) ;
#323 = CARTESIAN_POINT ( 'NONE',  ( -4.673050858527462400E-017, 9.600000000000001400, -0.1810254037844380700 ) ) ;
#324 = ORIENTED_EDGE ( 'NONE', *, *, #40, .F. ) ;
#325 = DIRECTION ( 'NONE',  ( 0.0000000000000000000, -0.0000000000000000000, 1.000000000000000000 ) ) ;
#326 = DIRECTION ( 'NONE',  ( -0.2505628070857293700, -0.9351131265310306300, -0.2505628070857292600 ) ) ;
#327 = PLANE ( 'NONE',  #238 ) ;
#328 = FACE_OUTER_BOUND ( 'NONE', #794, .T. ) ;
#329 = VECTOR ( 'NONE', #363, 1000.000000000000000 ) ;
#330 = ORIENTED_EDGE ( 'NONE', *, *, #760, .T. ) ;
#331 = CARTESIAN_POINT ( 'NONE',  ( -0.7700000000000002400, 2.600000000000000100, -1.269999999999999800 ) ) ;
#332 = AXIS2_PLACEMENT_3D ( 'NONE', #530, #82, #313 ) ;
#333 = VERTEX_POINT ( 'NONE', #939 ) ;
#334 = CARTESIAN_POINT ( 'NONE',  ( 0.7699999999999998000, 2.600000000000000100, -1.269999999999999800 ) ) ;
#335 = ORIENTED_EDGE ( 'NONE', *, *, #304, .F. ) ;
#336 = STYLED_ITEM ( 'NONE', ( #76 ), #712 ) ;
#337 = EDGE_CURVE ( 'NONE', #29, #346, #217, .T. ) ;
#338 = DIRECTION ( 'NONE',  ( -0.7071067811865474600, -0.0000000000000000000, 0.7071067811865474600 ) ) ;
#339 = LINE ( 'NONE', #539, #784 ) ;
#340 = VECTOR ( 'NONE', #303, 1000.000000000000000 ) ;
#341 = VECTOR ( 'NONE', #817, 1000.000000000000000 ) ;
#342 = CARTESIAN_POINT ( 'NONE',  ( 0.1810254037844384900, -3.000000000000000000, -1.557683619509157800E-017 ) ) ;
#343 = ORIENTED_EDGE ( 'NONE', *, *, #146, .F. ) ;
#344 = VERTEX_POINT ( 'NONE', #503 ) ;
#345 = AXIS2_PLACEMENT_3D ( 'NONE', #78, #264, #904 ) ;
#346 = VERTEX_POINT ( 'NONE', #868 ) ;
#347 = DIRECTION ( 'NONE',  ( 1.000000000000000000, -0.0000000000000000000, 0.0000000000000000000 ) ) ;
#348 = ADVANCED_FACE ( 'NONE', ( #836 ), #425, .F. ) ;
#349 = DIRECTION ( 'NONE',  ( 0.7071067811865474600, 0.0000000000000000000, 0.7071067811865474600 ) ) ;
#350 = EDGE_CURVE ( 'NONE', #86, #556, #889, .T. ) ;
#351 = DIRECTION ( 'NONE',  ( -0.0000000000000000000, 1.000000000000000000, 0.0000000000000000000 ) ) ;
#352 = LINE ( 'NONE', #323, #613 ) ;
#353 = LINE ( 'NONE', #94, #428 ) ;
#354 = EDGE_LOOP ( 'NONE', ( #184, #387, #103, #902 ) ) ;
#355 = VERTEX_POINT ( 'NONE', #280 ) ;
#356 = ADVANCED_FACE ( 'NONE', ( #691 ), #275, .T. ) ;
#357 = EDGE_CURVE ( 'NONE', #333, #899, #173, .T. ) ;
#358 = EDGE_LOOP ( 'NONE', ( #330, #774, #826, #914 ) ) ;
#359 = CARTESIAN_POINT ( 'NONE',  ( -0.3149999999999999500, -6.890954544295049700, -0.3149999999999999500 ) ) ;
#360 = UNCERTAINTY_MEASURE_WITH_UNIT (LENGTH_MEASURE( 1.000000000000000100E-005 ), #79, 'distance_accuracy_value', 'NONE');
#361 = ADVANCED_FACE ( 'NONE', ( #519 ), #797, .T. ) ;
#362 = DIRECTION ( 'NONE',  ( -0.0000000000000000000, 0.0000000000000000000, 1.000000000000000000 ) ) ;
#363 = DIRECTION ( 'NONE',  ( 0.0000000000000000000, 1.000000000000000000, 0.0000000000000000000 ) ) ;
#364 = VECTOR ( 'NONE', #436, 1000.000000000000000 ) ;
#365 = FILL_AREA_STYLE_COLOUR ( '', #820 ) ;
#366 = ORIENTED_EDGE ( 'NONE', *, *, #726, .F. ) ;
#367 = ORIENTED_EDGE ( 'NONE', *, *, #337, .T. ) ;
#368 = ORIENTED_EDGE ( 'NONE', *, *, #132, .T. ) ;
#369 = CARTESIAN_POINT ( 'NONE',  ( -1.270000000000000200, 0.0000000000000000000, -0.7689999999999996800 ) ) ;
#370 = EDGE_CURVE ( 'NONE', #403, #777, #294, .T. ) ;
#371 = CARTESIAN_POINT ( 'NONE',  ( 1.269999999999999800, 0.0000000000000000000, -0.7699999999999998000 ) ) ;
#372 = LINE ( 'NONE', #471, #714 ) ;
#373 = VECTOR ( 'NONE', #795, 1000.000000000000000 ) ;
#374 = DIRECTION ( 'NONE',  ( 1.000000000000000000, -0.0000000000000000000, -0.0000000000000000000 ) ) ;
#375 = PRESENTATION_STYLE_ASSIGNMENT (( #314 ) ) ;
#376 = CARTESIAN_POINT ( 'NONE',  ( -0.7700000000000002400, 2.600000000000000100, 1.270000000000000200 ) ) ;
#377 = VERTEX_POINT ( 'NONE', #145 ) ;
#378 = ORIENTED_EDGE ( 'NONE', *, *, #357, .T. ) ;
#379 = DIRECTION ( 'NONE',  ( 1.000000000000000000, 0.0000000000000000000, -3.441911658684140900E-016 ) ) ;
#380 = AXIS2_PLACEMENT_3D ( 'NONE', #676, #456, #87 ) ;
#381 = PLANE ( 'NONE',  #673 ) ;
#382 = PLANE ( 'NONE',  #590 ) ;
#383 = EDGE_CURVE ( 'NONE', #720, #30, #266, .T. ) ;
#384 = LINE ( 'NONE', #42, #598 ) ;
#385 =( NAMED_UNIT ( * ) SI_UNIT ( $, .STERADIAN. ) SOLID_ANGLE_UNIT ( ) );
#386 = VECTOR ( 'NONE', #326, 999.9999999999998900 ) ;
#387 = ORIENTED_EDGE ( 'NONE', *, *, #350, .T. ) ;
#388 = VERTEX_POINT ( 'NONE', #446 ) ;
#389 = DIRECTION ( 'NONE',  ( 0.0000000000000000000, 0.0000000000000000000, -1.000000000000000000 ) ) ;
#390 = ORIENTED_EDGE ( 'NONE', *, *, #19, .T. ) ;
#391 = ORIENTED_EDGE ( 'NONE', *, *, #211, .T. ) ;
#392 = AXIS2_PLACEMENT_3D ( 'NONE', #415, #927, #929 ) ;
#393 = PLANE ( 'NONE',  #540 ) ;
#394 = DIRECTION ( 'NONE',  ( -8.604779146710354700E-017, 0.0000000000000000000, -1.000000000000000000 ) ) ;
#395 = CARTESIAN_POINT ( 'NONE',  ( 1.269999999999999800, 0.0000000000000000000, -0.7689999999999996800 ) ) ;
#396 = CARTESIAN_POINT ( 'NONE',  ( -0.3149999999999999500, 9.099999999999992500, 0.3150000000000000600 ) ) ;
#397 = DIRECTION ( 'NONE',  ( -8.604779146710353500E-017, 0.0000000000000000000, -1.000000000000000000 ) ) ;
#398 = AXIS2_PLACEMENT_3D ( 'NONE', #930, #347, #260 ) ;
#399 = LINE ( 'NONE', #575, #956 ) ;
#400 = CARTESIAN_POINT ( 'NONE',  ( -0.3149999999999999500, 9.099999999999992500, -0.3149999999999999500 ) ) ;
#401 = LINE ( 'NONE', #85, #151 ) ;
#402 = VERTEX_POINT ( 'NONE', #67 ) ;
#403 = VERTEX_POINT ( 'NONE', #734 ) ;
#404 = EDGE_CURVE ( 'NONE', #285, #925, #703, .T. ) ;
#405 = CARTESIAN_POINT ( 'NONE',  ( 0.1696603175178123000, -3.042415079379452900, 0.1696603175178121600 ) ) ;
#406 = DIRECTION ( 'NONE',  ( 1.000000000000000000, 0.0000000000000000000, -3.441911658684140900E-016 ) ) ;
#407 = FILL_AREA_STYLE_COLOUR ( '', #279 ) ;
#408 = CARTESIAN_POINT ( 'NONE',  ( -1.270000000000000200, 0.0000000000000000000, 0.7700000000000002400 ) ) ;
#409 = LINE ( 'NONE', #240, #931 ) ;
#410 = VECTOR ( 'NONE', #89, 1000.000000000000000 ) ;
#411 = AXIS2_PLACEMENT_3D ( 'NONE', #507, #1, #220 ) ;
#412 = ORIENTED_EDGE ( 'NONE', *, *, #874, .T. ) ;
#413 = EDGE_LOOP ( 'NONE', ( #546, #911, #839, #570 ) ) ;
#414 = EDGE_CURVE ( 'NONE', #556, #925, #529, .T. ) ;
#415 = CARTESIAN_POINT ( 'NONE',  ( -0.7700000000000002400, 2.600000000000000100, -1.269999999999999800 ) ) ;
#416 = CARTESIAN_POINT ( 'NONE',  ( 1.269999999999999800, 2.600000000000000100, 0.7700000000000002400 ) ) ;
#417 = SHAPE_DEFINITION_REPRESENTATION ( #159, #712 ) ;
#418 = FACE_OUTER_BOUND ( 'NONE', #890, .T. ) ;
#419 = LINE ( 'NONE', #567, #320 ) ;
#420 = ADVANCED_FACE ( 'NONE', ( #148 ), #63, .F. ) ;
#421 = VERTEX_POINT ( 'NONE', #296 ) ;
#422 = ORIENTED_EDGE ( 'NONE', *, *, #744, .F. ) ;
#423 = EDGE_LOOP ( 'NONE', ( #478, #775, #644, #753, #533, #739, #871, #706 ) ) ;
#424 = CARTESIAN_POINT ( 'NONE',  ( -0.3149999999999999500, 0.0000000000000000000, -0.3149999999999999500 ) ) ;
#425 = PLANE ( 'NONE',  #139 ) ;
#426 = CARTESIAN_POINT ( 'NONE',  ( -0.3149999999999999500, 2.600000000000000100, 0.3150000000000000600 ) ) ;
#427 = VECTOR ( 'NONE', #725, 1000.000000000000000 ) ;
#428 = VECTOR ( 'NONE', #538, 1000.000000000000000 ) ;
#429 = EDGE_LOOP ( 'NONE', ( #58, #764, #651, #152 ) ) ;
#430 = CARTESIAN_POINT ( 'NONE',  ( -0.3149999999999999500, 0.5999999999999999800, 0.7690000000000002400 ) ) ;
#431 = ORIENTED_EDGE ( 'NONE', *, *, #301, .T. ) ;
#432 = EDGE_CURVE ( 'NONE', #899, #732, #638, .T. ) ;
#433 = DIRECTION ( 'NONE',  ( 1.000000000000000000, 0.0000000000000000000, -2.581433744013106100E-016 ) ) ;
#434 = VERTEX_POINT ( 'NONE', #77 ) ;
#435 = DIRECTION ( 'NONE',  ( -1.000000000000000000, -0.0000000000000000000, -0.0000000000000000000 ) ) ;
#436 = DIRECTION ( 'NONE',  ( 1.000000000000000000, -0.0000000000000000000, -0.0000000000000000000 ) ) ;
#437 = AXIS2_PLACEMENT_3D ( 'NONE', #342, #110, #34 ) ;
#438 = LINE ( 'NONE', #875, #895 ) ;
#439 = CARTESIAN_POINT ( 'NONE',  ( -0.7700000000000002400, 2.600000000000000100, 1.270000000000000200 ) ) ;
#440 = FACE_OUTER_BOUND ( 'NONE', #792, .T. ) ;
#441 = LINE ( 'NONE', #31, #295 ) ;
#442 = EDGE_LOOP ( 'NONE', ( #499, #862, #500, #209 ) ) ;
#443 = EDGE_LOOP ( 'NONE', ( #555, #857, #685, #183 ) ) ;
#444 = ORIENTED_EDGE ( 'NONE', *, *, #726, .T. ) ;
#445 = ORIENTED_EDGE ( 'NONE', *, *, #577, .T. ) ;
#446 = CARTESIAN_POINT ( 'NONE',  ( 1.269999999999999800, 0.5999999999999999800, -0.7689999999999996800 ) ) ;
#447 = EDGE_CURVE ( 'NONE', #486, #377, #91, .T. ) ;
#448 =( LENGTH_UNIT ( ) NAMED_UNIT ( * ) SI_UNIT ( .MILLI., .METRE. ) );
#449 = LINE ( 'NONE', #186, #293 ) ;
#450 = LINE ( 'NONE', #59, #682 ) ;
#451 = CARTESIAN_POINT ( 'NONE',  ( -4.673050858527473500E-017, -3.000000000000000000, -0.1810254037844384900 ) ) ;
#452 = VECTOR ( 'NONE', #102, 1000.000000000000000 ) ;
#453 = CARTESIAN_POINT ( 'NONE',  ( 0.0000000000000000000, 9.600000000000001400, 0.0000000000000000000 ) ) ;
#454 = EDGE_LOOP ( 'NONE', ( #45, #270, #879, #629 ) ) ;
#455 = ORIENTED_EDGE ( 'NONE', *, *, #610, .F. ) ;
#456 = DIRECTION ( 'NONE',  ( -0.0000000000000000000, 1.000000000000000000, 0.0000000000000000000 ) ) ;
#457 = CARTESIAN_POINT ( 'NONE',  ( -1.270000000000000200, 2.600000000000000100, 0.7700000000000002400 ) ) ;
#458 = DIRECTION ( 'NONE',  ( -1.000000000000000000, 0.0000000000000000000, 2.581433744013106100E-016 ) ) ;
#459 = PLANE ( 'NONE',  #843 ) ;
#460 = CARTESIAN_POINT ( 'NONE',  ( 0.0000000000000000000, 2.600000000000000100, 0.0000000000000000000 ) ) ;
#461 = EDGE_CURVE ( 'NONE', #377, #97, #137, .T. ) ;
#462 = LINE ( 'NONE', #850, #865 ) ;
#463 = DIRECTION ( 'NONE',  ( 0.7071067811865474600, 0.0000000000000000000, -0.7071067811865474600 ) ) ;
#464 = VECTOR ( 'NONE', #224, 1000.000000000000000 ) ;
#465 = LINE ( 'NONE', #487, #18 ) ;
#466 = ORIENTED_EDGE ( 'NONE', *, *, #679, .T. ) ;
#467 = ORIENTED_EDGE ( 'NONE', *, *, #905, .T. ) ;
#468 = CARTESIAN_POINT ( 'NONE',  ( -1.270000000000000200, 2.600000000000000100, -0.7699999999999998000 ) ) ;
#469 = ORIENTED_EDGE ( 'NONE', *, *, #621, .T. ) ;
#470 = CARTESIAN_POINT ( 'NONE',  ( -0.3149999999999999500, 0.5999999999999999800, -0.3149999999999999500 ) ) ;
#471 = CARTESIAN_POINT ( 'NONE',  ( 1.269999999999999800, 0.0000000000000000000, -0.7699999999999998000 ) ) ;
#472 = FACE_OUTER_BOUND ( 'NONE', #175, .T. ) ;
#473 = CARTESIAN_POINT ( 'NONE',  ( 0.7699999999999998000, 2.600000000000000100, -1.269999999999999800 ) ) ;
#474 = AXIS2_PLACEMENT_3D ( 'NONE', #859, #916, #782 ) ;
#475 = VECTOR ( 'NONE', #134, 1000.000000000000000 ) ;
#476 = CARTESIAN_POINT ( 'NONE',  ( 0.1810254037844380700, 9.600000000000001400, -1.557683619509153800E-017 ) ) ;
#477 = VERTEX_POINT ( 'NONE', #371 ) ;
#478 = ORIENTED_EDGE ( 'NONE', *, *, #952, .T. ) ;
#479 = EDGE_CURVE ( 'NONE', #355, #344, #855, .T. ) ;
#480 = CARTESIAN_POINT ( 'NONE',  ( -0.1810254037844379900, 9.600000000000001400, -0.1810254037844380200 ) ) ;
#481 = DIRECTION ( 'NONE',  ( -0.7071067811865475700, 0.0000000000000000000, 0.7071067811865475700 ) ) ;
#482 = PRODUCT_DEFINITION_CONTEXT ( 'detailed design', #216, 'design' ) ;
#483 = LINE ( 'NONE', #882, #505 ) ;
#484 = VECTOR ( 'NONE', #582, 1000.000000000000000 ) ;
#485 = AXIS2_PLACEMENT_3D ( 'NONE', #645, #873, #362 ) ;
#486 = VERTEX_POINT ( 'NONE', #818 ) ;
#487 = CARTESIAN_POINT ( 'NONE',  ( -1.270000000000000200, 2.600000000000000100, -0.7699999999999998000 ) ) ;
#488 = ORIENTED_EDGE ( 'NONE', *, *, #150, .F. ) ;
#489 = DIRECTION ( 'NONE',  ( 0.0000000000000000000, -0.0000000000000000000, 1.000000000000000000 ) ) ;
#490 = ORIENTED_EDGE ( 'NONE', *, *, #798, .F. ) ;
#491 = CARTESIAN_POINT ( 'NONE',  ( -0.3150000000000000000, -3.000000000000000000, 0.1810254037844385200 ) ) ;
#492 = DIRECTION ( 'NONE',  ( -0.7071067811865475700, 0.0000000000000000000, -0.7071067811865475700 ) ) ;
#493 = PLANE ( 'NONE',  #609 ) ;
#494 = VECTOR ( 'NONE', #226, 1000.000000000000000 ) ;
#495 = DIRECTION ( 'NONE',  ( -2.581433744013106100E-016, 0.0000000000000000000, -1.000000000000000000 ) ) ;
#496 = LINE ( 'NONE', #562, #53 ) ;
#497 = EDGE_CURVE ( 'NONE', #924, #558, #125, .T. ) ;
#498 = ORIENTED_EDGE ( 'NONE', *, *, #357, .F. ) ;
#499 = ORIENTED_EDGE ( 'NONE', *, *, #337, .F. ) ;
#500 = ORIENTED_EDGE ( 'NONE', *, *, #13, .T. ) ;
#501 = DIRECTION ( 'NONE',  ( 0.0000000000000000000, 0.0000000000000000000, 1.000000000000000000 ) ) ;
#502 = PLANE ( 'NONE',  #485 ) ;
#503 = CARTESIAN_POINT ( 'NONE',  ( 1.269999999999999800, 0.0000000000000000000, 0.7690000000000002400 ) ) ;
#504 = VECTOR ( 'NONE', #880, 1000.000000000000000 ) ;
#505 = VECTOR ( 'NONE', #735, 1000.000000000000000 ) ;
#506 = VECTOR ( 'NONE', #852, 1000.000000000000000 ) ;
#507 = CARTESIAN_POINT ( 'NONE',  ( -4.673050858527462400E-017, 9.600000000000001400, -0.1810254037844380700 ) ) ;
#508 = ORIENTED_EDGE ( 'NONE', *, *, #548, .T. ) ;
#509 = EDGE_CURVE ( 'NONE', #617, #827, #808, .T. ) ;
#510 = CARTESIAN_POINT ( 'NONE',  ( -1.270000000000000200, 0.0000000000000000000, -0.7689999999999996800 ) ) ;
#511 = ORIENTED_EDGE ( 'NONE', *, *, #497, .F. ) ;
#512 = UNCERTAINTY_MEASURE_WITH_UNIT (LENGTH_MEASURE( 1.000000000000000100E-005 ), #578, 'distance_accuracy_value', 'NONE');
#513 = VERTEX_POINT ( 'NONE', #300 ) ;
#514 = DIRECTION ( 'NONE',  ( 0.0000000000000000000, 0.0000000000000000000, -1.000000000000000000 ) ) ;
#515 = DIRECTION ( 'NONE',  ( -0.0000000000000000000, -1.000000000000000000, -0.0000000000000000000 ) ) ;
#516 = CARTESIAN_POINT ( 'NONE',  ( 0.3150000000000000000, 0.0000000000000000000, -0.3150000000000001100 ) ) ;
#517 = VECTOR ( 'NONE', #583, 1000.000000000000100 ) ;
#518 = FILL_AREA_STYLE_COLOUR ( '', #306 ) ;
#519 = FACE_OUTER_BOUND ( 'NONE', #246, .T. ) ;
#520 = VERTEX_POINT ( 'NONE', #212 ) ;
#521 = ORIENTED_EDGE ( 'NONE', *, *, #653, .T. ) ;
#522 = ORIENTED_EDGE ( 'NONE', *, *, #874, .F. ) ;
#523 = DIRECTION ( 'NONE',  ( -1.000000000000000000, 0.0000000000000000000, -0.0000000000000000000 ) ) ;
#524 = PRODUCT_CONTEXT ( 'NONE', #666, 'mechanical' ) ;
#525 = CARTESIAN_POINT ( 'NONE',  ( -0.1810254037844379900, 9.600000000000001400, 0.1810254037844380400 ) ) ;
#526 = PLANE ( 'NONE',  #332 ) ;
#527 = EDGE_CURVE ( 'NONE', #69, #924, #483, .T. ) ;
#528 = CARTESIAN_POINT ( 'NONE',  ( 0.3150000000000000600, 0.0000000000000000000, 0.3149999999999998400 ) ) ;
#529 = LINE ( 'NONE', #584, #736 ) ;
#530 = CARTESIAN_POINT ( 'NONE',  ( -1.270000000000000200, 0.0000000000000000000, -0.7689999999999996800 ) ) ;
#531 = ORIENTED_EDGE ( 'NONE', *, *, #847, .T. ) ;
#532 = VERTEX_POINT ( 'NONE', #658 ) ;
#533 = ORIENTED_EDGE ( 'NONE', *, *, #304, .T. ) ;
#534 = CARTESIAN_POINT ( 'NONE',  ( -0.3149999999999999500, -6.890954544295049700, 0.3150000000000000600 ) ) ;
#535 = ORIENTED_EDGE ( 'NONE', *, *, #717, .F. ) ;
#536 = DIRECTION ( 'NONE',  ( 0.7071067811865475700, -0.0000000000000000000, 0.7071067811865475700 ) ) ;
#537 = CARTESIAN_POINT ( 'NONE',  ( -1.270000000000000200, 0.0000000000000000000, -0.7699999999999998000 ) ) ;
#538 = DIRECTION ( 'NONE',  ( 8.604779146710352300E-017, 0.0000000000000000000, 1.000000000000000000 ) ) ;
#539 = CARTESIAN_POINT ( 'NONE',  ( 0.1696603175178119400, 9.642415079379453900, -0.1696603175178120200 ) ) ;
#540 = AXIS2_PLACEMENT_3D ( 'NONE', #468, #536, #463 ) ;
#541 = CARTESIAN_POINT ( 'NONE',  ( 0.1810254037844385200, -3.000000000000000000, 0.3149999999999998400 ) ) ;
#542 = VECTOR ( 'NONE', #514, 1000.000000000000000 ) ;
#543 = VECTOR ( 'NONE', #573, 1000.000000000000000 ) ;
#544 = ORIENTED_EDGE ( 'NONE', *, *, #247, .F. ) ;
#545 = DIRECTION ( 'NONE',  ( 3.324631362928458600E-016, -0.2588190451025183500, 0.9659258262890689800 ) ) ;
#546 = ORIENTED_EDGE ( 'NONE', *, *, #156, .T. ) ;
#547 = ORIENTED_EDGE ( 'NONE', *, *, #894, .T. ) ;
#548 = EDGE_CURVE ( 'NONE', #558, #814, #659, .T. ) ;
#549 = DIRECTION ( 'NONE',  ( -0.0000000000000000000, 1.000000000000000000, 0.0000000000000000000 ) ) ;
#550 = CARTESIAN_POINT ( 'NONE',  ( 0.7699999999999998000, 2.600000000000000100, 1.270000000000000200 ) ) ;
#551 = SURFACE_STYLE_USAGE ( .BOTH. , #561 ) ;
#552 = SURFACE_STYLE_FILL_AREA ( #695 ) ;
#553 = CARTESIAN_POINT ( 'NONE',  ( -0.1810254037844384000, -3.000000000000000000, 0.1810254037844384600 ) ) ;
#554 = LINE ( 'NONE', #606, #215 ) ;
#555 = ORIENTED_EDGE ( 'NONE', *, *, #319, .T. ) ;
#556 = VERTEX_POINT ( 'NONE', #953 ) ;
#557 = CARTESIAN_POINT ( 'NONE',  ( 0.1810254037844381000, 9.600000000000001400, 0.1810254037844379300 ) ) ;
#558 = VERTEX_POINT ( 'NONE', #439 ) ;
#559 = CARTESIAN_POINT ( 'NONE',  ( -0.7700000000000002400, 2.600000000000000100, 1.270000000000000200 ) ) ;
#560 = EDGE_CURVE ( 'NONE', #30, #664, #681, .T. ) ;
#561 = SURFACE_SIDE_STYLE ('',( #552 ) ) ;
#562 = CARTESIAN_POINT ( 'NONE',  ( 0.7699999999999998000, 2.600000000000000100, 1.270000000000000200 ) ) ;
#563 = ADVANCED_FACE ( 'NONE', ( #162 ), #588, .F. ) ;
#564 = LINE ( 'NONE', #405, #386 ) ;
#565 = VECTOR ( 'NONE', #37, 1000.000000000000000 ) ;
#566 = ORIENTED_EDGE ( 'NONE', *, *, #560, .F. ) ;
#567 = CARTESIAN_POINT ( 'NONE',  ( 1.269999999999999800, 2.600000000000000100, -0.7699999999999998000 ) ) ;
#568 = EDGE_LOOP ( 'NONE', ( #141, #174, #367, #368 ) ) ;
#569 = DIRECTION ( 'NONE',  ( 1.000000000000000000, 0.0000000000000000000, -0.0000000000000000000 ) ) ;
#570 = ORIENTED_EDGE ( 'NONE', *, *, #807, .T. ) ;
#571 = CARTESIAN_POINT ( 'NONE',  ( -0.1696603175178122100, -3.042415079379452900, -0.1696603175178122400 ) ) ;
#572 = AXIS2_PLACEMENT_3D ( 'NONE', #766, #545, #406 ) ;
#573 = DIRECTION ( 'NONE',  ( -0.2505628070857293700, 0.9351131265310305100, 0.2505628070857294200 ) ) ;
#574 = ADVANCED_FACE ( 'NONE', ( #328 ), #741, .T. ) ;
#575 = CARTESIAN_POINT ( 'NONE',  ( -0.7700000000000002400, 2.600000000000000100, -1.269999999999999800 ) ) ;
#576 = LINE ( 'NONE', #92, #494 ) ;
#577 = EDGE_CURVE ( 'NONE', #71, #163, #65, .T. ) ;
#578 =( LENGTH_UNIT ( ) NAMED_UNIT ( * ) SI_UNIT ( .MILLI., .METRE. ) );
#579 = LINE ( 'NONE', #541, #138 ) ;
#580 = EDGE_LOOP ( 'NONE', ( #466, #233, #235, #81 ) ) ;
#581 = ORIENTED_EDGE ( 'NONE', *, *, #921, .T. ) ;
#582 = DIRECTION ( 'NONE',  ( 0.0000000000000000000, 0.0000000000000000000, 1.000000000000000000 ) ) ;
#583 = DIRECTION ( 'NONE',  ( 0.7071067811865474600, -0.0000000000000000000, 0.7071067811865474600 ) ) ;
#584 = CARTESIAN_POINT ( 'NONE',  ( -0.3149999999999999500, 0.0000000000000000000, 0.3150000000000000600 ) ) ;
#585 =( NAMED_UNIT ( * ) PLANE_ANGLE_UNIT ( ) SI_UNIT ( $, .RADIAN. ) );
#586 = VECTOR ( 'NONE', #230, 1000.000000000000100 ) ;
#587 = LINE ( 'NONE', #249, #856 ) ;
#588 = PLANE ( 'NONE',  #822 ) ;
#589 = FACE_OUTER_BOUND ( 'NONE', #687, .T. ) ;
#590 = AXIS2_PLACEMENT_3D ( 'NONE', #453, #177, #104 ) ;
#591 = ORIENTED_EDGE ( 'NONE', *, *, #288, .T. ) ;
#592 = EDGE_LOOP ( 'NONE', ( #118, #43, #615, #892 ) ) ;
#593 = DIRECTION ( 'NONE',  ( -0.0000000000000000000, -0.0000000000000000000, 1.000000000000000000 ) ) ;
#594 = DIRECTION ( 'NONE',  ( 1.000000000000000000, -0.0000000000000000000, -3.441911658684140900E-016 ) ) ;
#595 = CARTESIAN_POINT ( 'NONE',  ( 0.7699999999999998000, 0.0000000000000000000, 1.270000000000000200 ) ) ;
#596 = EDGE_CURVE ( 'NONE', #486, #388, #729, .T. ) ;
#597 = CARTESIAN_POINT ( 'NONE',  ( 0.3150000000000000000, -2.499999999999994200, -0.3150000000000001100 ) ) ;
#598 = VECTOR ( 'NONE', #634, 1000.000000000000000 ) ;
#599 = APPLICATION_PROTOCOL_DEFINITION ( 'draft international standard', 'automotive_design', 1998, #666 ) ;
#600 = LINE ( 'NONE', #424, #475 ) ;
#601 = LINE ( 'NONE', #251, #206 ) ;
#602 = ORIENTED_EDGE ( 'NONE', *, *, #404, .F. ) ;
#603 = ORIENTED_EDGE ( 'NONE', *, *, #211, .F. ) ;
#604 = AXIS2_PLACEMENT_3D ( 'NONE', #460, #549, #755 ) ;
#605 = ORIENTED_EDGE ( 'NONE', *, *, #653, .F. ) ;
#606 = CARTESIAN_POINT ( 'NONE',  ( 1.269999999999999800, 0.0000000000000000000, 0.7690000000000002400 ) ) ;
#607 = DIRECTION ( 'NONE',  ( -0.2505628070857285300, 0.9351131265310309600, 0.2505628070857285900 ) ) ;
#608 = PLANE ( 'NONE',  #750 ) ;
#609 = AXIS2_PLACEMENT_3D ( 'NONE', #121, #489, #569 ) ;
#610 = EDGE_CURVE ( 'NONE', #47, #355, #690, .T. ) ;
#611 = CARTESIAN_POINT ( 'NONE',  ( -0.1810254037844384000, -3.000000000000000000, -0.3149999999999999500 ) ) ;
#612 = VECTOR ( 'NONE', #781, 1000.000000000000000 ) ;
#613 = VECTOR ( 'NONE', #458, 1000.000000000000000 ) ;
#614 = FACE_OUTER_BOUND ( 'NONE', #922, .T. ) ;
#615 = ORIENTED_EDGE ( 'NONE', *, *, #952, .F. ) ;
#616 = ORIENTED_EDGE ( 'NONE', *, *, #509, .T. ) ;
#617 = VERTEX_POINT ( 'NONE', #525 ) ;
#618 = DIRECTION ( 'NONE',  ( -0.0000000000000000000, -0.0000000000000000000, 1.000000000000000000 ) ) ;
#619 = CARTESIAN_POINT ( 'NONE',  ( -1.270000000000000200, 2.600000000000000100, -0.7699999999999998000 ) ) ;
#620 = CARTESIAN_POINT ( 'NONE',  ( 1.269999999999999800, 0.0000000000000000000, -0.7689999999999996800 ) ) ;
#621 = EDGE_CURVE ( 'NONE', #29, #7, #576, .T. ) ;
#622 =( NAMED_UNIT ( * ) SI_UNIT ( $, .STERADIAN. ) SOLID_ANGLE_UNIT ( ) );
#623 = DIRECTION ( 'NONE',  ( 8.604779146710352300E-017, 0.0000000000000000000, 1.000000000000000000 ) ) ;
#624 = FACE_OUTER_BOUND ( 'NONE', #24, .T. ) ;
#625 = LINE ( 'NONE', #123, #506 ) ;
#626 = ORIENTED_EDGE ( 'NONE', *, *, #200, .F. ) ;
#627 = CARTESIAN_POINT ( 'NONE',  ( 0.1696603175178119900, 9.642415079379453900, 0.1696603175178118500 ) ) ;
#628 = ORIENTED_EDGE ( 'NONE', *, *, #414, .T. ) ;
#629 = ORIENTED_EDGE ( 'NONE', *, *, #461, .T. ) ;
#630 = EDGE_CURVE ( 'NONE', #532, #403, #409, .T. ) ;
#631 = DIRECTION ( 'NONE',  ( -1.000000000000000000, 0.0000000000000000000, 3.441911658684140900E-016 ) ) ;
#632 = DIRECTION ( 'NONE',  ( -1.000000000000000000, -0.0000000000000000000, -0.0000000000000000000 ) ) ;
#633 = ADVANCED_FACE ( 'NONE', ( #113 ), #459, .F. ) ;
#634 = DIRECTION ( 'NONE',  ( 0.0000000000000000000, 1.000000000000000000, 0.0000000000000000000 ) ) ;
#635 = CARTESIAN_POINT ( 'NONE',  ( -1.270000000000000500, 0.5999999999999999800, 0.3150000000000003900 ) ) ;
#636 = FACE_OUTER_BOUND ( 'NONE', #592, .T. ) ;
#637 = ADVANCED_FACE ( 'NONE', ( #418 ), #832, .T. ) ;
#638 = LINE ( 'NONE', #369, #364 ) ;
#639 = CARTESIAN_POINT ( 'NONE',  ( 1.269999999999999800, 2.600000000000000100, -0.7699999999999998000 ) ) ;
#640 = VECTOR ( 'NONE', #769, 1000.000000000000000 ) ;
#641 = PLANE ( 'NONE',  #11 ) ;
#642 = ORIENTED_EDGE ( 'NONE', *, *, #596, .T. ) ;
#643 = ORIENTED_EDGE ( 'NONE', *, *, #83, .F. ) ;
#644 = ORIENTED_EDGE ( 'NONE', *, *, #527, .T. ) ;
#645 = CARTESIAN_POINT ( 'NONE',  ( -0.3149999999999999500, 0.0000000000000000000, 0.3150000000000000600 ) ) ;
#646 = EDGE_LOOP ( 'NONE', ( #926, #643, #860, #431 ) ) ;
#647 = AXIS2_PLACEMENT_3D ( 'NONE', #639, #481, #349 ) ;
#648 = DIRECTION ( 'NONE',  ( -1.000000000000000000, 0.0000000000000000000, 2.581433744013106100E-016 ) ) ;
#649 = EDGE_CURVE ( 'NONE', #520, #71, #191, .T. ) ;
#650 = FACE_OUTER_BOUND ( 'NONE', #84, .T. ) ;
#651 = ORIENTED_EDGE ( 'NONE', *, *, #894, .F. ) ;
#652 = ADVANCED_FACE ( 'NONE', ( #440 ), #381, .T. ) ;
#653 = EDGE_CURVE ( 'NONE', #434, #250, #352, .T. ) ;
#654 = ORIENTED_EDGE ( 'NONE', *, *, #723, .F. ) ;
#655 = CARTESIAN_POINT ( 'NONE',  ( -0.1696603175178121900, -3.042415079379452900, 0.1696603175178122700 ) ) ;
#656 = MECHANICAL_DESIGN_GEOMETRIC_PRESENTATION_REPRESENTATION (  '', ( #724 ), #699 ) ;
#657 = FACE_BOUND ( 'NONE', #791, .T. ) ;
#658 = CARTESIAN_POINT ( 'NONE',  ( 1.269999999999999800, 2.600000000000000100, 0.7700000000000002400 ) ) ;
#659 = LINE ( 'NONE', #142, #181 ) ;
#660 = EDGE_CURVE ( 'NONE', #97, #344, #554, .T. ) ;
#661 = DIRECTION ( 'NONE',  ( 0.0000000000000000000, -0.0000000000000000000, 1.000000000000000000 ) ) ;
#662 = FACE_OUTER_BOUND ( 'NONE', #646, .T. ) ;
#663 = ORIENTED_EDGE ( 'NONE', *, *, #694, .T. ) ;
#664 = VERTEX_POINT ( 'NONE', #748 ) ;
#665 = ORIENTED_EDGE ( 'NONE', *, *, #106, .T. ) ;
#666 = APPLICATION_CONTEXT ( 'automotive_design' ) ;
#667 = CARTESIAN_POINT ( 'NONE',  ( -0.3149999999999999500, 2.600000000000000100, 0.3150000000000000600 ) ) ;
#668 = UNCERTAINTY_MEASURE_WITH_UNIT (LENGTH_MEASURE( 1.000000000000000100E-005 ), #448, 'distance_accuracy_value', 'NONE');
#669 = DIRECTION ( 'NONE',  ( 0.0000000000000000000, -0.0000000000000000000, 1.000000000000000000 ) ) ;
#670 = SURFACE_STYLE_FILL_AREA ( #227 ) ;
#671 = FACE_OUTER_BOUND ( 'NONE', #423, .T. ) ;
#672 = LINE ( 'NONE', #761, #41 ) ;
#673 = AXIS2_PLACEMENT_3D ( 'NONE', #3, #308, #893 ) ;
#674 = ORIENTED_EDGE ( 'NONE', *, *, #709, .F. ) ;
#675 = ORIENTED_EDGE ( 'NONE', *, *, #941, .F. ) ;
#676 = CARTESIAN_POINT ( 'NONE',  ( 0.0000000000000000000, 0.0000000000000000000, 0.0000000000000000000 ) ) ;
#677 = DIRECTION ( 'NONE',  ( 0.0000000000000000000, 0.0000000000000000000, -1.000000000000000000 ) ) ;
#678 = AXIS2_PLACEMENT_3D ( 'NONE', #819, #222, #955 ) ;
#679 = EDGE_CURVE ( 'NONE', #756, #333, #897, .T. ) ;
#680 = CARTESIAN_POINT ( 'NONE',  ( 0.3150000000000000600, 0.0000000000000000000, 0.3149999999999998400 ) ) ;
#681 = LINE ( 'NONE', #516, #464 ) ;
#682 = VECTOR ( 'NONE', #715, 1000.000000000000000 ) ;
#683 = ORIENTED_EDGE ( 'NONE', *, *, #231, .T. ) ;
#684 = CARTESIAN_POINT ( 'NONE',  ( -0.3149999999999999500, -6.890954544295049700, 0.3150000000000000600 ) ) ;
#685 = ORIENTED_EDGE ( 'NONE', *, *, #414, .F. ) ;
#686 = DIRECTION ( 'NONE',  ( -1.000000000000000000, 0.0000000000000000000, 2.581433744013106100E-016 ) ) ;
#687 = EDGE_LOOP ( 'NONE', ( #740, #603, #335, #508 ) ) ;
#688 = DIRECTION ( 'NONE',  ( -0.7071067811865474600, 0.0000000000000000000, -0.7071067811865474600 ) ) ;
#689 = CARTESIAN_POINT ( 'NONE',  ( -0.1696603175178118800, 9.642415079379453900, 0.1696603175178119400 ) ) ;
#690 = LINE ( 'NONE', #595, #172 ) ;
#691 = FACE_OUTER_BOUND ( 'NONE', #568, .T. ) ;
#692 = ORIENTED_EDGE ( 'NONE', *, *, #155, .F. ) ;
#693 = EDGE_LOOP ( 'NONE', ( #802, #675, #674, #605 ) ) ;
#694 = EDGE_CURVE ( 'NONE', #421, #814, #17, .T. ) ;
#695 = FILL_AREA_STYLE ('',( #407 ) ) ;
#696 = ORIENTED_EDGE ( 'NONE', *, *, #166, .T. ) ;
#697 = ORIENTED_EDGE ( 'NONE', *, *, #19, .F. ) ;
#698 = DIRECTION ( 'NONE',  ( -0.2505628070857285900, 0.9351131265310309600, -0.2505628070857284800 ) ) ;
#699 =( GEOMETRIC_REPRESENTATION_CONTEXT ( 3 ) GLOBAL_UNCERTAINTY_ASSIGNED_CONTEXT ( ( #936 ) ) GLOBAL_UNIT_ASSIGNED_CONTEXT ( ( #112, #263, #622 ) ) REPRESENTATION_CONTEXT ( 'NONE', 'WORKASPACE' ) );
#700 = ADVANCED_FACE ( 'NONE', ( #908 ), #526, .F. ) ;
#701 = PLANE ( 'NONE',  #896 ) ;
#702 = VECTOR ( 'NONE', #631, 1000.000000000000000 ) ;
#703 = LINE ( 'NONE', #667, #834 ) ;
#704 = LINE ( 'NONE', #334, #452 ) ;
#705 = DIRECTION ( 'NONE',  ( 1.000000000000000000, -0.0000000000000000000, -0.0000000000000000000 ) ) ;
#706 = ORIENTED_EDGE ( 'NONE', *, *, #370, .T. ) ;
#707 = ORIENTED_EDGE ( 'NONE', *, *, #770, .T. ) ;
#708 = EDGE_LOOP ( 'NONE', ( #272, #488, #869, #274 ) ) ;
#709 = EDGE_CURVE ( 'NONE', #250, #163, #954, .T. ) ;
#710 = CARTESIAN_POINT ( 'NONE',  ( 6.230734478036612900E-017, 9.600000000000001400, 0.1810254037844379900 ) ) ;
#711 = ADVANCED_FACE ( 'NONE', ( #786 ), #88, .F. ) ;
#712 = ADVANCED_BREP_SHAPE_REPRESENTATION ( '861400011YO2LF', ( #23, #828, #678 ), #245 ) ;
#713 = DIRECTION ( 'NONE',  ( -0.7071067811865474600, 0.0000000000000000000, -0.7071067811865474600 ) ) ;
#714 = VECTOR ( 'NONE', #688, 1000.000000000000100 ) ;
#715 = DIRECTION ( 'NONE',  ( -1.000000000000000000, -0.0000000000000000000, 2.581433744013106100E-016 ) ) ;
#716 = ADVANCED_FACE ( 'NONE', ( #6 ), #302, .F. ) ;
#717 = EDGE_CURVE ( 'NONE', #477, #913, #372, .T. ) ;
#718 = CARTESIAN_POINT ( 'NONE',  ( 0.3150000000000000600, -3.000000000000000000, -0.1810254037844385700 ) ) ;
#719 = FACE_OUTER_BOUND ( 'NONE', #298, .T. ) ;
#720 = VERTEX_POINT ( 'NONE', #241 ) ;
#721 = ORIENTED_EDGE ( 'NONE', *, *, #560, .T. ) ;
#722 = CARTESIAN_POINT ( 'NONE',  ( -0.3149999999999999500, 2.600000000000000100, -0.3149999999999999500 ) ) ;
#723 = EDGE_CURVE ( 'NONE', #814, #47, #772, .T. ) ;
#724 = STYLED_ITEM ( 'NONE', ( #727 ), #828 ) ;
#725 = DIRECTION ( 'NONE',  ( -0.2505628070857293700, 0.9351131265310305100, -0.2505628070857293100 ) ) ;
#726 = EDGE_CURVE ( 'NONE', #749, #664, #64, .T. ) ;
#727 = PRESENTATION_STYLE_ASSIGNMENT (( #551 ) ) ;
#728 = PLANE ( 'NONE',  #934 ) ;
#729 = LINE ( 'NONE', #165, #316 ) ;
#730 = FACE_OUTER_BOUND ( 'NONE', #164, .T. ) ;
#731 = EDGE_LOOP ( 'NONE', ( #813, #957, #324, #153, #581, #307, #221, #310 ) ) ;
#732 = VERTEX_POINT ( 'NONE', #395 ) ;
#733 = VERTEX_POINT ( 'NONE', #331 ) ;
#734 = CARTESIAN_POINT ( 'NONE',  ( 1.269999999999999800, 2.600000000000000100, -0.7699999999999998000 ) ) ;
#735 = DIRECTION ( 'NONE',  ( -0.0000000000000000000, -0.0000000000000000000, 1.000000000000000000 ) ) ;
#736 = VECTOR ( 'NONE', #214, 1000.000000000000000 ) ;
#737 = AXIS2_PLACEMENT_3D ( 'NONE', #359, #940, #501 ) ;
#738 = LINE ( 'NONE', #396, #229 ) ;
#739 = ORIENTED_EDGE ( 'NONE', *, *, #133, .T. ) ;
#740 = ORIENTED_EDGE ( 'NONE', *, *, #723, .T. ) ;
#741 = PLANE ( 'NONE',  #4 ) ;
#742 = ORIENTED_EDGE ( 'NONE', *, *, #25, .T. ) ;
#743 = CARTESIAN_POINT ( 'NONE',  ( 0.3150000000000000600, 0.0000000000000000000, 0.3149999999999998400 ) ) ;
#744 = EDGE_CURVE ( 'NONE', #402, #223, #564, .T. ) ;
#745 = DIRECTION ( 'NONE',  ( 1.000000000000000000, 0.0000000000000000000, -3.441911658684140900E-016 ) ) ;
#746 = LINE ( 'NONE', #203, #5 ) ;
#747 = VECTOR ( 'NONE', #759, 1000.000000000000000 ) ;
#748 = CARTESIAN_POINT ( 'NONE',  ( 0.3150000000000000000, 2.600000000000000100, -0.3150000000000001100 ) ) ;
#749 = VERTEX_POINT ( 'NONE', #21 ) ;
#750 = AXIS2_PLACEMENT_3D ( 'NONE', #376, #677, #523 ) ;
#751 = DIRECTION ( 'NONE',  ( -0.0000000000000000000, -1.000000000000000000, -0.0000000000000000000 ) ) ;
#752 = ORIENTED_EDGE ( 'NONE', *, *, #610, .T. ) ;
#753 = ORIENTED_EDGE ( 'NONE', *, *, #497, .T. ) ;
#754 = CARTESIAN_POINT ( 'NONE',  ( -0.1696603175178119100, 9.642415079379453900, -0.1696603175178119400 ) ) ;
#755 = DIRECTION ( 'NONE',  ( 0.0000000000000000000, -0.0000000000000000000, 1.000000000000000000 ) ) ;
#756 = VERTEX_POINT ( 'NONE', #237 ) ;
#757 = DIRECTION ( 'NONE',  ( 1.000000000000000000, 0.0000000000000000000, -3.441911658684140900E-016 ) ) ;
#758 = DIRECTION ( 'NONE',  ( 0.7071067811865474600, 0.0000000000000000000, -0.7071067811865474600 ) ) ;
#759 = DIRECTION ( 'NONE',  ( 1.000000000000000000, 0.0000000000000000000, 0.0000000000000000000 ) ) ;
#760 = EDGE_CURVE ( 'NONE', #346, #434, #339, .T. ) ;
#761 = CARTESIAN_POINT ( 'NONE',  ( -0.3149999999999999500, -2.499999999999994200, 0.3150000000000000600 ) ) ;
#762 = VECTOR ( 'NONE', #312, 1000.000000000000200 ) ;
#763 = LINE ( 'NONE', #773, #149 ) ;
#764 = ORIENTED_EDGE ( 'NONE', *, *, #596, .F. ) ;
#765 = ORIENTED_EDGE ( 'NONE', *, *, #461, .F. ) ;
#766 = CARTESIAN_POINT ( 'NONE',  ( 6.230734478036628900E-017, -3.000000000000000000, 0.1810254037844384000 ) ) ;
#767 = ORIENTED_EDGE ( 'NONE', *, *, #166, .F. ) ;
#768 = CARTESIAN_POINT ( 'NONE',  ( 0.3150000000000000600, 2.600000000000000100, 0.3149999999999998400 ) ) ;
#769 = DIRECTION ( 'NONE',  ( 0.0000000000000000000, 0.0000000000000000000, -1.000000000000000000 ) ) ;
#770 = EDGE_CURVE ( 'NONE', #69, #333, #38, .T. ) ;
#771 = FACE_OUTER_BOUND ( 'NONE', #297, .T. ) ;
#772 = LINE ( 'NONE', #318, #747 ) ;
#773 = CARTESIAN_POINT ( 'NONE',  ( -0.7700000000000002400, 0.0000000000000000000, -1.269999999999999800 ) ) ;
#774 = ORIENTED_EDGE ( 'NONE', *, *, #106, .F. ) ;
#775 = ORIENTED_EDGE ( 'NONE', *, *, #199, .T. ) ;
#776 = STYLED_ITEM ( 'NONE', ( #375 ), #23 ) ;
#777 = VERTEX_POINT ( 'NONE', #473 ) ;
#778 = EDGE_LOOP ( 'NONE', ( #422, #140, #119, #232 ) ) ;
#779 = PLANE ( 'NONE',  #392 ) ;
#780 = ADVANCED_FACE ( 'NONE', ( #657, #671 ), #99, .T. ) ;
#781 = DIRECTION ( 'NONE',  ( 1.000000000000000000, 0.0000000000000000000, -2.581433744013106100E-016 ) ) ;
#782 = DIRECTION ( 'NONE',  ( 0.0000000000000000000, -0.0000000000000000000, 1.000000000000000000 ) ) ;
#783 = CARTESIAN_POINT ( 'NONE',  ( 0.1810254037844385200, -3.000000000000000000, 0.1810254037844383500 ) ) ;
#784 = VECTOR ( 'NONE', #607, 1000.000000000000000 ) ;
#785 = ADVANCED_FACE ( 'NONE', ( #636 ), #779, .F. ) ;
#786 = FACE_OUTER_BOUND ( 'NONE', #105, .T. ) ;
#787 = DIRECTION ( 'NONE',  ( 1.000000000000000000, 0.0000000000000000000, -3.441911658684140900E-016 ) ) ;
#788 = LINE ( 'NONE', #910, #866 ) ;
#789 = SURFACE_STYLE_FILL_AREA ( #74 ) ;
#790 = CARTESIAN_POINT ( 'NONE',  ( 0.3150000000000000600, -6.890954544295049700, 0.3149999999999998400 ) ) ;
#791 = EDGE_LOOP ( 'NONE', ( #602, #70, #366, #169 ) ) ;
#792 = EDGE_LOOP ( 'NONE', ( #591, #343, #522, #196 ) ) ;
#793 = AXIS2_PLACEMENT_3D ( 'NONE', #790, #50, #201 ) ;
#794 = EDGE_LOOP ( 'NONE', ( #412, #958, #469, #130 ) ) ;
#795 = DIRECTION ( 'NONE',  ( 1.000000000000000000, 0.0000000000000000000, 0.0000000000000000000 ) ) ;
#796 = CARTESIAN_POINT ( 'NONE',  ( -0.1810254037844384000, -3.000000000000000000, -0.1810254037844384300 ) ) ;
#797 = PLANE ( 'NONE',  #737 ) ;
#798 = EDGE_CURVE ( 'NONE', #532, #355, #462, .T. ) ;
#799 = DIRECTION ( 'NONE',  ( 0.0000000000000000000, -0.0000000000000000000, 1.000000000000000000 ) ) ;
#800 = LINE ( 'NONE', #611, #640 ) ;
#801 = VECTOR ( 'NONE', #242, 1000.000000000000000 ) ;
#802 = ORIENTED_EDGE ( 'NONE', *, *, #760, .F. ) ;
#803 = ADVANCED_FACE ( 'NONE', ( #919, #472 ), #268, .F. ) ;
#804 = ORIENTED_EDGE ( 'NONE', *, *, #179, .F. ) ;
#805 = CARTESIAN_POINT ( 'NONE',  ( 0.3150000000000000000, -6.890954544295049700, -0.3150000000000001100 ) ) ;
#806 = CARTESIAN_POINT ( 'NONE',  ( 6.230734478036612900E-017, 9.600000000000001400, 0.1810254037844379900 ) ) ;
#807 = EDGE_CURVE ( 'NONE', #223, #812, #228, .T. ) ;
#808 = LINE ( 'NONE', #806, #888 ) ;
#809 = EDGE_CURVE ( 'NONE', #402, #513, #384, .T. ) ;
#810 = FACE_OUTER_BOUND ( 'NONE', #413, .T. ) ;
#811 = DIRECTION ( 'NONE',  ( -0.0000000000000000000, -0.0000000000000000000, 1.000000000000000000 ) ) ;
#812 = VERTEX_POINT ( 'NONE', #553 ) ;
#813 = ORIENTED_EDGE ( 'NONE', *, *, #479, .T. ) ;
#814 = VERTEX_POINT ( 'NONE', #109 ) ;
#815 = DIRECTION ( 'NONE',  ( -0.0000000000000000000, 1.000000000000000000, 0.0000000000000000000 ) ) ;
#816 = ORIENTED_EDGE ( 'NONE', *, *, #921, .F. ) ;
#817 = DIRECTION ( 'NONE',  ( 0.0000000000000000000, 1.000000000000000000, 0.0000000000000000000 ) ) ;
#818 = CARTESIAN_POINT ( 'NONE',  ( -1.270000000000000200, 0.5999999999999999800, -0.7689999999999996800 ) ) ;
#819 = CARTESIAN_POINT ( 'NONE',  ( 0.0000000000000000000, 0.0000000000000000000, 0.0000000000000000000 ) ) ;
#820 = COLOUR_RGB ( '',0.7921568627450980000, 0.8196078431372548800, 0.9333333333333333500 ) ;
#821 = EDGE_CURVE ( 'NONE', #195, #344, #449, .T. ) ;
#822 = AXIS2_PLACEMENT_3D ( 'NONE', #147, #815, #669 ) ;
#823 = SURFACE_SIDE_STYLE ('',( #789 ) ) ;
#824 = APPLICATION_PROTOCOL_DEFINITION ( 'draft international standard', 'automotive_design', 1998, #216 ) ;
#825 = LINE ( 'NONE', #863, #565 ) ;
#826 = ORIENTED_EDGE ( 'NONE', *, *, #197, .F. ) ;
#827 = VERTEX_POINT ( 'NONE', #557 ) ;
#828 = MANIFOLD_SOLID_BREP ( 'Chamfer1', #881 ) ;
#829 = PRODUCT_RELATED_PRODUCT_CATEGORY ( 'part', '', ( #838 ) ) ;
#830 = DIRECTION ( 'NONE',  ( 1.000000000000000000, -0.0000000000000000000, -0.0000000000000000000 ) ) ;
#831 = PRESENTATION_LAYER_ASSIGNMENT (  '', '', ( #776 ) ) ;
#832 = PLANE ( 'NONE',  #935 ) ;
#833 = VECTOR ( 'NONE', #289, 1000.000000000000000 ) ;
#834 = VECTOR ( 'NONE', #811, 1000.000000000000000 ) ;
#835 = DIRECTION ( 'NONE',  ( 0.0000000000000000000, 0.0000000000000000000, -1.000000000000000000 ) ) ;
#836 = FACE_OUTER_BOUND ( 'NONE', #938, .T. ) ;
#837 = DIRECTION ( 'NONE',  ( 0.0000000000000000000, 1.000000000000000000, 0.0000000000000000000 ) ) ;
#838 = PRODUCT ( '861400011YO2LF', '861400011YO2LF', '', ( #524 ) ) ;
#839 = ORIENTED_EDGE ( 'NONE', *, *, #101, .T. ) ;
#840 = ORIENTED_EDGE ( 'NONE', *, *, #252, .F. ) ;
#841 = VERTEX_POINT ( 'NONE', #32 ) ;
#842 = DIRECTION ( 'NONE',  ( -2.581433744013106100E-016, 0.0000000000000000000, -1.000000000000000000 ) ) ;
#843 = AXIS2_PLACEMENT_3D ( 'NONE', #743, #170, #394 ) ;
#844 = CARTESIAN_POINT ( 'NONE',  ( 0.7699999999999998000, 0.0000000000000000000, 1.270000000000000200 ) ) ;
#845 = FACE_OUTER_BOUND ( 'NONE', #454, .T. ) ;
#846 = LINE ( 'NONE', #408, #254 ) ;
#847 = EDGE_CURVE ( 'NONE', #377, #195, #202, .T. ) ;
#848 = ORIENTED_EDGE ( 'NONE', *, *, #649, .F. ) ;
#849 = ORIENTED_EDGE ( 'NONE', *, *, #679, .F. ) ;
#850 = CARTESIAN_POINT ( 'NONE',  ( 1.269999999999999800, 2.600000000000000100, 0.7700000000000002400 ) ) ;
#851 = AXIS2_PLACEMENT_3D ( 'NONE', #48, #351, #799 ) ;
#852 = DIRECTION ( 'NONE',  ( -8.604779146710352300E-017, -0.0000000000000000000, -1.000000000000000000 ) ) ;
#853 = ADVANCED_FACE ( 'NONE', ( #624 ), #122, .T. ) ;
#854 = LINE ( 'NONE', #870, #265 ) ;
#855 = LINE ( 'NONE', #292, #542 ) ;
#856 = VECTOR ( 'NONE', #917, 1000.000000000000000 ) ;
#857 = ORIENTED_EDGE ( 'NONE', *, *, #404, .T. ) ;
#858 = EDGE_CURVE ( 'NONE', #883, #7, #305, .T. ) ;
#859 = CARTESIAN_POINT ( 'NONE',  ( -1.270000000000000200, 0.5999999999999999800, 0.7690000000000002400 ) ) ;
#860 = ORIENTED_EDGE ( 'NONE', *, *, #370, .F. ) ;
#861 = ADVANCED_FACE ( 'NONE', ( #845 ), #493, .F. ) ;
#862 = ORIENTED_EDGE ( 'NONE', *, *, #309, .T. ) ;
#863 = CARTESIAN_POINT ( 'NONE',  ( 0.3150000000000000600, -2.499999999999994200, 0.3149999999999998400 ) ) ;
#864 = CARTESIAN_POINT ( 'NONE',  ( 0.7699999999999998000, 2.600000000000000100, 1.270000000000000200 ) ) ;
#865 = VECTOR ( 'NONE', #923, 1000.000000000000000 ) ;
#866 = VECTOR ( 'NONE', #171, 1000.000000000000100 ) ;
#867 = ADVANCED_FACE ( 'NONE', ( #90 ), #641, .F. ) ;
#868 = CARTESIAN_POINT ( 'NONE',  ( 0.3150000000000000000, 9.099999999999992500, -0.3150000000000001100 ) ) ;
#869 = ORIENTED_EDGE ( 'NONE', *, *, #197, .T. ) ;
#870 = CARTESIAN_POINT ( 'NONE',  ( -1.270000000000000200, 0.0000000000000000000, -0.7689999999999996800 ) ) ;
#871 = ORIENTED_EDGE ( 'NONE', *, *, #630, .T. ) ;
#872 = DIRECTION ( 'NONE',  ( -0.7071067811865474600, 0.0000000000000000000, 0.7071067811865474600 ) ) ;
#873 = DIRECTION ( 'NONE',  ( -1.000000000000000000, 0.0000000000000000000, -0.0000000000000000000 ) ) ;
#874 = EDGE_CURVE ( 'NONE', #883, #841, #315, .T. ) ;
#875 = CARTESIAN_POINT ( 'NONE',  ( 1.269999999999999800, 0.0000000000000000000, 0.7700000000000002400 ) ) ;
#876 = CARTESIAN_POINT ( 'NONE',  ( -1.270000000000000200, 0.5999999999999999800, 0.7690000000000002400 ) ) ;
#877 = VECTOR ( 'NONE', #12, 1000.000000000000000 ) ;
#878 = LINE ( 'NONE', #655, #543 ) ;
#879 = ORIENTED_EDGE ( 'NONE', *, *, #847, .F. ) ;
#880 = DIRECTION ( 'NONE',  ( -0.0000000000000000000, -1.000000000000000000, -0.0000000000000000000 ) ) ;
#881 = CLOSED_SHELL ( 'NONE', ( #356, #637, #361, #49, #287, #46, #54, #652, #853, #574, #420, #942, #716, #867 ) ) ;
#882 = CARTESIAN_POINT ( 'NONE',  ( -1.270000000000000200, 2.600000000000000100, 0.7700000000000002400 ) ) ;
#883 = VERTEX_POINT ( 'NONE', #796 ) ;
#884 =( NAMED_UNIT ( * ) SI_UNIT ( $, .STERADIAN. ) SOLID_ANGLE_UNIT ( ) );
#885 = SURFACE_SIDE_STYLE ('',( #670 ) ) ;
#886 = CARTESIAN_POINT ( 'NONE',  ( 0.3150000000000000000, 0.5999999999999999800, -0.3150000000000001100 ) ) ;
#887 =( NAMED_UNIT ( * ) PLANE_ANGLE_UNIT ( ) SI_UNIT ( $, .RADIAN. ) );
#888 = VECTOR ( 'NONE', #379, 1000.000000000000000 ) ;
#889 = LINE ( 'NONE', #430, #484 ) ;
#890 = EDGE_LOOP ( 'NONE', ( #848, #683, #949, #117 ) ) ;
#891 = ORIENTED_EDGE ( 'NONE', *, *, #577, .F. ) ;
#892 = ORIENTED_EDGE ( 'NONE', *, *, #83, .T. ) ;
#893 = DIRECTION ( 'NONE',  ( 0.0000000000000000000, 0.0000000000000000000, 1.000000000000000000 ) ) ;
#894 = EDGE_CURVE ( 'NONE', #899, #486, #854, .T. ) ;
#895 = VECTOR ( 'NONE', #62, 1000.000000000000000 ) ;
#896 = AXIS2_PLACEMENT_3D ( 'NONE', #559, #120, #178 ) ;
#897 = LINE ( 'NONE', #537, #586 ) ;
#898 = LINE ( 'NONE', #311, #341 ) ;
#899 = VERTEX_POINT ( 'NONE', #510 ) ;
#900 = ORIENTED_EDGE ( 'NONE', *, *, #432, .F. ) ;
#901 = PLANE ( 'NONE',  #33 ) ;
#902 = ORIENTED_EDGE ( 'NONE', *, *, #383, .T. ) ;
#903 = MECHANICAL_DESIGN_GEOMETRIC_PRESENTATION_REPRESENTATION (  '', ( #336 ), #277 ) ;
#904 = DIRECTION ( 'NONE',  ( -8.604779146710352300E-017, 0.0000000000000000000, -1.000000000000000000 ) ) ;
#905 = EDGE_CURVE ( 'NONE', #664, #285, #51, .T. ) ;
#906 = DIRECTION ( 'NONE',  ( -1.000000000000000000, 0.0000000000000000000, 3.441911658684140900E-016 ) ) ;
#907 = CARTESIAN_POINT ( 'NONE',  ( 0.3150000000000000000, -6.890954544295049700, -0.3150000000000001100 ) ) ;
#908 = FACE_OUTER_BOUND ( 'NONE', #429, .T. ) ;
#909 = VECTOR ( 'NONE', #932, 1000.000000000000000 ) ;
#910 = CARTESIAN_POINT ( 'NONE',  ( 0.7699999999999998000, 2.600000000000000100, 1.270000000000000200 ) ) ;
#911 = ORIENTED_EDGE ( 'NONE', *, *, #858, .T. ) ;
#912 = DIRECTION ( 'NONE',  ( -0.0000000000000000000, -1.000000000000000000, -0.0000000000000000000 ) ) ;
#913 = VERTEX_POINT ( 'NONE', #55 ) ;
#914 = ORIENTED_EDGE ( 'NONE', *, *, #132, .F. ) ;
#915 = CARTESIAN_POINT ( 'NONE',  ( 1.269999999999999800, 0.5999999999999999800, 0.7690000000000002400 ) ) ;
#916 = DIRECTION ( 'NONE',  ( 0.0000000000000000000, 1.000000000000000000, 0.0000000000000000000 ) ) ;
#917 = DIRECTION ( 'NONE',  ( -1.000000000000000000, 0.0000000000000000000, 2.581433744013106100E-016 ) ) ;
#918 = DIRECTION ( 'NONE',  ( -0.0000000000000000000, -1.000000000000000000, -0.0000000000000000000 ) ) ;
#919 = FACE_BOUND ( 'NONE', #354, .T. ) ;
#920 = VECTOR ( 'NONE', #374, 1000.000000000000000 ) ;
#921 = EDGE_CURVE ( 'NONE', #732, #477, #438, .T. ) ;
#922 = EDGE_LOOP ( 'NONE', ( #663, #207, #511, #258 ) ) ;
#923 = DIRECTION ( 'NONE',  ( -0.0000000000000000000, -1.000000000000000000, -0.0000000000000000000 ) ) ;
#924 = VERTEX_POINT ( 'NONE', #947 ) ;
#925 = VERTEX_POINT ( 'NONE', #426 ) ;
#926 = ORIENTED_EDGE ( 'NONE', *, *, #717, .T. ) ;
#927 = DIRECTION ( 'NONE',  ( 0.0000000000000000000, 0.0000000000000000000, 1.000000000000000000 ) ) ;
#928 = DIRECTION ( 'NONE',  ( 0.0000000000000000000, 0.0000000000000000000, 1.000000000000000000 ) ) ;
#929 = DIRECTION ( 'NONE',  ( 1.000000000000000000, 0.0000000000000000000, -0.0000000000000000000 ) ) ;
#930 = CARTESIAN_POINT ( 'NONE',  ( -1.270000000000000200, 2.600000000000000100, 0.7700000000000002400 ) ) ;
#931 = VECTOR ( 'NONE', #389, 1000.000000000000000 ) ;
#932 = DIRECTION ( 'NONE',  ( -0.0000000000000000000, -0.0000000000000000000, 1.000000000000000000 ) ) ;
#933 = LINE ( 'NONE', #627, #281 ) ;
#934 = AXIS2_PLACEMENT_3D ( 'NONE', #144, #135, #661 ) ;
#935 = AXIS2_PLACEMENT_3D ( 'NONE', #684, #234, #745 ) ;
#936 = UNCERTAINTY_MEASURE_WITH_UNIT (LENGTH_MEASURE( 1.000000000000000100E-005 ), #112, 'distance_accuracy_value', 'NONE');
#937 = ORIENTED_EDGE ( 'NONE', *, *, #257, .T. ) ;
#938 = EDGE_LOOP ( 'NONE', ( #721, #467, #259, #804 ) ) ;
#939 = CARTESIAN_POINT ( 'NONE',  ( -1.270000000000000200, 0.0000000000000000000, -0.7699999999999998000 ) ) ;
#940 = DIRECTION ( 'NONE',  ( -1.000000000000000000, 0.0000000000000000000, 0.0000000000000000000 ) ) ;
#941 = EDGE_CURVE ( 'NONE', #163, #346, #746, .T. ) ;
#942 = ADVANCED_FACE ( 'NONE', ( #771 ), #728, .F. ) ;
#943 = DIRECTION ( 'NONE',  ( -0.0000000000000000000, -1.000000000000000000, -0.0000000000000000000 ) ) ;
#944 = VECTOR ( 'NONE', #593, 1000.000000000000000 ) ;
#945 = VECTOR ( 'NONE', #751, 1000.000000000000000 ) ;
#946 = EDGE_LOOP ( 'NONE', ( #390, #444, #566, #176 ) ) ;
#947 = CARTESIAN_POINT ( 'NONE',  ( -1.270000000000000200, 2.600000000000000100, 0.7700000000000002400 ) ) ;
#948 = ORIENTED_EDGE ( 'NONE', *, *, #133, .F. ) ;
#949 = ORIENTED_EDGE ( 'NONE', *, *, #809, .T. ) ;
#950 = CARTESIAN_POINT ( 'NONE',  ( -0.7700000000000002400, 2.600000000000000100, 1.270000000000000200 ) ) ;
#951 = PRODUCT_DEFINITION ( 'UNKNOWN', '', #189, #482 ) ;
#952 = EDGE_CURVE ( 'NONE', #777, #733, #111, .T. ) ;
#953 = CARTESIAN_POINT ( 'NONE',  ( -0.3149999999999999500, 0.5999999999999999800, 0.3150000000000000600 ) ) ;
#954 = LINE ( 'NONE', #754, #762 ) ;
#955 = DIRECTION ( 'NONE',  ( 1.000000000000000000, 0.0000000000000000000, 0.0000000000000000000 ) ) ;
#956 = VECTOR ( 'NONE', #943, 1000.000000000000000 ) ;
#957 = ORIENTED_EDGE ( 'NONE', *, *, #660, .F. ) ;
#958 = ORIENTED_EDGE ( 'NONE', *, *, #309, .F. ) ;
#959 = ORIENTED_EDGE ( 'NONE', *, *, #2, .F. ) ;
ENDSEC;
END-ISO-10303-21;
