#VRML V2.0 utf8
# META "generator" "CAD Exchanger 3.8.1 (cadexchanger.com)"
DEF __1 Transform {
  children [
    DEF CTSM_TCM2NKKO_3528_L3_7W3H2T0_13S0_8F2_3A1_9B0_55P0_5R1X0_2 Group {
      children [
        DEF CTSM_TCM2NKKO_3528_L3_7W3H2T0_13S0_8F2_3A1_9B0_55P0_5R1X0_2_1 Shape {
          appearance DEF __4 Appearance {
            material DEF __5 Material {
              ambientIntensity 0.218071445823
              diffuseColor 0.898039221764 0.921568632126 0.929411768913
              shininess 0
            }
          }
          geometry DEF __6 IndexedFaceSet {
            solid FALSE
            coord Coordinate {
              point [
                0.00344 0.00087 -0.00265,
                0.00344 0.00087 -0.002,
                0.00342519768 0.00087 -0.002,
                0.00342519768 0.00087 -0.00265,
                0.00344 0.001 -0.00265,
                0.00344 0.001 -0.002,
                0.00347 0.001 -0.002,
                0.00347 0.001 -0.00265,
                0.00357 0.0009 -0.002,
                0.00357 0.0009 -0.00265,
                0 0.0002 -0.00265,
                0 0.0002 -0.00035,
                1.62630325873e-19 0.00087 -0.00265,
                4.06575814682e-19 0.00087 -0.00035,
                1.480232e-05 0.00087 -0.00035,
                1.480232e-05 0.00087 -0.00265,
                -3e-05 7e-05 -0.00265,
                0.00067 7e-05 -0.00265,
                -0.00013 0.00017 -0.00265,
                -0.00013 0.0009 -0.00265,
                -3e-05 0.001 -0.00265,
                8.13151629364e-20 0.001 -0.00265,
                9.10912e-05 0.0002 -0.00265,
                0.00067 0.0002 -0.00265,
                -0.00013 0.0009 -0.00035,
                -0.00013 0.00017 -0.00035,
                -3e-05 7e-05 -0.00035,
                0.00067 7e-05 -0.00035,
                0.00067 0.0002 -0.00035,
                9.10912e-05 0.0002 -0.00035,
                1.35525271561e-20 0.001 -0.00035,
                -3e-05 0.001 -0.00035,
                0.00357 0.00017 -0.00265,
                0.00347 7e-05 -0.00265,
                0.00277 7e-05 -0.00265,
                0.00277 0.0002 -0.00265,
                0.0033489088 0.0002 -0.00265,
                0.00344 0.0002 -0.00265,
                0.00277 7e-05 -0.00035,
                0.00347 7e-05 -0.00035,
                0.00357 0.00017 -0.00035,
                0.00357 0.0009 -0.00035,
                0.00347 0.001 -0.00035,
                0.00344 0.001 -0.00035,
                0.00342519768 0.00087 -0.00035,
                0.00344 0.00087 -0.00035,
                0.00344 0.0002 -0.00035,
                0.0033489088 0.0002 -0.00035,
                0.00277 0.0002 -0.00035,
                0.00342519768 0.00087 -0.001,
                0.00344 0.00087 -0.001,
                0.00347 0.001 -0.001,
                0.00344 0.001 -0.001,
                0.00357 0.00057 -0.002,
                0.00357 0.00057 -0.001,
                0.00357 0.0009 -0.001,
                0.00344 0.00057 -0.002,
                0.00344 0.00057 -0.001,
                0.0035684807753 0.000917364817767 -0.002,
                0.00356396926208 0.000934202014333 -0.002,
                0.00355660254038 0.00095 -0.002,
                0.00354660444431 0.000964278760969 -0.002,
                0.00353427876097 0.000976604444312 -0.002,
                0.00352 0.000986602540378 -0.002,
                0.00350420201433 0.000993969262079 -0.002,
                0.00348736481777 0.000998480775301 -0.002,
                0.00348736481777 0.000998480775301 -0.00265,
                0.00350420201433 0.000993969262079 -0.00265,
                0.00352 0.000986602540378 -0.00265,
                0.00353427876097 0.000976604444312 -0.00265,
                0.00354660444431 0.000964278760969 -0.00265,
                0.00355660254038 0.00095 -0.00265,
                0.00356396926208 0.000934202014333 -0.00265,
                0.0035684807753 0.000917364817767 -0.00265,
                -4.73648177667e-05 7.15192246988e-05 -0.00265,
                -6.42020143326e-05 7.60307379214e-05 -0.00265,
                -8e-05 8.33974596216e-05 -0.00265,
                -9.42787609687e-05 9.33955556881e-05 -0.00265,
                -0.000106604444312 0.000105721239031 -0.00265,
                -0.000116602540378 0.00012 -0.00265,
                -0.000123969262079 0.000135797985667 -0.00265,
                -0.000128480775301 0.000152635182233 -0.00265,
                -0.000128480775301 0.000917364817767 -0.00265,
                -0.000123969262079 0.000934202014333 -0.00265,
                -0.000116602540378 0.00095 -0.00265,
                -0.000106604444312 0.000964278760969 -0.00265,
                -9.42787609687e-05 0.000976604444312 -0.00265,
                -8e-05 0.000986602540378 -0.00265,
                -6.42020143326e-05 0.000993969262079 -0.00265,
                -4.73648177667e-05 0.000998480775301 -0.00265,
                -0.000128480775301 0.000152635182233 -0.00035,
                -0.000123969262079 0.000135797985667 -0.00035,
                -0.000116602540378 0.00012 -0.00035,
                -0.000106604444312 0.000105721239031 -0.00035,
                -9.42787609687e-05 9.33955556881e-05 -0.00035,
                -8e-05 8.33974596216e-05 -0.00035,
                -6.42020143326e-05 7.60307379214e-05 -0.00035,
                -4.73648177667e-05 7.15192246988e-05 -0.00035,
                -4.73648177667e-05 0.000998480775301 -0.00035,
                -6.42020143326e-05 0.000993969262079 -0.00035,
                -8e-05 0.000986602540378 -0.00035,
                -9.42787609687e-05 0.000976604444312 -0.00035,
                -0.000106604444312 0.000964278760969 -0.00035,
                -0.000116602540378 0.00095 -0.00035,
                -0.000123969262079 0.000934202014333 -0.00035,
                -0.000128480775301 0.000917364817767 -0.00035,
                0.0035684807753 0.000152635182233 -0.00265,
                0.00356396926208 0.000135797985667 -0.00265,
                0.00355660254038 0.00012 -0.00265,
                0.00354660444431 0.000105721239031 -0.00265,
                0.00353427876097 9.33955556881e-05 -0.00265,
                0.00352 8.33974596216e-05 -0.00265,
                0.00350420201433 7.60307379214e-05 -0.00265,
                0.00348736481777 7.15192246988e-05 -0.00265,
                0.00348736481777 7.15192246988e-05 -0.00035,
                0.00350420201433 7.60307379214e-05 -0.00035,
                0.00352 8.33974596216e-05 -0.00035,
                0.00353427876097 9.33955556881e-05 -0.00035,
                0.00354660444431 0.000105721239031 -0.00035,
                0.00355660254038 0.00012 -0.00035,
                0.00356396926208 0.000135797985667 -0.00035,
                0.0035684807753 0.000152635182233 -0.00035,
                0.0035684807753 0.000917364817767 -0.00035,
                0.00356396926208 0.000934202014333 -0.00035,
                0.00355660254038 0.00095 -0.00035,
                0.00354660444431 0.000964278760969 -0.00035,
                0.00353427876097 0.000976604444312 -0.00035,
                0.00352 0.000986602540378 -0.00035,
                0.00350420201433 0.000993969262079 -0.00035,
                0.00348736481777 0.000998480775301 -0.00035,
                0.00348736481777 0.000998480775301 -0.001,
                0.00350420201433 0.000993969262079 -0.001,
                0.00352 0.000986602540378 -0.001,
                0.00353427876097 0.000976604444312 -0.001,
                0.00354660444431 0.000964278760969 -0.001,
                0.00355660254038 0.00095 -0.001,
                0.00356396926208 0.000934202014333 -0.001,
                0.0035684807753 0.000917364817767 -0.001

              ]
            }
            normal Normal {
              vector [
                -0 -1 -0,
                -0 -1 -0,
                -0 -1 -0,
                -0 -1 -0,
                -0 1 -0,
                -0 1 -0,
                -0 1 -0,
                -0 1 -0,
                0 1 0,
                0.17364818 0.98480773 0,
                0.34202015 0.93969262 0,
                0.5 0.86602539 0,
                0.64278764 0.76604444 0,
                0.76604444 0.64278764 0,
                0.86602539 0.5 0,
                0.93969262 0.34202015 0,
                0.98480773 0.17364818 0,
                1 1.110223e-16 0,
                1 1.110223e-16 0,
                0.98480773 0.17364818 0,
                0.93969262 0.34202015 0,
                0.86602539 0.5 0,
                0.76604444 0.64278764 0,
                0.64278764 0.76604444 0,
                0.5 0.86602539 0,
                0.34202015 0.93969262 0,
                0.17364818 0.98480773 0,
                0 1 0,
                1 -0 2.1404396e-16,
                1 -0 2.1404396e-16,
                1 -0 2.1404396e-16,
                1 -0 2.1404396e-16,
                0 -1 0,
                0 -1 0,
                0 -1 0,
                0 -1 0,
                0 0 -1,
                0 0 -1,
                0 0 -1,
                0 0 -1,
                0 0 -1,
                0 0 -1,
                0 0 -1,
                0 0 -1,
                0 0 -1,
                0 0 -1,
                0 0 -1,
                0 0 -1,
                0 0 -1,
                0 0 -1,
                0 0 -1,
                0 0 -1,
                0 0 -1,
                0 0 -1,
                0 0 -1,
                0 0 -1,
                0 0 -1,
                0 0 -1,
                0 0 -1,
                0 0 -1,
                0 0 -1,
                0 0 -1,
                0 0 -1,
                -0 0 1,
                -0 0 1,
                -0 0 1,
                -0 0 1,
                -0 0 1,
                -0 0 1,
                -0 0 1,
                -0 0 1,
                -0 0 1,
                -0 0 1,
                -0 0 1,
                -0 0 1,
                -0 0 1,
                -0 0 1,
                -0 0 1,
                -0 0 1,
                -0 0 1,
                -0 0 1,
                -0 0 1,
                -0 0 1,
                -0 0 1,
                -0 0 1,
                -0 0 1,
                -0 0 1,
                -0 0 1,
                -0 0 1,
                -0 0 1,
                0 1 0,
                0 1 0,
                0 1 0,
                0 1 0,
                -1 0 0,
                -1 0 0,
                -1 0 0,
                -1 0 0,
                0 -1 0,
                0 -1 0,
                0 -1 0,
                0 -1 0,
                -0 1 -0,
                -0 1 -0,
                -0 1 -0,
                -0 1 -0,
                1 -0 -0,
                1 -0 -0,
                1 -0 -0,
                1 -0 -0,
                1.8388069e-16 -1 0,
                -0.17364818 -0.98480773 0,
                -0.34202015 -0.93969262 0,
                -0.5 -0.86602539 0,
                -0.64278764 -0.76604444 0,
                -0.76604444 -0.64278764 0,
                -0.86602539 -0.5 0,
                -0.93969262 -0.34202015 0,
                -0.98480773 -0.17364818 0,
                -1 -2.4980018e-16 0,
                -1 -2.4980018e-16 0,
                -0.98480773 -0.17364818 0,
                -0.93969262 -0.34202015 0,
                -0.86602539 -0.5 0,
                -0.76604444 -0.64278764 0,
                -0.64278764 -0.76604444 0,
                -0.5 -0.86602539 0,
                -0.34202015 -0.93969262 0,
                -0.17364818 -0.98480773 0,
                1.8388069e-16 -1 0,
                6.2450045e-17 1 0,
                -0.17364818 0.98480773 0,
                -0.34202015 0.93969262 0,
                -0.5 0.86602539 0,
                -0.64278764 0.76604444 0,
                -0.76604444 0.64278764 0,
                -0.86602539 0.5 0,
                -0.93969262 0.34202015 0,
                -0.98480773 0.17364818 0,
                -1 1.110223e-16 0,
                -1 1.110223e-16 0,
                -0.98480773 0.17364818 0,
                -0.93969262 0.34202015 0,
                -0.86602539 0.5 0,
                -0.76604444 0.64278764 0,
                -0.64278764 0.76604444 0,
                -0.5 0.86602539 0,
                -0.34202015 0.93969262 0,
                -0.17364818 0.98480773 0,
                6.2450045e-17 1 0,
                -0 0 -1,
                -0 0 -1,
                -0 0 -1,
                -0 0 -1,
                -0 0 -1,
                -0 0 -1,
                -0 0 -1,
                -0 0 -1,
                -0 0 -1,
                -0 0 -1,
                -0 0 -1,
                -0 0 -1,
                -0 0 -1,
                -0 0 -1,
                -0 0 -1,
                -0 0 -1,
                -0 0 -1,
                -0 0 -1,
                -0 0 -1,
                -0 0 -1,
                -0 0 -1,
                -0 0 -1,
                -0 0 -1,
                -0 0 -1,
                -0 0 -1,
                -0 0 -1,
                -0 0 -1,
                0 -0 1,
                0 -0 1,
                0 -0 1,
                0 -0 1,
                0 -0 1,
                0 -0 1,
                0 -0 1,
                0 -0 1,
                0 -0 1,
                0 -0 1,
                0 -0 1,
                0 -0 1,
                0 -0 1,
                0 -0 1,
                0 -0 1,
                0 -0 1,
                0 -0 1,
                0 -0 1,
                0 -0 1,
                0 -0 1,
                0 -0 1,
                0 -0 1,
                0 -0 1,
                0 -0 1,
                0 -0 1,
                0 -0 1,
                0 -0 1,
                -0 -1 -0,
                -0 -1 -0,
                -0 -1 -0,
                -0 -1 -0,
                -0 1 -0,
                -0 1 -0,
                -0 1 -0,
                -0 1 -0,
                1 0 -0,
                1 0 -0,
                1 0 -0,
                1 0 -0,
                1 0 -0,
                1 0 -0,
                1 0 -0,
                1 0 -0,
                -1 0 2.1404396e-16,
                -1 0 2.1404396e-16,
                -1 0 2.1404396e-16,
                -1 0 2.1404396e-16,
                -1 0 2.1404396e-16,
                -1 0 2.1404396e-16,
                -1 0 2.1404396e-16,
                -1 0 2.1404396e-16,
                0 -1 -0,
                0 -1 -0,
                0 -1 -0,
                0 -1 -0,
                0 1 -0,
                0 1 -0,
                0 1 -0,
                0 1 -0,
                -1 -0 0,
                -1 -0 0,
                -1 -0 0,
                -1 -0 0,
                1 1.110223e-16 0,
                0.98480773 -0.17364818 0,
                0.93969262 -0.34202015 0,
                0.86602539 -0.5 0,
                0.76604444 -0.64278764 0,
                0.64278764 -0.76604444 0,
                0.5 -0.86602539 0,
                0.34202015 -0.93969262 0,
                0.17364818 -0.98480773 0,
                0 -1 0,
                0 -1 0,
                0.17364818 -0.98480773 0,
                0.34202015 -0.93969262 0,
                0.5 -0.86602539 0,
                0.64278764 -0.76604444 0,
                0.76604444 -0.64278764 0,
                0.86602539 -0.5 0,
                0.93969262 -0.34202015 0,
                0.98480773 -0.17364818 0,
                1 1.110223e-16 0,
                1 1.110223e-16 0,
                0.98480773 0.17364818 0,
                0.93969262 0.34202015 0,
                0.86602539 0.5 0,
                0.76604444 0.64278764 0,
                0.64278764 0.76604444 0,
                0.5 0.86602539 0,
                0.34202015 0.93969262 0,
                0.17364818 0.98480773 0,
                0 1 0,
                0 1 0,
                0.17364818 0.98480773 0,
                0.34202015 0.93969262 0,
                0.5 0.86602539 0,
                0.64278764 0.76604444 0,
                0.76604444 0.64278764 0,
                0.86602539 0.5 0,
                0.93969262 0.34202015 0,
                0.98480773 0.17364818 0,
                1 1.110223e-16 0,
                0 -0 1,
                0 -0 1,
                0 -0 1,
                0 -0 1,
                0 -0 1,
                0 -0 1,
                0 -0 1,
                0 -0 1,
                0 -0 1,
                0 -0 1,
                0 -0 1,
                0 -0 1,
                0 -0 1,
                0 -0 1,
                0 -0 1,
                -0 -0 -1,
                -0 -0 -1,
                -0 -0 -1,
                -0 -0 -1,
                -0 -0 -1,
                -0 -0 -1,
                -0 -0 -1,
                -0 -0 -1,
                -0 -0 -1,
                -0 -0 -1,
                -0 -0 -1,
                -0 -0 -1,
                -0 -0 -1,
                -0 -0 -1,
                -0 -0 -1,
                -0 1 0,
                -0 1 0,
                -0 1 0,
                -0 1 0

              ]
            }
            coordIndex [
              3 0 2 -1 
              1 2 0 -1 
              6 7 4 -1 
              5 6 4 -1 
              66 6 65 -1 
              67 65 64 -1 
              68 64 63 -1 
              69 63 62 -1 
              70 62 61 -1 
              71 61 60 -1 
              72 60 59 -1 
              73 59 58 -1 
              9 58 8 -1 
              73 58 9 -1 
              72 59 73 -1 
              71 60 72 -1 
              70 61 71 -1 
              69 62 70 -1 
              68 63 69 -1 
              67 64 68 -1 
              66 65 67 -1 
              7 6 66 -1 
              12 13 11 -1 
              10 12 11 -1 
              13 12 14 -1 
              15 14 12 -1 
              10 16 74 -1 
              10 74 75 -1 
              10 75 76 -1 
              10 76 77 -1 
              10 77 78 -1 
              10 78 79 -1 
              10 79 80 -1 
              10 80 81 -1 
              12 10 18 -1 
              12 19 82 -1 
              12 82 83 -1 
              12 83 84 -1 
              12 84 85 -1 
              12 85 86 -1 
              12 86 87 -1 
              12 87 88 -1 
              12 88 89 -1 
              12 89 20 -1 
              10 81 18 -1 
              12 20 21 -1 
              12 18 19 -1 
              12 21 15 -1 
              22 17 16 -1 
              22 23 17 -1 
              22 16 10 -1 
              11 25 90 -1 
              11 90 91 -1 
              11 91 92 -1 
              11 92 93 -1 
              11 93 94 -1 
              11 94 95 -1 
              11 95 96 -1 
              11 96 97 -1 
              11 97 26 -1 
              29 26 27 -1 
              11 13 24 -1 
              29 27 28 -1 
              11 24 25 -1 
              11 26 29 -1 
              105 24 13 -1 
              30 13 14 -1 
              31 13 30 -1 
              98 13 31 -1 
              99 13 98 -1 
              100 13 99 -1 
              101 13 100 -1 
              102 13 101 -1 
              103 13 102 -1 
              104 13 103 -1 
              105 13 104 -1 
              20 31 21 -1 
              30 21 31 -1 
              25 19 18 -1 
              24 19 25 -1 
              16 27 26 -1 
              17 27 16 -1 
              11 29 10 -1 
              22 10 29 -1 
              17 28 27 -1 
              17 23 28 -1 
              74 26 97 -1 
              75 97 96 -1 
              76 96 95 -1 
              77 95 94 -1 
              78 94 93 -1 
              79 93 92 -1 
              80 92 91 -1 
              81 91 90 -1 
              18 90 25 -1 
              81 90 18 -1 
              80 91 81 -1 
              79 92 80 -1 
              78 93 79 -1 
              77 94 78 -1 
              76 95 77 -1 
              75 96 76 -1 
              74 97 75 -1 
              16 26 74 -1 
              98 20 89 -1 
              99 89 88 -1 
              100 88 87 -1 
              101 87 86 -1 
              102 86 85 -1 
              103 85 84 -1 
              104 84 83 -1 
              105 83 82 -1 
              24 82 19 -1 
              105 82 24 -1 
              104 83 105 -1 
              103 84 104 -1 
              102 85 103 -1 
              101 86 102 -1 
              100 87 101 -1 
              99 88 100 -1 
              98 89 99 -1 
              31 20 98 -1 
              0 73 9 -1 
              0 72 73 -1 
              0 71 72 -1 
              0 70 71 -1 
              0 69 70 -1 
              0 68 69 -1 
              0 67 68 -1 
              0 66 67 -1 
              0 7 66 -1 
              0 4 7 -1 
              0 9 37 -1 
              0 3 4 -1 
              34 35 36 -1 
              36 37 33 -1 
              34 36 33 -1 
              32 37 9 -1 
              113 33 37 -1 
              112 113 37 -1 
              111 112 37 -1 
              110 111 37 -1 
              109 110 37 -1 
              108 109 37 -1 
              107 108 37 -1 
              106 107 37 -1 
              32 106 37 -1 
              122 123 45 -1 
              47 48 38 -1 
              43 44 45 -1 
              41 45 46 -1 
              42 43 45 -1 
              129 42 45 -1 
              128 129 45 -1 
              127 128 45 -1 
              126 127 45 -1 
              125 126 45 -1 
              124 125 45 -1 
              123 124 45 -1 
              41 122 45 -1 
              39 46 47 -1 
              40 41 46 -1 
              121 40 46 -1 
              120 121 46 -1 
              39 47 38 -1 
              119 120 46 -1 
              118 119 46 -1 
              117 118 46 -1 
              116 117 46 -1 
              115 116 46 -1 
              114 115 46 -1 
              39 114 46 -1 
              50 45 44 -1 
              49 50 44 -1 
              52 43 42 -1 
              51 52 42 -1 
              40 32 53 -1 
              40 53 54 -1 
              41 54 55 -1 
              40 54 41 -1 
              9 8 53 -1 
              9 53 32 -1 
              0 56 1 -1 
              37 46 56 -1 
              37 56 0 -1 
              57 46 45 -1 
              57 56 46 -1 
              57 45 50 -1 
              39 34 33 -1 
              38 34 39 -1 
              46 36 47 -1 
              37 36 46 -1 
              35 38 48 -1 
              35 34 38 -1 
              106 40 121 -1 
              107 121 120 -1 
              108 120 119 -1 
              109 119 118 -1 
              110 118 117 -1 
              111 117 116 -1 
              112 116 115 -1 
              113 115 114 -1 
              33 114 39 -1 
              113 114 33 -1 
              112 115 113 -1 
              111 116 112 -1 
              110 117 111 -1 
              109 118 110 -1 
              108 119 109 -1 
              107 120 108 -1 
              106 121 107 -1 
              32 40 106 -1 
              137 122 55 -1 
              136 123 137 -1 
              135 124 136 -1 
              134 125 135 -1 
              133 126 134 -1 
              132 127 133 -1 
              131 128 132 -1 
              130 129 131 -1 
              51 42 130 -1 
              129 130 42 -1 
              128 131 129 -1 
              127 132 128 -1 
              126 133 127 -1 
              125 134 126 -1 
              124 135 125 -1 
              123 136 124 -1 
              122 137 123 -1 
              41 55 122 -1 
              5 2 1 -1 
              6 5 1 -1 
              65 6 1 -1 
              64 65 1 -1 
              63 64 1 -1 
              62 63 1 -1 
              61 62 1 -1 
              60 61 1 -1 
              59 60 1 -1 
              58 59 1 -1 
              8 1 53 -1 
              8 58 1 -1 
              56 53 1 -1 
              54 50 55 -1 
              54 57 50 -1 
              52 50 49 -1 
              137 55 50 -1 
              136 137 50 -1 
              135 136 50 -1 
              134 135 50 -1 
              133 134 50 -1 
              132 133 50 -1 
              131 132 50 -1 
              130 131 50 -1 
              51 130 50 -1 
              52 51 50 -1 
              53 56 54 -1 
              57 54 56 -1 
            ]
            normalIndex [
              1 0 2 -1 
              3 2 0 -1 
              6 5 4 -1 
              7 6 4 -1 
              26 8 9 -1 
              25 9 10 -1 
              24 10 11 -1 
              23 11 12 -1 
              22 12 13 -1 
              21 13 14 -1 
              20 14 15 -1 
              19 15 16 -1 
              18 16 17 -1 
              19 16 18 -1 
              20 15 19 -1 
              21 14 20 -1 
              22 13 21 -1 
              23 12 22 -1 
              24 11 23 -1 
              25 10 24 -1 
              26 9 25 -1 
              27 8 26 -1 
              30 29 28 -1 
              31 30 28 -1 
              33 34 32 -1 
              35 32 34 -1 
              60 37 38 -1 
              60 38 39 -1 
              60 39 40 -1 
              60 40 41 -1 
              60 41 42 -1 
              60 42 43 -1 
              60 43 44 -1 
              60 44 45 -1 
              59 60 46 -1 
              59 47 48 -1 
              59 48 49 -1 
              59 49 50 -1 
              59 50 51 -1 
              59 51 52 -1 
              59 52 53 -1 
              59 53 54 -1 
              59 54 55 -1 
              59 55 56 -1 
              60 45 46 -1 
              59 56 57 -1 
              59 46 47 -1 
              59 57 58 -1 
              61 36 37 -1 
              61 62 36 -1 
              61 37 60 -1 
              77 64 65 -1 
              77 65 66 -1 
              77 66 67 -1 
              77 67 68 -1 
              77 68 69 -1 
              77 69 70 -1 
              77 70 71 -1 
              77 71 72 -1 
              77 72 73 -1 
              76 73 74 -1 
              77 78 63 -1 
              76 74 75 -1 
              77 63 64 -1 
              77 73 76 -1 
              89 63 78 -1 
              80 78 79 -1 
              81 78 80 -1 
              82 78 81 -1 
              83 78 82 -1 
              84 78 83 -1 
              85 78 84 -1 
              86 78 85 -1 
              87 78 86 -1 
              88 78 87 -1 
              89 78 88 -1 
              91 92 90 -1 
              93 90 92 -1 
              96 94 95 -1 
              97 94 96 -1 
              100 98 99 -1 
              101 98 100 -1 
              103 102 104 -1 
              105 104 102 -1 
              108 106 109 -1 
              108 107 106 -1 
              128 110 111 -1 
              127 111 112 -1 
              126 112 113 -1 
              125 113 114 -1 
              124 114 115 -1 
              123 115 116 -1 
              122 116 117 -1 
              121 117 118 -1 
              120 118 119 -1 
              121 118 120 -1 
              122 117 121 -1 
              123 116 122 -1 
              124 115 123 -1 
              125 114 124 -1 
              126 113 125 -1 
              127 112 126 -1 
              128 111 127 -1 
              129 110 128 -1 
              148 130 131 -1 
              147 131 132 -1 
              146 132 133 -1 
              145 133 134 -1 
              144 134 135 -1 
              143 135 136 -1 
              142 136 137 -1 
              141 137 138 -1 
              140 138 139 -1 
              141 138 140 -1 
              142 137 141 -1 
              143 136 142 -1 
              144 135 143 -1 
              145 134 144 -1 
              146 133 145 -1 
              147 132 146 -1 
              148 131 147 -1 
              149 130 148 -1 
              162 151 150 -1 
              162 152 151 -1 
              162 153 152 -1 
              162 154 153 -1 
              162 155 154 -1 
              162 156 155 -1 
              162 157 156 -1 
              162 158 157 -1 
              162 159 158 -1 
              162 160 159 -1 
              162 150 163 -1 
              162 161 160 -1 
              166 165 164 -1 
              164 163 167 -1 
              166 164 167 -1 
              176 163 150 -1 
              168 167 163 -1 
              169 168 163 -1 
              170 169 163 -1 
              171 170 163 -1 
              172 171 163 -1 
              173 172 163 -1 
              174 173 163 -1 
              175 174 163 -1 
              176 175 163 -1 
              192 191 181 -1 
              179 178 177 -1 
              183 182 181 -1 
              193 181 180 -1 
              184 183 181 -1 
              185 184 181 -1 
              186 185 181 -1 
              187 186 181 -1 
              188 187 181 -1 
              189 188 181 -1 
              190 189 181 -1 
              191 190 181 -1 
              193 192 181 -1 
              203 180 179 -1 
              194 193 180 -1 
              195 194 180 -1 
              196 195 180 -1 
              203 179 177 -1 
              197 196 180 -1 
              198 197 180 -1 
              199 198 180 -1 
              200 199 180 -1 
              201 200 180 -1 
              202 201 180 -1 
              203 202 180 -1 
              206 205 204 -1 
              207 206 204 -1 
              210 209 208 -1 
              211 210 208 -1 
              217 218 213 -1 
              217 213 214 -1 
              216 214 215 -1 
              217 214 216 -1 
              219 212 213 -1 
              219 213 218 -1 
              222 220 221 -1 
              223 224 220 -1 
              223 220 222 -1 
              227 224 225 -1 
              227 220 224 -1 
              227 225 226 -1 
              230 228 229 -1 
              231 228 230 -1 
              234 232 233 -1 
              235 232 234 -1 
              238 236 239 -1 
              238 237 236 -1 
              258 240 241 -1 
              257 241 242 -1 
              256 242 243 -1 
              255 243 244 -1 
              254 244 245 -1 
              253 245 246 -1 
              252 246 247 -1 
              251 247 248 -1 
              250 248 249 -1 
              251 248 250 -1 
              252 247 251 -1 
              253 246 252 -1 
              254 245 253 -1 
              255 244 254 -1 
              256 243 255 -1 
              257 242 256 -1 
              258 241 257 -1 
              259 240 258 -1 
              261 278 260 -1 
              262 277 261 -1 
              263 276 262 -1 
              264 275 263 -1 
              265 274 264 -1 
              266 273 265 -1 
              267 272 266 -1 
              268 271 267 -1 
              269 270 268 -1 
              271 268 270 -1 
              272 267 271 -1 
              273 266 272 -1 
              274 265 273 -1 
              275 264 274 -1 
              276 263 275 -1 
              277 262 276 -1 
              278 261 277 -1 
              279 260 278 -1 
              282 281 280 -1 
              283 282 280 -1 
              284 283 280 -1 
              285 284 280 -1 
              286 285 280 -1 
              287 286 280 -1 
              288 287 280 -1 
              289 288 280 -1 
              290 289 280 -1 
              291 290 280 -1 
              292 280 293 -1 
              292 291 280 -1 
              294 293 280 -1 
              298 296 299 -1 
              298 297 296 -1 
              309 296 295 -1 
              300 299 296 -1 
              301 300 296 -1 
              302 301 296 -1 
              303 302 296 -1 
              304 303 296 -1 
              305 304 296 -1 
              306 305 296 -1 
              307 306 296 -1 
              308 307 296 -1 
              309 308 296 -1 
              311 310 312 -1 
              313 312 310 -1 
            ]
          }
        }
        DEF CTSM_TCM2NKKO_3528_L3_7W3H2T0_13S0_8F2_3A1_9B0_55P0_5R1X0_2_2 Shape {
          appearance DEF __8 Appearance {
            material DEF __9 Material {
              ambientIntensity 0.242344483733
              diffuseColor 1 0.843137264252 0.133333340287
              shininess 0
            }
          }
          geometry DEF __10 IndexedFaceSet {
            solid FALSE
            coord Coordinate {
              point [
                0.00342519768 0.00087 -0.002,
                0.00342519768 0.00087 -0.00265,
                0.00344 0.001 -0.002,
                0.00344 0.001 -0.001,
                0.00342519768 0.00087 -0.001,
                0.00342519768 0.00087 -0.00035,
                0.00344 0.001 -0.00035,
                0.00344 0.001 0,
                0.0033489088 0.0002 -0.00013704,
                0.0033489088 0.0002 -0.00035,
                0.0033489088 0.0002 -0.00265,
                0.0033489088 0.0002 -0.00286296,
                0.00344 0.001 -0.003,
                0.00344 0.001 -0.00265,
                0.00067 0.0002 -0.00035,
                9.10912e-05 0.0002 -0.00035,
                0.00067 0.0002 -0.00265,
                9.10912e-05 0.0002 -0.00265,
                9.10912e-05 0.0002 -0.00286296,
                0.0010392 0.0002 -0.00286296,
                0.0010392 0.0002 -0.00013704,
                9.10912e-05 0.0002 -0.00013704,
                0.0024008 -1.83697019872e-23 -0.0028287,
                0.0024008 -4.51257118733e-20 -0.0001713,
                0.0010392 -4.51257118733e-20 -0.0001713,
                0.0010392 -1.83697019872e-23 -0.0028287,
                0 0.001 0,
                1.35525271561e-20 0.001 -0.00035,
                1.480232e-05 0.00087 -0.00035,
                1.480232e-05 0.00087 -0.00265,
                8.13151629364e-20 0.001 -0.00265,
                0 0.001 -0.003,
                0.000170624 0.002 -0.0028287,
                0.002776136 0.002 -0.0028287,
                0.000170624 0.002 -0.0001713,
                0.002776136 0.002 -0.0001713,
                0.003326136 0.00145 -0.002922915,
                0.003326136 0.00145 -7.7085e-05,
                0.0024008 0.0002 -0.00013704,
                0.0024008 0.0002 -0.00286296,
                0.00277 0.0002 -0.00265,
                0.00277 0.0002 -0.00035

              ]
            }
            normal Normal {
              vector [
                0.99357986 -0.11313298 -0,
                0.99357986 -0.11313298 -0,
                0.99357986 -0.11313298 -0,
                0.99357986 -0.11313298 -0,
                0.99357986 -0.11313298 -0,
                0.99357986 -0.11313298 -0,
                0.99357986 -0.11313298 -0,
                0.99357986 -0.11313298 -0,
                0.99357986 -0.11313298 -0,
                0.99357986 -0.11313298 -0,
                0.99357986 -0.11313298 -0,
                0.99357986 -0.11313298 -0,
                0.99357986 -0.11313298 -0,
                0.99357986 -0.11313298 -0,
                -0 -1 -0,
                -0 -1 -0,
                -0 -1 -0,
                -0 -1 -0,
                -0 -1 -0,
                -0 -1 -0,
                -0 -1 -0,
                -0 -1 -0,
                0 -1 0,
                0 -1 0,
                0 -1 0,
                0 -1 0,
                -0.99357986 -0.11313298 0,
                -0.99357986 -0.11313298 0,
                -0.99357986 -0.11313298 0,
                -0.99357986 -0.11313298 0,
                -0.99357986 -0.11313298 0,
                -0.99357986 -0.11313298 0,
                -0.99357986 -0.11313298 0,
                -0.99357986 -0.11313298 0,
                -0.99357986 -0.11313298 0,
                -0.99357986 -0.11313298 0,
                -0 1 -0,
                -0 1 -0,
                -0 1 -0,
                -0 1 -0,
                -0.98575401 0.1681933 0,
                -0.98575401 0.1681933 0,
                -0.98575401 0.1681933 0,
                -0.98575401 0.1681933 0,
                -0.98575401 0.1681933 0,
                -0.98575401 0.1681933 0,
                0.96944714 0.24530029 0,
                0.96944714 0.24530029 0,
                0.96944714 0.24530029 0,
                0.96944714 0.24530029 0,
                0.96944714 0.24530029 0,
                0.96944714 0.24530029 0,
                0.96944714 0.24530029 0,
                0.96944714 0.24530029 0,
                0.70710677 0.70710677 0,
                0.70710677 0.70710677 0,
                0.70710677 0.70710677 0,
                0.70710677 0.70710677 0,
                -0 -0.16884071 0.98564333,
                -0 -0.16884071 0.98564333,
                -0 -0.16884071 0.98564333,
                -0 -0.16884071 0.98564333,
                -0 -0.16884071 0.98564333,
                -0 -0.16884071 0.98564333,
                -0 -0.16884071 0.98564333,
                -0 -0.16884071 0.98564333,
                -0 0.16884071 0.98564333,
                -0 0.16884071 0.98564333,
                -0 0.16884071 0.98564333,
                -0 0.16884071 0.98564333,
                -0 0.16884071 0.98564333,
                0 0.16884071 -0.98564333,
                0 0.16884071 -0.98564333,
                0 0.16884071 -0.98564333,
                0 0.16884071 -0.98564333,
                0 0.16884071 -0.98564333,
                0 -0.16884071 -0.98564333,
                0 -0.16884071 -0.98564333,
                0 -0.16884071 -0.98564333,
                0 -0.16884071 -0.98564333,
                0 -0.16884071 -0.98564333,
                0 -0.16884071 -0.98564333,
                0 -0.16884071 -0.98564333,
                0 -0.16884071 -0.98564333,
                -1 0 -0,
                -1 0 -0,
                -1 0 -0,
                -1 0 -0,
                0 -1 -0,
                0 -1 -0,
                0 -1 -0,
                0 -1 -0,
                0 -1 -0,
                0 -1 -0,
                0 -1 -0,
                0 -1 -0,
                1 -0 -0,
                1 -0 -0,
                1 -0 -0,
                1 -0 -0

              ]
            }
            coordIndex [
              5 6 7 -1 
              13 1 12 -1 
              11 12 1 -1 
              10 11 1 -1 
              5 7 8 -1 
              4 9 10 -1 
              5 8 9 -1 
              4 5 9 -1 
              0 10 1 -1 
              2 3 4 -1 
              0 4 10 -1 
              0 2 4 -1 
              14 21 15 -1 
              16 18 19 -1 
              16 19 20 -1 
              16 17 18 -1 
              14 20 21 -1 
              14 16 20 -1 
              24 25 22 -1 
              24 22 23 -1 
              28 26 27 -1 
              28 29 17 -1 
              28 21 26 -1 
              28 17 15 -1 
              28 15 21 -1 
              29 18 17 -1 
              30 31 29 -1 
              31 18 29 -1 
              34 35 33 -1 
              32 34 33 -1 
              30 34 32 -1 
              30 27 34 -1 
              30 32 31 -1 
              26 34 27 -1 
              36 13 12 -1 
              2 13 36 -1 
              6 37 7 -1 
              3 36 37 -1 
              3 37 6 -1 
              2 36 3 -1 
              33 35 37 -1 
              33 37 36 -1 
              26 20 7 -1 
              20 24 23 -1 
              26 21 20 -1 
              8 7 38 -1 
              38 20 23 -1 
              38 7 20 -1 
              26 35 34 -1 
              7 37 35 -1 
              26 7 35 -1 
              31 32 33 -1 
              12 33 36 -1 
              31 33 12 -1 
              39 22 25 -1 
              31 12 39 -1 
              12 11 39 -1 
              19 39 25 -1 
              31 39 19 -1 
              31 19 18 -1 
              25 24 20 -1 
              19 25 20 -1 
              11 40 39 -1 
              11 10 40 -1 
              41 8 38 -1 
              38 39 40 -1 
              41 38 40 -1 
              41 9 8 -1 
              39 38 23 -1 
              22 39 23 -1 
            ]
            normalIndex [
              9 8 7 -1 
              1 0 2 -1 
              3 2 0 -1 
              4 3 0 -1 
              9 7 6 -1 
              10 5 4 -1 
              9 6 5 -1 
              10 9 5 -1 
              13 4 0 -1 
              12 11 10 -1 
              13 10 4 -1 
              13 12 10 -1 
              21 15 14 -1 
              20 18 17 -1 
              20 17 16 -1 
              20 19 18 -1 
              21 16 15 -1 
              21 20 16 -1 
              24 25 22 -1 
              24 22 23 -1 
              32 30 31 -1 
              32 33 27 -1 
              32 29 30 -1 
              32 27 28 -1 
              32 28 29 -1 
              33 26 27 -1 
              34 35 33 -1 
              35 26 33 -1 
              38 37 36 -1 
              39 38 36 -1 
              43 40 41 -1 
              43 44 40 -1 
              43 41 42 -1 
              45 40 44 -1 
              48 46 47 -1 
              53 46 48 -1 
              51 49 50 -1 
              52 48 49 -1 
              52 49 51 -1 
              53 48 52 -1 
              56 57 54 -1 
              56 54 55 -1 
              62 60 63 -1 
              60 59 58 -1 
              62 61 60 -1 
              64 63 65 -1 
              65 60 58 -1 
              65 63 60 -1 
              70 67 66 -1 
              69 68 67 -1 
              70 69 67 -1 
              75 71 72 -1 
              74 72 73 -1 
              75 72 74 -1 
              77 78 79 -1 
              82 83 77 -1 
              83 76 77 -1 
              80 77 79 -1 
              82 77 80 -1 
              82 80 81 -1 
              86 85 84 -1 
              87 86 84 -1 
              90 88 91 -1 
              90 89 88 -1 
              95 93 92 -1 
              92 91 88 -1 
              95 92 88 -1 
              95 94 93 -1 
              98 97 96 -1 
              99 98 96 -1 
            ]
          }
        }
        DEF CTSM_TCM2NKKO_3528_L3_7W3H2T0_13S0_8F2_3A1_9B0_55P0_5R1X0_2_3 Shape {
          appearance DEF __12 Appearance {
            material DEF __13 Material {
              ambientIntensity 0.24331574142
              diffuseColor 0.792156875134 0.819607853889 0.933333337307
              shininess 0
            }
          }
          geometry DEF __14 IndexedFaceSet {
            solid FALSE
            coord Coordinate {
              point [
                0.00154765869961 0.002 -0.00174375007547,
                0.00154799773289 0.002 -0.00186426041424,
                0.00154799773289 0.002005 -0.00186426041424,
                0.00154765869961 0.002005 -0.00174375007547,
                0.00154836955005 0.002 -0.00194420829969,
                0.00154836955005 0.002005 -0.00194420829969,
                0.00176057 0.002 -0.00188319830149,
                0.00176057 0.002005 -0.00188319830149,
                0.00176057 0.002 -0.00195811026336,
                0.00176057 0.002005 -0.00195811026336,
                0.00154836955005 0.002 -0.00201910267021,
                0.00154836955005 0.002005 -0.00201910267021,
                0.00154837526605 0.002 -0.00209110314903,
                0.00154837526605 0.002005 -0.00209110314903,
                0.00149759371917 0.002 -0.00210569688752,
                0.00149759371917 0.002005 -0.00210569688752,
                0.00149759371917 0.002 -0.00168353648584,
                0.00149759371917 0.002005 -0.00168353648584,
                0.00176057 0.002 -0.00160789528236,
                0.00176057 0.002005 -0.00160789528236,
                0.00176057 0.002 -0.00180658157793,
                0.00176057 0.002005 -0.00180658157793,
                0.00171052900777 0.002 -0.00182078099534,
                0.00171052900777 0.002005 -0.00182078099534,
                0.00171052900777 0.002 -0.00169699066951,
                0.00171052900777 0.002005 -0.00169699066951,
                0.00164517874391 0.002 -0.00171564709517,
                0.00164517874391 0.002005 -0.00171564709517,
                0.00164517874391 0.002 -0.00182848600638,
                0.00164517874391 0.002005 -0.00182848600638,
                0.00159657224626 0.002 -0.00184237197793,
                0.00159657224626 0.002005 -0.00184237197793,
                0.00159657224626 0.002 -0.00172951707458,
                0.00159657224626 0.002005 -0.00172951707458

              ]
            }
            normal Normal {
              vector [
                0.99999607 -0 0.0028133017,
                0.99999607 -0 0.0028133017,
                0.99999607 -0 0.0028133017,
                0.99999607 -0 0.0028133017,
                0.99998921 -0 0.0046506939,
                0.99998921 -0 0.0046506939,
                0.99998921 -0 0.0046506939,
                0.99998921 -0 0.0046506939,
                -0.27631733 -0 0.96106648,
                -0.27631733 -0 0.96106648,
                -0.27631733 -0 0.96106648,
                -0.27631733 -0 0.96106648,
                1 -0 -0,
                1 -0 -0,
                1 -0 -0,
                1 -0 -0,
                0.27624375 -0 -0.96108758,
                0.27624375 -0 -0.96108758,
                0.27624375 -0 -0.96108758,
                0.27624375 -0 -0.96108758,
                1 -0 7.9388468e-05,
                1 -0 7.9388468e-05,
                1 -0 7.9388468e-05,
                1 -0 7.9388468e-05,
                0.2762033 -0 -0.96109921,
                0.2762033 -0 -0.96109921,
                0.2762033 -0 -0.96109921,
                0.2762033 -0 -0.96109921,
                -1 -0 -0,
                -1 -0 -0,
                -1 -0 -0,
                -1 -0 -0,
                -0.27642733 -0 0.96103483,
                -0.27642733 -0 0.96103483,
                -0.27642733 -0 0.96103483,
                -0.27642733 -0 0.96103483,
                1 -0 -2.8470548e-15,
                1 -0 -2.8470548e-15,
                1 -0 -2.8470548e-15,
                1 -0 -2.8470548e-15,
                0.27297869 -0 -0.9620201,
                0.27297869 -0 -0.9620201,
                0.27297869 -0 -0.9620201,
                0.27297869 -0 -0.9620201,
                -1 -0 2.2847939e-15,
                -1 -0 2.2847939e-15,
                -1 -0 2.2847939e-15,
                -1 -0 2.2847939e-15,
                0.27451599 -0 -0.96158254,
                0.27451599 -0 -0.96158254,
                0.27451599 -0 -0.96158254,
                0.27451599 -0 -0.96158254,
                1 -0 -2.5065412e-15,
                1 -0 -2.5065412e-15,
                1 -0 -2.5065412e-15,
                1 -0 -2.5065412e-15,
                0.27469188 -0 -0.96153229,
                0.27469188 -0 -0.96153229,
                0.27469188 -0 -0.96153229,
                0.27469188 -0 -0.96153229,
                -1 -0 2.506186e-15,
                -1 -0 2.506186e-15,
                -1 -0 2.506186e-15,
                -1 -0 2.506186e-15,
                0.27939481 -0 -0.96017629,
                0.27939481 -0 -0.96017629,
                0.27939481 -0 -0.96017629,
                0.27939481 -0 -0.96017629,
                0 1 0,
                0 1 0,
                0 1 0,
                0 1 0,
                0 1 0,
                0 1 0,
                0 1 0,
                0 1 0,
                0 1 0,
                0 1 0,
                0 1 0,
                0 1 0,
                0 1 0,
                0 1 0,
                0 1 0,
                0 1 0,
                0 1 0,
                -0 -1 -0,
                -0 -1 -0,
                -0 -1 -0,
                -0 -1 -0,
                -0 -1 -0,
                -0 -1 -0,
                -0 -1 -0,
                -0 -1 -0,
                -0 -1 -0,
                -0 -1 -0,
                -0 -1 -0,
                -0 -1 -0,
                -0 -1 -0,
                -0 -1 -0,
                -0 -1 -0,
                -0 -1 -0,
                -0 -1 -0

              ]
            }
            coordIndex [
              2 3 0 -1 
              1 2 0 -1 
              5 2 1 -1 
              4 5 1 -1 
              7 5 4 -1 
              6 7 4 -1 
              9 7 6 -1 
              8 9 6 -1 
              11 9 8 -1 
              10 11 8 -1 
              13 11 10 -1 
              12 13 10 -1 
              15 13 12 -1 
              14 15 12 -1 
              17 15 14 -1 
              16 17 14 -1 
              19 17 16 -1 
              18 19 16 -1 
              21 19 18 -1 
              20 21 18 -1 
              23 21 20 -1 
              22 23 20 -1 
              25 23 22 -1 
              24 25 22 -1 
              27 25 24 -1 
              26 27 24 -1 
              29 27 26 -1 
              28 29 26 -1 
              31 29 28 -1 
              30 31 28 -1 
              33 31 30 -1 
              32 33 30 -1 
              3 33 32 -1 
              0 3 32 -1 
              27 19 25 -1 
              9 5 7 -1 
              15 17 2 -1 
              17 3 2 -1 
              9 11 5 -1 
              15 2 5 -1 
              15 5 11 -1 
              15 11 13 -1 
              25 19 21 -1 
              27 17 19 -1 
              25 21 23 -1 
              29 33 27 -1 
              31 33 29 -1 
              33 3 17 -1 
              33 17 27 -1 
              8 6 4 -1 
              14 1 16 -1 
              8 4 10 -1 
              14 4 1 -1 
              14 10 4 -1 
              14 12 10 -1 
              24 20 18 -1 
              26 18 16 -1 
              24 22 20 -1 
              26 24 18 -1 
              32 28 26 -1 
              32 26 16 -1 
              32 30 28 -1 
              0 16 1 -1 
              0 32 16 -1 
            ]
            normalIndex [
              2 1 0 -1 
              3 2 0 -1 
              6 5 4 -1 
              7 6 4 -1 
              10 9 8 -1 
              11 10 8 -1 
              14 13 12 -1 
              15 14 12 -1 
              18 17 16 -1 
              19 18 16 -1 
              22 21 20 -1 
              23 22 20 -1 
              26 25 24 -1 
              27 26 24 -1 
              30 29 28 -1 
              31 30 28 -1 
              34 33 32 -1 
              35 34 32 -1 
              38 37 36 -1 
              39 38 36 -1 
              42 41 40 -1 
              43 42 40 -1 
              46 45 44 -1 
              47 46 44 -1 
              50 49 48 -1 
              51 50 48 -1 
              54 53 52 -1 
              55 54 52 -1 
              58 57 56 -1 
              59 58 56 -1 
              62 61 60 -1 
              63 62 60 -1 
              66 65 64 -1 
              67 66 64 -1 
              81 77 80 -1 
              72 70 71 -1 
              75 76 69 -1 
              76 68 69 -1 
              72 73 70 -1 
              75 69 70 -1 
              75 70 73 -1 
              75 73 74 -1 
              80 77 78 -1 
              81 76 77 -1 
              80 78 79 -1 
              82 84 81 -1 
              83 84 82 -1 
              84 68 76 -1 
              84 76 81 -1 
              88 87 86 -1 
              91 85 92 -1 
              88 86 89 -1 
              91 86 85 -1 
              91 89 86 -1 
              91 90 89 -1 
              96 94 93 -1 
              97 93 92 -1 
              96 95 94 -1 
              97 96 93 -1 
              100 98 97 -1 
              100 97 92 -1 
              100 99 98 -1 
              101 92 85 -1 
              101 100 92 -1 
            ]
          }
        }
        DEF CTSM_TCM2NKKO_3528_L3_7W3H2T0_13S0_8F2_3A1_9B0_55P0_5R1X0_2_4 Shape {
          appearance DEF __16 Appearance {
            material DEF __17 Material {
              ambientIntensity 0.24331574142
              diffuseColor 0.792156875134 0.819607853889 0.933333337307
              shininess 0
            }
          }
          geometry DEF __18 IndexedFaceSet {
            solid FALSE
            coord Coordinate {
              point [
                0.00149759371917 0.002 -0.00165185446534,
                0.00149759371917 0.002 -0.00153651485714,
                0.00149759371917 0.002005 -0.00153651485714,
                0.00149759371917 0.002005 -0.00165185446534,
                0.00168546735303 0.002 -0.0014433356828,
                0.00168546735303 0.002005 -0.0014433356828,
                0.00149759371917 0.002 -0.00145344899858,
                0.00149759371917 0.002005 -0.00145344899858,
                0.00149759371917 0.002 -0.00134145670434,
                0.00149759371917 0.002005 -0.00134145670434,
                0.00171053860305 0.002 -0.00128024840366,
                0.00171053860305 0.002005 -0.00128024840366,
                0.00171053860305 0.002 -0.00113446889106,
                0.00171053860305 0.002005 -0.00113446889106,
                0.00164517874391 0.002 -0.00115309173324,
                0.00164517874391 0.002005 -0.00115309173324,
                0.00164517874391 0.002 -0.0012659482358,
                0.00164517874391 0.002005 -0.0012659482358,
                0.00159656345059 0.002 -0.00127983420734,
                0.00159656345059 0.002005 -0.00127983420734,
                0.00159656345059 0.002 -0.00116696171264,
                0.00159656345059 0.002005 -0.00116696171264,
                0.00154764990393 0.002 -0.00118119471353,
                0.00154764990393 0.002005 -0.00118119471353,
                0.00154764990393 0.002 -0.0013010093944,
                0.00154764990393 0.002005 -0.0013010093944,
                0.00149759371917 0.002 -0.00131522640315,
                0.00149759371917 0.002005 -0.00131522640315,
                0.00149759371917 0.002 -0.00112094833982,
                0.00149759371917 0.002005 -0.00112094833982,
                0.00176057 0.002 -0.00104527435247,
                0.00176057 0.002005 -0.00104527435247,
                0.00176057 0.002 -0.00132858063597,
                0.00176057 0.002005 -0.00132858063597,
                0.00152644912946 0.002 -0.00139580357893,
                0.00152644912946 0.002005 -0.00139580357893,
                0.00176057 0.002 -0.00138268043227,
                0.00176057 0.002005 -0.00138268043227,
                0.00176057 0.002 -0.00145278755694,
                0.00176057 0.002005 -0.00145278755694,
                0.00152532168389 0.002 -0.00157697608695,
                0.00152532168389 0.002005 -0.00157697608695,
                0.00176057 0.002 -0.00150942050756,
                0.00176057 0.002005 -0.00150942050756,
                0.00176057 0.002 -0.00157624684555,
                0.00176057 0.002005 -0.00157624684555

              ]
            }
            normal Normal {
              vector [
                -1 -0 -0,
                -1 -0 -0,
                -1 -0 -0,
                -1 -0 -0,
                -0.44432104 -0 0.89586765,
                -0.44432104 -0 0.89586765,
                -0.44432104 -0 0.89586765,
                -0.44432104 -0 0.89586765,
                0.053752594 -0 -0.99855429,
                0.053752594 -0 -0.99855429,
                0.053752594 -0 -0.99855429,
                0.053752594 -0 -0.99855429,
                -1 -0 -0,
                -1 -0 -0,
                -1 -0 -0,
                -1 -0 -0,
                -0.27625176 -0 0.96108532,
                -0.27625176 -0 0.96108532,
                -0.27625176 -0 0.96108532,
                -0.27625176 -0 0.96108532,
                -1 -0 -0,
                -1 -0 -0,
                -1 -0 -0,
                -1 -0 -0,
                0.27402177 -0 -0.96172351,
                0.27402177 -0 -0.96172351,
                0.27402177 -0 -0.96172351,
                0.27402177 -0 -0.96172351,
                1 -0 -0,
                1 -0 -0,
                1 -0 -0,
                1 -0 -0,
                0.27464592 -0 -0.96154541,
                0.27464592 -0 -0.96154541,
                0.27464592 -0 -0.96154541,
                0.27464592 -0 -0.96154541,
                -1 -0 -0,
                -1 -0 -0,
                -1 -0 -0,
                -1 -0 -0,
                0.27939481 -0 -0.96017629,
                0.27939481 -0 -0.96017629,
                0.27939481 -0 -0.96017629,
                0.27939481 -0 -0.96017629,
                1 -0 -0,
                1 -0 -0,
                1 -0 -0,
                1 -0 -0,
                0.27321488 -0 -0.96195304,
                0.27321488 -0 -0.96195304,
                0.27321488 -0 -0.96195304,
                0.27321488 -0 -0.96195304,
                -1 -0 -0,
                -1 -0 -0,
                -1 -0 -0,
                -1 -0 -0,
                -0.27653798 -0 0.96100301,
                -0.27653798 -0 0.96100301,
                -0.27653798 -0 0.96100301,
                -0.27653798 -0 0.96100301,
                1 -0 -6.0423316e-15,
                1 -0 -6.0423316e-15,
                1 -0 -6.0423316e-15,
                1 -0 -6.0423316e-15,
                0.27597824 -0 -0.96116388,
                0.27597824 -0 -0.96116388,
                0.27597824 -0 -0.96116388,
                0.27597824 -0 -0.96116388,
                -0.055965021 -0 0.99843276,
                -0.055965021 -0 0.99843276,
                -0.055965021 -0 0.99843276,
                -0.055965021 -0 0.99843276,
                1 -0 -0,
                1 -0 -0,
                1 -0 -0,
                1 -0 -0,
                0.46684593 -0 -0.88433868,
                0.46684593 -0 -0.88433868,
                0.46684593 -0 -0.88433868,
                0.46684593 -0 -0.88433868,
                -0.27601188 -0 0.96115422,
                -0.27601188 -0 0.96115422,
                -0.27601188 -0 0.96115422,
                -0.27601188 -0 0.96115422,
                1 -0 -4.2323941e-15,
                1 -0 -4.2323941e-15,
                1 -0 -4.2323941e-15,
                1 -0 -4.2323941e-15,
                0.27631396 -0 -0.96106744,
                0.27631396 -0 -0.96106744,
                0.27631396 -0 -0.96106744,
                0.27631396 -0 -0.96106744,
                -0 1 -0,
                -0 1 -0,
                -0 1 -0,
                -0 1 -0,
                -0 1 -0,
                -0 1 -0,
                -0 1 -0,
                -0 1 -0,
                -0 1 -0,
                -0 1 -0,
                -0 1 -0,
                -0 1 -0,
                -0 1 -0,
                -0 1 -0,
                -0 1 -0,
                -0 1 -0,
                -0 1 -0,
                -0 1 -0,
                -0 1 -0,
                -0 1 -0,
                -0 1 -0,
                -0 1 -0,
                -0 1 -0,
                0 -1 0,
                0 -1 0,
                0 -1 0,
                0 -1 0,
                0 -1 0,
                0 -1 0,
                0 -1 0,
                0 -1 0,
                0 -1 0,
                0 -1 0,
                0 -1 0,
                0 -1 0,
                0 -1 0,
                0 -1 0,
                0 -1 0,
                0 -1 0,
                0 -1 0,
                0 -1 0,
                0 -1 0,
                0 -1 0,
                0 -1 0,
                0 -1 0,
                0 -1 0

              ]
            }
            coordIndex [
              2 3 0 -1 
              1 2 0 -1 
              5 2 1 -1 
              4 5 1 -1 
              7 5 4 -1 
              6 7 4 -1 
              9 7 6 -1 
              8 9 6 -1 
              11 9 8 -1 
              10 11 8 -1 
              13 11 10 -1 
              12 13 10 -1 
              15 13 12 -1 
              14 15 12 -1 
              17 15 14 -1 
              16 17 14 -1 
              19 17 16 -1 
              18 19 16 -1 
              21 19 18 -1 
              20 21 18 -1 
              23 21 20 -1 
              22 23 20 -1 
              25 23 22 -1 
              24 25 22 -1 
              27 25 24 -1 
              26 27 24 -1 
              29 27 26 -1 
              28 29 26 -1 
              31 29 28 -1 
              30 31 28 -1 
              33 31 30 -1 
              32 33 30 -1 
              35 33 32 -1 
              34 35 32 -1 
              37 35 34 -1 
              36 37 34 -1 
              39 37 36 -1 
              38 39 36 -1 
              41 39 38 -1 
              40 41 38 -1 
              43 41 40 -1 
              42 43 40 -1 
              45 43 42 -1 
              44 45 42 -1 
              3 45 44 -1 
              0 3 44 -1 
              5 37 39 -1 
              41 45 3 -1 
              41 43 45 -1 
              2 5 41 -1 
              7 9 35 -1 
              23 27 29 -1 
              15 29 31 -1 
              23 25 27 -1 
              21 23 29 -1 
              17 19 21 -1 
              15 21 29 -1 
              15 17 21 -1 
              13 31 33 -1 
              13 15 31 -1 
              11 13 33 -1 
              5 39 41 -1 
              11 33 35 -1 
              11 35 9 -1 
              5 35 37 -1 
              5 7 35 -1 
              2 41 3 -1 
              42 40 44 -1 
              40 1 0 -1 
              40 0 44 -1 
              1 40 4 -1 
              4 38 36 -1 
              22 28 26 -1 
              14 30 28 -1 
              22 26 24 -1 
              20 28 22 -1 
              16 20 18 -1 
              14 28 20 -1 
              14 20 16 -1 
              12 32 30 -1 
              12 30 14 -1 
              10 32 12 -1 
              6 34 8 -1 
              10 34 32 -1 
              10 8 34 -1 
              4 40 38 -1 
              4 36 34 -1 
              4 34 6 -1 
            ]
            normalIndex [
              2 1 0 -1 
              3 2 0 -1 
              6 5 4 -1 
              7 6 4 -1 
              10 9 8 -1 
              11 10 8 -1 
              14 13 12 -1 
              15 14 12 -1 
              18 17 16 -1 
              19 18 16 -1 
              22 21 20 -1 
              23 22 20 -1 
              26 25 24 -1 
              27 26 24 -1 
              30 29 28 -1 
              31 30 28 -1 
              34 33 32 -1 
              35 34 32 -1 
              38 37 36 -1 
              39 38 36 -1 
              42 41 40 -1 
              43 42 40 -1 
              46 45 44 -1 
              47 46 44 -1 
              50 49 48 -1 
              51 50 48 -1 
              54 53 52 -1 
              55 54 52 -1 
              58 57 56 -1 
              59 58 56 -1 
              62 61 60 -1 
              63 62 60 -1 
              66 65 64 -1 
              67 66 64 -1 
              70 69 68 -1 
              71 70 68 -1 
              74 73 72 -1 
              75 74 72 -1 
              78 77 76 -1 
              79 78 76 -1 
              82 81 80 -1 
              83 82 80 -1 
              86 85 84 -1 
              87 86 84 -1 
              90 89 88 -1 
              91 90 88 -1 
              113 97 96 -1 
              95 93 92 -1 
              95 94 93 -1 
              114 113 95 -1 
              112 111 98 -1 
              104 102 101 -1 
              108 101 100 -1 
              104 103 102 -1 
              105 104 101 -1 
              107 106 105 -1 
              108 105 101 -1 
              108 107 105 -1 
              109 100 99 -1 
              109 108 100 -1 
              110 109 99 -1 
              113 96 95 -1 
              110 99 98 -1 
              110 98 111 -1 
              113 98 97 -1 
              113 112 98 -1 
              114 95 92 -1 
              118 119 117 -1 
              119 115 116 -1 
              119 116 117 -1 
              115 119 137 -1 
              137 120 121 -1 
              128 125 126 -1 
              132 124 125 -1 
              128 126 127 -1 
              129 125 128 -1 
              131 129 130 -1 
              132 125 129 -1 
              132 129 131 -1 
              133 123 124 -1 
              133 124 132 -1 
              134 123 133 -1 
              136 122 135 -1 
              134 122 123 -1 
              134 135 122 -1 
              137 119 120 -1 
              137 121 122 -1 
              137 122 136 -1 
            ]
          }
        }
        DEF CTSM_TCM2NKKO_3528_L3_7W3H2T0_13S0_8F2_3A1_9B0_55P0_5R1X0_2_5 Shape {
          appearance DEF __20 Appearance {
            material DEF __21 Material {
              ambientIntensity 0.24331574142
              diffuseColor 0.792156875134 0.819607853889 0.933333337307
              shininess 0
            }
          }
          geometry DEF __22 IndexedFaceSet {
            solid FALSE
            coord Coordinate {
              point [
                0.00149759371917 0.002 -0.000838474835905,
                0.00176057 0.002 -0.0007629,
                0.00176057 0.002005 -0.0007629,
                0.00149759371917 0.002005 -0.000838474835905,
                0.00176057 0.002 -0.00083767842733,
                0.00176057 0.002005 -0.00083767842733,
                0.0016177810168 0.002 -0.000878604701743,
                0.0016177810168 0.002005 -0.000878604701743,
                0.00176057 0.002 -0.000935919716956,
                0.00176057 0.002005 -0.000935919716956,
                0.00176057 0.002 -0.00101593476937,
                0.00176057 0.002005 -0.00101593476937,
                0.0016177810168 0.002 -0.000956747874663,
                0.0016177810168 0.002005 -0.000956747874663,
                0.00149759371917 0.002 -0.0010795131048,
                0.00149759371917 0.002005 -0.0010795131048,
                0.00149759371917 0.002 -0.000992970062532,
                0.00149759371917 0.002005 -0.000992970062532,
                0.00160973697248 0.002 -0.00088120742206,
                0.00160973697248 0.002005 -0.00088120742206,
                0.00149759371917 0.002 -0.000913353214295,
                0.00149759371917 0.002005 -0.000913353214295

              ]
            }
            normal Normal {
              vector [
                -0.2762033 -0 0.96109921,
                -0.2762033 -0 0.96109921,
                -0.2762033 -0 0.96109921,
                -0.2762033 -0 0.96109921,
                1 -0 -0,
                1 -0 -0,
                1 -0 -0,
                1 -0 -0,
                0.27552658 -0 -0.96129346,
                0.27552658 -0 -0.96129346,
                0.27552658 -0 -0.96129346,
                0.27552658 -0 -0.96129346,
                0.37250775 -0 0.92802906,
                0.37250775 -0 0.92802906,
                0.37250775 -0 0.92802906,
                0.37250775 -0 0.92802906,
                1 -0 -3.5347773e-15,
                1 -0 -3.5347773e-15,
                1 -0 -3.5347773e-15,
                1 -0 -3.5347773e-15,
                -0.38291404 -0 -0.92378396,
                -0.38291404 -0 -0.92378396,
                -0.38291404 -0 -0.92378396,
                -0.38291404 -0 -0.92378396,
                0.71456957 -0 -0.6995644,
                0.71456957 -0 -0.6995644,
                0.71456957 -0 -0.6995644,
                0.71456957 -0 -0.6995644,
                -1 -0 -0,
                -1 -0 -0,
                -1 -0 -0,
                -1 -0 -0,
                -0.70590377 -0 0.70830774,
                -0.70590377 -0 0.70830774,
                -0.70590377 -0 0.70830774,
                -0.70590377 -0 0.70830774,
                0.27555206 -0 -0.96128613,
                0.27555206 -0 -0.96128613,
                0.27555206 -0 -0.96128613,
                0.27555206 -0 -0.96128613,
                -1 -0 -0,
                -1 -0 -0,
                -1 -0 -0,
                -1 -0 -0,
                -0 1 -0,
                -0 1 -0,
                -0 1 -0,
                -0 1 -0,
                -0 1 -0,
                -0 1 -0,
                -0 1 -0,
                -0 1 -0,
                -0 1 -0,
                -0 1 -0,
                -0 1 -0,
                0 -1 0,
                0 -1 0,
                0 -1 0,
                0 -1 0,
                0 -1 0,
                0 -1 0,
                0 -1 0,
                0 -1 0,
                0 -1 0,
                0 -1 0,
                0 -1 0

              ]
            }
            coordIndex [
              2 3 0 -1 
              1 2 0 -1 
              5 2 1 -1 
              4 5 1 -1 
              7 5 4 -1 
              6 7 4 -1 
              9 7 6 -1 
              8 9 6 -1 
              11 9 8 -1 
              10 11 8 -1 
              13 11 10 -1 
              12 13 10 -1 
              15 13 12 -1 
              14 15 12 -1 
              17 15 14 -1 
              16 17 14 -1 
              19 17 16 -1 
              18 19 16 -1 
              21 19 18 -1 
              20 21 18 -1 
              3 21 20 -1 
              0 3 20 -1 
              19 21 3 -1 
              13 19 7 -1 
              13 17 19 -1 
              13 15 17 -1 
              9 11 13 -1 
              7 19 3 -1 
              7 9 13 -1 
              2 7 3 -1 
              2 5 7 -1 
              6 1 0 -1 
              12 6 18 -1 
              18 0 20 -1 
              12 18 16 -1 
              12 16 14 -1 
              8 12 10 -1 
              6 0 18 -1 
              6 12 8 -1 
              4 1 6 -1 
            ]
            normalIndex [
              2 1 0 -1 
              3 2 0 -1 
              6 5 4 -1 
              7 6 4 -1 
              10 9 8 -1 
              11 10 8 -1 
              14 13 12 -1 
              15 14 12 -1 
              18 17 16 -1 
              19 18 16 -1 
              22 21 20 -1 
              23 22 20 -1 
              26 25 24 -1 
              27 26 24 -1 
              30 29 28 -1 
              31 30 28 -1 
              34 33 32 -1 
              35 34 32 -1 
              38 37 36 -1 
              39 38 36 -1 
              42 41 40 -1 
              43 42 40 -1 
              46 45 44 -1 
              49 46 52 -1 
              49 47 46 -1 
              49 48 47 -1 
              51 50 49 -1 
              52 46 44 -1 
              52 51 49 -1 
              54 52 44 -1 
              54 53 52 -1 
              64 55 56 -1 
              61 64 58 -1 
              58 56 57 -1 
              61 58 59 -1 
              61 59 60 -1 
              63 61 62 -1 
              64 56 58 -1 
              64 61 63 -1 
              65 55 64 -1 
            ]
          }
        }
      ]
    }
  ]
}
