%TF.GenerationSoftware,KiCad,Pcbnew,9.0.5*%
%TF.CreationDate,2025-11-17T11:41:09-06:00*%
%TF.ProjectId,STAR_LIDAR_BREAKOUT,53544152-5f4c-4494-9441-525f42524541,rev?*%
%TF.SameCoordinates,Original*%
%TF.FileFunction,Legend,Top*%
%TF.FilePolarity,Positive*%
%FSLAX46Y46*%
G04 Gerber Fmt 4.6, Leading zero omitted, Abs format (unit mm)*
G04 Created by KiCad (PCBNEW 9.0.5) date 2025-11-17 11:41:09*
%MOMM*%
%LPD*%
G01*
G04 APERTURE LIST*
%ADD10C,0.254000*%
%ADD11C,0.150000*%
%ADD12C,0.100000*%
%ADD13C,0.200000*%
%ADD14C,0.120000*%
G04 APERTURE END LIST*
D10*
X162770892Y-101090990D02*
X162831368Y-100909561D01*
X162831368Y-100909561D02*
X162831368Y-100607180D01*
X162831368Y-100607180D02*
X162770892Y-100486228D01*
X162770892Y-100486228D02*
X162710415Y-100425752D01*
X162710415Y-100425752D02*
X162589463Y-100365275D01*
X162589463Y-100365275D02*
X162468511Y-100365275D01*
X162468511Y-100365275D02*
X162347558Y-100425752D01*
X162347558Y-100425752D02*
X162287082Y-100486228D01*
X162287082Y-100486228D02*
X162226606Y-100607180D01*
X162226606Y-100607180D02*
X162166130Y-100849085D01*
X162166130Y-100849085D02*
X162105653Y-100970037D01*
X162105653Y-100970037D02*
X162045177Y-101030514D01*
X162045177Y-101030514D02*
X161924225Y-101090990D01*
X161924225Y-101090990D02*
X161803272Y-101090990D01*
X161803272Y-101090990D02*
X161682320Y-101030514D01*
X161682320Y-101030514D02*
X161621844Y-100970037D01*
X161621844Y-100970037D02*
X161561368Y-100849085D01*
X161561368Y-100849085D02*
X161561368Y-100546704D01*
X161561368Y-100546704D02*
X161621844Y-100365275D01*
X162831368Y-99820990D02*
X161561368Y-99820990D01*
X161621844Y-98550989D02*
X161561368Y-98671942D01*
X161561368Y-98671942D02*
X161561368Y-98853370D01*
X161561368Y-98853370D02*
X161621844Y-99034799D01*
X161621844Y-99034799D02*
X161742796Y-99155751D01*
X161742796Y-99155751D02*
X161863749Y-99216228D01*
X161863749Y-99216228D02*
X162105653Y-99276704D01*
X162105653Y-99276704D02*
X162287082Y-99276704D01*
X162287082Y-99276704D02*
X162528987Y-99216228D01*
X162528987Y-99216228D02*
X162649939Y-99155751D01*
X162649939Y-99155751D02*
X162770892Y-99034799D01*
X162770892Y-99034799D02*
X162831368Y-98853370D01*
X162831368Y-98853370D02*
X162831368Y-98732418D01*
X162831368Y-98732418D02*
X162770892Y-98550989D01*
X162770892Y-98550989D02*
X162710415Y-98490513D01*
X162710415Y-98490513D02*
X162287082Y-98490513D01*
X162287082Y-98490513D02*
X162287082Y-98732418D01*
X166288057Y-109561368D02*
X166711390Y-110831368D01*
X166711390Y-110831368D02*
X167134724Y-109561368D01*
X168283771Y-110710415D02*
X168223295Y-110770892D01*
X168223295Y-110770892D02*
X168041866Y-110831368D01*
X168041866Y-110831368D02*
X167920914Y-110831368D01*
X167920914Y-110831368D02*
X167739485Y-110770892D01*
X167739485Y-110770892D02*
X167618533Y-110649939D01*
X167618533Y-110649939D02*
X167558056Y-110528987D01*
X167558056Y-110528987D02*
X167497580Y-110287082D01*
X167497580Y-110287082D02*
X167497580Y-110105653D01*
X167497580Y-110105653D02*
X167558056Y-109863749D01*
X167558056Y-109863749D02*
X167618533Y-109742796D01*
X167618533Y-109742796D02*
X167739485Y-109621844D01*
X167739485Y-109621844D02*
X167920914Y-109561368D01*
X167920914Y-109561368D02*
X168041866Y-109561368D01*
X168041866Y-109561368D02*
X168223295Y-109621844D01*
X168223295Y-109621844D02*
X168283771Y-109682320D01*
X169553771Y-110710415D02*
X169493295Y-110770892D01*
X169493295Y-110770892D02*
X169311866Y-110831368D01*
X169311866Y-110831368D02*
X169190914Y-110831368D01*
X169190914Y-110831368D02*
X169009485Y-110770892D01*
X169009485Y-110770892D02*
X168888533Y-110649939D01*
X168888533Y-110649939D02*
X168828056Y-110528987D01*
X168828056Y-110528987D02*
X168767580Y-110287082D01*
X168767580Y-110287082D02*
X168767580Y-110105653D01*
X168767580Y-110105653D02*
X168828056Y-109863749D01*
X168828056Y-109863749D02*
X168888533Y-109742796D01*
X168888533Y-109742796D02*
X169009485Y-109621844D01*
X169009485Y-109621844D02*
X169190914Y-109561368D01*
X169190914Y-109561368D02*
X169311866Y-109561368D01*
X169311866Y-109561368D02*
X169493295Y-109621844D01*
X169493295Y-109621844D02*
X169553771Y-109682320D01*
X161621844Y-105365275D02*
X161561368Y-105486228D01*
X161561368Y-105486228D02*
X161561368Y-105667656D01*
X161561368Y-105667656D02*
X161621844Y-105849085D01*
X161621844Y-105849085D02*
X161742796Y-105970037D01*
X161742796Y-105970037D02*
X161863749Y-106030514D01*
X161863749Y-106030514D02*
X162105653Y-106090990D01*
X162105653Y-106090990D02*
X162287082Y-106090990D01*
X162287082Y-106090990D02*
X162528987Y-106030514D01*
X162528987Y-106030514D02*
X162649939Y-105970037D01*
X162649939Y-105970037D02*
X162770892Y-105849085D01*
X162770892Y-105849085D02*
X162831368Y-105667656D01*
X162831368Y-105667656D02*
X162831368Y-105546704D01*
X162831368Y-105546704D02*
X162770892Y-105365275D01*
X162770892Y-105365275D02*
X162710415Y-105304799D01*
X162710415Y-105304799D02*
X162287082Y-105304799D01*
X162287082Y-105304799D02*
X162287082Y-105546704D01*
X162831368Y-104760514D02*
X161561368Y-104760514D01*
X161561368Y-104760514D02*
X162831368Y-104034799D01*
X162831368Y-104034799D02*
X161561368Y-104034799D01*
X162831368Y-103430038D02*
X161561368Y-103430038D01*
X161561368Y-103430038D02*
X161561368Y-103127657D01*
X161561368Y-103127657D02*
X161621844Y-102946228D01*
X161621844Y-102946228D02*
X161742796Y-102825276D01*
X161742796Y-102825276D02*
X161863749Y-102764799D01*
X161863749Y-102764799D02*
X162105653Y-102704323D01*
X162105653Y-102704323D02*
X162287082Y-102704323D01*
X162287082Y-102704323D02*
X162528987Y-102764799D01*
X162528987Y-102764799D02*
X162649939Y-102825276D01*
X162649939Y-102825276D02*
X162770892Y-102946228D01*
X162770892Y-102946228D02*
X162831368Y-103127657D01*
X162831368Y-103127657D02*
X162831368Y-103430038D01*
X156447381Y-96594318D02*
X157173095Y-96594318D01*
X156810238Y-97864318D02*
X156810238Y-96594318D01*
X157596428Y-97864318D02*
X157596428Y-96594318D01*
X157596428Y-96594318D02*
X158080238Y-96594318D01*
X158080238Y-96594318D02*
X158201190Y-96654794D01*
X158201190Y-96654794D02*
X158261667Y-96715270D01*
X158261667Y-96715270D02*
X158322143Y-96836222D01*
X158322143Y-96836222D02*
X158322143Y-97017651D01*
X158322143Y-97017651D02*
X158261667Y-97138603D01*
X158261667Y-97138603D02*
X158201190Y-97199080D01*
X158201190Y-97199080D02*
X158080238Y-97259556D01*
X158080238Y-97259556D02*
X157596428Y-97259556D01*
X159531667Y-97864318D02*
X158805952Y-97864318D01*
X159168809Y-97864318D02*
X159168809Y-96594318D01*
X159168809Y-96594318D02*
X159047857Y-96775746D01*
X159047857Y-96775746D02*
X158926905Y-96896699D01*
X158926905Y-96896699D02*
X158805952Y-96957175D01*
X160879047Y-113195270D02*
X160758095Y-113134794D01*
X160758095Y-113134794D02*
X160637142Y-113013842D01*
X160637142Y-113013842D02*
X160455714Y-112832413D01*
X160455714Y-112832413D02*
X160334761Y-112771937D01*
X160334761Y-112771937D02*
X160213809Y-112771937D01*
X160274285Y-113074318D02*
X160153333Y-113013842D01*
X160153333Y-113013842D02*
X160032380Y-112892889D01*
X160032380Y-112892889D02*
X159971904Y-112650984D01*
X159971904Y-112650984D02*
X159971904Y-112227651D01*
X159971904Y-112227651D02*
X160032380Y-111985746D01*
X160032380Y-111985746D02*
X160153333Y-111864794D01*
X160153333Y-111864794D02*
X160274285Y-111804318D01*
X160274285Y-111804318D02*
X160516190Y-111804318D01*
X160516190Y-111804318D02*
X160637142Y-111864794D01*
X160637142Y-111864794D02*
X160758095Y-111985746D01*
X160758095Y-111985746D02*
X160818571Y-112227651D01*
X160818571Y-112227651D02*
X160818571Y-112650984D01*
X160818571Y-112650984D02*
X160758095Y-112892889D01*
X160758095Y-112892889D02*
X160637142Y-113013842D01*
X160637142Y-113013842D02*
X160516190Y-113074318D01*
X160516190Y-113074318D02*
X160274285Y-113074318D01*
X162028095Y-113074318D02*
X161302380Y-113074318D01*
X161665237Y-113074318D02*
X161665237Y-111804318D01*
X161665237Y-111804318D02*
X161544285Y-111985746D01*
X161544285Y-111985746D02*
X161423333Y-112106699D01*
X161423333Y-112106699D02*
X161302380Y-112167175D01*
D11*
X155859580Y-106166666D02*
X155907200Y-106214285D01*
X155907200Y-106214285D02*
X155954819Y-106357142D01*
X155954819Y-106357142D02*
X155954819Y-106452380D01*
X155954819Y-106452380D02*
X155907200Y-106595237D01*
X155907200Y-106595237D02*
X155811961Y-106690475D01*
X155811961Y-106690475D02*
X155716723Y-106738094D01*
X155716723Y-106738094D02*
X155526247Y-106785713D01*
X155526247Y-106785713D02*
X155383390Y-106785713D01*
X155383390Y-106785713D02*
X155192914Y-106738094D01*
X155192914Y-106738094D02*
X155097676Y-106690475D01*
X155097676Y-106690475D02*
X155002438Y-106595237D01*
X155002438Y-106595237D02*
X154954819Y-106452380D01*
X154954819Y-106452380D02*
X154954819Y-106357142D01*
X154954819Y-106357142D02*
X155002438Y-106214285D01*
X155002438Y-106214285D02*
X155050057Y-106166666D01*
X155954819Y-105214285D02*
X155954819Y-105785713D01*
X155954819Y-105499999D02*
X154954819Y-105499999D01*
X154954819Y-105499999D02*
X155097676Y-105595237D01*
X155097676Y-105595237D02*
X155192914Y-105690475D01*
X155192914Y-105690475D02*
X155240533Y-105785713D01*
D10*
X170076667Y-96804318D02*
X170076667Y-97711461D01*
X170076667Y-97711461D02*
X170016190Y-97892889D01*
X170016190Y-97892889D02*
X169895238Y-98013842D01*
X169895238Y-98013842D02*
X169713809Y-98074318D01*
X169713809Y-98074318D02*
X169592857Y-98074318D01*
X171346667Y-98074318D02*
X170620952Y-98074318D01*
X170983809Y-98074318D02*
X170983809Y-96804318D01*
X170983809Y-96804318D02*
X170862857Y-96985746D01*
X170862857Y-96985746D02*
X170741905Y-97106699D01*
X170741905Y-97106699D02*
X170620952Y-97167175D01*
X148576667Y-114304318D02*
X148576667Y-115211461D01*
X148576667Y-115211461D02*
X148516190Y-115392889D01*
X148516190Y-115392889D02*
X148395238Y-115513842D01*
X148395238Y-115513842D02*
X148213809Y-115574318D01*
X148213809Y-115574318D02*
X148092857Y-115574318D01*
X149120952Y-114425270D02*
X149181428Y-114364794D01*
X149181428Y-114364794D02*
X149302381Y-114304318D01*
X149302381Y-114304318D02*
X149604762Y-114304318D01*
X149604762Y-114304318D02*
X149725714Y-114364794D01*
X149725714Y-114364794D02*
X149786190Y-114425270D01*
X149786190Y-114425270D02*
X149846667Y-114546222D01*
X149846667Y-114546222D02*
X149846667Y-114667175D01*
X149846667Y-114667175D02*
X149786190Y-114848603D01*
X149786190Y-114848603D02*
X149060476Y-115574318D01*
X149060476Y-115574318D02*
X149846667Y-115574318D01*
D12*
%TO.C,TP1*%
X159850000Y-100790000D02*
G75*
G02*
X159750000Y-100790000I-50000J0D01*
G01*
X159750000Y-100790000D02*
G75*
G02*
X159850000Y-100790000I50000J0D01*
G01*
D13*
X158050000Y-102060000D02*
G75*
G02*
X158050000Y-99520000I0J1270000D01*
G01*
X158050000Y-99520000D02*
G75*
G02*
X158050000Y-102060000I0J-1270000D01*
G01*
D12*
X159850000Y-100790000D02*
X159850000Y-100790000D01*
X159750000Y-100790000D02*
X159750000Y-100790000D01*
D13*
X158050000Y-102060000D02*
X158050000Y-102060000D01*
X158050000Y-99520000D02*
X158050000Y-99520000D01*
%TO.C,Q1*%
X158505000Y-111050000D02*
X158505000Y-109950000D01*
X158590000Y-109300000D02*
X161490000Y-109300000D01*
X158590000Y-109600000D02*
X158590000Y-109300000D01*
X161490000Y-109300000D02*
X161490000Y-109600000D01*
X161490000Y-109600000D02*
X158590000Y-109600000D01*
D14*
%TO.C,C1*%
X154990000Y-109283767D02*
X154990000Y-108991233D01*
X156010000Y-109283767D02*
X156010000Y-108991233D01*
D13*
%TO.C,J1*%
X164750000Y-99950000D02*
X171250000Y-99950000D01*
X164750000Y-107970000D02*
X164750000Y-99950000D01*
D12*
X168000000Y-108500000D02*
X168000000Y-108500000D01*
X168000000Y-108600000D02*
X168000000Y-108600000D01*
D13*
X171250000Y-99950000D02*
X171250000Y-107970000D01*
X171250000Y-107970000D02*
X164750000Y-107970000D01*
D12*
X168000000Y-108500000D02*
G75*
G02*
X168000000Y-108600000I0J-50000D01*
G01*
X168000000Y-108600000D02*
G75*
G02*
X168000000Y-108500000I0J50000D01*
G01*
D13*
%TO.C,J2*%
X123300000Y-101200000D02*
X123300000Y-109300000D01*
X123300000Y-109300000D02*
X133220000Y-109300000D01*
X133220000Y-101200000D02*
X123300000Y-101200000D01*
X133220000Y-101200000D02*
X133220000Y-109300000D01*
X133220000Y-109300000D02*
X136760000Y-109750000D01*
X136760000Y-100750000D02*
X133220000Y-101200000D01*
X136760000Y-100750000D02*
X136760000Y-109750000D01*
X136760000Y-109750000D02*
X140300000Y-109750000D01*
X140300000Y-97525000D02*
X152000000Y-97525000D01*
X140300000Y-100750000D02*
X136760000Y-100750000D01*
X140300000Y-112975000D02*
X140300000Y-97525000D01*
D12*
X144830000Y-113420000D02*
X144830000Y-113420000D01*
X144830000Y-113520000D02*
X144830000Y-113520000D01*
D13*
X152000000Y-97525000D02*
X152000000Y-112975000D01*
X152000000Y-112975000D02*
X140300000Y-112975000D01*
D12*
X144830000Y-113420000D02*
G75*
G02*
X144830000Y-113520000I0J-50000D01*
G01*
X144830000Y-113520000D02*
G75*
G02*
X144830000Y-113420000I0J50000D01*
G01*
%TD*%
M02*
