ISO-10303-21;
HEADER;
/* Generated by software containing ST-Developer
 * from STEP Tools, Inc. (www.steptools.com) 
 */
/* OPTION: strings as raw bytes, not using required /X/ escapes */

FILE_DESCRIPTION(
/* description */ ('Unknown'),
/* implementation_level */ '2;1');

FILE_NAME(
/* name */ 'ITV9550L5045MR',
/* time_stamp */ '2024-06-07T13:43:01+02:00',
/* author */ ('Unknown'),
/* organization */ ('Unknown'),
/* preprocessor_version */ 'ST-DEVELOPER v19.4',
/* originating_system */ 'Solid Edge',
/* authorisation */ 'Unknown');

FILE_SCHEMA (('AUTOMOTIVE_DESIGN {1 0 10303 214 3 1 1}'));
ENDSEC;

DATA;
#10=PROPERTY_DEFINITION_REPRESENTATION(#14,#12);
#11=PROPERTY_DEFINITION_REPRESENTATION(#15,#13);
#12=REPRESENTATION('',(#16),#2113);
#13=REPRESENTATION('',(#17),#2113);
#14=PROPERTY_DEFINITION('pmi validation property','',#2118);
#15=PROPERTY_DEFINITION('pmi validation property','',#2118);
#16=VALUE_REPRESENTATION_ITEM('number of annotations',COUNT_MEASURE(0.));
#17=VALUE_REPRESENTATION_ITEM('number of views',COUNT_MEASURE(0.));
#18=SHAPE_REPRESENTATION_RELATIONSHIP('','',#1427,#19);
#19=ADVANCED_BREP_SHAPE_REPRESENTATION('',(#1425),#2113);
#20=DRAUGHTING_PRE_DEFINED_COLOUR('white');
#21=PLANE('',#1438);
#22=PLANE('',#1445);
#23=PLANE('',#1454);
#24=PLANE('',#1455);
#25=PLANE('',#1456);
#26=PLANE('',#1457);
#27=PLANE('',#1458);
#28=PLANE('',#1459);
#29=PLANE('',#1460);
#30=PLANE('',#1461);
#31=PLANE('',#1462);
#32=PLANE('',#1463);
#33=PLANE('',#1468);
#34=PLANE('',#1469);
#35=PLANE('',#1470);
#36=PLANE('',#1471);
#37=PLANE('',#1472);
#38=PLANE('',#1473);
#39=PLANE('',#1476);
#40=PLANE('',#1479);
#41=PLANE('',#1480);
#42=PLANE('',#1483);
#43=PLANE('',#1486);
#44=PLANE('',#1489);
#45=PLANE('',#1492);
#46=PLANE('',#1495);
#47=PLANE('',#1498);
#48=PLANE('',#1499);
#49=PLANE('',#1500);
#50=PLANE('',#1501);
#51=PLANE('',#1502);
#52=PLANE('',#1505);
#53=PLANE('',#1508);
#54=PLANE('',#1511);
#55=PLANE('',#1514);
#56=PLANE('',#1515);
#57=CIRCLE('',#1430,0.25);
#58=CIRCLE('',#1431,0.25);
#59=CIRCLE('',#1433,0.25);
#60=CIRCLE('',#1434,0.25);
#61=CIRCLE('',#1436,0.25);
#62=CIRCLE('',#1437,0.25);
#63=CIRCLE('',#1439,0.210413816900165);
#64=CIRCLE('',#1440,0.177153726475919);
#65=CIRCLE('',#1441,0.152419304384674);
#66=CIRCLE('',#1442,0.210413816900165);
#67=CIRCLE('',#1443,0.218310871029313);
#68=CIRCLE('',#1444,0.218310871029313);
#69=CIRCLE('',#1446,0.218310871029313);
#70=CIRCLE('',#1447,0.218310871029313);
#71=CIRCLE('',#1448,0.210413816900165);
#72=CIRCLE('',#1449,0.152419304384674);
#73=CIRCLE('',#1450,0.25);
#74=CIRCLE('',#1451,0.25);
#75=CIRCLE('',#1452,0.177153726475919);
#76=CIRCLE('',#1453,0.210413816900165);
#77=CIRCLE('',#1465,0.25);
#78=CIRCLE('',#1467,0.25);
#79=CIRCLE('',#1475,0.210413816900165);
#80=CIRCLE('',#1478,0.177153726475919);
#81=CIRCLE('',#1482,0.177153726475919);
#82=CIRCLE('',#1485,0.210413816900165);
#83=CIRCLE('',#1488,0.218310871029313);
#84=CIRCLE('',#1491,0.218310871029313);
#85=CIRCLE('',#1494,0.210413816900165);
#86=CIRCLE('',#1497,0.152419304384674);
#87=CIRCLE('',#1504,0.152419304384674);
#88=CIRCLE('',#1507,0.210413816900165);
#89=CIRCLE('',#1510,0.218310871029313);
#90=CIRCLE('',#1513,0.218310871029313);
#91=ORIENTED_EDGE('',*,*,#391,.T.);
#92=ORIENTED_EDGE('',*,*,#392,.T.);
#93=ORIENTED_EDGE('',*,*,#393,.T.);
#94=ORIENTED_EDGE('',*,*,#394,.F.);
#95=ORIENTED_EDGE('',*,*,#395,.T.);
#96=ORIENTED_EDGE('',*,*,#396,.T.);
#97=ORIENTED_EDGE('',*,*,#397,.T.);
#98=ORIENTED_EDGE('',*,*,#398,.F.);
#99=ORIENTED_EDGE('',*,*,#399,.T.);
#100=ORIENTED_EDGE('',*,*,#400,.T.);
#101=ORIENTED_EDGE('',*,*,#401,.T.);
#102=ORIENTED_EDGE('',*,*,#402,.F.);
#103=ORIENTED_EDGE('',*,*,#403,.F.);
#104=ORIENTED_EDGE('',*,*,#404,.T.);
#105=ORIENTED_EDGE('',*,*,#405,.T.);
#106=ORIENTED_EDGE('',*,*,#406,.F.);
#107=ORIENTED_EDGE('',*,*,#407,.F.);
#108=ORIENTED_EDGE('',*,*,#398,.T.);
#109=ORIENTED_EDGE('',*,*,#408,.F.);
#110=ORIENTED_EDGE('',*,*,#402,.T.);
#111=ORIENTED_EDGE('',*,*,#409,.F.);
#112=ORIENTED_EDGE('',*,*,#410,.T.);
#113=ORIENTED_EDGE('',*,*,#411,.F.);
#114=ORIENTED_EDGE('',*,*,#412,.T.);
#115=ORIENTED_EDGE('',*,*,#413,.T.);
#116=ORIENTED_EDGE('',*,*,#414,.T.);
#117=ORIENTED_EDGE('',*,*,#415,.T.);
#118=ORIENTED_EDGE('',*,*,#416,.F.);
#119=ORIENTED_EDGE('',*,*,#417,.F.);
#120=ORIENTED_EDGE('',*,*,#418,.T.);
#121=ORIENTED_EDGE('',*,*,#419,.T.);
#122=ORIENTED_EDGE('',*,*,#420,.F.);
#123=ORIENTED_EDGE('',*,*,#421,.F.);
#124=ORIENTED_EDGE('',*,*,#422,.F.);
#125=ORIENTED_EDGE('',*,*,#423,.F.);
#126=ORIENTED_EDGE('',*,*,#424,.F.);
#127=ORIENTED_EDGE('',*,*,#425,.T.);
#128=ORIENTED_EDGE('',*,*,#426,.F.);
#129=ORIENTED_EDGE('',*,*,#427,.F.);
#130=ORIENTED_EDGE('',*,*,#428,.F.);
#131=ORIENTED_EDGE('',*,*,#429,.F.);
#132=ORIENTED_EDGE('',*,*,#430,.F.);
#133=ORIENTED_EDGE('',*,*,#431,.F.);
#134=ORIENTED_EDGE('',*,*,#432,.T.);
#135=ORIENTED_EDGE('',*,*,#433,.F.);
#136=ORIENTED_EDGE('',*,*,#434,.T.);
#137=ORIENTED_EDGE('',*,*,#435,.T.);
#138=ORIENTED_EDGE('',*,*,#436,.T.);
#139=ORIENTED_EDGE('',*,*,#397,.F.);
#140=ORIENTED_EDGE('',*,*,#437,.T.);
#141=ORIENTED_EDGE('',*,*,#399,.F.);
#142=ORIENTED_EDGE('',*,*,#408,.T.);
#143=ORIENTED_EDGE('',*,*,#438,.T.);
#144=ORIENTED_EDGE('',*,*,#439,.T.);
#145=ORIENTED_EDGE('',*,*,#409,.T.);
#146=ORIENTED_EDGE('',*,*,#401,.F.);
#147=ORIENTED_EDGE('',*,*,#440,.T.);
#148=ORIENTED_EDGE('',*,*,#441,.T.);
#149=ORIENTED_EDGE('',*,*,#442,.F.);
#150=ORIENTED_EDGE('',*,*,#443,.T.);
#151=ORIENTED_EDGE('',*,*,#444,.F.);
#152=ORIENTED_EDGE('',*,*,#445,.T.);
#153=ORIENTED_EDGE('',*,*,#395,.F.);
#154=ORIENTED_EDGE('',*,*,#407,.T.);
#155=ORIENTED_EDGE('',*,*,#446,.F.);
#156=ORIENTED_EDGE('',*,*,#447,.T.);
#157=ORIENTED_EDGE('',*,*,#448,.F.);
#158=ORIENTED_EDGE('',*,*,#449,.T.);
#159=ORIENTED_EDGE('',*,*,#450,.T.);
#160=ORIENTED_EDGE('',*,*,#427,.T.);
#161=ORIENTED_EDGE('',*,*,#451,.T.);
#162=ORIENTED_EDGE('',*,*,#452,.T.);
#163=ORIENTED_EDGE('',*,*,#453,.T.);
#164=ORIENTED_EDGE('',*,*,#429,.T.);
#165=ORIENTED_EDGE('',*,*,#454,.F.);
#166=ORIENTED_EDGE('',*,*,#455,.T.);
#167=ORIENTED_EDGE('',*,*,#441,.F.);
#168=ORIENTED_EDGE('',*,*,#456,.T.);
#169=ORIENTED_EDGE('',*,*,#391,.F.);
#170=ORIENTED_EDGE('',*,*,#457,.T.);
#171=ORIENTED_EDGE('',*,*,#458,.T.);
#172=ORIENTED_EDGE('',*,*,#459,.T.);
#173=ORIENTED_EDGE('',*,*,#460,.T.);
#174=ORIENTED_EDGE('',*,*,#393,.F.);
#175=ORIENTED_EDGE('',*,*,#461,.T.);
#176=ORIENTED_EDGE('',*,*,#448,.T.);
#177=ORIENTED_EDGE('',*,*,#462,.F.);
#178=ORIENTED_EDGE('',*,*,#463,.T.);
#179=ORIENTED_EDGE('',*,*,#464,.T.);
#180=ORIENTED_EDGE('',*,*,#457,.F.);
#181=ORIENTED_EDGE('',*,*,#394,.T.);
#182=ORIENTED_EDGE('',*,*,#460,.F.);
#183=ORIENTED_EDGE('',*,*,#444,.T.);
#184=ORIENTED_EDGE('',*,*,#465,.T.);
#185=ORIENTED_EDGE('',*,*,#466,.F.);
#186=ORIENTED_EDGE('',*,*,#467,.T.);
#187=ORIENTED_EDGE('',*,*,#468,.T.);
#188=ORIENTED_EDGE('',*,*,#469,.T.);
#189=ORIENTED_EDGE('',*,*,#431,.T.);
#190=ORIENTED_EDGE('',*,*,#470,.T.);
#191=ORIENTED_EDGE('',*,*,#471,.T.);
#192=ORIENTED_EDGE('',*,*,#466,.T.);
#193=ORIENTED_EDGE('',*,*,#453,.F.);
#194=ORIENTED_EDGE('',*,*,#472,.T.);
#195=ORIENTED_EDGE('',*,*,#470,.F.);
#196=ORIENTED_EDGE('',*,*,#430,.T.);
#197=ORIENTED_EDGE('',*,*,#450,.F.);
#198=ORIENTED_EDGE('',*,*,#473,.T.);
#199=ORIENTED_EDGE('',*,*,#451,.F.);
#200=ORIENTED_EDGE('',*,*,#428,.T.);
#201=ORIENTED_EDGE('',*,*,#474,.T.);
#202=ORIENTED_EDGE('',*,*,#475,.F.);
#203=ORIENTED_EDGE('',*,*,#476,.F.);
#204=ORIENTED_EDGE('',*,*,#477,.T.);
#205=ORIENTED_EDGE('',*,*,#478,.T.);
#206=ORIENTED_EDGE('',*,*,#477,.F.);
#207=ORIENTED_EDGE('',*,*,#479,.F.);
#208=ORIENTED_EDGE('',*,*,#480,.T.);
#209=ORIENTED_EDGE('',*,*,#481,.T.);
#210=ORIENTED_EDGE('',*,*,#480,.F.);
#211=ORIENTED_EDGE('',*,*,#482,.F.);
#212=ORIENTED_EDGE('',*,*,#483,.T.);
#213=ORIENTED_EDGE('',*,*,#484,.T.);
#214=ORIENTED_EDGE('',*,*,#483,.F.);
#215=ORIENTED_EDGE('',*,*,#485,.F.);
#216=ORIENTED_EDGE('',*,*,#475,.T.);
#217=ORIENTED_EDGE('',*,*,#452,.F.);
#218=ORIENTED_EDGE('',*,*,#473,.F.);
#219=ORIENTED_EDGE('',*,*,#449,.F.);
#220=ORIENTED_EDGE('',*,*,#461,.F.);
#221=ORIENTED_EDGE('',*,*,#392,.F.);
#222=ORIENTED_EDGE('',*,*,#456,.F.);
#223=ORIENTED_EDGE('',*,*,#440,.F.);
#224=ORIENTED_EDGE('',*,*,#400,.F.);
#225=ORIENTED_EDGE('',*,*,#437,.F.);
#226=ORIENTED_EDGE('',*,*,#396,.F.);
#227=ORIENTED_EDGE('',*,*,#445,.F.);
#228=ORIENTED_EDGE('',*,*,#467,.F.);
#229=ORIENTED_EDGE('',*,*,#471,.F.);
#230=ORIENTED_EDGE('',*,*,#472,.F.);
#231=ORIENTED_EDGE('',*,*,#476,.T.);
#232=ORIENTED_EDGE('',*,*,#485,.T.);
#233=ORIENTED_EDGE('',*,*,#482,.T.);
#234=ORIENTED_EDGE('',*,*,#479,.T.);
#235=ORIENTED_EDGE('',*,*,#474,.F.);
#236=ORIENTED_EDGE('',*,*,#478,.F.);
#237=ORIENTED_EDGE('',*,*,#481,.F.);
#238=ORIENTED_EDGE('',*,*,#484,.F.);
#239=ORIENTED_EDGE('',*,*,#403,.T.);
#240=ORIENTED_EDGE('',*,*,#486,.F.);
#241=ORIENTED_EDGE('',*,*,#487,.T.);
#242=ORIENTED_EDGE('',*,*,#488,.T.);
#243=ORIENTED_EDGE('',*,*,#404,.F.);
#244=ORIENTED_EDGE('',*,*,#488,.F.);
#245=ORIENTED_EDGE('',*,*,#489,.T.);
#246=ORIENTED_EDGE('',*,*,#490,.T.);
#247=ORIENTED_EDGE('',*,*,#405,.F.);
#248=ORIENTED_EDGE('',*,*,#490,.F.);
#249=ORIENTED_EDGE('',*,*,#491,.T.);
#250=ORIENTED_EDGE('',*,*,#492,.T.);
#251=ORIENTED_EDGE('',*,*,#406,.T.);
#252=ORIENTED_EDGE('',*,*,#492,.F.);
#253=ORIENTED_EDGE('',*,*,#493,.T.);
#254=ORIENTED_EDGE('',*,*,#442,.T.);
#255=ORIENTED_EDGE('',*,*,#432,.F.);
#256=ORIENTED_EDGE('',*,*,#469,.F.);
#257=ORIENTED_EDGE('',*,*,#494,.T.);
#258=ORIENTED_EDGE('',*,*,#495,.T.);
#259=ORIENTED_EDGE('',*,*,#433,.T.);
#260=ORIENTED_EDGE('',*,*,#495,.F.);
#261=ORIENTED_EDGE('',*,*,#496,.T.);
#262=ORIENTED_EDGE('',*,*,#497,.T.);
#263=ORIENTED_EDGE('',*,*,#434,.F.);
#264=ORIENTED_EDGE('',*,*,#497,.F.);
#265=ORIENTED_EDGE('',*,*,#498,.T.);
#266=ORIENTED_EDGE('',*,*,#499,.T.);
#267=ORIENTED_EDGE('',*,*,#435,.F.);
#268=ORIENTED_EDGE('',*,*,#499,.F.);
#269=ORIENTED_EDGE('',*,*,#500,.T.);
#270=ORIENTED_EDGE('',*,*,#501,.T.);
#271=ORIENTED_EDGE('',*,*,#436,.F.);
#272=ORIENTED_EDGE('',*,*,#501,.F.);
#273=ORIENTED_EDGE('',*,*,#502,.T.);
#274=ORIENTED_EDGE('',*,*,#503,.T.);
#275=ORIENTED_EDGE('',*,*,#419,.F.);
#276=ORIENTED_EDGE('',*,*,#503,.F.);
#277=ORIENTED_EDGE('',*,*,#504,.T.);
#278=ORIENTED_EDGE('',*,*,#505,.T.);
#279=ORIENTED_EDGE('',*,*,#420,.T.);
#280=ORIENTED_EDGE('',*,*,#505,.F.);
#281=ORIENTED_EDGE('',*,*,#506,.T.);
#282=ORIENTED_EDGE('',*,*,#507,.T.);
#283=ORIENTED_EDGE('',*,*,#421,.T.);
#284=ORIENTED_EDGE('',*,*,#507,.F.);
#285=ORIENTED_EDGE('',*,*,#508,.T.);
#286=ORIENTED_EDGE('',*,*,#509,.T.);
#287=ORIENTED_EDGE('',*,*,#422,.T.);
#288=ORIENTED_EDGE('',*,*,#509,.F.);
#289=ORIENTED_EDGE('',*,*,#510,.T.);
#290=ORIENTED_EDGE('',*,*,#511,.T.);
#291=ORIENTED_EDGE('',*,*,#423,.T.);
#292=ORIENTED_EDGE('',*,*,#511,.F.);
#293=ORIENTED_EDGE('',*,*,#512,.T.);
#294=ORIENTED_EDGE('',*,*,#513,.T.);
#295=ORIENTED_EDGE('',*,*,#424,.T.);
#296=ORIENTED_EDGE('',*,*,#513,.F.);
#297=ORIENTED_EDGE('',*,*,#514,.T.);
#298=ORIENTED_EDGE('',*,*,#515,.T.);
#299=ORIENTED_EDGE('',*,*,#425,.F.);
#300=ORIENTED_EDGE('',*,*,#515,.F.);
#301=ORIENTED_EDGE('',*,*,#516,.T.);
#302=ORIENTED_EDGE('',*,*,#517,.T.);
#303=ORIENTED_EDGE('',*,*,#426,.T.);
#304=ORIENTED_EDGE('',*,*,#517,.F.);
#305=ORIENTED_EDGE('',*,*,#518,.T.);
#306=ORIENTED_EDGE('',*,*,#446,.T.);
#307=ORIENTED_EDGE('',*,*,#462,.T.);
#308=ORIENTED_EDGE('',*,*,#459,.F.);
#309=ORIENTED_EDGE('',*,*,#519,.T.);
#310=ORIENTED_EDGE('',*,*,#520,.T.);
#311=ORIENTED_EDGE('',*,*,#463,.F.);
#312=ORIENTED_EDGE('',*,*,#520,.F.);
#313=ORIENTED_EDGE('',*,*,#521,.T.);
#314=ORIENTED_EDGE('',*,*,#522,.T.);
#315=ORIENTED_EDGE('',*,*,#464,.F.);
#316=ORIENTED_EDGE('',*,*,#522,.F.);
#317=ORIENTED_EDGE('',*,*,#523,.T.);
#318=ORIENTED_EDGE('',*,*,#454,.T.);
#319=ORIENTED_EDGE('',*,*,#410,.F.);
#320=ORIENTED_EDGE('',*,*,#439,.F.);
#321=ORIENTED_EDGE('',*,*,#524,.T.);
#322=ORIENTED_EDGE('',*,*,#525,.T.);
#323=ORIENTED_EDGE('',*,*,#411,.T.);
#324=ORIENTED_EDGE('',*,*,#525,.F.);
#325=ORIENTED_EDGE('',*,*,#526,.T.);
#326=ORIENTED_EDGE('',*,*,#527,.T.);
#327=ORIENTED_EDGE('',*,*,#412,.F.);
#328=ORIENTED_EDGE('',*,*,#527,.F.);
#329=ORIENTED_EDGE('',*,*,#528,.T.);
#330=ORIENTED_EDGE('',*,*,#529,.T.);
#331=ORIENTED_EDGE('',*,*,#413,.F.);
#332=ORIENTED_EDGE('',*,*,#529,.F.);
#333=ORIENTED_EDGE('',*,*,#530,.T.);
#334=ORIENTED_EDGE('',*,*,#531,.T.);
#335=ORIENTED_EDGE('',*,*,#414,.F.);
#336=ORIENTED_EDGE('',*,*,#531,.F.);
#337=ORIENTED_EDGE('',*,*,#532,.T.);
#338=ORIENTED_EDGE('',*,*,#533,.T.);
#339=ORIENTED_EDGE('',*,*,#415,.F.);
#340=ORIENTED_EDGE('',*,*,#533,.F.);
#341=ORIENTED_EDGE('',*,*,#534,.T.);
#342=ORIENTED_EDGE('',*,*,#535,.T.);
#343=ORIENTED_EDGE('',*,*,#416,.T.);
#344=ORIENTED_EDGE('',*,*,#535,.F.);
#345=ORIENTED_EDGE('',*,*,#536,.T.);
#346=ORIENTED_EDGE('',*,*,#537,.T.);
#347=ORIENTED_EDGE('',*,*,#417,.T.);
#348=ORIENTED_EDGE('',*,*,#537,.F.);
#349=ORIENTED_EDGE('',*,*,#538,.T.);
#350=ORIENTED_EDGE('',*,*,#539,.T.);
#351=ORIENTED_EDGE('',*,*,#418,.F.);
#352=ORIENTED_EDGE('',*,*,#539,.F.);
#353=ORIENTED_EDGE('',*,*,#540,.T.);
#354=ORIENTED_EDGE('',*,*,#486,.T.);
#355=ORIENTED_EDGE('',*,*,#487,.F.);
#356=ORIENTED_EDGE('',*,*,#540,.F.);
#357=ORIENTED_EDGE('',*,*,#538,.F.);
#358=ORIENTED_EDGE('',*,*,#536,.F.);
#359=ORIENTED_EDGE('',*,*,#534,.F.);
#360=ORIENTED_EDGE('',*,*,#532,.F.);
#361=ORIENTED_EDGE('',*,*,#530,.F.);
#362=ORIENTED_EDGE('',*,*,#528,.F.);
#363=ORIENTED_EDGE('',*,*,#526,.F.);
#364=ORIENTED_EDGE('',*,*,#524,.F.);
#365=ORIENTED_EDGE('',*,*,#438,.F.);
#366=ORIENTED_EDGE('',*,*,#455,.F.);
#367=ORIENTED_EDGE('',*,*,#523,.F.);
#368=ORIENTED_EDGE('',*,*,#521,.F.);
#369=ORIENTED_EDGE('',*,*,#519,.F.);
#370=ORIENTED_EDGE('',*,*,#458,.F.);
#371=ORIENTED_EDGE('',*,*,#447,.F.);
#372=ORIENTED_EDGE('',*,*,#518,.F.);
#373=ORIENTED_EDGE('',*,*,#516,.F.);
#374=ORIENTED_EDGE('',*,*,#514,.F.);
#375=ORIENTED_EDGE('',*,*,#512,.F.);
#376=ORIENTED_EDGE('',*,*,#510,.F.);
#377=ORIENTED_EDGE('',*,*,#508,.F.);
#378=ORIENTED_EDGE('',*,*,#506,.F.);
#379=ORIENTED_EDGE('',*,*,#504,.F.);
#380=ORIENTED_EDGE('',*,*,#502,.F.);
#381=ORIENTED_EDGE('',*,*,#500,.F.);
#382=ORIENTED_EDGE('',*,*,#498,.F.);
#383=ORIENTED_EDGE('',*,*,#496,.F.);
#384=ORIENTED_EDGE('',*,*,#494,.F.);
#385=ORIENTED_EDGE('',*,*,#468,.F.);
#386=ORIENTED_EDGE('',*,*,#465,.F.);
#387=ORIENTED_EDGE('',*,*,#443,.F.);
#388=ORIENTED_EDGE('',*,*,#493,.F.);
#389=ORIENTED_EDGE('',*,*,#491,.F.);
#390=ORIENTED_EDGE('',*,*,#489,.F.);
#391=EDGE_CURVE('',#541,#542,#641,.F.);
#392=EDGE_CURVE('',#542,#543,#57,.T.);
#393=EDGE_CURVE('',#543,#544,#642,.T.);
#394=EDGE_CURVE('',#541,#544,#58,.T.);
#395=EDGE_CURVE('',#545,#546,#643,.F.);
#396=EDGE_CURVE('',#546,#547,#59,.T.);
#397=EDGE_CURVE('',#547,#548,#644,.T.);
#398=EDGE_CURVE('',#545,#548,#60,.T.);
#399=EDGE_CURVE('',#549,#550,#645,.F.);
#400=EDGE_CURVE('',#550,#551,#61,.T.);
#401=EDGE_CURVE('',#551,#552,#646,.T.);
#402=EDGE_CURVE('',#549,#552,#62,.T.);
#403=EDGE_CURVE('',#553,#554,#63,.T.);
#404=EDGE_CURVE('',#553,#555,#647,.T.);
#405=EDGE_CURVE('',#555,#556,#64,.T.);
#406=EDGE_CURVE('',#557,#556,#648,.T.);
#407=EDGE_CURVE('',#545,#557,#649,.T.);
#408=EDGE_CURVE('',#549,#548,#650,.T.);
#409=EDGE_CURVE('',#558,#552,#651,.T.);
#410=EDGE_CURVE('',#558,#559,#652,.T.);
#411=EDGE_CURVE('',#560,#559,#65,.T.);
#412=EDGE_CURVE('',#560,#561,#653,.T.);
#413=EDGE_CURVE('',#561,#562,#66,.T.);
#414=EDGE_CURVE('',#562,#563,#654,.T.);
#415=EDGE_CURVE('',#563,#564,#67,.T.);
#416=EDGE_CURVE('',#565,#564,#655,.T.);
#417=EDGE_CURVE('',#566,#565,#68,.T.);
#418=EDGE_CURVE('',#566,#554,#656,.T.);
#419=EDGE_CURVE('',#567,#568,#69,.T.);
#420=EDGE_CURVE('',#569,#568,#657,.T.);
#421=EDGE_CURVE('',#570,#569,#70,.T.);
#422=EDGE_CURVE('',#571,#570,#658,.T.);
#423=EDGE_CURVE('',#572,#571,#71,.T.);
#424=EDGE_CURVE('',#573,#572,#659,.T.);
#425=EDGE_CURVE('',#573,#574,#72,.T.);
#426=EDGE_CURVE('',#575,#574,#660,.T.);
#427=EDGE_CURVE('',#576,#575,#661,.T.);
#428=EDGE_CURVE('',#577,#576,#73,.T.);
#429=EDGE_CURVE('',#578,#577,#662,.T.);
#430=EDGE_CURVE('',#579,#578,#74,.T.);
#431=EDGE_CURVE('',#580,#579,#663,.T.);
#432=EDGE_CURVE('',#580,#581,#664,.T.);
#433=EDGE_CURVE('',#582,#581,#75,.T.);
#434=EDGE_CURVE('',#582,#583,#665,.T.);
#435=EDGE_CURVE('',#583,#584,#76,.T.);
#436=EDGE_CURVE('',#584,#567,#666,.T.);
#437=EDGE_CURVE('',#547,#550,#667,.T.);
#438=EDGE_CURVE('',#585,#586,#668,.T.);
#439=EDGE_CURVE('',#586,#558,#669,.T.);
#440=EDGE_CURVE('',#551,#587,#670,.T.);
#441=EDGE_CURVE('',#587,#585,#671,.T.);
#442=EDGE_CURVE('',#588,#557,#672,.T.);
#443=EDGE_CURVE('',#588,#589,#673,.T.);
#444=EDGE_CURVE('',#590,#589,#674,.T.);
#445=EDGE_CURVE('',#590,#546,#675,.T.);
#446=EDGE_CURVE('',#591,#575,#676,.T.);
#447=EDGE_CURVE('',#591,#592,#677,.T.);
#448=EDGE_CURVE('',#593,#592,#678,.T.);
#449=EDGE_CURVE('',#593,#594,#679,.T.);
#450=EDGE_CURVE('',#594,#576,#680,.T.);
#451=EDGE_CURVE('',#577,#595,#681,.F.);
#452=EDGE_CURVE('',#595,#596,#682,.T.);
#453=EDGE_CURVE('',#596,#578,#683,.T.);
#454=EDGE_CURVE('',#597,#598,#684,.T.);
#455=EDGE_CURVE('',#597,#585,#685,.T.);
#456=EDGE_CURVE('',#587,#542,#686,.T.);
#457=EDGE_CURVE('',#541,#598,#687,.T.);
#458=EDGE_CURVE('',#592,#599,#688,.T.);
#459=EDGE_CURVE('',#599,#600,#689,.T.);
#460=EDGE_CURVE('',#600,#544,#690,.T.);
#461=EDGE_CURVE('',#543,#593,#691,.T.);
#462=EDGE_CURVE('',#601,#600,#692,.T.);
#463=EDGE_CURVE('',#601,#602,#693,.T.);
#464=EDGE_CURVE('',#602,#598,#694,.T.);
#465=EDGE_CURVE('',#589,#603,#695,.T.);
#466=EDGE_CURVE('',#604,#603,#696,.T.);
#467=EDGE_CURVE('',#604,#590,#697,.T.);
#468=EDGE_CURVE('',#603,#605,#698,.T.);
#469=EDGE_CURVE('',#605,#580,#699,.T.);
#470=EDGE_CURVE('',#579,#606,#700,.F.);
#471=EDGE_CURVE('',#606,#604,#701,.T.);
#472=EDGE_CURVE('',#596,#606,#77,.T.);
#473=EDGE_CURVE('',#594,#595,#78,.T.);
#474=EDGE_CURVE('',#607,#608,#702,.T.);
#475=EDGE_CURVE('',#609,#608,#703,.T.);
#476=EDGE_CURVE('',#610,#609,#704,.T.);
#477=EDGE_CURVE('',#610,#607,#705,.T.);
#478=EDGE_CURVE('',#611,#607,#706,.T.);
#479=EDGE_CURVE('',#612,#610,#707,.T.);
#480=EDGE_CURVE('',#612,#611,#708,.T.);
#481=EDGE_CURVE('',#613,#611,#709,.T.);
#482=EDGE_CURVE('',#614,#612,#710,.T.);
#483=EDGE_CURVE('',#614,#613,#711,.T.);
#484=EDGE_CURVE('',#608,#613,#712,.T.);
#485=EDGE_CURVE('',#609,#614,#713,.T.);
#486=EDGE_CURVE('',#615,#554,#714,.T.);
#487=EDGE_CURVE('',#615,#616,#79,.T.);
#488=EDGE_CURVE('',#616,#553,#715,.T.);
#489=EDGE_CURVE('',#616,#617,#716,.T.);
#490=EDGE_CURVE('',#617,#555,#717,.T.);
#491=EDGE_CURVE('',#617,#618,#80,.T.);
#492=EDGE_CURVE('',#618,#556,#718,.T.);
#493=EDGE_CURVE('',#618,#588,#719,.T.);
#494=EDGE_CURVE('',#605,#619,#720,.T.);
#495=EDGE_CURVE('',#619,#581,#721,.T.);
#496=EDGE_CURVE('',#619,#620,#81,.T.);
#497=EDGE_CURVE('',#620,#582,#722,.T.);
#498=EDGE_CURVE('',#620,#621,#723,.T.);
#499=EDGE_CURVE('',#621,#583,#724,.T.);
#500=EDGE_CURVE('',#621,#622,#82,.T.);
#501=EDGE_CURVE('',#622,#584,#725,.T.);
#502=EDGE_CURVE('',#622,#623,#726,.T.);
#503=EDGE_CURVE('',#623,#567,#727,.T.);
#504=EDGE_CURVE('',#623,#624,#83,.T.);
#505=EDGE_CURVE('',#624,#568,#728,.T.);
#506=EDGE_CURVE('',#624,#625,#729,.T.);
#507=EDGE_CURVE('',#625,#569,#730,.T.);
#508=EDGE_CURVE('',#625,#626,#84,.T.);
#509=EDGE_CURVE('',#626,#570,#731,.T.);
#510=EDGE_CURVE('',#626,#627,#732,.T.);
#511=EDGE_CURVE('',#627,#571,#733,.T.);
#512=EDGE_CURVE('',#627,#628,#85,.T.);
#513=EDGE_CURVE('',#628,#572,#734,.T.);
#514=EDGE_CURVE('',#628,#629,#735,.T.);
#515=EDGE_CURVE('',#629,#573,#736,.T.);
#516=EDGE_CURVE('',#629,#630,#86,.T.);
#517=EDGE_CURVE('',#630,#574,#737,.T.);
#518=EDGE_CURVE('',#630,#591,#738,.T.);
#519=EDGE_CURVE('',#599,#631,#739,.T.);
#520=EDGE_CURVE('',#631,#601,#740,.T.);
#521=EDGE_CURVE('',#631,#632,#741,.T.);
#522=EDGE_CURVE('',#632,#602,#742,.T.);
#523=EDGE_CURVE('',#632,#597,#743,.T.);
#524=EDGE_CURVE('',#586,#633,#744,.T.);
#525=EDGE_CURVE('',#633,#559,#745,.T.);
#526=EDGE_CURVE('',#633,#634,#87,.T.);
#527=EDGE_CURVE('',#634,#560,#746,.T.);
#528=EDGE_CURVE('',#634,#635,#747,.T.);
#529=EDGE_CURVE('',#635,#561,#748,.T.);
#530=EDGE_CURVE('',#635,#636,#88,.T.);
#531=EDGE_CURVE('',#636,#562,#749,.T.);
#532=EDGE_CURVE('',#636,#637,#750,.T.);
#533=EDGE_CURVE('',#637,#563,#751,.T.);
#534=EDGE_CURVE('',#637,#638,#89,.T.);
#535=EDGE_CURVE('',#638,#564,#752,.T.);
#536=EDGE_CURVE('',#638,#639,#753,.T.);
#537=EDGE_CURVE('',#639,#565,#754,.T.);
#538=EDGE_CURVE('',#639,#640,#90,.T.);
#539=EDGE_CURVE('',#640,#566,#755,.T.);
#540=EDGE_CURVE('',#640,#615,#756,.T.);
#541=VERTEX_POINT('',#1811);
#542=VERTEX_POINT('',#1812);
#543=VERTEX_POINT('',#1814);
#544=VERTEX_POINT('',#1816);
#545=VERTEX_POINT('',#1820);
#546=VERTEX_POINT('',#1821);
#547=VERTEX_POINT('',#1823);
#548=VERTEX_POINT('',#1825);
#549=VERTEX_POINT('',#1829);
#550=VERTEX_POINT('',#1830);
#551=VERTEX_POINT('',#1832);
#552=VERTEX_POINT('',#1834);
#553=VERTEX_POINT('',#1838);
#554=VERTEX_POINT('',#1839);
#555=VERTEX_POINT('',#1841);
#556=VERTEX_POINT('',#1843);
#557=VERTEX_POINT('',#1845);
#558=VERTEX_POINT('',#1849);
#559=VERTEX_POINT('',#1851);
#560=VERTEX_POINT('',#1853);
#561=VERTEX_POINT('',#1855);
#562=VERTEX_POINT('',#1857);
#563=VERTEX_POINT('',#1859);
#564=VERTEX_POINT('',#1861);
#565=VERTEX_POINT('',#1863);
#566=VERTEX_POINT('',#1865);
#567=VERTEX_POINT('',#1869);
#568=VERTEX_POINT('',#1870);
#569=VERTEX_POINT('',#1872);
#570=VERTEX_POINT('',#1874);
#571=VERTEX_POINT('',#1876);
#572=VERTEX_POINT('',#1878);
#573=VERTEX_POINT('',#1880);
#574=VERTEX_POINT('',#1882);
#575=VERTEX_POINT('',#1884);
#576=VERTEX_POINT('',#1886);
#577=VERTEX_POINT('',#1888);
#578=VERTEX_POINT('',#1890);
#579=VERTEX_POINT('',#1892);
#580=VERTEX_POINT('',#1894);
#581=VERTEX_POINT('',#1896);
#582=VERTEX_POINT('',#1898);
#583=VERTEX_POINT('',#1900);
#584=VERTEX_POINT('',#1902);
#585=VERTEX_POINT('',#1908);
#586=VERTEX_POINT('',#1909);
#587=VERTEX_POINT('',#1912);
#588=VERTEX_POINT('',#1916);
#589=VERTEX_POINT('',#1918);
#590=VERTEX_POINT('',#1920);
#591=VERTEX_POINT('',#1924);
#592=VERTEX_POINT('',#1926);
#593=VERTEX_POINT('',#1928);
#594=VERTEX_POINT('',#1930);
#595=VERTEX_POINT('',#1934);
#596=VERTEX_POINT('',#1936);
#597=VERTEX_POINT('',#1940);
#598=VERTEX_POINT('',#1941);
#599=VERTEX_POINT('',#1947);
#600=VERTEX_POINT('',#1949);
#601=VERTEX_POINT('',#1954);
#602=VERTEX_POINT('',#1956);
#603=VERTEX_POINT('',#1960);
#604=VERTEX_POINT('',#1962);
#605=VERTEX_POINT('',#1966);
#606=VERTEX_POINT('',#1969);
#607=VERTEX_POINT('',#1977);
#608=VERTEX_POINT('',#1978);
#609=VERTEX_POINT('',#1980);
#610=VERTEX_POINT('',#1982);
#611=VERTEX_POINT('',#1986);
#612=VERTEX_POINT('',#1988);
#613=VERTEX_POINT('',#1992);
#614=VERTEX_POINT('',#1994);
#615=VERTEX_POINT('',#2003);
#616=VERTEX_POINT('',#2005);
#617=VERTEX_POINT('',#2009);
#618=VERTEX_POINT('',#2013);
#619=VERTEX_POINT('',#2019);
#620=VERTEX_POINT('',#2023);
#621=VERTEX_POINT('',#2027);
#622=VERTEX_POINT('',#2031);
#623=VERTEX_POINT('',#2035);
#624=VERTEX_POINT('',#2039);
#625=VERTEX_POINT('',#2043);
#626=VERTEX_POINT('',#2047);
#627=VERTEX_POINT('',#2051);
#628=VERTEX_POINT('',#2055);
#629=VERTEX_POINT('',#2059);
#630=VERTEX_POINT('',#2063);
#631=VERTEX_POINT('',#2069);
#632=VERTEX_POINT('',#2073);
#633=VERTEX_POINT('',#2079);
#634=VERTEX_POINT('',#2083);
#635=VERTEX_POINT('',#2087);
#636=VERTEX_POINT('',#2091);
#637=VERTEX_POINT('',#2095);
#638=VERTEX_POINT('',#2099);
#639=VERTEX_POINT('',#2103);
#640=VERTEX_POINT('',#2107);
#641=LINE('',#1810,#757);
#642=LINE('',#1815,#758);
#643=LINE('',#1819,#759);
#644=LINE('',#1824,#760);
#645=LINE('',#1828,#761);
#646=LINE('',#1833,#762);
#647=LINE('',#1840,#763);
#648=LINE('',#1844,#764);
#649=LINE('',#1846,#765);
#650=LINE('',#1847,#766);
#651=LINE('',#1848,#767);
#652=LINE('',#1850,#768);
#653=LINE('',#1854,#769);
#654=LINE('',#1858,#770);
#655=LINE('',#1862,#771);
#656=LINE('',#1866,#772);
#657=LINE('',#1871,#773);
#658=LINE('',#1875,#774);
#659=LINE('',#1879,#775);
#660=LINE('',#1883,#776);
#661=LINE('',#1885,#777);
#662=LINE('',#1889,#778);
#663=LINE('',#1893,#779);
#664=LINE('',#1895,#780);
#665=LINE('',#1899,#781);
#666=LINE('',#1903,#782);
#667=LINE('',#1905,#783);
#668=LINE('',#1907,#784);
#669=LINE('',#1910,#785);
#670=LINE('',#1911,#786);
#671=LINE('',#1913,#787);
#672=LINE('',#1915,#788);
#673=LINE('',#1917,#789);
#674=LINE('',#1919,#790);
#675=LINE('',#1921,#791);
#676=LINE('',#1923,#792);
#677=LINE('',#1925,#793);
#678=LINE('',#1927,#794);
#679=LINE('',#1929,#795);
#680=LINE('',#1931,#796);
#681=LINE('',#1933,#797);
#682=LINE('',#1935,#798);
#683=LINE('',#1937,#799);
#684=LINE('',#1939,#800);
#685=LINE('',#1942,#801);
#686=LINE('',#1943,#802);
#687=LINE('',#1944,#803);
#688=LINE('',#1946,#804);
#689=LINE('',#1948,#805);
#690=LINE('',#1950,#806);
#691=LINE('',#1951,#807);
#692=LINE('',#1953,#808);
#693=LINE('',#1955,#809);
#694=LINE('',#1957,#810);
#695=LINE('',#1959,#811);
#696=LINE('',#1961,#812);
#697=LINE('',#1963,#813);
#698=LINE('',#1965,#814);
#699=LINE('',#1967,#815);
#700=LINE('',#1968,#816);
#701=LINE('',#1970,#817);
#702=LINE('',#1976,#818);
#703=LINE('',#1979,#819);
#704=LINE('',#1981,#820);
#705=LINE('',#1983,#821);
#706=LINE('',#1985,#822);
#707=LINE('',#1987,#823);
#708=LINE('',#1989,#824);
#709=LINE('',#1991,#825);
#710=LINE('',#1993,#826);
#711=LINE('',#1995,#827);
#712=LINE('',#1997,#828);
#713=LINE('',#1998,#829);
#714=LINE('',#2002,#830);
#715=LINE('',#2006,#831);
#716=LINE('',#2008,#832);
#717=LINE('',#2010,#833);
#718=LINE('',#2014,#834);
#719=LINE('',#2016,#835);
#720=LINE('',#2018,#836);
#721=LINE('',#2020,#837);
#722=LINE('',#2024,#838);
#723=LINE('',#2026,#839);
#724=LINE('',#2028,#840);
#725=LINE('',#2032,#841);
#726=LINE('',#2034,#842);
#727=LINE('',#2036,#843);
#728=LINE('',#2040,#844);
#729=LINE('',#2042,#845);
#730=LINE('',#2044,#846);
#731=LINE('',#2048,#847);
#732=LINE('',#2050,#848);
#733=LINE('',#2052,#849);
#734=LINE('',#2056,#850);
#735=LINE('',#2058,#851);
#736=LINE('',#2060,#852);
#737=LINE('',#2064,#853);
#738=LINE('',#2066,#854);
#739=LINE('',#2068,#855);
#740=LINE('',#2070,#856);
#741=LINE('',#2072,#857);
#742=LINE('',#2074,#858);
#743=LINE('',#2076,#859);
#744=LINE('',#2078,#860);
#745=LINE('',#2080,#861);
#746=LINE('',#2084,#862);
#747=LINE('',#2086,#863);
#748=LINE('',#2088,#864);
#749=LINE('',#2092,#865);
#750=LINE('',#2094,#866);
#751=LINE('',#2096,#867);
#752=LINE('',#2100,#868);
#753=LINE('',#2102,#869);
#754=LINE('',#2104,#870);
#755=LINE('',#2108,#871);
#756=LINE('',#2110,#872);
#757=VECTOR('',#1520,1000.);
#758=VECTOR('',#1523,1000.);
#759=VECTOR('',#1528,1000.);
#760=VECTOR('',#1531,1000.);
#761=VECTOR('',#1536,1000.);
#762=VECTOR('',#1539,1000.);
#763=VECTOR('',#1546,1000.);
#764=VECTOR('',#1549,1000.);
#765=VECTOR('',#1550,1000.);
#766=VECTOR('',#1551,1000.);
#767=VECTOR('',#1552,1000.);
#768=VECTOR('',#1553,1000.);
#769=VECTOR('',#1556,1000.);
#770=VECTOR('',#1559,1000.);
#771=VECTOR('',#1562,1000.);
#772=VECTOR('',#1565,1000.);
#773=VECTOR('',#1570,1000.);
#774=VECTOR('',#1573,1000.);
#775=VECTOR('',#1576,1000.);
#776=VECTOR('',#1579,1000.);
#777=VECTOR('',#1580,1000.);
#778=VECTOR('',#1583,1000.);
#779=VECTOR('',#1586,1000.);
#780=VECTOR('',#1587,1000.);
#781=VECTOR('',#1590,1000.);
#782=VECTOR('',#1593,1000.);
#783=VECTOR('',#1596,1000.);
#784=VECTOR('',#1599,1000.);
#785=VECTOR('',#1600,1000.);
#786=VECTOR('',#1601,1000.);
#787=VECTOR('',#1602,1000.);
#788=VECTOR('',#1605,1000.);
#789=VECTOR('',#1606,1000.);
#790=VECTOR('',#1607,1000.);
#791=VECTOR('',#1608,1000.);
#792=VECTOR('',#1611,1000.);
#793=VECTOR('',#1612,1000.);
#794=VECTOR('',#1613,1000.);
#795=VECTOR('',#1614,1000.);
#796=VECTOR('',#1615,1000.);
#797=VECTOR('',#1618,1000.);
#798=VECTOR('',#1619,1000.);
#799=VECTOR('',#1620,1000.);
#800=VECTOR('',#1623,1000.);
#801=VECTOR('',#1624,1000.);
#802=VECTOR('',#1625,1000.);
#803=VECTOR('',#1626,1000.);
#804=VECTOR('',#1629,1000.);
#805=VECTOR('',#1630,1000.);
#806=VECTOR('',#1631,1000.);
#807=VECTOR('',#1632,1000.);
#808=VECTOR('',#1635,1000.);
#809=VECTOR('',#1636,1000.);
#810=VECTOR('',#1637,1000.);
#811=VECTOR('',#1640,1000.);
#812=VECTOR('',#1641,1000.);
#813=VECTOR('',#1642,1000.);
#814=VECTOR('',#1645,1000.);
#815=VECTOR('',#1646,1000.);
#816=VECTOR('',#1647,1000.);
#817=VECTOR('',#1648,1000.);
#818=VECTOR('',#1659,1000.);
#819=VECTOR('',#1660,1000.);
#820=VECTOR('',#1661,1000.);
#821=VECTOR('',#1662,1000.);
#822=VECTOR('',#1665,1000.);
#823=VECTOR('',#1666,1000.);
#824=VECTOR('',#1667,1000.);
#825=VECTOR('',#1670,1000.);
#826=VECTOR('',#1671,1000.);
#827=VECTOR('',#1672,1000.);
#828=VECTOR('',#1675,1000.);
#829=VECTOR('',#1676,1000.);
#830=VECTOR('',#1683,1000.);
#831=VECTOR('',#1686,1000.);
#832=VECTOR('',#1689,1000.);
#833=VECTOR('',#1690,1000.);
#834=VECTOR('',#1695,1000.);
#835=VECTOR('',#1698,1000.);
#836=VECTOR('',#1701,1000.);
#837=VECTOR('',#1702,1000.);
#838=VECTOR('',#1707,1000.);
#839=VECTOR('',#1710,1000.);
#840=VECTOR('',#1711,1000.);
#841=VECTOR('',#1716,1000.);
#842=VECTOR('',#1719,1000.);
#843=VECTOR('',#1720,1000.);
#844=VECTOR('',#1725,1000.);
#845=VECTOR('',#1728,1000.);
#846=VECTOR('',#1729,1000.);
#847=VECTOR('',#1734,1000.);
#848=VECTOR('',#1737,1000.);
#849=VECTOR('',#1738,1000.);
#850=VECTOR('',#1743,1000.);
#851=VECTOR('',#1746,1000.);
#852=VECTOR('',#1747,1000.);
#853=VECTOR('',#1752,1000.);
#854=VECTOR('',#1755,1000.);
#855=VECTOR('',#1758,1000.);
#856=VECTOR('',#1759,1000.);
#857=VECTOR('',#1762,1000.);
#858=VECTOR('',#1763,1000.);
#859=VECTOR('',#1766,1000.);
#860=VECTOR('',#1769,1000.);
#861=VECTOR('',#1770,1000.);
#862=VECTOR('',#1775,1000.);
#863=VECTOR('',#1778,1000.);
#864=VECTOR('',#1779,1000.);
#865=VECTOR('',#1784,1000.);
#866=VECTOR('',#1787,1000.);
#867=VECTOR('',#1788,1000.);
#868=VECTOR('',#1793,1000.);
#869=VECTOR('',#1796,1000.);
#870=VECTOR('',#1797,1000.);
#871=VECTOR('',#1802,1000.);
#872=VECTOR('',#1805,1000.);
#873=EDGE_LOOP('',(#91,#92,#93,#94));
#874=EDGE_LOOP('',(#95,#96,#97,#98));
#875=EDGE_LOOP('',(#99,#100,#101,#102));
#876=EDGE_LOOP('',(#103,#104,#105,#106,#107,#108,#109,#110,#111,#112,#113,
#114,#115,#116,#117,#118,#119,#120));
#877=EDGE_LOOP('',(#121,#122,#123,#124,#125,#126,#127,#128,#129,#130,#131,
#132,#133,#134,#135,#136,#137,#138));
#878=EDGE_LOOP('',(#139,#140,#141,#142));
#879=EDGE_LOOP('',(#143,#144,#145,#146,#147,#148));
#880=EDGE_LOOP('',(#149,#150,#151,#152,#153,#154));
#881=EDGE_LOOP('',(#155,#156,#157,#158,#159,#160));
#882=EDGE_LOOP('',(#161,#162,#163,#164));
#883=EDGE_LOOP('',(#165,#166,#167,#168,#169,#170));
#884=EDGE_LOOP('',(#171,#172,#173,#174,#175,#176));
#885=EDGE_LOOP('',(#177,#178,#179,#180,#181,#182));
#886=EDGE_LOOP('',(#183,#184,#185,#186));
#887=EDGE_LOOP('',(#187,#188,#189,#190,#191,#192));
#888=EDGE_LOOP('',(#193,#194,#195,#196));
#889=EDGE_LOOP('',(#197,#198,#199,#200));
#890=EDGE_LOOP('',(#201,#202,#203,#204));
#891=EDGE_LOOP('',(#205,#206,#207,#208));
#892=EDGE_LOOP('',(#209,#210,#211,#212));
#893=EDGE_LOOP('',(#213,#214,#215,#216));
#894=EDGE_LOOP('',(#217,#218,#219,#220,#221,#222,#223,#224,#225,#226,#227,
#228,#229,#230));
#895=EDGE_LOOP('',(#231,#232,#233,#234));
#896=EDGE_LOOP('',(#235,#236,#237,#238));
#897=EDGE_LOOP('',(#239,#240,#241,#242));
#898=EDGE_LOOP('',(#243,#244,#245,#246));
#899=EDGE_LOOP('',(#247,#248,#249,#250));
#900=EDGE_LOOP('',(#251,#252,#253,#254));
#901=EDGE_LOOP('',(#255,#256,#257,#258));
#902=EDGE_LOOP('',(#259,#260,#261,#262));
#903=EDGE_LOOP('',(#263,#264,#265,#266));
#904=EDGE_LOOP('',(#267,#268,#269,#270));
#905=EDGE_LOOP('',(#271,#272,#273,#274));
#906=EDGE_LOOP('',(#275,#276,#277,#278));
#907=EDGE_LOOP('',(#279,#280,#281,#282));
#908=EDGE_LOOP('',(#283,#284,#285,#286));
#909=EDGE_LOOP('',(#287,#288,#289,#290));
#910=EDGE_LOOP('',(#291,#292,#293,#294));
#911=EDGE_LOOP('',(#295,#296,#297,#298));
#912=EDGE_LOOP('',(#299,#300,#301,#302));
#913=EDGE_LOOP('',(#303,#304,#305,#306));
#914=EDGE_LOOP('',(#307,#308,#309,#310));
#915=EDGE_LOOP('',(#311,#312,#313,#314));
#916=EDGE_LOOP('',(#315,#316,#317,#318));
#917=EDGE_LOOP('',(#319,#320,#321,#322));
#918=EDGE_LOOP('',(#323,#324,#325,#326));
#919=EDGE_LOOP('',(#327,#328,#329,#330));
#920=EDGE_LOOP('',(#331,#332,#333,#334));
#921=EDGE_LOOP('',(#335,#336,#337,#338));
#922=EDGE_LOOP('',(#339,#340,#341,#342));
#923=EDGE_LOOP('',(#343,#344,#345,#346));
#924=EDGE_LOOP('',(#347,#348,#349,#350));
#925=EDGE_LOOP('',(#351,#352,#353,#354));
#926=EDGE_LOOP('',(#355,#356,#357,#358,#359,#360,#361,#362,#363,#364,#365,
#366,#367,#368,#369,#370,#371,#372,#373,#374,#375,#376,#377,#378,#379,#380,
#381,#382,#383,#384,#385,#386,#387,#388,#389,#390));
#927=FACE_BOUND('',#873,.T.);
#928=FACE_BOUND('',#874,.T.);
#929=FACE_BOUND('',#875,.T.);
#930=FACE_BOUND('',#876,.T.);
#931=FACE_BOUND('',#877,.T.);
#932=FACE_BOUND('',#878,.T.);
#933=FACE_BOUND('',#879,.T.);
#934=FACE_BOUND('',#880,.T.);
#935=FACE_BOUND('',#881,.T.);
#936=FACE_BOUND('',#882,.T.);
#937=FACE_BOUND('',#883,.T.);
#938=FACE_BOUND('',#884,.T.);
#939=FACE_BOUND('',#885,.T.);
#940=FACE_BOUND('',#886,.T.);
#941=FACE_BOUND('',#887,.T.);
#942=FACE_BOUND('',#888,.T.);
#943=FACE_BOUND('',#889,.T.);
#944=FACE_BOUND('',#890,.T.);
#945=FACE_BOUND('',#891,.T.);
#946=FACE_BOUND('',#892,.T.);
#947=FACE_BOUND('',#893,.T.);
#948=FACE_BOUND('',#894,.T.);
#949=FACE_BOUND('',#895,.T.);
#950=FACE_BOUND('',#896,.T.);
#951=FACE_BOUND('',#897,.T.);
#952=FACE_BOUND('',#898,.T.);
#953=FACE_BOUND('',#899,.T.);
#954=FACE_BOUND('',#900,.T.);
#955=FACE_BOUND('',#901,.T.);
#956=FACE_BOUND('',#902,.T.);
#957=FACE_BOUND('',#903,.T.);
#958=FACE_BOUND('',#904,.T.);
#959=FACE_BOUND('',#905,.T.);
#960=FACE_BOUND('',#906,.T.);
#961=FACE_BOUND('',#907,.T.);
#962=FACE_BOUND('',#908,.T.);
#963=FACE_BOUND('',#909,.T.);
#964=FACE_BOUND('',#910,.T.);
#965=FACE_BOUND('',#911,.T.);
#966=FACE_BOUND('',#912,.T.);
#967=FACE_BOUND('',#913,.T.);
#968=FACE_BOUND('',#914,.T.);
#969=FACE_BOUND('',#915,.T.);
#970=FACE_BOUND('',#916,.T.);
#971=FACE_BOUND('',#917,.T.);
#972=FACE_BOUND('',#918,.T.);
#973=FACE_BOUND('',#919,.T.);
#974=FACE_BOUND('',#920,.T.);
#975=FACE_BOUND('',#921,.T.);
#976=FACE_BOUND('',#922,.T.);
#977=FACE_BOUND('',#923,.T.);
#978=FACE_BOUND('',#924,.T.);
#979=FACE_BOUND('',#925,.T.);
#980=FACE_BOUND('',#926,.T.);
#981=CYLINDRICAL_SURFACE('',#1429,0.25);
#982=CYLINDRICAL_SURFACE('',#1432,0.25);
#983=CYLINDRICAL_SURFACE('',#1435,0.25);
#984=CYLINDRICAL_SURFACE('',#1464,0.25);
#985=CYLINDRICAL_SURFACE('',#1466,0.25);
#986=CYLINDRICAL_SURFACE('',#1474,0.210413816900165);
#987=CYLINDRICAL_SURFACE('',#1477,0.177153726475919);
#988=CYLINDRICAL_SURFACE('',#1481,0.177153726475919);
#989=CYLINDRICAL_SURFACE('',#1484,0.210413816900165);
#990=CYLINDRICAL_SURFACE('',#1487,0.218310871029313);
#991=CYLINDRICAL_SURFACE('',#1490,0.218310871029313);
#992=CYLINDRICAL_SURFACE('',#1493,0.210413816900165);
#993=CYLINDRICAL_SURFACE('',#1496,0.152419304384674);
#994=CYLINDRICAL_SURFACE('',#1503,0.152419304384674);
#995=CYLINDRICAL_SURFACE('',#1506,0.210413816900165);
#996=CYLINDRICAL_SURFACE('',#1509,0.218310871029313);
#997=CYLINDRICAL_SURFACE('',#1512,0.218310871029313);
#998=STYLED_ITEM('',(#1051),#1371);
#999=STYLED_ITEM('',(#1052),#1372);
#1000=STYLED_ITEM('',(#1053),#1373);
#1001=STYLED_ITEM('',(#1054),#1374);
#1002=STYLED_ITEM('',(#1055),#1375);
#1003=STYLED_ITEM('',(#1056),#1376);
#1004=STYLED_ITEM('',(#1057),#1377);
#1005=STYLED_ITEM('',(#1058),#1378);
#1006=STYLED_ITEM('',(#1059),#1379);
#1007=STYLED_ITEM('',(#1060),#1380);
#1008=STYLED_ITEM('',(#1061),#1381);
#1009=STYLED_ITEM('',(#1062),#1382);
#1010=STYLED_ITEM('',(#1063),#1383);
#1011=STYLED_ITEM('',(#1064),#1384);
#1012=STYLED_ITEM('',(#1065),#1385);
#1013=STYLED_ITEM('',(#1066),#1386);
#1014=STYLED_ITEM('',(#1067),#1387);
#1015=STYLED_ITEM('',(#1068),#1388);
#1016=STYLED_ITEM('',(#1069),#1389);
#1017=STYLED_ITEM('',(#1070),#1390);
#1018=STYLED_ITEM('',(#1071),#1391);
#1019=STYLED_ITEM('',(#1072),#1392);
#1020=STYLED_ITEM('',(#1073),#1393);
#1021=STYLED_ITEM('',(#1074),#1394);
#1022=STYLED_ITEM('',(#1075),#1395);
#1023=STYLED_ITEM('',(#1076),#1396);
#1024=STYLED_ITEM('',(#1077),#1397);
#1025=STYLED_ITEM('',(#1078),#1398);
#1026=STYLED_ITEM('',(#1079),#1399);
#1027=STYLED_ITEM('',(#1080),#1400);
#1028=STYLED_ITEM('',(#1081),#1401);
#1029=STYLED_ITEM('',(#1082),#1402);
#1030=STYLED_ITEM('',(#1083),#1403);
#1031=STYLED_ITEM('',(#1084),#1404);
#1032=STYLED_ITEM('',(#1085),#1405);
#1033=STYLED_ITEM('',(#1086),#1406);
#1034=STYLED_ITEM('',(#1087),#1407);
#1035=STYLED_ITEM('',(#1088),#1408);
#1036=STYLED_ITEM('',(#1089),#1409);
#1037=STYLED_ITEM('',(#1090),#1410);
#1038=STYLED_ITEM('',(#1091),#1411);
#1039=STYLED_ITEM('',(#1092),#1412);
#1040=STYLED_ITEM('',(#1093),#1413);
#1041=STYLED_ITEM('',(#1094),#1414);
#1042=STYLED_ITEM('',(#1095),#1415);
#1043=STYLED_ITEM('',(#1096),#1416);
#1044=STYLED_ITEM('',(#1097),#1417);
#1045=STYLED_ITEM('',(#1098),#1418);
#1046=STYLED_ITEM('',(#1099),#1419);
#1047=STYLED_ITEM('',(#1100),#1420);
#1048=STYLED_ITEM('',(#1101),#1421);
#1049=STYLED_ITEM('',(#1102),#1422);
#1050=STYLED_ITEM('',(#1103),#1423);
#1051=PRESENTATION_STYLE_ASSIGNMENT((#1104));
#1052=PRESENTATION_STYLE_ASSIGNMENT((#1105));
#1053=PRESENTATION_STYLE_ASSIGNMENT((#1106));
#1054=PRESENTATION_STYLE_ASSIGNMENT((#1107));
#1055=PRESENTATION_STYLE_ASSIGNMENT((#1108));
#1056=PRESENTATION_STYLE_ASSIGNMENT((#1109));
#1057=PRESENTATION_STYLE_ASSIGNMENT((#1110));
#1058=PRESENTATION_STYLE_ASSIGNMENT((#1111));
#1059=PRESENTATION_STYLE_ASSIGNMENT((#1112));
#1060=PRESENTATION_STYLE_ASSIGNMENT((#1113));
#1061=PRESENTATION_STYLE_ASSIGNMENT((#1114));
#1062=PRESENTATION_STYLE_ASSIGNMENT((#1115));
#1063=PRESENTATION_STYLE_ASSIGNMENT((#1116));
#1064=PRESENTATION_STYLE_ASSIGNMENT((#1117));
#1065=PRESENTATION_STYLE_ASSIGNMENT((#1118));
#1066=PRESENTATION_STYLE_ASSIGNMENT((#1119));
#1067=PRESENTATION_STYLE_ASSIGNMENT((#1120));
#1068=PRESENTATION_STYLE_ASSIGNMENT((#1121));
#1069=PRESENTATION_STYLE_ASSIGNMENT((#1122));
#1070=PRESENTATION_STYLE_ASSIGNMENT((#1123));
#1071=PRESENTATION_STYLE_ASSIGNMENT((#1124));
#1072=PRESENTATION_STYLE_ASSIGNMENT((#1125));
#1073=PRESENTATION_STYLE_ASSIGNMENT((#1126));
#1074=PRESENTATION_STYLE_ASSIGNMENT((#1127));
#1075=PRESENTATION_STYLE_ASSIGNMENT((#1128));
#1076=PRESENTATION_STYLE_ASSIGNMENT((#1129));
#1077=PRESENTATION_STYLE_ASSIGNMENT((#1130));
#1078=PRESENTATION_STYLE_ASSIGNMENT((#1131));
#1079=PRESENTATION_STYLE_ASSIGNMENT((#1132));
#1080=PRESENTATION_STYLE_ASSIGNMENT((#1133));
#1081=PRESENTATION_STYLE_ASSIGNMENT((#1134));
#1082=PRESENTATION_STYLE_ASSIGNMENT((#1135));
#1083=PRESENTATION_STYLE_ASSIGNMENT((#1136));
#1084=PRESENTATION_STYLE_ASSIGNMENT((#1137));
#1085=PRESENTATION_STYLE_ASSIGNMENT((#1138));
#1086=PRESENTATION_STYLE_ASSIGNMENT((#1139));
#1087=PRESENTATION_STYLE_ASSIGNMENT((#1140));
#1088=PRESENTATION_STYLE_ASSIGNMENT((#1141));
#1089=PRESENTATION_STYLE_ASSIGNMENT((#1142));
#1090=PRESENTATION_STYLE_ASSIGNMENT((#1143));
#1091=PRESENTATION_STYLE_ASSIGNMENT((#1144));
#1092=PRESENTATION_STYLE_ASSIGNMENT((#1145));
#1093=PRESENTATION_STYLE_ASSIGNMENT((#1146));
#1094=PRESENTATION_STYLE_ASSIGNMENT((#1147));
#1095=PRESENTATION_STYLE_ASSIGNMENT((#1148));
#1096=PRESENTATION_STYLE_ASSIGNMENT((#1149));
#1097=PRESENTATION_STYLE_ASSIGNMENT((#1150));
#1098=PRESENTATION_STYLE_ASSIGNMENT((#1151));
#1099=PRESENTATION_STYLE_ASSIGNMENT((#1152));
#1100=PRESENTATION_STYLE_ASSIGNMENT((#1153));
#1101=PRESENTATION_STYLE_ASSIGNMENT((#1154));
#1102=PRESENTATION_STYLE_ASSIGNMENT((#1155));
#1103=PRESENTATION_STYLE_ASSIGNMENT((#1156));
#1104=SURFACE_STYLE_USAGE(.BOTH.,#1157);
#1105=SURFACE_STYLE_USAGE(.BOTH.,#1158);
#1106=SURFACE_STYLE_USAGE(.BOTH.,#1159);
#1107=SURFACE_STYLE_USAGE(.BOTH.,#1160);
#1108=SURFACE_STYLE_USAGE(.BOTH.,#1161);
#1109=SURFACE_STYLE_USAGE(.BOTH.,#1162);
#1110=SURFACE_STYLE_USAGE(.BOTH.,#1163);
#1111=SURFACE_STYLE_USAGE(.BOTH.,#1164);
#1112=SURFACE_STYLE_USAGE(.BOTH.,#1165);
#1113=SURFACE_STYLE_USAGE(.BOTH.,#1166);
#1114=SURFACE_STYLE_USAGE(.BOTH.,#1167);
#1115=SURFACE_STYLE_USAGE(.BOTH.,#1168);
#1116=SURFACE_STYLE_USAGE(.BOTH.,#1169);
#1117=SURFACE_STYLE_USAGE(.BOTH.,#1170);
#1118=SURFACE_STYLE_USAGE(.BOTH.,#1171);
#1119=SURFACE_STYLE_USAGE(.BOTH.,#1172);
#1120=SURFACE_STYLE_USAGE(.BOTH.,#1173);
#1121=SURFACE_STYLE_USAGE(.BOTH.,#1174);
#1122=SURFACE_STYLE_USAGE(.BOTH.,#1175);
#1123=SURFACE_STYLE_USAGE(.BOTH.,#1176);
#1124=SURFACE_STYLE_USAGE(.BOTH.,#1177);
#1125=SURFACE_STYLE_USAGE(.BOTH.,#1178);
#1126=SURFACE_STYLE_USAGE(.BOTH.,#1179);
#1127=SURFACE_STYLE_USAGE(.BOTH.,#1180);
#1128=SURFACE_STYLE_USAGE(.BOTH.,#1181);
#1129=SURFACE_STYLE_USAGE(.BOTH.,#1182);
#1130=SURFACE_STYLE_USAGE(.BOTH.,#1183);
#1131=SURFACE_STYLE_USAGE(.BOTH.,#1184);
#1132=SURFACE_STYLE_USAGE(.BOTH.,#1185);
#1133=SURFACE_STYLE_USAGE(.BOTH.,#1186);
#1134=SURFACE_STYLE_USAGE(.BOTH.,#1187);
#1135=SURFACE_STYLE_USAGE(.BOTH.,#1188);
#1136=SURFACE_STYLE_USAGE(.BOTH.,#1189);
#1137=SURFACE_STYLE_USAGE(.BOTH.,#1190);
#1138=SURFACE_STYLE_USAGE(.BOTH.,#1191);
#1139=SURFACE_STYLE_USAGE(.BOTH.,#1192);
#1140=SURFACE_STYLE_USAGE(.BOTH.,#1193);
#1141=SURFACE_STYLE_USAGE(.BOTH.,#1194);
#1142=SURFACE_STYLE_USAGE(.BOTH.,#1195);
#1143=SURFACE_STYLE_USAGE(.BOTH.,#1196);
#1144=SURFACE_STYLE_USAGE(.BOTH.,#1197);
#1145=SURFACE_STYLE_USAGE(.BOTH.,#1198);
#1146=SURFACE_STYLE_USAGE(.BOTH.,#1199);
#1147=SURFACE_STYLE_USAGE(.BOTH.,#1200);
#1148=SURFACE_STYLE_USAGE(.BOTH.,#1201);
#1149=SURFACE_STYLE_USAGE(.BOTH.,#1202);
#1150=SURFACE_STYLE_USAGE(.BOTH.,#1203);
#1151=SURFACE_STYLE_USAGE(.BOTH.,#1204);
#1152=SURFACE_STYLE_USAGE(.BOTH.,#1205);
#1153=SURFACE_STYLE_USAGE(.BOTH.,#1206);
#1154=SURFACE_STYLE_USAGE(.BOTH.,#1207);
#1155=SURFACE_STYLE_USAGE(.BOTH.,#1208);
#1156=SURFACE_STYLE_USAGE(.BOTH.,#1209);
#1157=SURFACE_SIDE_STYLE('',(#1210));
#1158=SURFACE_SIDE_STYLE('',(#1211));
#1159=SURFACE_SIDE_STYLE('',(#1212));
#1160=SURFACE_SIDE_STYLE('',(#1213));
#1161=SURFACE_SIDE_STYLE('',(#1214));
#1162=SURFACE_SIDE_STYLE('',(#1215));
#1163=SURFACE_SIDE_STYLE('',(#1216));
#1164=SURFACE_SIDE_STYLE('',(#1217));
#1165=SURFACE_SIDE_STYLE('',(#1218));
#1166=SURFACE_SIDE_STYLE('',(#1219));
#1167=SURFACE_SIDE_STYLE('',(#1220));
#1168=SURFACE_SIDE_STYLE('',(#1221));
#1169=SURFACE_SIDE_STYLE('',(#1222));
#1170=SURFACE_SIDE_STYLE('',(#1223));
#1171=SURFACE_SIDE_STYLE('',(#1224));
#1172=SURFACE_SIDE_STYLE('',(#1225));
#1173=SURFACE_SIDE_STYLE('',(#1226));
#1174=SURFACE_SIDE_STYLE('',(#1227));
#1175=SURFACE_SIDE_STYLE('',(#1228));
#1176=SURFACE_SIDE_STYLE('',(#1229));
#1177=SURFACE_SIDE_STYLE('',(#1230));
#1178=SURFACE_SIDE_STYLE('',(#1231));
#1179=SURFACE_SIDE_STYLE('',(#1232));
#1180=SURFACE_SIDE_STYLE('',(#1233));
#1181=SURFACE_SIDE_STYLE('',(#1234));
#1182=SURFACE_SIDE_STYLE('',(#1235));
#1183=SURFACE_SIDE_STYLE('',(#1236));
#1184=SURFACE_SIDE_STYLE('',(#1237));
#1185=SURFACE_SIDE_STYLE('',(#1238));
#1186=SURFACE_SIDE_STYLE('',(#1239));
#1187=SURFACE_SIDE_STYLE('',(#1240));
#1188=SURFACE_SIDE_STYLE('',(#1241));
#1189=SURFACE_SIDE_STYLE('',(#1242));
#1190=SURFACE_SIDE_STYLE('',(#1243));
#1191=SURFACE_SIDE_STYLE('',(#1244));
#1192=SURFACE_SIDE_STYLE('',(#1245));
#1193=SURFACE_SIDE_STYLE('',(#1246));
#1194=SURFACE_SIDE_STYLE('',(#1247));
#1195=SURFACE_SIDE_STYLE('',(#1248));
#1196=SURFACE_SIDE_STYLE('',(#1249));
#1197=SURFACE_SIDE_STYLE('',(#1250));
#1198=SURFACE_SIDE_STYLE('',(#1251));
#1199=SURFACE_SIDE_STYLE('',(#1252));
#1200=SURFACE_SIDE_STYLE('',(#1253));
#1201=SURFACE_SIDE_STYLE('',(#1254));
#1202=SURFACE_SIDE_STYLE('',(#1255));
#1203=SURFACE_SIDE_STYLE('',(#1256));
#1204=SURFACE_SIDE_STYLE('',(#1257));
#1205=SURFACE_SIDE_STYLE('',(#1258));
#1206=SURFACE_SIDE_STYLE('',(#1259));
#1207=SURFACE_SIDE_STYLE('',(#1260));
#1208=SURFACE_SIDE_STYLE('',(#1261));
#1209=SURFACE_SIDE_STYLE('',(#1262));
#1210=SURFACE_STYLE_FILL_AREA(#1263);
#1211=SURFACE_STYLE_FILL_AREA(#1264);
#1212=SURFACE_STYLE_FILL_AREA(#1265);
#1213=SURFACE_STYLE_FILL_AREA(#1266);
#1214=SURFACE_STYLE_FILL_AREA(#1267);
#1215=SURFACE_STYLE_FILL_AREA(#1268);
#1216=SURFACE_STYLE_FILL_AREA(#1269);
#1217=SURFACE_STYLE_FILL_AREA(#1270);
#1218=SURFACE_STYLE_FILL_AREA(#1271);
#1219=SURFACE_STYLE_FILL_AREA(#1272);
#1220=SURFACE_STYLE_FILL_AREA(#1273);
#1221=SURFACE_STYLE_FILL_AREA(#1274);
#1222=SURFACE_STYLE_FILL_AREA(#1275);
#1223=SURFACE_STYLE_FILL_AREA(#1276);
#1224=SURFACE_STYLE_FILL_AREA(#1277);
#1225=SURFACE_STYLE_FILL_AREA(#1278);
#1226=SURFACE_STYLE_FILL_AREA(#1279);
#1227=SURFACE_STYLE_FILL_AREA(#1280);
#1228=SURFACE_STYLE_FILL_AREA(#1281);
#1229=SURFACE_STYLE_FILL_AREA(#1282);
#1230=SURFACE_STYLE_FILL_AREA(#1283);
#1231=SURFACE_STYLE_FILL_AREA(#1284);
#1232=SURFACE_STYLE_FILL_AREA(#1285);
#1233=SURFACE_STYLE_FILL_AREA(#1286);
#1234=SURFACE_STYLE_FILL_AREA(#1287);
#1235=SURFACE_STYLE_FILL_AREA(#1288);
#1236=SURFACE_STYLE_FILL_AREA(#1289);
#1237=SURFACE_STYLE_FILL_AREA(#1290);
#1238=SURFACE_STYLE_FILL_AREA(#1291);
#1239=SURFACE_STYLE_FILL_AREA(#1292);
#1240=SURFACE_STYLE_FILL_AREA(#1293);
#1241=SURFACE_STYLE_FILL_AREA(#1294);
#1242=SURFACE_STYLE_FILL_AREA(#1295);
#1243=SURFACE_STYLE_FILL_AREA(#1296);
#1244=SURFACE_STYLE_FILL_AREA(#1297);
#1245=SURFACE_STYLE_FILL_AREA(#1298);
#1246=SURFACE_STYLE_FILL_AREA(#1299);
#1247=SURFACE_STYLE_FILL_AREA(#1300);
#1248=SURFACE_STYLE_FILL_AREA(#1301);
#1249=SURFACE_STYLE_FILL_AREA(#1302);
#1250=SURFACE_STYLE_FILL_AREA(#1303);
#1251=SURFACE_STYLE_FILL_AREA(#1304);
#1252=SURFACE_STYLE_FILL_AREA(#1305);
#1253=SURFACE_STYLE_FILL_AREA(#1306);
#1254=SURFACE_STYLE_FILL_AREA(#1307);
#1255=SURFACE_STYLE_FILL_AREA(#1308);
#1256=SURFACE_STYLE_FILL_AREA(#1309);
#1257=SURFACE_STYLE_FILL_AREA(#1310);
#1258=SURFACE_STYLE_FILL_AREA(#1311);
#1259=SURFACE_STYLE_FILL_AREA(#1312);
#1260=SURFACE_STYLE_FILL_AREA(#1313);
#1261=SURFACE_STYLE_FILL_AREA(#1314);
#1262=SURFACE_STYLE_FILL_AREA(#1315);
#1263=FILL_AREA_STYLE('',(#1316));
#1264=FILL_AREA_STYLE('',(#1317));
#1265=FILL_AREA_STYLE('',(#1318));
#1266=FILL_AREA_STYLE('',(#1319));
#1267=FILL_AREA_STYLE('',(#1320));
#1268=FILL_AREA_STYLE('',(#1321));
#1269=FILL_AREA_STYLE('',(#1322));
#1270=FILL_AREA_STYLE('',(#1323));
#1271=FILL_AREA_STYLE('',(#1324));
#1272=FILL_AREA_STYLE('',(#1325));
#1273=FILL_AREA_STYLE('',(#1326));
#1274=FILL_AREA_STYLE('',(#1327));
#1275=FILL_AREA_STYLE('',(#1328));
#1276=FILL_AREA_STYLE('',(#1329));
#1277=FILL_AREA_STYLE('',(#1330));
#1278=FILL_AREA_STYLE('',(#1331));
#1279=FILL_AREA_STYLE('',(#1332));
#1280=FILL_AREA_STYLE('',(#1333));
#1281=FILL_AREA_STYLE('',(#1334));
#1282=FILL_AREA_STYLE('',(#1335));
#1283=FILL_AREA_STYLE('',(#1336));
#1284=FILL_AREA_STYLE('',(#1337));
#1285=FILL_AREA_STYLE('',(#1338));
#1286=FILL_AREA_STYLE('',(#1339));
#1287=FILL_AREA_STYLE('',(#1340));
#1288=FILL_AREA_STYLE('',(#1341));
#1289=FILL_AREA_STYLE('',(#1342));
#1290=FILL_AREA_STYLE('',(#1343));
#1291=FILL_AREA_STYLE('',(#1344));
#1292=FILL_AREA_STYLE('',(#1345));
#1293=FILL_AREA_STYLE('',(#1346));
#1294=FILL_AREA_STYLE('',(#1347));
#1295=FILL_AREA_STYLE('',(#1348));
#1296=FILL_AREA_STYLE('',(#1349));
#1297=FILL_AREA_STYLE('',(#1350));
#1298=FILL_AREA_STYLE('',(#1351));
#1299=FILL_AREA_STYLE('',(#1352));
#1300=FILL_AREA_STYLE('',(#1353));
#1301=FILL_AREA_STYLE('',(#1354));
#1302=FILL_AREA_STYLE('',(#1355));
#1303=FILL_AREA_STYLE('',(#1356));
#1304=FILL_AREA_STYLE('',(#1357));
#1305=FILL_AREA_STYLE('',(#1358));
#1306=FILL_AREA_STYLE('',(#1359));
#1307=FILL_AREA_STYLE('',(#1360));
#1308=FILL_AREA_STYLE('',(#1361));
#1309=FILL_AREA_STYLE('',(#1362));
#1310=FILL_AREA_STYLE('',(#1363));
#1311=FILL_AREA_STYLE('',(#1364));
#1312=FILL_AREA_STYLE('',(#1365));
#1313=FILL_AREA_STYLE('',(#1366));
#1314=FILL_AREA_STYLE('',(#1367));
#1315=FILL_AREA_STYLE('',(#1368));
#1316=FILL_AREA_STYLE_COLOUR('',#1369);
#1317=FILL_AREA_STYLE_COLOUR('',#1369);
#1318=FILL_AREA_STYLE_COLOUR('',#1369);
#1319=FILL_AREA_STYLE_COLOUR('',#1369);
#1320=FILL_AREA_STYLE_COLOUR('',#1369);
#1321=FILL_AREA_STYLE_COLOUR('',#20);
#1322=FILL_AREA_STYLE_COLOUR('',#20);
#1323=FILL_AREA_STYLE_COLOUR('',#20);
#1324=FILL_AREA_STYLE_COLOUR('',#20);
#1325=FILL_AREA_STYLE_COLOUR('',#20);
#1326=FILL_AREA_STYLE_COLOUR('',#20);
#1327=FILL_AREA_STYLE_COLOUR('',#20);
#1328=FILL_AREA_STYLE_COLOUR('',#1369);
#1329=FILL_AREA_STYLE_COLOUR('',#20);
#1330=FILL_AREA_STYLE_COLOUR('',#20);
#1331=FILL_AREA_STYLE_COLOUR('',#1369);
#1332=FILL_AREA_STYLE_COLOUR('',#1369);
#1333=FILL_AREA_STYLE_COLOUR('',#1370);
#1334=FILL_AREA_STYLE_COLOUR('',#1370);
#1335=FILL_AREA_STYLE_COLOUR('',#1370);
#1336=FILL_AREA_STYLE_COLOUR('',#1370);
#1337=FILL_AREA_STYLE_COLOUR('',#20);
#1338=FILL_AREA_STYLE_COLOUR('',#1370);
#1339=FILL_AREA_STYLE_COLOUR('',#1369);
#1340=FILL_AREA_STYLE_COLOUR('',#1369);
#1341=FILL_AREA_STYLE_COLOUR('',#1369);
#1342=FILL_AREA_STYLE_COLOUR('',#1369);
#1343=FILL_AREA_STYLE_COLOUR('',#1369);
#1344=FILL_AREA_STYLE_COLOUR('',#1369);
#1345=FILL_AREA_STYLE_COLOUR('',#1369);
#1346=FILL_AREA_STYLE_COLOUR('',#1369);
#1347=FILL_AREA_STYLE_COLOUR('',#1369);
#1348=FILL_AREA_STYLE_COLOUR('',#1369);
#1349=FILL_AREA_STYLE_COLOUR('',#1369);
#1350=FILL_AREA_STYLE_COLOUR('',#1369);
#1351=FILL_AREA_STYLE_COLOUR('',#1369);
#1352=FILL_AREA_STYLE_COLOUR('',#1369);
#1353=FILL_AREA_STYLE_COLOUR('',#1369);
#1354=FILL_AREA_STYLE_COLOUR('',#1369);
#1355=FILL_AREA_STYLE_COLOUR('',#1369);
#1356=FILL_AREA_STYLE_COLOUR('',#1369);
#1357=FILL_AREA_STYLE_COLOUR('',#1369);
#1358=FILL_AREA_STYLE_COLOUR('',#1369);
#1359=FILL_AREA_STYLE_COLOUR('',#1369);
#1360=FILL_AREA_STYLE_COLOUR('',#1369);
#1361=FILL_AREA_STYLE_COLOUR('',#1369);
#1362=FILL_AREA_STYLE_COLOUR('',#1369);
#1363=FILL_AREA_STYLE_COLOUR('',#1369);
#1364=FILL_AREA_STYLE_COLOUR('',#1369);
#1365=FILL_AREA_STYLE_COLOUR('',#1369);
#1366=FILL_AREA_STYLE_COLOUR('',#1369);
#1367=FILL_AREA_STYLE_COLOUR('',#1369);
#1368=FILL_AREA_STYLE_COLOUR('',#20);
#1369=COLOUR_RGB('',0.800000011920929,0.666434764862061,0.319999992847443);
#1370=COLOUR_RGB('',0.200000002980232,0.200000002980232,0.200000002980232);
#1371=ADVANCED_FACE('',(#927),#981,.F.);
#1372=ADVANCED_FACE('',(#928),#982,.F.);
#1373=ADVANCED_FACE('',(#929),#983,.F.);
#1374=ADVANCED_FACE('',(#930),#21,.F.);
#1375=ADVANCED_FACE('',(#931),#22,.F.);
#1376=ADVANCED_FACE('',(#932),#23,.F.);
#1377=ADVANCED_FACE('',(#933),#24,.F.);
#1378=ADVANCED_FACE('',(#934),#25,.F.);
#1379=ADVANCED_FACE('',(#935),#26,.F.);
#1380=ADVANCED_FACE('',(#936),#27,.F.);
#1381=ADVANCED_FACE('',(#937),#28,.F.);
#1382=ADVANCED_FACE('',(#938),#29,.F.);
#1383=ADVANCED_FACE('',(#939),#30,.F.);
#1384=ADVANCED_FACE('',(#940),#31,.F.);
#1385=ADVANCED_FACE('',(#941),#32,.F.);
#1386=ADVANCED_FACE('',(#942),#984,.F.);
#1387=ADVANCED_FACE('',(#943),#985,.F.);
#1388=ADVANCED_FACE('',(#944),#33,.F.);
#1389=ADVANCED_FACE('',(#945),#34,.F.);
#1390=ADVANCED_FACE('',(#946),#35,.F.);
#1391=ADVANCED_FACE('',(#947),#36,.F.);
#1392=ADVANCED_FACE('',(#948,#949),#37,.T.);
#1393=ADVANCED_FACE('',(#950),#38,.T.);
#1394=ADVANCED_FACE('',(#951),#986,.T.);
#1395=ADVANCED_FACE('',(#952),#39,.T.);
#1396=ADVANCED_FACE('',(#953),#987,.F.);
#1397=ADVANCED_FACE('',(#954),#40,.T.);
#1398=ADVANCED_FACE('',(#955),#41,.T.);
#1399=ADVANCED_FACE('',(#956),#988,.F.);
#1400=ADVANCED_FACE('',(#957),#42,.T.);
#1401=ADVANCED_FACE('',(#958),#989,.T.);
#1402=ADVANCED_FACE('',(#959),#43,.T.);
#1403=ADVANCED_FACE('',(#960),#990,.T.);
#1404=ADVANCED_FACE('',(#961),#44,.T.);
#1405=ADVANCED_FACE('',(#962),#991,.T.);
#1406=ADVANCED_FACE('',(#963),#45,.T.);
#1407=ADVANCED_FACE('',(#964),#992,.T.);
#1408=ADVANCED_FACE('',(#965),#46,.T.);
#1409=ADVANCED_FACE('',(#966),#993,.F.);
#1410=ADVANCED_FACE('',(#967),#47,.T.);
#1411=ADVANCED_FACE('',(#968),#48,.T.);
#1412=ADVANCED_FACE('',(#969),#49,.T.);
#1413=ADVANCED_FACE('',(#970),#50,.T.);
#1414=ADVANCED_FACE('',(#971),#51,.T.);
#1415=ADVANCED_FACE('',(#972),#994,.F.);
#1416=ADVANCED_FACE('',(#973),#52,.T.);
#1417=ADVANCED_FACE('',(#974),#995,.T.);
#1418=ADVANCED_FACE('',(#975),#53,.T.);
#1419=ADVANCED_FACE('',(#976),#996,.T.);
#1420=ADVANCED_FACE('',(#977),#54,.T.);
#1421=ADVANCED_FACE('',(#978),#997,.T.);
#1422=ADVANCED_FACE('',(#979),#55,.T.);
#1423=ADVANCED_FACE('',(#980),#56,.T.);
#1424=CLOSED_SHELL('',(#1371,#1372,#1373,#1374,#1375,#1376,#1377,#1378,
#1379,#1380,#1381,#1382,#1383,#1384,#1385,#1386,#1387,#1388,#1389,#1390,
#1391,#1392,#1393,#1394,#1395,#1396,#1397,#1398,#1399,#1400,#1401,#1402,
#1403,#1404,#1405,#1406,#1407,#1408,#1409,#1410,#1411,#1412,#1413,#1414,
#1415,#1416,#1417,#1418,#1419,#1420,#1421,#1422,#1423));
#1425=MANIFOLD_SOLID_BREP('',#1424);
#1426=SHAPE_DEFINITION_REPRESENTATION(#2118,#1427);
#1427=SHAPE_REPRESENTATION('ITV9550L5045MR',(#1428),#2113);
#1428=AXIS2_PLACEMENT_3D('',#1808,#1516,#1517);
#1429=AXIS2_PLACEMENT_3D('',#1809,#1518,#1519);
#1430=AXIS2_PLACEMENT_3D('',#1813,#1521,#1522);
#1431=AXIS2_PLACEMENT_3D('',#1817,#1524,#1525);
#1432=AXIS2_PLACEMENT_3D('',#1818,#1526,#1527);
#1433=AXIS2_PLACEMENT_3D('',#1822,#1529,#1530);
#1434=AXIS2_PLACEMENT_3D('',#1826,#1532,#1533);
#1435=AXIS2_PLACEMENT_3D('',#1827,#1534,#1535);
#1436=AXIS2_PLACEMENT_3D('',#1831,#1537,#1538);
#1437=AXIS2_PLACEMENT_3D('',#1835,#1540,#1541);
#1438=AXIS2_PLACEMENT_3D('',#1836,#1542,#1543);
#1439=AXIS2_PLACEMENT_3D('',#1837,#1544,#1545);
#1440=AXIS2_PLACEMENT_3D('',#1842,#1547,#1548);
#1441=AXIS2_PLACEMENT_3D('',#1852,#1554,#1555);
#1442=AXIS2_PLACEMENT_3D('',#1856,#1557,#1558);
#1443=AXIS2_PLACEMENT_3D('',#1860,#1560,#1561);
#1444=AXIS2_PLACEMENT_3D('',#1864,#1563,#1564);
#1445=AXIS2_PLACEMENT_3D('',#1867,#1566,#1567);
#1446=AXIS2_PLACEMENT_3D('',#1868,#1568,#1569);
#1447=AXIS2_PLACEMENT_3D('',#1873,#1571,#1572);
#1448=AXIS2_PLACEMENT_3D('',#1877,#1574,#1575);
#1449=AXIS2_PLACEMENT_3D('',#1881,#1577,#1578);
#1450=AXIS2_PLACEMENT_3D('',#1887,#1581,#1582);
#1451=AXIS2_PLACEMENT_3D('',#1891,#1584,#1585);
#1452=AXIS2_PLACEMENT_3D('',#1897,#1588,#1589);
#1453=AXIS2_PLACEMENT_3D('',#1901,#1591,#1592);
#1454=AXIS2_PLACEMENT_3D('',#1904,#1594,#1595);
#1455=AXIS2_PLACEMENT_3D('',#1906,#1597,#1598);
#1456=AXIS2_PLACEMENT_3D('',#1914,#1603,#1604);
#1457=AXIS2_PLACEMENT_3D('',#1922,#1609,#1610);
#1458=AXIS2_PLACEMENT_3D('',#1932,#1616,#1617);
#1459=AXIS2_PLACEMENT_3D('',#1938,#1621,#1622);
#1460=AXIS2_PLACEMENT_3D('',#1945,#1627,#1628);
#1461=AXIS2_PLACEMENT_3D('',#1952,#1633,#1634);
#1462=AXIS2_PLACEMENT_3D('',#1958,#1638,#1639);
#1463=AXIS2_PLACEMENT_3D('',#1964,#1643,#1644);
#1464=AXIS2_PLACEMENT_3D('',#1971,#1649,#1650);
#1465=AXIS2_PLACEMENT_3D('',#1972,#1651,#1652);
#1466=AXIS2_PLACEMENT_3D('',#1973,#1653,#1654);
#1467=AXIS2_PLACEMENT_3D('',#1974,#1655,#1656);
#1468=AXIS2_PLACEMENT_3D('',#1975,#1657,#1658);
#1469=AXIS2_PLACEMENT_3D('',#1984,#1663,#1664);
#1470=AXIS2_PLACEMENT_3D('',#1990,#1668,#1669);
#1471=AXIS2_PLACEMENT_3D('',#1996,#1673,#1674);
#1472=AXIS2_PLACEMENT_3D('',#1999,#1677,#1678);
#1473=AXIS2_PLACEMENT_3D('',#2000,#1679,#1680);
#1474=AXIS2_PLACEMENT_3D('',#2001,#1681,#1682);
#1475=AXIS2_PLACEMENT_3D('',#2004,#1684,#1685);
#1476=AXIS2_PLACEMENT_3D('',#2007,#1687,#1688);
#1477=AXIS2_PLACEMENT_3D('',#2011,#1691,#1692);
#1478=AXIS2_PLACEMENT_3D('',#2012,#1693,#1694);
#1479=AXIS2_PLACEMENT_3D('',#2015,#1696,#1697);
#1480=AXIS2_PLACEMENT_3D('',#2017,#1699,#1700);
#1481=AXIS2_PLACEMENT_3D('',#2021,#1703,#1704);
#1482=AXIS2_PLACEMENT_3D('',#2022,#1705,#1706);
#1483=AXIS2_PLACEMENT_3D('',#2025,#1708,#1709);
#1484=AXIS2_PLACEMENT_3D('',#2029,#1712,#1713);
#1485=AXIS2_PLACEMENT_3D('',#2030,#1714,#1715);
#1486=AXIS2_PLACEMENT_3D('',#2033,#1717,#1718);
#1487=AXIS2_PLACEMENT_3D('',#2037,#1721,#1722);
#1488=AXIS2_PLACEMENT_3D('',#2038,#1723,#1724);
#1489=AXIS2_PLACEMENT_3D('',#2041,#1726,#1727);
#1490=AXIS2_PLACEMENT_3D('',#2045,#1730,#1731);
#1491=AXIS2_PLACEMENT_3D('',#2046,#1732,#1733);
#1492=AXIS2_PLACEMENT_3D('',#2049,#1735,#1736);
#1493=AXIS2_PLACEMENT_3D('',#2053,#1739,#1740);
#1494=AXIS2_PLACEMENT_3D('',#2054,#1741,#1742);
#1495=AXIS2_PLACEMENT_3D('',#2057,#1744,#1745);
#1496=AXIS2_PLACEMENT_3D('',#2061,#1748,#1749);
#1497=AXIS2_PLACEMENT_3D('',#2062,#1750,#1751);
#1498=AXIS2_PLACEMENT_3D('',#2065,#1753,#1754);
#1499=AXIS2_PLACEMENT_3D('',#2067,#1756,#1757);
#1500=AXIS2_PLACEMENT_3D('',#2071,#1760,#1761);
#1501=AXIS2_PLACEMENT_3D('',#2075,#1764,#1765);
#1502=AXIS2_PLACEMENT_3D('',#2077,#1767,#1768);
#1503=AXIS2_PLACEMENT_3D('',#2081,#1771,#1772);
#1504=AXIS2_PLACEMENT_3D('',#2082,#1773,#1774);
#1505=AXIS2_PLACEMENT_3D('',#2085,#1776,#1777);
#1506=AXIS2_PLACEMENT_3D('',#2089,#1780,#1781);
#1507=AXIS2_PLACEMENT_3D('',#2090,#1782,#1783);
#1508=AXIS2_PLACEMENT_3D('',#2093,#1785,#1786);
#1509=AXIS2_PLACEMENT_3D('',#2097,#1789,#1790);
#1510=AXIS2_PLACEMENT_3D('',#2098,#1791,#1792);
#1511=AXIS2_PLACEMENT_3D('',#2101,#1794,#1795);
#1512=AXIS2_PLACEMENT_3D('',#2105,#1798,#1799);
#1513=AXIS2_PLACEMENT_3D('',#2106,#1800,#1801);
#1514=AXIS2_PLACEMENT_3D('',#2109,#1803,#1804);
#1515=AXIS2_PLACEMENT_3D('',#2111,#1806,#1807);
#1516=DIRECTION('',(0.,0.,1.));
#1517=DIRECTION('',(1.,0.,0.));
#1518=DIRECTION('',(0.,0.,-1.));
#1519=DIRECTION('',(-1.,0.,0.));
#1520=DIRECTION('',(0.,0.,-1.));
#1521=DIRECTION('',(0.,0.,1.));
#1522=DIRECTION('',(-1.,0.,0.));
#1523=DIRECTION('',(0.,0.,-1.));
#1524=DIRECTION('',(0.,0.,1.));
#1525=DIRECTION('',(1.,0.,0.));
#1526=DIRECTION('',(0.,0.,-1.));
#1527=DIRECTION('',(-1.,0.,0.));
#1528=DIRECTION('',(0.,0.,-1.));
#1529=DIRECTION('',(0.,0.,1.));
#1530=DIRECTION('',(1.,0.,0.));
#1531=DIRECTION('',(0.,0.,-1.));
#1532=DIRECTION('',(0.,0.,1.));
#1533=DIRECTION('',(1.,0.,0.));
#1534=DIRECTION('',(0.,0.,-1.));
#1535=DIRECTION('',(-1.,0.,0.));
#1536=DIRECTION('',(0.,0.,-1.));
#1537=DIRECTION('',(0.,0.,1.));
#1538=DIRECTION('',(1.,0.,0.));
#1539=DIRECTION('',(0.,0.,-1.));
#1540=DIRECTION('',(0.,0.,1.));
#1541=DIRECTION('',(1.,0.,0.));
#1542=DIRECTION('',(0.,0.,1.));
#1543=DIRECTION('',(1.,0.,0.));
#1544=DIRECTION('',(0.,0.,1.));
#1545=DIRECTION('',(-1.,0.,0.));
#1546=DIRECTION('',(-1.,0.,0.));
#1547=DIRECTION('',(0.,0.,1.));
#1548=DIRECTION('',(1.,0.,0.));
#1549=DIRECTION('',(0.,1.,0.));
#1550=DIRECTION('',(1.,0.,0.));
#1551=DIRECTION('',(1.,0.,0.));
#1552=DIRECTION('',(1.,0.,0.));
#1553=DIRECTION('',(0.,1.,0.));
#1554=DIRECTION('',(0.,0.,-1.));
#1555=DIRECTION('',(-1.,0.,0.));
#1556=DIRECTION('',(-1.,0.,0.));
#1557=DIRECTION('',(0.,0.,-1.));
#1558=DIRECTION('',(1.,0.,0.));
#1559=DIRECTION('',(0.,1.,0.));
#1560=DIRECTION('',(0.,0.,-1.));
#1561=DIRECTION('',(1.,0.,0.));
#1562=DIRECTION('',(-1.,1.25643084527583E-16,0.));
#1563=DIRECTION('',(0.,0.,1.));
#1564=DIRECTION('',(1.,0.,0.));
#1565=DIRECTION('',(0.,-1.,0.));
#1566=DIRECTION('',(0.,0.,1.));
#1567=DIRECTION('',(1.,0.,0.));
#1568=DIRECTION('',(0.,0.,-1.));
#1569=DIRECTION('',(1.,0.,0.));
#1570=DIRECTION('',(1.,-1.25643084527583E-16,0.));
#1571=DIRECTION('',(0.,0.,1.));
#1572=DIRECTION('',(1.,0.,0.));
#1573=DIRECTION('',(0.,-1.,0.));
#1574=DIRECTION('',(0.,0.,1.));
#1575=DIRECTION('',(1.,0.,0.));
#1576=DIRECTION('',(-1.,0.,0.));
#1577=DIRECTION('',(0.,0.,1.));
#1578=DIRECTION('',(-1.,0.,0.));
#1579=DIRECTION('',(0.,-1.,0.));
#1580=DIRECTION('',(-1.,0.,0.));
#1581=DIRECTION('',(0.,0.,-1.));
#1582=DIRECTION('',(1.,0.,0.));
#1583=DIRECTION('',(-1.,0.,0.));
#1584=DIRECTION('',(0.,0.,-1.));
#1585=DIRECTION('',(1.,0.,0.));
#1586=DIRECTION('',(-1.,0.,0.));
#1587=DIRECTION('',(0.,-1.,0.));
#1588=DIRECTION('',(0.,0.,-1.));
#1589=DIRECTION('',(1.,0.,0.));
#1590=DIRECTION('',(1.,0.,0.));
#1591=DIRECTION('',(0.,0.,-1.));
#1592=DIRECTION('',(-1.,0.,0.));
#1593=DIRECTION('',(0.,-1.,0.));
#1594=DIRECTION('',(0.,1.,0.));
#1595=DIRECTION('',(0.,0.,1.));
#1596=DIRECTION('',(-1.,0.,0.));
#1597=DIRECTION('',(0.,1.,0.));
#1598=DIRECTION('',(0.,0.,1.));
#1599=DIRECTION('',(1.,0.,0.));
#1600=DIRECTION('',(0.,0.,-1.));
#1601=DIRECTION('',(-1.,0.,0.));
#1602=DIRECTION('',(0.,0.,-1.));
#1603=DIRECTION('',(0.,1.,0.));
#1604=DIRECTION('',(0.,0.,1.));
#1605=DIRECTION('',(0.,0.,-1.));
#1606=DIRECTION('',(1.,0.,0.));
#1607=DIRECTION('',(0.,0.,-1.));
#1608=DIRECTION('',(-1.,0.,0.));
#1609=DIRECTION('',(0.,-1.,0.));
#1610=DIRECTION('',(0.,0.,-1.));
#1611=DIRECTION('',(0.,0.,-1.));
#1612=DIRECTION('',(-1.,0.,0.));
#1613=DIRECTION('',(0.,0.,-1.));
#1614=DIRECTION('',(1.,0.,0.));
#1615=DIRECTION('',(0.,0.,-1.));
#1616=DIRECTION('',(0.,-1.,0.));
#1617=DIRECTION('',(0.,0.,-1.));
#1618=DIRECTION('',(0.,0.,-1.));
#1619=DIRECTION('',(1.,0.,0.));
#1620=DIRECTION('',(0.,0.,-1.));
#1621=DIRECTION('',(1.,0.,0.));
#1622=DIRECTION('',(0.,0.,-1.));
#1623=DIRECTION('',(0.,0.,-1.));
#1624=DIRECTION('',(0.,-1.,0.));
#1625=DIRECTION('',(0.,1.,0.));
#1626=DIRECTION('',(0.,-1.,0.));
#1627=DIRECTION('',(1.,0.,0.));
#1628=DIRECTION('',(0.,0.,-1.));
#1629=DIRECTION('',(0.,-1.,0.));
#1630=DIRECTION('',(0.,0.,-1.));
#1631=DIRECTION('',(0.,-1.,0.));
#1632=DIRECTION('',(0.,1.,0.));
#1633=DIRECTION('',(0.,0.,1.));
#1634=DIRECTION('',(1.,0.,0.));
#1635=DIRECTION('',(-0.772116834030082,0.635480601283283,0.));
#1636=DIRECTION('',(0.,-1.,0.));
#1637=DIRECTION('',(-0.772116834030082,-0.635480601283283,0.));
#1638=DIRECTION('',(-1.,0.,0.));
#1639=DIRECTION('',(0.,0.,1.));
#1640=DIRECTION('',(0.,1.,0.));
#1641=DIRECTION('',(0.,0.,-1.));
#1642=DIRECTION('',(0.,-1.,0.));
#1643=DIRECTION('',(0.,-1.,0.));
#1644=DIRECTION('',(0.,0.,-1.));
#1645=DIRECTION('',(-1.,0.,0.));
#1646=DIRECTION('',(0.,0.,-1.));
#1647=DIRECTION('',(0.,0.,-1.));
#1648=DIRECTION('',(1.,0.,0.));
#1649=DIRECTION('',(0.,0.,-1.));
#1650=DIRECTION('',(-1.,0.,0.));
#1651=DIRECTION('',(0.,0.,1.));
#1652=DIRECTION('',(-1.,0.,0.));
#1653=DIRECTION('',(0.,0.,-1.));
#1654=DIRECTION('',(-1.,0.,0.));
#1655=DIRECTION('',(0.,0.,1.));
#1656=DIRECTION('',(-1.,0.,0.));
#1657=DIRECTION('',(1.44978300235032E-16,1.,0.));
#1658=DIRECTION('',(-1.,1.44978300235032E-16,0.));
#1659=DIRECTION('',(-1.,1.44978300235032E-16,0.));
#1660=DIRECTION('',(0.,0.,1.));
#1661=DIRECTION('',(-1.,1.44978300235032E-16,0.));
#1662=DIRECTION('',(0.,0.,1.));
#1663=DIRECTION('',(-1.,1.9345448136952E-16,0.));
#1664=DIRECTION('',(-1.9345448136952E-16,-1.,0.));
#1665=DIRECTION('',(-1.9345448136952E-16,-1.,0.));
#1666=DIRECTION('',(-1.9345448136952E-16,-1.,0.));
#1667=DIRECTION('',(0.,0.,1.));
#1668=DIRECTION('',(-1.44978300235032E-16,-1.,0.));
#1669=DIRECTION('',(1.,-1.44978300235032E-16,0.));
#1670=DIRECTION('',(1.,-1.44978300235032E-16,0.));
#1671=DIRECTION('',(1.,-1.44978300235032E-16,0.));
#1672=DIRECTION('',(0.,0.,1.));
#1673=DIRECTION('',(1.,-1.9345448136952E-16,0.));
#1674=DIRECTION('',(1.9345448136952E-16,1.,0.));
#1675=DIRECTION('',(1.9345448136952E-16,1.,0.));
#1676=DIRECTION('',(1.9345448136952E-16,1.,0.));
#1677=DIRECTION('',(0.,0.,1.));
#1678=DIRECTION('',(1.,0.,0.));
#1679=DIRECTION('',(0.,0.,1.));
#1680=DIRECTION('',(1.,0.,0.));
#1681=DIRECTION('',(0.,0.,-1.));
#1682=DIRECTION('',(-1.,0.,0.));
#1683=DIRECTION('',(0.,0.,-1.));
#1684=DIRECTION('',(0.,0.,-1.));
#1685=DIRECTION('',(-1.,0.,0.));
#1686=DIRECTION('',(0.,0.,-1.));
#1687=DIRECTION('',(0.,-1.,0.));
#1688=DIRECTION('',(0.,0.,-1.));
#1689=DIRECTION('',(-1.,0.,0.));
#1690=DIRECTION('',(0.,0.,-1.));
#1691=DIRECTION('',(0.,0.,-1.));
#1692=DIRECTION('',(-1.,0.,0.));
#1693=DIRECTION('',(0.,0.,1.));
#1694=DIRECTION('',(1.,0.,0.));
#1695=DIRECTION('',(0.,0.,-1.));
#1696=DIRECTION('',(1.,-1.43201652755261E-15,0.));
#1697=DIRECTION('',(1.43201652755261E-15,1.,0.));
#1698=DIRECTION('',(-1.43201652755261E-15,-1.,0.));
#1699=DIRECTION('',(1.,0.,0.));
#1700=DIRECTION('',(0.,0.,-1.));
#1701=DIRECTION('',(0.,-1.,0.));
#1702=DIRECTION('',(0.,0.,-1.));
#1703=DIRECTION('',(0.,0.,-1.));
#1704=DIRECTION('',(-1.,0.,0.));
#1705=DIRECTION('',(0.,0.,1.));
#1706=DIRECTION('',(1.,0.,0.));
#1707=DIRECTION('',(0.,0.,-1.));
#1708=DIRECTION('',(0.,1.,0.));
#1709=DIRECTION('',(0.,0.,1.));
#1710=DIRECTION('',(1.,0.,0.));
#1711=DIRECTION('',(0.,0.,-1.));
#1712=DIRECTION('',(0.,0.,-1.));
#1713=DIRECTION('',(-1.,0.,0.));
#1714=DIRECTION('',(0.,0.,-1.));
#1715=DIRECTION('',(-1.,0.,0.));
#1716=DIRECTION('',(0.,0.,-1.));
#1717=DIRECTION('',(1.,0.,0.));
#1718=DIRECTION('',(0.,0.,-1.));
#1719=DIRECTION('',(0.,-1.,0.));
#1720=DIRECTION('',(0.,0.,-1.));
#1721=DIRECTION('',(0.,0.,-1.));
#1722=DIRECTION('',(-1.,0.,0.));
#1723=DIRECTION('',(0.,0.,-1.));
#1724=DIRECTION('',(1.,0.,0.));
#1725=DIRECTION('',(0.,0.,-1.));
#1726=DIRECTION('',(0.,-1.,0.));
#1727=DIRECTION('',(0.,0.,-1.));
#1728=DIRECTION('',(-1.,0.,0.));
#1729=DIRECTION('',(0.,0.,-1.));
#1730=DIRECTION('',(0.,0.,-1.));
#1731=DIRECTION('',(-1.,0.,0.));
#1732=DIRECTION('',(0.,0.,-1.));
#1733=DIRECTION('',(1.,0.,0.));
#1734=DIRECTION('',(0.,0.,-1.));
#1735=DIRECTION('',(-1.,0.,0.));
#1736=DIRECTION('',(0.,0.,1.));
#1737=DIRECTION('',(0.,1.,0.));
#1738=DIRECTION('',(0.,0.,-1.));
#1739=DIRECTION('',(0.,0.,-1.));
#1740=DIRECTION('',(-1.,0.,0.));
#1741=DIRECTION('',(0.,0.,-1.));
#1742=DIRECTION('',(1.,0.,0.));
#1743=DIRECTION('',(0.,0.,-1.));
#1744=DIRECTION('',(0.,1.,0.));
#1745=DIRECTION('',(0.,0.,1.));
#1746=DIRECTION('',(1.,0.,0.));
#1747=DIRECTION('',(0.,0.,-1.));
#1748=DIRECTION('',(0.,0.,-1.));
#1749=DIRECTION('',(-1.,0.,0.));
#1750=DIRECTION('',(0.,0.,1.));
#1751=DIRECTION('',(-1.,0.,0.));
#1752=DIRECTION('',(0.,0.,-1.));
#1753=DIRECTION('',(-1.,0.,0.));
#1754=DIRECTION('',(0.,0.,1.));
#1755=DIRECTION('',(0.,1.,0.));
#1756=DIRECTION('',(0.635480601283283,0.772116834030082,0.));
#1757=DIRECTION('',(-0.772116834030082,0.635480601283283,0.));
#1758=DIRECTION('',(0.772116834030082,-0.635480601283283,0.));
#1759=DIRECTION('',(0.,0.,-1.));
#1760=DIRECTION('',(1.,0.,0.));
#1761=DIRECTION('',(0.,0.,-1.));
#1762=DIRECTION('',(0.,-1.,0.));
#1763=DIRECTION('',(0.,0.,-1.));
#1764=DIRECTION('',(0.635480601283283,-0.772116834030082,0.));
#1765=DIRECTION('',(0.772116834030082,0.635480601283283,0.));
#1766=DIRECTION('',(-0.772116834030082,-0.635480601283283,0.));
#1767=DIRECTION('',(-1.,0.,0.));
#1768=DIRECTION('',(0.,0.,1.));
#1769=DIRECTION('',(0.,1.,0.));
#1770=DIRECTION('',(0.,0.,-1.));
#1771=DIRECTION('',(0.,0.,-1.));
#1772=DIRECTION('',(-1.,0.,0.));
#1773=DIRECTION('',(0.,0.,1.));
#1774=DIRECTION('',(-1.,0.,0.));
#1775=DIRECTION('',(0.,0.,-1.));
#1776=DIRECTION('',(7.58622612850794E-15,-1.,0.));
#1777=DIRECTION('',(1.,7.58622612850794E-15,0.));
#1778=DIRECTION('',(-1.,-7.58622612850794E-15,0.));
#1779=DIRECTION('',(0.,0.,-1.));
#1780=DIRECTION('',(0.,0.,-1.));
#1781=DIRECTION('',(-1.,0.,0.));
#1782=DIRECTION('',(0.,0.,-1.));
#1783=DIRECTION('',(1.,0.,0.));
#1784=DIRECTION('',(0.,0.,-1.));
#1785=DIRECTION('',(-1.,0.,0.));
#1786=DIRECTION('',(0.,0.,1.));
#1787=DIRECTION('',(0.,1.,0.));
#1788=DIRECTION('',(0.,0.,-1.));
#1789=DIRECTION('',(0.,0.,-1.));
#1790=DIRECTION('',(-1.,0.,0.));
#1791=DIRECTION('',(0.,0.,-1.));
#1792=DIRECTION('',(1.,0.,0.));
#1793=DIRECTION('',(0.,0.,-1.));
#1794=DIRECTION('',(0.,1.,0.));
#1795=DIRECTION('',(0.,0.,1.));
#1796=DIRECTION('',(1.,0.,0.));
#1797=DIRECTION('',(0.,0.,-1.));
#1798=DIRECTION('',(0.,0.,-1.));
#1799=DIRECTION('',(-1.,0.,0.));
#1800=DIRECTION('',(0.,0.,-1.));
#1801=DIRECTION('',(-1.,0.,0.));
#1802=DIRECTION('',(0.,0.,-1.));
#1803=DIRECTION('',(1.,0.,0.));
#1804=DIRECTION('',(0.,0.,-1.));
#1805=DIRECTION('',(0.,-1.,0.));
#1806=DIRECTION('',(0.,0.,-1.));
#1807=DIRECTION('',(-1.,0.,0.));
#1808=CARTESIAN_POINT('',(0.,0.,0.));
#1809=CARTESIAN_POINT('',(-4.75,-4.33680868994202E-16,3.00776110963627));
#1810=CARTESIAN_POINT('',(-4.75,-0.250000000000001,3.00776110963627));
#1811=CARTESIAN_POINT('',(-4.75,-0.250000000000001,0.));
#1812=CARTESIAN_POINT('',(-4.75,-0.250000000000001,0.83533554038874));
#1813=CARTESIAN_POINT('',(-4.75,-4.33680868994202E-16,0.83533554038874));
#1814=CARTESIAN_POINT('',(-4.75,0.25,0.83533554038874));
#1815=CARTESIAN_POINT('',(-4.75,0.25,3.00776110963627));
#1816=CARTESIAN_POINT('',(-4.75,0.25,0.));
#1817=CARTESIAN_POINT('',(-4.75,-4.33680868994202E-16,0.));
#1818=CARTESIAN_POINT('',(2.34743441865231,-2.5,3.00776110963627));
#1819=CARTESIAN_POINT('',(2.59743441865231,-2.5,3.00776110963627));
#1820=CARTESIAN_POINT('',(2.59743441865231,-2.5,0.));
#1821=CARTESIAN_POINT('',(2.59743441865231,-2.5,0.83533554038874));
#1822=CARTESIAN_POINT('',(2.34743441865231,-2.5,0.83533554038874));
#1823=CARTESIAN_POINT('',(2.09743441865231,-2.5,0.83533554038874));
#1824=CARTESIAN_POINT('',(2.09743441865231,-2.5,3.00776110963627));
#1825=CARTESIAN_POINT('',(2.09743441865231,-2.5,0.));
#1826=CARTESIAN_POINT('',(2.34743441865231,-2.5,0.));
#1827=CARTESIAN_POINT('',(-2.26614605573139,-2.5,3.00776110963627));
#1828=CARTESIAN_POINT('',(-2.01614605573139,-2.5,3.00776110963627));
#1829=CARTESIAN_POINT('',(-2.01614605573139,-2.5,0.));
#1830=CARTESIAN_POINT('',(-2.01614605573139,-2.5,0.83533554038874));
#1831=CARTESIAN_POINT('',(-2.26614605573139,-2.5,0.83533554038874));
#1832=CARTESIAN_POINT('',(-2.51614605573139,-2.5,0.83533554038874));
#1833=CARTESIAN_POINT('',(-2.51614605573139,-2.5,3.00776110963627));
#1834=CARTESIAN_POINT('',(-2.51614605573139,-2.5,0.));
#1835=CARTESIAN_POINT('',(-2.26614605573139,-2.5,0.));
#1836=CARTESIAN_POINT('',(0.,0.,0.));
#1837=CARTESIAN_POINT('',(3.46958618309984,-1.80958618309984,0.));
#1838=CARTESIAN_POINT('',(3.46958618309984,-2.02,0.));
#1839=CARTESIAN_POINT('',(3.68,-1.80958618309984,0.));
#1840=CARTESIAN_POINT('',(0.,-2.02,0.));
#1841=CARTESIAN_POINT('',(3.45715372647592,-2.02,0.));
#1842=CARTESIAN_POINT('',(3.45715372647592,-2.19715372647592,0.));
#1843=CARTESIAN_POINT('',(3.28,-2.19715372647592,0.));
#1844=CARTESIAN_POINT('',(3.28,-2.5,0.));
#1845=CARTESIAN_POINT('',(3.28,-2.5,0.));
#1846=CARTESIAN_POINT('',(-4.75,-2.5,0.));
#1847=CARTESIAN_POINT('',(-4.75,-2.5,0.));
#1848=CARTESIAN_POINT('',(-4.75,-2.5,0.));
#1849=CARTESIAN_POINT('',(-3.26,-2.5,0.));
#1850=CARTESIAN_POINT('',(-3.26,-2.5,0.));
#1851=CARTESIAN_POINT('',(-3.26,-2.17241930438467,0.));
#1852=CARTESIAN_POINT('',(-3.41241930438467,-2.17241930438467,0.));
#1853=CARTESIAN_POINT('',(-3.41241930438467,-2.02,0.));
#1854=CARTESIAN_POINT('',(-3.41241930438467,-2.02,0.));
#1855=CARTESIAN_POINT('',(-3.46958618309984,-2.02,0.));
#1856=CARTESIAN_POINT('',(-3.46958618309984,-1.80958618309984,0.));
#1857=CARTESIAN_POINT('',(-3.68,-1.80958618309984,0.));
#1858=CARTESIAN_POINT('',(-3.68,-1.80958618309984,0.));
#1859=CARTESIAN_POINT('',(-3.68,-1.46831087102931,0.));
#1860=CARTESIAN_POINT('',(-3.46168912897069,-1.46831087102931,0.));
#1861=CARTESIAN_POINT('',(-3.46168912897069,-1.25,0.));
#1862=CARTESIAN_POINT('',(3.46168912897069,-1.25,0.));
#1863=CARTESIAN_POINT('',(3.46168912897069,-1.25,0.));
#1864=CARTESIAN_POINT('',(3.46168912897069,-1.46831087102931,0.));
#1865=CARTESIAN_POINT('',(3.68,-1.46831087102931,0.));
#1866=CARTESIAN_POINT('',(3.68,-1.46831087102931,0.));
#1867=CARTESIAN_POINT('',(0.,0.,0.));
#1868=CARTESIAN_POINT('',(3.46168912897069,1.46831087102931,0.));
#1869=CARTESIAN_POINT('',(3.68,1.46831087102931,0.));
#1870=CARTESIAN_POINT('',(3.46168912897069,1.25,0.));
#1871=CARTESIAN_POINT('',(-3.46168912897069,1.25,0.));
#1872=CARTESIAN_POINT('',(-3.46168912897069,1.25,0.));
#1873=CARTESIAN_POINT('',(-3.46168912897069,1.46831087102931,0.));
#1874=CARTESIAN_POINT('',(-3.68,1.46831087102931,0.));
#1875=CARTESIAN_POINT('',(-3.68,1.80958618309984,0.));
#1876=CARTESIAN_POINT('',(-3.68,1.80958618309984,0.));
#1877=CARTESIAN_POINT('',(-3.46958618309984,1.80958618309984,0.));
#1878=CARTESIAN_POINT('',(-3.46958618309983,2.02,0.));
#1879=CARTESIAN_POINT('',(-3.41241930438467,2.02,0.));
#1880=CARTESIAN_POINT('',(-3.41241930438467,2.02,0.));
#1881=CARTESIAN_POINT('',(-3.41241930438467,2.17241930438467,0.));
#1882=CARTESIAN_POINT('',(-3.26,2.17241930438467,0.));
#1883=CARTESIAN_POINT('',(-3.26,2.5,0.));
#1884=CARTESIAN_POINT('',(-3.26,2.5,0.));
#1885=CARTESIAN_POINT('',(4.75,2.5,0.));
#1886=CARTESIAN_POINT('',(-2.51614605573139,2.5,0.));
#1887=CARTESIAN_POINT('',(-2.26614605573139,2.5,0.));
#1888=CARTESIAN_POINT('',(-2.01614605573139,2.5,0.));
#1889=CARTESIAN_POINT('',(4.75,2.5,0.));
#1890=CARTESIAN_POINT('',(2.09743441865231,2.5,0.));
#1891=CARTESIAN_POINT('',(2.34743441865231,2.5,0.));
#1892=CARTESIAN_POINT('',(2.59743441865231,2.5,0.));
#1893=CARTESIAN_POINT('',(4.75,2.5,0.));
#1894=CARTESIAN_POINT('',(3.28,2.5,0.));
#1895=CARTESIAN_POINT('',(3.28,2.5,0.));
#1896=CARTESIAN_POINT('',(3.28,2.19715372647592,0.));
#1897=CARTESIAN_POINT('',(3.45715372647592,2.19715372647592,0.));
#1898=CARTESIAN_POINT('',(3.45715372647592,2.02,0.));
#1899=CARTESIAN_POINT('',(0.,2.02,0.));
#1900=CARTESIAN_POINT('',(3.46958618309984,2.02,0.));
#1901=CARTESIAN_POINT('',(3.46958618309984,1.80958618309984,0.));
#1902=CARTESIAN_POINT('',(3.68,1.80958618309984,0.));
#1903=CARTESIAN_POINT('',(3.68,1.80958618309984,0.));
#1904=CARTESIAN_POINT('',(-4.75,-2.5,2.));
#1905=CARTESIAN_POINT('',(-2.01614605573139,-2.5,0.83533554038874));
#1906=CARTESIAN_POINT('',(-4.75,-2.5,2.));
#1907=CARTESIAN_POINT('',(-4.75,-2.5,0.0102730255848366));
#1908=CARTESIAN_POINT('',(-4.75,-2.5,0.0102730255848366));
#1909=CARTESIAN_POINT('',(-3.26,-2.5,0.0102730255848366));
#1910=CARTESIAN_POINT('',(-3.26,-2.5,0.0102730255848366));
#1911=CARTESIAN_POINT('',(-4.75,-2.5,0.83533554038874));
#1912=CARTESIAN_POINT('',(-4.75,-2.5,0.83533554038874));
#1913=CARTESIAN_POINT('',(-4.75,-2.5,2.));
#1914=CARTESIAN_POINT('',(-4.75,-2.5,2.));
#1915=CARTESIAN_POINT('',(3.28,-2.5,0.0102730255848366));
#1916=CARTESIAN_POINT('',(3.28,-2.5,0.0102730255848366));
#1917=CARTESIAN_POINT('',(3.28,-2.5,0.0102730255848366));
#1918=CARTESIAN_POINT('',(4.75,-2.5,0.0102730255848366));
#1919=CARTESIAN_POINT('',(4.75,-2.5,2.));
#1920=CARTESIAN_POINT('',(4.75,-2.5,0.83533554038874));
#1921=CARTESIAN_POINT('',(2.59743441865231,-2.5,0.83533554038874));
#1922=CARTESIAN_POINT('',(4.75,2.5,2.));
#1923=CARTESIAN_POINT('',(-3.26,2.5,0.0102730255848366));
#1924=CARTESIAN_POINT('',(-3.26,2.5,0.0102730255848366));
#1925=CARTESIAN_POINT('',(-3.26,2.5,0.0102730255848366));
#1926=CARTESIAN_POINT('',(-4.75,2.5,0.0102730255848366));
#1927=CARTESIAN_POINT('',(-4.75,2.5,2.));
#1928=CARTESIAN_POINT('',(-4.75,2.5,0.83533554038874));
#1929=CARTESIAN_POINT('',(-2.51614605573139,2.5,0.83533554038874));
#1930=CARTESIAN_POINT('',(-2.51614605573139,2.5,0.83533554038874));
#1931=CARTESIAN_POINT('',(-2.51614605573139,2.5,3.00776110963627));
#1932=CARTESIAN_POINT('',(4.75,2.5,2.));
#1933=CARTESIAN_POINT('',(-2.01614605573139,2.5,3.00776110963627));
#1934=CARTESIAN_POINT('',(-2.01614605573139,2.5,0.83533554038874));
#1935=CARTESIAN_POINT('',(2.09743441865231,2.5,0.83533554038874));
#1936=CARTESIAN_POINT('',(2.09743441865231,2.5,0.83533554038874));
#1937=CARTESIAN_POINT('',(2.09743441865231,2.5,3.00776110963627));
#1938=CARTESIAN_POINT('',(-4.75,2.5,2.));
#1939=CARTESIAN_POINT('',(-4.75,-1.18,0.0102730255848366));
#1940=CARTESIAN_POINT('',(-4.75,-1.18,0.0102730255848366));
#1941=CARTESIAN_POINT('',(-4.75,-1.18,0.));
#1942=CARTESIAN_POINT('',(-4.75,-1.18,0.0102730255848366));
#1943=CARTESIAN_POINT('',(-4.75,-0.250000000000001,0.83533554038874));
#1944=CARTESIAN_POINT('',(-4.75,2.5,0.));
#1945=CARTESIAN_POINT('',(-4.75,2.5,2.));
#1946=CARTESIAN_POINT('',(-4.75,2.5,0.0102730255848366));
#1947=CARTESIAN_POINT('',(-4.75,1.18,0.0102730255848366));
#1948=CARTESIAN_POINT('',(-4.75,1.18,0.0102730255848366));
#1949=CARTESIAN_POINT('',(-4.75,1.18,0.));
#1950=CARTESIAN_POINT('',(-4.75,2.5,0.));
#1951=CARTESIAN_POINT('',(-4.75,2.5,0.83533554038874));
#1952=CARTESIAN_POINT('',(0.,0.,0.));
#1953=CARTESIAN_POINT('',(-3.86,0.447497209988187,0.));
#1954=CARTESIAN_POINT('',(-3.86,0.447497209988187,0.));
#1955=CARTESIAN_POINT('',(-3.86,-4.33680868994202E-16,0.));
#1956=CARTESIAN_POINT('',(-3.86,-0.447497209988188,0.));
#1957=CARTESIAN_POINT('',(-3.86,-0.447497209988188,0.));
#1958=CARTESIAN_POINT('',(4.75,-2.5,2.));
#1959=CARTESIAN_POINT('',(4.75,-2.5,0.0102730255848366));
#1960=CARTESIAN_POINT('',(4.75,2.5,0.0102730255848366));
#1961=CARTESIAN_POINT('',(4.75,2.5,2.));
#1962=CARTESIAN_POINT('',(4.75,2.5,0.83533554038874));
#1963=CARTESIAN_POINT('',(4.75,-2.5,0.83533554038874));
#1964=CARTESIAN_POINT('',(4.75,2.5,2.));
#1965=CARTESIAN_POINT('',(4.75,2.5,0.0102730255848366));
#1966=CARTESIAN_POINT('',(3.28,2.5,0.0102730255848366));
#1967=CARTESIAN_POINT('',(3.28,2.5,0.0102730255848366));
#1968=CARTESIAN_POINT('',(2.59743441865231,2.5,3.00776110963627));
#1969=CARTESIAN_POINT('',(2.59743441865231,2.5,0.83533554038874));
#1970=CARTESIAN_POINT('',(4.75,2.5,0.83533554038874));
#1971=CARTESIAN_POINT('',(2.34743441865231,2.5,3.00776110963627));
#1972=CARTESIAN_POINT('',(2.34743441865231,2.5,0.83533554038874));
#1973=CARTESIAN_POINT('',(-2.26614605573139,2.5,3.00776110963627));
#1974=CARTESIAN_POINT('',(-2.26614605573139,2.5,0.83533554038874));
#1975=CARTESIAN_POINT('',(4.4870253164557,-2.24177215189873,1.43976090853082));
#1976=CARTESIAN_POINT('',(4.4870253164557,-2.24177215189873,2.));
#1977=CARTESIAN_POINT('',(4.4870253164557,-2.24177215189873,2.));
#1978=CARTESIAN_POINT('',(-4.4870253164557,-2.24177215189873,2.));
#1979=CARTESIAN_POINT('',(-4.4870253164557,-2.24177215189873,1.43976090853082));
#1980=CARTESIAN_POINT('',(-4.4870253164557,-2.24177215189873,0.83533554038874));
#1981=CARTESIAN_POINT('',(4.4870253164557,-2.24177215189873,0.83533554038874));
#1982=CARTESIAN_POINT('',(4.4870253164557,-2.24177215189873,0.83533554038874));
#1983=CARTESIAN_POINT('',(4.4870253164557,-2.24177215189873,1.43976090853082));
#1984=CARTESIAN_POINT('',(4.4870253164557,2.24177215189873,1.43976090853082));
#1985=CARTESIAN_POINT('',(4.4870253164557,2.24177215189873,2.));
#1986=CARTESIAN_POINT('',(4.4870253164557,2.24177215189873,2.));
#1987=CARTESIAN_POINT('',(4.4870253164557,2.24177215189873,0.83533554038874));
#1988=CARTESIAN_POINT('',(4.4870253164557,2.24177215189873,0.83533554038874));
#1989=CARTESIAN_POINT('',(4.4870253164557,2.24177215189873,1.43976090853082));
#1990=CARTESIAN_POINT('',(-4.48702531645569,2.24177215189874,1.43976090853082));
#1991=CARTESIAN_POINT('',(-4.48702531645569,2.24177215189874,2.));
#1992=CARTESIAN_POINT('',(-4.48702531645569,2.24177215189874,2.));
#1993=CARTESIAN_POINT('',(-4.48702531645569,2.24177215189874,0.83533554038874));
#1994=CARTESIAN_POINT('',(-4.48702531645569,2.24177215189874,0.83533554038874));
#1995=CARTESIAN_POINT('',(-4.48702531645569,2.24177215189874,1.43976090853082));
#1996=CARTESIAN_POINT('',(-4.4870253164557,-2.24177215189873,1.43976090853082));
#1997=CARTESIAN_POINT('',(-4.4870253164557,-2.24177215189873,2.));
#1998=CARTESIAN_POINT('',(-4.4870253164557,-2.24177215189873,0.83533554038874));
#1999=CARTESIAN_POINT('',(2.34743441865231,2.5,0.83533554038874));
#2000=CARTESIAN_POINT('',(0.,0.,2.));
#2001=CARTESIAN_POINT('',(3.46958618309984,-1.80958618309984,0.0102730255848366));
#2002=CARTESIAN_POINT('',(3.68,-1.80958618309984,0.0102730255848366));
#2003=CARTESIAN_POINT('',(3.68,-1.80958618309984,0.0102730255848366));
#2004=CARTESIAN_POINT('',(3.46958618309984,-1.80958618309984,0.0102730255848366));
#2005=CARTESIAN_POINT('',(3.46958618309984,-2.02,0.0102730255848366));
#2006=CARTESIAN_POINT('',(3.46958618309984,-2.02,0.0102730255848366));
#2007=CARTESIAN_POINT('',(3.46958618309984,-2.02,0.0102730255848366));
#2008=CARTESIAN_POINT('',(3.46958618309984,-2.02,0.0102730255848366));
#2009=CARTESIAN_POINT('',(3.45715372647592,-2.02,0.0102730255848366));
#2010=CARTESIAN_POINT('',(3.45715372647592,-2.02,0.0102730255848366));
#2011=CARTESIAN_POINT('',(3.45715372647592,-2.19715372647592,0.0102730255848366));
#2012=CARTESIAN_POINT('',(3.45715372647592,-2.19715372647592,0.0102730255848366));
#2013=CARTESIAN_POINT('',(3.28,-2.19715372647592,0.0102730255848366));
#2014=CARTESIAN_POINT('',(3.28,-2.19715372647592,0.0102730255848366));
#2015=CARTESIAN_POINT('',(3.28,-2.5,0.0102730255848366));
#2016=CARTESIAN_POINT('',(3.28,-2.5,0.0102730255848366));
#2017=CARTESIAN_POINT('',(3.28,2.5,0.0102730255848366));
#2018=CARTESIAN_POINT('',(3.28,2.5,0.0102730255848366));
#2019=CARTESIAN_POINT('',(3.28,2.19715372647592,0.0102730255848366));
#2020=CARTESIAN_POINT('',(3.28,2.19715372647592,0.0102730255848366));
#2021=CARTESIAN_POINT('',(3.45715372647592,2.19715372647592,0.0102730255848366));
#2022=CARTESIAN_POINT('',(3.45715372647592,2.19715372647592,0.0102730255848366));
#2023=CARTESIAN_POINT('',(3.45715372647592,2.02,0.0102730255848366));
#2024=CARTESIAN_POINT('',(3.45715372647592,2.02,0.0102730255848366));
#2025=CARTESIAN_POINT('',(3.45715372647592,2.02,0.0102730255848366));
#2026=CARTESIAN_POINT('',(3.45715372647592,2.02,0.0102730255848366));
#2027=CARTESIAN_POINT('',(3.46958618309984,2.02,0.0102730255848366));
#2028=CARTESIAN_POINT('',(3.46958618309984,2.02,0.0102730255848366));
#2029=CARTESIAN_POINT('',(3.46958618309984,1.80958618309984,0.0102730255848366));
#2030=CARTESIAN_POINT('',(3.46958618309984,1.80958618309984,0.0102730255848366));
#2031=CARTESIAN_POINT('',(3.68,1.80958618309984,0.0102730255848366));
#2032=CARTESIAN_POINT('',(3.68,1.80958618309984,0.0102730255848366));
#2033=CARTESIAN_POINT('',(3.68,1.80958618309984,0.0102730255848366));
#2034=CARTESIAN_POINT('',(3.68,1.80958618309984,0.0102730255848366));
#2035=CARTESIAN_POINT('',(3.68,1.46831087102931,0.0102730255848366));
#2036=CARTESIAN_POINT('',(3.68,1.46831087102931,0.0102730255848366));
#2037=CARTESIAN_POINT('',(3.46168912897069,1.46831087102931,0.0102730255848366));
#2038=CARTESIAN_POINT('',(3.46168912897069,1.46831087102931,0.0102730255848366));
#2039=CARTESIAN_POINT('',(3.46168912897069,1.25,0.0102730255848366));
#2040=CARTESIAN_POINT('',(3.46168912897069,1.25,0.0102730255848366));
#2041=CARTESIAN_POINT('',(-3.46168912897069,1.25,0.0102730255848366));
#2042=CARTESIAN_POINT('',(-3.46168912897069,1.25,0.0102730255848366));
#2043=CARTESIAN_POINT('',(-3.46168912897069,1.25,0.0102730255848366));
#2044=CARTESIAN_POINT('',(-3.46168912897069,1.25,0.0102730255848366));
#2045=CARTESIAN_POINT('',(-3.46168912897069,1.46831087102931,0.0102730255848366));
#2046=CARTESIAN_POINT('',(-3.46168912897069,1.46831087102931,0.0102730255848366));
#2047=CARTESIAN_POINT('',(-3.68,1.46831087102931,0.0102730255848366));
#2048=CARTESIAN_POINT('',(-3.68,1.46831087102931,0.0102730255848366));
#2049=CARTESIAN_POINT('',(-3.68,1.80958618309984,0.0102730255848366));
#2050=CARTESIAN_POINT('',(-3.68,1.80958618309984,0.0102730255848366));
#2051=CARTESIAN_POINT('',(-3.68,1.80958618309984,0.0102730255848366));
#2052=CARTESIAN_POINT('',(-3.68,1.80958618309984,0.0102730255848366));
#2053=CARTESIAN_POINT('',(-3.46958618309984,1.80958618309984,0.0102730255848366));
#2054=CARTESIAN_POINT('',(-3.46958618309984,1.80958618309984,0.0102730255848366));
#2055=CARTESIAN_POINT('',(-3.46958618309983,2.02,0.0102730255848366));
#2056=CARTESIAN_POINT('',(-3.46958618309983,2.02,0.0102730255848366));
#2057=CARTESIAN_POINT('',(-3.41241930438467,2.02,0.0102730255848366));
#2058=CARTESIAN_POINT('',(-3.41241930438467,2.02,0.0102730255848366));
#2059=CARTESIAN_POINT('',(-3.41241930438467,2.02,0.0102730255848366));
#2060=CARTESIAN_POINT('',(-3.41241930438467,2.02,0.0102730255848366));
#2061=CARTESIAN_POINT('',(-3.41241930438467,2.17241930438467,0.0102730255848366));
#2062=CARTESIAN_POINT('',(-3.41241930438467,2.17241930438467,0.0102730255848366));
#2063=CARTESIAN_POINT('',(-3.26,2.17241930438467,0.0102730255848366));
#2064=CARTESIAN_POINT('',(-3.26,2.17241930438467,0.0102730255848366));
#2065=CARTESIAN_POINT('',(-3.26,2.5,0.0102730255848366));
#2066=CARTESIAN_POINT('',(-3.26,2.5,0.0102730255848366));
#2067=CARTESIAN_POINT('',(-3.86,0.447497209988187,0.0102730255848366));
#2068=CARTESIAN_POINT('',(-3.86,0.447497209988187,0.0102730255848366));
#2069=CARTESIAN_POINT('',(-3.86,0.447497209988187,0.0102730255848366));
#2070=CARTESIAN_POINT('',(-3.86,0.447497209988187,0.0102730255848366));
#2071=CARTESIAN_POINT('',(-3.86,0.447497209988187,0.0102730255848366));
#2072=CARTESIAN_POINT('',(-3.86,0.447497209988187,0.0102730255848366));
#2073=CARTESIAN_POINT('',(-3.86,-0.447497209988188,0.0102730255848366));
#2074=CARTESIAN_POINT('',(-3.86,-0.447497209988188,0.0102730255848366));
#2075=CARTESIAN_POINT('',(-3.86,-0.447497209988188,0.0102730255848366));
#2076=CARTESIAN_POINT('',(-3.86,-0.447497209988188,0.0102730255848366));
#2077=CARTESIAN_POINT('',(-3.26,-2.5,0.0102730255848366));
#2078=CARTESIAN_POINT('',(-3.26,-2.5,0.0102730255848366));
#2079=CARTESIAN_POINT('',(-3.26,-2.17241930438467,0.0102730255848366));
#2080=CARTESIAN_POINT('',(-3.26,-2.17241930438467,0.0102730255848366));
#2081=CARTESIAN_POINT('',(-3.41241930438467,-2.17241930438467,0.0102730255848366));
#2082=CARTESIAN_POINT('',(-3.41241930438467,-2.17241930438467,0.0102730255848366));
#2083=CARTESIAN_POINT('',(-3.41241930438467,-2.02,0.0102730255848366));
#2084=CARTESIAN_POINT('',(-3.41241930438467,-2.02,0.0102730255848366));
#2085=CARTESIAN_POINT('',(-3.41241930438467,-2.02,0.0102730255848366));
#2086=CARTESIAN_POINT('',(-3.41241930438467,-2.02,0.0102730255848366));
#2087=CARTESIAN_POINT('',(-3.46958618309984,-2.02,0.0102730255848366));
#2088=CARTESIAN_POINT('',(-3.46958618309984,-2.02,0.0102730255848366));
#2089=CARTESIAN_POINT('',(-3.46958618309984,-1.80958618309984,0.0102730255848366));
#2090=CARTESIAN_POINT('',(-3.46958618309984,-1.80958618309984,0.0102730255848366));
#2091=CARTESIAN_POINT('',(-3.68,-1.80958618309984,0.0102730255848366));
#2092=CARTESIAN_POINT('',(-3.68,-1.80958618309984,0.0102730255848366));
#2093=CARTESIAN_POINT('',(-3.68,-1.80958618309984,0.0102730255848366));
#2094=CARTESIAN_POINT('',(-3.68,-1.80958618309984,0.0102730255848366));
#2095=CARTESIAN_POINT('',(-3.68,-1.46831087102931,0.0102730255848366));
#2096=CARTESIAN_POINT('',(-3.68,-1.46831087102931,0.0102730255848366));
#2097=CARTESIAN_POINT('',(-3.46168912897069,-1.46831087102931,0.0102730255848366));
#2098=CARTESIAN_POINT('',(-3.46168912897069,-1.46831087102931,0.0102730255848366));
#2099=CARTESIAN_POINT('',(-3.46168912897069,-1.25,0.0102730255848366));
#2100=CARTESIAN_POINT('',(-3.46168912897069,-1.25,0.0102730255848366));
#2101=CARTESIAN_POINT('',(3.46168912897069,-1.25,0.0102730255848366));
#2102=CARTESIAN_POINT('',(3.46168912897069,-1.25,0.0102730255848366));
#2103=CARTESIAN_POINT('',(3.46168912897069,-1.25,0.0102730255848366));
#2104=CARTESIAN_POINT('',(3.46168912897069,-1.25,0.0102730255848366));
#2105=CARTESIAN_POINT('',(3.46168912897069,-1.46831087102931,0.0102730255848366));
#2106=CARTESIAN_POINT('',(3.46168912897069,-1.46831087102931,0.0102730255848366));
#2107=CARTESIAN_POINT('',(3.68,-1.46831087102931,0.0102730255848366));
#2108=CARTESIAN_POINT('',(3.68,-1.46831087102931,0.0102730255848366));
#2109=CARTESIAN_POINT('',(3.68,-1.46831087102931,0.0102730255848366));
#2110=CARTESIAN_POINT('',(3.68,-1.46831087102931,0.0102730255848366));
#2111=CARTESIAN_POINT('',(3.46958618309984,-1.80958618309984,0.0102730255848366));
#2112=MECHANICAL_DESIGN_GEOMETRIC_PRESENTATION_REPRESENTATION('',(#998,
#999,#1000,#1001,#1002,#1003,#1004,#1005,#1006,#1007,#1008,#1009,#1010,
#1011,#1012,#1013,#1014,#1015,#1016,#1017,#1018,#1019,#1020,#1021,#1022,
#1023,#1024,#1025,#1026,#1027,#1028,#1029,#1030,#1031,#1032,#1033,#1034,
#1035,#1036,#1037,#1038,#1039,#1040,#1041,#1042,#1043,#1044,#1045,#1046,
#1047,#1048,#1049,#1050),#2113);
#2113=(
GEOMETRIC_REPRESENTATION_CONTEXT(3)
GLOBAL_UNCERTAINTY_ASSIGNED_CONTEXT((#2114))
GLOBAL_UNIT_ASSIGNED_CONTEXT((#2117,#2116,#2115))
REPRESENTATION_CONTEXT('ITV9550L5045MR','TOP_LEVEL_ASSEMBLY_PART')
);
#2114=UNCERTAINTY_MEASURE_WITH_UNIT(LENGTH_MEASURE(0.005),#2117,
'DISTANCE_ACCURACY_VALUE','Maximum Tolerance applied to model');
#2115=(
NAMED_UNIT(*)
SI_UNIT($,.STERADIAN.)
SOLID_ANGLE_UNIT()
);
#2116=(
NAMED_UNIT(*)
PLANE_ANGLE_UNIT()
SI_UNIT($,.RADIAN.)
);
#2117=(
LENGTH_UNIT()
NAMED_UNIT(*)
SI_UNIT(.MILLI.,.METRE.)
);
#2118=PRODUCT_DEFINITION_SHAPE('','',#2119);
#2119=PRODUCT_DEFINITION('','',#2121,#2120);
#2120=PRODUCT_DEFINITION_CONTEXT('',#2127,'design');
#2121=PRODUCT_DEFINITION_FORMATION_WITH_SPECIFIED_SOURCE('','',#2123,
 .NOT_KNOWN.);
#2122=PRODUCT_RELATED_PRODUCT_CATEGORY('','',(#2123));
#2123=PRODUCT('ITV9550L5045MR','ITV9550L5045MR','ITV9550L5045MR',(#2125));
#2124=PRODUCT_CATEGORY('','');
#2125=PRODUCT_CONTEXT('',#2127,'mechanical');
#2126=APPLICATION_PROTOCOL_DEFINITION('international standard',
'automotive_design',2010,#2127);
#2127=APPLICATION_CONTEXT(
'core data for automotive mechanical design processes');
ENDSEC;
END-ISO-10303-21;
