M48
; DRILL file {KiCad 9.0.7} date 2026-02-11T16:45:58-0600
; FORMAT={-:-/ absolute / metric / decimal}
; #@! TF.CreationDate,2026-02-11T16:45:58-06:00
; #@! TF.GenerationSoftware,Kicad,Pcbnew,9.0.7
; #@! TF.FileFunction,Plated,1,6,PTH
FMAT,2
METRIC
; #@! TA.AperFunction,Plated,PTH,ViaDrill
T1C0.300
; #@! TA.AperFunction,Plated,PTH,ComponentDrill
T2C0.800
; #@! TA.AperFunction,Plated,PTH,ComponentDrill
T3C0.850
; #@! TA.AperFunction,Plated,PTH,ComponentDrill
T4C1.000
; #@! TA.AperFunction,Plated,PTH,ComponentDrill
T5C1.020
; #@! TA.AperFunction,Plated,PTH,ComponentDrill
T6C3.000
%
G90
G05
T1
X113.319Y-49.498
X113.319Y-93.354
X115.276Y-79.777
X115.276Y-87.583
X117.958Y-76.857
X118.146Y-87.731
X118.223Y-74.833
X119.119Y-91.665
X119.119Y-96.647
X119.119Y-105.278
X121.264Y-82.16
X121.264Y-93.456
X122.045Y-75.293
X122.779Y-66.31
X122.806Y-124.903
X122.828Y-93.354
X123.011Y-110.159
X123.045Y-102.512
X123.105Y-104.646
X124.236Y-116.2
X124.648Y-102.728
X124.943Y-29.296
X124.974Y-62.039
X124.974Y-125.514
X125.013Y-110.159
X125.107Y-104.646
X125.767Y-114.139
X125.908Y-82.29
X126.983Y-72.371
X127.562Y-102.27
X127.57Y-63.1
X127.605Y-116.8
X128.048Y-105.048
X128.308Y-71.302
X128.51Y-83.513
X128.718Y-116.28
X128.887Y-68.398
X129.266Y-61.689
X130.08Y-96.32
X130.08Y-102.27
X130.829Y-85.598
X131.404Y-63.143
X131.714Y-84.423
X131.723Y-75.295
X131.845Y-88.4
X131.959Y-112.928
X132.029Y-125.795
X132.849Y-55.228
X132.897Y-89.756
X132.984Y-45.039
X133.013Y-47.926
X133.167Y-85.341
X133.898Y-125.675
X134.171Y-94.03
X134.633Y-102.27
X134.663Y-84.449
X135.788Y-125.252
X136.166Y-58.415
X136.66Y-72.381
X136.66Y-74.771
X136.685Y-120.614
X136.96Y-67.566
X137.2Y-127.8
X137.215Y-70.092
X137.362Y-50.504
X137.533Y-58.388
X137.835Y-60.998
X138.03Y-87.617
X138.738Y-79.586
X139.301Y-85.798
X139.324Y-87.692
X139.378Y-98.134
X139.455Y-64.75
X139.466Y-66.91
X139.701Y-99.003
X140.49Y-83.953
X141.757Y-85.229
X141.849Y-87.408
X141.877Y-69.264
X141.905Y-84.081
X142.085Y-47.775
X142.102Y-80.689
X142.171Y-82.772
X142.258Y-75.057
X142.288Y-96.279
X142.336Y-70.596
X142.347Y-77.115
X142.701Y-69.506
X142.74Y-84.39
X142.753Y-71.926
X143.128Y-75.579
X143.131Y-81.791
X143.237Y-87.6
X143.812Y-66.932
X144.514Y-127.713
X144.654Y-89.733
X144.836Y-62.826
X144.92Y-48.617
X144.948Y-91.338
X145.153Y-94.385
X145.467Y-31.956
X145.467Y-117.047
X145.544Y-125.675
X145.568Y-122.139
X145.718Y-74.244
X145.718Y-79.575
X145.789Y-66.415
X145.803Y-119.667
X145.884Y-83.575
X145.923Y-80.758
X145.987Y-72.407
X145.995Y-77.732
X146.188Y-70.55
X146.266Y-69.645
X146.331Y-75.405
X146.504Y-87.256
X146.832Y-92.675
X147.012Y-35.676
X147.014Y-66.215
X147.476Y-85.723
X147.641Y-65.335
X147.808Y-49.943
X147.978Y-75.388
X148.03Y-83.359
X148.395Y-125.789
X148.397Y-37.803
X148.675Y-90.403
X148.785Y-41.119
X148.799Y-111.076
X149.095Y-83.735
X149.166Y-84.648
X149.425Y-62.203
X150.136Y-82.919
X150.201Y-95.497
X150.41Y-75.514
X150.416Y-78.027
X150.636Y-46.605
X150.68Y-92.729
X150.757Y-48.445
X150.766Y-83.754
X150.95Y-64.388
X150.953Y-87.814
X150.979Y-107.972
X151.303Y-109.183
X151.51Y-66.276
X152.181Y-90.828
X152.19Y-57.199
X152.202Y-83.7
X152.288Y-46.812
X152.45Y-69.206
X152.5Y-48.014
X152.513Y-111.567
X152.543Y-87.757
X152.588Y-101.308
X153.169Y-54.679
X153.35Y-66.213
X153.43Y-86.635
X153.44Y-85.304
X153.535Y-103.1
X153.572Y-87.775
X154.005Y-96.263
X154.214Y-70.845
X154.25Y-34.88
X154.25Y-49.838
X154.25Y-125.832
X154.3Y-69.964
X154.55Y-61.525
X154.614Y-71.944
X154.622Y-83.772
X154.762Y-60.369
X154.764Y-97.421
X154.893Y-82.757
X154.964Y-75.679
X154.97Y-78.224
X155.28Y-79.36
X155.283Y-81.553
X155.797Y-69.218
X156.209Y-79.068
X156.3Y-87.801
X156.519Y-123.2
X156.556Y-66.014
X156.781Y-91.092
X157.114Y-96.277
X157.178Y-25.328
X157.178Y-52.422
X157.178Y-93.354
X157.235Y-104.423
X157.407Y-84.169
X157.45Y-68.974
X157.5Y-85.288
X157.5Y-86.688
X157.626Y-46.44
X157.666Y-91.29
X157.773Y-107.18
X157.799Y-65.67
X157.872Y-78.735
X158.033Y-106.348
X158.14Y-99.819
X158.188Y-73.438
X158.25Y-71.052
X158.745Y-74.038
X158.9Y-91.251
X158.944Y-59.821
X159.171Y-120.364
X159.2Y-127.8
X159.324Y-50.449
X159.407Y-55.683
X159.477Y-68.89
X159.546Y-65.061
X159.627Y-79.409
X159.651Y-82.487
X159.677Y-90.325
X159.742Y-80.987
X159.911Y-78.324
X159.936Y-83.597
X159.948Y-74.132
X160.043Y-84.954
X160.105Y-26.109
X160.117Y-76.001
X160.412Y-60.438
X160.548Y-69.113
X160.642Y-90.846
X160.888Y-52.045
X160.951Y-87.624
X160.966Y-78.783
X161.799Y-65.329
X161.875Y-90.698
X161.881Y-83.616
X162.14Y-85.385
X162.228Y-73.154
X162.236Y-81.363
X162.237Y-78.731
X162.252Y-75.302
X162.29Y-69.113
X162.524Y-64.909
X162.537Y-29.032
X162.566Y-30.368
X162.685Y-90.656
X162.708Y-87.78
X162.827Y-93.191
X162.877Y-105.625
X162.897Y-40.591
X163.186Y-73.225
X163.205Y-78.825
X163.782Y-59.123
X163.895Y-69.934
X163.895Y-69.083
X163.987Y-81.355
X163.994Y-86.333
X164.048Y-73.768
X164.12Y-83.851
X164.141Y-82.887
X164.144Y-75.816
X164.284Y-95.42
X164.499Y-93.692
X164.544Y-85.624
X164.913Y-108.467
X165.202Y-49.095
X165.205Y-107.2
X165.405Y-30.689
X165.695Y-88.095
X165.961Y-52.422
X165.965Y-31.377
X166.1Y-67.236
X166.396Y-120.295
X166.709Y-98.825
X166.714Y-122.016
X167.0Y-127.8
X167.323Y-84.468
X167.331Y-74.569
X167.357Y-77.874
X167.407Y-83.439
X167.453Y-71.979
X167.514Y-81.109
X167.811Y-70.847
X167.865Y-76.724
X167.921Y-72.645
X167.971Y-85.609
X168.047Y-79.098
X168.133Y-84.743
X168.306Y-61.436
X168.309Y-59.194
X168.595Y-93.117
X168.888Y-122.139
X168.909Y-58.269
X168.918Y-81.657
X169.02Y-108.742
X169.031Y-80.817
X169.282Y-94.13
X169.515Y-63.336
X169.836Y-38.303
X169.867Y-92.861
X170.087Y-79.932
X170.144Y-40.727
X170.314Y-66.636
X170.581Y-71.961
X170.938Y-110.124
X171.436Y-69.043
X171.816Y-31.377
X171.816Y-52.422
X171.816Y-125.632
X173.554Y-88.582
X173.928Y-91.332
X174.307Y-92.302
X175.634Y-92.588
X175.736Y-96.888
X176.08Y-51.378
X176.597Y-115.816
X176.789Y-88.25
X176.823Y-108.705
X176.922Y-125.05
X176.991Y-123.019
X177.671Y-75.811
X177.671Y-87.7
X177.671Y-96.888
X177.671Y-110.629
X177.671Y-114.029
X178.11Y-29.032
X178.37Y-79.294
X179.436Y-81.98
X180.238Y-106.651
X180.599Y-52.422
X180.599Y-77.638
X180.599Y-101.668
X181.039Y-29.032
X181.49Y-104.515
X182.25Y-123.214
X182.256Y-94.152
X182.631Y-113.046
X186.849Y-63.355
X188.051Y-69.683
X189.182Y-66.724
X189.498Y-90.43
T2
X143.93Y-102.19
X143.93Y-109.81
X146.47Y-102.19
X146.47Y-109.81
T3
X130.13Y-106.895
X131.4Y-106.895
X132.67Y-106.895
T4
X116.1Y-23.34
X116.1Y-25.88
X116.1Y-28.42
X116.1Y-30.96
X116.1Y-33.5
X116.1Y-36.04
X116.1Y-38.58
X116.1Y-41.12
X116.1Y-43.66
X116.1Y-46.2
X116.1Y-48.74
X116.1Y-51.28
X116.1Y-53.82
X116.1Y-56.36
X116.1Y-58.9
X116.3Y-63.64
X116.3Y-66.18
X116.3Y-68.72
X116.3Y-71.26
X116.3Y-73.8
X116.3Y-76.34
X116.3Y-78.88
X116.3Y-81.42
X116.3Y-83.96
X116.3Y-86.5
X116.3Y-89.04
X116.3Y-91.58
X116.3Y-94.12
X116.3Y-96.66
X116.3Y-99.2
X119.1Y-107.7
X119.1Y-110.24
X119.1Y-112.78
X121.9Y-23.58
X121.9Y-26.12
X121.9Y-28.66
X121.9Y-31.2
X121.9Y-33.74
X121.9Y-36.28
X121.9Y-38.82
X121.9Y-41.36
X121.9Y-43.9
X121.9Y-46.44
X121.9Y-48.98
X121.9Y-51.52
X121.9Y-54.06
X121.9Y-56.6
X121.9Y-59.14
X127.9Y-23.42
X127.9Y-25.96
X127.9Y-28.5
X127.9Y-31.04
X127.9Y-33.58
X127.9Y-36.12
X127.9Y-38.66
X127.9Y-41.2
X127.9Y-43.74
X127.9Y-46.28
X127.9Y-48.82
X127.9Y-51.36
X127.9Y-53.9
X127.9Y-56.44
X127.9Y-58.98
X134.3Y-23.52
X134.3Y-26.06
X134.3Y-28.6
X134.3Y-31.14
X134.3Y-33.68
X134.3Y-36.22
X134.3Y-38.76
X134.3Y-41.3
X134.3Y-43.84
X134.3Y-46.38
X134.3Y-48.92
X134.3Y-51.46
X134.3Y-54.0
X134.3Y-56.54
X134.3Y-59.08
X137.468Y-102.33
X137.468Y-104.87
X137.468Y-107.41
X140.1Y-23.34
X140.1Y-25.88
X140.1Y-28.42
X140.1Y-30.96
X140.1Y-33.5
X140.1Y-36.04
X140.1Y-38.58
X140.1Y-41.12
X140.1Y-43.66
X140.1Y-46.2
X140.1Y-48.74
X140.1Y-51.28
X140.1Y-53.82
X140.1Y-56.36
X140.1Y-58.9
X187.3Y-71.68
X187.3Y-74.22
X187.3Y-76.76
X187.3Y-79.3
X187.3Y-81.84
X187.3Y-84.38
X187.3Y-86.92
X187.3Y-89.46
X187.3Y-92.0
X187.3Y-94.54
X187.3Y-97.08
X187.3Y-99.62
X187.3Y-102.16
X187.3Y-104.7
X187.3Y-107.24
X191.7Y-32.24
X191.7Y-34.78
X191.7Y-37.32
X191.7Y-39.86
X191.7Y-42.4
X191.7Y-44.94
X191.7Y-47.48
X191.7Y-50.02
X191.7Y-52.56
X191.7Y-55.1
X191.7Y-57.64
X191.7Y-60.18
X191.7Y-62.72
X191.7Y-65.26
X191.7Y-67.8
X191.7Y-71.56
X191.7Y-74.1
X191.7Y-76.64
X191.7Y-79.18
X191.7Y-81.72
X191.7Y-84.26
X191.7Y-86.8
X191.7Y-89.34
X191.7Y-91.88
X191.7Y-94.42
X191.7Y-96.96
X191.7Y-99.5
X191.7Y-102.04
X191.7Y-104.58
X191.7Y-107.12
T5
X156.88Y-44.142
X161.64Y-44.1
X163.2Y-55.2
X166.48Y-44.042
X168.0Y-55.2
X171.28Y-44.042
X172.8Y-55.2
X176.08Y-44.042
X177.6Y-55.2
X180.88Y-44.042
X182.4Y-55.2
X185.68Y-44.042
T6
X116.8Y-125.2
X191.8Y-125.1
X192.4Y-23.3
M30
